<svg xmlns="http://www.w3.org/2000/svg" style="isolation:isolate" viewBox="0 0 420 298"><defs><clipPath id="a"><path d="M0 0h420v298H0z"/></clipPath></defs><g clip-path="url(#a)"><mask id="b" width="400%" height="400%" x="-200%" y="-200%"><rect width="400%" height="400%" x="-200%" y="-200%" fill="#fff"/><path d="M210.001 125.712v39.094"/></mask><path stroke="#000" stroke-linecap="square" stroke-linejoin="round" stroke-miterlimit="1.5" stroke-width="16.34" d="M210.001 125.712v39.094" mask="url(#b)" vector-effect="non-scaling-stroke"/><mask id="c" width="400%" height="400%" x="-200%" y="-200%"><rect width="400%" height="400%" x="-200%" y="-200%" fill="#fff"/><path d="M190.453 145.259h39.094"/></mask><path stroke="#000" stroke-linecap="square" stroke-linejoin="round" stroke-miterlimit="1.5" stroke-width="16.34" d="M190.453 145.259h39.094" mask="url(#c)" vector-effect="non-scaling-stroke"/><mask id="d" width="400%" height="400%" x="-200%" y="-200%"><rect width="400%" height="400%" x="-200%" y="-200%" fill="#fff"/><path fill-rule="evenodd" d="M382.045 142.759c0-31.459-25.541-57-57-57-31.46 0-57 25.541-57 57s25.54 57 57 57c31.459 0 57-25.541 57-57Z"/></mask><path fill="none" stroke="#6ADAAB" stroke-opacity="100" stroke-width="12" d="M382.045 142.759c0-31.459-25.541-57-57-57-31.46 0-57 25.541-57 57s25.54 57 57 57c31.459 0 57-25.541 57-57Z" mask="url(#d)" vector-effect="non-scaling-stroke"/><path fill="none" d="M382.045 142.759c0-31.459-25.541-57-57-57-31.46 0-57 25.541-57 57s25.54 57 57 57c31.459 0 57-25.541 57-57Z"/><path fill="#6ADAAB" d="M317.467 155.012c0-1.827-.562-3.331-1.685-4.513-1.122-1.203-2.993-2.277-5.612-3.222-2.621-.967-4.657-1.859-6.113-2.676-4.844-2.685-7.267-6.66-7.267-11.924 0-3.567 1.05-6.5 3.151-8.799 2.099-2.299 4.324-3.599 7.921-4.029v-7.09h5.613v7.09c3.618.538 6.413 2.128 8.389 4.77 1.974 2.622 2.962 6.038 2.962 10.249h-7.546c0-2.707-.594-4.834-1.779-6.381-1.163-1.569-2.754-2.353-4.771-2.353-1.996 0-3.555.559-4.678 1.676-1.121 1.117-1.683 2.718-1.683 4.802 0 1.869.551 3.374 1.652 4.512 1.124 1.118 3.016 2.181 5.677 3.191 2.661 1.01 4.75 1.944 6.267 2.804 1.519.859 2.796 1.848 3.837 2.965a11.623 11.623 0 0 1 2.401 3.803c.56 1.44.842 3.126.842 5.06 0 3.631-1.082 6.575-3.243 8.831-2.142 2.256-4.741 3.62-8.587 4.029v4.952h-5.353v-4.952c-4.116-.473-7.288-1.999-9.512-4.577-2.204-2.578-3.305-5.995-3.305-10.249h7.577c0 2.707.656 4.802 1.966 6.285 1.329 1.482 3.201 2.224 5.613 2.224 2.37 0 4.168-.591 5.394-1.773 1.248-1.182 1.872-2.75 1.872-4.705ZM335.045 137.759h5v15h-5zM345.045 132.759h5v25h-5zM355.045 127.759h5v35h-5z"/><path fill="#494368" d="M40.704 177.389c.84 0 1.534.294 2.122.882.589.589.883 1.303.883 2.123v10.422H33.055c-.841 0-1.534-.294-2.122-.882a2.905 2.905 0 0 1-.883-2.123v-4.959h11.158v-2.458a.464.464 0 0 0-.147-.358.46.46 0 0 0-.357-.147H30.05v-2.5h10.654Zm.504 10.927v-2.963h-8.657v2.458c0 .148.042.253.147.358a.46.46 0 0 0 .357.147h8.153Zm24.103-10.927h2.668l-5.043 13.427h-2.038l-4.518-9.981-4.266 9.981-.042-.021.021.021h-2.017l-5.275-13.427h2.648l3.636 8.909 3.866-8.909h2.858l4.097 8.909 3.405-8.909Zm14.121 0c.84 0 1.534.294 2.122.882.588.589.883 1.303.883 2.123v4.959H71.278v2.458c0 .148.043.253.148.358a.46.46 0 0 0 .357.147h10.654v2.5H71.783c-.841 0-1.534-.294-2.123-.882a2.908 2.908 0 0 1-.882-2.123v-7.417c0-.841.294-1.534.882-2.123a2.908 2.908 0 0 1 2.123-.882h7.649Zm-8.154 5.463h8.658v-2.458a.464.464 0 0 0-.147-.358.46.46 0 0 0-.357-.147h-7.649a.46.46 0 0 0-.357.147.465.465 0 0 0-.148.358v2.458Zm27.108-2.437v.504h-2.501v-.504a.464.464 0 0 0-.147-.358.46.46 0 0 0-.357-.147h-7.649a.46.46 0 0 0-.357.147.464.464 0 0 0-.147.358v1.954a.46.46 0 0 0 .147.357.46.46 0 0 0 .357.147h7.649c.841 0 1.534.294 2.122.883.589.588.883 1.303.883 2.122v1.954c0 .841-.294 1.534-.883 2.123a2.904 2.904 0 0 1-2.122.882h-7.649c-.84 0-1.534-.294-2.122-.882a2.905 2.905 0 0 1-.883-2.123v-.504h2.501v.504c0 .148.042.253.147.358a.46.46 0 0 0 .357.147h7.649a.46.46 0 0 0 .357-.147.461.461 0 0 0 .147-.358v-1.954a.46.46 0 0 0-.147-.357.46.46 0 0 0-.357-.147h-7.649c-.84 0-1.534-.294-2.122-.883a2.902 2.902 0 0 1-.883-2.122v-1.954c0-.841.294-1.534.883-2.123a2.905 2.905 0 0 1 2.122-.882h7.649c.841 0 1.534.294 2.122.882.589.568.883 1.282.883 2.123Zm5.295-3.026h7.649c.841 0 1.534.294 2.123.882.588.589.882 1.303.882 2.123v7.417c0 .841-.294 1.534-.882 2.123a2.908 2.908 0 0 1-2.123.882h-7.649c-.84 0-1.534-.294-2.122-.882a2.908 2.908 0 0 1-.883-2.123v-7.417c0-.841.295-1.534.883-2.123a2.905 2.905 0 0 1 2.122-.882Zm7.649 2.5h-7.649a.46.46 0 0 0-.357.147.464.464 0 0 0-.147.358v7.417c0 .148.042.253.147.358a.46.46 0 0 0 .357.147h7.649a.46.46 0 0 0 .357-.147.459.459 0 0 0 .148-.358v-7.417a.462.462 0 0 0-.148-.358c-.105-.084-.21-.147-.357-.147Zm22.59-2.5c.84 0 1.534.294 2.122.882.588.589.883 1.303.883 2.123v10.422h-2.48v-10.422a.464.464 0 0 0-.147-.358.506.506 0 0 0-.378-.147h-5.296a.46.46 0 0 0-.357.147.464.464 0 0 0-.147.358v10.422h-2.501v-10.422a.464.464 0 0 0-.147-.358.46.46 0 0 0-.357-.147h-5.316a.464.464 0 0 0-.358.147.464.464 0 0 0-.147.358v10.422h-2.5v-13.427h17.126Zm16.075 0c.841 0 1.534.294 2.122.882.589.589.883 1.303.883 2.123v4.959h-11.158v2.458c0 .148.042.253.147.358a.46.46 0 0 0 .357.147H153v2.5h-10.654c-.84 0-1.534-.294-2.122-.882a2.905 2.905 0 0 1-.883-2.123v-7.417c0-.841.294-1.534.883-2.123a2.905 2.905 0 0 1 2.122-.882h7.649Zm-8.153 5.463h8.657v-2.458a.464.464 0 0 0-.147-.358.46.46 0 0 0-.357-.147h-7.649a.46.46 0 0 0-.357.147.464.464 0 0 0-.147.358v2.458Z"/><path fill="#FC60A8" d="m152.979 128.616-31.52-28.914-4.434 4.833 26.267 24.081H39.758l26.267-24.102-4.434-4.833-31.52 28.935h-.021v19.06c0 8.615 8.3 15.634 18.492 15.634h19.437c10.192 0 18.492-7.019 18.492-15.634v-12.524h10.087v12.524c0 8.615 8.3 15.634 18.492 15.634h19.437c10.192 0 18.492-7.019 18.492-15.634v-19.06Z"/></g></svg>
