<?xml version="1.0" encoding="UTF-8" standalone="no"?>
<!DOCTYPE svg PUBLIC "-//W3C//DTD SVG 1.1//EN" "http://www.w3.org/Graphics/SVG/1.1/DTD/svg11.dtd">
<svg width="100%" height="100%" viewBox="0 0 420 298" version="1.1" xmlns="http://www.w3.org/2000/svg" xmlns:xlink="http://www.w3.org/1999/xlink" xml:space="preserve" xmlns:serif="http://www.serif.com/" style="fill-rule:evenodd;clip-rule:evenodd;stroke-linecap:square;stroke-linejoin:round;stroke-miterlimit:1.5;">
    <g transform="matrix(1,0,0,1,-0.4615,1.9721)">
        <g transform="matrix(1,0,0,1,10,0)">
            <path d="M200.462,123.74L200.462,162.834" style="fill:none;stroke:black;stroke-width:8.17px;"/>
        </g>
        <g transform="matrix(6.12323e-17,-1,1,6.12323e-17,67.1745,343.749)">
            <path d="M200.462,123.74L200.462,162.834" style="fill:none;stroke:black;stroke-width:8.17px;"/>
        </g>
    </g>
    <g transform="matrix(1,0,0,1,-1.24435,-8.864)">
        <g transform="matrix(0.232641,0,0,0.232641,36.4658,92.3079)">
            <path d="M512,256C512,114.71 397.29,0 256,0C114.71,0 0,114.71 0,256C0,397.29 114.71,512 256,512C397.29,512 512,397.29 512,256Z" style="fill:#639;"/>
        </g>
        <g transform="matrix(0.232641,0,0,0.232641,45.4658,100.3079)">
          <path d="M98.64,337.43c-32.39-32.38-49.35-75.57-49.35-117.21l168.1,166.57C174.21,385.24,131,369.82,98.64,337.43ZM256,382.16l-202-202c17-75.57,84.82-132.63,165-132.63,57.06,0,106.41,27.76,137.26,69.4l-23.14,20c-26.22-35.47-67.86-58.61-114.12-58.61-60.15,0-111,38.56-131.1,92.54L265.2,348.23c44.73-15.42,78.66-54,89.45-100.25h-74V217.14h108C388.58,297.33,331.52,365.19,256,382.16Z" style="fill:#fff"/>
        </g>
    </g>
    <g transform="matrix(1,0,0,1,-94.3065,-55.7409)">
        <g transform="matrix(1,0,0,1,359.351,138.5)">
            <path d="M117,60C117,28.541 91.459,3 60,3C28.541,3 3,28.541 3,60C3,91.459 28.541,117 60,117C91.459,117 117,91.459 117,60Z" style="fill:none;stroke:rgb(106,218,171);stroke-width:6px;stroke-linecap:butt;stroke-linejoin:miter;stroke-miterlimit:4;"/>
        </g>
        <g transform="matrix(1,0,0,1,359.351,138.5)">
            <path d="M52.422,72.253C52.422,70.426 51.861,68.922 50.738,67.74C49.615,66.537 47.744,65.463 45.125,64.518C42.505,63.551 40.468,62.659 39.013,61.842C34.168,59.157 31.746,55.182 31.746,49.918C31.746,46.351 32.796,43.418 34.896,41.119C36.996,38.82 39.22,37.52 42.817,37.09L42.817,30L48.43,30L48.43,37.09C52.048,37.628 54.844,39.218 56.819,41.86C58.794,44.482 59.782,47.898 59.782,52.109L52.235,52.109C52.235,49.402 51.642,47.275 50.457,45.728C49.293,44.159 47.703,43.375 45.686,43.375C43.69,43.375 42.131,43.934 41.008,45.051C39.886,46.168 39.324,47.769 39.324,49.853C39.324,51.722 39.875,53.227 40.977,54.365C42.1,55.483 43.992,56.546 46.653,57.556C49.314,58.566 51.403,59.5 52.921,60.36C54.439,61.219 55.717,62.208 56.757,63.325C57.796,64.421 58.597,65.689 59.158,67.128C59.719,68.568 60,70.254 60,72.188C60,75.819 58.919,78.763 56.757,81.019C54.615,83.275 52.017,84.639 48.17,85.048L48.17,90L42.817,90L42.817,85.048C38.701,84.575 35.53,83.049 33.306,80.471C31.102,77.893 30,74.476 30,70.222L37.578,70.222C37.578,72.929 38.233,75.024 39.543,76.507C40.873,77.989 42.744,78.731 45.156,78.731C47.526,78.731 49.324,78.14 50.551,76.958C51.798,75.776 52.422,74.208 52.422,72.253Z" style="fill:rgb(106,218,171);fill-rule:nonzero;"/>
        </g>
        <g transform="matrix(1,0,0,1,359.351,138.5)">
            <rect x="70" y="55" width="5" height="15" style="fill:rgb(106,218,171);"/>
        </g>
        <g transform="matrix(1,0,0,1,359.351,138.5)">
            <rect x="80" y="50" width="5" height="25" style="fill:rgb(106,218,171);"/>
        </g>
        <g transform="matrix(1,0,0,1,359.351,138.5)">
            <rect x="90" y="45" width="5" height="35" style="fill:rgb(106,218,171);"/>
        </g>
    </g>
    <defs>
        <linearGradient id="_Linear1" x1="0" y1="0" x2="1" y2="0" gradientUnits="userSpaceOnUse" gradientTransform="matrix(1.18723e-14,-193.89,193.89,1.18723e-14,263.862,445.388)"><stop offset="0" style="stop-color:white;stop-opacity:0.95"/><stop offset="1" style="stop-color:white;stop-opacity:0.5"/></linearGradient>
    </defs>
</svg>
