<?xml version="1.0" encoding="UTF-8"?><svg id="Layer_1" xmlns="http://www.w3.org/2000/svg" viewBox="0 0 442.79 442.79"><defs><style>.cls-1{fill:#3e4248;}</style></defs><polygon class="cls-1" points="349.3 309.84 349.3 336.23 29.13 336.23 29.13 157.54 71.56 157.56 71.57 128.65 .22 128.61 .22 128.66 .21 128.66 .21 147.18 .2 157.52 .21 157.52 .21 363.4 .22 363.4 .22 365.14 349.3 365.14 349.3 365.15 378.22 365.15 378.22 309.84 349.3 309.84"/><rect class="cls-1" x="29.13" y="336.23" width="80.21" height="29.13"/><rect class="cls-1" x="-25.54" y="310.69" width="80.21" height="29.13" transform="translate(339.82 310.69) rotate(90)"/><rect class="cls-1" x="-25.54" y="230.48" width="80.21" height="29.13" transform="translate(259.61 230.48) rotate(90)"/><rect class="cls-1" x="108.97" y="336.23" width="80.21" height="29.13"/><rect class="cls-1" x="189.39" y="336.23" width="80.21" height="29.13"/><rect class="cls-1" x="269.59" y="336.23" width="80.21" height="29.13"/><rect class="cls-1" x="329.1" y="316.22" width="69.1" height="29.13" transform="translate(694.44 -32.87) rotate(90)"/><path class="cls-1" d="m64.77,66.51v236.52h378.02V66.51H64.77Zm83.38,123.05c0,7.44-6.03,13.48-13.48,13.48h-9.72c-7.44,0-13.48-6.03-13.48-13.48v-9.72c0-7.44,6.03-13.48,13.48-13.48h9.72c7.44,0,13.48,6.03,13.48,13.48v9.72Zm105.64,54.86c-32.51,0-58.87-26.36-58.87-58.87s26.36-58.87,58.87-58.87,58.87,26.36,58.87,58.87-26.36,58.87-58.87,58.87Zm142.26-54.86c0,7.44-6.03,13.48-13.48,13.48h-9.72c-7.44,0-13.48-6.03-13.48-13.48v-9.72c0-7.44,6.03-13.48,13.48-13.48h9.72c7.44,0,13.48,6.03,13.48,13.48v9.72Z"/></svg>