<svg xmlns="http://www.w3.org/2000/svg" fill="none" viewBox="0 0 24 24"><path fill="#000" d="M8.857 5.013C10.512 3.33 12.193 1.673 13.858 0c.002 1.122 0 2.244.002 3.367 1.026-.03 2.068.056 3.049.375 1.11.351 2.12 1.057 2.763 2.037.478.721.75 1.565.852 2.421.075.564.057 1.135.059 1.703v7.463c.68.381 1.226.997 1.51 1.724a3.381 3.381 0 0 1-1.617 4.26 3.39 3.39 0 0 1-2.42.25 3.41 3.41 0 0 1-1.959-1.431 3.38 3.38 0 0 1-.5-2.379 3.41 3.41 0 0 1 1.597-2.362V9.212c0-.567-.065-1.175-.411-1.646-.289-.389-.765-.575-1.226-.665-.559-.11-1.13-.12-1.698-.125v3.388L9.252 5.557c-.133-.135-.272-.264-.396-.408l-.03.036V4.98l.031.034Zm9.739 13.658a1.7 1.7 0 0 0-.997.626c-.509.633-.456 1.63.12 2.203.547.596 1.534.698 2.188.22.66-.44.92-1.37.578-2.087-.306-.71-1.134-1.134-1.89-.962ZM3.923 2.31a3.39 3.39 0 0 1 2.102-.273 3.395 3.395 0 0 1 2.1 1.334c.55.747.772 1.726.588 2.636a3.411 3.411 0 0 1-1.63 2.29c-.002 3.128-.002 6.255 0 9.383a3.385 3.385 0 0 1-2.658 6.18 3.413 3.413 0 0 1-1.983-1.575 3.382 3.382 0 0 1-.373-2.352 3.41 3.41 0 0 1 1.623-2.253c.002-3.127.002-6.256 0-9.384A3.388 3.388 0 0 1 2.221 4.16a3.411 3.411 0 0 1 1.702-1.85Zm1.12 1.395a1.696 1.696 0 0 0-.933 2.77c.504.6 1.44.763 2.114.363.694-.38 1.038-1.277.767-2.022-.255-.788-1.138-1.298-1.947-1.11Zm0 15.248c-.394.08-.753.31-.999.628-.508.633-.455 1.63.121 2.203.548.595 1.536.696 2.19.218.659-.44.918-1.369.577-2.085-.306-.71-1.133-1.135-1.889-.964Z"/></svg>
