<?xml version="1.0" standalone="no"?>
<!DOCTYPE svg PUBLIC "-//W3C//DTD SVG 20010904//EN"
 "http://www.w3.org/TR/2001/REC-SVG-20010904/DTD/svg10.dtd">
<svg version="1.0" xmlns="http://www.w3.org/2000/svg"
 width="1303.000000pt" height="400.000000pt" viewBox="0 0 1303.000000 400.000000"
 preserveAspectRatio="xMidYMid meet">

<g transform="translate(0.000000,400.000000) scale(0.100000,-0.100000)"
fill="#000000" stroke="none">
<path d="M1655 3664 c-471 -76 -869 -332 -1134 -729 -302 -452 -357 -1027
-146 -1532 215 -513 653 -875 1205 -995 91 -19 134 -22 320 -22 186 0 229 3
320 22 290 63 534 183 754 371 103 88 238 240 228 255 -4 6 -46 70 -93 141
-47 72 -116 182 -153 245 -38 63 -70 117 -72 118 -1 2 -14 -18 -27 -45 -39
-75 -137 -202 -208 -267 -221 -205 -517 -311 -818 -293 -588 35 -1031 516
-1031 1118 0 140 49 337 117 473 205 407 654 650 1103 597 265 -32 455 -132
673 -354 175 -178 325 -392 642 -917 219 -363 326 -524 456 -692 l37 -47 178
165 c99 91 190 176 202 189 l24 22 -68 94 c-99 138 -190 280 -379 594 -181
302 -335 540 -436 675 -341 456 -710 714 -1146 801 -142 28 -417 35 -548 13z"/>
<path d="M4969 3665 c-266 -36 -524 -144 -751 -312 -101 -74 -232 -198 -295
-278 l-31 -41 70 -104 c38 -58 110 -171 160 -252 49 -82 93 -148 97 -148 4 0
13 12 20 28 24 51 103 164 158 223 349 377 943 456 1380 183 416 -259 611
-766 477 -1239 -98 -347 -364 -624 -708 -739 -207 -70 -483 -71 -679 -5 -61
22 -166 72 -220 106 l-27 18 -190 -190 c-105 -104 -190 -195 -190 -201 0 -16
122 -96 235 -155 129 -67 253 -113 390 -145 112 -26 135 -28 335 -28 237 0
325 13 512 75 571 190 1011 695 1113 1279 107 611 -142 1239 -640 1611 -353
263 -780 373 -1216 314z"/>
<path d="M7200 2870 l0 -460 95 0 95 0 0 460 0 460 -95 0 -95 0 0 -460z"/>
<path d="M7595 3318 c-3 -7 -4 -213 -3 -458 l3 -445 95 0 95 0 5 267 5 267
215 -270 215 -269 65 2 65 3 0 455 0 455 -95 0 -95 0 -5 -269 -5 -270 -215
272 -215 271 -63 1 c-41 0 -64 -4 -67 -12z"/>
<path d="M8560 2870 l0 -460 95 0 95 0 2 168 3 167 123 3 122 3 0 84 0 85
-125 0 -126 0 3 118 3 117 188 3 187 2 0 85 0 85 -285 0 -285 0 0 -460z"/>
<path d="M9320 2870 l0 -460 95 0 95 0 0 460 0 460 -95 0 -95 0 0 -460z"/>
<path d="M9710 2870 l0 -460 95 0 95 0 0 265 c0 169 4 265 10 265 5 0 105
-119 222 -265 l212 -265 63 0 63 0 0 460 0 460 -95 0 -95 0 0 -265 c0 -155 -4
-265 -9 -265 -5 0 -104 119 -220 265 l-211 265 -65 0 -65 0 0 -460z"/>
<path d="M10667 3324 c-4 -4 -7 -211 -7 -461 l0 -454 98 3 97 3 0 455 0 455
-90 3 c-50 1 -94 0 -98 -4z"/>
<path d="M11020 3245 l0 -85 113 0 c75 0 117 -4 125 -12 9 -9 12 -106 12 -375
l0 -363 95 0 95 0 2 373 3 372 123 3 123 3 -3 82 -3 82 -342 3 -343 2 0 -85z"/>
<path d="M11830 3326 c0 -3 81 -119 180 -257 l180 -252 0 -203 0 -204 95 0 95
0 0 208 0 207 175 244 c96 134 175 247 175 252 0 5 -46 9 -103 9 l-102 0 -118
-166 c-65 -91 -123 -164 -127 -162 -5 2 -60 75 -123 163 l-113 160 -107 3
c-59 1 -107 0 -107 -2z"/>
<path d="M5095 2939 c-253 -27 -507 -179 -655 -393 -101 -147 -150 -297 -157
-481 -8 -208 35 -379 137 -542 22 -36 40 -69 38 -72 -2 -4 -189 -186 -415
-405 -357 -345 -413 -403 -413 -428 0 -41 82 -128 121 -128 23 0 98 68 443
400 229 220 420 400 424 400 5 0 46 -24 91 -54 266 -176 620 -193 916 -45 204
102 373 290 454 509 39 104 53 191 53 310 0 256 -86 469 -261 653 -200 209
-476 307 -776 276z m325 -128 c278 -73 506 -306 581 -596 24 -96 29 -271 10
-360 -66 -301 -292 -542 -588 -627 -103 -30 -323 -32 -423 -5 -159 44 -330
155 -433 282 -57 71 -130 215 -154 305 -25 92 -25 329 0 420 84 310 353 550
672 601 84 13 243 4 335 -20z"/>
<path d="M7445 1541 c-143 -37 -224 -158 -196 -292 25 -116 84 -165 275 -229
141 -47 183 -70 192 -105 16 -65 -21 -103 -110 -112 -96 -10 -196 48 -196 112
0 13 -4 27 -10 30 -5 3 -48 0 -96 -6 l-86 -12 5 -53 c16 -156 144 -244 358
-244 246 0 381 139 325 334 -29 98 -119 166 -286 216 -128 38 -180 73 -180
121 0 78 135 106 208 44 16 -14 32 -39 36 -56 l6 -32 73 7 c39 4 80 9 90 12
42 13 -1 145 -64 198 -59 50 -115 68 -219 72 -52 2 -108 0 -125 -5z"/>
<path d="M8095 1538 c-3 -7 -4 -213 -3 -458 l3 -445 288 -3 287 -2 0 85 0 85
-187 2 -188 3 -3 89 c-2 65 1 92 10 98 7 4 68 8 136 8 l122 0 0 85 0 85 -135
0 -136 0 3 103 3 102 183 3 183 2 -3 83 -3 82 -278 3 c-217 2 -279 0 -282 -10z"/>
<path d="M9227 1523 c-26 -51 -397 -880 -397 -886 0 -4 41 -7 91 -7 l90 0 35
75 35 75 208 0 208 0 33 -75 33 -75 93 0 c52 0 94 3 94 8 -1 4 -92 210 -204
457 l-203 450 -51 3 c-47 3 -52 1 -65 -25z m126 -415 c32 -73 57 -136 57 -140
0 -5 -54 -8 -120 -8 -69 0 -120 4 -120 9 0 17 113 271 120 271 4 0 32 -60 63
-132z"/>
<path d="M9925 1538 c-3 -7 -4 -213 -3 -458 l3 -445 95 0 95 0 3 138 3 138 87
-3 87 -3 70 -135 70 -135 103 -3 c56 -1 102 0 102 4 0 3 -36 74 -80 157 l-79
152 56 49 c76 68 107 135 107 236 0 129 -66 233 -184 289 -54 25 -60 26 -293
29 -190 3 -238 1 -242 -10z m458 -187 c89 -55 88 -188 -1 -243 -32 -20 -50
-22 -147 -23 l-110 0 -3 134 c-1 74 0 141 3 149 9 25 213 11 258 -17z"/>
<path d="M11165 1537 c-123 -41 -223 -128 -275 -239 -67 -143 -57 -324 24
-463 36 -61 118 -132 194 -168 63 -30 73 -32 182 -32 108 0 119 2 182 32 81
38 151 105 184 176 38 83 38 83 -84 93 l-77 6 -23 -41 c-14 -25 -40 -51 -70
-68 -39 -24 -58 -28 -117 -28 -142 1 -232 98 -243 261 -11 179 93 314 243 314
71 0 148 -39 183 -94 14 -22 27 -43 29 -45 1 -2 41 0 88 4 58 5 88 11 92 21 9
24 -44 122 -92 168 -25 25 -75 60 -111 77 -58 29 -76 33 -167 36 -67 2 -116
-2 -142 -10z"/>
<path d="M11880 1090 l0 -460 95 0 95 0 2 173 3 172 200 0 200 0 3 -172 2
-173 95 0 95 0 0 460 0 460 -95 0 -95 0 -2 -197 -3 -198 -200 0 -200 0 -3 198
-2 197 -95 0 -95 0 0 -460z"/>
</g>
</svg>
