<svg xmlns="http://www.w3.org/2000/svg" xmlns:xlink="http://www.w3.org/1999/xlink" fill="none" viewBox="0 0 291 132"><defs><path id="reuse-0" fill="#000" fill-rule="evenodd" d="M40.867 2.608c-.059.236-.06.49-.01.757 0 0 .802 5.325-.11 7.695L2.03 111.732h.004c-2.764 7.395.94 15.65 8.323 18.491 7.384 2.839 15.664-.808 18.568-8.148l.003.001L67.645 21.405c.758-1.97 5.075-5.785 5.075-5.785.206-.152.376-.346.5-.57l.018-.038c.02-.042.046-.083.062-.127.998-2.596-5.441-7.488-14.383-10.927-8.942-3.44-17-4.123-18-1.527-.016.044-.026.09-.038.135l-.012.042Z" clip-rule="evenodd" opacity=".3"/><path id="reuse-1" fill="#333" d="M54.877 10.713c5.55 2.134 10.504 2.681 11.065 1.221.562-1.46-3.482-4.373-9.032-6.508S46.406 2.744 45.844 4.204c-.561 1.46 3.483 4.374 9.032 6.509Z"/><path id="reuse-2" fill="#fff" fill-rule="evenodd" d="M39.737 2.509s.791 5.355-.109 7.695L.912 110.876l.004.001c-2.764 7.394.94 15.649 8.323 18.49 1.25.48 2.56.783 3.892.902-4.977-3.744-7.113-10.441-4.83-16.552l-.003-.001 37.95-98.674s-5.166-4.85-6.51-12.533h-.001Z" clip-rule="evenodd" opacity=".3"/><path id="reuse-3" fill="#fff" d="M27.272 68.573a1.122 1.122 0 1 0 0-2.244 1.122 1.122 0 0 0 0 2.244ZM34.626 77.276a1.691 1.691 0 1 0 0-3.383 1.691 1.691 0 0 0 0 3.383ZM23.4 88.43a3.173 3.173 0 1 0 0-6.345 3.173 3.173 0 0 0 0 6.345ZM18.263 92.816a1.691 1.691 0 1 0 0-3.382 1.691 1.691 0 0 0 0 3.382ZM25 104.793a1.122 1.122 0 1 0 0-2.243 1.122 1.122 0 0 0 0 2.243Z" opacity=".5"/></defs><use xlink:href="#reuse-0" fill-rule="evenodd" clip-rule="evenodd" opacity=".3"/><path fill="url(#a)" fill-rule="evenodd" d="M39.748 1.753c-.059.236-.06.49-.01.757 0 0 .802 5.325-.11 7.694L.913 110.876l.003.001c-2.763 7.394.94 15.649 8.323 18.49 7.383 2.839 15.664-.808 18.568-8.148l.003.001L66.526 20.549c.757-1.97 5.075-5.785 5.075-5.785.217-.165.385-.354.5-.57l.018-.038c.02-.042.045-.083.061-.127 1-2.596-5.44-7.488-14.382-10.927-8.942-3.44-17-4.123-18-1.526-.016.043-.026.09-.038.134l-.011.043Z" clip-rule="evenodd"/><path fill="url(#b)" fill-rule="evenodd" d="m51.893 47.295-27.92 72.6.018.007c-2.06 5.203-8.053 7.91-13.369 5.865-5.316-2.044-8.194-8.162-6.235-13.406l17.84-46.389s2.229-3.594 6.603-6.151c4.375-2.556 7.983-2.017 12.842-4.176 4.857-2.16 10.221-8.35 10.221-8.35Z" clip-rule="evenodd"/><use xlink:href="#reuse-1"/><use xlink:href="#reuse-2" fill-rule="evenodd" clip-rule="evenodd" opacity=".3"/><use xlink:href="#reuse-3" opacity=".5"/><use xlink:href="#reuse-0" fill-rule="evenodd" clip-rule="evenodd" opacity=".1"/><path fill="url(#c)" fill-rule="evenodd" d="M39.748 1.753c-.059.236-.06.49-.01.757 0 0 .802 5.325-.11 7.694L.913 110.876l.003.001c-2.763 7.394.94 15.649 8.323 18.49 7.383 2.839 15.664-.808 18.568-8.148l.003.001L66.526 20.549c.757-1.97 5.075-5.785 5.075-5.785.217-.165.385-.354.5-.57l.018-.038c.02-.042.045-.083.061-.127 1-2.596-5.44-7.488-14.382-10.927-8.942-3.44-17-4.123-18-1.526-.016.043-.026.09-.038.134l-.011.043Z" clip-rule="evenodd"/><path fill="url(#d)" fill-rule="evenodd" d="m51.893 47.295-27.92 72.6.018.007c-2.06 5.203-8.053 7.91-13.369 5.865-5.316-2.044-8.194-8.162-6.235-13.406l17.84-46.389s2.229-3.594 6.603-6.151c4.375-2.556 7.983-2.017 12.842-4.176 4.857-2.16 10.221-8.35 10.221-8.35Z" clip-rule="evenodd"/><use xlink:href="#reuse-1"/><use xlink:href="#reuse-2" fill-rule="evenodd" clip-rule="evenodd" opacity=".3"/><use xlink:href="#reuse-3" opacity=".5"/><path stroke="#6ADAAB" stroke-width="6" d="M288 65c0-31.48-25.52-57-57-57s-57 25.52-57 57 25.52 57 57 57 57-25.52 57-57Z"/><path fill="#6ADAAB" d="M223.422 77.252c0-1.826-.561-3.33-1.684-4.512-1.123-1.203-2.994-2.277-5.613-3.222-2.62-.967-4.657-1.86-6.112-2.676-4.845-2.685-7.267-6.66-7.267-11.924 0-3.567 1.05-6.5 3.15-8.799 2.1-2.299 4.324-3.599 7.921-4.029V35h5.613v7.09c3.618.538 6.414 2.127 8.39 4.77 1.974 2.622 2.962 6.038 2.962 10.25h-7.547c0-2.708-.593-4.835-1.778-6.382-1.164-1.569-2.754-2.353-4.77-2.353-1.997 0-3.556.559-4.679 1.676-1.122 1.117-1.684 2.718-1.684 4.802 0 1.87.551 3.373 1.653 4.512 1.123 1.117 3.015 2.181 5.676 3.191 2.66 1.01 4.75 1.944 6.268 2.804 1.518.86 2.796 1.848 3.836 2.965a11.581 11.581 0 0 1 2.401 3.803c.561 1.44.842 3.126.842 5.06 0 3.631-1.081 6.575-3.243 8.83-2.142 2.257-4.74 3.621-8.587 4.03V95h-5.353v-4.953c-4.116-.472-7.287-1.998-9.511-4.576-2.204-2.578-3.306-5.995-3.306-10.249h7.578c0 2.707.655 4.802 1.965 6.285 1.33 1.482 3.201 2.224 5.613 2.224 2.37 0 4.168-.591 5.395-1.773 1.247-1.182 1.871-2.75 1.871-4.706ZM241 60h5v15h-5V60Zm10-5h5v25h-5V55Zm10-5h5v35h-5V50Z"/><path fill="#000" d="M121 45h7v40h-7z"/><path fill="#000" d="M104 69v-7h40v7z"/><defs><linearGradient id="a" x1="17.33" x2="49.712" y1="60.008" y2="72.461" gradientUnits="userSpaceOnUse"><stop stop-color="#919191"/><stop offset="1" stop-color="#fff"/></linearGradient><linearGradient id="b" x1="16.502" x2="36.106" y1="80.856" y2="88.395" gradientUnits="userSpaceOnUse"><stop stop-color="#900"/><stop offset="1" stop-color="#E80000"/></linearGradient><linearGradient id="c" x1="17.33" x2="49.712" y1="60.008" y2="72.461" gradientUnits="userSpaceOnUse"><stop stop-color="#919191"/><stop offset="1" stop-color="#fff"/></linearGradient><linearGradient id="d" x1="16.502" x2="36.106" y1="80.856" y2="88.395" gradientUnits="userSpaceOnUse"><stop stop-color="#900"/><stop offset="1" stop-color="#E80000"/></linearGradient></defs></svg>
