<?xml version="1.0" encoding="UTF-8" standalone="no"?>
<svg xmlns:dc="http://purl.org/dc/elements/1.1/"
  xmlns:cc="http://creativecommons.org/ns#"
  xmlns:rdf="http://www.w3.org/1999/02/22-rdf-syntax-ns#"
  xmlns:svg="http://www.w3.org/2000/svg"
  xmlns="http://www.w3.org/2000/svg" id="svg47" style="fill-rule: evenodd; clip-rule: evenodd; stroke-linecap: square; stroke-linejoin: round; stroke-miterlimit: 1.5;" xml:space="preserve" version="1.1" height="298" width="420">
  <metadata id="metadata51">
    <rdf:RDF>
      <cc:Work rdf:about="">
        <dc:format>image/svg+xml</dc:format>
        <dc:type rdf:resource="http://purl.org/dc/dcmitype/StillImage" />
        <dc:title></dc:title>
      </cc:Work>
    </rdf:RDF>
  </metadata>
  <rect fill="none" stroke="none" y="0" x="0" height="100%" width="100%" id="backgroundrect" />
  <defs id="defs8">
    <linearGradient gradientTransform="matrix(1.18723e-14,-193.89,193.89,1.18723e-14,263.862,445.388)" gradientUnits="userSpaceOnUse" y2="0" x2="1" y1="0" x1="0" id="_Linear1">
      <stop id="stop3" style="stop-color:white;stop-opacity:0.95" offset="0" />
      <stop id="stop5" style="stop-color:white;stop-opacity:0.5" offset="1" />
    </linearGradient>
    <filter id="Adobe_OpacityMaskFilter" filterUnits="userSpaceOnUse" x="58.294" y="134.165" width="705.929" height="265.471">

      <feColorMatrix type="matrix" values="-1 0 0 0 1  0 -1 0 0 1  0 0 -1 0 1  0 0 0 1 0" color-interpolation-filters="sRGB" result="source" id="feColorMatrix162" />
    </filter>
    <filter id="Adobe_OpacityMaskFilter_1_" filterUnits="userSpaceOnUse" x="58.294" y="134.165" width="705.929" height="265.471">

      <feColorMatrix type="matrix" values="-1 0 0 0 1  0 -1 0 0 1  0 0 -1 0 1  0 0 0 1 0" color-interpolation-filters="sRGB" result="source" id="feColorMatrix285" />
    </filter>
    <linearGradient gradientTransform="matrix(0.43010324,-0.19118837,0.19118837,0.43010324,-51.306551,87.590595)" y2="291.9339" x2="283.12949" y1="215.26289" x1="206.4585" gradientUnits="userSpaceOnUse" id="tube_3_">
      <stop id="stop524" style="stop-color:#919191" offset="0" />
      <stop id="stop526" style="stop-color:#FFFFFF" offset="1" />
    </linearGradient>

    <linearGradient gradientTransform="matrix(0.43010324,-0.19118837,0.19118837,0.43010324,-51.306551,87.590595)" y2="320.16891" x2="224.04559" y1="273.75229" x1="177.62891" gradientUnits="userSpaceOnUse" id="liquid_2_">
      <stop id="stop530" style="stop-color:#990000" offset="0" />
      <stop id="stop532" style="stop-color:#E80000" offset="1" />
    </linearGradient>

    <linearGradient gradientTransform="matrix(0.43010324,-0.19118837,0.19118837,0.43010324,-51.306551,87.590595)" y2="291.9339" x2="283.12949" y1="215.26289" x1="206.4585" gradientUnits="userSpaceOnUse" id="tube_4_">
      <stop id="stop552" style="stop-color:#919191" offset="0" />
      <stop id="stop554" style="stop-color:#FFFFFF" offset="1" />
    </linearGradient>

    <linearGradient gradientTransform="matrix(0.43010324,-0.19118837,0.19118837,0.43010324,-51.306551,87.590595)" y2="320.16891" x2="224.04559" y1="273.75229" x1="177.62891" gradientUnits="userSpaceOnUse" id="liquid_3_">
      <stop id="stop558" style="stop-color:#990000" offset="0" />
      <stop id="stop560" style="stop-color:#E80000" offset="1" />
    </linearGradient>
  </defs>
  <path d="m 210.0005,125.7121 v 39.094" style="fill:none;stroke:#000000;stroke-width:8.17000008px" id="svg_3" />
  <path d="m 190.453,145.2591 h 39.094" style="fill:none;stroke:#000000;stroke-width:8.17000008px" id="svg_5" />
  <path d="m 382.0445,142.7591 c 0,-31.459 -25.541,-57 -57,-57 -31.459,0 -57,25.541 -57,57 0,31.459 25.541,57 57,57 31.459,0 57,-25.541 57,-57 z" style="fill:none;stroke:#6adaab;stroke-width:6px;stroke-linecap:butt;stroke-linejoin:miter;stroke-miterlimit:4" id="svg_13" />
  <path d="m 317.4665,155.0121 c 0,-1.827 -0.561,-3.331 -1.684,-4.513 -1.123,-1.203 -2.994,-2.277 -5.613,-3.222 -2.62,-0.967 -4.657,-1.859 -6.112,-2.676 -4.845,-2.685 -7.267,-6.66 -7.267,-11.924 0,-3.567 1.05,-6.5 3.15,-8.799 2.1,-2.299 4.324,-3.599 7.921,-4.029 v -7.09 h 5.613 v 7.09 c 3.618,0.538 6.414,2.128 8.389,4.77 1.975,2.622 2.963,6.038 2.963,10.249 h -7.547 c 0,-2.707 -0.593,-4.834 -1.778,-6.381 -1.164,-1.569 -2.754,-2.353 -4.771,-2.353 -1.996,0 -3.555,0.559 -4.678,1.676 -1.122,1.117 -1.684,2.718 -1.684,4.802 0,1.869 0.551,3.374 1.653,4.512 1.123,1.118 3.015,2.181 5.676,3.191 2.661,1.01 4.75,1.944 6.268,2.804 1.518,0.859 2.796,1.848 3.836,2.965 1.039,1.096 1.84,2.364 2.401,3.803 0.561,1.44 0.842,3.126 0.842,5.06 0,3.631 -1.081,6.575 -3.243,8.831 -2.142,2.256 -4.74,3.62 -8.587,4.029 v 4.952 h -5.353 v -4.952 c -4.116,-0.473 -7.287,-1.999 -9.511,-4.577 -2.204,-2.578 -3.306,-5.995 -3.306,-10.249 h 7.578 c 0,2.707 0.655,4.802 1.965,6.285 1.33,1.482 3.201,2.224 5.613,2.224 2.37,0 4.168,-0.591 5.395,-1.773 1.247,-1.182 1.871,-2.75 1.871,-4.705 z" style="fill:#6adaab;fill-rule:nonzero;stroke-width:0" id="svg_15" />
  <rect x="335.04449" y="137.75909" width="5" height="15" style="fill:#6adaab;stroke-width:0" id="svg_17" />
  <rect x="345.04449" y="132.75909" width="5" height="25" style="fill:#6adaab;stroke-width:0" id="svg_19" />
  <rect x="355.04449" y="127.7591" width="5" height="35" style="fill:#6adaab;stroke-width:0" id="svg_21" />
  <path d="m 382.0445,142.7591 c 0,-31.459 -25.541,-57 -57,-57 -31.459,0 -57,25.541 -57,57 0,31.459 25.541,57 57,57 31.459,0 57,-25.541 57,-57 z" style="fill:none;stroke:#6adaab;stroke-width:6px;stroke-linecap:butt;stroke-linejoin:miter;stroke-miterlimit:4" id="path29" />
  <path d="m 317.4665,155.0121 c 0,-1.827 -0.561,-3.331 -1.684,-4.513 -1.123,-1.203 -2.994,-2.277 -5.613,-3.222 -2.62,-0.967 -4.657,-1.859 -6.112,-2.676 -4.845,-2.685 -7.267,-6.66 -7.267,-11.924 0,-3.567 1.05,-6.5 3.15,-8.799 2.1,-2.299 4.324,-3.599 7.921,-4.029 v -7.09 h 5.613 v 7.09 c 3.618,0.538 6.414,2.128 8.389,4.77 1.975,2.622 2.963,6.038 2.963,10.249 h -7.547 c 0,-2.707 -0.593,-4.834 -1.778,-6.381 -1.164,-1.569 -2.754,-2.353 -4.771,-2.353 -1.996,0 -3.555,0.559 -4.678,1.676 -1.122,1.117 -1.684,2.718 -1.684,4.802 0,1.869 0.551,3.374 1.653,4.512 1.123,1.118 3.015,2.181 5.676,3.191 2.661,1.01 4.75,1.944 6.268,2.804 1.518,0.859 2.796,1.848 3.836,2.965 1.039,1.096 1.84,2.364 2.401,3.803 0.561,1.44 0.842,3.126 0.842,5.06 0,3.631 -1.081,6.575 -3.243,8.831 -2.142,2.256 -4.74,3.62 -8.587,4.029 v 4.952 h -5.353 v -4.952 c -4.116,-0.473 -7.287,-1.999 -9.511,-4.577 -2.204,-2.578 -3.306,-5.995 -3.306,-10.249 h 7.578 c 0,2.707 0.655,4.802 1.965,6.285 1.33,1.482 3.201,2.224 5.613,2.224 2.37,0 4.168,-0.591 5.395,-1.773 1.247,-1.182 1.871,-2.75 1.871,-4.705 z" style="fill:#6adaab;fill-rule:nonzero;stroke-width:0" id="path32" />
  <rect x="335.04449" y="137.75909" width="5" height="15" style="fill:#6adaab;stroke-width:0" id="rect35" />
  <rect x="345.04449" y="132.75909" width="5" height="25" style="fill:#6adaab;stroke-width:0" id="rect38" />
  <rect x="355.04449" y="127.7591" width="5" height="35" style="fill:#6adaab;stroke-width:0" id="rect41" />
  <g transform="matrix(0.67979162,0,0,0.67979162,33.16433,47.766644)" id="g790">
    <path style="opacity:0.3;stroke-width:0.47067547" id="shadow_2_" d="m 113.27261,56.266205 c -0.0866,0.34689 -0.0885,0.71967 -0.0155,1.11315 0,0 1.17999,7.83298 -0.15955,11.3188 l -56.954088,148.090035 0.0042,0.002 c -4.064754,10.87731 1.382374,23.02121 12.244151,27.19892 10.861778,4.17725 23.041918,-1.18798 27.313298,-11.98528 l 0.005,0.002 56.954089,-148.090505 c 1.11362,-2.897 7.46491,-8.50934 7.46491,-8.50934 0.31865,-0.24287 0.56575,-0.52151 0.73425,-0.83686 l 0.0278,-0.0574 c 0.0306,-0.0621 0.0664,-0.12144 0.0908,-0.18592 1.46851,-3.81859 -8.00383,-11.01616 -21.1578,-16.07451 -13.15444,-5.05882 -25.0084,-6.06418 -26.47691,-2.24559 -0.0249,0.0645 -0.0391,0.13226 -0.0574,0.19862 z" />
    <path style="fill:url(#tube_3_);stroke-width:0.47067547" id="tube_2_" d="m 111.62665,55.007625 c -0.0871,0.34688 -0.0894,0.71966 -0.0155,1.11314 0,0 1.18046,7.83299 -0.16003,11.31881 l -56.954552,148.089555 0.0052,0.002 c -4.064283,10.87731 1.382373,23.02121 12.244151,27.19893 10.860832,4.17724 23.041912,-1.18799 27.313292,-11.98528 l 0.005,0.002 L 151.0183,82.656285 c 1.11314,-2.89701 7.46491,-8.50935 7.46491,-8.50935 0.31865,-0.24286 0.56575,-0.52103 0.73425,-0.83686 l 0.0273,-0.0574 c 0.0306,-0.0617 0.0664,-0.12143 0.0908,-0.18592 1.46851,-3.81859 -8.00383,-11.01568 -21.15733,-16.0745 -13.15444,-5.05882 -25.0084,-6.06419 -26.47691,-2.2456 -0.0249,0.0645 -0.0391,0.13226 -0.0574,0.19863 z" />
    <path style="fill:url(#liquid_2_);stroke-width:0.47067547" id="liquid" d="m 129.49208,122.00215 -41.072079,106.79438 0.0268,0.01 c -3.02927,7.65412 -11.84502,11.6365 -19.665292,8.62889 -7.820273,-3.00762 -12.053058,-12.00787 -9.172524,-19.71989 v 0 l 26.243926,-68.23947 c 0,0 3.27778,-5.2871 9.71333,-9.04874 6.435539,-3.76117 11.742879,-2.96761 18.889139,-6.14372 7.1458,-3.17612 15.03667,-12.28134 15.03667,-12.28134 z" />
    <ellipse style="fill:#333333;stroke-width:0.47070292" id="top" transform="rotate(21.037511)" cx="149.43515" cy="11.414721" rx="15.83821" ry="4.1657209" />
    <path style="opacity:0.3;fill:#ffffff;stroke-width:0.47067547" id="side-reflection" d="m 111.61065,56.120295 c 0,0 1.16304,7.8777 -0.16003,11.31881 l -56.954082,148.090025 0.0052,0.002 c -4.064283,10.87731 1.382373,23.02121 12.244151,27.19893 1.885055,0.72484 3.808706,1.15551 5.725297,1.32824 -7.321828,-5.50784 -10.463116,-15.35908 -7.103905,-24.34804 l -0.0052,-0.002 55.823989,-145.152545 c 0,0 -7.59858,-7.13497 -9.57542,-18.43542 z" />
    <circle id="circle538" r="1.6501882" cy="151.65094" cx="93.274078" style="opacity:0.5;fill:#ffffff;stroke-width:0.47067547" />
    <circle id="circle540" r="2.4875197" cy="163.61597" cx="104.09162" style="opacity:0.5;fill:#ffffff;stroke-width:0.47067547" />
    <circle id="circle542" r="4.6667471" cy="177.84544" cx="87.577957" style="opacity:0.5;fill:#ffffff;stroke-width:0.47067547" />
    <circle id="circle544" r="2.4879904" cy="186.47575" cx="80.021744" style="opacity:0.5;fill:#ffffff;stroke-width:0.47067547" />
    <circle id="circle546" r="1.6501882" cy="204.93233" cx="89.931808" style="opacity:0.5;fill:#ffffff;stroke-width:0.47067547" />
    <path style="opacity:0.1;stroke-width:0.47067547" id="shadow_1_" d="m 113.27261,56.266205 c -0.0866,0.34689 -0.0885,0.71967 -0.0155,1.11315 0,0 1.17999,7.83298 -0.15955,11.3188 l -56.954088,148.090035 0.0042,0.002 c -4.064754,10.87731 1.382374,23.02121 12.244151,27.19892 10.861778,4.17725 23.041918,-1.18798 27.313298,-11.98528 l 0.005,0.002 56.954089,-148.090505 c 1.11362,-2.897 7.46491,-8.50934 7.46491,-8.50934 0.31865,-0.24287 0.56575,-0.52151 0.73425,-0.83686 l 0.0278,-0.0574 c 0.0306,-0.0621 0.0664,-0.12144 0.0908,-0.18592 1.46851,-3.81859 -8.00383,-11.01616 -21.1578,-16.07451 -13.15444,-5.05882 -25.0084,-6.06418 -26.47691,-2.24559 -0.0249,0.0645 -0.0391,0.13226 -0.0574,0.19862 z" />
    <path style="fill:url(#tube_4_);stroke-width:0.47067547" id="tube_1_" d="m 111.62665,55.007625 c -0.0871,0.34688 -0.0894,0.71966 -0.0155,1.11314 0,0 1.18046,7.83299 -0.16003,11.31881 l -56.954552,148.089555 0.0052,0.002 c -4.064283,10.87731 1.382373,23.02121 12.244151,27.19893 10.860832,4.17724 23.041912,-1.18799 27.313292,-11.98528 l 0.005,0.002 L 151.0183,82.656285 c 1.11314,-2.89701 7.46491,-8.50935 7.46491,-8.50935 0.31865,-0.24286 0.56575,-0.52103 0.73425,-0.83686 l 0.0273,-0.0574 c 0.0306,-0.0617 0.0664,-0.12143 0.0908,-0.18592 1.46851,-3.81859 -8.00383,-11.01568 -21.15733,-16.0745 -13.15444,-5.05882 -25.0084,-6.06419 -26.47691,-2.2456 -0.0249,0.0645 -0.0391,0.13226 -0.0574,0.19863 z" />
    <path style="fill:url(#liquid_3_);stroke-width:0.47067547" id="liquid_1_" d="m 129.49208,122.00215 -41.072079,106.79438 0.0268,0.01 c -3.02927,7.65412 -11.84502,11.6365 -19.665292,8.62889 -7.820273,-3.00762 -12.053058,-12.00787 -9.172524,-19.71989 v 0 l 26.243926,-68.23947 c 0,0 3.27778,-5.2871 9.71333,-9.04874 6.435539,-3.76117 11.742879,-2.96761 18.889139,-6.14372 7.1458,-3.17612 15.03667,-12.28134 15.03667,-12.28134 z" />
    <ellipse style="fill:#333333;stroke-width:0.47070292" id="top_1_" transform="rotate(21.037511)" cx="149.43515" cy="11.414721" rx="15.83821" ry="4.1657209" />
    <path style="opacity:0.3;fill:#ffffff;stroke-width:0.47067547" id="side-reflection_1_" d="m 111.61065,56.120295 c 0,0 1.16304,7.8777 -0.16003,11.31881 l -56.954082,148.090025 0.0052,0.002 c -4.064283,10.87731 1.382373,23.02121 12.244151,27.19893 1.885055,0.72484 3.808706,1.15551 5.725297,1.32824 -7.321828,-5.50784 -10.463116,-15.35908 -7.103905,-24.34804 l -0.0052,-0.002 55.823989,-145.152545 c 0,0 -7.59858,-7.13497 -9.57542,-18.43542 z" />
    <circle id="circle566" r="1.6501882" cy="151.65094" cx="93.274078" style="opacity:0.5;fill:#ffffff;stroke-width:0.47067547" />
    <circle id="circle568" r="2.4875197" cy="163.61597" cx="104.09162" style="opacity:0.5;fill:#ffffff;stroke-width:0.47067547" />
    <circle id="circle570" r="4.6667471" cy="177.84544" cx="87.577957" style="opacity:0.5;fill:#ffffff;stroke-width:0.47067547" />
    <circle id="circle572" r="2.4879904" cy="186.47575" cx="80.021744" style="opacity:0.5;fill:#ffffff;stroke-width:0.47067547" />
    <circle id="circle574" r="1.6501882" cy="204.93233" cx="89.931808" style="opacity:0.5;fill:#ffffff;stroke-width:0.47067547" />
  </g>
</svg>
