<svg viewBox="0 0 120 120" xmlns="http://www.w3.org/2000/svg" xml:space="preserve" style="fill-rule:evenodd;clip-rule:evenodd;stroke-linejoin:round;stroke-miterlimit:2"><path d="M94.157 22.819c-10.4-14.885-30.94-19.297-45.792-9.835L22.283 29.608A29.934 29.934 0 0 0 8.764 49.651a31.52 31.52 0 0 0 3.107 20.231 30.027 30.027 0 0 0-4.476 11.183 31.902 31.902 0 0 0 5.448 24.116c10.402 14.887 30.942 19.297 45.791 9.835l26.083-16.624a29.93 29.93 0 0 0 13.518-20.043 31.53 31.53 0 0 0-3.105-20.232 30.002 30.002 0 0 0 4.474-11.182 31.889 31.889 0 0 0-5.447-24.116" style="fill:#ff3e00;fill-rule:nonzero" transform="translate(6.097 -4)"/><path d="M45.817 106.582c-8.388 2.18-17.297-1.122-22.237-8.243a19.185 19.185 0 0 1-3.277-14.503c.152-.825.36-1.639.624-2.435l.491-1.498 1.336.981a33.633 33.633 0 0 0 10.203 5.098l.97.294-.09.968a5.855 5.855 0 0 0 1.052 3.878 6.251 6.251 0 0 0 6.696 2.485 5.774 5.774 0 0 0 1.602-.704L69.27 76.281a5.434 5.434 0 0 0 2.451-3.631 5.796 5.796 0 0 0-.988-4.371 6.255 6.255 0 0 0-6.698-2.487 5.762 5.762 0 0 0-1.6.704l-9.953 6.345a19.035 19.035 0 0 1-5.296 2.326c-8.388 2.181-17.297-1.122-22.237-8.243a19.183 19.183 0 0 1-3.277-14.502 17.998 17.998 0 0 1 8.13-12.052l26.081-16.623a19.054 19.054 0 0 1 5.3-2.329c8.388-2.18 17.297 1.122 22.237 8.243a19.185 19.185 0 0 1 3.277 14.503 18.38 18.38 0 0 1-.624 2.435l-.491 1.498-1.335-.98a33.61 33.61 0 0 0-10.204-5.1l-.97-.294.09-.968a5.866 5.866 0 0 0-1.052-3.878 6.253 6.253 0 0 0-6.696-2.485 5.774 5.774 0 0 0-1.602.704L37.73 51.719a5.426 5.426 0 0 0-2.449 3.63 5.789 5.789 0 0 0 .986 4.372 6.256 6.256 0 0 0 6.698 2.486 5.774 5.774 0 0 0 1.602-.704l9.952-6.342a18.963 18.963 0 0 1 5.295-2.328c8.388-2.181 17.298 1.121 22.237 8.242a19.18 19.18 0 0 1 3.277 14.503 18.005 18.005 0 0 1-8.13 12.053l-26.081 16.622a19.054 19.054 0 0 1-5.3 2.329" style="fill:#fff;fill-rule:nonzero" transform="translate(6.097 -4)"/></svg>