<svg viewBox="0 0 120 120" xmlns="http://www.w3.org/2000/svg" xml:space="preserve" style="fill-rule:evenodd;clip-rule:evenodd;stroke-linejoin:round;stroke-miterlimit:2"><path d="M512 256C512 114.71 397.29 0 256 0 114.71 0 0 114.71 0 256c0 141.29 114.71 256 256 256 141.29 0 256-114.71 256-256z" style="fill:#00a672" transform="matrix(.23438 0 0 .23438 0 0)"/><path d="M84.097 256.159c.41 104.756 86.388 173.98 173.319 171.841C360.034 424.338 434.165 335.203 428 255.638c-1.429-16.526-16.087-29.335-32.645-28.54-16.559.794-29.339 14.859-28.544 31.416 2.319 48.355-42.274 107.579-110.872 109.479-54.489 1.34-109.042-41.443-111.431-108.026-.637 15.437-12.807 28.041-28.525 28.668-16.564.661-31.131-12.705-31.792-29.267-.043-1.07-.074-2.139-.094-3.209z" style="fill:url(#a)" transform="matrix(.23438 0 0 .23438 0 0)"/><path d="M225.554 257.78c0-16.995 13.794-30.772 30.791-30.772s30.792 13.777 30.792 30.772c0 16.995-13.795 30.772-30.792 30.772s-30.791-13.777-30.791-30.772zM320.368 257.735c0-16.97 13.882-30.727 31.007-30.727h45.188c17.125 0 31.437 13.757 31.437 30.727s-14.312 30.727-31.437 30.727h-45.188c-17.125 0-31.007-13.757-31.007-30.727z" style="fill:#fff;fill-rule:nonzero" transform="matrix(.23438 0 0 .23438 0 0)"/><path d="M286.284 114.008c.687 16.561-12.182 30.544-28.746 31.232-71.502 2.969-115.153 59.003-113.028 112.209.661 16.562-11.962 30.525-28.527 31.186-16.564.661-31.131-12.705-31.792-29.268-3.463-86.703 68.942-172.417 170.856-174.1 16.564-.688 30.549 12.18 31.237 28.741z" style="fill:#fff" transform="matrix(.23438 0 0 .23438 0 0)"/><defs><linearGradient id="a" x1="0" y1="0" x2="1" y2="0" gradientUnits="userSpaceOnUse" gradientTransform="rotate(-90 354.625 90.763) scale(193.89)"><stop offset="0" style="stop-color:white;stop-opacity:.95"/><stop offset="1" style="stop-color:white;stop-opacity:.5"/></linearGradient></defs></svg>