<svg width="64" height="64" fill="none" xmlns="http://www.w3.org/2000/svg"><path d="M57.76 47.63c-.853.446-1.733.839-2.634 1.177a25.465 25.465 0 0 1-8.974 1.615c-11.829 0-22.133-8.137-22.133-18.578a7.87 7.87 0 0 1 4.107-6.827c-10.698.45-13.448 11.599-13.448 18.13 0 18.468 17.02 20.34 20.688 20.34 1.977 0 4.959-.574 6.749-1.14l.327-.11A32.081 32.081 0 0 0 59.09 49.04a1 1 0 0 0-1.33-1.41z" fill="url(#a)"/><path opacity=".35" d="M57.76 47.63c-.853.446-1.733.839-2.634 1.177a25.465 25.465 0 0 1-8.974 1.615c-11.829 0-22.133-8.137-22.133-18.578a7.87 7.87 0 0 1 4.107-6.827c-10.698.45-13.448 11.599-13.448 18.13 0 18.468 17.02 20.34 20.688 20.34 1.977 0 4.959-.574 6.749-1.14l.327-.11A32.081 32.081 0 0 0 59.09 49.04a1 1 0 0 0-1.33-1.41z" fill="url(#b)"/><path d="M26.43 60.348a19.798 19.798 0 0 1-5.684-5.334 20.18 20.18 0 0 1 7.382-29.997c.78-.367 2.112-1.032 3.884-1a8.087 8.087 0 0 1 6.422 3.25 7.97 7.97 0 0 1 1.59 4.664c0-.052 6.114-19.897-19.998-19.897C9.053 12.034.03 22.448.03 31.584a32.534 32.534 0 0 0 3.027 13.998 31.996 31.996 0 0 0 39.09 16.776 18.885 18.885 0 0 1-15.693-2l-.022-.01z" fill="url(#c)"/><path opacity=".41" d="M26.43 60.348a19.798 19.798 0 0 1-5.684-5.334 20.18 20.18 0 0 1 7.382-29.997c.78-.367 2.112-1.032 3.884-1a8.087 8.087 0 0 1 6.422 3.25 7.97 7.97 0 0 1 1.59 4.664c0-.052 6.114-19.897-19.998-19.897C9.053 12.034.03 22.448.03 31.584a32.534 32.534 0 0 0 3.027 13.998 31.996 31.996 0 0 0 39.09 16.776 18.885 18.885 0 0 1-15.693-2l-.022-.01z" fill="url(#d)"/><path d="M38.078 37.21c-.202.263-.825.626-.825 1.416 0 .652.425 1.28 1.18 1.807 3.595 2.5 10.371 2.17 10.389 2.17a14.888 14.888 0 0 0 7.566-2.088 15.343 15.343 0 0 0 7.607-13.218c.065-5.602-2-9.326-2.835-10.976C55.864 5.959 44.43 0 31.996 0A31.996 31.996 0 0 0 0 31.546c.12-9.133 9.199-16.51 19.998-16.51.875 0 5.864.085 10.498 2.517 4.085 2.145 6.225 4.735 7.712 7.302 1.545 2.667 1.82 6.037 1.82 7.379 0 1.342-.685 3.332-1.95 4.977z" fill="url(#e)"/><path d="M38.078 37.21c-.202.263-.825.626-.825 1.416 0 .652.425 1.28 1.18 1.807 3.595 2.5 10.371 2.17 10.389 2.17a14.888 14.888 0 0 0 7.566-2.088 15.343 15.343 0 0 0 7.607-13.218c.065-5.602-2-9.326-2.835-10.976C55.864 5.959 44.43 0 31.996 0A31.996 31.996 0 0 0 0 31.546c.12-9.133 9.199-16.51 19.998-16.51.875 0 5.864.085 10.498 2.517 4.085 2.145 6.225 4.735 7.712 7.302 1.545 2.667 1.82 6.037 1.82 7.379 0 1.342-.685 3.332-1.95 4.977z" fill="url(#f)"/><defs><radialGradient id="b" cx="0" cy="0" r="1" gradientUnits="userSpaceOnUse" gradientTransform="matrix(23.8422 0 0 22.6502 39.3 44.609)"><stop offset=".72" stop-opacity="0"/><stop offset=".95" stop-opacity=".53"/><stop offset="1"/></radialGradient><radialGradient id="d" cx="0" cy="0" r="1" gradientUnits="userSpaceOnUse" gradientTransform="rotate(-81.384 37.75 14.612) scale(35.8525 28.9651)"><stop offset=".76" stop-opacity="0"/><stop offset=".95" stop-opacity=".5"/><stop offset="1"/></radialGradient><radialGradient id="e" cx="0" cy="0" r="1" gradientUnits="userSpaceOnUse" gradientTransform="rotate(92.291 -2.457 9.027) scale(50.6422 107.857)"><stop stop-color="#35C1F1"/><stop offset=".11" stop-color="#34C1ED"/><stop offset=".23" stop-color="#2FC2DF"/><stop offset=".31" stop-color="#2BC3D2"/><stop offset=".67" stop-color="#36C752"/></radialGradient><radialGradient id="f" cx="0" cy="0" r="1" gradientUnits="userSpaceOnUse" gradientTransform="matrix(6.81301 23.35891 -18.99542 5.54033 60.011 19.35)"><stop stop-color="#66EB6E"/><stop offset="1" stop-color="#66EB6E" stop-opacity="0"/></radialGradient><linearGradient id="a" x1="14.678" y1="44.257" x2="59.258" y2="44.257" gradientUnits="userSpaceOnUse"><stop stop-color="#0C59A4"/><stop offset="1" stop-color="#114A8B"/></linearGradient><linearGradient id="c" x1="38.182" y1="24.92" x2="10.337" y2="55.249" gradientUnits="userSpaceOnUse"><stop stop-color="#1B9DE2"/><stop offset=".16" stop-color="#1595DF"/><stop offset=".67" stop-color="#0680D7"/><stop offset="1" stop-color="#0078D4"/></linearGradient></defs></svg>