<svg width="147" height="152" viewBox="0 0 147 152" fill="none" xmlns="http://www.w3.org/2000/svg">
<ellipse cx="73.5" cy="73.7629" rx="73.5" ry="73.7629" fill="#FFC121"/>
<path d="M41.5305 107.323L64.9459 104.02L70.6916 145.05C70.9715 147.049 69.5784 148.897 67.5799 149.179L51.4016 151.461C49.4031 151.743 47.5562 150.351 47.2763 148.352L41.5305 107.323Z" fill="#FFFDF8"/>
<rect width="23.7284" height="36.653" transform="matrix(0.138687 0.990336 -0.990199 0.139661 97.9492 75.4023)" fill="#FFFDF8"/>
<rect width="23.7284" height="36.653" transform="matrix(0.138687 0.990336 -0.990199 0.139661 91.0383 26.0543)" fill="#FFFDF8"/>
<rect width="23.6471" height="26.1013" transform="matrix(-0.990199 0.139661 -0.138687 -0.990336 121.365 72.0997)" fill="#FFFDF8"/>
<path d="M41.5308 107.323C39.7196 94.3893 48.7234 82.3453 61.6553 80.5213L64.9462 104.02L41.5308 107.323Z" fill="#FFFDF8"/>
<path d="M121.364 72.0998C123.176 85.0335 114.172 97.0775 101.24 98.9015L97.9491 75.4024L121.364 72.0998Z" fill="#FFFDF8"/>
<path d="M91.0385 26.0542C103.97 24.2303 115.933 33.317 117.745 46.2508L94.3293 49.5533L91.0385 26.0542Z" fill="#FFFDF8"/>
<path d="M58.0352 54.6723C45.1033 56.4963 33.1403 47.4095 31.3291 34.4758L54.7444 31.1732L58.0352 54.6723Z" fill="#FFFDF8"/>
<path fill-rule="evenodd" clip-rule="evenodd" d="M97.948 75.4015L97.4562 71.8889C97.7278 73.8288 96.3756 75.6232 94.436 75.8968L97.948 75.4015Z" fill="#FFFDF8"/>
<path fill-rule="evenodd" clip-rule="evenodd" d="M68.4585 103.525L64.9463 104.02L65.4382 107.533C65.1665 105.593 66.5188 103.799 68.4585 103.525Z" fill="#FFFDF8"/>
<path fill-rule="evenodd" clip-rule="evenodd" d="M94.3293 49.5533L90.8172 50.0487C92.7569 49.7751 94.5495 51.126 94.8212 53.0659L94.3293 49.5533Z" fill="#FFFDF8"/>
<rect width="5.91178" height="28.4741" rx="1.18227" transform="matrix(0.990199 -0.139661 0.138687 0.990336 75.4895 25.851)" fill="#FFFDF8"/>
<rect width="5.93211" height="28.3765" rx="1.18227" transform="matrix(0.138687 0.990336 -0.990199 0.139661 121.403 55.3202)" fill="#FFFDF8"/>
</svg>
