<svg width="64" height="64" fill="none" xmlns="http://www.w3.org/2000/svg"><rect width="64" height="64" rx="10.4" fill="#000"/><path d="m24.42 46.508-.096-.128c.45-.337 1.61-1.053 1.71-1.053.077 0 .284.663.379 1.23l-5.139 1.49a11.287 11.287 0 0 0-.784 1.38 2.373 2.373 0 0 0-.09.227.293.293 0 0 0-.012.076.21.21 0 0 0 .03.111.179.179 0 0 0 .151.085.221.221 0 0 0 .104-.027.429.429 0 0 0 .066-.043c.077-.06.182-.17.315-.323v-.001c.253-.296.85-.866 1.51-1.46a32.846 32.846 0 0 1 1.856-1.564zm0 0c.219-.164.616-.424.974-.645a13.173 13.173 0 0 1 .58-.338c.027.062.058.148.09.252.07.23.145.53.19.807l.002.006c.024.116.048.226.07.309.01.04.022.078.034.109a.313.313 0 0 0 .026.052.19.19 0 0 0 .033.04.166.166 0 0 0 .188.025.203.203 0 0 0 .048-.034 4.61 4.61 0 0 0 .16-.17c.094-.108.22-.254.354-.414l.001-.002c.465-.576 1.758-1.834 2.341-2.288l.003-.003c.085-.07.166-.141.226-.2.03-.029.057-.057.078-.082a.37.37 0 0 0 .049-.076l.001-.004a2.941 2.941 0 0 1 .203-.167c.185-.14.49-.36.972-.7l-6.623 3.523zm2.23.357-.007.007a.122.122 0 0 1 .013.018l.004.007-.002-.005a.409.409 0 0 1-.009-.027zm-.175-.03-.004-.013-.005.005a.593.593 0 0 1-.026.027h-.002l.005-.002c.002-.002.007-.006.016-.01v-.001c.003 0 .008-.004.016-.007zm6.216-4.984h-.002.002zm-6.625 3.632h-.003a.012.012 0 0 1 .003 0z" fill="#fff" stroke="#fff" stroke-width=".32"/><mask id="a" maskUnits="userSpaceOnUse" x="10.428" y="12.714" width="42" height="37" fill="#000"><path fill="#fff" d="M10.428 12.714h42v37h-42z"/><path d="M27.229 49.074c.112-.207 1.089-1.361 1.562-1.847.746-.763 2.432-2.337 2.9-2.71.236-.19.822-.674 1.302-1.083 1.082-.911 1.58-1.284 2.094-1.574.38-.213.432-.225.935-.225.462 0 .574.018.829.148.627.332.74.953.266 1.521-.1.118-.177.249-.177.284 0 .255 2.97.326 4.615.113.113-.012.456-.09.758-.166.62-.166.62-.166.45.331-.048.148-.084.326-.072.39.018.12.042.113.521-.106 1.012-.45 2.272-1.414 2.728-2.077.112-.16.23-.296.266-.296.036 0 .184.107.332.237l.266.23.124-.13c.22-.236.55-.816.669-1.153.248-.722.355-1.764.23-2.29l-.053-.231.492-.485c.556-.55.988-1.16 1.372-1.947.68-1.403.758-3.036.196-4.213-.172-.355-.178-.39-.09-.521.12-.184.125-.645.007-.977-.095-.266-.734-1.165-1.006-1.42a6.72 6.72 0 0 1-.497-.562c-.184-.225-.775-.852-1.32-1.385-.55-.538-.994-.994-.994-1.017 0-.024.136-.207.302-.403.296-.36.456-.71.373-.852-.308-.52-1.095-1.509-1.634-2.06-1.627-1.656-2.508-2.248-4.568-3.04-.592-.226-2.248-.705-2.905-.83-.13-.029-.26-.052-.296-.064-.03-.012-.249-.054-.485-.1-.35-.072-.486-.131-.716-.326a5.368 5.368 0 0 1-.373-.343c-.113-.142-.965-.687-1.71-1.101-2.148-1.195-3.67-1.651-5.58-1.669l-.705-.006-.177.201c-.178.202-.184.213-.148.651.03.38.201 1.148.36 1.634.042.112.007.13-.42.195-.254.035-.532.083-.62.1l-.297.054c-1.148.207-2.154.52-3.207 1.012l-.58.266-.384-.178c-.941-.444-2.178-.828-3.083-.946-.657-.09-1.864-.048-2.497.082-.657.142-1.87.55-2.279.764l-.355.19.012.295c.006.166.036.39.071.503.314 1.083.545 1.675 1.012 2.61.592 1.177.858 1.615 1.473 2.426.231.301.42.585.42.627 0 .035-.064.107-.141.148a6.226 6.226 0 0 0-.545.39c-.645.503-1.893 1.072-3.722 1.699-.52.177-1.065.32-1.095.284-.017-.018 0-.048.042-.06.041-.011.49-.266 1.006-.561.964-.55 2.378-1.486 2.87-1.894l.278-.23-.302-.397c-.166-.22-.39-.503-.497-.634-.42-.526-1.071-1.58-1.42-2.307-.923-1.941-1.409-3.391-1.22-3.675.155-.243 2.22-1.018 3.208-1.201.178-.036.39-.077.473-.095.663-.148 2.646-.201 3.344-.089.195.03.45.065.562.077.237.03 1.248.243 1.686.355.29.077.302.077 1.006-.207.663-.266 1.64-.538 2.515-.704.699-.13.74-.142.734-.266a5.842 5.842 0 0 0-.142-.61c-.16-.61-.177-1.414-.035-1.639.118-.172.189-.19 1.023-.254.764-.06 2.651.017 3.527.142.118.017.314.041.426.059 1.947.272 4.249 1.32 6.385 2.905.669.491.698.51 1.172.586.858.136 3.23.823 3.722 1.065.917.468 2.728 1.746 3.71 2.622.917.816 1.876 1.887 2.468 2.763.39.574.39.58.355.882-.042.313-.32.828-.48.887-.136.054-.03.196.592.852 1.314 1.38 2.373 2.882 2.81 3.989.232.568.232.805.013 1.272l-.178.367.124.426c.101.373.113.544.09 1.29-.03.894-.036.94-.196 1.485-.302 1.03-.402 1.26-.775 1.817-.474.704-.704.994-1.136 1.432l-.332.331-.012.622c-.011.61-.017.686-.13 1.154-.29 1.23-.591 1.834-1.313 2.592-.296.307-.575.609-.616.674-.077.1-.1.089-.396-.201l-.314-.308-.533.397c-1.011.763-1.627 1.1-2.532 1.408-.687.23-.941.284-1.385.308-.763.035-.77.03-.52-.397.112-.195.206-.373.206-.402 0-.024-.591-.047-1.313-.047-1.166 0-1.687-.024-2.326-.119a14.76 14.76 0 0 1-.384-.053c-.787-.107-2.072-.414-2.072-.497 0-.03.09-.136.202-.243.284-.278.426-.615.343-.805-.148-.32-.48-.189-2.533 1.018-.55.326-1.16.704-1.355.84-.639.45-1.923 1.604-3.314 2.977-.745.74-1.367 1.35-1.378 1.35-.006 0 .011-.048.041-.101z"/></mask><path d="M27.229 49.074c.112-.207 1.089-1.361 1.562-1.847.746-.763 2.432-2.337 2.9-2.71.236-.19.822-.674 1.302-1.083 1.082-.911 1.58-1.284 2.094-1.574.38-.213.432-.225.935-.225.462 0 .574.018.829.148.627.332.74.953.266 1.521-.1.118-.177.249-.177.284 0 .255 2.97.326 4.615.113.113-.012.456-.09.758-.166.62-.166.62-.166.45.331-.048.148-.084.326-.072.39.018.12.042.113.521-.106 1.012-.45 2.272-1.414 2.728-2.077.112-.16.23-.296.266-.296.036 0 .184.107.332.237l.266.23.124-.13c.22-.236.55-.816.669-1.153.248-.722.355-1.764.23-2.29l-.053-.231.492-.485c.556-.55.988-1.16 1.372-1.947.68-1.403.758-3.036.196-4.213-.172-.355-.178-.39-.09-.521.12-.184.125-.645.007-.977-.095-.266-.734-1.165-1.006-1.42a6.72 6.72 0 0 1-.497-.562c-.184-.225-.775-.852-1.32-1.385-.55-.538-.994-.994-.994-1.017 0-.024.136-.207.302-.403.296-.36.456-.71.373-.852-.308-.52-1.095-1.509-1.634-2.06-1.627-1.656-2.508-2.248-4.568-3.04-.592-.226-2.248-.705-2.905-.83-.13-.029-.26-.052-.296-.064-.03-.012-.249-.054-.485-.1-.35-.072-.486-.131-.716-.326a5.368 5.368 0 0 1-.373-.343c-.113-.142-.965-.687-1.71-1.101-2.148-1.195-3.67-1.651-5.58-1.669l-.705-.006-.177.201c-.178.202-.184.213-.148.651.03.38.201 1.148.36 1.634.042.112.007.13-.42.195-.254.035-.532.083-.62.1l-.297.054c-1.148.207-2.154.52-3.207 1.012l-.58.266-.384-.178c-.941-.444-2.178-.828-3.083-.946-.657-.09-1.864-.048-2.497.082-.657.142-1.87.55-2.279.764l-.355.19.012.295c.006.166.036.39.071.503.314 1.083.545 1.675 1.012 2.61.592 1.177.858 1.615 1.473 2.426.231.301.42.585.42.627 0 .035-.064.107-.141.148a6.226 6.226 0 0 0-.545.39c-.645.503-1.893 1.072-3.722 1.699-.52.177-1.065.32-1.095.284-.017-.018 0-.048.042-.06.041-.011.49-.266 1.006-.561.964-.55 2.378-1.486 2.87-1.894l.278-.23-.302-.397c-.166-.22-.39-.503-.497-.634-.42-.526-1.071-1.58-1.42-2.307-.923-1.941-1.409-3.391-1.22-3.675.155-.243 2.22-1.018 3.208-1.201.178-.036.39-.077.473-.095.663-.148 2.646-.201 3.344-.089.195.03.45.065.562.077.237.03 1.248.243 1.686.355.29.077.302.077 1.006-.207.663-.266 1.64-.538 2.515-.704.699-.13.74-.142.734-.266a5.842 5.842 0 0 0-.142-.61c-.16-.61-.177-1.414-.035-1.639.118-.172.189-.19 1.023-.254.764-.06 2.651.017 3.527.142.118.017.314.041.426.059 1.947.272 4.249 1.32 6.385 2.905.669.491.698.51 1.172.586.858.136 3.23.823 3.722 1.065.917.468 2.728 1.746 3.71 2.622.917.816 1.876 1.887 2.468 2.763.39.574.39.58.355.882-.042.313-.32.828-.48.887-.136.054-.03.196.592.852 1.314 1.38 2.373 2.882 2.81 3.989.232.568.232.805.013 1.272l-.178.367.124.426c.101.373.113.544.09 1.29-.03.894-.036.94-.196 1.485-.302 1.03-.402 1.26-.775 1.817-.474.704-.704.994-1.136 1.432l-.332.331-.012.622c-.011.61-.017.686-.13 1.154-.29 1.23-.591 1.834-1.313 2.592-.296.307-.575.609-.616.674-.077.1-.1.089-.396-.201l-.314-.308-.533.397c-1.011.763-1.627 1.1-2.532 1.408-.687.23-.941.284-1.385.308-.763.035-.77.03-.52-.397.112-.195.206-.373.206-.402 0-.024-.591-.047-1.313-.047-1.166 0-1.687-.024-2.326-.119a14.76 14.76 0 0 1-.384-.053c-.787-.107-2.072-.414-2.072-.497 0-.03.09-.136.202-.243.284-.278.426-.615.343-.805-.148-.32-.48-.189-2.533 1.018-.55.326-1.16.704-1.355.84-.639.45-1.923 1.604-3.314 2.977-.745.74-1.367 1.35-1.378 1.35-.006 0 .011-.048.041-.101z" fill="#fff"/><path d="M27.229 49.074c.112-.207 1.089-1.361 1.562-1.847.746-.763 2.432-2.337 2.9-2.71.236-.19.822-.674 1.302-1.083 1.082-.911 1.58-1.284 2.094-1.574.38-.213.432-.225.935-.225.462 0 .574.018.829.148.627.332.74.953.266 1.521-.1.118-.177.249-.177.284 0 .255 2.97.326 4.615.113.113-.012.456-.09.758-.166.62-.166.62-.166.45.331-.048.148-.084.326-.072.39.018.12.042.113.521-.106 1.012-.45 2.272-1.414 2.728-2.077.112-.16.23-.296.266-.296.036 0 .184.107.332.237l.266.23.124-.13c.22-.236.55-.816.669-1.153.248-.722.355-1.764.23-2.29l-.053-.231.492-.485c.556-.55.988-1.16 1.372-1.947.68-1.403.758-3.036.196-4.213-.172-.355-.178-.39-.09-.521.12-.184.125-.645.007-.977-.095-.266-.734-1.165-1.006-1.42a6.72 6.72 0 0 1-.497-.562c-.184-.225-.775-.852-1.32-1.385-.55-.538-.994-.994-.994-1.017 0-.024.136-.207.302-.403.296-.36.456-.71.373-.852-.308-.52-1.095-1.509-1.634-2.06-1.627-1.656-2.508-2.248-4.568-3.04-.592-.226-2.248-.705-2.905-.83-.13-.029-.26-.052-.296-.064-.03-.012-.249-.054-.485-.1-.35-.072-.486-.131-.716-.326a5.368 5.368 0 0 1-.373-.343c-.113-.142-.965-.687-1.71-1.101-2.148-1.195-3.67-1.651-5.58-1.669l-.705-.006-.177.201c-.178.202-.184.213-.148.651.03.38.201 1.148.36 1.634.042.112.007.13-.42.195-.254.035-.532.083-.62.1l-.297.054c-1.148.207-2.154.52-3.207 1.012l-.58.266-.384-.178c-.941-.444-2.178-.828-3.083-.946-.657-.09-1.864-.048-2.497.082-.657.142-1.87.55-2.279.764l-.355.19.012.295c.006.166.036.39.071.503.314 1.083.545 1.675 1.012 2.61.592 1.177.858 1.615 1.473 2.426.231.301.42.585.42.627 0 .035-.064.107-.141.148a6.226 6.226 0 0 0-.545.39c-.645.503-1.893 1.072-3.722 1.699-.52.177-1.065.32-1.095.284-.017-.018 0-.048.042-.06.041-.011.49-.266 1.006-.561.964-.55 2.378-1.486 2.87-1.894l.278-.23-.302-.397c-.166-.22-.39-.503-.497-.634-.42-.526-1.071-1.58-1.42-2.307-.923-1.941-1.409-3.391-1.22-3.675.155-.243 2.22-1.018 3.208-1.201.178-.036.39-.077.473-.095.663-.148 2.646-.201 3.344-.089.195.03.45.065.562.077.237.03 1.248.243 1.686.355.29.077.302.077 1.006-.207.663-.266 1.64-.538 2.515-.704.699-.13.74-.142.734-.266a5.842 5.842 0 0 0-.142-.61c-.16-.61-.177-1.414-.035-1.639.118-.172.189-.19 1.023-.254.764-.06 2.651.017 3.527.142.118.017.314.041.426.059 1.947.272 4.249 1.32 6.385 2.905.669.491.698.51 1.172.586.858.136 3.23.823 3.722 1.065.917.468 2.728 1.746 3.71 2.622.917.816 1.876 1.887 2.468 2.763.39.574.39.58.355.882-.042.313-.32.828-.48.887-.136.054-.03.196.592.852 1.314 1.38 2.373 2.882 2.81 3.989.232.568.232.805.013 1.272l-.178.367.124.426c.101.373.113.544.09 1.29-.03.894-.036.94-.196 1.485-.302 1.03-.402 1.26-.775 1.817-.474.704-.704.994-1.136 1.432l-.332.331-.012.622c-.011.61-.017.686-.13 1.154-.29 1.23-.591 1.834-1.313 2.592-.296.307-.575.609-.616.674-.077.1-.1.089-.396-.201l-.314-.308-.533.397c-1.011.763-1.627 1.1-2.532 1.408-.687.23-.941.284-1.385.308-.763.035-.77.03-.52-.397.112-.195.206-.373.206-.402 0-.024-.591-.047-1.313-.047-1.166 0-1.687-.024-2.326-.119a14.76 14.76 0 0 1-.384-.053c-.787-.107-2.072-.414-2.072-.497 0-.03.09-.136.202-.243.284-.278.426-.615.343-.805-.148-.32-.48-.189-2.533 1.018-.55.326-1.16.704-1.355.84-.639.45-1.923 1.604-3.314 2.977-.745.74-1.367 1.35-1.378 1.35-.006 0 .011-.048.041-.101z" stroke="#fff" stroke-width=".64" mask="url(#a)"/></svg>