<svg xmlns="http://www.w3.org/2000/svg" version="1.0" viewBox="0 0 1303 400"><path d="M165.5 33.6c-47.1 7.6-86.9 33.2-113.4 72.9-30.2 45.2-35.7 102.7-14.6 153.2C59 311 102.8 347.2 158 359.2c9.1 1.9 13.4 2.2 32 2.2s22.9-.3 32-2.2c29-6.3 53.4-18.3 75.4-37.1 10.3-8.8 23.8-24 22.8-25.5-.4-.6-4.6-7-9.3-14.1-4.7-7.2-11.6-18.2-15.3-24.5-3.8-6.3-7-11.7-7.2-11.8-.1-.2-1.4 1.8-2.7 4.5-3.9 7.5-13.7 20.2-20.8 26.7-22.1 20.5-51.7 31.1-81.8 29.3C124.3 303.2 80 255.1 80 194.9c0-14 4.9-33.7 11.7-47.3 20.5-40.7 65.4-65 110.3-59.7 26.5 3.2 45.5 13.2 67.3 35.4 17.5 17.8 32.5 39.2 64.2 91.7 21.9 36.3 32.6 52.4 45.6 69.2l3.7 4.7 17.8-16.5c9.9-9.1 19-17.6 20.2-18.9l2.4-2.2-6.8-9.4c-9.9-13.8-19-28-37.9-59.4-18.1-30.2-33.5-54-43.6-67.5-34.1-45.6-71-71.4-114.6-80.1-14.2-2.8-41.7-3.5-54.8-1.3z"/><path d="M496.9 33.5c-26.6 3.6-52.4 14.4-75.1 31.2-10.1 7.4-23.2 19.8-29.5 27.8l-3.1 4.1 7 10.4c3.8 5.8 11 17.1 16 25.2 4.9 8.2 9.3 14.8 9.7 14.8.4 0 1.3-1.2 2-2.8 2.4-5.1 10.3-16.4 15.8-22.3 34.9-37.7 94.3-45.6 138-18.3 41.6 25.9 61.1 76.6 47.7 123.9-9.8 34.7-36.4 62.4-70.8 73.9-20.7 7-48.3 7.1-67.9.5-6.1-2.2-16.6-7.2-22-10.6l-2.7-1.8-19 19c-10.5 10.4-19 19.5-19 20.1 0 1.6 12.2 9.6 23.5 15.5 12.9 6.7 25.3 11.3 39 14.5 11.2 2.6 13.5 2.8 33.5 2.8 23.7 0 32.5-1.3 51.2-7.5 57.1-19 101.1-69.5 111.3-127.9 10.7-61.1-14.2-123.9-64-161.1-35.3-26.3-78-37.3-121.6-31.4zM720 113v46h19V67h-19v46zM759.5 68.2c-.3.7-.4 21.3-.3 45.8l.3 44.5h19l.5-26.7.5-26.7 21.5 27 21.5 26.9 6.5-.2 6.5-.3v-91h-19l-.5 26.9-.5 27L794 94.2l-21.5-27.1-6.3-.1c-4.1 0-6.4.4-6.7 1.2zM856 113v46h19l.2-16.8.3-16.7 12.3-.3 12.2-.3V108h-25.1l.3-11.8.3-11.7 18.8-.3L913 84V67h-57v46zM932 113v46h19V67h-19v46zM971 113v46h19v-26.5c0-16.9.4-26.5 1-26.5.5 0 10.5 11.9 22.2 26.5l21.2 26.5h12.6V67h-19v26.5c0 15.5-.4 26.5-.9 26.5s-10.4-11.9-22-26.5L984 67h-13v46zM1066.7 67.6c-.4.4-.7 21.1-.7 46.1v45.4l9.8-.3 9.7-.3v-91l-9-.3c-5-.1-9.4 0-9.8.4zM1102 75.5V84h11.3c7.5 0 11.7.4 12.5 1.2.9.9 1.2 10.6 1.2 37.5V159h19l.2-37.3.3-37.2 12.3-.3 12.3-.3-.3-8.2-.3-8.2-34.2-.3-34.3-.2v8.5zM1183 67.4c0 .3 8.1 11.9 18 25.7l18 25.2V159h19v-41.5l17.5-24.4c9.6-13.4 17.5-24.7 17.5-25.2s-4.6-.9-10.3-.9h-10.2l-11.8 16.6c-6.5 9.1-12.3 16.4-12.7 16.2-.5-.2-6-7.5-12.3-16.3l-11.3-16-10.7-.3c-5.9-.1-10.7 0-10.7.2z"/><path d="M509.5 106.1c-25.3 2.7-50.7 17.9-65.5 39.3-10.1 14.7-15 29.7-15.7 48.1-.8 20.8 3.5 37.9 13.7 54.2 2.2 3.6 4 6.9 3.8 7.2-.2.4-18.9 18.6-41.5 40.5-35.7 34.5-41.3 40.3-41.3 42.8 0 4.1 8.2 12.8 12.1 12.8 2.3 0 9.8-6.8 44.3-40 22.9-22 42-40 42.4-40 .5 0 4.6 2.4 9.1 5.4 26.6 17.6 62 19.3 91.6 4.5 20.4-10.2 37.3-29 45.4-50.9 3.9-10.4 5.3-19.1 5.3-31 0-25.6-8.6-46.9-26.1-65.3-20-20.9-47.6-30.7-77.6-27.6zm32.5 12.8c27.8 7.3 50.6 30.6 58.1 59.6 2.4 9.6 2.9 27.1 1 36-6.6 30.1-29.2 54.2-58.8 62.7-10.3 3-32.3 3.2-42.3.5-15.9-4.4-33-15.5-43.3-28.2-5.7-7.1-13-21.5-15.4-30.5-2.5-9.2-2.5-32.9 0-42 8.4-31 35.3-55 67.2-60.1 8.4-1.3 24.3-.4 33.5 2zM744.5 245.9c-14.3 3.7-22.4 15.8-19.6 29.2 2.5 11.6 8.4 16.5 27.5 22.9 14.1 4.7 18.3 7 19.2 10.5 1.6 6.5-2.1 10.3-11 11.2-9.6 1-19.6-4.8-19.6-11.2 0-1.3-.4-2.7-1-3-.5-.3-4.8 0-9.6.6l-8.6 1.2.5 5.3c1.6 15.6 14.4 24.4 35.8 24.4 24.6 0 38.1-13.9 32.5-33.4-2.9-9.8-11.9-16.6-28.6-21.6-12.8-3.8-18-7.3-18-12.1 0-7.8 13.5-10.6 20.8-4.4 1.6 1.4 3.2 3.9 3.6 5.6l.6 3.2 7.3-.7c3.9-.4 8-.9 9-1.2 4.2-1.3-.1-14.5-6.4-19.8-5.9-5-11.5-6.8-21.9-7.2-5.2-.2-10.8 0-12.5.5zM809.5 246.2c-.3.7-.4 21.3-.3 45.8l.3 44.5 28.8.3 28.7.2v-17l-18.7-.2-18.8-.3-.3-8.9c-.2-6.5.1-9.2 1-9.8.7-.4 6.8-.8 13.6-.8H856v-17h-27.1l.3-10.3.3-10.2 18.3-.3 18.3-.2-.3-8.3-.3-8.2-27.8-.3c-21.7-.2-27.9 0-28.2 1zM922.7 247.7c-2.6 5.1-39.7 88-39.7 88.6 0 .4 4.1.7 9.1.7h9l3.5-7.5 3.5-7.5h41.6l3.3 7.5 3.3 7.5h9.3c5.2 0 9.4-.3 9.4-.8-.1-.4-9.2-21-20.4-45.7l-20.3-45-5.1-.3c-4.7-.3-5.2-.1-6.5 2.5zm12.6 41.5c3.2 7.3 5.7 13.6 5.7 14 0 .5-5.4.8-12 .8-6.9 0-12-.4-12-.9 0-1.7 11.3-27.1 12-27.1.4 0 3.2 6 6.3 13.2zM992.5 246.2c-.3.7-.4 21.3-.3 45.8l.3 44.5h19l.3-13.8.3-13.8 8.7.3 8.7.3 7 13.5 7 13.5 10.3.3c5.6.1 10.2 0 10.2-.4 0-.3-3.6-7.4-8-15.7l-7.9-15.2 5.6-4.9c7.6-6.8 10.7-13.5 10.7-23.6 0-12.9-6.6-23.3-18.4-28.9-5.4-2.5-6-2.6-29.3-2.9-19-.3-23.8-.1-24.2 1zm45.8 18.7c8.9 5.5 8.8 18.8-.1 24.3-3.2 2-5 2.2-14.7 2.3h-11l-.3-13.4c-.1-7.4 0-14.1.3-14.9.9-2.5 21.3-1.1 25.8 1.7zM1116.5 246.3c-12.3 4.1-22.3 12.8-27.5 23.9-6.7 14.3-5.7 32.4 2.4 46.3 3.6 6.1 11.8 13.2 19.4 16.8 6.3 3 7.3 3.2 18.2 3.2 10.8 0 11.9-.2 18.2-3.2 8.1-3.8 15.1-10.5 18.4-17.6 3.8-8.3 3.8-8.3-8.4-9.3l-7.7-.6-2.3 4.1c-1.4 2.5-4 5.1-7 6.8-3.9 2.4-5.8 2.8-11.7 2.8-14.2-.1-23.2-9.8-24.3-26.1-1.1-17.9 9.3-31.4 24.3-31.4 7.1 0 14.8 3.9 18.3 9.4 1.4 2.2 2.7 4.3 2.9 4.5.1.2 4.1 0 8.8-.4 5.8-.5 8.8-1.1 9.2-2.1.9-2.4-4.4-12.2-9.2-16.8-2.5-2.5-7.5-6-11.1-7.7-5.8-2.9-7.6-3.3-16.7-3.6-6.7-.2-11.6.2-14.2 1zM1188 291v46h19l.2-17.3.3-17.2h40l.3 17.2.2 17.3h19v-92h-19l-.2 19.7-.3 19.8h-40l-.3-19.8-.2-19.7h-19v46z"/></svg>
