<svg xmlns="http://www.w3.org/2000/svg" xmlns:xlink="http://www.w3.org/1999/xlink" fill="none" viewBox="0 0 288 132"><defs><path id="reuse-0" fill="#000" fill-rule="evenodd" d="M40.867 2.608c-.059.236-.06.49-.01.757 0 0 .802 5.325-.11 7.695L2.03 111.732h.004c-2.764 7.395.94 15.65 8.323 18.491 7.384 2.839 15.664-.808 18.568-8.148l.003.001L67.645 21.405c.758-1.97 5.075-5.785 5.075-5.785.206-.152.376-.346.5-.57l.018-.038c.02-.042.046-.083.062-.127.998-2.596-5.441-7.488-14.383-10.927-8.942-3.44-17-4.123-18-1.527-.016.044-.026.09-.038.135l-.012.042Z" clip-rule="evenodd" opacity=".3"/><path id="reuse-1" fill="#333" d="M54.877 10.713c5.55 2.134 10.504 2.681 11.065 1.221.562-1.46-3.482-4.373-9.032-6.508S46.406 2.744 45.844 4.204c-.561 1.46 3.483 4.374 9.032 6.509Z"/><path id="reuse-2" fill="#fff" fill-rule="evenodd" d="M39.737 2.509s.791 5.355-.109 7.695L.912 110.876l.004.001c-2.764 7.394.94 15.649 8.323 18.49 1.25.48 2.56.783 3.892.902-4.977-3.744-7.113-10.441-4.83-16.552l-.003-.001 37.95-98.674s-5.166-4.85-6.51-12.533h-.001Z" clip-rule="evenodd" opacity=".3"/><path id="reuse-3" fill="#fff" d="M27.272 68.573a1.122 1.122 0 1 0 0-2.244 1.122 1.122 0 0 0 0 2.244ZM34.626 77.276a1.691 1.691 0 1 0 0-3.383 1.691 1.691 0 0 0 0 3.383ZM23.4 88.43a3.173 3.173 0 1 0 0-6.345 3.173 3.173 0 0 0 0 6.345ZM18.263 92.816a1.691 1.691 0 1 0 0-3.382 1.691 1.691 0 0 0 0 3.382ZM25 104.793a1.122 1.122 0 1 0 0-2.243 1.122 1.122 0 0 0 0 2.243Z" opacity=".5"/></defs><use xlink:href="#reuse-0" fill-rule="evenodd" clip-rule="evenodd" opacity=".3"/><path fill="url(#a)" fill-rule="evenodd" d="M39.748 1.753c-.059.236-.06.49-.01.757 0 0 .802 5.325-.11 7.694L.913 110.876l.003.001c-2.763 7.394.94 15.649 8.323 18.49 7.383 2.839 15.664-.808 18.568-8.148l.003.001L66.526 20.549c.757-1.97 5.075-5.785 5.075-5.785.217-.165.385-.354.5-.57l.018-.038c.02-.042.045-.083.061-.127 1-2.596-5.44-7.488-14.382-10.927-8.942-3.44-17-4.123-18-1.526-.016.043-.026.09-.038.134l-.011.043Z" clip-rule="evenodd"/><path fill="url(#b)" fill-rule="evenodd" d="m51.893 47.295-27.92 72.6.018.007c-2.06 5.203-8.053 7.91-13.369 5.865-5.316-2.044-8.194-8.162-6.235-13.406l17.84-46.389s2.229-3.594 6.603-6.151c4.375-2.556 7.983-2.017 12.842-4.176 4.857-2.16 10.221-8.35 10.221-8.35Z" clip-rule="evenodd"/><use xlink:href="#reuse-1"/><use xlink:href="#reuse-2" fill-rule="evenodd" clip-rule="evenodd" opacity=".3"/><use xlink:href="#reuse-3" opacity=".5"/><use xlink:href="#reuse-0" fill-rule="evenodd" clip-rule="evenodd" opacity=".1"/><path fill="url(#c)" fill-rule="evenodd" d="M39.748 1.753c-.059.236-.06.49-.01.757 0 0 .802 5.325-.11 7.694L.913 110.876l.003.001c-2.763 7.394.94 15.649 8.323 18.49 7.383 2.839 15.664-.808 18.568-8.148l.003.001L66.526 20.549c.757-1.97 5.075-5.785 5.075-5.785.217-.165.385-.354.5-.57l.018-.038c.02-.042.045-.083.061-.127 1-2.596-5.44-7.488-14.382-10.927-8.942-3.44-17-4.123-18-1.526-.016.043-.026.09-.038.134l-.011.043Z" clip-rule="evenodd"/><path fill="url(#d)" fill-rule="evenodd" d="m51.893 47.295-27.92 72.6.018.007c-2.06 5.203-8.053 7.91-13.369 5.865-5.316-2.044-8.194-8.162-6.235-13.406l17.84-46.389s2.229-3.594 6.603-6.151c4.375-2.556 7.983-2.017 12.842-4.176 4.857-2.16 10.221-8.35 10.221-8.35Z" clip-rule="evenodd"/><use xlink:href="#reuse-1"/><use xlink:href="#reuse-2" fill-rule="evenodd" clip-rule="evenodd" opacity=".3"/><use xlink:href="#reuse-3" opacity=".5"/><path fill="#000" d="M121 46h7v40h-7z"/><path fill="#000" d="M104 70v-7h40v7z"/><path fill="#FF7A7F" d="M263.929 89.648v6.79H181.5v-46l10.925.004.004-7.445-18.371-.007V43h-.004v60.438h.004v.445h89.871v.004h7.446V89.648h-7.446Z"/><path fill="#FFC8DC" d="M181.5 96.438h20.649v7.501H181.5v-7.501Z"/><path fill="#A3BEDC" d="M181.501 83.289v20.649H174v-20.65h7.501Z"/><path fill="#56B7B5" d="M181.503 62.638v20.65h-7.501v-20.65h7.501Z"/><path fill="#FF9852" d="M202.054 96.438h20.65v7.501h-20.65v-7.501Z"/><path fill="#98E1D0" d="M222.76 96.438h20.65v7.501h-20.65v-7.501Z"/><path fill="#8075B3" d="M243.41 96.438h20.649v7.501H243.41v-7.501Z"/><path fill="#8075B3" d="M271.376 86.145v17.789h-7.502V86.145h7.502Z"/><path fill="#98E1D0" d="M288 87.894h-97.32V27H288v60.894Z"/><path fill="#fff" d="M204.154 62.15h6.541a1.45 1.45 0 0 0 1.451-1.452v-6.537a1.45 1.45 0 0 0-1.451-1.451h-6.541a1.45 1.45 0 0 0-1.451 1.45v6.542c0 .799.648 1.447 1.451 1.447Zm35.186 10.655c8.371 0 15.157-6.785 15.157-15.156 0-8.37-6.786-15.157-15.157-15.157s-15.157 6.786-15.157 15.157c0 8.37 6.786 15.156 15.157 15.156Zm28.634-10.656h6.541a1.45 1.45 0 0 0 1.451-1.45V54.16a1.45 1.45 0 0 0-1.451-1.451h-6.541a1.45 1.45 0 0 0-1.451 1.45v6.542c0 .799.649 1.447 1.451 1.447Z"/><defs><linearGradient id="a" x1="17.33" x2="49.712" y1="60.008" y2="72.461" gradientUnits="userSpaceOnUse"><stop stop-color="#919191"/><stop offset="1" stop-color="#fff"/></linearGradient><linearGradient id="b" x1="16.502" x2="36.106" y1="80.856" y2="88.395" gradientUnits="userSpaceOnUse"><stop stop-color="#900"/><stop offset="1" stop-color="#E80000"/></linearGradient><linearGradient id="c" x1="17.33" x2="49.712" y1="60.008" y2="72.461" gradientUnits="userSpaceOnUse"><stop stop-color="#919191"/><stop offset="1" stop-color="#fff"/></linearGradient><linearGradient id="d" x1="16.502" x2="36.106" y1="80.856" y2="88.395" gradientUnits="userSpaceOnUse"><stop stop-color="#900"/><stop offset="1" stop-color="#E80000"/></linearGradient></defs></svg>
