<svg xmlns="http://www.w3.org/2000/svg" fill="none" viewBox="0 0 153 45"><path fill="#3B3F4D" d="M65.903 16.323a7.287 7.287 0 0 1 4.09 1.194.76.76 0 0 1 .19.451v.038c0 .357-.253.582-.755.667-.078 0-.566-.195-1.458-.591a4.938 4.938 0 0 0-1.69-.316h-.605c-1.397 0-2.734.63-4.013 1.888-.827 1.053-1.24 2.138-1.24 3.248v.14c0 1.811.899 3.291 2.697 4.439.939.493 1.878.74 2.816.74h.15c.925 0 1.85-.236 2.775-.705v-3.184H66.15c-.467-.079-.705-.297-.705-.67v-.025c.085-.447.315-.67.705-.67h3.498c.372 0 .599.22.676.666v3.888c0 .57-.149.924-.447 1.06-1.278.698-2.517 1.047-3.719 1.046h-.22c-2.348 0-4.314-1.016-5.896-3.048-.75-1.147-1.123-2.348-1.122-3.602 0-2.23 1.064-4.073 3.192-5.53 1.304-.75 2.568-1.124 3.792-1.124ZM79.332 16.324c.431 0 .748.432.956 1.294 2.832 7.341 4.261 11.099 4.29 11.273v.102c0 .346-.224.559-.665.634h-.038c-.413 0-.707-.396-.883-1.19l-1.583-4.102h-4.12l-1.928 5.077c-.188.142-.354.213-.499.213h-.073c-.444-.08-.665-.302-.665-.662v-.038l1.196-3.222c2.09-5.42 3.226-8.429 3.408-9.027.213-.238.412-.353.6-.353h.004Zm0 2.652-1.48 3.99h3.023v-.039l-1.505-3.95h-.038ZM88.057 16.323h9.157c.442.079.668.292.668.63v.14c0 .341-.272.538-.813.594h-3.69v11.31c0 .344-.238.555-.71.63h-.026c-.383 0-.62-.236-.71-.705v-11.23h-3.758c-.495-.092-.746-.326-.746-.696.106-.447.314-.671.629-.671v-.002ZM103.296 16.325l.176.038h6.873l.14-.038c.4 0 .633.255.699.765-.091.422-.347.633-.766.633h-6.42v4.724h4.205l.498-.038c.315 0 .524.236.63.7 0 .305-.187.538-.562.698l-.703-.037h-4.068v4.496h6.59c.325 0 .526.246.598.738-.122.415-.332.623-.629.623h-7.261c-.442-.078-.662-.302-.662-.664V17.026c.066-.445.287-.665.662-.665v-.038.002ZM116.548 16.324h.141c.428.085.643.272.643.553v5.547h6.722v-5.441c.08-.441.29-.66.642-.66h.103c.428.08.642.291.642.633v12.076c0 .304-.229.503-.682.595h-.036c-.447-.079-.672-.304-.672-.668v-5.206h-6.723v5.24c0 .348-.225.56-.672.631h-.036c-.366 0-.595-.237-.682-.707V17.092c.058-.513.258-.769.605-.769h.005ZM131.751 16.324h.142c.43.085.644.272.644.553v7.483c0 1.609.466 2.686 1.398 3.23.557.437 1.25.673 1.963.668 1.391 0 2.438-.701 3.14-2.105.145-.445.218-.909.216-1.376v-7.794c.081-.441.291-.66.644-.66h.104c.429.08.644.291.644.633v8.176c0 1.394-.681 2.61-2.044 3.65-.856.563-1.725.845-2.608.845h-.242c-1.481 0-2.769-.714-3.864-2.144-.497-.768-.745-1.715-.745-2.844v-7.547c.058-.513.258-.769.607-.769h.001ZM146.058 16.325l.165.02h2.096l.137-.02c1.046 0 1.939.501 2.68 1.504.363.534.558 1.17.557 1.82v.104c0 .8-.31 1.558-.931 2.275 1.491.837 2.237 2.05 2.238 3.64 0 1.599-.816 2.826-2.447 3.68a4.227 4.227 0 0 1-1.404.28h-3.094c-.439-.08-.658-.305-.658-.67V17.011c.07-.447.288-.669.658-.669v-.019l.003.002Zm.688 1.39v3.922h1.264c1.124 0 1.846-.409 2.166-1.225.089-.224.135-.463.137-.705v-.1c0-.9-.516-1.518-1.547-1.852l-.719-.038-1.301-.002Zm0 5.292v5.253h1.785c1.311 0 2.191-.385 2.64-1.154.294-.422.45-.927.446-1.444v-.066c0-1.26-.675-2.104-2.024-2.532l-.961-.054-1.886-.003ZM5.224 26.776a6.223 6.223 0 0 1-2.16-.383 5.282 5.282 0 0 1-1.775-1.08c-.49-.46-.854-1-1.069-1.584a3.534 3.534 0 0 1-.173-1.804c.1-.604.358-1.184.754-1.7a4.837 4.837 0 0 1 1.546-1.294 5.957 5.957 0 0 1 2.061-.655 6.355 6.355 0 0 1 2.208.102c1.22.275 2.276.902 2.973 1.766.697.864.987 1.905.817 2.93-.17 1.026-.789 1.967-1.742 2.647-.953.681-2.175 1.056-3.44 1.055Zm0-7.37c-.958 0-1.88.299-2.579.834-.699.535-1.123 1.268-1.187 2.05-.065.781.237 1.553.842 2.16.606.607 1.471 1.003 2.42 1.108.949.105 1.911-.09 2.692-.543.78-.454 1.322-1.133 1.513-1.9.192-.768.02-1.567-.48-2.235-.501-.667-1.293-1.155-2.217-1.363a4.578 4.578 0 0 0-1-.11h-.004Z"/><path fill="#9D9FA7" d="m30.527 31.528-5.107-8.562H15.205v-.932H25.42l5.107-8.562.833.466-5.107 8.562 5.107 8.563-.833.465Z"/><path fill="#3B3F4D" d="M35.647 44.832a5.677 5.677 0 0 1-2.164-.422 5.225 5.225 0 0 1-1.778-1.199 4.648 4.648 0 0 1-1.072-1.759 4.337 4.337 0 0 1-.176-2.005c.1-.672.356-1.317.752-1.891a5.002 5.002 0 0 1 1.547-1.44 5.551 5.551 0 0 1 2.063-.728 5.74 5.74 0 0 1 2.21.112c1.218.307 2.273 1.004 2.97 1.962.695.958.986 2.114.818 3.252-.169 1.138-.785 2.182-1.736 2.94-.95.756-2.17 1.175-3.434 1.178Zm-.007-8.189c-.96 0-1.883.333-2.583.929-.7.596-1.125 1.411-1.189 2.281-.063.87.24 1.73.847 2.404.607.675 1.474 1.115 2.425 1.23.951.117 1.915-.1 2.697-.605s1.323-1.262 1.514-2.116a3.175 3.175 0 0 0-.484-2.486c-.503-.742-1.297-1.284-2.222-1.514a4.147 4.147 0 0 0-1.005-.123ZM35.63 9.67a5.671 5.671 0 0 1-2.159-.426 5.218 5.218 0 0 1-1.773-1.2 4.645 4.645 0 0 1-1.068-1.76 4.338 4.338 0 0 1-.173-2.003c.1-.672.357-1.316.754-1.89A5 5 0 0 1 32.756.956a5.545 5.545 0 0 1 2.06-.728 5.734 5.734 0 0 1 2.207.11C38.243.644 39.3 1.34 39.998 2.3c.697.96.988 2.118.818 3.258-.17 1.14-.79 2.185-1.743 2.941-.954.757-2.177 1.173-3.442 1.172Zm0-8.189c-.915 0-1.8.3-2.49.848-.689.548-1.137 1.304-1.26 2.13a3.192 3.192 0 0 0 .594 2.356c.505.694 1.27 1.198 2.153 1.418.967.243 2 .126 2.872-.324.872-.45 1.512-1.196 1.78-2.075a3.169 3.169 0 0 0-.36-2.61c-.494-.793-1.314-1.375-2.28-1.618a4.126 4.126 0 0 0-1.005-.126l-.003.001Z"/></svg>
