<svg width="62" height="62" fill="none" xmlns="http://www.w3.org/2000/svg"><g clip-path="url(#a)"><path d="M55.757 12.168A30.589 30.589 0 0 0 32.231.007c-7.198-.144-12.17 2.019-14.983 3.758 3.764-2.183 9.211-3.422 13.98-3.36 12.269.155 25.445 8.51 27.402 23.57 2.248 17.287-9.793 31.715-26.732 31.76C13.263 55.78 1.93 39.281 4.892 24.46c.055-.726.162-1.448.32-2.16a29.307 29.307 0 0 1 3.25-10.864c-2.146 1.111-4.88 4.623-6.228 7.877A32.05 32.05 0 0 0 .221 34.953c.046.4.088.802.141 1.2a31.048 31.048 0 1 0 55.395-23.985z" fill="url(#b)"/><path opacity=".67" d="M55.757 12.168A30.589 30.589 0 0 0 32.231.007c-7.198-.144-12.17 2.019-14.983 3.758 3.764-2.183 9.211-3.422 13.98-3.36 12.269.155 25.445 8.51 27.402 23.57 2.248 17.287-9.793 31.715-26.732 31.76C13.263 55.78 1.93 39.281 4.892 24.46c.055-.726.162-1.448.32-2.16a29.307 29.307 0 0 1 3.25-10.864c-2.146 1.111-4.88 4.623-6.228 7.877A32.05 32.05 0 0 0 .221 34.953c.046.4.088.802.141 1.2a31.048 31.048 0 1 0 55.395-23.985z" fill="url(#c)"/><path d="M55.757 12.168A30.589 30.589 0 0 0 32.231.007c-7.198-.144-12.17 2.019-14.983 3.758 3.764-2.183 9.211-3.422 13.98-3.36 12.269.155 25.445 8.51 27.402 23.57 2.248 17.287-9.793 31.715-26.732 31.76C13.263 55.78 1.93 39.281 4.892 24.46c.055-.726.162-1.448.32-2.16a29.307 29.307 0 0 1 3.25-10.864c-2.146 1.111-4.88 4.623-6.228 7.877A32.05 32.05 0 0 0 .221 34.953c.046.4.088.802.141 1.2a31.048 31.048 0 1 0 55.395-23.985z" fill="url(#d)"/><path d="M55.757 12.168A30.589 30.589 0 0 0 32.231.007c-7.198-.144-12.17 2.019-14.983 3.758 3.764-2.183 9.211-3.422 13.98-3.36 12.269.155 25.445 8.51 27.402 23.57 2.248 17.287-9.793 31.715-26.732 31.76C13.263 55.78 1.93 39.281 4.892 24.46c.055-.726.162-1.448.32-2.16a29.307 29.307 0 0 1 3.25-10.864c-2.146 1.111-4.88 4.623-6.228 7.877A32.05 32.05 0 0 0 .221 34.953c.046.4.088.802.141 1.2a31.048 31.048 0 1 0 55.395-23.985z" fill="url(#e)"/><path d="M55.757 12.168A30.589 30.589 0 0 0 32.231.007c-7.198-.144-12.17 2.019-14.983 3.758 3.764-2.183 9.211-3.422 13.98-3.36 12.269.155 25.445 8.51 27.402 23.57 2.248 17.287-9.793 31.715-26.732 31.76C13.263 55.78 1.93 39.281 4.892 24.46c.055-.726.162-1.448.32-2.16a29.307 29.307 0 0 1 3.25-10.864c-2.146 1.111-4.88 4.623-6.228 7.877A32.05 32.05 0 0 0 .221 34.953c.046.4.088.802.141 1.2a31.048 31.048 0 1 0 55.395-23.985z" fill="url(#f)"/><path d="M58.63 23.975c.243 1.861.32 3.74.232 5.616a89.084 89.084 0 0 1 3.09-.41 31.008 31.008 0 0 0-6.195-17.014A30.59 30.59 0 0 0 32.23.008c-7.199-.144-12.17 2.019-14.984 3.758C21.01 1.582 26.459.343 31.227.405c12.27.156 25.446 8.507 27.402 23.57z" fill="url(#g)"/><path d="M59.384 23.115C57.64 7.376 43.604.302 31.228.405c-4.77.038-10.217 1.177-13.981 3.36a15.27 15.27 0 0 0-2.76 2.092c.1-.082.4-.328.893-.668l.05-.033.043-.03a20.658 20.658 0 0 1 5.961-2.768 33.712 33.712 0 0 1 10.217-1.196A25.772 25.772 0 0 1 55.87 25.957c.284 10.236-8.093 18.396-17.75 18.869-7.022.344-13.64-3.054-16.871-9.853a16.806 16.806 0 0 1-1.522-4.908c-1.532-10.346 5.416-19.17 11.788-21.354-3.438-3.002-12.05-2.799-18.46 1.917-4.616 3.396-7.61 8.563-8.603 14.725a25.532 25.532 0 0 0 1.814 13.95 27.357 27.357 0 0 0 23.319 16.619c.77.059 1.54.088 2.312.087 20.508 0 29.405-15.567 27.487-32.894z" fill="url(#h)"/><path d="M59.384 23.115C57.64 7.376 43.604.302 31.228.405c-4.77.038-10.217 1.177-13.981 3.36a15.27 15.27 0 0 0-2.76 2.092c.1-.082.4-.328.893-.668l.05-.033.043-.03a20.658 20.658 0 0 1 5.961-2.768 33.712 33.712 0 0 1 10.217-1.196A25.772 25.772 0 0 1 55.87 25.957c.284 10.236-8.093 18.396-17.75 18.869-7.022.344-13.64-3.054-16.871-9.853a16.806 16.806 0 0 1-1.522-4.908c-1.532-10.346 5.416-19.17 11.788-21.354-3.438-3.002-12.05-2.799-18.46 1.917-4.616 3.396-7.61 8.563-8.603 14.725a25.532 25.532 0 0 0 1.814 13.95 27.357 27.357 0 0 0 23.319 16.619c.77.059 1.54.088 2.312.087 20.508 0 29.405-15.567 27.487-32.894z" fill="url(#i)"/><path style="mix-blend-mode:multiply" opacity=".53" d="M59.384 23.115C57.64 7.376 43.604.302 31.228.405c-4.77.038-10.217 1.177-13.981 3.36a15.27 15.27 0 0 0-2.76 2.092c.1-.082.4-.328.893-.668l.05-.033.043-.03a20.658 20.658 0 0 1 5.961-2.768 33.712 33.712 0 0 1 10.217-1.196A25.772 25.772 0 0 1 55.87 25.957c.284 10.236-8.093 18.396-17.75 18.869-7.022.344-13.64-3.054-16.871-9.853a16.806 16.806 0 0 1-1.522-4.908c-1.532-10.346 5.416-19.17 11.788-21.354-3.438-3.002-12.05-2.799-18.46 1.917-4.616 3.396-7.61 8.563-8.603 14.725a25.532 25.532 0 0 0 1.814 13.95 27.357 27.357 0 0 0 23.319 16.619c.77.059 1.54.088 2.312.087 20.508 0 29.405-15.567 27.487-32.894z" fill="url(#j)"/><path style="mix-blend-mode:multiply" opacity=".53" d="M59.384 23.115C57.64 7.376 43.604.302 31.228.405c-4.77.038-10.217 1.177-13.981 3.36a15.27 15.27 0 0 0-2.76 2.092c.1-.082.4-.328.893-.668l.05-.033.043-.03a20.658 20.658 0 0 1 5.961-2.768 33.712 33.712 0 0 1 10.217-1.196A25.772 25.772 0 0 1 55.87 25.957c.284 10.236-8.093 18.396-17.75 18.869-7.022.344-13.64-3.054-16.871-9.853a16.806 16.806 0 0 1-1.522-4.908c-1.532-10.346 5.416-19.17 11.788-21.354-3.438-3.002-12.05-2.799-18.46 1.917-4.616 3.396-7.61 8.563-8.603 14.725a25.532 25.532 0 0 0 1.814 13.95 27.357 27.357 0 0 0 23.319 16.619c.77.059 1.54.088 2.312.087 20.508 0 29.405-15.567 27.487-32.894z" fill="url(#k)"/><path d="M38.12 44.826c13.253-.806 18.926-11.78 19.282-19.565C57.957 13.098 50.74-.015 31.65 1.163A33.713 33.713 0 0 0 21.434 2.36a22.363 22.363 0 0 0-5.961 2.768l-.044.03-.048.033c-.297.206-.587.424-.87.652a25.948 25.948 0 0 1 16.256-3.05c10.96 1.438 20.981 9.964 20.981 21.214 0 8.656-6.689 15.268-14.522 14.792-11.636-.697-14.57-12.632-8.516-17.789-1.632-.351-4.7.337-6.836 3.53-1.916 2.868-1.808 7.293-.625 10.433a17.141 17.141 0 0 0 16.872 9.852z" fill="url(#l)"/><path d="M55.757 12.168a30.972 30.972 0 0 0-2.7-3.087 24.289 24.289 0 0 0-2.461-2.267c.502.437.98.9 1.433 1.387a17.41 17.41 0 0 1 3.783 6.312c1.62 4.905 1.514 11.043-1.578 15.865a18.242 18.242 0 0 1-16.162 8.443c-.28 0-.562 0-.846-.02-11.636-.698-14.57-12.633-8.515-17.79-1.633-.351-4.7.337-6.837 3.53-1.916 2.868-1.808 7.293-.625 10.432a16.802 16.802 0 0 1-1.521-4.908c-1.533-10.346 5.415-19.17 11.787-21.354-3.438-3.002-12.05-2.799-18.46 1.917a21.58 21.58 0 0 0-7.818 11.315A29.838 29.838 0 0 1 8.461 11.44c-2.146 1.11-4.88 4.623-6.228 7.876A32.05 32.05 0 0 0 .22 34.953c.046.4.088.802.141 1.2a31.048 31.048 0 1 0 55.395-23.985z" fill="url(#m)"/><path d="M55.812 14.513A17.406 17.406 0 0 0 52.03 8.2 23.423 23.423 0 0 0 44.98 3.17 31.4 31.4 0 0 0 38.052.713 30.871 30.871 0 0 0 25.215.636c-4.405.93-8.277 2.835-10.727 5.218a24.878 24.878 0 0 1 6.224-2.48A26.013 26.013 0 0 1 44.87 9.65a20.938 20.938 0 0 1 3.355 4.108c3.794 6.168 3.435 13.922.477 18.496-2.198 3.397-6.903 6.587-11.294 6.55a18.312 18.312 0 0 0 16.825-8.425c3.092-4.823 3.197-10.962 1.578-15.867z" fill="url(#n)"/><path d="M55.812 14.513A17.406 17.406 0 0 0 52.03 8.2 23.423 23.423 0 0 0 44.98 3.17 31.4 31.4 0 0 0 38.052.713 30.871 30.871 0 0 0 25.215.636c-4.405.93-8.277 2.835-10.727 5.218a24.878 24.878 0 0 1 6.224-2.48A26.013 26.013 0 0 1 44.87 9.65a20.938 20.938 0 0 1 3.355 4.108c3.794 6.168 3.435 13.922.477 18.496-2.198 3.397-6.903 6.587-11.294 6.55a18.312 18.312 0 0 0 16.825-8.425c3.092-4.823 3.197-10.962 1.578-15.867z" fill="url(#o)"/></g><defs><radialGradient id="b" cx="0" cy="0" r="1" gradientUnits="userSpaceOnUse" gradientTransform="translate(55.437 12.698) scale(70.3545)"><stop stop-color="#FFF36E"/><stop offset=".5" stop-color="#FC4055"/><stop offset="1" stop-color="#E31587"/></radialGradient><radialGradient id="c" cx="0" cy="0" r="1" gradientUnits="userSpaceOnUse" gradientTransform="translate(5.138 15.608) scale(41.6376)"><stop offset=".001" stop-color="#C60084"/><stop offset="1" stop-color="#FC4055" stop-opacity="0"/></radialGradient><radialGradient id="d" cx="0" cy="0" r="1" gradientUnits="userSpaceOnUse" gradientTransform="translate(61.451 8.695) scale(82.6142)"><stop stop-color="#FFDE67" stop-opacity=".6"/><stop offset=".093" stop-color="#FFD966" stop-opacity=".581"/><stop offset=".203" stop-color="#FFCA65" stop-opacity=".525"/><stop offset=".321" stop-color="#FEB262" stop-opacity=".432"/><stop offset=".446" stop-color="#FE8F5E" stop-opacity=".302"/><stop offset=".573" stop-color="#FD6459" stop-opacity=".137"/><stop offset=".664" stop-color="#FC4055" stop-opacity="0"/></radialGradient><radialGradient id="e" cx="0" cy="0" r="1" gradientUnits="userSpaceOnUse" gradientTransform="translate(32.772 34.413) scale(106.579)"><stop offset=".153" stop-color="#810220"/><stop offset=".167" stop-color="#920B27" stop-opacity=".861"/><stop offset=".216" stop-color="#CB2740" stop-opacity=".398"/><stop offset=".253" stop-color="#EF394F" stop-opacity=".11"/><stop offset=".272" stop-color="#FC4055" stop-opacity="0"/></radialGradient><radialGradient id="f" cx="0" cy="0" r="1" gradientUnits="userSpaceOnUse" gradientTransform="translate(24.706 33.073) scale(106.579)"><stop offset=".113" stop-color="#810220"/><stop offset=".133" stop-color="#920B27" stop-opacity=".861"/><stop offset=".204" stop-color="#CB2740" stop-opacity=".398"/><stop offset=".257" stop-color="#EF394F" stop-opacity=".11"/><stop offset=".284" stop-color="#FC4055" stop-opacity="0"/></radialGradient><radialGradient id="h" cx="0" cy="0" r="1" gradientUnits="userSpaceOnUse" gradientTransform="matrix(66.0452 0 0 66.1829 53.828 9.37)"><stop stop-color="#FF9640"/><stop offset=".8" stop-color="#FC4055"/></radialGradient><radialGradient id="i" cx="0" cy="0" r="1" gradientUnits="userSpaceOnUse" gradientTransform="matrix(66.0452 0 0 66.1829 53.828 9.37)"><stop offset=".084" stop-color="#FFDE67"/><stop offset=".147" stop-color="#FFDC66" stop-opacity=".968"/><stop offset=".246" stop-color="#FFD562" stop-opacity=".879"/><stop offset=".369" stop-color="#FFCB5D" stop-opacity=".734"/><stop offset=".511" stop-color="#FFBC55" stop-opacity=".533"/><stop offset=".667" stop-color="#FFAA4B" stop-opacity=".28"/><stop offset=".822" stop-color="#FF9640" stop-opacity="0"/></radialGradient><radialGradient id="j" cx="0" cy="0" r="1" gradientUnits="userSpaceOnUse" gradientTransform="rotate(75.728 .085 39.867) scale(32.4495 33.8008)"><stop offset=".363" stop-color="#FC4055"/><stop offset=".443" stop-color="#FD604D" stop-opacity=".633"/><stop offset=".545" stop-color="#FE8644" stop-opacity=".181"/><stop offset=".59" stop-color="#FF9640" stop-opacity="0"/></radialGradient><radialGradient id="k" cx="0" cy="0" r="1" gradientUnits="userSpaceOnUse" gradientTransform="translate(33.121 32.626) scale(32.3872)"><stop offset=".216" stop-color="#FC4055" stop-opacity=".8"/><stop offset=".267" stop-color="#FD5251" stop-opacity=".633"/><stop offset=".41" stop-color="#FE8345" stop-opacity=".181"/><stop offset=".474" stop-color="#FF9640" stop-opacity="0"/></radialGradient><radialGradient id="l" cx="0" cy="0" r="1" gradientUnits="userSpaceOnUse" gradientTransform="matrix(111.629 0 0 111.861 67.01 1.895)"><stop offset=".054" stop-color="#FFF36E"/><stop offset=".457" stop-color="#FF9640"/><stop offset=".639" stop-color="#FF9640"/></radialGradient><linearGradient id="g" x1="35.519" y1="6.035" x2="53.776" y2="37.658" gradientUnits="userSpaceOnUse"><stop stop-color="#FFBD4F"/><stop offset=".508" stop-color="#FF9640" stop-opacity="0"/></linearGradient><linearGradient id="m" x1="45.765" y1="5.489" x2="14.07" y2="60.388" gradientUnits="userSpaceOnUse"><stop stop-color="#FFF36E" stop-opacity=".8"/><stop offset=".094" stop-color="#FFF36E" stop-opacity=".699"/><stop offset=".752" stop-color="#FFF36E" stop-opacity="0"/></linearGradient><linearGradient id="n" x1="31.453" y1="-.519" x2="48.282" y2="48.207" gradientUnits="userSpaceOnUse"><stop stop-color="#B833E1"/><stop offset=".371" stop-color="#9059FF"/><stop offset=".614" stop-color="#5B6DF8"/><stop offset="1" stop-color="#0090ED"/></linearGradient><linearGradient id="o" x1="21.475" y1=".251" x2="52.755" y2="31.531" gradientUnits="userSpaceOnUse"><stop offset=".805" stop-color="#722291" stop-opacity="0"/><stop offset="1" stop-color="#592ACB" stop-opacity=".5"/></linearGradient><clipPath id="a"><path fill="#fff" d="M0 0h62v62H0z"/></clipPath></defs></svg>