<svg width="64" height="64" viewBox="0 0 64 64" fill="none" xmlns="http://www.w3.org/2000/svg">
<rect width="64" height="64" rx="10.4" fill="black"/>
<path d="M24.42 46.5081C24.4201 46.508 24.4202 46.508 24.4203 46.5079L24.3237 46.3804C24.7734 46.0431 25.9332 45.3271 26.0338 45.3271C26.1107 45.3271 26.3179 45.9898 26.4125 46.5579L21.2745 48.0473C21.1013 48.2995 20.8837 48.6704 20.71 48.9933C20.6229 49.1551 20.5457 49.307 20.4898 49.4279C20.4619 49.4882 20.4384 49.5428 20.4215 49.5881C20.413 49.6107 20.4055 49.6331 20.3998 49.6539C20.3949 49.6719 20.3883 49.6998 20.3883 49.7296C20.3883 49.7531 20.3911 49.7976 20.4181 49.8411C20.4527 49.8967 20.5108 49.925 20.5691 49.9257C20.6151 49.9263 20.6524 49.9098 20.6731 49.8991C20.6967 49.887 20.7189 49.8715 20.7389 49.856C20.8158 49.7964 20.9212 49.686 21.054 49.5326L21.0546 49.5318C21.3072 49.2362 21.9031 48.6659 22.5644 48.072C23.2235 47.48 23.9371 46.874 24.42 46.5081ZM24.42 46.5081C24.639 46.3439 25.0362 46.0838 25.3936 45.8634C25.5719 45.7535 25.7382 45.6548 25.8653 45.584C25.9071 45.5607 25.9438 45.5409 25.9748 45.5249C26.001 45.5867 26.0315 45.6729 26.0637 45.7767C26.1349 46.007 26.2086 46.3077 26.2547 46.5842L26.2546 46.5842L26.2558 46.59C26.2796 46.7062 26.304 46.8164 26.326 46.8987C26.3367 46.939 26.3482 46.9775 26.3599 47.0077C26.3654 47.0219 26.3738 47.0417 26.3856 47.0605C26.3914 47.0696 26.4022 47.0855 26.4194 47.1008C26.435 47.1149 26.4733 47.1439 26.5309 47.1439C26.571 47.1439 26.6002 47.1287 26.6066 47.1253L26.607 47.1251C26.6178 47.1195 26.6261 47.1137 26.6308 47.1104C26.6404 47.1034 26.6488 47.096 26.6547 47.0906C26.6673 47.0792 26.6817 47.0648 26.6967 47.0492C26.7272 47.0175 26.7677 46.9731 26.8148 46.92C26.9094 46.8134 27.0348 46.6671 27.1686 46.5065L27.1686 46.5065L27.1702 46.5046C27.6354 45.9289 28.9284 44.671 29.5111 44.2165L29.5111 44.2165L29.5142 44.2139C29.5995 44.1439 29.68 44.0728 29.7403 44.0141C29.7701 43.9851 29.7974 43.9567 29.8184 43.9316C29.8287 43.9193 29.8403 43.9044 29.8501 43.8884C29.8551 43.8804 29.8614 43.8692 29.867 43.8556C29.8674 43.8546 29.8678 43.8534 29.8683 43.8522C29.8723 43.8482 29.8779 43.8428 29.8852 43.8361C29.9197 43.8045 29.9784 43.7565 30.0712 43.6857C30.2556 43.545 30.5608 43.3248 31.0429 42.9847L24.42 46.5081ZM26.6491 46.8652C26.647 46.8675 26.6449 46.8699 26.6428 46.8722C26.6504 46.8805 26.6548 46.8873 26.6563 46.8897C26.6588 46.8937 26.66 46.8964 26.6602 46.8966C26.6602 46.8968 26.6596 46.8954 26.6582 46.8919C26.6557 46.8856 26.6527 46.8767 26.6491 46.8652ZM26.4746 46.8344C26.4735 46.8302 26.4724 46.8261 26.4714 46.8218C26.4696 46.8237 26.4678 46.8255 26.4661 46.8273C26.4527 46.8412 26.4442 46.8496 26.4396 46.8537C26.4384 46.8548 26.438 46.8551 26.4385 46.8547C26.439 46.8543 26.4404 46.8531 26.4426 46.8515C26.4445 46.8502 26.4504 46.8459 26.4593 46.8413L26.4597 46.841C26.4616 46.8401 26.4667 46.8373 26.4746 46.8344ZM32.6914 41.8506C32.6914 41.8506 32.6906 41.8505 32.6893 41.8502L32.6914 41.8506ZM26.0657 45.4828C26.0657 45.4828 26.0647 45.4832 26.0629 45.4837C26.0648 45.483 26.0657 45.4827 26.0657 45.4828Z" fill="white" stroke="white" stroke-width="0.32"/>
<mask id="path-3-outside-1" maskUnits="userSpaceOnUse" x="10.4285" y="12.7142" width="42" height="37" fill="black">
<rect fill="white" x="10.4285" y="12.7142" width="42" height="37"/>
<path d="M27.229 49.0736C27.3414 48.8665 28.3178 47.7126 28.7912 47.2274C29.5368 46.464 31.2233 44.89 31.6908 44.5172C31.9275 44.3278 32.5133 43.8426 32.9926 43.4343C34.0755 42.523 34.5726 42.1502 35.0874 41.8602C35.4661 41.6472 35.5194 41.6354 36.0223 41.6354C36.4839 41.6354 36.5963 41.6531 36.8508 41.7833C37.478 42.1147 37.5905 42.736 37.1171 43.3041C37.0165 43.4224 36.9396 43.5526 36.9396 43.5881C36.9396 43.8426 39.9101 43.9136 41.5552 43.7006C41.6676 43.6887 42.0108 43.6118 42.3126 43.5349C42.9339 43.3692 42.9339 43.3692 42.7623 43.8662C42.715 44.0142 42.6795 44.1917 42.6913 44.2568C42.7091 44.3751 42.7327 44.3692 43.2121 44.1503C44.2239 43.7006 45.4844 42.736 45.94 42.0733C46.0524 41.9135 46.1708 41.7774 46.2063 41.7774C46.2418 41.7774 46.3897 41.8839 46.5377 42.0141L46.8039 42.2449L46.9282 42.1147C47.1472 41.878 47.4785 41.2981 47.5969 40.9608C47.8454 40.2388 47.9519 39.1974 47.8277 38.6707L47.7744 38.4399L48.2656 37.9547C48.8218 37.4044 49.2538 36.7949 49.6384 36.0079C50.3189 34.6054 50.3958 32.9722 49.8337 31.7946C49.6621 31.4396 49.6562 31.4041 49.7449 31.2739C49.8633 31.0905 49.8692 30.6289 49.7508 30.2975C49.6562 30.0312 49.0171 29.1318 48.7449 28.8773C48.6561 28.7945 48.4312 28.5459 48.2478 28.3152C48.0644 28.0903 47.4726 27.4631 46.9282 26.9305C46.3779 26.392 45.9341 25.9363 45.9341 25.9127C45.9341 25.889 46.0702 25.7056 46.2359 25.5103C46.5317 25.1493 46.6915 24.8002 46.6087 24.6582C46.301 24.1374 45.5139 23.1492 44.9755 22.5989C43.3482 20.942 42.4665 20.3503 40.4072 19.5573C39.8154 19.3325 38.1585 18.8532 37.5017 18.7289C37.3715 18.6993 37.2413 18.6756 37.2058 18.6638C37.1763 18.652 36.9573 18.6105 36.7206 18.5632C36.3715 18.4922 36.2354 18.433 36.0046 18.2377C35.8448 18.1016 35.6791 17.9478 35.6318 17.8945C35.5194 17.7525 34.6672 17.2081 33.9216 16.7939C31.7736 15.5986 30.2528 15.1429 28.3415 15.1252L27.6373 15.1192L27.4598 15.3204C27.2823 15.5216 27.2763 15.5335 27.3119 15.9714C27.3414 16.3501 27.513 17.1193 27.6728 17.6046C27.7142 17.717 27.6787 17.7348 27.2527 17.7998C26.9982 17.8354 26.7201 17.8827 26.6313 17.9004C26.5367 17.9182 26.4065 17.9419 26.3355 17.9537C25.1875 18.1608 24.1815 18.4744 23.1282 18.9656L22.5483 19.2319L22.1637 19.0543C21.2228 18.6105 19.986 18.2259 19.0807 18.1076C18.4238 18.0188 17.2167 18.0602 16.5835 18.1904C15.9267 18.3324 14.7136 18.7407 14.3053 18.9538L13.9502 19.1431L13.9621 19.439C13.968 19.6047 13.9976 19.8295 14.0331 19.942C14.3467 21.0249 14.5775 21.6166 15.045 22.5516C15.6367 23.7291 15.903 24.167 16.5184 24.9777C16.7492 25.2795 16.9386 25.5635 16.9386 25.605C16.9386 25.6405 16.8735 25.7115 16.7965 25.7529C16.7196 25.7943 16.4711 25.9719 16.2521 26.1435C15.6071 26.6464 14.3585 27.2145 12.5301 27.8418C12.0093 28.0193 11.4649 28.1613 11.4353 28.1258C11.4176 28.1081 11.4353 28.0785 11.4767 28.0666C11.5182 28.0548 11.9679 27.8003 12.4827 27.5045C13.4473 26.9542 14.8615 26.0192 15.3527 25.6109L15.6308 25.3801L15.329 24.9836C15.1633 24.7647 14.9385 24.4807 14.8319 24.3505C14.4118 23.8238 13.7609 22.7705 13.4118 22.0427C12.4886 20.1017 12.0034 18.652 12.1928 18.3679C12.3466 18.1253 14.4118 17.3501 15.4 17.1667C15.5775 17.1312 15.7906 17.0898 15.8734 17.072C16.5362 16.9241 18.5185 16.8708 19.2168 16.9832C19.4121 17.0128 19.6665 17.0483 19.7789 17.0602C20.0156 17.0898 21.0275 17.3028 21.4654 17.4152C21.7554 17.4921 21.7672 17.4921 22.4714 17.2081C23.1341 16.9418 24.1105 16.6696 24.9863 16.5039C25.6846 16.3737 25.726 16.3619 25.7201 16.2376C25.7141 16.1785 25.655 15.9003 25.578 15.6281C25.4183 15.0186 25.4005 14.2139 25.5425 13.989C25.6609 13.8174 25.7319 13.7996 26.5663 13.7346C27.3296 13.6754 29.2173 13.7523 30.0931 13.8766C30.2114 13.8943 30.4067 13.918 30.5191 13.9357C32.466 14.208 34.7678 15.2553 36.904 16.8412C37.5727 17.3324 37.6023 17.3501 38.0757 17.427C38.9337 17.5631 41.3066 18.2496 41.7978 18.4922C42.715 18.9597 44.5257 20.2378 45.508 21.1136C46.4252 21.9302 47.3839 23.0013 47.9756 23.8771C48.3662 24.4511 48.3662 24.457 48.3307 24.7588C48.2892 25.0724 48.0111 25.5872 47.8513 25.6464C47.7152 25.6997 47.8218 25.8417 48.4431 26.4985C49.7568 27.8773 50.816 29.3803 51.2539 30.4869C51.4847 31.0549 51.4847 31.2916 51.2657 31.7591L51.0882 32.126L51.2125 32.5521C51.313 32.9249 51.3249 33.0965 51.3012 33.8421C51.2716 34.7356 51.2657 34.7829 51.1059 35.3274C50.8041 36.357 50.7036 36.5878 50.3307 37.144C49.8574 37.8482 49.6266 38.1381 49.1946 38.576L48.8632 38.9074L48.8514 39.5287C48.8396 40.1382 48.8336 40.2152 48.7212 40.6826C48.4312 41.9135 48.1295 42.5171 47.4075 43.2745C47.1117 43.5822 46.8335 43.884 46.7921 43.9491C46.7152 44.0497 46.6915 44.0378 46.3956 43.7479L46.082 43.4402L45.5494 43.8367C44.5376 44.6 43.9221 44.9373 43.0168 45.245C42.3304 45.4758 42.0759 45.529 41.6321 45.5527C40.8687 45.5882 40.8628 45.5823 41.1114 45.1562C41.2238 44.961 41.3185 44.7834 41.3185 44.7539C41.3185 44.7302 40.7267 44.7065 40.0048 44.7065C38.8391 44.7065 38.3183 44.6828 37.6792 44.5882C37.5846 44.5763 37.407 44.5527 37.2946 44.5349C36.5076 44.4284 35.2235 44.1207 35.2235 44.0378C35.2235 44.0083 35.3123 43.9017 35.4247 43.7952C35.7087 43.5171 35.8507 43.1798 35.7679 42.9905C35.62 42.6709 35.2886 42.8011 33.2352 44.0083C32.6849 44.3337 32.0754 44.7124 31.8801 44.8485C31.241 45.2983 29.957 46.4522 28.5664 47.825C27.8208 48.5647 27.1994 49.1742 27.1876 49.1742C27.1817 49.1742 27.1994 49.1269 27.229 49.0736Z"/>
</mask>
<path d="M27.229 49.0736C27.3414 48.8665 28.3178 47.7126 28.7912 47.2274C29.5368 46.464 31.2233 44.89 31.6908 44.5172C31.9275 44.3278 32.5133 43.8426 32.9926 43.4343C34.0755 42.523 34.5726 42.1502 35.0874 41.8602C35.4661 41.6472 35.5194 41.6354 36.0223 41.6354C36.4839 41.6354 36.5963 41.6531 36.8508 41.7833C37.478 42.1147 37.5905 42.736 37.1171 43.3041C37.0165 43.4224 36.9396 43.5526 36.9396 43.5881C36.9396 43.8426 39.9101 43.9136 41.5552 43.7006C41.6676 43.6887 42.0108 43.6118 42.3126 43.5349C42.9339 43.3692 42.9339 43.3692 42.7623 43.8662C42.715 44.0142 42.6795 44.1917 42.6913 44.2568C42.7091 44.3751 42.7327 44.3692 43.2121 44.1503C44.2239 43.7006 45.4844 42.736 45.94 42.0733C46.0524 41.9135 46.1708 41.7774 46.2063 41.7774C46.2418 41.7774 46.3897 41.8839 46.5377 42.0141L46.8039 42.2449L46.9282 42.1147C47.1472 41.878 47.4785 41.2981 47.5969 40.9608C47.8454 40.2388 47.9519 39.1974 47.8277 38.6707L47.7744 38.4399L48.2656 37.9547C48.8218 37.4044 49.2538 36.7949 49.6384 36.0079C50.3189 34.6054 50.3958 32.9722 49.8337 31.7946C49.6621 31.4396 49.6562 31.4041 49.7449 31.2739C49.8633 31.0905 49.8692 30.6289 49.7508 30.2975C49.6562 30.0312 49.0171 29.1318 48.7449 28.8773C48.6561 28.7945 48.4312 28.5459 48.2478 28.3152C48.0644 28.0903 47.4726 27.4631 46.9282 26.9305C46.3779 26.392 45.9341 25.9363 45.9341 25.9127C45.9341 25.889 46.0702 25.7056 46.2359 25.5103C46.5317 25.1493 46.6915 24.8002 46.6087 24.6582C46.301 24.1374 45.5139 23.1492 44.9755 22.5989C43.3482 20.942 42.4665 20.3503 40.4072 19.5573C39.8154 19.3325 38.1585 18.8532 37.5017 18.7289C37.3715 18.6993 37.2413 18.6756 37.2058 18.6638C37.1763 18.652 36.9573 18.6105 36.7206 18.5632C36.3715 18.4922 36.2354 18.433 36.0046 18.2377C35.8448 18.1016 35.6791 17.9478 35.6318 17.8945C35.5194 17.7525 34.6672 17.2081 33.9216 16.7939C31.7736 15.5986 30.2528 15.1429 28.3415 15.1252L27.6373 15.1192L27.4598 15.3204C27.2823 15.5216 27.2763 15.5335 27.3119 15.9714C27.3414 16.3501 27.513 17.1193 27.6728 17.6046C27.7142 17.717 27.6787 17.7348 27.2527 17.7998C26.9982 17.8354 26.7201 17.8827 26.6313 17.9004C26.5367 17.9182 26.4065 17.9419 26.3355 17.9537C25.1875 18.1608 24.1815 18.4744 23.1282 18.9656L22.5483 19.2319L22.1637 19.0543C21.2228 18.6105 19.986 18.2259 19.0807 18.1076C18.4238 18.0188 17.2167 18.0602 16.5835 18.1904C15.9267 18.3324 14.7136 18.7407 14.3053 18.9538L13.9502 19.1431L13.9621 19.439C13.968 19.6047 13.9976 19.8295 14.0331 19.942C14.3467 21.0249 14.5775 21.6166 15.045 22.5516C15.6367 23.7291 15.903 24.167 16.5184 24.9777C16.7492 25.2795 16.9386 25.5635 16.9386 25.605C16.9386 25.6405 16.8735 25.7115 16.7965 25.7529C16.7196 25.7943 16.4711 25.9719 16.2521 26.1435C15.6071 26.6464 14.3585 27.2145 12.5301 27.8418C12.0093 28.0193 11.4649 28.1613 11.4353 28.1258C11.4176 28.1081 11.4353 28.0785 11.4767 28.0666C11.5182 28.0548 11.9679 27.8003 12.4827 27.5045C13.4473 26.9542 14.8615 26.0192 15.3527 25.6109L15.6308 25.3801L15.329 24.9836C15.1633 24.7647 14.9385 24.4807 14.8319 24.3505C14.4118 23.8238 13.7609 22.7705 13.4118 22.0427C12.4886 20.1017 12.0034 18.652 12.1928 18.3679C12.3466 18.1253 14.4118 17.3501 15.4 17.1667C15.5775 17.1312 15.7906 17.0898 15.8734 17.072C16.5362 16.9241 18.5185 16.8708 19.2168 16.9832C19.4121 17.0128 19.6665 17.0483 19.7789 17.0602C20.0156 17.0898 21.0275 17.3028 21.4654 17.4152C21.7554 17.4921 21.7672 17.4921 22.4714 17.2081C23.1341 16.9418 24.1105 16.6696 24.9863 16.5039C25.6846 16.3737 25.726 16.3619 25.7201 16.2376C25.7141 16.1785 25.655 15.9003 25.578 15.6281C25.4183 15.0186 25.4005 14.2139 25.5425 13.989C25.6609 13.8174 25.7319 13.7996 26.5663 13.7346C27.3296 13.6754 29.2173 13.7523 30.0931 13.8766C30.2114 13.8943 30.4067 13.918 30.5191 13.9357C32.466 14.208 34.7678 15.2553 36.904 16.8412C37.5727 17.3324 37.6023 17.3501 38.0757 17.427C38.9337 17.5631 41.3066 18.2496 41.7978 18.4922C42.715 18.9597 44.5257 20.2378 45.508 21.1136C46.4252 21.9302 47.3839 23.0013 47.9756 23.8771C48.3662 24.4511 48.3662 24.457 48.3307 24.7588C48.2892 25.0724 48.0111 25.5872 47.8513 25.6464C47.7152 25.6997 47.8218 25.8417 48.4431 26.4985C49.7568 27.8773 50.816 29.3803 51.2539 30.4869C51.4847 31.0549 51.4847 31.2916 51.2657 31.7591L51.0882 32.126L51.2125 32.5521C51.313 32.9249 51.3249 33.0965 51.3012 33.8421C51.2716 34.7356 51.2657 34.7829 51.1059 35.3274C50.8041 36.357 50.7036 36.5878 50.3307 37.144C49.8574 37.8482 49.6266 38.1381 49.1946 38.576L48.8632 38.9074L48.8514 39.5287C48.8396 40.1382 48.8336 40.2152 48.7212 40.6826C48.4312 41.9135 48.1295 42.5171 47.4075 43.2745C47.1117 43.5822 46.8335 43.884 46.7921 43.9491C46.7152 44.0497 46.6915 44.0378 46.3956 43.7479L46.082 43.4402L45.5494 43.8367C44.5376 44.6 43.9221 44.9373 43.0168 45.245C42.3304 45.4758 42.0759 45.529 41.6321 45.5527C40.8687 45.5882 40.8628 45.5823 41.1114 45.1562C41.2238 44.961 41.3185 44.7834 41.3185 44.7539C41.3185 44.7302 40.7267 44.7065 40.0048 44.7065C38.8391 44.7065 38.3183 44.6828 37.6792 44.5882C37.5846 44.5763 37.407 44.5527 37.2946 44.5349C36.5076 44.4284 35.2235 44.1207 35.2235 44.0378C35.2235 44.0083 35.3123 43.9017 35.4247 43.7952C35.7087 43.5171 35.8507 43.1798 35.7679 42.9905C35.62 42.6709 35.2886 42.8011 33.2352 44.0083C32.6849 44.3337 32.0754 44.7124 31.8801 44.8485C31.241 45.2983 29.957 46.4522 28.5664 47.825C27.8208 48.5647 27.1994 49.1742 27.1876 49.1742C27.1817 49.1742 27.1994 49.1269 27.229 49.0736Z" fill="white"/>
<path d="M27.229 49.0736C27.3414 48.8665 28.3178 47.7126 28.7912 47.2274C29.5368 46.464 31.2233 44.89 31.6908 44.5172C31.9275 44.3278 32.5133 43.8426 32.9926 43.4343C34.0755 42.523 34.5726 42.1502 35.0874 41.8602C35.4661 41.6472 35.5194 41.6354 36.0223 41.6354C36.4839 41.6354 36.5963 41.6531 36.8508 41.7833C37.478 42.1147 37.5905 42.736 37.1171 43.3041C37.0165 43.4224 36.9396 43.5526 36.9396 43.5881C36.9396 43.8426 39.9101 43.9136 41.5552 43.7006C41.6676 43.6887 42.0108 43.6118 42.3126 43.5349C42.9339 43.3692 42.9339 43.3692 42.7623 43.8662C42.715 44.0142 42.6795 44.1917 42.6913 44.2568C42.7091 44.3751 42.7327 44.3692 43.2121 44.1503C44.2239 43.7006 45.4844 42.736 45.94 42.0733C46.0524 41.9135 46.1708 41.7774 46.2063 41.7774C46.2418 41.7774 46.3897 41.8839 46.5377 42.0141L46.8039 42.2449L46.9282 42.1147C47.1472 41.878 47.4785 41.2981 47.5969 40.9608C47.8454 40.2388 47.9519 39.1974 47.8277 38.6707L47.7744 38.4399L48.2656 37.9547C48.8218 37.4044 49.2538 36.7949 49.6384 36.0079C50.3189 34.6054 50.3958 32.9722 49.8337 31.7946C49.6621 31.4396 49.6562 31.4041 49.7449 31.2739C49.8633 31.0905 49.8692 30.6289 49.7508 30.2975C49.6562 30.0312 49.0171 29.1318 48.7449 28.8773C48.6561 28.7945 48.4312 28.5459 48.2478 28.3152C48.0644 28.0903 47.4726 27.4631 46.9282 26.9305C46.3779 26.392 45.9341 25.9363 45.9341 25.9127C45.9341 25.889 46.0702 25.7056 46.2359 25.5103C46.5317 25.1493 46.6915 24.8002 46.6087 24.6582C46.301 24.1374 45.5139 23.1492 44.9755 22.5989C43.3482 20.942 42.4665 20.3503 40.4072 19.5573C39.8154 19.3325 38.1585 18.8532 37.5017 18.7289C37.3715 18.6993 37.2413 18.6756 37.2058 18.6638C37.1763 18.652 36.9573 18.6105 36.7206 18.5632C36.3715 18.4922 36.2354 18.433 36.0046 18.2377C35.8448 18.1016 35.6791 17.9478 35.6318 17.8945C35.5194 17.7525 34.6672 17.2081 33.9216 16.7939C31.7736 15.5986 30.2528 15.1429 28.3415 15.1252L27.6373 15.1192L27.4598 15.3204C27.2823 15.5216 27.2763 15.5335 27.3119 15.9714C27.3414 16.3501 27.513 17.1193 27.6728 17.6046C27.7142 17.717 27.6787 17.7348 27.2527 17.7998C26.9982 17.8354 26.7201 17.8827 26.6313 17.9004C26.5367 17.9182 26.4065 17.9419 26.3355 17.9537C25.1875 18.1608 24.1815 18.4744 23.1282 18.9656L22.5483 19.2319L22.1637 19.0543C21.2228 18.6105 19.986 18.2259 19.0807 18.1076C18.4238 18.0188 17.2167 18.0602 16.5835 18.1904C15.9267 18.3324 14.7136 18.7407 14.3053 18.9538L13.9502 19.1431L13.9621 19.439C13.968 19.6047 13.9976 19.8295 14.0331 19.942C14.3467 21.0249 14.5775 21.6166 15.045 22.5516C15.6367 23.7291 15.903 24.167 16.5184 24.9777C16.7492 25.2795 16.9386 25.5635 16.9386 25.605C16.9386 25.6405 16.8735 25.7115 16.7965 25.7529C16.7196 25.7943 16.4711 25.9719 16.2521 26.1435C15.6071 26.6464 14.3585 27.2145 12.5301 27.8418C12.0093 28.0193 11.4649 28.1613 11.4353 28.1258C11.4176 28.1081 11.4353 28.0785 11.4767 28.0666C11.5182 28.0548 11.9679 27.8003 12.4827 27.5045C13.4473 26.9542 14.8615 26.0192 15.3527 25.6109L15.6308 25.3801L15.329 24.9836C15.1633 24.7647 14.9385 24.4807 14.8319 24.3505C14.4118 23.8238 13.7609 22.7705 13.4118 22.0427C12.4886 20.1017 12.0034 18.652 12.1928 18.3679C12.3466 18.1253 14.4118 17.3501 15.4 17.1667C15.5775 17.1312 15.7906 17.0898 15.8734 17.072C16.5362 16.9241 18.5185 16.8708 19.2168 16.9832C19.4121 17.0128 19.6665 17.0483 19.7789 17.0602C20.0156 17.0898 21.0275 17.3028 21.4654 17.4152C21.7554 17.4921 21.7672 17.4921 22.4714 17.2081C23.1341 16.9418 24.1105 16.6696 24.9863 16.5039C25.6846 16.3737 25.726 16.3619 25.7201 16.2376C25.7141 16.1785 25.655 15.9003 25.578 15.6281C25.4183 15.0186 25.4005 14.2139 25.5425 13.989C25.6609 13.8174 25.7319 13.7996 26.5663 13.7346C27.3296 13.6754 29.2173 13.7523 30.0931 13.8766C30.2114 13.8943 30.4067 13.918 30.5191 13.9357C32.466 14.208 34.7678 15.2553 36.904 16.8412C37.5727 17.3324 37.6023 17.3501 38.0757 17.427C38.9337 17.5631 41.3066 18.2496 41.7978 18.4922C42.715 18.9597 44.5257 20.2378 45.508 21.1136C46.4252 21.9302 47.3839 23.0013 47.9756 23.8771C48.3662 24.4511 48.3662 24.457 48.3307 24.7588C48.2892 25.0724 48.0111 25.5872 47.8513 25.6464C47.7152 25.6997 47.8218 25.8417 48.4431 26.4985C49.7568 27.8773 50.816 29.3803 51.2539 30.4869C51.4847 31.0549 51.4847 31.2916 51.2657 31.7591L51.0882 32.126L51.2125 32.5521C51.313 32.9249 51.3249 33.0965 51.3012 33.8421C51.2716 34.7356 51.2657 34.7829 51.1059 35.3274C50.8041 36.357 50.7036 36.5878 50.3307 37.144C49.8574 37.8482 49.6266 38.1381 49.1946 38.576L48.8632 38.9074L48.8514 39.5287C48.8396 40.1382 48.8336 40.2152 48.7212 40.6826C48.4312 41.9135 48.1295 42.5171 47.4075 43.2745C47.1117 43.5822 46.8335 43.884 46.7921 43.9491C46.7152 44.0497 46.6915 44.0378 46.3956 43.7479L46.082 43.4402L45.5494 43.8367C44.5376 44.6 43.9221 44.9373 43.0168 45.245C42.3304 45.4758 42.0759 45.529 41.6321 45.5527C40.8687 45.5882 40.8628 45.5823 41.1114 45.1562C41.2238 44.961 41.3185 44.7834 41.3185 44.7539C41.3185 44.7302 40.7267 44.7065 40.0048 44.7065C38.8391 44.7065 38.3183 44.6828 37.6792 44.5882C37.5846 44.5763 37.407 44.5527 37.2946 44.5349C36.5076 44.4284 35.2235 44.1207 35.2235 44.0378C35.2235 44.0083 35.3123 43.9017 35.4247 43.7952C35.7087 43.5171 35.8507 43.1798 35.7679 42.9905C35.62 42.6709 35.2886 42.8011 33.2352 44.0083C32.6849 44.3337 32.0754 44.7124 31.8801 44.8485C31.241 45.2983 29.957 46.4522 28.5664 47.825C27.8208 48.5647 27.1994 49.1742 27.1876 49.1742C27.1817 49.1742 27.1994 49.1269 27.229 49.0736Z" stroke="white" stroke-width="0.64" mask="url(#path-3-outside-1)"/>
</svg>
