<svg viewBox="0 0 120 120" xmlns="http://www.w3.org/2000/svg" xml:space="preserve" style="fill-rule:evenodd;clip-rule:evenodd;stroke-linejoin:round;stroke-miterlimit:2"><path d="M512 256C512 114.71 397.29 0 256 0 114.71 0 0 114.71 0 256c0 141.29 114.71 256 256 256 141.29 0 256-114.71 256-256z" style="fill:#639" transform="matrix(.23437 0 0 .23437 0 0)"/><path d="M98.64 337.43c-32.39-32.38-49.35-75.57-49.35-117.21l168.1 166.57c-43.18-1.55-86.39-16.97-118.75-49.36zM256 382.16l-202-202c17-75.57 84.82-132.63 165-132.63 57.06 0 106.41 27.76 137.26 69.4l-23.14 20C306.9 101.46 265.26 78.32 219 78.32c-60.15 0-111 38.56-131.1 92.54l177.3 177.37c44.73-15.42 78.66-54 89.45-100.25h-74v-30.84h108c-.07 80.19-57.13 148.05-132.65 165.02z" style="fill:#fff" transform="matrix(.23437 0 0 .23437 9.067 8.06)"/></svg>