<svg viewBox="0 0 345 387" xmlns="http://www.w3.org/2000/svg" xml:space="preserve" style="fill-rule:evenodd;clip-rule:evenodd;stroke-linejoin:round;stroke-miterlimit:2"><path d="M335.1 261.86V139.606a44.842 44.842 0 0 0-22.126-38.66c-29.417-17.283-81.387-47.818-113.215-66.52a52.628 52.628 0 0 0-54.28.58c-28.17 17.37-72.12 44.47-100.49 61.967a57.93 57.93 0 0 0-27.53 49.31v125.172a56.106 56.106 0 0 0 27.79 48.437l104.72 61.212a45.598 45.598 0 0 0 45.2.47c30.58-17.036 84.74-47.196 115.94-64.575a46.708 46.708 0 0 0 23.97-40.8v-14.34l.021.001z" style="fill:#ff4088" transform="translate(-3.8 -13.676)"/><path d="M173.24 13.676h.277l.247.003h1.414l.247.01h.03l.247.01h.027l.25.01h.02l.25.01h.03l.24.01h.03l.24.01h.02l.25.01h.03l.25.02h.03l.24.02h.02l.24.02h.03l.25.02h.02l.24.02h.03l.25.02h.03l.25.02h.03l.25.02h.03l.24.02h.03l.24.02h.03l.25.02h.03l.25.03h.03l.25.03h.02l.24.03h.03l.24.03h.03l.25.03h.03l.25.03h.02l.24.03h.03l.25.03h.03l.24.04.03.01.25.04h.03l.24.04h.02l.25.04h.03l.24.04h.03l.24.04h.02l.25.04h.03l.24.04.03.01.24.04.03.01.24.05h.03l.24.04h.03l.24.05h.03l.25.05h.02l.24.05h.03l.24.05h.02l.25.05.03.01.25.05h.02l.24.06.03.01.24.06h.03l.25.06.02.01.24.05.03.01.24.05.02.01.24.06h.03l.24.06.03.01.24.06.02.01.25.06.02.01.24.06.03.01.24.06h.02l.24.07h.03l.25.06.03.01.24.06h.03l.24.07.03.01.24.07.03.01.24.07.03.01.24.07.02.01.24.07.03.01.24.07.03.01.24.07.27.09.02.01.24.08h.03l.24.08h.03l.78.26.02.01.51.17.02.01.24.08.02.01.23.08.03.01.23.08.03.01.23.09.03.01.24.09.03.01.23.09.02.01.24.08.02.01.24.09.03.01.24.09.03.01.23.09.03.01.23.1.02.01.24.09.03.01.23.1.03.01.24.1.03.01.24.1.02.01.24.1.02.01.23.1.02.01.23.1.02.01.24.1.02.01.23.1.03.01.23.1.03.01.23.1.02.01.23.11.03.01.23.11.03.01.23.11.02.01.23.11.02.01.23.11.03.01.23.11.03.01.23.11.03.01.23.11.02.01.23.12.02.02.23.11.02.01.22.12.03.01.23.11.02.01.23.12.03.01.22.12.03.02.23.12.03.01.23.12.02.01.22.12.03.02.23.12.02.02.22.13.02.02.22.13.03.01.22.13.02.01.22.13.02.02.22.13.03.02.21.13h.02l113.3 66.57.19.11.02.02.19.11.03.01.18.12.02.02.18.11.02.02.18.11.02.01.18.11.02.01.18.11.02.01.18.11.03.01.18.12.02.01.18.12.03.01.18.11.02.01.18.12.02.02.18.12.02.02.17.11.03.01.18.12.02.01.18.12.02.01.17.12.02.01.17.12.02.01.17.12.02.02.17.12.02.01.17.13.03.02.17.12.02.01.17.12.02.01.17.12.02.02.17.12.02.01.17.12.02.02.17.12.02.02.17.13.03.02.16.13.03.02.17.13.03.01.17.13.02.02.17.13.02.02.16.13.03.02.17.14.03.03.32.26.04.03.32.27.04.03.33.27.04.03.33.27.04.03.32.27.04.04.32.27.04.03.31.28.04.03.31.28.04.03.31.29.04.03.3.28.04.03.31.29.04.04.3.29.04.04.3.29.37.37.29.3.04.04.29.3.03.04.29.3.04.04.28.3.04.04.28.3.04.04.28.3.04.04.28.31.04.04.27.32.03.04.28.31.04.04.27.32.04.04.27.32.03.04.27.32.04.04.26.32.03.04.26.32.04.04.26.33.03.04.25.33.03.04.25.33.03.04.25.33.03.05.25.34.03.04.25.33.03.05.24.34.03.04.24.34.03.04.24.34.03.05.23.34.03.05.23.35.03.05.22.34.03.04.22.34.03.04.23.35.03.04.22.35.27.45.22.35.27.45.21.36.03.04.2.36.03.05.2.36.03.05.2.36.03.05.2.36.02.05.2.37.02.05.19.37.02.05.19.37.03.04.18.38.02.05.19.37.02.05.18.37.03.05.17.38.02.05.17.38.02.05.17.38.02.05.17.38.02.05.16.38.02.05.16.38.02.05.15.39.02.05.15.38.02.05.15.39.02.05.15.39.02.05.15.39.02.05.14.39.02.05.13.39.02.05.13.39.02.05.13.39.02.05.13.4.01.05.12.39.02.05.12.4.01.05.12.4.02.05.12.4.02.05.11.4.02.05.11.4.01.05.1.4.02.06.11.41.01.05.1.41.02.05.09.41.02.05.1.41.01.06.09.41.01.05.09.41.01.05.08.41.01.05.08.41.01.05.08.41.01.05.07.42.01.05.07.41.09.54.06.42.01.06.06.41v.04l.03.22v.02l.02.21v.03l.03.21v.02l.03.21v.03l.03.21.01.03.03.21v.03l.02.21.01.02.02.21.01.03.02.21v.03l.02.21.01.03.02.21.01.03.02.21v.03l.02.21v.03l.02.21v.03l.02.21v.03l.02.21v.03l.01.21v.03l.01.22v.03l.02.22v.02l.01.21v.03l.01.21v.03l.01.21v.03l.01.21v.03l.01.22v.03l.01.21v.03l.01.21v.02l.01.21v139.6l-.01.23v.29l-.01.23v.03l-.01.22v.02l-.01.23v.03l-.01.22v.02l-.01.22v.03l-.01.22-.01.03-.01.22v.03l-.01.22v.02l-.01.23v.03l-.02.23v.02l-.02.23v.03l-.02.22v.03l-.01.22v.03l-.02.22v.03l-.02.22v.03l-.02.22v.03l-.02.22-.01.02-.02.23-.01.03-.02.22v.03l-.02.22-.01.03-.03.22v.03l-.03.22v.02l-.03.22v.03l-.03.22-.01.03-.03.23-.01.03-.03.22-.01.03-.03.22v.03l-.03.22v.03l-.03.22-.01.03-.03.22-.01.03-.04.22v.02l-.03.22v.02l-.04.22-.01.03-.03.22-.01.03-.03.22v.02l-.04.22v.02l-.04.22v.02l-.04.22v.03l-.04.21-.01.03-.04.21-.01.03-.04.22-.01.03-.05.22v.02l-.05.22v.02l-.04.21v.03l-.05.22v.02l-.04.22-.01.02-.05.21v.02l-.05.21v.03l-.05.21-.01.03-.05.21-.01.03-.05.21-.01.02-.05.21-.01.02-.05.21-.01.03-.06.21-.01.03-.05.21-.01.03-.06.21v.03l-.06.22-.01.03-.06.21v.03l-.06.21-.01.03-.06.21-.01.03-.06.22-.01.02-.06.21-.01.02-.06.21-.09.27-.06.21-.01.02-.06.21-.01.03-.06.21-.01.02-.39 1.17-.01.02-.23.69-.01.02-.16.48-.08.2-.01.03-.07.2-.01.03-.07.2-.09.27-.08.21-.01.03-.08.2-.01.03-.08.2-.01.03-.08.2-.01.03-.08.2-.01.03-.08.2-.01.03-.08.2-.01.02-.09.2-.01.03-.09.21-.01.03-.08.2-.01.03-.09.2-.01.03-.09.2-.01.03-.09.2-.01.02-.09.2-.01.03-.09.2-.01.02-.09.2-.01.02-.09.2-.01.02-.09.2-.12.24-.1.19-.01.03-.09.2-.01.02-.1.19-.01.03-.09.2-.11.22-.01.03-.11.22-.1.19-.11.22-.01.03-.1.2-.01.03-.1.2-.02.03-.1.19-.11.22-.01.03-.1.2-.01.03-.11.19-.02.02-.11.19-.01.02-.11.19-.01.02-.11.19-.01.02-.11.19-.01.02-.11.19-.01.03-.11.19-.01.02-.11.19-.01.03-.11.19-.02.02-.11.19-.02.02-.11.19-.01.02-.11.19-.01.03-.12.19-.01.02-.11.18-.01.03-.11.18-.02.02-.12.19-.01.03-.12.18-.02.02-.12.18-.01.02-.12.19-.14.21-.02.02-.12.18-.01.02-.12.19-.01.02-.12.18-.02.02-.13.18-.01.02-.12.18-.01.02-.13.18-.01.02-.12.18-.02.02-.12.18-.02.02-.13.18-.02.02-.12.18-.01.02-.13.18-.14.21-.02.02-.13.18-.02.02-.13.18-.02.02-.13.18-.02.02-.13.18-.01.02-.13.17-.02.02-.13.17-.01.02-.14.17-.02.02-.13.17-.01.02-.13.18-.02.02-.14.18-.02.02-.14.17-.02.02-.14.17-.01.02-.14.17-.02.02-.14.17-.02.02-.14.17-.02.02-.14.17-.02.02-.14.17-.01.02-.14.17-.02.02-.15.17-.02.02-.14.17-.02.02-.14.17-.02.02-.14.17-.02.02-.14.17-.02.02-.14.16-.02.02-.15.17-.02.02-.14.17-.02.02-.15.17-.02.02-.14.17-.02.02-.15.16-.02.02-.15.16-.02.02-.15.16-.02.02-.15.16-.02.02-.15.16-.02.02-.15.16-.02.02-.15.16-.02.02-.15.16-.2.2-.15.16-.35.35-.03.02-.18.18-.16.15-.2.2-.16.15-.02.02-.16.15-.02.02-.16.15-.02.02-.16.15-.02.02-.16.15-.02.02-.16.15-.02.02-.17.15-.02.01-.16.15-.02.02-.17.15-.02.02-.17.15-.02.01-.17.15-.02.02-.17.14-.03.02-.17.14-.02.02-.17.15-.02.02-.17.15-.02.02-.17.15-.02.02-.17.14-.02.02-.18.14-.02.01-.17.14-.02.02-.17.14-.03.02-.17.14-.02.02-.17.14-.02.02-.17.14-.02.02-.18.14-.02.02-.17.13-.02.02-.18.14-.02.02-.18.14-.02.02-.18.14-.02.02-.18.14-.02.01-.18.13-.02.01-.18.13-.02.01-.18.13-.03.01-.18.13-.02.02-.18.13-.02.02-.18.13-.02.02-.18.13-.03.02-.18.13-.02.01-.19.13-.03.01-.19.13-.02.02-.19.13-.02.02-.19.12-.02.02-.19.13-.02.02-.18.13-.03.02-.19.12-.02.01-.19.12-.03.01-.19.12-.02.02-.19.12-.02.02-.19.12-.02.01-.19.12-.03.01-.19.12-.02.02-.19.12-.03.01-.19.12-.03.02-.19.12-.03.02-.2.12-.02.02-.19.11-.03.01-.19.11-.02.02-.2.12-.03.02-.2.11-.02.02-.19.11-.03.01-.2.11-.03.01-.2.11-.02.01-.19.11-.01.01-115.93 64.6h-.01l-.18.11-.03.01-.19.11-.03.02-.19.1-.03.01-.19.1-.02.01-.19.1-.03.01-.19.1-.03.01-.19.1-.03.01-.19.1-.02.01-.19.1-.02.01-.19.09-.22.11-.02.02-.19.1-.02.01-.19.09-.02.01-.19.09-.02.01-.19.1-.02.01-.2.09-.02.01-.19.09-.02.01-.2.09-.02.01-.19.09-.02.01-.19.09-.03.02-.2.09-.02.01-.2.08-.02.01-.2.09-.02.02-.2.09-.03.01-.19.08-.02.01-.2.09-.02.01-.2.08-.02.01-.2.08-.02.01-.2.08-.03.01-.2.08-.03.01-.2.08-.03.01-.19.08-.02.01-.2.07-.02.01-.2.08-.03.01-.2.08-.03.01-.2.08-.03.01-.2.07-.03.01-.2.08-.03.01-.2.07-.02.01-.2.07-.03.01-.2.07-.03.01-.2.07-.03.01-.2.07-.02.01-.4.14-.03.01-.21.06-.03.01-.2.06-.02.01-.2.07-.02.01-.21.06-.03.01-.2.06-.03.01-.2.06-.24.08-.04.01-.4.12-.05.02-.41.12-.05.01-.41.12-.05.01-.41.11-.05.02-.41.11-.05.01-.41.11-.06.01-.41.1-.05.01-.41.1-.06.01-.41.1-.05.01-.41.09-.05.01-.42.09-.06.01-.42.09-.05.01-.42.08-.05.01-.41.07-.05.01-.41.08-.05.01-.42.07-.05.01-.42.07-.05.01-.42.06-.05.01-.42.06-.05.01-.42.06-.05.01-.42.06-.06.01-.42.05-.05.01-.42.05-.05.01-.42.05-.42.04h-.05l-.42.03-.05.01-.42.03h-.05l-.42.03h-.05l-.42.03-.06.01-.42.03h-.05l-.42.02h-.05l-.42.02h-.06l-.42.01h-.05l-.42.01h-.05l-.42.01h-1.48l-.84-.02h-.06l-.42-.01H171l-.42-.02-.05-.01-.42-.02h-.05l-.42-.02-.05-.01-.42-.02h-.05l-.42-.03-.05-.01-.42-.04-.06-.01-.42-.04-.06-.01-.42-.04-.05-.01-.42-.04h-.05l-.42-.04-.05-.01-.42-.05h-.06l-.42-.05-.06-.01-.42-.06-.05-.01-.42-.06-.05-.01-.42-.06-.05-.01-.42-.06-.05-.01-.41-.07H163l-.42-.08-.054-.01-.41-.08-.05-.01-.41-.08-.05-.01-.41-.08-.06-.01-.416-.08-.05-.01-.41-.09-.06-.02-.41-.09-.05-.01-.41-.1-.056-.02-.41-.1-.05-.02-.41-.11-.05-.01-.41-.11-.05-.02-.41-.11-.05-.02-.41-.11-.05-.02-.41-.12-.06-.02-.41-.12-.05-.02-.41-.12-.05-.02-.41-.12-.05-.01-.398-.13-.04-.01-.21-.07h-.027l-.2-.06-.03-.01-.2-.07-.03-.01-.2-.07-.03-.01-.2-.07-.03-.01-.2-.07-.03-.01-.2-.07-.02-.01-.2-.07-.02-.01-.2-.07-.02-.01-.2-.08-.03-.01-.2-.08-.03-.01-.2-.08-.02-.01-.2-.08-.03-.01-.2-.08-.02-.01-.2-.08-.03-.01-.2-.08-.02-.01-.2-.08-.02-.01-.2-.08-.03-.01-.2-.08-.03-.01-.2-.08-.03-.01-.2-.08-.03-.01-.2-.08-.02-.01-.2-.09-.03-.01-.19-.09-.02-.01-.2-.09-.02-.01-.2-.09-.02-.01-.2-.08-.03-.01-.19-.09-.03-.01-.2-.09-.03-.01-.19-.09-.02-.02-.19-.09-.02-.01-.19-.09-.02-.01-.2-.09-.02-.02-.2-.1-.02-.02-.19-.09-.03-.01-.2-.09-.02-.02-.19-.1-.03-.01-.22-.11-.19-.1-.03-.01-.19-.1-.02-.01-.19-.1-.03-.02-.19-.1-.02-.01-.19-.1-.02-.01-.19-.1-.03-.02-.19-.1-.02-.01-.19-.11-.03-.02-.19-.1-.03-.01-.19-.1-.03-.01-.19-.1-.03-.01-.19-.11-.03-.01-.18-.11-.03-.01-.18-.11-.01-.01-104.8-61.17-.01-.01-.22-.13-.02-.01-.22-.13-.03-.01-.23-.13-.03-.01-.22-.14-.02-.01-.22-.14-.02-.02-.22-.14-.02-.02-.22-.14-.03-.01-.22-.13-.03-.02-.22-.14-.02-.02-.22-.14H36l-.22-.14-.03-.02-.22-.14-.02-.02-.22-.14-.028-.02-.22-.15-.03-.02-.22-.15-.02-.02-.22-.14-.02-.02-.22-.15-.02-.02-.22-.15-.02-.02-.21-.15-.03-.02-.215-.15-.02-.02-.21-.15-.025-.02-.21-.15-.027-.02-.21-.15-.02-.01-.21-.15-.02-.02-.207-.15-.02-.02-.206-.15-.03-.01-.21-.15-.02-.02-.21-.16-.02-.02-.21-.15-.026-.02-.21-.16-.026-.02-.2-.16-.02-.02-.2-.16-.02-.01-.2-.16-.02-.02-.2-.16-.02-.02-.2-.16-.02-.02-.2-.16-.02-.02-.2-.16-.02-.02-.2-.16-.02-.02-.2-.17-.02-.01-.2-.16-.02-.02-.194-.16-.02-.02-.2-.17-.02-.02-.2-.16-.02-.02-.2-.17-.02-.01-.196-.16-.02-.02-.19-.16-.02-.02-.19-.17-.02-.02-.19-.17-.02-.02-.19-.17-.02-.02-.19-.17-.02-.02-.19-.17-.02-.02-.19-.18-.02-.01-.19-.17-.03-.02-.185-.18-.02-.02-.19-.17-.02-.02-.186-.18-.42-.42-.19-.18-.02-.02-.19-.18-.02-.01-1.2-1.2-.17-.18-.22-.22-.18-.19-.02-.02-.17-.19-.02-.02-.17-.19-.02-.02-.18-.19-.02-.02-.17-.19-.02-.02-.17-.19-.02-.02-.17-.19-.02-.02-.17-.19-.02-.02-.17-.19-.01-.02-.16-.19-.02-.02-.17-.19-.02-.02-.18-.2-.02-.02-.17-.19-.02-.02-.17-.2-.02-.02-.16-.19-.01-.02-.16-.19-.02-.02-.16-.2-.02-.02-.17-.2-.02-.02-.16-.19-.02-.02-.17-.19-.02-.02-.16-.19-.02-.02-.16-.2-.02-.02-.16-.2-.02-.02-.16-.2-.02-.02-.16-.2-.02-.02-.16-.2-.01-.02-.15-.2-.02-.02-.15-.2-.01-.02-.15-.2-.02-.02-.15-.21-.02-.02-.15-.2-.02-.02-.15-.2-.01-.02-.15-.21-.01-.02-.15-.21-.01-.02-.15-.2-.01-.02-.15-.2-.02-.02-.15-.21-.02-.02-.15-.21-.16-.24-.02-.02-.14-.21-.02-.02-.14-.21-.02-.02-.14-.21-.01-.02-.3-.45-.02-.02-.14-.21-.02-.02-.14-.21-.02-.02-.14-.21-.02-.02-.13-.21-.01-.02-.13-.21-.32-.48-.01-.02-.14-.22-.01-.03-.13-.21-.02-.02-.13-.21-.02-.02-.13-.22-.02-.03-.13-.21-.01-.02-.13-.22-.01-.02-.13-.21-.02-.03-.13-.22-.02-.03-.13-.22-.02-.03-.12-.22-.02-.02-.13-.22-.01-.02-.12-.22-.01-.02-.12-.22-.01-.03-.12-.22-.02-.03-.12-.22-.01-.03-.12-.23-.01-.02-.12-.22-.01-.03-.12-.22-.01-.03-.12-.22-.01-.03-.11-.23-.01-.02-.12-.23-.01-.03-.12-.23-.02-.02-.11-.23-.12-.24-.01-.03-.11-.23v.01l-.11-.23-.02-.03-.11-.23-.01-.03-.11-.22-.01-.03-.11-.23-.01-.02-.11-.23-.01-.02-.1-.23-.01-.02-.11-.23-.01-.02-.11-.23-.01-.02-.11-.23-.01-.03-.1-.23-.01-.02-.11-.23-.01-.03-.11-.23-.01-.02-.1-.23-.01-.02-.1-.23-.01-.03-.1-.23-.01-.02-.09-.23-.01-.02-.1-.23-.01-.03-.09-.24-.01-.02-.1-.23-.01-.03-.09-.22-.01-.03-.1-.24-.01-.02-.09-.24-.01-.03-.09-.24-.01-.02-.09-.24-.01-.03-.09-.24-.01-.02-.09-.24-.01-.02-.09-.27-.09-.24-.01-.02-.18-.54-.09-.24-.09-.27-.01-.02-.08-.24-.01-.02-.44-1.32L7 292l-.07-.24-.01-.02-.08-.25-.01-.03-.07-.25-.01-.03-.07-.24-.01-.03-.07-.24-.01-.03-.07-.25-.01-.03-.07-.25-.01-.02-.07-.25-.01-.01-.07-.25-.01-.02-.06-.24-.01-.02-.06-.24v-.02l-.07-.25v-.03l-.06-.24-.01-.03-.06-.24-.01-.03-.06-.25h.01l-.06-.25-.01-.02-.06-.25-.01-.02-.06-.25-.01-.02-.06-.25.01-.01-.06-.25-.01-.03-.06-.25-.01-.03-.05-.25-.01-.03-.06-.25-.01-.02-.05-.25-.01-.03-.05-.25-.01-.03-.1-.5v-.03l-.05-.26v-.03l-.05-.25-.01-.03-.06-.24v-.03l-.05-.27-.01-.03-.05-.26-.01-.03-.04-.25-.01-.03-.04-.25v-.03l-.04-.25v-.03l-.04-.25-.01-.03-.04-.25v.01l-.04-.25v-.02l-.04-.25v-.03l-.04-.25v-.03l-.04-.25v-.02l-.03-.26v-.03l-.03-.25v-.02l-.04-.26-.01-.03-.03-.25v-.03l-.03-.26-.01-.03-.03-.26v-.03l-.03-.26-.01-.03-.03-.26v-.03l-.03-.26-.01-.02-.03-.26-.02-.26v-.03l-.03-.26-.01-.03-.03-.26v-.03l-.02-.26-.01-.03-.02-.26v-.03l-.02-.26v-.03l-.04-.52v-.03l-.02-.26v-.03l-.02-.26v-.323l-.01-.26v-.03l-.01-.26v-.03l-.01-.26-.01-.03-.01-.26v-.28l-.01-.26v-.03l-.01-.26v-126.6l.01-.25v-.32l.01-.26v-.92l.01-.26v-.02l.01-.26v-.03l.01-.26v-.03l.01-.26v-.02l.01-.26v-.03l.01-.26v-.03l.02-.27v-.03l.02-.26v-.02l.01-.26v-.03l.02-.26v-.03l.01-.26v-.03l.01-.26v-.03l.02-.26v-.03l.02-.26v-.03l.03-.26v-.03l.02-.26.01-.02.02-.26v-.02l.03-.26v-.02l.03-.26.01-.03.03-.26v-.03l.03-.26v-.02l.03-.26v-.02l.03-.26.01-.03.03-.26v-.03l.03-.25v-.03l.03-.26v-.03l.03-.26.01-.03.03-.25v-.03l.04-.26v-.03l.03-.26.01-.03.03-.25.01-.03.04-.26.01-.02.04-.26v-.02l.04-.26v-.02l.04-.25.01-.03.04-.25v-.03l.07-.26.01-.03.04-.25v-.03l.05-.25v-.02l.05-.25v-.02l.05-.26.01-.02.05-.25.01-.02.05-.25.01-.03.05-.25.01-.03.05-.25v-.03l.05-.25v-.02l.05-.25.01-.02.05-.25.01-.02.06-.25v-.03l.06-.25.01-.03.05-.25.01-.03.06-.25v-.03l.06-.25.01-.03.06-.25v-.03l.06-.25.01-.02.06-.25v-.02l.06-.25.01-.03.07-.25v-.02l.07-.25v-.02l.07-.25.01-.03.07-.25v-.03l.07-.25.01-.03.07-.24.01-.02.07-.25.01-.025.07-.25.01-.03.07-.244.01-.02.08-.25.01-.02.07-.24.01-.02.07-.243.01-.02.07-.248.01-.03.08-.244.09-.27v-.02l.08-.24v-.03l.08-.24.01-.02.35-1.05.01-.02.09-.24.01-.02.08-.24.01-.025.08-.24.01-.02.09-.24.01-.02.09-.24v-.02l.09-.24.01-.02.09-.24.01-.03.09-.24.01-.02.09-.24.01-.03.1-.23.01-.02.1-.24.01-.02.1-.24.01-.03.1-.24.01-.03.1-.24.01-.03.1-.24.01-.03.1-.24.01-.03.1-.24.01-.025.1-.23.01-.03.1-.23.01-.03.1-.24.01-.02.11-.24.01-.02.11-.23.01-.02.1-.23.01-.03.11-.23.01-.02.11-.23.01-.02.11-.23.01-.02.11-.23.01-.03.11-.23.01-.02.11-.23.01-.03.11-.23.01-.02.11-.23.01-.02.11-.23.01-.02.11-.23.01-.02.12-.22.01-.02.12-.23.02-.03.12-.23.01-.02.12-.23.01-.03.12-.22.01-.02.12-.22.01-.02.12-.22.01-.03.12-.22.02-.02.12-.22.01-.03.12-.22.02-.02.12-.22.01-.02.12-.22.02-.03.13-.22.01-.02.12-.22.01-.02.13-.22.01-.02.13-.22.01-.02.13-.22.02-.02.13-.22.01-.02.13-.22.02-.02.13-.22.01-.02.13-.22.02-.02.13-.22.01-.02.14-.22.02-.03.14-.22.01-.02.13-.21.02-.02.14-.21.02-.02.13-.22.01-.02.14-.21.01-.02.14-.21.02-.02.14-.22.02-.02.14-.21.01-.03.14-.21.01-.02.14-.21.01-.02.15-.21.02-.02.14-.21.02-.02.15-.21.01-.02.15-.21.01-.02.15-.21.01-.02.15-.21.02-.02.15-.21.01-.02.15-.21.02-.02.15-.2.01-.02.15-.21.02-.02.15-.2.02-.02.15-.2.02-.02.15-.2.02-.02.15-.2.01-.02.15-.2.02-.02.16-.2.02-.02.16-.2.02-.02.16-.2.02-.02.16-.2.02-.02.16-.2.02-.03.16-.2.01-.02.16-.2.02-.02.16-.2.02-.02.16-.19.02-.02.16-.2.02-.02.16-.2.02-.02.17-.19.02-.02.16-.2.02-.02.16-.19.02-.02.16-.2.02-.02.17-.2.01-.02.17-.19.02-.02.17-.19.02-.02.17-.19.02-.02.17-.19.01-.02.17-.19.02-.02.17-.19.02-.02.17-.19.01-.02.17-.19.02-.02.18-.19.01-.02.18-.19.02-.02.19-.18.02-.02.18-.19.02-.02.18-.19.62-.62.19-.18 1.42-1.42.19-.17.02-.02.19-.17.02-.02.19-.18.02-.02.19-.18.02-.01.19-.17.02-.01.19-.17.02-.02.19-.17.02-.02.19-.17.02-.02.19-.17.02-.01.2-.17.02-.02.2-.17.02-.02.2-.17.02-.02.2-.16.02-.02.2-.16.02-.02.19-.16.02-.02.2-.16.02-.02.2-.16.02-.01.2-.16.02-.02.2-.16.02-.02.2-.16.02-.02.21-.16.02-.02.2-.16.02-.02.21-.16.02-.02.21-.16.02-.02.2-.16.02-.01.21-.16.02-.02.2-.16.02-.02.21-.15.02-.02.21-.16.02-.02.21-.15.02-.01.21-.15.03-.02.21-.15.02-.01.21-.15.02-.02.21-.16.02-.01.22-.15.02-.02.21-.15.03-.01.21-.15.02-.01.21-.15.02-.01.22-.15.02-.02.21-.15.02-.01.22-.14.02-.01.21-.15.03-.02.22-.14.02-.02.22-.15.02-.02.22-.14.03-.01.22-.14.02-.02.22-.14.02-.01.22-.14.02-.01.22-.14.02-.01.22-.14.03-.01.22-.13h.01l100.51-62 .01-.01.21-.13.02-.01.22-.14.03-.02.22-.13.03-.02.22-.13.03-.02.22-.13.03-.01.23-.13.02-.02.22-.13.03-.01.22-.13.02-.01.23-.12.02-.02.23-.12.02-.02.22-.12.03-.01.23-.12.02-.02.22-.12.03-.02.22-.12.03-.02.22-.12.02-.02.23-.12.02-.01.22-.12.03-.01.22-.12.03-.01.23-.12.03-.01.23-.12.02-.01.23-.11.03-.01.23-.11.03-.01.22-.11.03-.01.23-.11.02-.01.23-.11.03-.01.23-.11.03-.02.23-.11.03-.01.23-.11.03-.01.23-.1.03-.01.23-.1.02-.02.23-.1.02-.01.23-.1.03-.02.23-.1.03-.01.23-.1.03-.01.23-.1.03-.01.23-.1.03-.01.23-.1.03-.01.23-.09.03-.01.23-.1.03-.01.24-.1.03-.01.24-.1.03-.02.23-.09.02-.01.24-.09.03-.01.23-.09.02-.01.24-.09.3-.1.24-.09.03-.01.24-.09.57-.19.23-.08.3-.1.23-.08.27-.09.02-.01.81-.27.24-.07.02-.01.24-.07.03-.01.24-.07h.03l.24-.07.03-.01.24-.07.02-.01.24-.07.02-.01.24-.07.03-.01.24-.07.03-.01.24-.07.03-.01.24-.06.03-.01.24-.06.02-.01.24-.07.024-.01.25-.06h.02l.24-.07h.03l.247-.06.03-.01.25-.06.03-.01.24-.06h.03l.25-.06h.03l.24-.06.03-.01.24-.05.03-.01.24-.06.03-.01.24-.05h.03l.24-.05.03-.01.24-.05h.02l.24-.05.03-.01.25-.05h.02l.25-.05.02-.01.25-.05.03-.01.25-.05.03-.01.25-.04h.03l.24-.04.03-.01.25-.05.03-.01.25-.04h.03l.24-.04.03-.01.25-.04.03-.01.24-.04h.02l.24-.04h.03l.25-.04.03-.01.25-.04h.03l.25-.04h.03l.25-.04h.03l.25-.03h.03l.24-.03h.03l.25-.03.03-.01.25-.03.02-.01.25-.02h.03l.24-.03h.03l.24-.03h.03l.25-.03h.03l.25-.03h.03l.24-.02h.03l.25-.03.03-.01.25-.02.03-.01.25-.02h.03l.246-.02h.03l.25-.02h.03l.25-.01.03-.01.25-.02.02-.01.25-.01h.03l.25-.02h.02l.25-.01h.03l.25-.01h.03l.25-.01h.03l.25-.01.03-.01.25-.01h.03l.25-.01h.03l.25-.01h.03l.25-.01h.03l.25-.01h.02l.25-.01h.31l.25-.01h.58l.053-.087zm-.23 27h-.164l-.164.002h-.163l-.34.008-.17.005-.51.03-.16.01-.17.01-.48.03-.17.01-.16.01-.34.04-.16.02-.51.06-.16.02-.17.02-.32.04-.17.02-.64.08-.17.02-.16.03-.16.02-.17.03-.96.18-.16.02-.17.03-.16.03-.17.03-.48.09-.48.12-.32.06-1.6.4-.16.05-.16.04-.16.05-.15.05-.8.25-.15.05-.16.05-.16.06-.32.1-.16.06-.32.1-.15.05-.48.18-.15.06-.16.06-.3.12-.16.07-.48.18-.15.07-.15.06-.16.07-.45.21-.16.07-.15.07-.16.07-.45.21-.16.07-.3.14-.3.16-.15.07-.15.08-.15.07-.75.4-.15.09-.14.08-.15.08-.14.08-.45.27-.14.08-.15.09-.14.09-.3.18-.16.1-100.4 61.88-.17.11-.16.1-1.5 1-.15.11-.28.2-.15.1-.84.6-.14.11-.14.1-.84.66-.13.11-.28.22-.13.11-.28.22-.13.11-.14.11-.26.22-.26.24-.26.22-1.43 1.32-.12.12-.13.12-.12.13-.13.12-.12.13-.12.12-.12.13-.12.12-.24.26-.25.25-.36.39-.11.13-.36.39-.12.14-.12.13-.22.26-.12.14-.11.13-.12.13-.11.14-.11.13-.66.84-.1.14-.44.56-.3.42-.1.15-.2.28-.1.15-.4.56-.09.15-.1.15-.1.14-.1.15-.09.15-.09.14-.36.6-.2.3-.9 1.5-.09.16-.18.3-.09.16-.08.15-.24.48-.16.3-.08.16-.08.15-.08.16-.07.15-.4.8-.63 1.44-.06.16-.07.16-.07.17-.21.48-.06.16-.07.17-.07.16-.06.16-.06.17-.06.16-.06.17-.06.16-.18.51-.05.17-.06.16-.06.17-.05.17-.05.16-.05.17-.06.17-.1.32-.05.17-.06.17-.05.17-.05.16-.25.85-.08.34-.05.17-.04.17-.05.17-.08.34-.04.18-.24 1.02-.03.17-.04.17-.03.17-.12.72-.06.34-.06.36-.09.51-.03.18-.04.36-.02.17-.03.18-.03.17-.12 1.08-.02.17-.04.36-.01.18-.04.36-.1 1.8v.18l-.02.36v.18l-.01.18v126.8l.01.18v.54l.01.17.08 1.44.02.18.03.54.02.17.02.18.02.17.01.18.08.68.02.18.04.34.04.36.02.17.02.18.12.68.03.18.12.68.04.17.09.51.08.34.03.17.28 1.19.04.16.05.16.12.51.05.17.04.16.04.17.04.16.05.17.04.16.1.34.05.16.1.34.05.16.05.17.24.64.05.16.06.17.54 1.44.14.32.3.8.77 1.76.07.15.08.16.08.15.08.16.48.9.09.15.24.45.18.3.24.45.09.15.08.15.09.14.09.15.09.14.18.3.36.56.18.3.1.14.09.14.09.15.18.28.2.28.1.15.7.98.22.28.4.56.22.26.11.14.11.13.11.14 1.21 1.43.24.26.11.13.12.12.12.13.12.12.12.13.11.13.12.13.48.48.12.13.6.6.13.12.24.24.13.12.24.24.13.12.26.22.26.24.26.22.26.24.13.11.42.33.26.22.14.11.13.11.14.1.13.11.42.33.13.1.14.11.14.1.28.22.28.2.15.1.84.6.15.1.15.09.15.1.14.1.3.2.14.09.75.45.16.09.3.18.17.1 104.68 61.2.13.08.11.06.36.18.11.07.36.18.12.07.96.48.11.06.24.12.12.05.12.06.36.15.24.12.12.05.12.06 1.08.45.12.04.13.05.48.2.12.04.12.05.24.08.13.04.12.04.11.04.26.08.25.08 1.75.49.75.18.25.05.25.06.75.15.25.04.25.05.5.08.26.04.25.04.78.09.26.02.25.02.26.02.25.02.52.04.25.02.5.02.26.01h1.28l.26-.01h.26l.52-.02.52-.04.26-.01.78-.06.25-.02.52-.06.25-.03.26-.03.25-.04.26-.04.25-.04.26-.04.25-.04.25-.05.25-.04.26-.05.25-.05.25-.06.25-.05 1-.24 1-.28.26-.08.36-.12.13-.04.12-.04.13-.04.24-.08.13-.04.24-.08.13-.05.12-.04.13-.04.12-.05.36-.12.13-.05.12-.04 1.2-.5.24-.12.12-.05.24-.12.12-.05.36-.18.11-.06.96-.48.11-.06.24-.12.13-.07 115.97-64.63.14-.07.13-.07.36-.21.12-.08.13-.07.36-.21.24-.16.36-.21.24-.16.12-.07.12-.08.12-.07.55-.4.12-.08.11-.08.12-.08.55-.4.12-.08.11-.09.11-.08.11-.09.11-.08.33-.27.22-.16.11-.09.1-.09.22-.18.1-.08.11-.09.11-.1.1-.09.11-.09.2-.18.1-.1.11-.09.1-.1.1-.09.2-.2.1-.09.1-.1.1-.09.4-.4.09-.1.1-.1.09-.1.3-.3.36-.4.1-.1.63-.7.27-.33.27-.3.09-.11.09-.1.09-.11.08-.1.16-.22.08-.1.09-.11.96-1.32.07-.11.07-.12.08-.12.08-.11.14-.22.08-.12.08-.11.07-.11.28-.48.07-.11.14-.24.07-.11.21-.36.12-.24.14-.24.06-.12.14-.24.12-.24.06-.13.06-.12.14-.24.18-.36.06-.13.12-.24.06-.13.12-.24.18-.39.06-.12.05-.12.15-.39.05-.12.15-.39.05-.12.25-.65.16-.52.2-.52.04-.13.05-.13.08-.26.05-.13.16-.52.03-.13.16-.52.03-.13.03-.14.04-.13.03-.13.03-.14.04-.13.09-.39.03-.14.06-.26.02-.14.03-.14.03-.13.02-.14.03-.13.06-.28.03-.13.03-.14.02-.14.03-.14.02-.13.03-.13.14-.98.01-.14.02-.13.01-.14.02-.14.02-.13.02-.14.04-.56.02-.14.11-1.54v-.28l.01-.14V138.8l-.01-.123-.01-.13v-.13l-.01-.13v-.13l-.01-.13v-.13l-.01-.13-.01-.12-.03-.39-.01-.12-.01-.13-.01-.12-.01-.13-.02-.13-.02-.24-.02-.12-.01-.12-.02-.13-.01-.12-.02-.12-.02-.13-.01-.13-.01-.12-.02-.11-.04-.263-.03-.255-.04-.26-.04-.25-.1-.5-.04-.25-.05-.25-.42-1.75-.21-.75-.08-.25-.07-.24-.32-.96-.18-.48-.09-.23-.27-.72-.1-.23-.09-.24-.3-.69-.11-.23-.1-.23-.22-.46-.11-.22-.12-.23-.11-.23-.12-.23-.6-1.1-.39-.66-.14-.22-.26-.42-.84-1.26-.75-1-.64-.8-.16-.19-.17-.19-.16-.19-.85-.95-.9-.9-.38-.36-.95-.85-.2-.17-.4-.32-.19-.16-.21-.17-.09-.07-.4-.32-.1-.07-.2-.16-.22-.16-.3-.24-.1-.07-.1-.08-.11-.08-.2-.14-.11-.08-.22-.14-.1-.07-.99-.63-.22-.12-.13-.07L193 46.09l-.16-.098-.145-.08-.3-.18-.147-.083-.15-.08-.145-.08-.45-.24-.147-.08-.9-.48-.153-.07-.15-.08-.3-.14-.15-.08-.155-.07-.3-.14-.156-.07-.15-.07-.15-.06-.155-.07-.152-.07-.15-.07-.155-.06-.15-.06-.16-.06-.154-.07-.158-.06-.16-.07-.16-.06-.31-.12-.157-.06-.32-.12-.15-.06-.3-.1-.16-.06-.16-.05-.15-.05-.32-.1-.15-.05-.48-.15-.15-.05-.48-.15-.16-.04-.16-.05-.16-.04-.16-.05-.48-.12-.16-.05-.32-.08-.16-.03-.48-.12-.16-.03-.16-.04-.32-.06-.16-.04-.96-.18-.17-.03-.64-.08-.32-.06-.16-.02-.17-.03-.16-.02-.16-.03-.8-.1-.17-.02-.16-.01-.32-.04-.8-.05-.34-.02-.32-.02h-.16l-.32-.02h-.17l-.32-.02-.15-.01-.16-.01h-.33l-.16-.01h-.32l-.161.067z" style="fill:#c9177e" transform="translate(-3.8 -13.676)"/><path d="M96.91 309.916v-207.22h43.354v75.48h71.916v-75.48h43.48v207.22h-43.48V219.31h-71.916v90.606H96.91z" style="fill:#fff;fill-rule:nonzero" transform="translate(-3.8 -13.676)"/></svg>