<svg width="62" height="62" viewBox="0 0 62 62" fill="none" xmlns="http://www.w3.org/2000/svg">
<g clip-path="url(#clip0)">
<path d="M55.7574 12.1675C52.9978 8.50732 49.4508 5.51417 45.3787 3.4093C41.3066 1.30443 36.8135 0.141667 32.2315 0.00696249C25.0333 -0.137188 20.0609 2.02584 17.2477 3.76494C21.0118 1.58176 26.4593 0.343313 31.2287 0.404538C43.4969 0.559538 56.6735 8.91481 58.6303 23.9746C60.8778 41.2618 48.8367 55.6899 31.8983 55.7341C13.2634 55.7814 1.92902 39.2816 4.89184 24.4613C4.94694 23.7346 5.0539 23.0128 5.21192 22.3014C5.5775 18.503 6.68136 14.8127 8.46149 11.4374C6.31552 12.548 3.58287 16.0603 2.23437 19.3138C0.271376 24.2777 -0.420718 29.6532 0.220918 34.9525C0.267418 35.3539 0.309268 35.7546 0.361968 36.153C1.16557 40.7802 3.00844 45.1648 5.75185 48.9768C8.49525 52.7887 12.0677 55.9286 16.2002 58.1601C20.3327 60.3915 24.9176 61.6564 29.6098 61.8595C34.3019 62.0625 38.9789 61.1985 43.2888 59.3324C47.5986 57.4663 51.4289 54.6467 54.4914 51.0861C57.5539 47.5254 59.7686 43.3163 60.969 38.7758C62.1693 34.2353 62.324 29.4816 61.4213 24.8727C60.5185 20.2638 58.582 15.9197 55.7574 12.1675Z" fill="url(#paint0_radial)"/>
<path opacity="0.67" d="M55.7574 12.1675C52.9978 8.50732 49.4508 5.51417 45.3787 3.4093C41.3066 1.30443 36.8135 0.141667 32.2315 0.00696249C25.0333 -0.137188 20.0609 2.02584 17.2477 3.76494C21.0118 1.58176 26.4593 0.343313 31.2287 0.404538C43.4969 0.559538 56.6735 8.91481 58.6303 23.9746C60.8778 41.2618 48.8367 55.6899 31.8983 55.7341C13.2634 55.7814 1.92902 39.2816 4.89184 24.4613C4.94694 23.7346 5.0539 23.0128 5.21192 22.3014C5.5775 18.503 6.68136 14.8127 8.46149 11.4374C6.31552 12.548 3.58287 16.0603 2.23437 19.3138C0.271376 24.2777 -0.420718 29.6532 0.220918 34.9525C0.267418 35.3539 0.309268 35.7546 0.361968 36.153C1.16557 40.7802 3.00844 45.1648 5.75185 48.9768C8.49525 52.7887 12.0677 55.9286 16.2002 58.1601C20.3327 60.3915 24.9176 61.6564 29.6098 61.8595C34.3019 62.0625 38.9789 61.1985 43.2888 59.3324C47.5986 57.4663 51.4289 54.6467 54.4914 51.0861C57.5539 47.5254 59.7686 43.3163 60.969 38.7758C62.1693 34.2353 62.324 29.4816 61.4213 24.8727C60.5185 20.2638 58.582 15.9197 55.7574 12.1675Z" fill="url(#paint1_radial)"/>
<path d="M55.7574 12.1675C52.9978 8.50732 49.4508 5.51417 45.3787 3.4093C41.3066 1.30443 36.8135 0.141667 32.2315 0.00696249C25.0333 -0.137188 20.0609 2.02584 17.2477 3.76494C21.0118 1.58176 26.4593 0.343313 31.2287 0.404538C43.4969 0.559538 56.6735 8.91481 58.6303 23.9746C60.8778 41.2618 48.8367 55.6899 31.8983 55.7341C13.2634 55.7814 1.92902 39.2816 4.89184 24.4613C4.94694 23.7346 5.0539 23.0128 5.21192 22.3014C5.5775 18.503 6.68136 14.8127 8.46149 11.4374C6.31552 12.548 3.58287 16.0603 2.23437 19.3138C0.271376 24.2777 -0.420718 29.6532 0.220918 34.9525C0.267418 35.3539 0.309268 35.7546 0.361968 36.153C1.16557 40.7802 3.00844 45.1648 5.75185 48.9768C8.49525 52.7887 12.0677 55.9286 16.2002 58.1601C20.3327 60.3915 24.9176 61.6564 29.6098 61.8595C34.3019 62.0625 38.9789 61.1985 43.2888 59.3324C47.5986 57.4663 51.4289 54.6467 54.4914 51.0861C57.5539 47.5254 59.7686 43.3163 60.969 38.7758C62.1693 34.2353 62.324 29.4816 61.4213 24.8727C60.5185 20.2638 58.582 15.9197 55.7574 12.1675Z" fill="url(#paint2_radial)"/>
<path d="M55.7574 12.1675C52.9978 8.50732 49.4508 5.51417 45.3787 3.4093C41.3066 1.30443 36.8135 0.141667 32.2315 0.00696249C25.0333 -0.137188 20.0609 2.02584 17.2477 3.76494C21.0118 1.58176 26.4593 0.343313 31.2287 0.404538C43.4969 0.559538 56.6735 8.91481 58.6303 23.9746C60.8778 41.2618 48.8367 55.6899 31.8983 55.7341C13.2634 55.7814 1.92902 39.2816 4.89184 24.4613C4.94694 23.7346 5.0539 23.0128 5.21192 22.3014C5.5775 18.503 6.68136 14.8127 8.46149 11.4374C6.31552 12.548 3.58287 16.0603 2.23437 19.3138C0.271376 24.2777 -0.420718 29.6532 0.220918 34.9525C0.267418 35.3539 0.309268 35.7546 0.361968 36.153C1.16557 40.7802 3.00844 45.1648 5.75185 48.9768C8.49525 52.7887 12.0677 55.9286 16.2002 58.1601C20.3327 60.3915 24.9176 61.6564 29.6098 61.8595C34.3019 62.0625 38.9789 61.1985 43.2888 59.3324C47.5986 57.4663 51.4289 54.6467 54.4914 51.0861C57.5539 47.5254 59.7686 43.3163 60.969 38.7758C62.1693 34.2353 62.324 29.4816 61.4213 24.8727C60.5185 20.2638 58.582 15.9197 55.7574 12.1675Z" fill="url(#paint3_radial)"/>
<path d="M55.7574 12.1675C52.9978 8.50732 49.4508 5.51417 45.3787 3.4093C41.3066 1.30443 36.8135 0.141667 32.2315 0.00696249C25.0333 -0.137188 20.0609 2.02584 17.2477 3.76494C21.0118 1.58176 26.4593 0.343313 31.2287 0.404538C43.4969 0.559538 56.6735 8.91481 58.6303 23.9746C60.8778 41.2618 48.8367 55.6899 31.8983 55.7341C13.2634 55.7814 1.92902 39.2816 4.89184 24.4613C4.94694 23.7346 5.0539 23.0128 5.21192 22.3014C5.5775 18.503 6.68136 14.8127 8.46149 11.4374C6.31552 12.548 3.58287 16.0603 2.23437 19.3138C0.271376 24.2777 -0.420718 29.6532 0.220918 34.9525C0.267418 35.3539 0.309268 35.7546 0.361968 36.153C1.16557 40.7802 3.00844 45.1648 5.75185 48.9768C8.49525 52.7887 12.0677 55.9286 16.2002 58.1601C20.3327 60.3915 24.9176 61.6564 29.6098 61.8595C34.3019 62.0625 38.9789 61.1985 43.2888 59.3324C47.5986 57.4663 51.4289 54.6467 54.4914 51.0861C57.5539 47.5254 59.7686 43.3163 60.969 38.7758C62.1693 34.2353 62.324 29.4816 61.4213 24.8727C60.5185 20.2638 58.582 15.9197 55.7574 12.1675Z" fill="url(#paint4_radial)"/>
<path d="M58.6295 23.9746C58.8727 25.8362 58.9505 27.7157 58.862 29.591C59.8902 29.436 60.9201 29.2991 61.9519 29.1803C61.6253 23.0193 59.4682 17.0958 55.7566 12.1675C52.9969 8.50732 49.4499 5.51417 45.3778 3.4093C41.3057 1.30443 36.8126 0.141667 32.2307 0.00696249C25.0325 -0.137188 20.0601 2.02584 17.2468 3.76494C21.011 1.58176 26.4585 0.343313 31.2278 0.404538C43.4961 0.561088 56.6726 8.91249 58.6295 23.9746Z" fill="url(#paint5_linear)"/>
<path d="M59.3843 23.1151C57.6397 7.37643 43.6037 0.302236 31.2277 0.404536C26.4576 0.443286 21.0109 1.58176 17.2467 3.76494C16.2507 4.35555 15.3251 5.05756 14.4877 5.85744C14.5877 5.77451 14.8861 5.52884 15.3805 5.18939L15.4294 5.15606L15.4728 5.12661C17.2994 3.89161 19.312 2.95702 21.4341 2.35831C24.7585 1.43942 28.2042 1.03612 31.6509 1.16249C38.0479 1.54449 44.0731 4.29608 48.5509 8.88039C53.0288 13.4647 55.638 19.5529 55.8696 25.9571C56.1541 36.1925 47.7771 44.3532 38.1206 44.826C31.0975 45.1701 24.4806 41.7717 21.2488 34.9734C20.4928 33.4251 19.9795 31.7697 19.7267 30.0653C18.1953 19.7191 25.1432 10.8957 31.5145 8.71099C28.0774 5.70863 19.4648 5.91246 13.0548 10.6283C8.43887 14.0244 5.44427 19.1913 4.45227 25.3533C3.73858 30.0814 4.36694 34.9149 6.26577 39.3033C8.2381 43.9572 11.4612 47.9736 15.5774 50.907C19.6936 53.8405 24.542 55.5762 29.5847 55.9217C30.3541 55.9806 31.1249 56.0097 31.8973 56.0092C52.4054 56.0092 61.3024 40.4418 59.3843 23.1151Z" fill="url(#paint6_radial)"/>
<path d="M59.3843 23.1151C57.6397 7.37643 43.6037 0.302236 31.2277 0.404536C26.4576 0.443286 21.0109 1.58176 17.2467 3.76494C16.2507 4.35555 15.3251 5.05756 14.4877 5.85744C14.5877 5.77451 14.8861 5.52884 15.3805 5.18939L15.4294 5.15606L15.4728 5.12661C17.2994 3.89161 19.312 2.95702 21.4341 2.35831C24.7585 1.43942 28.2042 1.03612 31.6509 1.16249C38.0479 1.54449 44.0731 4.29608 48.5509 8.88039C53.0288 13.4647 55.638 19.5529 55.8696 25.9571C56.1541 36.1925 47.7771 44.3532 38.1206 44.826C31.0975 45.1701 24.4806 41.7717 21.2488 34.9734C20.4928 33.4251 19.9795 31.7697 19.7267 30.0653C18.1953 19.7191 25.1432 10.8957 31.5145 8.71099C28.0774 5.70863 19.4648 5.91246 13.0548 10.6283C8.43887 14.0244 5.44427 19.1913 4.45227 25.3533C3.73858 30.0814 4.36694 34.9149 6.26577 39.3033C8.2381 43.9572 11.4612 47.9736 15.5774 50.907C19.6936 53.8405 24.542 55.5762 29.5847 55.9217C30.3541 55.9806 31.1249 56.0097 31.8973 56.0092C52.4054 56.0092 61.3024 40.4418 59.3843 23.1151Z" fill="url(#paint7_radial)"/>
<path style="mix-blend-mode:multiply" opacity="0.53" d="M59.3843 23.1151C57.6397 7.37643 43.6037 0.302236 31.2277 0.404536C26.4576 0.443286 21.0109 1.58176 17.2467 3.76494C16.2507 4.35555 15.3251 5.05756 14.4877 5.85744C14.5877 5.77451 14.8861 5.52884 15.3805 5.18939L15.4294 5.15606L15.4728 5.12661C17.2994 3.89161 19.312 2.95702 21.4341 2.35831C24.7585 1.43942 28.2042 1.03612 31.6509 1.16249C38.0479 1.54449 44.0731 4.29608 48.5509 8.88039C53.0288 13.4647 55.638 19.5529 55.8696 25.9571C56.1541 36.1925 47.7771 44.3532 38.1206 44.826C31.0975 45.1701 24.4806 41.7717 21.2488 34.9734C20.4928 33.4251 19.9795 31.7697 19.7267 30.0653C18.1953 19.7191 25.1432 10.8957 31.5145 8.71099C28.0774 5.70863 19.4648 5.91246 13.0548 10.6283C8.43887 14.0244 5.44427 19.1913 4.45227 25.3533C3.73858 30.0814 4.36694 34.9149 6.26577 39.3033C8.2381 43.9572 11.4612 47.9736 15.5774 50.907C19.6936 53.8405 24.542 55.5762 29.5847 55.9217C30.3541 55.9806 31.1249 56.0097 31.8973 56.0092C52.4054 56.0092 61.3024 40.4418 59.3843 23.1151Z" fill="url(#paint8_radial)"/>
<path style="mix-blend-mode:multiply" opacity="0.53" d="M59.3843 23.1151C57.6397 7.37643 43.6037 0.302236 31.2277 0.404536C26.4576 0.443286 21.0109 1.58176 17.2467 3.76494C16.2507 4.35555 15.3251 5.05756 14.4877 5.85744C14.5877 5.77451 14.8861 5.52884 15.3805 5.18939L15.4294 5.15606L15.4728 5.12661C17.2994 3.89161 19.312 2.95702 21.4341 2.35831C24.7585 1.43942 28.2042 1.03612 31.6509 1.16249C38.0479 1.54449 44.0731 4.29608 48.5509 8.88039C53.0288 13.4647 55.638 19.5529 55.8696 25.9571C56.1541 36.1925 47.7771 44.3532 38.1206 44.826C31.0975 45.1701 24.4806 41.7717 21.2488 34.9734C20.4928 33.4251 19.9795 31.7697 19.7267 30.0653C18.1953 19.7191 25.1432 10.8957 31.5145 8.71099C28.0774 5.70863 19.4648 5.91246 13.0548 10.6283C8.43887 14.0244 5.44427 19.1913 4.45227 25.3533C3.73858 30.0814 4.36694 34.9149 6.26577 39.3033C8.2381 43.9572 11.4612 47.9736 15.5774 50.907C19.6936 53.8405 24.542 55.5762 29.5847 55.9217C30.3541 55.9806 31.1249 56.0097 31.8973 56.0092C52.4054 56.0092 61.3024 40.4418 59.3843 23.1151Z" fill="url(#paint9_radial)"/>
<path d="M38.1206 44.8261C51.3731 44.0201 57.0461 33.0461 57.4019 25.2612C57.9568 13.0976 50.7407 -0.0154467 31.6509 1.16255C28.2041 1.03694 24.7584 1.44103 21.4341 2.3607C19.3215 2.98482 17.3127 3.91766 15.4728 5.129L15.4294 5.15845L15.3806 5.19178C15.084 5.39844 14.7939 5.61596 14.5103 5.84433C19.4515 3.08132 25.1607 2.01007 30.7674 2.79393C41.7275 4.23233 51.7482 12.7581 51.7482 24.008C51.7482 32.664 45.0592 39.2755 37.2263 38.8004C25.5897 38.1029 22.6563 26.1679 28.7098 21.0111C27.0777 20.66 24.0102 21.3482 21.8743 24.5412C19.9577 27.4087 20.0662 31.834 21.2489 34.9735C22.723 38.1386 25.1285 40.7781 28.1436 42.5388C31.1587 44.2996 34.6396 45.0976 38.1206 44.8261Z" fill="url(#paint10_radial)"/>
<path d="M55.7565 12.1675C54.9261 11.0803 54.0246 10.0494 53.0579 9.08141C52.2903 8.26981 51.4676 7.51212 50.5957 6.81376C51.0975 7.25064 51.5758 7.7137 52.0287 8.20101C53.7252 10.0113 55.0152 12.1632 55.8123 14.5126C57.4312 19.4176 57.3258 25.5564 54.2344 30.3776C52.5179 33.0793 50.1208 35.2817 47.2838 36.7638C44.4468 38.2459 41.2697 38.9555 38.0717 38.8213C37.792 38.8213 37.5099 38.8213 37.2262 38.8003C25.5896 38.1028 22.6562 26.1678 28.7105 21.011C27.0776 20.6599 24.0101 21.3481 21.8742 24.5411C19.9577 27.4086 20.0662 31.8339 21.2488 34.9734C20.4931 33.425 19.9799 31.7697 19.7275 30.0653C18.1953 19.7191 25.1432 10.8957 31.5145 8.71096C28.0773 5.70861 19.4648 5.91243 13.0547 10.6283C9.28467 13.4465 6.53939 17.42 5.23732 21.9433C5.65229 18.2728 6.74522 14.7112 8.46054 11.4397C6.31457 12.5503 3.58192 16.0626 2.23342 19.3161C0.270815 24.2792 -0.421273 29.654 0.21997 34.9525C0.26647 35.3539 0.30832 35.7546 0.36102 36.1529C1.16462 40.7802 3.00749 45.1648 5.7509 48.9768C8.4943 52.7887 12.0667 55.9286 16.1993 58.16C20.3318 60.3915 24.9167 61.6564 29.6088 61.8594C34.3009 62.0625 38.978 61.1984 43.2878 59.3323C47.5977 57.4662 51.428 54.6467 54.4905 51.086C57.5529 47.5253 59.7677 43.3163 60.968 38.7758C62.1684 34.2353 62.323 29.4816 61.4203 24.8727C60.5176 20.2637 58.5811 15.9196 55.7565 12.1675Z" fill="url(#paint11_linear)"/>
<path d="M55.8124 14.5127C55.0154 12.1632 53.7254 10.0113 52.0288 8.2011C50.0127 6.10027 47.6226 4.39376 44.9809 3.16903C42.7756 2.08194 40.4501 1.25763 38.0524 0.713051C33.8259 -0.212117 29.452 -0.238521 25.2146 0.635552C20.8102 1.56555 16.9376 3.47128 14.4878 5.85363C16.4412 4.75009 18.5348 3.91586 20.7118 3.37363C24.9421 2.31058 29.3719 2.32835 33.5935 3.42531C37.8152 4.52226 41.6932 6.66318 44.8709 9.65113C46.1588 10.8725 47.2862 12.2528 48.2259 13.7586C52.0195 19.9269 51.6607 27.6815 48.7025 32.2548C46.5054 35.6524 41.7996 38.8423 37.4092 38.8051C40.7136 39.0545 44.0237 38.4026 46.9867 36.9189C49.9497 35.4352 52.4547 33.1753 54.2345 30.3801C57.3259 25.5565 57.4313 19.4177 55.8124 14.5127Z" fill="url(#paint12_linear)"/>
<path d="M55.8124 14.5127C55.0154 12.1632 53.7254 10.0113 52.0288 8.2011C50.0127 6.10027 47.6226 4.39376 44.9809 3.16903C42.7756 2.08194 40.4501 1.25763 38.0524 0.713051C33.8259 -0.212117 29.452 -0.238521 25.2146 0.635552C20.8102 1.56555 16.9376 3.47128 14.4878 5.85363C16.4412 4.75009 18.5348 3.91586 20.7118 3.37363C24.9421 2.31058 29.3719 2.32835 33.5935 3.42531C37.8152 4.52226 41.6932 6.66318 44.8709 9.65113C46.1588 10.8725 47.2862 12.2528 48.2259 13.7586C52.0195 19.9269 51.6607 27.6815 48.7025 32.2548C46.5054 35.6524 41.7996 38.8423 37.4092 38.8051C40.7136 39.0545 44.0237 38.4026 46.9867 36.9189C49.9497 35.4352 52.4547 33.1753 54.2345 30.3801C57.3259 25.5565 57.4313 19.4177 55.8124 14.5127Z" fill="url(#paint13_linear)"/>
</g>
<defs>
<radialGradient id="paint0_radial" cx="0" cy="0" r="1" gradientUnits="userSpaceOnUse" gradientTransform="translate(55.4373 12.6984) scale(70.3545)">
<stop stop-color="#FFF36E"/>
<stop offset="0.5" stop-color="#FC4055"/>
<stop offset="1" stop-color="#E31587"/>
</radialGradient>
<radialGradient id="paint1_radial" cx="0" cy="0" r="1" gradientUnits="userSpaceOnUse" gradientTransform="translate(5.13829 15.6085) scale(41.6376)">
<stop offset="0.001" stop-color="#C60084"/>
<stop offset="1" stop-color="#FC4055" stop-opacity="0"/>
</radialGradient>
<radialGradient id="paint2_radial" cx="0" cy="0" r="1" gradientUnits="userSpaceOnUse" gradientTransform="translate(61.4513 8.69471) scale(82.6142)">
<stop stop-color="#FFDE67" stop-opacity="0.6"/>
<stop offset="0.093" stop-color="#FFD966" stop-opacity="0.581"/>
<stop offset="0.203" stop-color="#FFCA65" stop-opacity="0.525"/>
<stop offset="0.321" stop-color="#FEB262" stop-opacity="0.432"/>
<stop offset="0.446" stop-color="#FE8F5E" stop-opacity="0.302"/>
<stop offset="0.573" stop-color="#FD6459" stop-opacity="0.137"/>
<stop offset="0.664" stop-color="#FC4055" stop-opacity="0"/>
</radialGradient>
<radialGradient id="paint3_radial" cx="0" cy="0" r="1" gradientUnits="userSpaceOnUse" gradientTransform="translate(32.7717 34.4131) scale(106.579)">
<stop offset="0.153" stop-color="#810220"/>
<stop offset="0.167" stop-color="#920B27" stop-opacity="0.861"/>
<stop offset="0.216" stop-color="#CB2740" stop-opacity="0.398"/>
<stop offset="0.253" stop-color="#EF394F" stop-opacity="0.11"/>
<stop offset="0.272" stop-color="#FC4055" stop-opacity="0"/>
</radialGradient>
<radialGradient id="paint4_radial" cx="0" cy="0" r="1" gradientUnits="userSpaceOnUse" gradientTransform="translate(24.7063 33.0731) scale(106.579)">
<stop offset="0.113" stop-color="#810220"/>
<stop offset="0.133" stop-color="#920B27" stop-opacity="0.861"/>
<stop offset="0.204" stop-color="#CB2740" stop-opacity="0.398"/>
<stop offset="0.257" stop-color="#EF394F" stop-opacity="0.11"/>
<stop offset="0.284" stop-color="#FC4055" stop-opacity="0"/>
</radialGradient>
<linearGradient id="paint5_linear" x1="35.519" y1="6.03491" x2="53.7764" y2="37.658" gradientUnits="userSpaceOnUse">
<stop stop-color="#FFBD4F"/>
<stop offset="0.508" stop-color="#FF9640" stop-opacity="0"/>
</linearGradient>
<radialGradient id="paint6_radial" cx="0" cy="0" r="1" gradientUnits="userSpaceOnUse" gradientTransform="translate(53.8285 9.37082) scale(66.0452 66.1829)">
<stop stop-color="#FF9640"/>
<stop offset="0.8" stop-color="#FC4055"/>
</radialGradient>
<radialGradient id="paint7_radial" cx="0" cy="0" r="1" gradientUnits="userSpaceOnUse" gradientTransform="translate(53.8285 9.37082) scale(66.0452 66.1829)">
<stop offset="0.084" stop-color="#FFDE67"/>
<stop offset="0.147" stop-color="#FFDC66" stop-opacity="0.968"/>
<stop offset="0.246" stop-color="#FFD562" stop-opacity="0.879"/>
<stop offset="0.369" stop-color="#FFCB5D" stop-opacity="0.734"/>
<stop offset="0.511" stop-color="#FFBC55" stop-opacity="0.533"/>
<stop offset="0.667" stop-color="#FFAA4B" stop-opacity="0.28"/>
<stop offset="0.822" stop-color="#FF9640" stop-opacity="0"/>
</radialGradient>
<radialGradient id="paint8_radial" cx="0" cy="0" r="1" gradientUnits="userSpaceOnUse" gradientTransform="translate(38.7012 29.9561) rotate(75.728) scale(32.4495 33.8008)">
<stop offset="0.363" stop-color="#FC4055"/>
<stop offset="0.443" stop-color="#FD604D" stop-opacity="0.633"/>
<stop offset="0.545" stop-color="#FE8644" stop-opacity="0.181"/>
<stop offset="0.59" stop-color="#FF9640" stop-opacity="0"/>
</radialGradient>
<radialGradient id="paint9_radial" cx="0" cy="0" r="1" gradientUnits="userSpaceOnUse" gradientTransform="translate(33.1211 32.6259) scale(32.3872)">
<stop offset="0.216" stop-color="#FC4055" stop-opacity="0.8"/>
<stop offset="0.267" stop-color="#FD5251" stop-opacity="0.633"/>
<stop offset="0.41" stop-color="#FE8345" stop-opacity="0.181"/>
<stop offset="0.474" stop-color="#FF9640" stop-opacity="0"/>
</radialGradient>
<radialGradient id="paint10_radial" cx="0" cy="0" r="1" gradientUnits="userSpaceOnUse" gradientTransform="translate(67.0096 1.89484) scale(111.629 111.861)">
<stop offset="0.054" stop-color="#FFF36E"/>
<stop offset="0.457" stop-color="#FF9640"/>
<stop offset="0.639" stop-color="#FF9640"/>
</radialGradient>
<linearGradient id="paint11_linear" x1="45.7652" y1="5.48928" x2="14.07" y2="60.388" gradientUnits="userSpaceOnUse">
<stop stop-color="#FFF36E" stop-opacity="0.8"/>
<stop offset="0.094" stop-color="#FFF36E" stop-opacity="0.699"/>
<stop offset="0.752" stop-color="#FFF36E" stop-opacity="0"/>
</linearGradient>
<linearGradient id="paint12_linear" x1="31.4533" y1="-0.519198" x2="48.2824" y2="48.2074" gradientUnits="userSpaceOnUse">
<stop stop-color="#B833E1"/>
<stop offset="0.371" stop-color="#9059FF"/>
<stop offset="0.614" stop-color="#5B6DF8"/>
<stop offset="1" stop-color="#0090ED"/>
</linearGradient>
<linearGradient id="paint13_linear" x1="21.4752" y1="0.251151" x2="52.755" y2="31.5309" gradientUnits="userSpaceOnUse">
<stop offset="0.805" stop-color="#722291" stop-opacity="0"/>
<stop offset="1" stop-color="#592ACB" stop-opacity="0.5"/>
</linearGradient>
<clipPath id="clip0">
<rect width="62" height="62" fill="white"/>
</clipPath>
</defs>
</svg>
