<svg xmlns="http://www.w3.org/2000/svg" fill="none" viewBox="0 0 32 32"><path fill="url(#a)" fill-rule="evenodd" d="m2.736 7.909 16.662-2.474c.446-.066.913.204 1.046.604l6.894 20.773c.169.51-.094 1.012-.59 1.12l-18.66 4.045a1.027 1.027 0 0 1-1.218-.787L2.016 8.815c-.093-.429.23-.833.72-.906Z" clip-rule="evenodd"/><path fill="url(#b)" fill-rule="evenodd" d="m2.84 7.685 16.663-2.473c.445-.066.913.203 1.046.604l6.893 20.772c.17.51-.094 1.012-.59 1.12L8.194 31.753a1.027 1.027 0 0 1-1.219-.786L2.12 8.591c-.093-.428.23-.833.72-.906Z" clip-rule="evenodd"/><path fill="url(#c)" fill-rule="evenodd" d="m4.42 5.2 16.541-2.426c.444-.065.914.207 1.051.608l6.991 20.408c.168.49-.086.972-.569 1.074l-18.111 3.804a1.03 1.03 0 0 1-1.203-.753L3.732 6.1c-.106-.427.203-.83.688-.9Z" clip-rule="evenodd"/><path fill="url(#d)" fill-rule="evenodd" d="m4.524 4.976 16.541-2.425c.444-.065.914.206 1.051.608l6.991 20.408c.168.49-.086.972-.569 1.073l-18.111 3.805a1.03 1.03 0 0 1-1.203-.753L3.836 5.877c-.105-.427.203-.83.688-.9Z" clip-rule="evenodd"/><path fill="url(#e)" fill-rule="evenodd" d="m6.197 2.58 16.4-2.348c.44-.063.91.207 1.05.604l7.067 20.031c.168.479-.08.947-.556 1.044l-17.829 3.643a1.033 1.033 0 0 1-1.194-.735L5.527 3.465c-.11-.42.19-.816.67-.885Z" clip-rule="evenodd"/><path fill="url(#f)" fill-rule="evenodd" d="m6.301 2.357 16.4-2.348c.44-.063.91.207 1.05.603l7.067 20.032c.168.479-.08.947-.556 1.044L12.434 25.33a1.033 1.033 0 0 1-1.195-.735L5.63 3.243c-.11-.421.19-.817.67-.886Z" clip-rule="evenodd"/><path fill="#BCC0CF" fill-rule="evenodd" d="m15.157 15.546 7.224-1.34a.207.207 0 0 1 .235.142l1.213 3.854a.207.207 0 0 1-.158.265l-7.328 1.427a.207.207 0 0 1-.239-.147l-1.109-3.943a.207.207 0 0 1 .162-.258Zm-.624.342 1.091 3.975c.085.308.393.499.706.438l7.417-1.442a.611.611 0 0 0 .466-.786l-1.225-3.828a.611.611 0 0 0-.69-.415l-7.283 1.295a.612.612 0 0 0-.482.763Zm1.44.324.764 2.68.82-.186-.438-1.543 1.12.877.545-1.235.447 1.568.796-.17-.771-2.592-.845.146-.512 1.137-1.105-.836-.82.154Zm5.946.36-.41-1.374-.85.145.432 1.387-.764.148 1.57 1.047.795-1.503-.773.15Z" clip-rule="evenodd"/><path fill="#A2A6B3" d="m23.81 18.366-.085.18-.028.057a.2.2 0 0 1-.13.086l-7.328 1.43A.209.209 0 0 1 16 19.97l-1.108-3.942a.203.203 0 0 1 .01-.138l.007-.015.007-.014.084-.18a.19.19 0 0 0-.005.123l.03.106 1.079 3.836c.03.104.133.168.239.148l7.325-1.427h.002a.203.203 0 0 0 .14-.1Zm.309.257a.595.595 0 0 0-.01-.328l-1.225-3.827a.614.614 0 0 0-.69-.416l-7.283 1.296a.583.583 0 0 0-.382.24.6.6 0 0 1 .486-.464L22.3 13.83c.301-.054.597.124.688.414l1.224 3.83c.064.194.023.398-.093.549Zm-1.427-2.2-.12.226-.757.148-.409-1.375-.685.118-.062-.197.85-.145.41 1.375.773-.15Zm-1.764.34.163-.033-.104.225-.424.08-.236-.157.601-.116Zm-3.033.13-.101.224-1.104-.835-.663.123-.054-.192.82-.155 1.102.835Zm2.131 1.308-.16.035-.715-2.402-.842.147.1-.224.846-.145.771 2.59Zm-2.796-.648-.111-.392-.104.225.387 1.355.155-.035-.327-1.153Z"/><path fill="url(#g)" d="m12.893 5.377-2.129.295 7.57 7.037 2.72-8.633-2.01.355-1.598 5.085-4.553-4.14Z"/><path fill="url(#h)" d="m12.893 5.377 1.952-.296 1.714 1.538.651-1.893 1.833-.295-1.596 5.085-4.554-4.14Z"/><defs><linearGradient id="a" x1="14.694" x2="14.694" y1="32" y2="5.425" gradientUnits="userSpaceOnUse"><stop stop-color="#1D2130"/><stop offset="1" stop-color="#3E445A"/></linearGradient><linearGradient id="b" x1="14.799" x2="14.799" y1="31.776" y2="5.202" gradientUnits="userSpaceOnUse"><stop stop-color="#262B3F"/><stop offset="1" stop-color="#656E91"/></linearGradient><linearGradient id="c" x1="16.383" x2="16.383" y1="28.69" y2="2.764" gradientUnits="userSpaceOnUse"><stop stop-color="#267550"/><stop offset="1" stop-color="#79B881"/></linearGradient><linearGradient id="d" x1="16.487" x2="16.487" y1="28.466" y2="2.541" gradientUnits="userSpaceOnUse"><stop stop-color="#279264"/><stop offset="1" stop-color="#A4F3AA"/></linearGradient><linearGradient id="e" x1="18.135" x2="18.135" y1="25.575" y2=".223" gradientUnits="userSpaceOnUse"><stop offset=".59" stop-color="#CECFD0"/><stop offset="1" stop-color="#DFDFDF"/></linearGradient><linearGradient id="f" x1="18.239" x2="18.239" y1="25.352" y2="0" gradientUnits="userSpaceOnUse"><stop stop-color="#EAEEF0"/><stop offset=".41" stop-color="#fff"/></linearGradient><linearGradient id="g" x1="13.266" x2="23.964" y1="-3.771" y2="31.22" gradientUnits="userSpaceOnUse"><stop offset=".22" stop-color="#73CB8D"/><stop offset=".4" stop-color="#2F9869"/></linearGradient><linearGradient id="h" x1="11.898" x2="28.646" y1="-6.917" y2="41.724" gradientUnits="userSpaceOnUse"><stop offset=".25" stop-color="#586080"/><stop offset=".35" stop-color="#2C3247"/></linearGradient></defs></svg>
