<svg width="64" height="64" fill="none" xmlns="http://www.w3.org/2000/svg"><mask id="a" mask-type="alpha" maskUnits="userSpaceOnUse" x="0" y="0" width="64" height="64"><circle cx="32" cy="32" r="32" fill="#C4C4C4"/></mask><g mask="url(#a)"><path d="M5.153 0v39.242H19.45L32 17.432h31.917V0H5.153zm0 0v39.242H19.45L32 17.432h31.917V0H5.153z" fill="#DB4437"/><path d="M.083 64h30.42l14.13-14.148v-10.61H19.45L.083 5.979v58.02zm0 0h30.42l14.13-14.148v-10.61H19.45L.083 5.979v58.02z" fill="#0F9D58"/><path d="m32 17.431 12.55 21.81L30.42 64h33.497V17.43H32zm4.24 36.38L30.42 64h33.497V17.43H32l12.55 21.81-8.31 14.57z" fill="#FFCD40"/><path d="M32 46.568c7.979 0 14.545-6.484 14.545-14.568A14.514 14.514 0 0 0 32 17.43c-7.98 0-14.546 6.485-14.546 14.569A14.514 14.514 0 0 0 32 46.568z" fill="#F1F1F1"/><path d="M32 43.62c6.4 0 11.636-5.222 11.636-11.622 0-6.4-5.236-11.621-11.636-11.621-6.4 0-11.637 5.221-11.637 11.621S25.6 43.619 32 43.619z" fill="#4285F4"/></g></svg>