<svg xmlns="http://www.w3.org/2000/svg" width="1210.059" height="361.692" viewBox="0 0 1210.059 361.692">
  <g id="Group_1089" data-name="Group 1089" transform="translate(-11660.546 8495.204)">
    <path id="Path_4709" data-name="Path 4709" d="M322.321,320.192c-7.71,0-11.993-5.137-11.993-16.7s7.134-60.879,9.886-83.495c5.115-42.005-19.1-72.444-54.224-72.444-27.825,0-49.058,11-65.71,28.725-11.3-17.079-23.986-28.725-48.668-28.725-24.039,0-38.945,8.808-53.624,22.921-7.892-15.5-21.962-22.921-43-22.921-17.458,0-40.91,8.755-54.991,17.418l15.685,35.507c10.682-5.943,19.442-10.439,26.968-10.439,8.242,0,13.138,5.943,11.769,18.374C53.1,220.4,38.566,357.885,38.566,357.885h47.32s9.286-88.244,12.559-114.791c3.834-31.112,18.9-50.81,40.373-50.81,18.844,0,25.265,14.831,23.911,32.172-1.18,15.1-14.919,133.429-14.919,133.429H195.4s10.5-98.1,13.784-122.408c4.261-31.574,24.629-43.193,37.407-43.193,21.009,0,27.4,17.186,25.43,33.469-1.6,13.261-7.291,59.949-9.024,84.184-2.138,29.958,12,52.233,38.766,52.233,17.562,0,35.108-5.006,47.619-12.156l-10.252-35.125C333.176,317.463,327.535,320.192,322.321,320.192Z" transform="translate(11660.546 -8549.632)" fill="#79ba3a"/>
    <path id="Path_4710" data-name="Path 4710" d="M842.69,345.558c-1.78,17.53-7.457,26.309-20.716,26.309-6.5,0-14.556-2.675-21.863-5.673l-17.668,40.662c9.694,5.957,32.017,10.709,46.154,10.709,45.83,0,57.392-34.882,62.535-82,3.426-33.405,18.642-183.967,18.642-183.967l-48.427,13.737S845.641,316.52,842.69,345.558Z" transform="translate(11379.461 -8551.076)" fill="#79ba3a"/>
    <path id="Path_4711" data-name="Path 4711" d="M939.052,2.208c-18.371,0-31.458,15.386-32.629,31.657s9.7,31.659,28.074,31.659c16.761,0,31.459-15.389,32.631-31.659S955.813,2.208,939.052,2.208Z" transform="translate(11334.962 -8497.411)" fill="#79ba3a"/>
    <path id="Path_4712" data-name="Path 4712" d="M1116.135,188.931c13.279,0,20.294,8.586,20.294,19.314,0,28.263-34.748,40.411-71.092,38.711C1071.254,216.092,1093.105,188.931,1116.135,188.931ZM1105.91,320.446c-23.038,0-36.515-16.924-40.714-40.462,75.823,5.246,117.76-26.181,117.76-72.4,0-37.263-34.374-59.325-65.533-59.325-60.394,0-102.663,49.9-102.663,116.078,0,58.788,30.97,98.088,84.395,98.088,34.007,0,62.171-15.421,84.091-43.295l-25.187-28.29C1142.544,306.219,1127.059,320.446,1105.91,320.446Z" transform="translate(11295.999 -8549.879)" fill="#79ba3a"/>
    <path id="Path_4713" data-name="Path 4713" d="M1409.705,188.931c13.281,0,20.294,8.586,20.294,19.314,0,28.263-34.749,40.411-71.092,38.711C1364.821,216.092,1386.675,188.931,1409.705,188.931ZM1399.48,320.446c-23.039,0-36.516-16.924-40.715-40.462,75.824,5.246,117.761-26.181,117.761-72.4,0-37.263-34.374-59.325-65.536-59.325-60.389,0-102.659,49.9-102.659,116.078,0,58.788,30.971,98.088,84.392,98.088,34.009,0,62.173-15.421,84.093-43.295l-25.188-28.29C1436.111,306.219,1420.627,320.446,1399.48,320.446Z" transform="translate(11190.537 -8549.879)" fill="#79ba3a"/>
    <path id="Path_4714" data-name="Path 4714" d="M1772.93,268.624a42.333,42.333,0,0,1-16.219,3.436c-16.412,0-23.675-13.734-30.405-29.766-5.241-12.484-14.879-38.574-22.891-61.252l74.5-76.884h-57.53c-13.088,12.823-46.831,46.659-64.038,63.935,7.753-76.345,15.689-154.526,15.689-154.526L1624.266,27.3s-25.74,252.268-28.692,281.308h46.481c.985-9.63,3.9-38.232,7.537-74.051l18.025-18.727c5.563,14.252,11.681,31.462,15.766,41.786,13.907,35.167,28.644,56.422,60.721,56.422,12.508,0,27.617-3.741,39.15-9.6Z" transform="translate(11087.351 -8501.492)" fill="#79ba3a"/>
    <path id="Path_4715" data-name="Path 4715" d="M636.58,320.182c-20.262,0-35.939-17.536-35.939-52.607,0-45.618,21.78-77.312,49.087-77.312,25.269,0,35.757,30.359,35.757,58.681C685.485,292.421,661.291,320.182,636.58,320.182Zm99.794-74.022c0-49.8-30.323-97.827-86.646-97.827-58.154,0-99.644,50.789-99.644,116.243,0,63.172,33.895,97.875,84.438,97.875C700.167,362.451,736.374,305.346,736.374,246.16Z" transform="translate(11462.939 -8549.907)" fill="#79ba3a"/>
  </g>
</svg>
