<svg xmlns="http://www.w3.org/2000/svg" fill="none" viewBox="0 0 314 120"><circle cx="60" cy="60" r="60" fill="#F98012"/><path fill="#fff" d="M79.14 81.353V56.37c0-5.221-2.154-7.833-6.462-7.835-4.307-.001-6.466 2.61-6.475 7.835v24.983H53.476V56.37c0-5.221-2.12-7.833-6.362-7.835-4.316 0-6.47 2.612-6.462 7.835v24.983H27.923V54.895c0-5.45 1.892-9.576 5.677-12.376 3.332-2.5 7.837-3.75 13.514-3.75 5.755 0 9.995 1.476 12.72 4.429 2.348-2.953 6.626-4.429 12.835-4.429 5.677 0 10.18 1.25 13.51 3.75 3.784 2.799 5.677 6.924 5.679 12.376v26.458H79.14Z"/><path fill="#333" d="m52.555 36.794 12.633-9.23-.162-.564c-22.795 2.795-33.161 4.775-52.795 16.156l.182.517 1.56.016c-.143 1.572-.392 5.456-.074 11.296-2.178 6.305-.055 10.588 1.939 15.247.316-4.846.284-10.154-1.205-15.436-.311-5.801-.055-9.616.085-11.1l13.016.125a59.524 59.524 0 0 0 .385 7.629c11.63 4.087 23.329-.014 29.539-10.09-1.724-1.93-5.103-4.566-5.103-4.566Z"/><path stroke="#6ADAAB" stroke-width="6" d="M311 60c0-31.48-25.52-57-57-57s-57 25.52-57 57 25.52 57 57 57 57-25.52 57-57Z"/><path fill="#6ADAAB" d="M246.422 72.252c0-1.826-.561-3.33-1.684-4.512-1.123-1.203-2.994-2.277-5.613-3.222-2.62-.967-4.657-1.86-6.112-2.676-4.845-2.685-7.267-6.66-7.267-11.924 0-3.567 1.05-6.5 3.15-8.799 2.1-2.299 4.324-3.599 7.921-4.029V30h5.613v7.09c3.618.538 6.414 2.127 8.39 4.77 1.974 2.622 2.962 6.038 2.962 10.25h-7.547c0-2.708-.593-4.835-1.778-6.382-1.164-1.569-2.754-2.353-4.77-2.353-1.997 0-3.556.559-4.679 1.676-1.122 1.117-1.684 2.718-1.684 4.802 0 1.87.551 3.373 1.653 4.512 1.123 1.117 3.015 2.181 5.676 3.191 2.66 1.01 4.75 1.944 6.268 2.804 1.518.86 2.796 1.848 3.836 2.965a11.581 11.581 0 0 1 2.401 3.803c.561 1.44.842 3.126.842 5.06 0 3.631-1.081 6.575-3.243 8.83-2.142 2.257-4.74 3.621-8.587 4.03V90h-5.353v-4.953c-4.116-.472-7.287-1.998-9.511-4.576-2.204-2.578-3.306-5.995-3.306-10.249h7.578c0 2.707.655 4.802 1.965 6.285 1.33 1.482 3.201 2.224 5.613 2.224 2.37 0 4.168-.591 5.395-1.773 1.247-1.182 1.871-2.75 1.871-4.706ZM264 55h5v15h-5V55Zm10-5h5v25h-5V50Zm10-5h5v35h-5V45Z"/><path fill="#000" d="M154 40h7v40h-7z"/><path fill="#000" d="M137 64v-7h40v7z"/></svg>
