<svg width="771" height="186" viewBox="0 0 771 186" fill="none" xmlns="http://www.w3.org/2000/svg">
<path d="M95 122.105C84.3839 119.517 77.2844 123.233 75.2275 124.229L74.2322 116C74.2322 116 62.5545 121.11 53 145C60.763 135.842 69.5213 128.808 69.654 128.741L70.0521 139.757C76.09 129.339 86.8389 122.238 95 122.105Z" fill="black"/>
<path d="M165.23 100.392C166.769 96.1306 166.167 89.6715 158.138 80.9483C155.863 78.4845 153.521 76.3537 151.581 74.689L154.659 69.7614L152.585 66.898C142.214 52.5814 129.233 48.9856 118.729 47.7204C100.73 32.3383 83.2668 33.0042 82.5308 33.0042L77.9141 33.204L77.981 45.5896C74.3679 46.3886 71.6247 47.5206 69.7512 48.4529C54.8974 39.197 35.6276 46.1889 34.7578 46.5218L31.2785 47.787L31.5462 51.7157C31.9476 56.9763 33.4865 62.7695 35.9622 67.8969C37.7018 71.5593 39.8429 74.8887 42.3185 77.6855C37.568 82.6796 32.416 89.0056 28 96.5302C32.0814 93.4671 43.0545 81.481 58.0421 78.5511L58.3767 78.3514L52.7563 73.9565C46.8014 69.3618 43.1214 61.6375 41.7163 55.0452C47.5374 53.7134 58.7112 52.2485 66.5396 58.4412L69.3498 60.7719L72.2268 58.5078C72.5614 58.3081 76.3083 55.8443 83.4006 54.912L87.6828 54.3793L87.6159 43.5253C89.021 43.7251 90.6937 44.058 92.5003 44.5907C100.061 46.7216 107.153 50.6503 113.577 56.377L114.714 57.3758L116.186 57.509C122.475 58.1749 127.427 59.4401 131.776 61.5709C135.857 63.5686 139.47 66.3653 142.682 70.0943L138.4 77.2194L142.347 80.0827C142.414 80.1493 147.165 83.6119 151.246 88.0068C155.796 93.001 156.666 96.064 156.131 96.9963L154.926 98.9274L155.529 101.191C157.268 107.717 156.934 112.844 150.042 120.036L148.102 122.034L148.704 124.831C149.172 127.028 149.038 130.69 147.901 133.887L146.027 131.756L142.548 134.286C142.481 134.286 139.939 136.217 136.326 137.815L137.329 133.487L129.769 135.152C125.486 136.084 122.007 136.484 118.862 136.35C118.461 133.221 116.521 130.091 114.045 129.092C100.195 123.565 85.4748 129.292 73.4312 147.671C92.0988 133.088 103.875 132.022 109.428 135.418C113.242 137.749 108.425 143.142 107.421 144.141L107.287 144.474L112.573 145.739C116.588 146.672 120.468 146.738 124.014 146.405L122.743 151L129.969 150.134C135.59 149.468 140.942 146.938 144.355 144.94L148.235 149.402L151.782 145.806C157.001 140.479 159.008 131.889 158.473 125.297C165.23 117.572 167.305 109.915 165.23 100.392Z" fill="black"/>
<path d="M192 126.056V71.873H212.087C216.398 71.873 220.067 72.604 222.911 74.0659C225.754 75.5279 227.864 77.538 229.24 80.005C230.615 82.5634 231.349 85.3959 231.349 88.5025C231.349 91.5177 230.707 94.2588 229.331 96.7258C227.955 99.1928 225.846 101.203 223.002 102.756C220.159 104.31 216.49 105.041 212.087 105.041H201.906V126.056H192ZM201.998 97H211.537C215.023 97 217.499 96.269 219.058 94.7157C220.618 93.1624 221.351 91.1522 221.351 88.5025C221.351 85.8527 220.618 83.7512 219.058 82.1979C217.499 80.6446 215.023 79.9137 211.537 79.9137H201.998V97Z" fill="black"/>
<path d="M253.455 126.97C248.593 126.97 244.924 125.508 242.264 122.492C239.604 119.477 238.32 115.091 238.32 109.335V87.6802H248.226V108.421C248.226 111.711 248.868 114.269 250.244 116.005C251.62 117.741 253.73 118.655 256.573 118.655C259.325 118.655 261.618 117.65 263.361 115.731C265.103 113.812 266.021 111.071 266.021 107.508V87.6802H275.927V126.056H267.121L266.388 119.568C265.195 121.853 263.452 123.68 261.251 124.959C259.05 126.239 256.481 126.97 253.455 126.97Z" fill="black"/>
<path d="M286.2 126.056V87.6801H295.005L295.831 92.8882C297.115 91.0608 298.674 89.5075 300.784 88.411C302.802 87.3146 305.186 86.7664 307.938 86.7664C313.9 86.7664 318.119 89.0506 320.596 93.6191C321.972 91.5176 323.898 89.7816 326.191 88.5938C328.576 87.3146 331.144 86.7664 333.896 86.7664C338.941 86.7664 342.793 88.2283 345.453 91.2435C348.113 94.2587 349.489 98.6445 349.489 104.401V126.056H339.583V105.315C339.583 102.025 338.941 99.4669 337.656 97.7308C336.372 95.9948 334.446 95.0811 331.786 95.0811C329.126 95.0811 326.925 96.0861 325.274 98.0049C323.623 99.9237 322.797 102.665 322.797 106.228V126.056H312.891V105.315C312.891 102.025 312.249 99.4669 310.965 97.7308C309.681 95.9948 307.663 95.0811 305.003 95.0811C302.343 95.0811 300.233 96.0861 298.582 98.0049C296.931 99.9237 296.106 102.665 296.106 106.228V126.056H286.2Z" fill="black"/>
<path d="M372.328 126.969C369.026 126.969 366.274 126.421 364.164 125.416C362.055 124.32 360.495 122.949 359.395 121.213C358.386 119.477 357.835 117.558 357.835 115.365C357.835 111.802 359.211 108.878 362.055 106.685C364.806 104.492 369.026 103.396 374.621 103.396H384.435V102.482C384.435 99.8323 383.701 97.9136 382.142 96.6344C380.675 95.3552 378.748 94.807 376.547 94.807C374.529 94.807 372.786 95.2638 371.227 96.2689C369.759 97.1826 368.751 98.6445 368.384 100.472H358.661C358.936 97.7308 359.853 95.2638 361.504 93.1623C363.155 91.0608 365.265 89.5075 367.833 88.411C370.402 87.3146 373.337 86.7664 376.547 86.7664C382.05 86.7664 386.361 88.1369 389.48 90.878C392.599 93.6191 394.25 97.4567 394.25 102.482V126.056H385.811L384.894 119.842C383.793 121.944 382.142 123.589 380.124 124.959C378.198 126.33 375.538 126.969 372.328 126.969ZM374.621 119.294C377.464 119.294 379.666 118.381 381.225 116.462C382.784 114.634 383.793 112.35 384.252 109.609H375.813C373.153 109.609 371.319 110.066 370.126 111.071C369.026 111.985 368.384 113.172 368.384 114.634C368.384 116.096 368.934 117.284 370.126 118.106C371.227 118.837 372.695 119.294 374.621 119.294Z" fill="black"/>
<path d="M422.592 126.056V71.873H444.422C450.109 71.873 454.42 73.1522 457.355 75.802C460.29 78.4517 461.85 81.7411 461.85 85.8527C461.85 89.2335 460.932 91.9746 459.098 93.9847C457.263 95.9949 455.062 97.3654 452.402 98.0964C455.521 98.736 458.089 100.289 460.107 102.665C462.125 105.132 463.134 107.964 463.134 111.254C463.134 115.548 461.574 119.112 458.456 121.853C455.337 124.685 450.934 126.056 445.248 126.056H422.592ZM432.59 94.6243H443.046C445.798 94.6243 447.999 93.9847 449.467 92.7055C450.934 91.4264 451.76 89.5989 451.76 87.2233C451.76 84.939 451.026 83.203 449.559 81.8324C448.091 80.5533 445.89 79.8223 442.955 79.8223H432.682V94.6243H432.59ZM432.59 118.015H443.688C446.623 118.015 448.917 117.376 450.568 116.005C452.219 114.634 453.044 112.716 453.044 110.249C453.044 107.69 452.219 105.772 450.476 104.31C448.733 102.848 446.44 102.117 443.597 102.117H432.682V118.015H432.59Z" fill="black"/>
<path d="M471.48 126.056V87.6801H480.378L481.295 94.8983C482.671 92.4313 484.597 90.4212 486.982 88.9592C489.367 87.4973 492.21 86.7664 495.512 86.7664V97.1826H492.669C490.467 97.1826 488.541 97.5481 486.798 98.1877C485.056 98.8273 483.771 100.015 482.762 101.66C481.845 103.304 481.295 105.589 481.295 108.513V125.964H471.48V126.056Z" fill="black"/>
<path d="M520.002 126.97C516.241 126.97 512.939 126.147 509.912 124.411C506.977 122.675 504.592 120.391 502.849 117.284C501.107 114.269 500.281 110.797 500.281 106.777C500.281 102.848 501.198 99.2842 502.941 96.269C504.684 93.2538 507.069 90.8782 510.096 89.1421C513.031 87.4061 516.425 86.5837 520.185 86.5837C523.854 86.5837 527.156 87.4061 530.183 89.1421C533.118 90.8782 535.503 93.1624 537.246 96.269C538.989 99.2842 539.814 102.756 539.814 106.777C539.814 110.706 538.989 114.269 537.246 117.284C535.503 120.299 533.118 122.675 530.091 124.411C527.064 126.147 523.671 126.97 520.002 126.97ZM520.002 118.381C522.57 118.381 524.863 117.376 526.789 115.457C528.715 113.538 529.633 110.614 529.633 106.868C529.633 103.03 528.715 100.198 526.789 98.2792C524.863 96.3604 522.662 95.3553 520.093 95.3553C517.434 95.3553 515.14 96.3604 513.306 98.2792C511.38 100.198 510.463 103.122 510.463 106.868C510.463 110.706 511.38 113.538 513.306 115.457C515.14 117.467 517.434 118.381 520.002 118.381Z" fill="black"/>
<path d="M554.765 126.056L543.483 87.6802H553.389L560.085 115.274L567.881 87.6802H578.888L586.685 115.274L593.472 87.6802H603.378L592.005 126.056H581.64L573.385 97.3655L565.13 126.056H554.765Z" fill="black"/>
<path d="M625.484 126.969C622.09 126.969 619.063 126.421 616.495 125.325C613.926 124.228 611.817 122.675 610.257 120.756C608.698 118.837 607.781 116.553 607.414 113.903H617.412C617.687 115.365 618.604 116.645 619.98 117.741C621.356 118.837 623.099 119.294 625.3 119.294C627.501 119.294 629.061 118.837 630.07 118.015C631.079 117.101 631.629 116.096 631.629 115C631.629 113.355 630.895 112.259 629.428 111.619C627.96 111.071 625.942 110.431 623.374 109.883C621.723 109.518 620.072 109.061 618.329 108.604C616.586 108.056 615.027 107.416 613.651 106.594C612.184 105.771 611.083 104.766 610.166 103.487C609.249 102.208 608.882 100.655 608.882 98.8273C608.882 95.4466 610.257 92.5227 612.917 90.2384C615.669 87.9542 619.43 86.7664 624.383 86.7664C628.969 86.7664 632.546 87.8628 635.298 89.9643C638.05 92.0659 639.609 94.9897 640.159 98.7359H630.712C630.161 95.9034 627.96 94.4415 624.291 94.4415C622.457 94.4415 620.989 94.807 619.98 95.5379C618.971 96.2689 618.421 97.1826 618.421 98.279C618.421 99.3755 619.155 100.289 620.714 101.02C622.181 101.66 624.199 102.299 626.676 102.848C629.336 103.487 631.812 104.127 634.105 104.858C636.399 105.589 638.141 106.685 639.517 108.147C640.893 109.609 641.535 111.711 641.535 114.452C641.627 116.827 640.985 118.929 639.701 120.848C638.416 122.766 636.582 124.228 634.105 125.325C631.629 126.421 628.786 126.969 625.484 126.969Z" fill="black"/>
<path d="M669.052 126.969C665.2 126.969 661.714 126.147 658.687 124.502C655.66 122.858 653.367 120.573 651.625 117.558C649.882 114.543 649.056 111.071 649.056 107.142C649.056 103.213 649.882 99.6496 651.625 96.543C653.276 93.4364 655.66 91.0608 658.596 89.3247C661.531 87.5887 665.108 86.7664 669.144 86.7664C672.904 86.7664 676.298 87.5887 679.142 89.2334C682.077 90.878 684.278 93.1623 685.929 95.9948C687.58 98.8273 688.406 102.025 688.406 105.589C688.406 106.137 688.406 106.777 688.406 107.325C688.406 107.964 688.314 108.604 688.314 109.244H659.054C659.238 112.259 660.338 114.543 662.173 116.279C664.099 118.015 666.392 118.837 669.052 118.837C671.07 118.837 672.813 118.381 674.188 117.467C675.564 116.553 676.573 115.365 677.215 113.903H687.305C686.571 116.37 685.379 118.563 683.728 120.482C682.077 122.492 679.967 124.046 677.49 125.142C675.014 126.238 672.171 126.969 669.052 126.969ZM669.144 94.807C666.667 94.807 664.558 95.4466 662.723 96.8171C660.889 98.1877 659.696 100.289 659.146 103.03H678.316C678.133 100.472 677.215 98.4618 675.564 96.9999C673.822 95.5379 671.712 94.807 669.144 94.807Z" fill="black"/>
<path d="M696.844 126.056V87.6801H705.741L706.659 94.8983C708.034 92.4313 709.961 90.4212 712.345 88.9592C714.73 87.4973 717.574 86.7664 720.876 86.7664V97.1826H718.032C715.831 97.1826 713.905 97.5481 712.162 98.1877C710.419 98.8273 709.135 100.015 708.126 101.66C707.209 103.304 706.659 105.589 706.659 108.513V125.964H696.844V126.056Z" fill="black"/>
</svg>
