<?xml version="1.0" encoding="UTF-8"?>
<svg width="332px" height="76px" viewBox="0 0 332 76" version="1.1" xmlns="http://www.w3.org/2000/svg" xmlns:xlink="http://www.w3.org/1999/xlink">
    <title>Logo</title>
    <g id="Page-1" stroke="none" stroke-width="1" fill="none" fill-rule="evenodd">
        <g id="Logo-2" transform="translate(-553.000000, -267.000000)" fill="#1168DE">
            <g id="Logo" transform="translate(552.000000, 151.000000)">
                <g id="Group-2">
                    <g id="Logo" transform="translate(1.000000, 116.000000)">
                        <path d="M104.07,52 L104.07,35.53 C104.574,34.594 105.411,33.73 106.581,32.938 C107.751,32.146 109.038,31.75 110.442,31.75 C111.594,31.75 112.44,31.84 112.98,32.02 L112.98,32.02 L113.79,25.486 C112.782,25.342 111.99,25.27 111.414,25.27 C108.066,25.27 105.528,26.332 103.8,28.456 L103.8,28.456 L103.8,25.81 L97.05,25.81 L97.05,52 L104.07,52 Z M130.206,52.54 C132.942,52.54 135.3,51.658 137.28,49.894 L137.28,49.894 L137.28,52 L144.03,52 L144.03,25.81 L137.01,25.81 L137.01,42.82 C135.318,44.98 133.284,46.06 130.908,46.06 C129.252,46.06 127.938,45.52 126.966,44.44 C126.102,43.468 125.67,41.974 125.67,39.958 L125.67,39.958 L125.67,25.81 L118.65,25.81 L118.65,39.688 C118.65,43.288 119.532,46.168 121.296,48.328 C123.564,51.136 126.534,52.54 130.206,52.54 Z M159.15,52 L159.15,34.99 C159.726,34.162 160.599,33.415 161.769,32.749 C162.939,32.083 164.19,31.75 165.522,31.75 C167.178,31.75 168.492,32.236 169.464,33.208 C170.508,34.252 171.03,35.89 171.03,38.122 L171.03,38.122 L171.03,52 L178.05,52 L178.05,38.662 C178.05,34.666 177.15,31.606 175.35,29.482 C173.01,26.674 169.986,25.27 166.278,25.27 C163.506,25.27 161.04,26.152 158.88,27.916 L158.88,27.916 L158.88,25.81 L152.13,25.81 L152.13,52 L159.15,52 Z M192.63,52 L192.63,34.99 C193.206,34.162 194.079,33.415 195.249,32.749 C196.419,32.083 197.67,31.75 199.002,31.75 C200.658,31.75 201.972,32.236 202.944,33.208 C203.988,34.252 204.51,35.89 204.51,38.122 L204.51,38.122 L204.51,52 L211.53,52 L211.53,38.662 C211.53,34.666 210.63,31.606 208.83,29.482 C206.49,26.674 203.466,25.27 199.758,25.27 C196.986,25.27 194.52,26.152 192.36,27.916 L192.36,27.916 L192.36,25.81 L185.61,25.81 L185.61,52 L192.63,52 Z M230.16,52.54 C232.932,52.54 235.362,51.658 237.45,49.894 L237.45,49.894 L237.45,52 L244.2,52 L244.2,25.81 L237.45,25.81 L237.45,27.916 C235.29,26.152 232.734,25.27 229.782,25.27 C226.218,25.27 223.185,26.584 220.683,29.212 C218.181,31.84 216.93,35.08 216.93,38.932 C216.93,42.46 218.046,45.52 220.278,48.112 C222.834,51.064 226.128,52.54 230.16,52.54 Z M230.862,46.06 C228.882,46.06 227.235,45.385 225.921,44.035 C224.607,42.685 223.95,40.984 223.95,38.932 C223.95,36.988 224.58,35.305 225.84,33.883 C227.1,32.461 228.72,31.75 230.7,31.75 C233.4,31.75 235.56,32.83 237.18,34.99 L237.18,34.99 L237.18,42.82 C235.668,44.98 233.562,46.06 230.862,46.06 Z M259.32,52 L259.32,35.53 C259.824,34.594 260.661,33.73 261.831,32.938 C263.001,32.146 264.288,31.75 265.692,31.75 C266.844,31.75 267.69,31.84 268.23,32.02 L268.23,32.02 L269.04,25.486 C268.032,25.342 267.24,25.27 266.664,25.27 C263.316,25.27 260.778,26.332 259.05,28.456 L259.05,28.456 L259.05,25.81 L252.3,25.81 L252.3,52 L259.32,52 Z M286.212,52.54 C290.172,52.54 293.484,51.226 296.148,48.598 C298.812,45.97 300.144,42.748 300.144,38.932 C300.144,35.116 298.812,31.885 296.148,29.239 C293.484,26.593 290.172,25.27 286.212,25.27 C282.252,25.27 278.94,26.593 276.276,29.239 C273.612,31.885 272.28,35.116 272.28,38.932 C272.28,42.748 273.612,45.97 276.276,48.598 C278.94,51.226 282.252,52.54 286.212,52.54 Z M286.212,46.06 C284.196,46.06 282.54,45.376 281.244,44.008 C279.948,42.64 279.3,40.948 279.3,38.932 C279.3,36.916 279.948,35.224 281.244,33.856 C282.54,32.452 284.196,31.75 286.212,31.75 C288.228,31.75 289.884,32.443 291.18,33.829 C292.476,35.215 293.124,36.916 293.124,38.932 C293.124,40.948 292.476,42.64 291.18,44.008 C289.884,45.376 288.228,46.06 286.212,46.06 Z M317.856,52.54 C321.816,52.54 325.128,51.226 327.792,48.598 C330.456,45.97 331.788,42.748 331.788,38.932 C331.788,35.116 330.456,31.885 327.792,29.239 C325.128,26.593 321.816,25.27 317.856,25.27 C313.896,25.27 310.584,26.593 307.92,29.239 C305.256,31.885 303.924,35.116 303.924,38.932 C303.924,42.748 305.256,45.97 307.92,48.598 C310.584,51.226 313.896,52.54 317.856,52.54 Z M317.856,46.06 C315.84,46.06 314.184,45.376 312.888,44.008 C311.592,42.64 310.944,40.948 310.944,38.932 C310.944,36.916 311.592,35.224 312.888,33.856 C314.184,32.452 315.84,31.75 317.856,31.75 C319.872,31.75 321.528,32.443 322.824,33.829 C324.12,35.215 324.768,36.916 324.768,38.932 C324.768,40.948 324.12,42.64 322.824,44.008 C321.528,45.376 319.872,46.06 317.856,46.06 Z" id="runnaroo" fill-rule="nonzero"></path>
                        <path d="M33,-7.10542736e-14 C51.2253967,-7.10542736e-14 66,14.7746033 66,33 C66,39.793614 63.9471199,46.1077522 60.4278545,51.3559198 L75.5563492,66.4852814 C77.5089706,68.4379028 77.5089706,71.6037277 75.5563492,73.5563492 C73.6037277,75.5089706 70.4379028,75.5089706 68.4852814,73.5563492 L53.6615362,58.7328242 C48.0063419,63.2793382 40.8208932,66 33,66 C14.7746033,66 5.32907052e-13,51.2253967 5.32907052e-13,33 C5.32907052e-13,14.7746033 14.7746033,-7.10542736e-14 33,-7.10542736e-14 Z M51,29.5 C49.0670034,29.5 47.5,31.0670034 47.5,33 C47.5,41.00801 41.00801,47.5 33,47.5 C24.99199,47.5 18.5,41.00801 18.5,33 C18.5,31.0670034 16.9329966,29.5 15,29.5 C13.0670034,29.5 11.5,31.0670034 11.5,33 C11.5,44.8740032 21.1259968,54.5 33,54.5 C44.8740032,54.5 54.5,44.8740032 54.5,33 C54.5,31.0670034 52.9329966,29.5 51,29.5 Z" id="Shape"></path>
                    </g>
                </g>
            </g>
        </g>
    </g>
</svg>
