<svg xmlns="http://www.w3.org/2000/svg" fill="none" viewBox="0 0 177 38"><g clip-path="url(#a)"><path fill="#233283" d="M58.22 12.068c-.935-.965-2.649-1.838-4.206-1.838-2.244 0-3.147 1.682-3.147 2.96 0 4.269 10.094 2.68 10.094 9.751 0 3.49-2.462 6.481-7.041 6.481-2.836 0-5.359-1.152-7.322-3.178l2.181-2.181c1.246 1.278 3.053 2.18 4.798 2.18 2.555 0 3.676-1.837 3.676-3.24 0-4.143-10.063-2.43-10.063-9.72 0-3.365 2.18-6.231 6.418-6.231 2.586 0 5.079 1.06 6.824 2.835l-2.213 2.181ZM61.807 15.121h1.651v-3.116h3.552v3.116h3.147v2.68H67.01v6.48c0 1.34.81 2.243 2.088 2.243.373 0 .747-.062 1.059-.249v2.835c-.53.25-1.153.312-1.714.312-3.084 0-4.985-1.994-4.985-5.14V17.8h-1.65v-2.679ZM79.565 14.966v2.99c-.343-.123-.748-.156-1.122-.156-1.34 0-2.461.717-3.146 1.777v9.565h-3.428v-14.02h3.428v1.433c.965-1.029 2.118-1.652 3.395-1.652.312 0 .561.031.873.063ZM87.667 26.369c2.275 0 3.832-1.714 3.832-4.238 0-2.523-1.557-4.237-3.832-4.237-2.274 0-3.832 1.714-3.832 4.237 0 2.524 1.558 4.238 3.832 4.238Zm0-11.528c4.393 0 7.384 2.96 7.384 7.29 0 4.332-2.99 7.291-7.384 7.291-4.393 0-7.383-2.96-7.383-7.29 0-4.331 2.99-7.29 7.383-7.29ZM100.371 15.121v1.028c1.028-.84 2.305-1.308 3.801-1.308 3.209 0 5.234 2.399 5.234 5.95v8.351h-3.427v-8.35c0-1.713-1.091-2.898-2.711-2.898-1.245 0-2.243.436-2.897 1.153v10.095h-3.427v-14.02h3.427ZM117.234 22.599c1.465 0 2.492-1.06 2.492-2.555 0-1.496-1.027-2.524-2.492-2.524-1.464 0-2.492 1.028-2.492 2.524s1.028 2.555 2.492 2.555Zm-.125 12.027c2.181 0 3.957-.935 3.957-2.244 0-1.184-1.371-1.963-3.427-1.963-2.212 0-3.707.904-3.707 2.243 0 1.184 1.183 1.964 3.177 1.964Zm-3.8-5.671c-1.091-.592-1.558-1.402-1.558-2.337 0-.966.53-1.744 1.651-2.336-1.402-.873-2.119-2.43-2.119-4.144 0-3.21 2.431-5.297 5.92-5.297 1.651 0 3.053.467 4.05 1.278.686-.81 1.558-1.278 2.492-1.278.313 0 .562 0 .842.063v2.71a2.768 2.768 0 0 0-.654-.094c-.468 0-.873.25-1.216.655a5.1 5.1 0 0 1 .343 1.87c0 3.115-2.367 5.233-5.919 5.233-1.403 0-2.057.53-2.057 1.247 0 .747.967 1.245 2.555 1.245 4.175 0 6.979 1.84 6.979 4.55 0 2.897-3.178 4.89-7.477 4.89-4.144 0-6.792-1.868-6.792-4.548 0-1.776 1.183-2.99 2.96-3.707ZM129.598 5.775V16.15c1.028-.841 2.305-1.309 3.801-1.309 3.209 0 5.235 2.399 5.235 5.95v8.35h-3.428v-8.35c0-1.713-1.09-2.897-2.71-2.897-1.246 0-2.243.437-2.898 1.153v10.095h-3.427V5.775h3.427ZM147.817 26.369c2.275 0 3.832-1.714 3.832-4.238 0-2.523-1.557-4.237-3.832-4.237s-3.833 1.714-3.833 4.237c0 2.524 1.558 4.238 3.833 4.238Zm0-11.528c4.393 0 7.383 2.96 7.383 7.29 0 4.332-2.99 7.291-7.383 7.291s-7.384-2.96-7.384-7.29c0-4.331 2.991-7.29 7.384-7.29ZM162.06 29.142c-.282.124-.998.155-1.434.155-2.336 0-3.583-1.527-3.583-3.77V5.776h3.427v19.659c0 .935.655 1.464 1.59 1.464v2.244ZM170.318 26.369c1.215 0 2.243-.406 2.897-1.122v-6.325c-.654-.622-1.682-1.028-2.897-1.028-2.305 0-3.925 1.714-3.925 4.237 0 2.524 1.62 4.238 3.925 4.238Zm2.897 2.773v-.997a6.23 6.23 0 0 1-3.831 1.277c-3.926 0-6.543-2.96-6.543-7.29 0-4.331 2.865-7.29 7.166-7.29 1.183 0 2.274.249 3.208.716V5.775h3.428v23.367h-3.428Z"/><path fill="url(#b)" d="m14.742 0-.013 19.647 13.615 6.743L20.991.001H18.467l.275 1.624.01.004h-2.698l.006-.006L15.97 0h-1.229Z"/><path fill="url(#c)" d="m13.482 0-.089 1.623.008.006h-2.695l.01-.004L10.991 0H8.472v.004H8.47L1.115 26.39l13.614-6.743L14.74 0h-1.258Z"/><path fill="url(#d)" d="M1.115 26.39.036 29.492a.653.653 0 0 0 .617.867h28.152a.653.653 0 0 0 .617-.867l-1.078-3.102-13.615-6.743L1.115 26.39Z"/></g><defs><linearGradient id="b" x1="21.537" x2="21.537" y1="23.561" y2="-25.445" gradientUnits="userSpaceOnUse"><stop stop-color="#233283"/><stop offset=".242" stop-color="#0071F1"/><stop offset=".292" stop-color="#0071F1"/><stop offset=".399" stop-color="#0071F1"/><stop offset="1" stop-color="#00CEFF"/></linearGradient><linearGradient id="c" x1="7.928" x2="7.928" y1="36.704" y2="-17.259" gradientUnits="userSpaceOnUse"><stop stop-color="#3658BA"/><stop offset=".242" stop-color="#0071F1"/><stop offset=".292" stop-color="#0071F1"/><stop offset=".399" stop-color="#0071F1"/><stop offset="1" stop-color="#00CEFF"/></linearGradient><linearGradient id="d" x1="0" x2="29.459" y1="25.003" y2="25.003" gradientUnits="userSpaceOnUse"><stop stop-color="#00EAFF"/><stop offset=".556" stop-color="#00A4FA"/><stop offset=".697" stop-color="#00A4FA"/><stop offset=".748" stop-color="#00A4FA"/><stop offset="1" stop-color="#4976FB"/></linearGradient><clipPath id="a"><path fill="#fff" d="M0 0h176.643v37.211H0z"/></clipPath></defs></svg>
