<svg id="Layer_1" data-name="Layer 1" xmlns="http://www.w3.org/2000/svg" viewBox="0 0 642.73 149.58"><defs><style>.cls-1{fill:#2d75ee;}</style></defs><title>xrptipbot</title><path class="cls-1" d="M53.91,149.58a14.09,14.09,0,0,0-1.84-.09c-5.33-.53-10.67-1-16-1.57a58.82,58.82,0,0,1-16.73-4.55A25.45,25.45,0,0,1,5.92,130.75,29.72,29.72,0,0,1,3.29,118c0-2.17-.21-4.34-.32-6.51V76.85c.11-2.07.31-4.13.32-6.2A30.85,30.85,0,0,1,7.55,54.12a29.86,29.86,0,0,1,7.9-9,2.38,2.38,0,0,1,3.32.05,3.29,3.29,0,0,1,.18,4.1c-1.39,1.47-2.88,2.84-4.26,4.32a20.38,20.38,0,0,0-5.42,12C8,77.08,9,88.55,8.69,100c-.12,4.91,0,9.83,0,14.74.05,5.41.82,10.68,3.82,15.33a17,17,0,0,0,9.1,7.07c4,1.34,8,2.69,12.08,3.65a79.72,79.72,0,0,0,10.23,1.45c3.34.33,6.7.59,10,.61,3,0,6.06-.41,9.09-.53a81.83,81.83,0,0,0,16.15-2.48,40.81,40.81,0,0,0,11.06-4,16.78,16.78,0,0,0,8.32-11.22,55.42,55.42,0,0,0,1.22-12.51c0-13.08,0-26.16,0-39.25,0-4.91-.58-9.81-2.67-14.27A32.52,32.52,0,0,0,92.25,52a89.37,89.37,0,0,0-6.18-6.58,6.07,6.07,0,0,0-5.65-1.83c-4.15.85-8.29,2-12.48,2.33a192.75,192.75,0,0,1-19.82.39,93.3,93.3,0,0,1-14.71-1.65c-4.74-.9-9.47-2.16-13.53-5-3.67-2.61-5.47-6.48-4.39-11.1a22.07,22.07,0,0,0,.44-3.64c.22-3.88.19-7.79.63-11.64.36-3.07,2.73-5,5.11-6.64,3.95-2.71,8.52-3.77,13.15-4.67A97.22,97.22,0,0,1,58,.1,138.88,138.88,0,0,1,74.8,2a50.47,50.47,0,0,1,11,3.29,11.68,11.68,0,0,1,7.12,7.48,9.26,9.26,0,0,1-3.37,9.85,35.27,35.27,0,0,1-13.47,5.56,112.22,112.22,0,0,1-16.76,2,103.08,103.08,0,0,1-19.57-.84c-2.61-.31-5.13-1.5-7.62-2.49a2.81,2.81,0,0,1-1.49-3.6,3.3,3.3,0,0,1,3.67-1.92c9.31,2.92,18.92,2.82,28.48,2.36a87.32,87.32,0,0,0,14.37-2.42A30.81,30.81,0,0,0,84,18.54c3.3-1.63,3-4.92.4-6.48a26,26,0,0,0-8-3.18c-3-.68-6.14-1.15-9.21-1.7C66.48,7.06,65.73,7,65,6.94c-3.07-.22-6.14-.52-9.22-.59-2.39,0-4.78.2-7.17.33-1.17.06-2.34.09-3.5.26-3.92.58-7.88,1-11.74,1.87a40.18,40.18,0,0,0-7.53,2.67,5,5,0,0,0-3.18,5.14A89.23,89.23,0,0,1,22,28.74c-.21,1.7-1.08,3.43.49,4.66a19.11,19.11,0,0,0,5.42,3.09,62.18,62.18,0,0,0,19.65,3.66c3.68.1,4.83.18,7.49.18a128,128,0,0,0,13.81-1.17,60.83,60.83,0,0,0,8.61-1.4c3.29-.85,6.66-1.77,9.35-4a4.91,4.91,0,0,0,1.37-2.87c.41-2.64,2.38-4.07,4.58-2.93a3.59,3.59,0,0,1,1.59,2.15,7.92,7.92,0,0,1-2,7.07c-1.81,2.14-1.31,4.28.59,6.18,2.54,2.55,5,5.15,7.43,7.85,2.68,3,4.06,6.73,5.08,10.58,1.44,5.45,1.1,11,1.13,16.55.08,14-.09,28.08-.24,42.12-.06,6.25-1.94,12-6.25,16.57a25.46,25.46,0,0,1-10.62,7c-3.3,1.08-6.6,2.23-10,3a100.7,100.7,0,0,1-10.82,1.73c-3.43.39-6.9.48-10.35.74" transform="translate(-2.97)"/><path class="cls-1" d="M77.07,108.35a58.61,58.61,0,0,0-6.1-5.69,27,27,0,0,0-21.82-4.93A24.88,24.88,0,0,0,36.53,104c-4.5,4.25-8.87,8.63-13.28,13-2.27,2.23-4.52,4.49-6.78,6.73l-1.74,1.7a19.9,19.9,0,0,0,1,1.79,15.83,15.83,0,0,0,6.11,5.56l8.1-8c4.21-4.16,8.44-8.3,12.63-12.48a16.58,16.58,0,0,1,11.71-5.06,15.64,15.64,0,0,1,11.21,4.09c3.39,3.11,6.64,6.38,9.93,9.6q6,5.84,11.9,11.71a1,1,0,0,0,.17-.1,15.62,15.62,0,0,0,6.71-7.34c-2.11-2.09-4.21-4.19-6.35-6.25C84.22,115.45,80.67,111.88,77.07,108.35Z" transform="translate(-2.97)"/><path class="cls-1" d="M17.76,56.63a18.55,18.55,0,0,0-3.13,4.51l2.3,2.24c6.2,6.07,12.36,12.18,18.59,18.23a26.93,26.93,0,0,0,19,7.88L56,89.41c.51,0,1,0,1.52-.11a26.6,26.6,0,0,0,15.91-7.66c3.07-3,6.17-6,9.22-9q5.66-5.57,11.28-11.14c0-.1-.08-.2-.13-.3a29.83,29.83,0,0,0-4.47-6.11c-.48-.56-1-1.12-1.46-1.67l0,0c-1.45,1.44-2.92,2.84-4.38,4.27-5.91,5.78-10.72,10.43-16.7,16.37a16.58,16.58,0,0,1-14.09,5.19,16.39,16.39,0,0,1-8.9-3.78c-2.57-2.15-4.82-4.64-7.23-7-5.19-5-10.28-10.11-15.4-15.18l-.09-.08C20,54.42,18.82,55.49,17.76,56.63Z" transform="translate(-2.97)"/><path class="cls-1" d="M149.74,92,136.39,70.29c-1.31-2.22-2.12-2.42-4.35-2.42h-3V56.64h8.29c4.86,0,6.78,1.11,9.21,5.26l6.87,11.93c2.33,4.15,4.55,8.7,4.55,8.7h.21a85.8,85.8,0,0,1,4.35-8.7l7-11.93c2.42-4.25,4.45-5.26,9.3-5.26H187V67.87h-3c-2.23,0-3,.3-4.35,2.42L166.13,92l22.35,36.41H173.61l-11.12-18.91c-2.43-4.25-4.56-8.4-4.56-8.4h-.2s-1.92,4.25-4.35,8.4l-11,18.91H127.49Z" transform="translate(-2.97)"/><path class="cls-1" d="M199,67.87h-6.58V56.64H224.6c13.14,0,22.35,8.09,22.35,21.64,0,13-8.9,18.31-11.94,18.92v.2a8.2,8.2,0,0,1,3.54,3.64l7,13.86c1.11,2.12,2.83,2.33,5.06,2.33h1.32v11.22h-7c-5.36,0-7.69-.81-10-5.36l-9.2-18.1c-1.52-2.84-3-3.34-6.78-3.34h-6.67v26.8H199Zm23.77,22.45c6.67,0,10.62-4.15,10.62-11.33s-4-11.12-10.42-11.12H212.26V90.32Z" transform="translate(-2.97)"/><path class="cls-1" d="M262.93,67.87h-6.57V56.64h32.87c13.46,0,22.86,9.41,22.86,23.36s-9.4,23.67-22.86,23.67H276.18v24.78H262.93Zm23.88,24.47c7.48,0,11.73-4.85,11.73-12.34S294.29,67.87,287,67.87H276.18V92.34Z" transform="translate(-2.97)"/><path class="cls-1" d="M352.25,67.87h-11A2,2,0,0,0,339,70.09v4.35H327.37V63.11c0-4.75,1.62-6.47,6.48-6.47h50.06c4.86,0,6.48,1.72,6.48,6.47V74.44H378.75V70.09a2,2,0,0,0-2.22-2.22h-11v60.58H352.25Z" transform="translate(-2.97)"/><path class="cls-1" d="M402.73,90a2,2,0,0,0-2.22-2.23h-4.05V76.87H408.7c4.75,0,6.78,2.12,6.78,6.88V115.4a2,2,0,0,0,2.22,2.23h4.05v10.82H409.51c-4.76,0-6.78-2-6.78-6.88Zm.61-33.38h11.12V68.47H403.34Z" transform="translate(-2.97)"/><path class="cls-1" d="M432.57,90a2,2,0,0,0-2.22-2.23H426.3V76.87h11.43c4.75,0,6.47,2.12,6.47,4.95v2h.21s4.35-8.2,16.38-8.2c14,0,23,11,23,27,0,16.39-10.11,27-23.67,27-10.21,0-14.76-6.78-14.76-6.78h-.2s.2,1.82.2,4.45v21.34H432.57Zm25.19,28.82c7.08,0,13.05-5.76,13.05-16,0-9.81-5.26-16.18-12.85-16.18C451.29,86.68,445,91.53,445,103,445,111,449.26,118.84,457.76,118.84Z" transform="translate(-2.97)"/><path class="cls-1" d="M494.18,69.79A2,2,0,0,0,492,67.56H487.9V56.64h12.24c4.76,0,6.88,2.12,6.88,6.88v15c0,2.53-.2,4.35-.2,4.35h.2s4.55-7.19,15.48-7.19c14,0,22.85,11,22.85,27,0,16.39-10,27-23.66,27-10.72,0-15.38-7.29-15.38-7.29h-.2a27.29,27.29,0,0,1,.2,3.44v2.63H494.18Zm25.28,49.05c7,0,12.95-5.76,12.95-16,0-9.81-5.26-16.18-12.85-16.18-6.67,0-12.94,4.85-12.94,16.28C506.62,111,510.86,118.84,519.46,118.84Z" transform="translate(-2.97)"/><path class="cls-1" d="M580.16,75.65c15.77,0,28.32,11.23,28.32,27s-12.55,27-28.32,27-28.22-11.13-28.22-27S564.48,75.65,580.16,75.65Zm0,43.09c8.39,0,15.37-6.47,15.37-16.08s-7-16.08-15.37-16.08-15.28,6.57-15.28,16.08S571.86,118.74,580.16,118.74Z" transform="translate(-2.97)"/><path class="cls-1" d="M620.31,87.08h-6.67V76.87h7V62.81h12.54V76.87h11.73V87.08H633.16v20.84c0,8.5,6.67,9.71,10.22,9.71a11.9,11.9,0,0,0,2.32-.2v11.22a23.15,23.15,0,0,1-3.94.31c-7.18,0-21.45-2.13-21.45-19.42Z" transform="translate(-2.97)"/></svg>