<svg width="95" height="32" viewBox="0 0 95 32" fill="none" xmlns="http://www.w3.org/2000/svg">
<path fill-rule="evenodd" clip-rule="evenodd" d="M19.3667 7.12594C19.4683 7.42806 19.5582 7.7526 19.6348 8.09992C20.135 10.3661 19.9847 13.3246 18.9723 16.4001C18.2245 18.6718 17.1367 20.6113 15.9151 22.0833C16.682 19.4056 16.5552 15.8618 15.3613 12.2547C14.527 9.73409 13.2925 7.54784 11.8689 5.88079C11.9636 5.79205 12.0587 5.70607 12.1542 5.62291C13.9303 4.07568 15.5791 3.68133 16.8074 4.08807C17.1094 4.18804 17.4029 4.34205 17.6816 4.5517C18.3762 5.30519 18.9485 6.17387 19.3667 7.12594ZM18.7171 3.38639C16.7402 1.30043 13.947 0 10.851 0C7.71748 0 4.89418 1.33213 2.9134 3.46255C2.0924 4.13955 1.4502 5.11454 1.00533 6.30184C0.360165 7.69426 0 9.24642 0 10.883C0 16.8934 4.85816 26.8187 10.851 26.8187C16.8438 26.8187 21.702 16.8934 21.702 10.883C21.702 9.34104 21.3823 7.87402 20.8057 6.54495C20.3405 5.20688 19.636 4.1163 18.7171 3.38639ZM5.74183 21.957C4.56406 20.4986 3.51562 18.6033 2.78503 16.3961C1.76691 13.3202 1.60643 10.3645 2.09513 8.10322C2.19005 7.66398 2.30615 7.2617 2.44028 6.89551C2.83381 6.06201 3.34689 5.29636 3.9573 4.62083C4.24965 4.38972 4.55927 4.22286 4.87785 4.11794C6.08488 3.72046 7.71941 4.11383 9.4925 5.66721C9.57224 5.73708 9.65176 5.80891 9.73101 5.8827C8.32438 7.54036 7.10812 9.70552 6.28706 12.1998C5.11177 15.7701 4.98735 19.2822 5.74183 21.957ZM11.5552 25.0851C10.958 25.1955 10.4083 25.1596 9.92387 24.9993C8.69549 24.5925 7.60494 23.2911 7.09649 20.9874C6.59631 18.7212 6.74666 15.7627 7.75906 12.6872C8.50399 10.4242 9.58632 8.49079 10.8023 7.02082C12.0325 8.49932 13.1312 10.4519 13.8885 12.7397C14.9066 15.8156 15.0671 18.7713 14.5784 21.0326C14.0811 23.3336 13.0027 24.6203 11.7957 25.0178C11.7173 25.0436 11.6371 25.0661 11.5552 25.0851ZM10.7974 4.75716C9.50564 3.55155 8.1122 2.76261 6.75097 2.50764C7.98781 1.89743 9.3795 1.55471 10.851 1.55471C12.2953 1.55471 13.6627 1.88489 14.8823 2.47411C13.5048 2.73471 12.0976 3.53542 10.7974 4.75716ZM14.9138 29.9865C15.1217 30.3618 14.9869 30.8351 14.6127 31.0436C11.5126 32.7709 8.68459 31.7842 7.58524 30.9966C7.23691 30.7471 7.15623 30.2616 7.40504 29.9122C7.65384 29.5629 8.13791 29.482 8.48624 29.7315C9.19538 30.2395 11.3795 31.0666 13.8599 29.6845C14.2341 29.476 14.706 29.6112 14.9138 29.9865ZM57.3884 15.6056V21.7653H55.3484V6.00683H57.3884V12.5148C58.0829 11.4991 59.1391 10.9912 60.5569 10.9912C61.7578 10.9912 62.6765 11.3758 63.3131 12.1448C63.9641 12.9139 64.2897 13.9079 64.2897 15.1267V21.7653H62.2497V15.475C62.2497 13.7192 61.4395 12.8413 59.8191 12.8413C59.0667 12.8413 58.4808 13.1025 58.0612 13.6249C57.6416 14.1328 57.4174 14.793 57.3884 15.6056ZM42.4841 25.9009H44.5024V20.3506C44.8062 20.8439 45.2547 21.2502 45.8479 21.5695C46.4411 21.8887 47.1211 22.0483 47.8879 22.0483C49.3781 22.0483 50.5572 21.5259 51.4253 20.4812C52.3078 19.4364 52.7491 18.1159 52.7491 16.5198C52.7491 14.9381 52.3223 13.6322 51.4687 12.6019C50.6296 11.5716 49.4577 11.0565 47.953 11.0565C47.1428 11.0565 46.4338 11.2306 45.8262 11.5789C45.2185 11.9272 44.7628 12.377 44.459 12.9284V11.2959H42.4841V25.9009ZM49.8194 13.9079C50.3836 14.5899 50.6657 15.4605 50.6657 16.5198C50.6657 17.6081 50.3836 18.5005 49.8194 19.197C49.2551 19.879 48.51 20.22 47.5841 20.22C46.6581 20.22 45.9058 19.879 45.327 19.197C44.7628 18.5005 44.4807 17.6081 44.4807 16.5198C44.4807 15.4605 44.7628 14.5899 45.327 13.9079C45.9058 13.2113 46.6581 12.8631 47.5841 12.8631C48.5245 12.8631 49.2696 13.2113 49.8194 13.9079ZM35.8128 21.7C36.377 21.4243 36.7966 21.0253 37.0715 20.5029C37.0715 21.0253 37.1004 21.4461 37.1583 21.7653H39.1115C39.0391 21.1559 39.0029 20.5102 39.0029 19.8282V11.2959H36.963V17.6081C36.963 18.4207 36.7532 19.0736 36.3336 19.567C35.914 20.0458 35.2991 20.2853 34.4889 20.2853C33.6787 20.2853 33.0783 20.0313 32.6877 19.5235C32.3115 19.0156 32.1234 18.3699 32.1234 17.5863V11.2959H30.0834V17.891C30.0834 19.1099 30.4379 20.1184 31.1468 20.9165C31.8558 21.7 32.8034 22.0918 33.9898 22.0918C34.6409 22.0918 35.2485 21.9612 35.8128 21.7ZM72.0052 20.2635C71.0938 20.2635 70.3197 19.937 69.6831 19.284C69.061 18.6165 68.7499 17.6951 68.7499 16.5198C68.7499 15.3589 69.061 14.452 69.6831 13.799C70.3197 13.1315 71.0938 12.7978 72.0052 12.7978C72.9167 12.7978 73.6835 13.1315 74.3056 13.799C74.9422 14.452 75.2605 15.3589 75.2605 16.5198C75.2605 17.6951 74.9422 18.6165 74.3056 19.284C73.6835 19.937 72.9167 20.2635 72.0052 20.2635ZM72.0052 10.9695C70.4572 10.9695 69.1767 11.4991 68.164 12.5584C67.1657 13.6031 66.6665 14.9236 66.6665 16.5198C66.6665 18.1304 67.1657 19.4654 68.164 20.5247C69.1623 21.5695 70.4427 22.0918 72.0052 22.0918C73.5678 22.0918 74.8482 21.5695 75.8465 20.5247C76.8448 19.4654 77.3439 18.1304 77.3439 16.5198C77.3439 14.9236 76.8375 13.6031 75.8248 12.5584C74.8265 11.4991 73.5533 10.9695 72.0052 10.9695ZM81.9939 21.7653H79.9539V6.00683H81.9939V21.7653ZM87.4825 19.197C86.9472 18.5005 86.6795 17.6008 86.6795 16.498C86.6795 15.4097 86.9616 14.5246 87.5259 13.8426C88.0901 13.1606 88.8352 12.8196 89.7612 12.8196C90.6871 12.8196 91.4178 13.1533 91.9531 13.8208C92.4884 14.4883 92.7561 15.3662 92.7561 16.4545C92.7561 17.5573 92.4812 18.4642 91.9314 19.1752C91.3816 19.8862 90.651 20.2417 89.7395 20.2417C88.7846 20.2417 88.0323 19.8935 87.4825 19.197ZM92.7778 20.1764V20.3506C92.7778 20.8875 92.8139 21.359 92.8863 21.7653H94.8612C94.7888 21.1849 94.7526 20.5392 94.7526 19.8282V6.00683H92.7344V12.776C92.5318 12.2827 92.1629 11.8691 91.6276 11.5354C91.0922 11.1871 90.3978 11.013 89.5442 11.013C88.0974 11.013 86.911 11.5499 85.985 12.6237C85.0591 13.6829 84.5961 14.9744 84.5961 16.498C84.5961 18.0942 85.0446 19.4219 85.9416 20.4812C86.8531 21.5259 88.054 22.0483 89.5442 22.0483C90.311 22.0483 90.9693 21.8742 91.5191 21.5259C92.0833 21.1632 92.5029 20.7133 92.7778 20.1764Z" fill="#6ADAAB"/>
</svg>
