<?xml version="1.0" encoding="utf-8"?>
<!-- Generator: Adobe Illustrator 27.1.1, SVG Export Plug-In . SVG Version: 6.00 Build 0)  -->
<svg version="1.1" id="Layer_1" xmlns="http://www.w3.org/2000/svg" xmlns:xlink="http://www.w3.org/1999/xlink" x="0px" y="0px"
	 viewBox="0 0 355.96 255.96" style="enable-background:new 0 0 355.96 255.96;" xml:space="preserve">
<style type="text/css">
	.st0{fill:none;}
	.st1{font-family:'TitilliumWeb-Regular';}
	.st2{font-size:135.7494px;}
	.st3{fill:#FF7A7F;}
	.st4{fill:#FFC8DC;}
	.st5{fill:#A3BEDC;}
	.st6{fill:#56B7B5;}
	.st7{fill:#FF9852;}
	.st8{fill:#98E1D0;}
	.st9{fill:#8075B3;}
	.st10{fill:#FFFFFF;}
</style>
<g>
	<rect x="446.9" y="-12.14" class="st0" width="882.18" height="268.11"/>
	<text transform="matrix(1 0 0 1 446.9021 102.7034)"><tspan x="0" y="0" class="st1 st2">Web </tspan><tspan x="0" y="126.28" class="st1 st2">monetization</tspan></text>
</g>
<g>
	<polygon class="st3" points="258.16,193.12 258.16,212.49 23,212.49 23,81.26 54.17,81.27 54.18,60.03 1.77,60.01 1.77,60.04 
		1.76,60.04 1.76,73.64 1.76,81.24 1.76,81.24 1.76,232.46 1.77,232.46 1.77,233.73 258.16,233.73 258.16,233.74 279.4,233.74 
		279.4,193.12 	"/>
	<rect x="23" y="212.49" class="st4" width="58.91" height="21.4"/>
	
		<rect x="-17.15" y="193.74" transform="matrix(-1.836970e-16 1 -1 -1.836970e-16 216.7446 192.1268)" class="st5" width="58.91" height="21.4"/>
	
		<rect x="-17.15" y="134.82" transform="matrix(-1.836970e-16 1 -1 -1.836970e-16 157.8312 133.2134)" class="st6" width="58.91" height="21.4"/>
	<rect x="81.64" y="212.49" class="st7" width="58.91" height="21.4"/>
	<rect x="140.71" y="212.49" class="st8" width="58.91" height="21.4"/>
	<rect x="199.62" y="212.49" class="st9" width="58.91" height="21.4"/>
	
		<rect x="243.33" y="197.8" transform="matrix(-1.836970e-16 1 -1 -1.836970e-16 477.2031 -60.2044)" class="st9" width="50.75" height="21.4"/>
	<g>
		
			<rect x="49.18" y="14.4" transform="matrix(-1 -4.479584e-11 4.479584e-11 -1 376.0099 202.5143)" class="st8" width="277.64" height="173.72"/>
		<path class="st10" d="M87.63,114.67h18.66c2.29,0,4.14-1.85,4.14-4.14V91.88c0-2.29-1.85-4.14-4.14-4.14H87.63
			c-2.29,0-4.14,1.85-4.14,4.14v18.66C83.49,112.82,85.34,114.67,87.63,114.67z"/>
		<circle class="st10" cx="188.01" cy="101.83" r="43.24"/>
		<path class="st10" d="M269.7,114.67h18.66c2.29,0,4.14-1.85,4.14-4.14V91.88c0-2.29-1.85-4.14-4.14-4.14H269.7
			c-2.29,0-4.14,1.85-4.14,4.14v18.66C265.56,112.82,267.41,114.67,269.7,114.67z"/>
	</g>
</g>
</svg>
