<svg xmlns="http://www.w3.org/2000/svg" fill="none" viewBox="0 0 450 416"><path fill="#fff" d="M155.393 292.355c0-12.637-3.884-23.044-11.652-31.221-7.768-8.325-20.714-15.758-38.839-22.3-18.126-6.69-32.223-12.859-42.293-18.509-33.517-18.583-50.276-46.087-50.276-82.51 0-24.679 7.265-44.972 21.794-60.88 14.529-15.907 29.92-24.901 54.807-27.875V0h38.84v49.06c25.03 3.717 44.378 14.718 58.044 33.004 13.666 18.138 20.498 41.776 20.498 70.915h-52.217c0-18.732-4.1-33.45-12.3-44.154-8.055-10.853-19.06-16.28-33.013-16.28-13.81 0-24.599 3.866-32.367 11.597-7.768 7.73-11.652 18.806-11.652 33.227 0 12.934 3.812 23.341 11.436 31.22 7.768 7.731 20.859 15.09 39.272 22.077 18.413 6.987 32.87 13.454 43.371 19.401 10.501 5.947 19.348 12.786 26.54 20.516 7.193 7.582 12.731 16.354 16.615 26.314 3.884 9.961 5.826 21.631 5.826 35.012 0 25.124-7.48 45.492-22.441 61.102-14.816 15.61-32.798 25.05-59.41 27.875v34.268H88.934v-34.268c-28.482-3.271-50.42-13.826-65.812-31.666C7.874 331.38.25 307.742.25 278.305h52.434c0 18.733 4.531 33.228 13.594 43.486 9.206 10.258 22.153 15.387 38.839 15.387 16.399 0 28.842-4.089 37.33-12.265 8.631-8.177 12.946-19.03 12.946-32.558ZM277.02 172.981h34.596v103.788H277.02zm69.191-34.596h34.596v172.981h-34.596zm69.193-34.597H450v242.173h-34.596z" opacity=".1"/></svg>
