<svg xmlns="http://www.w3.org/2000/svg" fill="none" viewBox="0 0 26 34"><path fill="#6ADAAB" d="M8.84 21.657c0-.72-.222-1.313-.664-1.779-.443-.474-1.18-.898-2.213-1.27-1.033-.381-1.836-.733-2.41-1.055-1.91-1.059-2.865-2.626-2.865-4.7 0-1.407.414-2.563 1.242-3.47.828-.906 1.705-1.418 3.123-1.588V5h2.213v2.795c1.426.212 2.528.839 3.307 1.88.779 1.034 1.168 2.38 1.168 4.041H8.766c0-1.067-.234-1.906-.701-2.516-.459-.618-1.086-.927-1.881-.927-.787 0-1.402.22-1.844.66-.443.441-.664 1.072-.664 1.894 0 .737.217 1.33.652 1.778.442.441 1.188.86 2.237 1.258 1.05.399 1.873.767 2.471 1.106a6.252 6.252 0 0 1 1.512 1.169c.41.432.726.931.947 1.499.221.567.332 1.232.332 1.995 0 1.431-.426 2.592-1.279 3.481-.844.89-1.868 1.428-3.385 1.588v1.953h-2.11V26.7c-1.623-.186-2.873-.787-3.75-1.804C.434 23.881 0 22.534 0 20.857h2.987c0 1.067.259 1.893.775 2.477.525.585 1.262.877 2.213.877.934 0 1.643-.233 2.127-.699.492-.466.737-1.084.737-1.855ZM15.769 14.856h1.971v5.913h-1.971zM19.711 12.885h1.971v9.856h-1.971zM23.654 10.914h1.971v13.798h-1.971z"/></svg>
