<svg xmlns="http://www.w3.org/2000/svg" fill="none" viewBox="0 0 120 120"><rect width="114" height="114" x="3" y="3" stroke="#6ADAAB" stroke-width="6" rx="57"/><path fill="#6ADAAB" d="M52.422 72.252c0-1.826-.561-3.33-1.684-4.512-1.123-1.203-2.994-2.277-5.613-3.222-2.62-.967-4.657-1.86-6.112-2.676-4.845-2.685-7.267-6.66-7.267-11.924 0-3.567 1.05-6.5 3.15-8.799 2.1-2.299 4.324-3.599 7.921-4.029V30h5.613v7.09c3.618.538 6.414 2.127 8.39 4.77 1.974 2.622 2.962 6.038 2.962 10.25h-7.547c0-2.708-.593-4.835-1.778-6.382-1.164-1.569-2.754-2.353-4.77-2.353-1.997 0-3.556.559-4.679 1.676-1.122 1.117-1.684 2.718-1.684 4.802 0 1.87.551 3.373 1.653 4.512 1.123 1.117 3.015 2.181 5.676 3.191 2.66 1.01 4.75 1.944 6.268 2.804 1.518.86 2.796 1.848 3.836 2.965a11.58 11.58 0 0 1 2.401 3.803c.561 1.44.842 3.126.842 5.06 0 3.631-1.081 6.575-3.243 8.83-2.142 2.257-4.74 3.621-8.587 4.03V90h-5.353v-4.953c-4.116-.472-7.287-1.998-9.511-4.576C31.102 77.893 30 74.476 30 70.222h7.578c0 2.707.655 4.802 1.965 6.285 1.33 1.482 3.201 2.224 5.613 2.224 2.37 0 4.168-.591 5.395-1.773 1.247-1.182 1.871-2.75 1.871-4.706ZM70 55h5v15h-5zM80 50h5v25h-5zM90 45h5v35h-5z"/></svg>
