<svg xmlns="http://www.w3.org/2000/svg" xml:space="preserve" id="Layer_1" x="0" y="0" version="1.1" viewBox="0 0 355.96 255.96"><style>@keyframes blink{0%,30%{opacity:1}10%{opacity:0}}.st10{fill:#fff}</style><path fill="#ff7a7f" d="M258.16 193.12v19.37H23V81.26l31.17.01.01-21.24-52.41-.02v.03h-.01v172.42h.01v1.27h256.39v.01h21.24v-40.62z" style="--animation-order:1;animation:blink 2s infinite;animation-delay:calc(var(--animation-order)*100ms)"/><path fill="#ffc8dc" d="M23 212.49h58.91v21.4H23z" style="--animation-order:4;animation:blink 2s infinite;animation-delay:calc(var(--animation-order)*100ms)"/><path fill="#a3bedc" d="M-17.15 193.74h58.91v21.4h-58.91z" style="--animation-order:3;animation:blink 2s infinite;animation-delay:calc(var(--animation-order)*100ms)" transform="rotate(90 12.309 204.436)"/><path fill="#56b7b5" d="M-17.15 134.82h58.91v21.4h-58.91z" style="--animation-order:2;animation:blink 2s infinite;animation-delay:calc(var(--animation-order)*100ms)" transform="rotate(90 12.309 145.522)"/><path fill="#ff9852" d="M81.64 212.49h58.91v21.4H81.64z" style="--animation-order:5;animation:blink 2s infinite;animation-delay:calc(var(--animation-order)*100ms)"/><path fill="#98e1d0" d="M140.71 212.49h58.91v21.4h-58.91z" style="--animation-order:6;animation:blink 2s infinite;animation-delay:calc(var(--animation-order)*100ms)"/><path fill="#8075b3" d="M199.62 212.49h58.91v21.4h-58.91z" style="--animation-order:7;animation:blink 2s infinite;animation-delay:calc(var(--animation-order)*100ms)"/><path fill="#8075b3" d="M243.33 197.8h50.75v21.4h-50.75z" style="--animation-order:7;animation:blink 2s infinite;animation-delay:calc(var(--animation-order)*100ms)" transform="rotate(90 268.704 208.5)"/><path fill="#98e1d0" d="M326.83 188.114H49.19V14.394h277.64z"/><path d="M87.63 114.67h18.66c2.29 0 4.14-1.85 4.14-4.14V91.88c0-2.29-1.85-4.14-4.14-4.14H87.63c-2.29 0-4.14 1.85-4.14 4.14v18.66c0 2.28 1.85 4.13 4.14 4.13z" class="st10"/><circle cx="188.01" cy="101.83" r="43.24" class="st10"/><path d="M269.7 114.67h18.66c2.29 0 4.14-1.85 4.14-4.14V91.88c0-2.29-1.85-4.14-4.14-4.14H269.7c-2.29 0-4.14 1.85-4.14 4.14v18.66c0 2.28 1.85 4.13 4.14 4.13z" class="st10"/></svg>
