<svg xmlns="http://www.w3.org/2000/svg" fill="none" viewBox="0 0 443 299"><path fill="#3E4248" d="M349.1 233.33v36.39H28.93V91.03l42.43.02.01-28.91L.02 62.1v.05H.01v18.52L0 91.01h.01v205.88h.01v1.74H349.1v.01h28.92v-65.31H349.1Z"/><path fill="#3E4248" d="M64.57 0v236.52h378.02V0H64.57Zm83.38 123.05c0 7.44-6.03 13.48-13.48 13.48h-9.72c-7.44 0-13.48-6.03-13.48-13.48v-9.72c0-7.44 6.03-13.48 13.48-13.48h9.72c7.44 0 13.48 6.03 13.48 13.48v9.72Zm105.64 54.86c-32.51 0-58.87-26.36-58.87-58.87s26.36-58.87 58.87-58.87 58.87 26.36 58.87 58.87-26.36 58.87-58.87 58.87Zm142.26-54.86c0 7.44-6.03 13.48-13.48 13.48h-9.72c-7.44 0-13.48-6.03-13.48-13.48v-9.72c0-7.44 6.03-13.48 13.48-13.48h9.72c7.44 0 13.48 6.03 13.48 13.48v9.72Z"/></svg>
