<?xml version="1.0" encoding="UTF-8" standalone="no"?><!-- Generator: Gravit.io --><svg xmlns="http://www.w3.org/2000/svg" xmlns:xlink="http://www.w3.org/1999/xlink" style="isolation:isolate" viewBox="0 0 420 298" width="420pt" height="298pt"><defs><clipPath id="_clipPath_zghb83GdwuIokKdkrEkBC0eropMCU2fi"><rect width="420" height="298"/></clipPath></defs><g clip-path="url(#_clipPath_zghb83GdwuIokKdkrEkBC0eropMCU2fi)"><g><g><mask id="_mask_f8DQ04pJqlt1n6m0R4nPD0WdYrlnw5VL" x="-200%" y="-200%" width="400%" height="400%"><rect x="-200%" y="-200%" width="400%" height="400%" style="fill:white;"/><line x1="210.001" y1="125.712" x2="210.001" y2="164.806" fill="black" stroke="none"/></mask><line x1="210.001" y1="125.712" x2="210.001" y2="164.806" mask="url(#_mask_f8DQ04pJqlt1n6m0R4nPD0WdYrlnw5VL)" vector-effect="non-scaling-stroke" stroke-width="16.34" stroke="rgb(0,0,0)" stroke-linejoin="round" stroke-linecap="square" stroke-miterlimit="1.5"/></g><g><mask id="_mask_o2NLBJf39348NLXaWYdSId6BTrZ2bhkD" x="-200%" y="-200%" width="400%" height="400%"><rect x="-200%" y="-200%" width="400%" height="400%" style="fill:white;"/><line x1="190.453" y1="145.259" x2="229.547" y2="145.259" fill="black" stroke="none"/></mask><line x1="190.453" y1="145.259" x2="229.547" y2="145.259" mask="url(#_mask_o2NLBJf39348NLXaWYdSId6BTrZ2bhkD)" vector-effect="non-scaling-stroke" stroke-width="16.34" stroke="rgb(0,0,0)" stroke-linejoin="round" stroke-linecap="square" stroke-miterlimit="1.5"/></g></g><g><g><mask id="_mask_n67h2lb18CPBK0jRQFE1GqPqV3YuChFR" x="-200%" y="-200%" width="400%" height="400%"><rect x="-200%" y="-200%" width="400%" height="400%" style="fill:white;"/><path d=" M 382.045 142.759 C 382.045 111.3 356.504 85.759 325.045 85.759 C 293.585 85.759 268.045 111.3 268.045 142.759 C 268.045 174.218 293.585 199.759 325.045 199.759 C 356.504 199.759 382.045 174.218 382.045 142.759 Z " fill-rule="evenodd" fill="black" stroke="none"/></mask><path d=" M 382.045 142.759 C 382.045 111.3 356.504 85.759 325.045 85.759 C 293.585 85.759 268.045 111.3 268.045 142.759 C 268.045 174.218 293.585 199.759 325.045 199.759 C 356.504 199.759 382.045 174.218 382.045 142.759 Z " fill-rule="evenodd" fill="none" mask="url(#_mask_n67h2lb18CPBK0jRQFE1GqPqV3YuChFR)" vector-effect="non-scaling-stroke" stroke-width="12" stroke="rgb(106,218,171)" stroke-opacity="100" stroke-linejoin="miter" stroke-linecap="butt" stroke-miterlimit="4"/><path d=" M 382.045 142.759 C 382.045 111.3 356.504 85.759 325.045 85.759 C 293.585 85.759 268.045 111.3 268.045 142.759 C 268.045 174.218 293.585 199.759 325.045 199.759 C 356.504 199.759 382.045 174.218 382.045 142.759 Z " fill-rule="evenodd" fill="none"/></g><g><path d=" M 317.467 155.012 C 317.467 153.185 316.905 151.681 315.782 150.499 C 314.66 149.296 312.789 148.222 310.17 147.277 C 307.549 146.31 305.513 145.418 304.057 144.601 C 299.213 141.916 296.79 137.941 296.79 132.677 C 296.79 129.11 297.84 126.177 299.941 123.878 C 302.04 121.579 304.265 120.279 307.862 119.849 L 307.862 112.759 L 313.475 112.759 L 313.475 119.849 C 317.093 120.387 319.888 121.977 321.864 124.619 C 323.838 127.241 324.826 130.657 324.826 134.868 L 317.28 134.868 C 317.28 132.161 316.686 130.034 315.501 128.487 C 314.338 126.918 312.747 126.134 310.73 126.134 C 308.734 126.134 307.175 126.693 306.052 127.81 C 304.931 128.927 304.369 130.528 304.369 132.612 C 304.369 134.481 304.92 135.986 306.021 137.124 C 307.145 138.242 309.037 139.305 311.698 140.315 C 314.359 141.325 316.448 142.259 317.965 143.119 C 319.484 143.978 320.761 144.967 321.802 146.084 C 322.84 147.18 323.641 148.448 324.203 149.887 C 324.763 151.327 325.045 153.013 325.045 154.947 C 325.045 158.578 323.963 161.522 321.802 163.778 C 319.66 166.034 317.061 167.398 313.215 167.807 L 313.215 172.759 L 307.862 172.759 L 307.862 167.807 C 303.746 167.334 300.574 165.808 298.35 163.23 C 296.146 160.652 295.045 157.235 295.045 152.981 L 302.622 152.981 C 302.622 155.688 303.278 157.783 304.588 159.266 C 305.917 160.748 307.789 161.49 310.201 161.49 C 312.571 161.49 314.369 160.899 315.595 159.717 C 316.843 158.535 317.467 156.967 317.467 155.012 Z " fill="rgb(106,218,171)"/></g><g><rect x="335.045" y="137.759" width="5" height="15" transform="matrix(1,0,0,1,0,0)" fill="rgb(106,218,171)"/></g><g><rect x="345.045" y="132.759" width="5" height="25" transform="matrix(1,0,0,1,0,0)" fill="rgb(106,218,171)"/></g><g><rect x="355.045" y="127.759" width="5" height="35" transform="matrix(1,0,0,1,0,0)" fill="rgb(106,218,171)"/></g></g><g><path d=" M 40.704 177.389 C 41.544 177.389 42.238 177.683 42.826 178.271 C 43.415 178.86 43.709 179.574 43.709 180.394 L 43.709 190.816 L 33.055 190.816 C 32.214 190.816 31.521 190.522 30.933 189.934 C 30.344 189.345 30.05 188.631 30.05 187.811 L 30.05 182.852 L 41.208 182.852 L 41.208 180.394 C 41.208 180.247 41.166 180.142 41.061 180.036 C 40.956 179.931 40.851 179.889 40.704 179.889 L 30.05 179.889 L 30.05 177.389 L 40.704 177.389 Z  M 41.208 188.316 L 41.208 185.353 L 32.551 185.353 L 32.551 187.811 C 32.551 187.959 32.593 188.064 32.698 188.169 C 32.803 188.274 32.908 188.316 33.055 188.316 L 41.208 188.316 L 41.208 188.316 Z  M 65.311 177.389 L 67.979 177.389 L 62.936 190.816 L 60.898 190.816 L 56.38 180.835 L 52.114 190.816 L 52.072 190.795 L 52.093 190.816 L 50.076 190.816 L 44.801 177.389 L 47.449 177.389 L 51.085 186.298 L 54.951 177.389 L 57.809 177.389 L 61.906 186.298 L 65.311 177.389 Z  M 79.432 177.389 C 80.272 177.389 80.966 177.683 81.554 178.271 C 82.142 178.86 82.437 179.574 82.437 180.394 L 82.437 185.353 L 71.278 185.353 L 71.278 187.811 C 71.278 187.959 71.321 188.064 71.426 188.169 C 71.531 188.274 71.636 188.316 71.783 188.316 L 82.437 188.316 L 82.437 190.816 L 71.783 190.816 C 70.942 190.816 70.249 190.522 69.66 189.934 C 69.072 189.345 68.778 188.631 68.778 187.811 L 68.778 180.394 C 68.778 179.553 69.072 178.86 69.66 178.271 C 70.249 177.683 70.963 177.389 71.783 177.389 L 79.432 177.389 L 79.432 177.389 Z  M 71.278 182.852 L 79.936 182.852 L 79.936 180.394 C 79.936 180.247 79.894 180.142 79.789 180.036 C 79.684 179.931 79.579 179.889 79.432 179.889 L 71.783 179.889 C 71.636 179.889 71.531 179.931 71.426 180.036 C 71.321 180.142 71.278 180.247 71.278 180.394 L 71.278 182.852 L 71.278 182.852 Z  M 98.386 180.415 L 98.386 180.919 L 95.885 180.919 L 95.885 180.415 C 95.885 180.268 95.843 180.163 95.738 180.057 C 95.633 179.952 95.528 179.91 95.381 179.91 L 87.732 179.91 C 87.585 179.91 87.48 179.952 87.375 180.057 C 87.27 180.163 87.228 180.268 87.228 180.415 L 87.228 182.369 C 87.228 182.516 87.27 182.621 87.375 182.726 C 87.48 182.831 87.585 182.873 87.732 182.873 L 95.381 182.873 C 96.222 182.873 96.915 183.167 97.503 183.756 C 98.092 184.344 98.386 185.059 98.386 185.878 L 98.386 187.832 C 98.386 188.673 98.092 189.366 97.503 189.955 C 96.915 190.543 96.201 190.837 95.381 190.837 L 87.732 190.837 C 86.892 190.837 86.198 190.543 85.61 189.955 C 85.021 189.366 84.727 188.652 84.727 187.832 L 84.727 187.328 L 87.228 187.328 L 87.228 187.832 C 87.228 187.98 87.27 188.085 87.375 188.19 C 87.48 188.295 87.585 188.337 87.732 188.337 L 95.381 188.337 C 95.528 188.337 95.633 188.295 95.738 188.19 C 95.843 188.085 95.885 187.98 95.885 187.832 L 95.885 185.878 C 95.885 185.731 95.843 185.626 95.738 185.521 C 95.633 185.416 95.528 185.374 95.381 185.374 L 87.732 185.374 C 86.892 185.374 86.198 185.08 85.61 184.491 C 85.021 183.903 84.727 183.188 84.727 182.369 L 84.727 180.415 C 84.727 179.574 85.021 178.881 85.61 178.292 C 86.198 177.704 86.913 177.41 87.732 177.41 L 95.381 177.41 C 96.222 177.41 96.915 177.704 97.503 178.292 C 98.092 178.86 98.386 179.574 98.386 180.415 Z  M 103.681 177.389 L 111.33 177.389 C 112.171 177.389 112.864 177.683 113.453 178.271 C 114.041 178.86 114.335 179.574 114.335 180.394 L 114.335 187.811 C 114.335 188.652 114.041 189.345 113.453 189.934 C 112.864 190.522 112.15 190.816 111.33 190.816 L 103.681 190.816 C 102.841 190.816 102.147 190.522 101.559 189.934 C 100.971 189.345 100.676 188.631 100.676 187.811 L 100.676 180.394 C 100.676 179.553 100.971 178.86 101.559 178.271 C 102.147 177.683 102.862 177.389 103.681 177.389 L 103.681 177.389 Z  M 111.33 179.889 L 103.681 179.889 C 103.534 179.889 103.429 179.931 103.324 180.036 C 103.219 180.142 103.177 180.247 103.177 180.394 L 103.177 187.811 C 103.177 187.959 103.219 188.064 103.324 188.169 C 103.429 188.274 103.534 188.316 103.681 188.316 L 111.33 188.316 C 111.477 188.316 111.582 188.274 111.687 188.169 C 111.793 188.064 111.835 187.959 111.835 187.811 L 111.835 180.394 C 111.835 180.247 111.793 180.142 111.687 180.036 C 111.582 179.952 111.477 179.889 111.33 179.889 Z  M 133.92 177.389 C 134.76 177.389 135.454 177.683 136.042 178.271 C 136.63 178.86 136.925 179.574 136.925 180.394 L 136.925 190.816 L 134.445 190.816 L 134.445 180.394 C 134.445 180.247 134.403 180.142 134.298 180.036 C 134.193 179.931 134.067 179.889 133.92 179.889 L 128.624 179.889 C 128.477 179.889 128.372 179.931 128.267 180.036 C 128.162 180.142 128.12 180.247 128.12 180.394 L 128.12 190.816 L 125.619 190.816 L 125.619 180.394 C 125.619 180.247 125.577 180.142 125.472 180.036 C 125.367 179.931 125.262 179.889 125.115 179.889 L 119.799 179.889 C 119.652 179.889 119.547 179.931 119.441 180.036 C 119.336 180.142 119.294 180.247 119.294 180.394 L 119.294 190.816 L 116.794 190.816 L 116.794 177.389 L 133.92 177.389 Z  M 149.995 177.389 C 150.836 177.389 151.529 177.683 152.117 178.271 C 152.706 178.86 153 179.574 153 180.394 L 153 185.353 L 141.842 185.353 L 141.842 187.811 C 141.842 187.959 141.884 188.064 141.989 188.169 C 142.094 188.274 142.199 188.316 142.346 188.316 L 153 188.316 L 153 190.816 L 142.346 190.816 C 141.506 190.816 140.812 190.522 140.224 189.934 C 139.635 189.345 139.341 188.631 139.341 187.811 L 139.341 180.394 C 139.341 179.553 139.635 178.86 140.224 178.271 C 140.812 177.683 141.527 177.389 142.346 177.389 L 149.995 177.389 L 149.995 177.389 Z  M 141.842 182.852 L 150.499 182.852 L 150.499 180.394 C 150.499 180.247 150.457 180.142 150.352 180.036 C 150.247 179.931 150.142 179.889 149.995 179.889 L 142.346 179.889 C 142.199 179.889 142.094 179.931 141.989 180.036 C 141.884 180.142 141.842 180.247 141.842 180.394 L 141.842 182.852 L 141.842 182.852 Z " fill="rgb(73,67,104)"/><path d=" M 152.979 128.616 L 121.459 99.702 L 117.025 104.535 L 143.292 128.616 L 39.758 128.616 L 66.025 104.514 L 61.591 99.681 L 30.071 128.616 L 30.05 128.616 L 30.05 147.676 C 30.05 156.291 38.35 163.31 48.542 163.31 L 67.979 163.31 C 78.171 163.31 86.471 156.291 86.471 147.676 L 86.471 135.152 L 96.558 135.152 L 96.558 147.676 C 96.558 156.291 104.858 163.31 115.05 163.31 L 134.487 163.31 C 144.679 163.31 152.979 156.291 152.979 147.676 L 152.979 128.616 Z " fill="rgb(252,96,168)"/></g></g></svg>