<svg width="450" height="416" viewBox="0 0 450 416" fill="none" xmlns="http://www.w3.org/2000/svg">
<g opacity="0.1">
<path d="M155.393 292.355C155.393 279.718 151.509 269.311 143.741 261.134C135.973 252.809 123.027 245.376 104.902 238.834C86.7763 232.144 72.679 225.975 62.6094 220.325C29.0921 201.742 12.3335 174.238 12.3335 137.815C12.3335 113.136 19.598 92.8428 34.1269 76.9354C48.6558 61.028 64.0479 52.0336 88.9341 49.0603V0H127.774V49.0603C152.804 52.7769 172.152 63.7783 185.818 82.0644C199.484 100.202 206.316 123.84 206.316 152.979H154.099C154.099 134.247 149.999 119.529 141.799 108.825C133.744 97.9719 122.739 92.5455 108.786 92.5455C94.9759 92.5455 84.187 96.4108 76.4191 104.142C68.6511 111.872 64.7672 122.948 64.7672 137.369C64.7672 150.303 68.5792 160.71 76.2033 168.589C83.9713 176.32 97.0617 183.679 115.475 190.666C133.888 197.653 148.345 204.12 158.846 210.067C169.347 216.014 178.194 222.853 185.386 230.583C192.579 238.165 198.117 246.937 202.001 256.897C205.885 266.858 207.827 278.528 207.827 291.909C207.827 317.033 200.347 337.401 185.386 353.011C170.57 368.621 152.588 378.061 125.976 380.886V415.154H88.9341V380.886C60.4516 377.615 38.5144 367.06 23.1223 349.22C7.8741 331.38 0.25 307.742 0.25 278.305H52.6837C52.6837 297.038 57.215 311.533 66.2776 321.791C75.484 332.049 88.4306 337.178 105.117 337.178C121.516 337.178 133.959 333.089 142.447 324.913C151.078 316.736 155.393 305.883 155.393 292.355Z" fill="white"/>
<rect x="277.02" y="172.981" width="34.5962" height="103.788" fill="white"/>
<rect x="346.211" y="138.385" width="34.5962" height="172.981" fill="white"/>
<rect x="415.404" y="103.788" width="34.5962" height="242.173" fill="white"/>
</g>
</svg>
