<?xml version="1.0" encoding="UTF-8" standalone="no"?>
<!DOCTYPE svg PUBLIC "-//W3C//DTD SVG 1.1//EN" "http://www.w3.org/Graphics/SVG/1.1/DTD/svg11.dtd">
<svg width="100%" height="100%" viewBox="0 0 420 298" version="1.1" xmlns="http://www.w3.org/2000/svg" xmlns:xlink="http://www.w3.org/1999/xlink" xml:space="preserve" xmlns:serif="http://www.serif.com/" style="fill-rule:evenodd;clip-rule:evenodd;stroke-linecap:square;stroke-linejoin:round;stroke-miterlimit:1.5;">
    <g transform="matrix(1,0,0,1,-0.4615,1.9721)">
        <g transform="matrix(1,0,0,1,10,0)">
            <path d="M200.462,123.74L200.462,162.834" style="fill:none;stroke:black;stroke-width:8.17px;"/>
        </g>
        <g transform="matrix(6.12323e-17,-1,1,6.12323e-17,67.1745,343.749)">
            <path d="M200.462,123.74L200.462,162.834" style="fill:none;stroke:black;stroke-width:8.17px;"/>
        </g>
    </g>
    <g transform="matrix(1,0,0,1,-1.24435,-8.864)">
        <g transform="matrix(0.232641,0,0,0.232641,36.4658,92.3079)">
            <path d="M512,256C512,114.71 397.29,0 256,0C114.71,0 0,114.71 0,256C0,397.29 114.71,512 256,512C397.29,512 512,397.29 512,256Z" style="fill:rgb(0,166,114);"/>
        </g>
        <g transform="matrix(0.232641,0,0,0.232641,36.4658,92.3079)">
            <path d="M84.097,256.159C84.507,360.915 170.485,430.139 257.416,428C360.034,424.338 434.165,335.203 428,255.638C426.571,239.112 411.913,226.303 395.355,227.098C378.796,227.892 366.016,241.957 366.811,258.514C369.13,306.869 324.537,366.093 255.939,367.993C201.45,369.333 146.897,326.55 144.508,259.967C143.871,275.404 131.701,288.008 115.983,288.635C99.419,289.296 84.852,275.93 84.191,259.368C84.148,258.298 84.117,257.229 84.097,256.159Z" style="fill:url(#_Linear1);"/>
        </g>
        <g transform="matrix(0.232641,0,0,0.232641,36.4658,92.3079)">
            <path d="M225.554,257.78C225.554,240.785 239.348,227.008 256.345,227.008C273.342,227.008 287.137,240.785 287.137,257.78C287.137,274.775 273.342,288.552 256.345,288.552C239.348,288.552 225.554,274.775 225.554,257.78Z" style="fill:white;fill-rule:nonzero;"/>
        </g>
        <g transform="matrix(0.232641,0,0,0.232641,36.4658,92.3079)">
            <path d="M320.368,257.735C320.368,240.765 334.25,227.008 351.375,227.008L396.563,227.008C413.688,227.008 428,240.765 428,257.735C428,274.705 413.688,288.462 396.563,288.462L351.375,288.462C334.25,288.462 320.368,274.705 320.368,257.735Z" style="fill:white;fill-rule:nonzero;"/>
        </g>
        <g transform="matrix(0.232641,0,0,0.232641,36.4658,92.3079)">
            <path d="M286.284,114.008C286.971,130.569 274.102,144.552 257.538,145.24C186.036,148.209 142.385,204.243 144.51,257.449C145.171,274.011 132.548,287.974 115.983,288.635C99.419,289.296 84.852,275.93 84.191,259.367C80.728,172.664 153.133,86.95 255.047,85.267C271.611,84.579 285.596,97.447 286.284,114.008Z" style="fill:white;"/>
        </g>
    </g>
    <g transform="matrix(1,0,0,1,-94.3065,-55.7409)">
        <g transform="matrix(1,0,0,1,359.351,138.5)">
            <path d="M117,60C117,28.541 91.459,3 60,3C28.541,3 3,28.541 3,60C3,91.459 28.541,117 60,117C91.459,117 117,91.459 117,60Z" style="fill:none;stroke:rgb(106,218,171);stroke-width:6px;stroke-linecap:butt;stroke-linejoin:miter;stroke-miterlimit:4;"/>
        </g>
        <g transform="matrix(1,0,0,1,359.351,138.5)">
            <path d="M52.422,72.253C52.422,70.426 51.861,68.922 50.738,67.74C49.615,66.537 47.744,65.463 45.125,64.518C42.505,63.551 40.468,62.659 39.013,61.842C34.168,59.157 31.746,55.182 31.746,49.918C31.746,46.351 32.796,43.418 34.896,41.119C36.996,38.82 39.22,37.52 42.817,37.09L42.817,30L48.43,30L48.43,37.09C52.048,37.628 54.844,39.218 56.819,41.86C58.794,44.482 59.782,47.898 59.782,52.109L52.235,52.109C52.235,49.402 51.642,47.275 50.457,45.728C49.293,44.159 47.703,43.375 45.686,43.375C43.69,43.375 42.131,43.934 41.008,45.051C39.886,46.168 39.324,47.769 39.324,49.853C39.324,51.722 39.875,53.227 40.977,54.365C42.1,55.483 43.992,56.546 46.653,57.556C49.314,58.566 51.403,59.5 52.921,60.36C54.439,61.219 55.717,62.208 56.757,63.325C57.796,64.421 58.597,65.689 59.158,67.128C59.719,68.568 60,70.254 60,72.188C60,75.819 58.919,78.763 56.757,81.019C54.615,83.275 52.017,84.639 48.17,85.048L48.17,90L42.817,90L42.817,85.048C38.701,84.575 35.53,83.049 33.306,80.471C31.102,77.893 30,74.476 30,70.222L37.578,70.222C37.578,72.929 38.233,75.024 39.543,76.507C40.873,77.989 42.744,78.731 45.156,78.731C47.526,78.731 49.324,78.14 50.551,76.958C51.798,75.776 52.422,74.208 52.422,72.253Z" style="fill:rgb(106,218,171);fill-rule:nonzero;"/>
        </g>
        <g transform="matrix(1,0,0,1,359.351,138.5)">
            <rect x="70" y="55" width="5" height="15" style="fill:rgb(106,218,171);"/>
        </g>
        <g transform="matrix(1,0,0,1,359.351,138.5)">
            <rect x="80" y="50" width="5" height="25" style="fill:rgb(106,218,171);"/>
        </g>
        <g transform="matrix(1,0,0,1,359.351,138.5)">
            <rect x="90" y="45" width="5" height="35" style="fill:rgb(106,218,171);"/>
        </g>
    </g>
    <defs>
        <linearGradient id="_Linear1" x1="0" y1="0" x2="1" y2="0" gradientUnits="userSpaceOnUse" gradientTransform="matrix(1.18723e-14,-193.89,193.89,1.18723e-14,263.862,445.388)"><stop offset="0" style="stop-color:white;stop-opacity:0.95"/><stop offset="1" style="stop-color:white;stop-opacity:0.5"/></linearGradient>
    </defs>
</svg>
