<svg width="180" height="180" viewBox="0 0 180 180" fill="none" xmlns="http://www.w3.org/2000/svg">
<path d="M90 80.0189V96.7735" stroke="black" stroke-width="3.52" stroke-miterlimit="1.5" stroke-linecap="square" stroke-linejoin="round"/>
<path d="M81.6176 88.396H98.3721" stroke="black" stroke-width="3.52" stroke-miterlimit="1.5" stroke-linecap="square" stroke-linejoin="round"/>
<g clip-path="url(#clip0)">
<path d="M51.9419 75.5312L46.6548 70.2441L41.3677 75.5312L40.3102 78.7035L23.614 95.3997L20.4417 96.4572L17.2694 99.6295C14.3543 102.545 14.3543 107.288 17.2694 110.204C20.1846 113.119 24.9285 113.119 27.8436 110.204L57.229 80.8183L51.9419 75.5312Z" fill="#FABE2C"/>
<path d="M27.8444 110.204L57.2296 80.8183L51.9425 75.5312L17.2701 110.204C20.1852 113.119 24.9292 113.119 27.8444 110.204V110.204Z" fill="#FF9100"/>
<path d="M65.689 74.4726L59.3445 68.1281L52.9999 61.7835C52.4154 61.199 51.4695 61.199 50.8851 61.7835L44.5406 68.1281C43.956 68.7126 43.956 69.6585 44.5406 70.2429L50.8851 76.5874L57.2297 82.932C57.8142 83.5165 58.7601 83.5165 59.3445 82.932L65.689 76.5874C66.2735 76.003 66.2735 75.0571 65.689 74.4726V74.4726Z" fill="#F3FBFF"/>
<path d="M59.3444 82.9331L65.689 76.5886C66.2735 76.0041 66.2735 75.0582 65.689 74.4738L59.3444 68.1292L50.8851 76.5886L57.2296 82.9331C57.8141 83.5176 58.76 83.5176 59.3444 82.9331Z" fill="#E0F4FE"/>
<path d="M51.9393 64.953L54.0539 67.0675L49.8248 71.2965L47.7103 69.182L51.9393 64.953Z" fill="#E0F4FE"/>
<path d="M60.3986 73.4104L62.5131 75.525L58.2841 79.754L56.1696 77.6395L60.3986 73.4104Z" fill="#B7E4F8"/>
<path d="M46.6554 80.8183L41.3683 75.5312L20.4424 96.4572L25.7295 101.744C26.314 102.329 27.2599 102.329 27.8443 101.744L46.6554 82.9331C47.24 82.3486 47.24 81.4027 46.6554 80.8183V80.8183Z" fill="#F3FBFF"/>
<path d="M27.8444 101.744L46.6556 82.9331C47.2401 82.3486 47.2401 81.4027 46.6556 80.8183L25.7295 101.744C26.314 102.329 27.2599 102.329 27.8444 101.744V101.744Z" fill="#E0F4FE"/>
<path d="M57.2297 70.2441L56.1723 69.1866L51.9426 73.4164L53 74.4737L54.0574 75.5312L58.2871 71.3015L57.2297 70.2441Z" fill="#E0F4FE"/>
<path d="M52.9948 74.4767L57.2238 70.2476L58.2811 71.3049L54.0521 75.5339L52.9948 74.4767Z" fill="#B7E4F8"/>
</g>
<path fill-rule="evenodd" clip-rule="evenodd" d="M163.73 87.3253C163.73 73.8429 152.784 62.8967 139.302 62.8967C125.819 62.8967 114.873 73.8429 114.873 87.3253C114.873 100.808 125.819 111.754 139.302 111.754C152.784 111.754 163.73 100.808 163.73 87.3253Z" stroke="#6ADAAB" stroke-width="3.01"/>
<path d="M136.051 92.5765C136.051 91.7935 135.811 91.1489 135.329 90.6424C134.848 90.1268 134.046 89.6665 132.924 89.2615C131.801 88.8471 130.928 88.4648 130.304 88.1146C128.228 86.9639 127.19 85.2604 127.19 83.0044C127.19 81.4756 127.64 80.2186 128.54 79.2334C129.44 78.2481 130.393 77.6909 131.935 77.5067V74.4681H134.34V77.5067C135.891 77.7372 137.089 78.4187 137.936 79.5509C138.782 80.6747 139.205 82.1387 139.205 83.9434H135.971C135.971 82.7832 135.717 81.8717 135.209 81.2087C134.71 80.5362 134.029 80.2002 133.164 80.2002C132.309 80.2002 131.641 80.4398 131.159 80.9185C130.679 81.3972 130.438 82.0834 130.438 82.9765C130.438 83.7775 130.674 84.4225 131.146 84.9102C131.627 85.3894 132.438 85.8449 133.579 86.2778C134.719 86.7107 135.614 87.1109 136.265 87.4795C136.916 87.8477 137.463 88.2715 137.909 88.7502C138.354 89.2199 138.698 89.7634 138.938 90.3801C139.178 90.9972 139.299 91.7198 139.299 92.5487C139.299 94.1048 138.836 95.3665 137.909 96.3334C136.991 97.3002 135.878 97.8848 134.229 98.0601V100.182H131.935V98.0601C130.171 97.8574 128.812 97.2034 127.859 96.0985C126.914 94.9937 126.442 93.5292 126.442 91.7061H129.689C129.689 92.8662 129.97 93.7641 130.532 94.3997C131.102 95.0348 131.903 95.3528 132.937 95.3528C133.953 95.3528 134.723 95.0995 135.249 94.5929C135.784 94.0864 136.051 93.4144 136.051 92.5765Z" fill="#6ADAAB"/>
<path d="M145.734 85.1825H143.591V91.6111H145.734V85.1825Z" fill="#6ADAAB"/>
<path d="M150.019 83.0402H147.876V93.7544H150.019V83.0402Z" fill="#6ADAAB"/>
<path d="M154.304 80.8978H152.161V95.8978H154.304V80.8978Z" fill="#6ADAAB"/>
<defs>
<clipPath id="clip0">
<rect width="51.0436" height="51.0436" fill="white" transform="translate(15.0838 61.3464)"/>
</clipPath>
</defs>
</svg>
