<svg width="173" height="38" viewBox="0 0 173 38" fill="none" xmlns="http://www.w3.org/2000/svg">
<mask id="path-1-outside-1" maskUnits="userSpaceOnUse" x="6.44189" y="0.859863" width="25" height="35" fill="black">
<rect fill="white" x="6.44189" y="0.859863" width="25" height="35"/>
<path d="M18.8441 35.3495C18.7112 35.321 18.5688 35.34 18.4359 35.3305C17.2397 35.2071 16.0434 35.1122 14.8567 34.9792C13.556 34.8368 12.3028 34.4761 11.1161 33.9634C9.7869 33.3938 8.74257 32.4633 8.10647 31.1342C7.67924 30.2323 7.51785 29.2639 7.51785 28.2765C7.51785 27.7923 7.47038 27.3081 7.44189 26.8144C7.44189 24.2321 7.44189 21.6497 7.44189 19.0674C7.47038 18.6022 7.50835 18.1464 7.50835 17.6812C7.50835 16.3616 7.76469 15.1084 8.45775 13.9786C8.93245 13.2096 9.4831 12.4975 10.2236 11.9659C10.48 11.7855 10.7268 11.757 10.9642 11.9754C11.192 12.1842 11.211 12.6779 11.0021 12.8963C10.6888 13.2286 10.3565 13.5324 10.0527 13.8647C9.34069 14.6242 8.95143 15.5261 8.83751 16.561C8.55269 19.1243 8.77105 21.6972 8.70459 24.2606C8.67611 25.3619 8.6951 26.4632 8.70459 27.5645C8.71408 28.7797 8.88498 29.9569 9.55905 31.0013C10.0527 31.7608 10.7363 32.3019 11.6003 32.5868C12.4927 32.8811 13.3851 33.1849 14.306 33.4032C15.0561 33.5836 15.8346 33.6501 16.5941 33.726C17.3441 33.802 18.0941 33.859 18.8441 33.859C19.5182 33.859 20.2018 33.764 20.8759 33.7355C22.1006 33.6881 23.2968 33.4697 24.4931 33.1849C25.357 32.976 26.202 32.7292 26.971 32.283C27.9394 31.7228 28.585 30.8968 28.8318 29.7671C29.0407 28.8367 29.1071 27.9157 29.1071 26.9663C29.0976 24.0327 29.1071 21.1086 29.0976 18.1749C29.0976 17.0736 28.9647 15.9818 28.4995 14.985C28.2432 14.4438 27.8065 13.9691 27.4172 13.5039C26.9805 12.9912 26.5153 12.4975 26.0311 12.0323C25.6893 11.7 25.2716 11.5197 24.7684 11.6241C23.838 11.814 22.9171 12.0798 21.9772 12.1463C20.5056 12.2507 19.015 12.2792 17.5435 12.2317C16.4422 12.2032 15.3314 12.0703 14.2491 11.8614C13.1857 11.6621 12.1319 11.3772 11.2205 10.7317C10.404 10.1525 9.99577 9.27908 10.2331 8.24424C10.2901 7.9784 10.3186 7.70308 10.3376 7.42775C10.385 6.55431 10.3755 5.68086 10.48 4.81691C10.5559 4.13335 11.0876 3.69662 11.6192 3.32636C12.5022 2.71875 13.5275 2.4814 14.5624 2.28202C16.2808 1.94973 18.0182 1.79783 19.7556 1.88328C21.0088 1.94024 22.2715 2.08265 23.5152 2.30101C24.3506 2.44342 25.1956 2.70925 25.9741 3.04154C26.7146 3.35484 27.3223 3.8865 27.5691 4.71248C27.7685 5.39605 27.5786 6.37392 26.8096 6.91508C25.8887 7.57966 24.8728 7.92144 23.7905 8.15879C22.5563 8.43412 21.3031 8.51007 20.0404 8.59551C18.5688 8.69995 17.1068 8.58602 15.6637 8.40563C15.0845 8.33917 14.5149 8.07334 13.9548 7.84549C13.632 7.71257 13.5085 7.34231 13.6225 7.0385C13.7364 6.74419 14.1351 6.50684 14.4484 6.61127C16.5371 7.26636 18.6828 7.24737 20.8284 7.14293C21.9107 7.09546 22.9835 6.82963 24.0468 6.60178C24.5785 6.48785 25.0912 6.2505 25.5849 6.01315C26.3254 5.65238 26.2494 4.91185 25.6703 4.56058C25.1102 4.21879 24.512 3.99094 23.876 3.84853C23.1924 3.69662 22.4993 3.59219 21.8158 3.46877C21.6544 3.44029 21.4835 3.4213 21.3221 3.41181C20.6385 3.36434 19.9454 3.29788 19.2619 3.27889C18.7302 3.2694 18.1891 3.32636 17.6574 3.35484C17.4011 3.37383 17.1352 3.37383 16.8789 3.41181C15.996 3.54472 15.113 3.63966 14.2491 3.82954C13.6699 3.95296 13.1098 4.19031 12.5591 4.42766C12.0844 4.63653 11.8376 4.9973 11.8471 5.57643C11.8661 6.47836 11.8186 7.38978 11.7047 8.29171C11.6572 8.67146 11.4673 9.06072 11.8186 9.33604C12.1794 9.62086 12.5971 9.8772 13.0338 10.0291C14.4579 10.5133 15.92 10.8361 17.4295 10.8456C18.2555 10.8646 18.5119 10.8836 19.11 10.8836C20.1448 10.8836 21.1702 10.7317 22.205 10.6177C22.8506 10.5513 23.5057 10.4658 24.1323 10.3044C24.8728 10.1145 25.6228 9.90568 26.2305 9.41199C26.4013 9.26958 26.4963 8.99426 26.5343 8.7664C26.6292 8.17778 27.0659 7.85498 27.5596 8.11132C27.721 8.19677 27.8729 8.40563 27.9204 8.59551C28.0628 9.19363 27.8539 9.72529 27.4647 10.181C27.0564 10.6557 27.1704 11.1399 27.5976 11.5671C28.1672 12.1368 28.7274 12.7254 29.259 13.3235C29.8572 13.9976 30.1705 14.833 30.3983 15.697C30.7211 16.9122 30.6451 18.1654 30.6546 19.3996C30.6736 22.5421 30.6357 25.6847 30.5977 28.8272C30.5787 30.2228 30.161 31.5045 29.2021 32.5393C28.547 33.2418 27.759 33.802 26.8286 34.1058C26.088 34.3432 25.3475 34.609 24.5975 34.7799C23.8 34.9603 22.9835 35.0742 22.1765 35.1691C21.4075 35.2546 20.629 35.2736 19.86 35.34"/>
</mask>
<path d="M18.8441 35.3495C18.7112 35.321 18.5688 35.34 18.4359 35.3305C17.2397 35.2071 16.0434 35.1122 14.8567 34.9792C13.556 34.8368 12.3028 34.4761 11.1161 33.9634C9.7869 33.3938 8.74257 32.4633 8.10647 31.1342C7.67924 30.2323 7.51785 29.2639 7.51785 28.2765C7.51785 27.7923 7.47038 27.3081 7.44189 26.8144C7.44189 24.2321 7.44189 21.6497 7.44189 19.0674C7.47038 18.6022 7.50835 18.1464 7.50835 17.6812C7.50835 16.3616 7.76469 15.1084 8.45775 13.9786C8.93245 13.2096 9.4831 12.4975 10.2236 11.9659C10.48 11.7855 10.7268 11.757 10.9642 11.9754C11.192 12.1842 11.211 12.6779 11.0021 12.8963C10.6888 13.2286 10.3565 13.5324 10.0527 13.8647C9.34069 14.6242 8.95143 15.5261 8.83751 16.561C8.55269 19.1243 8.77105 21.6972 8.70459 24.2606C8.67611 25.3619 8.6951 26.4632 8.70459 27.5645C8.71408 28.7797 8.88498 29.9569 9.55905 31.0013C10.0527 31.7608 10.7363 32.3019 11.6003 32.5868C12.4927 32.8811 13.3851 33.1849 14.306 33.4032C15.0561 33.5836 15.8346 33.6501 16.5941 33.726C17.3441 33.802 18.0941 33.859 18.8441 33.859C19.5182 33.859 20.2018 33.764 20.8759 33.7355C22.1006 33.6881 23.2968 33.4697 24.4931 33.1849C25.357 32.976 26.202 32.7292 26.971 32.283C27.9394 31.7228 28.585 30.8968 28.8318 29.7671C29.0407 28.8367 29.1071 27.9157 29.1071 26.9663C29.0976 24.0327 29.1071 21.1086 29.0976 18.1749C29.0976 17.0736 28.9647 15.9818 28.4995 14.985C28.2432 14.4438 27.8065 13.9691 27.4172 13.5039C26.9805 12.9912 26.5153 12.4975 26.0311 12.0323C25.6893 11.7 25.2716 11.5197 24.7684 11.6241C23.838 11.814 22.9171 12.0798 21.9772 12.1463C20.5056 12.2507 19.015 12.2792 17.5435 12.2317C16.4422 12.2032 15.3314 12.0703 14.2491 11.8614C13.1857 11.6621 12.1319 11.3772 11.2205 10.7317C10.404 10.1525 9.99577 9.27908 10.2331 8.24424C10.2901 7.9784 10.3186 7.70308 10.3376 7.42775C10.385 6.55431 10.3755 5.68086 10.48 4.81691C10.5559 4.13335 11.0876 3.69662 11.6192 3.32636C12.5022 2.71875 13.5275 2.4814 14.5624 2.28202C16.2808 1.94973 18.0182 1.79783 19.7556 1.88328C21.0088 1.94024 22.2715 2.08265 23.5152 2.30101C24.3506 2.44342 25.1956 2.70925 25.9741 3.04154C26.7146 3.35484 27.3223 3.8865 27.5691 4.71248C27.7685 5.39605 27.5786 6.37392 26.8096 6.91508C25.8887 7.57966 24.8728 7.92144 23.7905 8.15879C22.5563 8.43412 21.3031 8.51007 20.0404 8.59551C18.5688 8.69995 17.1068 8.58602 15.6637 8.40563C15.0845 8.33917 14.5149 8.07334 13.9548 7.84549C13.632 7.71257 13.5085 7.34231 13.6225 7.0385C13.7364 6.74419 14.1351 6.50684 14.4484 6.61127C16.5371 7.26636 18.6828 7.24737 20.8284 7.14293C21.9107 7.09546 22.9835 6.82963 24.0468 6.60178C24.5785 6.48785 25.0912 6.2505 25.5849 6.01315C26.3254 5.65238 26.2494 4.91185 25.6703 4.56058C25.1102 4.21879 24.512 3.99094 23.876 3.84853C23.1924 3.69662 22.4993 3.59219 21.8158 3.46877C21.6544 3.44029 21.4835 3.4213 21.3221 3.41181C20.6385 3.36434 19.9454 3.29788 19.2619 3.27889C18.7302 3.2694 18.1891 3.32636 17.6574 3.35484C17.4011 3.37383 17.1352 3.37383 16.8789 3.41181C15.996 3.54472 15.113 3.63966 14.2491 3.82954C13.6699 3.95296 13.1098 4.19031 12.5591 4.42766C12.0844 4.63653 11.8376 4.9973 11.8471 5.57643C11.8661 6.47836 11.8186 7.38978 11.7047 8.29171C11.6572 8.67146 11.4673 9.06072 11.8186 9.33604C12.1794 9.62086 12.5971 9.8772 13.0338 10.0291C14.4579 10.5133 15.92 10.8361 17.4295 10.8456C18.2555 10.8646 18.5119 10.8836 19.11 10.8836C20.1448 10.8836 21.1702 10.7317 22.205 10.6177C22.8506 10.5513 23.5057 10.4658 24.1323 10.3044C24.8728 10.1145 25.6228 9.90568 26.2305 9.41199C26.4013 9.26958 26.4963 8.99426 26.5343 8.7664C26.6292 8.17778 27.0659 7.85498 27.5596 8.11132C27.721 8.19677 27.8729 8.40563 27.9204 8.59551C28.0628 9.19363 27.8539 9.72529 27.4647 10.181C27.0564 10.6557 27.1704 11.1399 27.5976 11.5671C28.1672 12.1368 28.7274 12.7254 29.259 13.3235C29.8572 13.9976 30.1705 14.833 30.3983 15.697C30.7211 16.9122 30.6451 18.1654 30.6546 19.3996C30.6736 22.5421 30.6357 25.6847 30.5977 28.8272C30.5787 30.2228 30.161 31.5045 29.2021 32.5393C28.547 33.2418 27.759 33.802 26.8286 34.1058C26.088 34.3432 25.3475 34.609 24.5975 34.7799C23.8 34.9603 22.9835 35.0742 22.1765 35.1691C21.4075 35.2546 20.629 35.2736 19.86 35.34" fill="#2D333A"/>
<path d="M18.4359 35.3305L18.4041 35.6391L18.4138 35.6398L18.4359 35.3305ZM14.8567 34.9792L14.8912 34.6711L14.8904 34.671L14.8567 34.9792ZM11.1161 33.9634L11.239 33.6787L11.2382 33.6784L11.1161 33.9634ZM8.10647 31.1342L7.82623 31.2669L7.82676 31.2681L8.10647 31.1342ZM7.44189 26.8144H7.13181V26.8234L7.13232 26.8323L7.44189 26.8144ZM7.44189 19.0674L7.13238 19.0484L7.13181 19.0579V19.0674H7.44189ZM8.45775 13.9786L8.19388 13.8157L8.19343 13.8164L8.45775 13.9786ZM10.2236 11.9659L10.0452 11.7123L10.0428 11.714L10.2236 11.9659ZM10.9642 11.9754L10.7542 12.2036L10.7546 12.2039L10.9642 11.9754ZM11.0021 12.8963L10.778 12.6819L10.7765 12.6836L11.0021 12.8963ZM10.0527 13.8647L10.279 14.0768L10.2816 14.0739L10.0527 13.8647ZM8.83751 16.561L9.1457 16.5952L9.14573 16.5949L8.83751 16.561ZM8.70459 24.2606L8.39461 24.2525L8.39461 24.2525L8.70459 24.2606ZM8.70459 27.5645L9.01467 27.562L9.01467 27.5618L8.70459 27.5645ZM9.55905 31.0013L9.29851 31.1694L9.29906 31.1703L9.55905 31.0013ZM11.6003 32.5868L11.6974 32.2923L11.6973 32.2923L11.6003 32.5868ZM14.306 33.4032L14.3785 33.1018L14.3776 33.1015L14.306 33.4032ZM16.5941 33.726L16.6253 33.4175L16.6249 33.4175L16.5941 33.726ZM20.8759 33.7355L20.8638 33.4257L20.8628 33.4257L20.8759 33.7355ZM24.4931 33.1849L24.5649 33.4865L24.5659 33.4863L24.4931 33.1849ZM26.971 32.283L26.8157 32.0145L26.8154 32.0148L26.971 32.283ZM28.8318 29.7671L28.5292 29.6991L28.5289 29.7009L28.8318 29.7671ZM29.1071 26.9663H29.4172L29.4172 26.9653L29.1071 26.9663ZM29.0976 18.1749H28.7875L28.7875 18.1759L29.0976 18.1749ZM28.4995 14.985L28.7805 14.8538L28.7798 14.8522L28.4995 14.985ZM27.4172 13.5039L27.655 13.3049L27.6533 13.3028L27.4172 13.5039ZM26.0311 12.0323L25.8149 12.2547L25.8162 12.2559L26.0311 12.0323ZM24.7684 11.6241L24.8304 11.9279L24.8314 11.9277L24.7684 11.6241ZM21.9772 12.1463L21.9553 11.8369L21.9552 11.8369L21.9772 12.1463ZM17.5435 12.2317L17.5535 11.9218L17.5515 11.9217L17.5435 12.2317ZM14.2491 11.8614L14.3078 11.557L14.3062 11.5567L14.2491 11.8614ZM11.2205 10.7317L11.0411 10.9846L11.0413 10.9847L11.2205 10.7317ZM10.2331 8.24424L10.5354 8.31356L10.5363 8.30921L10.2331 8.24424ZM10.3376 7.42775L10.6469 7.44909L10.6472 7.44458L10.3376 7.42775ZM10.48 4.81691L10.7878 4.85413L10.7882 4.85116L10.48 4.81691ZM11.6192 3.32636L11.4434 3.07091L11.442 3.0719L11.6192 3.32636ZM14.5624 2.28202L14.621 2.58651L14.6212 2.58647L14.5624 2.28202ZM19.7556 1.88328L19.7403 2.19299L19.7415 2.19305L19.7556 1.88328ZM23.5152 2.30101L23.4616 2.60643L23.4631 2.60669L23.5152 2.30101ZM25.9741 3.04154L25.8524 3.32674L25.8533 3.32712L25.9741 3.04154ZM27.5691 4.71248L27.8668 4.62565L27.8662 4.62369L27.5691 4.71248ZM26.8096 6.91508L26.6311 6.66147L26.6281 6.66363L26.8096 6.91508ZM23.7905 8.15879L23.7241 7.8559L23.723 7.85614L23.7905 8.15879ZM20.0404 8.59551L20.0195 8.28613L20.0184 8.2862L20.0404 8.59551ZM15.6637 8.40563L15.7021 8.09792L15.699 8.09756L15.6637 8.40563ZM13.9548 7.84549L13.8367 8.13222L13.8379 8.13272L13.9548 7.84549ZM13.6225 7.0385L13.3333 6.92655L13.3321 6.92962L13.6225 7.0385ZM14.4484 6.61127L14.3504 6.9055L14.3556 6.90715L14.4484 6.61127ZM20.8284 7.14293L20.8148 6.83314L20.8133 6.83321L20.8284 7.14293ZM25.5849 6.01315L25.7192 6.29263L25.7207 6.29192L25.5849 6.01315ZM25.6703 4.56058L25.5088 4.82528L25.5095 4.8257L25.6703 4.56058ZM23.876 3.84853L23.9437 3.54593L23.9432 3.54582L23.876 3.84853ZM21.8158 3.46877L21.8709 3.16361L21.8696 3.1634L21.8158 3.46877ZM21.3221 3.41181L21.3006 3.72117L21.3039 3.72136L21.3221 3.41181ZM19.2619 3.27889L19.2705 2.9689L19.2674 2.96885L19.2619 3.27889ZM17.6574 3.35484L17.6408 3.04513L17.6345 3.0456L17.6574 3.35484ZM16.8789 3.41181L16.8335 3.10506L16.8327 3.10517L16.8789 3.41181ZM14.2491 3.82954L14.3137 4.13283L14.3156 4.1324L14.2491 3.82954ZM12.5591 4.42766L12.4364 4.14289L12.4343 4.14383L12.5591 4.42766ZM11.8471 5.57643L11.537 5.58151L11.5371 5.58296L11.8471 5.57643ZM11.7047 8.29171L11.397 8.25284L11.397 8.25324L11.7047 8.29171ZM11.8186 9.33604L12.0108 9.09266L12.0099 9.09198L11.8186 9.33604ZM13.0338 10.0291L12.932 10.322L12.934 10.3227L13.0338 10.0291ZM17.4295 10.8456L17.4367 10.5355L17.4315 10.5355L17.4295 10.8456ZM22.205 10.6177L22.1733 10.3093L22.1711 10.3095L22.205 10.6177ZM24.1323 10.3044L24.0553 10.0041L24.0549 10.0041L24.1323 10.3044ZM26.2305 9.41199L26.426 9.65268L26.429 9.65021L26.2305 9.41199ZM26.5343 8.7664L26.8401 8.81738L26.8404 8.81578L26.5343 8.7664ZM27.5596 8.11132L27.7047 7.83726L27.7025 7.83612L27.5596 8.11132ZM27.9204 8.59551L28.2221 8.52368L28.2212 8.5203L27.9204 8.59551ZM27.4647 10.181L27.6998 10.3832L27.7005 10.3824L27.4647 10.181ZM29.259 13.3235L29.491 13.1177L29.4908 13.1175L29.259 13.3235ZM30.3983 15.697L30.0985 15.7761L30.0986 15.7766L30.3983 15.697ZM30.6546 19.3996L30.9647 19.3978L30.9647 19.3973L30.6546 19.3996ZM30.5977 28.8272L30.9077 28.8314L30.9077 28.8309L30.5977 28.8272ZM29.2021 32.5393L29.4289 32.7508L29.4295 32.7501L29.2021 32.5393ZM26.8286 34.1058L26.9232 34.4011L26.9248 34.4006L26.8286 34.1058ZM24.5975 34.7799L24.6659 35.0823L24.6664 35.0822L24.5975 34.7799ZM22.1765 35.1691L22.2108 35.4773L22.2128 35.4771L22.1765 35.1691ZM18.9091 35.0463C18.8091 35.0249 18.7131 35.0228 18.64 35.0228C18.5564 35.0228 18.5097 35.0249 18.458 35.0212L18.4138 35.6398C18.495 35.6456 18.5859 35.643 18.64 35.643C18.7046 35.643 18.7462 35.6457 18.7792 35.6527L18.9091 35.0463ZM18.4677 35.0221C17.2574 34.8972 16.0805 34.8043 14.8912 34.6711L14.8222 35.2874C16.0063 35.42 17.222 35.517 18.4041 35.639L18.4677 35.0221ZM14.8904 34.671C13.6247 34.5324 12.4016 34.1809 11.239 33.6787L10.9931 34.2481C12.204 34.7712 13.4873 35.1413 14.8229 35.2875L14.8904 34.671ZM11.2382 33.6784C9.97114 33.1353 8.98667 32.2551 8.38618 31.0003L7.82676 31.2681C8.49847 32.6716 9.60267 33.6522 10.9939 34.2484L11.2382 33.6784ZM8.38671 31.0014C7.98384 30.1509 7.82793 29.2304 7.82793 28.2765H7.20776C7.20776 29.2974 7.37465 30.3136 7.82623 31.2669L8.38671 31.0014ZM7.82793 28.2765C7.82793 27.7806 7.77898 27.2734 7.75147 26.7966L7.13232 26.8323C7.16177 27.3428 7.20776 27.804 7.20776 28.2765H7.82793ZM7.75198 26.8144C7.75198 26.8094 7.75198 26.8043 7.75198 26.7993C7.75198 26.7943 7.75198 26.7892 7.75198 26.7842C7.75198 26.7791 7.75198 26.7741 7.75198 26.769C7.75198 26.764 7.75198 26.759 7.75198 26.7539C7.75198 26.7489 7.75198 26.7438 7.75198 26.7388C7.75198 26.7337 7.75198 26.7287 7.75198 26.7236C7.75198 26.7186 7.75198 26.7136 7.75198 26.7085C7.75198 26.7035 7.75198 26.6984 7.75198 26.6934C7.75198 26.6883 7.75198 26.6833 7.75198 26.6783C7.75198 26.6732 7.75198 26.6682 7.75198 26.6631C7.75198 26.6581 7.75198 26.653 7.75198 26.648C7.75198 26.643 7.75198 26.6379 7.75198 26.6329C7.75198 26.6278 7.75198 26.6228 7.75198 26.6177C7.75198 26.6127 7.75198 26.6076 7.75198 26.6026C7.75198 26.5976 7.75198 26.5925 7.75198 26.5875C7.75198 26.5824 7.75198 26.5774 7.75198 26.5723C7.75198 26.5673 7.75198 26.5623 7.75198 26.5572C7.75198 26.5522 7.75198 26.5471 7.75198 26.5421C7.75198 26.537 7.75198 26.532 7.75198 26.5269C7.75198 26.5219 7.75198 26.5169 7.75198 26.5118C7.75198 26.5068 7.75198 26.5017 7.75198 26.4967C7.75198 26.4916 7.75198 26.4866 7.75198 26.4816C7.75198 26.4765 7.75198 26.4715 7.75198 26.4664C7.75198 26.4614 7.75198 26.4563 7.75198 26.4513C7.75198 26.4462 7.75198 26.4412 7.75198 26.4362C7.75198 26.4311 7.75198 26.4261 7.75198 26.421C7.75198 26.416 7.75198 26.4109 7.75198 26.4059C7.75198 26.4009 7.75198 26.3958 7.75198 26.3908C7.75198 26.3857 7.75198 26.3807 7.75198 26.3756C7.75198 26.3706 7.75198 26.3655 7.75198 26.3605C7.75198 26.3555 7.75198 26.3504 7.75198 26.3454C7.75198 26.3403 7.75198 26.3353 7.75198 26.3302C7.75198 26.3252 7.75198 26.3202 7.75198 26.3151C7.75198 26.3101 7.75198 26.305 7.75198 26.3C7.75198 26.2949 7.75198 26.2899 7.75198 26.2848C7.75198 26.2798 7.75198 26.2748 7.75198 26.2697C7.75198 26.2647 7.75198 26.2596 7.75198 26.2546C7.75198 26.2495 7.75198 26.2445 7.75198 26.2395C7.75198 26.2344 7.75198 26.2294 7.75198 26.2243C7.75198 26.2193 7.75198 26.2142 7.75198 26.2092C7.75198 26.2042 7.75198 26.1991 7.75198 26.1941C7.75198 26.189 7.75198 26.184 7.75198 26.1789C7.75198 26.1739 7.75198 26.1688 7.75198 26.1638C7.75198 26.1588 7.75198 26.1537 7.75198 26.1487C7.75198 26.1436 7.75198 26.1386 7.75198 26.1335C7.75198 26.1285 7.75198 26.1235 7.75198 26.1184C7.75198 26.1134 7.75198 26.1083 7.75198 26.1033C7.75198 26.0982 7.75198 26.0932 7.75198 26.0881C7.75198 26.0831 7.75198 26.0781 7.75198 26.073C7.75198 26.068 7.75198 26.0629 7.75198 26.0579C7.75198 26.0528 7.75198 26.0478 7.75198 26.0428C7.75198 26.0377 7.75198 26.0327 7.75198 26.0276C7.75198 26.0226 7.75198 26.0175 7.75198 26.0125C7.75198 26.0074 7.75198 26.0024 7.75198 25.9974C7.75198 25.9923 7.75198 25.9873 7.75198 25.9822C7.75198 25.9772 7.75198 25.9721 7.75198 25.9671C7.75198 25.9621 7.75198 25.957 7.75198 25.952C7.75198 25.9469 7.75198 25.9419 7.75198 25.9368C7.75198 25.9318 7.75198 25.9267 7.75198 25.9217C7.75198 25.9167 7.75198 25.9116 7.75198 25.9066C7.75198 25.9015 7.75198 25.8965 7.75198 25.8914C7.75198 25.8864 7.75198 25.8814 7.75198 25.8763C7.75198 25.8713 7.75198 25.8662 7.75198 25.8612C7.75198 25.8561 7.75198 25.8511 7.75198 25.8461C7.75198 25.841 7.75198 25.836 7.75198 25.8309C7.75198 25.8259 7.75198 25.8208 7.75198 25.8158C7.75198 25.8107 7.75198 25.8057 7.75198 25.8007C7.75198 25.7956 7.75198 25.7906 7.75198 25.7855C7.75198 25.7805 7.75198 25.7754 7.75198 25.7704C7.75198 25.7654 7.75198 25.7603 7.75198 25.7553C7.75198 25.7502 7.75198 25.7452 7.75198 25.7401C7.75198 25.7351 7.75198 25.73 7.75198 25.725C7.75198 25.72 7.75198 25.7149 7.75198 25.7099C7.75198 25.7048 7.75198 25.6998 7.75198 25.6947C7.75198 25.6897 7.75198 25.6847 7.75198 25.6796C7.75198 25.6746 7.75198 25.6695 7.75198 25.6645C7.75198 25.6594 7.75198 25.6544 7.75198 25.6493C7.75198 25.6443 7.75198 25.6393 7.75198 25.6342C7.75198 25.6292 7.75198 25.6241 7.75198 25.6191C7.75198 25.614 7.75198 25.609 7.75198 25.604C7.75198 25.5989 7.75198 25.5939 7.75198 25.5888C7.75198 25.5838 7.75198 25.5787 7.75198 25.5737C7.75198 25.5686 7.75198 25.5636 7.75198 25.5586C7.75198 25.5535 7.75198 25.5485 7.75198 25.5434C7.75198 25.5384 7.75198 25.5333 7.75198 25.5283C7.75198 25.5233 7.75198 25.5182 7.75198 25.5132C7.75198 25.5081 7.75198 25.5031 7.75198 25.498C7.75198 25.493 7.75198 25.4879 7.75198 25.4829C7.75198 25.4779 7.75198 25.4728 7.75198 25.4678C7.75198 25.4627 7.75198 25.4577 7.75198 25.4526C7.75198 25.4476 7.75198 25.4426 7.75198 25.4375C7.75198 25.4325 7.75198 25.4274 7.75198 25.4224C7.75198 25.4173 7.75198 25.4123 7.75198 25.4073C7.75198 25.4022 7.75198 25.3972 7.75198 25.3921C7.75198 25.3871 7.75198 25.382 7.75198 25.377C7.75198 25.3719 7.75198 25.3669 7.75198 25.3619C7.75198 25.3568 7.75198 25.3518 7.75198 25.3467C7.75198 25.3417 7.75198 25.3366 7.75198 25.3316C7.75198 25.3266 7.75198 25.3215 7.75198 25.3165C7.75198 25.3114 7.75198 25.3064 7.75198 25.3013C7.75198 25.2963 7.75198 25.2912 7.75198 25.2862C7.75198 25.2812 7.75198 25.2761 7.75198 25.2711C7.75198 25.266 7.75198 25.261 7.75198 25.2559C7.75198 25.2509 7.75198 25.2459 7.75198 25.2408C7.75198 25.2358 7.75198 25.2307 7.75198 25.2257C7.75198 25.2206 7.75198 25.2156 7.75198 25.2105C7.75198 25.2055 7.75198 25.2005 7.75198 25.1954C7.75198 25.1904 7.75198 25.1853 7.75198 25.1803C7.75198 25.1752 7.75198 25.1702 7.75198 25.1652C7.75198 25.1601 7.75198 25.1551 7.75198 25.15C7.75198 25.145 7.75198 25.1399 7.75198 25.1349C7.75198 25.1298 7.75198 25.1248 7.75198 25.1198C7.75198 25.1147 7.75198 25.1097 7.75198 25.1046C7.75198 25.0996 7.75198 25.0945 7.75198 25.0895C7.75198 25.0845 7.75198 25.0794 7.75198 25.0744C7.75198 25.0693 7.75198 25.0643 7.75198 25.0592C7.75198 25.0542 7.75198 25.0492 7.75198 25.0441C7.75198 25.0391 7.75198 25.034 7.75198 25.029C7.75198 25.0239 7.75198 25.0189 7.75198 25.0138C7.75198 25.0088 7.75198 25.0038 7.75198 24.9987C7.75198 24.9937 7.75198 24.9886 7.75198 24.9836C7.75198 24.9785 7.75198 24.9735 7.75198 24.9685C7.75198 24.9634 7.75198 24.9584 7.75198 24.9533C7.75198 24.9483 7.75198 24.9432 7.75198 24.9382C7.75198 24.9331 7.75198 24.9281 7.75198 24.9231C7.75198 24.918 7.75198 24.913 7.75198 24.9079C7.75198 24.9029 7.75198 24.8978 7.75198 24.8928C7.75198 24.8878 7.75198 24.8827 7.75198 24.8777C7.75198 24.8726 7.75198 24.8676 7.75198 24.8625C7.75198 24.8575 7.75198 24.8524 7.75198 24.8474C7.75198 24.8424 7.75198 24.8373 7.75198 24.8323C7.75198 24.8272 7.75198 24.8222 7.75198 24.8171C7.75198 24.8121 7.75198 24.8071 7.75198 24.802C7.75198 24.797 7.75198 24.7919 7.75198 24.7869C7.75198 24.7818 7.75198 24.7768 7.75198 24.7717C7.75198 24.7667 7.75198 24.7617 7.75198 24.7566C7.75198 24.7516 7.75198 24.7465 7.75198 24.7415C7.75198 24.7364 7.75198 24.7314 7.75198 24.7264C7.75198 24.7213 7.75198 24.7163 7.75198 24.7112C7.75198 24.7062 7.75198 24.7011 7.75198 24.6961C7.75198 24.691 7.75198 24.686 7.75198 24.681C7.75198 24.6759 7.75198 24.6709 7.75198 24.6658C7.75198 24.6608 7.75198 24.6557 7.75198 24.6507C7.75198 24.6457 7.75198 24.6406 7.75198 24.6356C7.75198 24.6305 7.75198 24.6255 7.75198 24.6204C7.75198 24.6154 7.75198 24.6104 7.75198 24.6053C7.75198 24.6003 7.75198 24.5952 7.75198 24.5902C7.75198 24.5851 7.75198 24.5801 7.75198 24.575C7.75198 24.57 7.75198 24.565 7.75198 24.5599C7.75198 24.5549 7.75198 24.5498 7.75198 24.5448C7.75198 24.5397 7.75198 24.5347 7.75198 24.5297C7.75198 24.5246 7.75198 24.5196 7.75198 24.5145C7.75198 24.5095 7.75198 24.5044 7.75198 24.4994C7.75198 24.4943 7.75198 24.4893 7.75198 24.4843C7.75198 24.4792 7.75198 24.4742 7.75198 24.4691C7.75198 24.4641 7.75198 24.459 7.75198 24.454C7.75198 24.449 7.75198 24.4439 7.75198 24.4389C7.75198 24.4338 7.75198 24.4288 7.75198 24.4237C7.75198 24.4187 7.75198 24.4136 7.75198 24.4086C7.75198 24.4036 7.75198 24.3985 7.75198 24.3935C7.75198 24.3884 7.75198 24.3834 7.75198 24.3783C7.75198 24.3733 7.75198 24.3683 7.75198 24.3632C7.75198 24.3582 7.75198 24.3531 7.75198 24.3481C7.75198 24.343 7.75198 24.338 7.75198 24.3329C7.75198 24.3279 7.75198 24.3229 7.75198 24.3178C7.75198 24.3128 7.75198 24.3077 7.75198 24.3027C7.75198 24.2976 7.75198 24.2926 7.75198 24.2876C7.75198 24.2825 7.75198 24.2775 7.75198 24.2724C7.75198 24.2674 7.75198 24.2623 7.75198 24.2573C7.75198 24.2523 7.75198 24.2472 7.75198 24.2422C7.75198 24.2371 7.75198 24.2321 7.75198 24.227C7.75198 24.222 7.75198 24.2169 7.75198 24.2119C7.75198 24.2069 7.75198 24.2018 7.75198 24.1968C7.75198 24.1917 7.75198 24.1867 7.75198 24.1816C7.75198 24.1766 7.75198 24.1716 7.75198 24.1665C7.75198 24.1615 7.75198 24.1564 7.75198 24.1514C7.75198 24.1463 7.75198 24.1413 7.75198 24.1362C7.75198 24.1312 7.75198 24.1262 7.75198 24.1211C7.75198 24.1161 7.75198 24.111 7.75198 24.106C7.75198 24.1009 7.75198 24.0959 7.75198 24.0909C7.75198 24.0858 7.75198 24.0808 7.75198 24.0757C7.75198 24.0707 7.75198 24.0656 7.75198 24.0606C7.75198 24.0555 7.75198 24.0505 7.75198 24.0455C7.75198 24.0404 7.75198 24.0354 7.75198 24.0303C7.75198 24.0253 7.75198 24.0202 7.75198 24.0152C7.75198 24.0102 7.75198 24.0051 7.75198 24.0001C7.75198 23.995 7.75198 23.99 7.75198 23.9849C7.75198 23.9799 7.75198 23.9748 7.75198 23.9698C7.75198 23.9648 7.75198 23.9597 7.75198 23.9547C7.75198 23.9496 7.75198 23.9446 7.75198 23.9395C7.75198 23.9345 7.75198 23.9295 7.75198 23.9244C7.75198 23.9194 7.75198 23.9143 7.75198 23.9093C7.75198 23.9042 7.75198 23.8992 7.75198 23.8941C7.75198 23.8891 7.75198 23.8841 7.75198 23.879C7.75198 23.874 7.75198 23.8689 7.75198 23.8639C7.75198 23.8588 7.75198 23.8538 7.75198 23.8488C7.75198 23.8437 7.75198 23.8387 7.75198 23.8336C7.75198 23.8286 7.75198 23.8235 7.75198 23.8185C7.75198 23.8135 7.75198 23.8084 7.75198 23.8034C7.75198 23.7983 7.75198 23.7933 7.75198 23.7882C7.75198 23.7832 7.75198 23.7781 7.75198 23.7731C7.75198 23.7681 7.75198 23.763 7.75198 23.758C7.75198 23.7529 7.75198 23.7479 7.75198 23.7428C7.75198 23.7378 7.75198 23.7328 7.75198 23.7277C7.75198 23.7227 7.75198 23.7176 7.75198 23.7126C7.75198 23.7075 7.75198 23.7025 7.75198 23.6974C7.75198 23.6924 7.75198 23.6874 7.75198 23.6823C7.75198 23.6773 7.75198 23.6722 7.75198 23.6672C7.75198 23.6621 7.75198 23.6571 7.75198 23.6521C7.75198 23.647 7.75198 23.642 7.75198 23.6369C7.75198 23.6319 7.75198 23.6268 7.75198 23.6218C7.75198 23.6167 7.75198 23.6117 7.75198 23.6067C7.75198 23.6016 7.75198 23.5966 7.75198 23.5915C7.75198 23.5865 7.75198 23.5814 7.75198 23.5764C7.75198 23.5714 7.75198 23.5663 7.75198 23.5613C7.75198 23.5562 7.75198 23.5512 7.75198 23.5461C7.75198 23.5411 7.75198 23.536 7.75198 23.531C7.75198 23.526 7.75198 23.5209 7.75198 23.5159C7.75198 23.5108 7.75198 23.5058 7.75198 23.5007C7.75198 23.4957 7.75198 23.4907 7.75198 23.4856C7.75198 23.4806 7.75198 23.4755 7.75198 23.4705C7.75198 23.4654 7.75198 23.4604 7.75198 23.4554C7.75198 23.4503 7.75198 23.4453 7.75198 23.4402C7.75198 23.4352 7.75198 23.4301 7.75198 23.4251C7.75198 23.42 7.75198 23.415 7.75198 23.41C7.75198 23.4049 7.75198 23.3999 7.75198 23.3948C7.75198 23.3898 7.75198 23.3847 7.75198 23.3797C7.75198 23.3747 7.75198 23.3696 7.75198 23.3646C7.75198 23.3595 7.75198 23.3545 7.75198 23.3494C7.75198 23.3444 7.75198 23.3393 7.75198 23.3343C7.75198 23.3293 7.75198 23.3242 7.75198 23.3192C7.75198 23.3141 7.75198 23.3091 7.75198 23.304C7.75198 23.299 7.75198 23.294 7.75198 23.2889C7.75198 23.2839 7.75198 23.2788 7.75198 23.2738C7.75198 23.2687 7.75198 23.2637 7.75198 23.2586C7.75198 23.2536 7.75198 23.2486 7.75198 23.2435C7.75198 23.2385 7.75198 23.2334 7.75198 23.2284C7.75198 23.2233 7.75198 23.2183 7.75198 23.2133C7.75198 23.2082 7.75198 23.2032 7.75198 23.1981C7.75198 23.1931 7.75198 23.188 7.75198 23.183C7.75198 23.1779 7.75198 23.1729 7.75198 23.1679C7.75198 23.1628 7.75198 23.1578 7.75198 23.1527C7.75198 23.1477 7.75198 23.1426 7.75198 23.1376C7.75198 23.1326 7.75198 23.1275 7.75198 23.1225C7.75198 23.1174 7.75198 23.1124 7.75198 23.1073C7.75198 23.1023 7.75198 23.0972 7.75198 23.0922C7.75198 23.0872 7.75198 23.0821 7.75198 23.0771C7.75198 23.072 7.75198 23.067 7.75198 23.0619C7.75198 23.0569 7.75198 23.0519 7.75198 23.0468C7.75198 23.0418 7.75198 23.0367 7.75198 23.0317C7.75198 23.0266 7.75198 23.0216 7.75198 23.0166C7.75198 23.0115 7.75198 23.0065 7.75198 23.0014C7.75198 22.9964 7.75198 22.9913 7.75198 22.9863C7.75198 22.9812 7.75198 22.9762 7.75198 22.9712C7.75198 22.9661 7.75198 22.9611 7.75198 22.956C7.75198 22.951 7.75198 22.9459 7.75198 22.9409C7.75198 22.9359 7.75198 22.9308 7.75198 22.9258C7.75198 22.9207 7.75198 22.9157 7.75198 22.9106C7.75198 22.9056 7.75198 22.9005 7.75198 22.8955C7.75198 22.8905 7.75198 22.8854 7.75198 22.8804C7.75198 22.8753 7.75198 22.8703 7.75198 22.8652C7.75198 22.8602 7.75198 22.8552 7.75198 22.8501C7.75198 22.8451 7.75198 22.84 7.75198 22.835C7.75198 22.8299 7.75198 22.8249 7.75198 22.8198C7.75198 22.8148 7.75198 22.8098 7.75198 22.8047C7.75198 22.7997 7.75198 22.7946 7.75198 22.7896C7.75198 22.7845 7.75198 22.7795 7.75198 22.7745C7.75198 22.7694 7.75198 22.7644 7.75198 22.7593C7.75198 22.7543 7.75198 22.7492 7.75198 22.7442C7.75198 22.7391 7.75198 22.7341 7.75198 22.7291C7.75198 22.724 7.75198 22.719 7.75198 22.7139C7.75198 22.7089 7.75198 22.7038 7.75198 22.6988C7.75198 22.6938 7.75198 22.6887 7.75198 22.6837C7.75198 22.6786 7.75198 22.6736 7.75198 22.6685C7.75198 22.6635 7.75198 22.6585 7.75198 22.6534C7.75198 22.6484 7.75198 22.6433 7.75198 22.6383C7.75198 22.6332 7.75198 22.6282 7.75198 22.6231C7.75198 22.6181 7.75198 22.6131 7.75198 22.608C7.75198 22.603 7.75198 22.5979 7.75198 22.5929C7.75198 22.5878 7.75198 22.5828 7.75198 22.5778C7.75198 22.5727 7.75198 22.5677 7.75198 22.5626C7.75198 22.5576 7.75198 22.5525 7.75198 22.5475C7.75198 22.5424 7.75198 22.5374 7.75198 22.5324C7.75198 22.5273 7.75198 22.5223 7.75198 22.5172C7.75198 22.5122 7.75198 22.5071 7.75198 22.5021C7.75198 22.4971 7.75198 22.492 7.75198 22.487C7.75198 22.4819 7.75198 22.4769 7.75198 22.4718C7.75198 22.4668 7.75198 22.4617 7.75198 22.4567C7.75198 22.4517 7.75198 22.4466 7.75198 22.4416C7.75198 22.4365 7.75198 22.4315 7.75198 22.4264C7.75198 22.4214 7.75198 22.4164 7.75198 22.4113C7.75198 22.4063 7.75198 22.4012 7.75198 22.3962C7.75198 22.3911 7.75198 22.3861 7.75198 22.381C7.75198 22.376 7.75198 22.371 7.75198 22.3659C7.75198 22.3609 7.75198 22.3558 7.75198 22.3508C7.75198 22.3457 7.75198 22.3407 7.75198 22.3357C7.75198 22.3306 7.75198 22.3256 7.75198 22.3205C7.75198 22.3155 7.75198 22.3104 7.75198 22.3054C7.75198 22.3004 7.75198 22.2953 7.75198 22.2903C7.75198 22.2852 7.75198 22.2802 7.75198 22.2751C7.75198 22.2701 7.75198 22.265 7.75198 22.26C7.75198 22.255 7.75198 22.2499 7.75198 22.2449C7.75198 22.2398 7.75198 22.2348 7.75198 22.2297C7.75198 22.2247 7.75198 22.2197 7.75198 22.2146C7.75198 22.2096 7.75198 22.2045 7.75198 22.1995C7.75198 22.1944 7.75198 22.1894 7.75198 22.1843C7.75198 22.1793 7.75198 22.1743 7.75198 22.1692C7.75198 22.1642 7.75198 22.1591 7.75198 22.1541C7.75198 22.149 7.75198 22.144 7.75198 22.139C7.75198 22.1339 7.75198 22.1289 7.75198 22.1238C7.75198 22.1188 7.75198 22.1137 7.75198 22.1087C7.75198 22.1036 7.75198 22.0986 7.75198 22.0936C7.75198 22.0885 7.75198 22.0835 7.75198 22.0784C7.75198 22.0734 7.75198 22.0683 7.75198 22.0633C7.75198 22.0583 7.75198 22.0532 7.75198 22.0482C7.75198 22.0431 7.75198 22.0381 7.75198 22.033C7.75198 22.028 7.75198 22.0229 7.75198 22.0179C7.75198 22.0129 7.75198 22.0078 7.75198 22.0028C7.75198 21.9977 7.75198 21.9927 7.75198 21.9876C7.75198 21.9826 7.75198 21.9776 7.75198 21.9725C7.75198 21.9675 7.75198 21.9624 7.75198 21.9574C7.75198 21.9523 7.75198 21.9473 7.75198 21.9422C7.75198 21.9372 7.75198 21.9322 7.75198 21.9271C7.75198 21.9221 7.75198 21.917 7.75198 21.912C7.75198 21.9069 7.75198 21.9019 7.75198 21.8969C7.75198 21.8918 7.75198 21.8868 7.75198 21.8817C7.75198 21.8767 7.75198 21.8716 7.75198 21.8666C7.75198 21.8616 7.75198 21.8565 7.75198 21.8515C7.75198 21.8464 7.75198 21.8414 7.75198 21.8363C7.75198 21.8313 7.75198 21.8262 7.75198 21.8212C7.75198 21.8162 7.75198 21.8111 7.75198 21.8061C7.75198 21.801 7.75198 21.796 7.75198 21.7909C7.75198 21.7859 7.75198 21.7809 7.75198 21.7758C7.75198 21.7708 7.75198 21.7657 7.75198 21.7607C7.75198 21.7556 7.75198 21.7506 7.75198 21.7455C7.75198 21.7405 7.75198 21.7355 7.75198 21.7304C7.75198 21.7254 7.75198 21.7203 7.75198 21.7153C7.75198 21.7102 7.75198 21.7052 7.75198 21.7002C7.75198 21.6951 7.75198 21.6901 7.75198 21.685C7.75198 21.68 7.75198 21.6749 7.75198 21.6699C7.75198 21.6648 7.75198 21.6598 7.75198 21.6548C7.75198 21.6497 7.75198 21.6447 7.75198 21.6396C7.75198 21.6346 7.75198 21.6295 7.75198 21.6245C7.75198 21.6195 7.75198 21.6144 7.75198 21.6094C7.75198 21.6043 7.75198 21.5993 7.75198 21.5942C7.75198 21.5892 7.75198 21.5841 7.75198 21.5791C7.75198 21.5741 7.75198 21.569 7.75198 21.564C7.75198 21.5589 7.75198 21.5539 7.75198 21.5488C7.75198 21.5438 7.75198 21.5388 7.75198 21.5337C7.75198 21.5287 7.75198 21.5236 7.75198 21.5186C7.75198 21.5135 7.75198 21.5085 7.75198 21.5035C7.75198 21.4984 7.75198 21.4934 7.75198 21.4883C7.75198 21.4833 7.75198 21.4782 7.75198 21.4732C7.75198 21.4681 7.75198 21.4631 7.75198 21.4581C7.75198 21.453 7.75198 21.448 7.75198 21.4429C7.75198 21.4379 7.75198 21.4328 7.75198 21.4278C7.75198 21.4228 7.75198 21.4177 7.75198 21.4127C7.75198 21.4076 7.75198 21.4026 7.75198 21.3975C7.75198 21.3925 7.75198 21.3874 7.75198 21.3824C7.75198 21.3774 7.75198 21.3723 7.75198 21.3673C7.75198 21.3622 7.75198 21.3572 7.75198 21.3521C7.75198 21.3471 7.75198 21.3421 7.75198 21.337C7.75198 21.332 7.75198 21.3269 7.75198 21.3219C7.75198 21.3168 7.75198 21.3118 7.75198 21.3067C7.75198 21.3017 7.75198 21.2967 7.75198 21.2916C7.75198 21.2866 7.75198 21.2815 7.75198 21.2765C7.75198 21.2714 7.75198 21.2664 7.75198 21.2614C7.75198 21.2563 7.75198 21.2513 7.75198 21.2462C7.75198 21.2412 7.75198 21.2361 7.75198 21.2311C7.75198 21.226 7.75198 21.221 7.75198 21.216C7.75198 21.2109 7.75198 21.2059 7.75198 21.2008C7.75198 21.1958 7.75198 21.1907 7.75198 21.1857C7.75198 21.1807 7.75198 21.1756 7.75198 21.1706C7.75198 21.1655 7.75198 21.1605 7.75198 21.1554C7.75198 21.1504 7.75198 21.1453 7.75198 21.1403C7.75198 21.1353 7.75198 21.1302 7.75198 21.1252C7.75198 21.1201 7.75198 21.1151 7.75198 21.11C7.75198 21.105 7.75198 21.1 7.75198 21.0949C7.75198 21.0899 7.75198 21.0848 7.75198 21.0798C7.75198 21.0747 7.75198 21.0697 7.75198 21.0647C7.75198 21.0596 7.75198 21.0546 7.75198 21.0495C7.75198 21.0445 7.75198 21.0394 7.75198 21.0344C7.75198 21.0293 7.75198 21.0243 7.75198 21.0193C7.75198 21.0142 7.75198 21.0092 7.75198 21.0041C7.75198 20.9991 7.75198 20.994 7.75198 20.989C7.75198 20.984 7.75198 20.9789 7.75198 20.9739C7.75198 20.9688 7.75198 20.9638 7.75198 20.9587C7.75198 20.9537 7.75198 20.9486 7.75198 20.9436C7.75198 20.9386 7.75198 20.9335 7.75198 20.9285C7.75198 20.9234 7.75198 20.9184 7.75198 20.9133C7.75198 20.9083 7.75198 20.9033 7.75198 20.8982C7.75198 20.8932 7.75198 20.8881 7.75198 20.8831C7.75198 20.878 7.75198 20.873 7.75198 20.8679C7.75198 20.8629 7.75198 20.8579 7.75198 20.8528C7.75198 20.8478 7.75198 20.8427 7.75198 20.8377C7.75198 20.8326 7.75198 20.8276 7.75198 20.8226C7.75198 20.8175 7.75198 20.8125 7.75198 20.8074C7.75198 20.8024 7.75198 20.7973 7.75198 20.7923C7.75198 20.7872 7.75198 20.7822 7.75198 20.7772C7.75198 20.7721 7.75198 20.7671 7.75198 20.762C7.75198 20.757 7.75198 20.7519 7.75198 20.7469C7.75198 20.7419 7.75198 20.7368 7.75198 20.7318C7.75198 20.7267 7.75198 20.7217 7.75198 20.7166C7.75198 20.7116 7.75198 20.7066 7.75198 20.7015C7.75198 20.6965 7.75198 20.6914 7.75198 20.6864C7.75198 20.6813 7.75198 20.6763 7.75198 20.6712C7.75198 20.6662 7.75198 20.6612 7.75198 20.6561C7.75198 20.6511 7.75198 20.646 7.75198 20.641C7.75198 20.6359 7.75198 20.6309 7.75198 20.6259C7.75198 20.6208 7.75198 20.6158 7.75198 20.6107C7.75198 20.6057 7.75198 20.6006 7.75198 20.5956C7.75198 20.5905 7.75198 20.5855 7.75198 20.5805C7.75198 20.5754 7.75198 20.5704 7.75198 20.5653C7.75198 20.5603 7.75198 20.5552 7.75198 20.5502C7.75198 20.5452 7.75198 20.5401 7.75198 20.5351C7.75198 20.53 7.75198 20.525 7.75198 20.5199C7.75198 20.5149 7.75198 20.5098 7.75198 20.5048C7.75198 20.4998 7.75198 20.4947 7.75198 20.4897C7.75198 20.4846 7.75198 20.4796 7.75198 20.4745C7.75198 20.4695 7.75198 20.4645 7.75198 20.4594C7.75198 20.4544 7.75198 20.4493 7.75198 20.4443C7.75198 20.4392 7.75198 20.4342 7.75198 20.4291C7.75198 20.4241 7.75198 20.4191 7.75198 20.414C7.75198 20.409 7.75198 20.4039 7.75198 20.3989C7.75198 20.3938 7.75198 20.3888 7.75198 20.3838C7.75198 20.3787 7.75198 20.3737 7.75198 20.3686C7.75198 20.3636 7.75198 20.3585 7.75198 20.3535C7.75198 20.3484 7.75198 20.3434 7.75198 20.3384C7.75198 20.3333 7.75198 20.3283 7.75198 20.3232C7.75198 20.3182 7.75198 20.3131 7.75198 20.3081C7.75198 20.3031 7.75198 20.298 7.75198 20.293C7.75198 20.2879 7.75198 20.2829 7.75198 20.2778C7.75198 20.2728 7.75198 20.2677 7.75198 20.2627C7.75198 20.2577 7.75198 20.2526 7.75198 20.2476C7.75198 20.2425 7.75198 20.2375 7.75198 20.2324C7.75198 20.2274 7.75198 20.2224 7.75198 20.2173C7.75198 20.2123 7.75198 20.2072 7.75198 20.2022C7.75198 20.1971 7.75198 20.1921 7.75198 20.1871C7.75198 20.182 7.75198 20.177 7.75198 20.1719C7.75198 20.1669 7.75198 20.1618 7.75198 20.1568C7.75198 20.1517 7.75198 20.1467 7.75198 20.1417C7.75198 20.1366 7.75198 20.1316 7.75198 20.1265C7.75198 20.1215 7.75198 20.1164 7.75198 20.1114C7.75198 20.1064 7.75198 20.1013 7.75198 20.0963C7.75198 20.0912 7.75198 20.0862 7.75198 20.0811C7.75198 20.0761 7.75198 20.071 7.75198 20.066C7.75198 20.061 7.75198 20.0559 7.75198 20.0509C7.75198 20.0458 7.75198 20.0408 7.75198 20.0357C7.75198 20.0307 7.75198 20.0257 7.75198 20.0206C7.75198 20.0156 7.75198 20.0105 7.75198 20.0055C7.75198 20.0004 7.75198 19.9954 7.75198 19.9903C7.75198 19.9853 7.75198 19.9803 7.75198 19.9752C7.75198 19.9702 7.75198 19.9651 7.75198 19.9601C7.75198 19.955 7.75198 19.95 7.75198 19.945C7.75198 19.9399 7.75198 19.9349 7.75198 19.9298C7.75198 19.9248 7.75198 19.9197 7.75198 19.9147C7.75198 19.9097 7.75198 19.9046 7.75198 19.8996C7.75198 19.8945 7.75198 19.8895 7.75198 19.8844C7.75198 19.8794 7.75198 19.8743 7.75198 19.8693C7.75198 19.8643 7.75198 19.8592 7.75198 19.8542C7.75198 19.8491 7.75198 19.8441 7.75198 19.839C7.75198 19.834 7.75198 19.829 7.75198 19.8239C7.75198 19.8189 7.75198 19.8138 7.75198 19.8088C7.75198 19.8037 7.75198 19.7987 7.75198 19.7936C7.75198 19.7886 7.75198 19.7836 7.75198 19.7785C7.75198 19.7735 7.75198 19.7684 7.75198 19.7634C7.75198 19.7583 7.75198 19.7533 7.75198 19.7483C7.75198 19.7432 7.75198 19.7382 7.75198 19.7331C7.75198 19.7281 7.75198 19.723 7.75198 19.718C7.75198 19.7129 7.75198 19.7079 7.75198 19.7029C7.75198 19.6978 7.75198 19.6928 7.75198 19.6877C7.75198 19.6827 7.75198 19.6776 7.75198 19.6726C7.75198 19.6676 7.75198 19.6625 7.75198 19.6575C7.75198 19.6524 7.75198 19.6474 7.75198 19.6423C7.75198 19.6373 7.75198 19.6322 7.75198 19.6272C7.75198 19.6222 7.75198 19.6171 7.75198 19.6121C7.75198 19.607 7.75198 19.602 7.75198 19.5969C7.75198 19.5919 7.75198 19.5869 7.75198 19.5818C7.75198 19.5768 7.75198 19.5717 7.75198 19.5667C7.75198 19.5616 7.75198 19.5566 7.75198 19.5515C7.75198 19.5465 7.75198 19.5415 7.75198 19.5364C7.75198 19.5314 7.75198 19.5263 7.75198 19.5213C7.75198 19.5162 7.75198 19.5112 7.75198 19.5062C7.75198 19.5011 7.75198 19.4961 7.75198 19.491C7.75198 19.486 7.75198 19.4809 7.75198 19.4759C7.75198 19.4708 7.75198 19.4658 7.75198 19.4608C7.75198 19.4557 7.75198 19.4507 7.75198 19.4456C7.75198 19.4406 7.75198 19.4355 7.75198 19.4305C7.75198 19.4255 7.75198 19.4204 7.75198 19.4154C7.75198 19.4103 7.75198 19.4053 7.75198 19.4002C7.75198 19.3952 7.75198 19.3902 7.75198 19.3851C7.75198 19.3801 7.75198 19.375 7.75198 19.37C7.75198 19.3649 7.75198 19.3599 7.75198 19.3548C7.75198 19.3498 7.75198 19.3448 7.75198 19.3397C7.75198 19.3347 7.75198 19.3296 7.75198 19.3246C7.75198 19.3195 7.75198 19.3145 7.75198 19.3095C7.75198 19.3044 7.75198 19.2994 7.75198 19.2943C7.75198 19.2893 7.75198 19.2842 7.75198 19.2792C7.75198 19.2741 7.75198 19.2691 7.75198 19.2641C7.75198 19.259 7.75198 19.254 7.75198 19.2489C7.75198 19.2439 7.75198 19.2388 7.75198 19.2338C7.75198 19.2288 7.75198 19.2237 7.75198 19.2187C7.75198 19.2136 7.75198 19.2086 7.75198 19.2035C7.75198 19.1985 7.75198 19.1934 7.75198 19.1884C7.75198 19.1834 7.75198 19.1783 7.75198 19.1733C7.75198 19.1682 7.75198 19.1632 7.75198 19.1581C7.75198 19.1531 7.75198 19.1481 7.75198 19.143C7.75198 19.138 7.75198 19.1329 7.75198 19.1279C7.75198 19.1228 7.75198 19.1178 7.75198 19.1128C7.75198 19.1077 7.75198 19.1027 7.75198 19.0976C7.75198 19.0926 7.75198 19.0875 7.75198 19.0825C7.75198 19.0774 7.75198 19.0724 7.75198 19.0674H7.13181C7.13181 19.0724 7.13181 19.0774 7.13181 19.0825C7.13181 19.0875 7.13181 19.0926 7.13181 19.0976C7.13181 19.1027 7.13181 19.1077 7.13181 19.1128C7.13181 19.1178 7.13181 19.1228 7.13181 19.1279C7.13181 19.1329 7.13181 19.138 7.13181 19.143C7.13181 19.1481 7.13181 19.1531 7.13181 19.1581C7.13181 19.1632 7.13181 19.1682 7.13181 19.1733C7.13181 19.1783 7.13181 19.1834 7.13181 19.1884C7.13181 19.1934 7.13181 19.1985 7.13181 19.2035C7.13181 19.2086 7.13181 19.2136 7.13181 19.2187C7.13181 19.2237 7.13181 19.2288 7.13181 19.2338C7.13181 19.2388 7.13181 19.2439 7.13181 19.2489C7.13181 19.254 7.13181 19.259 7.13181 19.2641C7.13181 19.2691 7.13181 19.2741 7.13181 19.2792C7.13181 19.2842 7.13181 19.2893 7.13181 19.2943C7.13181 19.2994 7.13181 19.3044 7.13181 19.3095C7.13181 19.3145 7.13181 19.3195 7.13181 19.3246C7.13181 19.3296 7.13181 19.3347 7.13181 19.3397C7.13181 19.3448 7.13181 19.3498 7.13181 19.3548C7.13181 19.3599 7.13181 19.3649 7.13181 19.37C7.13181 19.375 7.13181 19.3801 7.13181 19.3851C7.13181 19.3902 7.13181 19.3952 7.13181 19.4002C7.13181 19.4053 7.13181 19.4103 7.13181 19.4154C7.13181 19.4204 7.13181 19.4255 7.13181 19.4305C7.13181 19.4355 7.13181 19.4406 7.13181 19.4456C7.13181 19.4507 7.13181 19.4557 7.13181 19.4608C7.13181 19.4658 7.13181 19.4708 7.13181 19.4759C7.13181 19.4809 7.13181 19.486 7.13181 19.491C7.13181 19.4961 7.13181 19.5011 7.13181 19.5062C7.13181 19.5112 7.13181 19.5162 7.13181 19.5213C7.13181 19.5263 7.13181 19.5314 7.13181 19.5364C7.13181 19.5415 7.13181 19.5465 7.13181 19.5515C7.13181 19.5566 7.13181 19.5616 7.13181 19.5667C7.13181 19.5717 7.13181 19.5768 7.13181 19.5818C7.13181 19.5869 7.13181 19.5919 7.13181 19.5969C7.13181 19.602 7.13181 19.607 7.13181 19.6121C7.13181 19.6171 7.13181 19.6222 7.13181 19.6272C7.13181 19.6322 7.13181 19.6373 7.13181 19.6423C7.13181 19.6474 7.13181 19.6524 7.13181 19.6575C7.13181 19.6625 7.13181 19.6676 7.13181 19.6726C7.13181 19.6776 7.13181 19.6827 7.13181 19.6877C7.13181 19.6928 7.13181 19.6978 7.13181 19.7029C7.13181 19.7079 7.13181 19.7129 7.13181 19.718C7.13181 19.723 7.13181 19.7281 7.13181 19.7331C7.13181 19.7382 7.13181 19.7432 7.13181 19.7483C7.13181 19.7533 7.13181 19.7583 7.13181 19.7634C7.13181 19.7684 7.13181 19.7735 7.13181 19.7785C7.13181 19.7836 7.13181 19.7886 7.13181 19.7936C7.13181 19.7987 7.13181 19.8037 7.13181 19.8088C7.13181 19.8138 7.13181 19.8189 7.13181 19.8239C7.13181 19.829 7.13181 19.834 7.13181 19.839C7.13181 19.8441 7.13181 19.8491 7.13181 19.8542C7.13181 19.8592 7.13181 19.8643 7.13181 19.8693C7.13181 19.8743 7.13181 19.8794 7.13181 19.8844C7.13181 19.8895 7.13181 19.8945 7.13181 19.8996C7.13181 19.9046 7.13181 19.9097 7.13181 19.9147C7.13181 19.9197 7.13181 19.9248 7.13181 19.9298C7.13181 19.9349 7.13181 19.9399 7.13181 19.945C7.13181 19.95 7.13181 19.955 7.13181 19.9601C7.13181 19.9651 7.13181 19.9702 7.13181 19.9752C7.13181 19.9803 7.13181 19.9853 7.13181 19.9903C7.13181 19.9954 7.13181 20.0004 7.13181 20.0055C7.13181 20.0105 7.13181 20.0156 7.13181 20.0206C7.13181 20.0257 7.13181 20.0307 7.13181 20.0357C7.13181 20.0408 7.13181 20.0458 7.13181 20.0509C7.13181 20.0559 7.13181 20.061 7.13181 20.066C7.13181 20.071 7.13181 20.0761 7.13181 20.0811C7.13181 20.0862 7.13181 20.0912 7.13181 20.0963C7.13181 20.1013 7.13181 20.1064 7.13181 20.1114C7.13181 20.1164 7.13181 20.1215 7.13181 20.1265C7.13181 20.1316 7.13181 20.1366 7.13181 20.1417C7.13181 20.1467 7.13181 20.1517 7.13181 20.1568C7.13181 20.1618 7.13181 20.1669 7.13181 20.1719C7.13181 20.177 7.13181 20.182 7.13181 20.1871C7.13181 20.1921 7.13181 20.1971 7.13181 20.2022C7.13181 20.2072 7.13181 20.2123 7.13181 20.2173C7.13181 20.2224 7.13181 20.2274 7.13181 20.2324C7.13181 20.2375 7.13181 20.2425 7.13181 20.2476C7.13181 20.2526 7.13181 20.2577 7.13181 20.2627C7.13181 20.2677 7.13181 20.2728 7.13181 20.2778C7.13181 20.2829 7.13181 20.2879 7.13181 20.293C7.13181 20.298 7.13181 20.3031 7.13181 20.3081C7.13181 20.3131 7.13181 20.3182 7.13181 20.3232C7.13181 20.3283 7.13181 20.3333 7.13181 20.3384C7.13181 20.3434 7.13181 20.3484 7.13181 20.3535C7.13181 20.3585 7.13181 20.3636 7.13181 20.3686C7.13181 20.3737 7.13181 20.3787 7.13181 20.3838C7.13181 20.3888 7.13181 20.3938 7.13181 20.3989C7.13181 20.4039 7.13181 20.409 7.13181 20.414C7.13181 20.4191 7.13181 20.4241 7.13181 20.4291C7.13181 20.4342 7.13181 20.4392 7.13181 20.4443C7.13181 20.4493 7.13181 20.4544 7.13181 20.4594C7.13181 20.4645 7.13181 20.4695 7.13181 20.4745C7.13181 20.4796 7.13181 20.4846 7.13181 20.4897C7.13181 20.4947 7.13181 20.4998 7.13181 20.5048C7.13181 20.5098 7.13181 20.5149 7.13181 20.5199C7.13181 20.525 7.13181 20.53 7.13181 20.5351C7.13181 20.5401 7.13181 20.5452 7.13181 20.5502C7.13181 20.5552 7.13181 20.5603 7.13181 20.5653C7.13181 20.5704 7.13181 20.5754 7.13181 20.5805C7.13181 20.5855 7.13181 20.5905 7.13181 20.5956C7.13181 20.6006 7.13181 20.6057 7.13181 20.6107C7.13181 20.6158 7.13181 20.6208 7.13181 20.6259C7.13181 20.6309 7.13181 20.6359 7.13181 20.641C7.13181 20.646 7.13181 20.6511 7.13181 20.6561C7.13181 20.6612 7.13181 20.6662 7.13181 20.6712C7.13181 20.6763 7.13181 20.6813 7.13181 20.6864C7.13181 20.6914 7.13181 20.6965 7.13181 20.7015C7.13181 20.7066 7.13181 20.7116 7.13181 20.7166C7.13181 20.7217 7.13181 20.7267 7.13181 20.7318C7.13181 20.7368 7.13181 20.7419 7.13181 20.7469C7.13181 20.7519 7.13181 20.757 7.13181 20.762C7.13181 20.7671 7.13181 20.7721 7.13181 20.7772C7.13181 20.7822 7.13181 20.7872 7.13181 20.7923C7.13181 20.7973 7.13181 20.8024 7.13181 20.8074C7.13181 20.8125 7.13181 20.8175 7.13181 20.8226C7.13181 20.8276 7.13181 20.8326 7.13181 20.8377C7.13181 20.8427 7.13181 20.8478 7.13181 20.8528C7.13181 20.8579 7.13181 20.8629 7.13181 20.8679C7.13181 20.873 7.13181 20.878 7.13181 20.8831C7.13181 20.8881 7.13181 20.8932 7.13181 20.8982C7.13181 20.9033 7.13181 20.9083 7.13181 20.9133C7.13181 20.9184 7.13181 20.9234 7.13181 20.9285C7.13181 20.9335 7.13181 20.9386 7.13181 20.9436C7.13181 20.9486 7.13181 20.9537 7.13181 20.9587C7.13181 20.9638 7.13181 20.9688 7.13181 20.9739C7.13181 20.9789 7.13181 20.984 7.13181 20.989C7.13181 20.994 7.13181 20.9991 7.13181 21.0041C7.13181 21.0092 7.13181 21.0142 7.13181 21.0193C7.13181 21.0243 7.13181 21.0293 7.13181 21.0344C7.13181 21.0394 7.13181 21.0445 7.13181 21.0495C7.13181 21.0546 7.13181 21.0596 7.13181 21.0647C7.13181 21.0697 7.13181 21.0747 7.13181 21.0798C7.13181 21.0848 7.13181 21.0899 7.13181 21.0949C7.13181 21.1 7.13181 21.105 7.13181 21.11C7.13181 21.1151 7.13181 21.1201 7.13181 21.1252C7.13181 21.1302 7.13181 21.1353 7.13181 21.1403C7.13181 21.1453 7.13181 21.1504 7.13181 21.1554C7.13181 21.1605 7.13181 21.1655 7.13181 21.1706C7.13181 21.1756 7.13181 21.1807 7.13181 21.1857C7.13181 21.1907 7.13181 21.1958 7.13181 21.2008C7.13181 21.2059 7.13181 21.2109 7.13181 21.216C7.13181 21.221 7.13181 21.226 7.13181 21.2311C7.13181 21.2361 7.13181 21.2412 7.13181 21.2462C7.13181 21.2513 7.13181 21.2563 7.13181 21.2614C7.13181 21.2664 7.13181 21.2714 7.13181 21.2765C7.13181 21.2815 7.13181 21.2866 7.13181 21.2916C7.13181 21.2967 7.13181 21.3017 7.13181 21.3067C7.13181 21.3118 7.13181 21.3168 7.13181 21.3219C7.13181 21.3269 7.13181 21.332 7.13181 21.337C7.13181 21.3421 7.13181 21.3471 7.13181 21.3521C7.13181 21.3572 7.13181 21.3622 7.13181 21.3673C7.13181 21.3723 7.13181 21.3774 7.13181 21.3824C7.13181 21.3874 7.13181 21.3925 7.13181 21.3975C7.13181 21.4026 7.13181 21.4076 7.13181 21.4127C7.13181 21.4177 7.13181 21.4228 7.13181 21.4278C7.13181 21.4328 7.13181 21.4379 7.13181 21.4429C7.13181 21.448 7.13181 21.453 7.13181 21.4581C7.13181 21.4631 7.13181 21.4681 7.13181 21.4732C7.13181 21.4782 7.13181 21.4833 7.13181 21.4883C7.13181 21.4934 7.13181 21.4984 7.13181 21.5035C7.13181 21.5085 7.13181 21.5135 7.13181 21.5186C7.13181 21.5236 7.13181 21.5287 7.13181 21.5337C7.13181 21.5388 7.13181 21.5438 7.13181 21.5488C7.13181 21.5539 7.13181 21.5589 7.13181 21.564C7.13181 21.569 7.13181 21.5741 7.13181 21.5791C7.13181 21.5841 7.13181 21.5892 7.13181 21.5942C7.13181 21.5993 7.13181 21.6043 7.13181 21.6094C7.13181 21.6144 7.13181 21.6195 7.13181 21.6245C7.13181 21.6295 7.13181 21.6346 7.13181 21.6396C7.13181 21.6447 7.13181 21.6497 7.13181 21.6548C7.13181 21.6598 7.13181 21.6648 7.13181 21.6699C7.13181 21.6749 7.13181 21.68 7.13181 21.685C7.13181 21.6901 7.13181 21.6951 7.13181 21.7002C7.13181 21.7052 7.13181 21.7102 7.13181 21.7153C7.13181 21.7203 7.13181 21.7254 7.13181 21.7304C7.13181 21.7355 7.13181 21.7405 7.13181 21.7455C7.13181 21.7506 7.13181 21.7556 7.13181 21.7607C7.13181 21.7657 7.13181 21.7708 7.13181 21.7758C7.13181 21.7809 7.13181 21.7859 7.13181 21.7909C7.13181 21.796 7.13181 21.801 7.13181 21.8061C7.13181 21.8111 7.13181 21.8162 7.13181 21.8212C7.13181 21.8262 7.13181 21.8313 7.13181 21.8363C7.13181 21.8414 7.13181 21.8464 7.13181 21.8515C7.13181 21.8565 7.13181 21.8616 7.13181 21.8666C7.13181 21.8716 7.13181 21.8767 7.13181 21.8817C7.13181 21.8868 7.13181 21.8918 7.13181 21.8969C7.13181 21.9019 7.13181 21.9069 7.13181 21.912C7.13181 21.917 7.13181 21.9221 7.13181 21.9271C7.13181 21.9322 7.13181 21.9372 7.13181 21.9422C7.13181 21.9473 7.13181 21.9523 7.13181 21.9574C7.13181 21.9624 7.13181 21.9675 7.13181 21.9725C7.13181 21.9776 7.13181 21.9826 7.13181 21.9876C7.13181 21.9927 7.13181 21.9977 7.13181 22.0028C7.13181 22.0078 7.13181 22.0129 7.13181 22.0179C7.13181 22.0229 7.13181 22.028 7.13181 22.033C7.13181 22.0381 7.13181 22.0431 7.13181 22.0482C7.13181 22.0532 7.13181 22.0583 7.13181 22.0633C7.13181 22.0683 7.13181 22.0734 7.13181 22.0784C7.13181 22.0835 7.13181 22.0885 7.13181 22.0936C7.13181 22.0986 7.13181 22.1036 7.13181 22.1087C7.13181 22.1137 7.13181 22.1188 7.13181 22.1238C7.13181 22.1289 7.13181 22.1339 7.13181 22.139C7.13181 22.144 7.13181 22.149 7.13181 22.1541C7.13181 22.1591 7.13181 22.1642 7.13181 22.1692C7.13181 22.1743 7.13181 22.1793 7.13181 22.1843C7.13181 22.1894 7.13181 22.1944 7.13181 22.1995C7.13181 22.2045 7.13181 22.2096 7.13181 22.2146C7.13181 22.2197 7.13181 22.2247 7.13181 22.2297C7.13181 22.2348 7.13181 22.2398 7.13181 22.2449C7.13181 22.2499 7.13181 22.255 7.13181 22.26C7.13181 22.265 7.13181 22.2701 7.13181 22.2751C7.13181 22.2802 7.13181 22.2852 7.13181 22.2903C7.13181 22.2953 7.13181 22.3004 7.13181 22.3054C7.13181 22.3104 7.13181 22.3155 7.13181 22.3205C7.13181 22.3256 7.13181 22.3306 7.13181 22.3357C7.13181 22.3407 7.13181 22.3457 7.13181 22.3508C7.13181 22.3558 7.13181 22.3609 7.13181 22.3659C7.13181 22.371 7.13181 22.376 7.13181 22.381C7.13181 22.3861 7.13181 22.3911 7.13181 22.3962C7.13181 22.4012 7.13181 22.4063 7.13181 22.4113C7.13181 22.4164 7.13181 22.4214 7.13181 22.4264C7.13181 22.4315 7.13181 22.4365 7.13181 22.4416C7.13181 22.4466 7.13181 22.4517 7.13181 22.4567C7.13181 22.4617 7.13181 22.4668 7.13181 22.4718C7.13181 22.4769 7.13181 22.4819 7.13181 22.487C7.13181 22.492 7.13181 22.4971 7.13181 22.5021C7.13181 22.5071 7.13181 22.5122 7.13181 22.5172C7.13181 22.5223 7.13181 22.5273 7.13181 22.5324C7.13181 22.5374 7.13181 22.5424 7.13181 22.5475C7.13181 22.5525 7.13181 22.5576 7.13181 22.5626C7.13181 22.5677 7.13181 22.5727 7.13181 22.5778C7.13181 22.5828 7.13181 22.5878 7.13181 22.5929C7.13181 22.5979 7.13181 22.603 7.13181 22.608C7.13181 22.6131 7.13181 22.6181 7.13181 22.6231C7.13181 22.6282 7.13181 22.6332 7.13181 22.6383C7.13181 22.6433 7.13181 22.6484 7.13181 22.6534C7.13181 22.6585 7.13181 22.6635 7.13181 22.6685C7.13181 22.6736 7.13181 22.6786 7.13181 22.6837C7.13181 22.6887 7.13181 22.6938 7.13181 22.6988C7.13181 22.7038 7.13181 22.7089 7.13181 22.7139C7.13181 22.719 7.13181 22.724 7.13181 22.7291C7.13181 22.7341 7.13181 22.7391 7.13181 22.7442C7.13181 22.7492 7.13181 22.7543 7.13181 22.7593C7.13181 22.7644 7.13181 22.7694 7.13181 22.7745C7.13181 22.7795 7.13181 22.7845 7.13181 22.7896C7.13181 22.7946 7.13181 22.7997 7.13181 22.8047C7.13181 22.8098 7.13181 22.8148 7.13181 22.8198C7.13181 22.8249 7.13181 22.8299 7.13181 22.835C7.13181 22.84 7.13181 22.8451 7.13181 22.8501C7.13181 22.8552 7.13181 22.8602 7.13181 22.8652C7.13181 22.8703 7.13181 22.8753 7.13181 22.8804C7.13181 22.8854 7.13181 22.8905 7.13181 22.8955C7.13181 22.9005 7.13181 22.9056 7.13181 22.9106C7.13181 22.9157 7.13181 22.9207 7.13181 22.9258C7.13181 22.9308 7.13181 22.9359 7.13181 22.9409C7.13181 22.9459 7.13181 22.951 7.13181 22.956C7.13181 22.9611 7.13181 22.9661 7.13181 22.9712C7.13181 22.9762 7.13181 22.9812 7.13181 22.9863C7.13181 22.9913 7.13181 22.9964 7.13181 23.0014C7.13181 23.0065 7.13181 23.0115 7.13181 23.0166C7.13181 23.0216 7.13181 23.0266 7.13181 23.0317C7.13181 23.0367 7.13181 23.0418 7.13181 23.0468C7.13181 23.0519 7.13181 23.0569 7.13181 23.0619C7.13181 23.067 7.13181 23.072 7.13181 23.0771C7.13181 23.0821 7.13181 23.0872 7.13181 23.0922C7.13181 23.0972 7.13181 23.1023 7.13181 23.1073C7.13181 23.1124 7.13181 23.1174 7.13181 23.1225C7.13181 23.1275 7.13181 23.1326 7.13181 23.1376C7.13181 23.1426 7.13181 23.1477 7.13181 23.1527C7.13181 23.1578 7.13181 23.1628 7.13181 23.1679C7.13181 23.1729 7.13181 23.1779 7.13181 23.183C7.13181 23.188 7.13181 23.1931 7.13181 23.1981C7.13181 23.2032 7.13181 23.2082 7.13181 23.2133C7.13181 23.2183 7.13181 23.2233 7.13181 23.2284C7.13181 23.2334 7.13181 23.2385 7.13181 23.2435C7.13181 23.2486 7.13181 23.2536 7.13181 23.2586C7.13181 23.2637 7.13181 23.2687 7.13181 23.2738C7.13181 23.2788 7.13181 23.2839 7.13181 23.2889C7.13181 23.294 7.13181 23.299 7.13181 23.304C7.13181 23.3091 7.13181 23.3141 7.13181 23.3192C7.13181 23.3242 7.13181 23.3293 7.13181 23.3343C7.13181 23.3393 7.13181 23.3444 7.13181 23.3494C7.13181 23.3545 7.13181 23.3595 7.13181 23.3646C7.13181 23.3696 7.13181 23.3747 7.13181 23.3797C7.13181 23.3847 7.13181 23.3898 7.13181 23.3948C7.13181 23.3999 7.13181 23.4049 7.13181 23.41C7.13181 23.415 7.13181 23.42 7.13181 23.4251C7.13181 23.4301 7.13181 23.4352 7.13181 23.4402C7.13181 23.4453 7.13181 23.4503 7.13181 23.4554C7.13181 23.4604 7.13181 23.4654 7.13181 23.4705C7.13181 23.4755 7.13181 23.4806 7.13181 23.4856C7.13181 23.4907 7.13181 23.4957 7.13181 23.5007C7.13181 23.5058 7.13181 23.5108 7.13181 23.5159C7.13181 23.5209 7.13181 23.526 7.13181 23.531C7.13181 23.536 7.13181 23.5411 7.13181 23.5461C7.13181 23.5512 7.13181 23.5562 7.13181 23.5613C7.13181 23.5663 7.13181 23.5714 7.13181 23.5764C7.13181 23.5814 7.13181 23.5865 7.13181 23.5915C7.13181 23.5966 7.13181 23.6016 7.13181 23.6067C7.13181 23.6117 7.13181 23.6167 7.13181 23.6218C7.13181 23.6268 7.13181 23.6319 7.13181 23.6369C7.13181 23.642 7.13181 23.647 7.13181 23.6521C7.13181 23.6571 7.13181 23.6621 7.13181 23.6672C7.13181 23.6722 7.13181 23.6773 7.13181 23.6823C7.13181 23.6874 7.13181 23.6924 7.13181 23.6974C7.13181 23.7025 7.13181 23.7075 7.13181 23.7126C7.13181 23.7176 7.13181 23.7227 7.13181 23.7277C7.13181 23.7328 7.13181 23.7378 7.13181 23.7428C7.13181 23.7479 7.13181 23.7529 7.13181 23.758C7.13181 23.763 7.13181 23.7681 7.13181 23.7731C7.13181 23.7781 7.13181 23.7832 7.13181 23.7882C7.13181 23.7933 7.13181 23.7983 7.13181 23.8034C7.13181 23.8084 7.13181 23.8135 7.13181 23.8185C7.13181 23.8235 7.13181 23.8286 7.13181 23.8336C7.13181 23.8387 7.13181 23.8437 7.13181 23.8488C7.13181 23.8538 7.13181 23.8588 7.13181 23.8639C7.13181 23.8689 7.13181 23.874 7.13181 23.879C7.13181 23.8841 7.13181 23.8891 7.13181 23.8941C7.13181 23.8992 7.13181 23.9042 7.13181 23.9093C7.13181 23.9143 7.13181 23.9194 7.13181 23.9244C7.13181 23.9295 7.13181 23.9345 7.13181 23.9395C7.13181 23.9446 7.13181 23.9496 7.13181 23.9547C7.13181 23.9597 7.13181 23.9648 7.13181 23.9698C7.13181 23.9748 7.13181 23.9799 7.13181 23.9849C7.13181 23.99 7.13181 23.995 7.13181 24.0001C7.13181 24.0051 7.13181 24.0102 7.13181 24.0152C7.13181 24.0202 7.13181 24.0253 7.13181 24.0303C7.13181 24.0354 7.13181 24.0404 7.13181 24.0455C7.13181 24.0505 7.13181 24.0555 7.13181 24.0606C7.13181 24.0656 7.13181 24.0707 7.13181 24.0757C7.13181 24.0808 7.13181 24.0858 7.13181 24.0909C7.13181 24.0959 7.13181 24.1009 7.13181 24.106C7.13181 24.111 7.13181 24.1161 7.13181 24.1211C7.13181 24.1262 7.13181 24.1312 7.13181 24.1362C7.13181 24.1413 7.13181 24.1463 7.13181 24.1514C7.13181 24.1564 7.13181 24.1615 7.13181 24.1665C7.13181 24.1716 7.13181 24.1766 7.13181 24.1816C7.13181 24.1867 7.13181 24.1917 7.13181 24.1968C7.13181 24.2018 7.13181 24.2069 7.13181 24.2119C7.13181 24.2169 7.13181 24.222 7.13181 24.227C7.13181 24.2321 7.13181 24.2371 7.13181 24.2422C7.13181 24.2472 7.13181 24.2523 7.13181 24.2573C7.13181 24.2623 7.13181 24.2674 7.13181 24.2724C7.13181 24.2775 7.13181 24.2825 7.13181 24.2876C7.13181 24.2926 7.13181 24.2976 7.13181 24.3027C7.13181 24.3077 7.13181 24.3128 7.13181 24.3178C7.13181 24.3229 7.13181 24.3279 7.13181 24.3329C7.13181 24.338 7.13181 24.343 7.13181 24.3481C7.13181 24.3531 7.13181 24.3582 7.13181 24.3632C7.13181 24.3683 7.13181 24.3733 7.13181 24.3783C7.13181 24.3834 7.13181 24.3884 7.13181 24.3935C7.13181 24.3985 7.13181 24.4036 7.13181 24.4086C7.13181 24.4136 7.13181 24.4187 7.13181 24.4237C7.13181 24.4288 7.13181 24.4338 7.13181 24.4389C7.13181 24.4439 7.13181 24.449 7.13181 24.454C7.13181 24.459 7.13181 24.4641 7.13181 24.4691C7.13181 24.4742 7.13181 24.4792 7.13181 24.4843C7.13181 24.4893 7.13181 24.4943 7.13181 24.4994C7.13181 24.5044 7.13181 24.5095 7.13181 24.5145C7.13181 24.5196 7.13181 24.5246 7.13181 24.5297C7.13181 24.5347 7.13181 24.5397 7.13181 24.5448C7.13181 24.5498 7.13181 24.5549 7.13181 24.5599C7.13181 24.565 7.13181 24.57 7.13181 24.575C7.13181 24.5801 7.13181 24.5851 7.13181 24.5902C7.13181 24.5952 7.13181 24.6003 7.13181 24.6053C7.13181 24.6104 7.13181 24.6154 7.13181 24.6204C7.13181 24.6255 7.13181 24.6305 7.13181 24.6356C7.13181 24.6406 7.13181 24.6457 7.13181 24.6507C7.13181 24.6557 7.13181 24.6608 7.13181 24.6658C7.13181 24.6709 7.13181 24.6759 7.13181 24.681C7.13181 24.686 7.13181 24.691 7.13181 24.6961C7.13181 24.7011 7.13181 24.7062 7.13181 24.7112C7.13181 24.7163 7.13181 24.7213 7.13181 24.7264C7.13181 24.7314 7.13181 24.7364 7.13181 24.7415C7.13181 24.7465 7.13181 24.7516 7.13181 24.7566C7.13181 24.7617 7.13181 24.7667 7.13181 24.7717C7.13181 24.7768 7.13181 24.7818 7.13181 24.7869C7.13181 24.7919 7.13181 24.797 7.13181 24.802C7.13181 24.8071 7.13181 24.8121 7.13181 24.8171C7.13181 24.8222 7.13181 24.8272 7.13181 24.8323C7.13181 24.8373 7.13181 24.8424 7.13181 24.8474C7.13181 24.8524 7.13181 24.8575 7.13181 24.8625C7.13181 24.8676 7.13181 24.8726 7.13181 24.8777C7.13181 24.8827 7.13181 24.8878 7.13181 24.8928C7.13181 24.8978 7.13181 24.9029 7.13181 24.9079C7.13181 24.913 7.13181 24.918 7.13181 24.9231C7.13181 24.9281 7.13181 24.9331 7.13181 24.9382C7.13181 24.9432 7.13181 24.9483 7.13181 24.9533C7.13181 24.9584 7.13181 24.9634 7.13181 24.9685C7.13181 24.9735 7.13181 24.9785 7.13181 24.9836C7.13181 24.9886 7.13181 24.9937 7.13181 24.9987C7.13181 25.0038 7.13181 25.0088 7.13181 25.0138C7.13181 25.0189 7.13181 25.0239 7.13181 25.029C7.13181 25.034 7.13181 25.0391 7.13181 25.0441C7.13181 25.0492 7.13181 25.0542 7.13181 25.0592C7.13181 25.0643 7.13181 25.0693 7.13181 25.0744C7.13181 25.0794 7.13181 25.0845 7.13181 25.0895C7.13181 25.0945 7.13181 25.0996 7.13181 25.1046C7.13181 25.1097 7.13181 25.1147 7.13181 25.1198C7.13181 25.1248 7.13181 25.1298 7.13181 25.1349C7.13181 25.1399 7.13181 25.145 7.13181 25.15C7.13181 25.1551 7.13181 25.1601 7.13181 25.1652C7.13181 25.1702 7.13181 25.1752 7.13181 25.1803C7.13181 25.1853 7.13181 25.1904 7.13181 25.1954C7.13181 25.2005 7.13181 25.2055 7.13181 25.2105C7.13181 25.2156 7.13181 25.2206 7.13181 25.2257C7.13181 25.2307 7.13181 25.2358 7.13181 25.2408C7.13181 25.2459 7.13181 25.2509 7.13181 25.2559C7.13181 25.261 7.13181 25.266 7.13181 25.2711C7.13181 25.2761 7.13181 25.2812 7.13181 25.2862C7.13181 25.2912 7.13181 25.2963 7.13181 25.3013C7.13181 25.3064 7.13181 25.3114 7.13181 25.3165C7.13181 25.3215 7.13181 25.3266 7.13181 25.3316C7.13181 25.3366 7.13181 25.3417 7.13181 25.3467C7.13181 25.3518 7.13181 25.3568 7.13181 25.3619C7.13181 25.3669 7.13181 25.3719 7.13181 25.377C7.13181 25.382 7.13181 25.3871 7.13181 25.3921C7.13181 25.3972 7.13181 25.4022 7.13181 25.4073C7.13181 25.4123 7.13181 25.4173 7.13181 25.4224C7.13181 25.4274 7.13181 25.4325 7.13181 25.4375C7.13181 25.4426 7.13181 25.4476 7.13181 25.4526C7.13181 25.4577 7.13181 25.4627 7.13181 25.4678C7.13181 25.4728 7.13181 25.4779 7.13181 25.4829C7.13181 25.4879 7.13181 25.493 7.13181 25.498C7.13181 25.5031 7.13181 25.5081 7.13181 25.5132C7.13181 25.5182 7.13181 25.5233 7.13181 25.5283C7.13181 25.5333 7.13181 25.5384 7.13181 25.5434C7.13181 25.5485 7.13181 25.5535 7.13181 25.5586C7.13181 25.5636 7.13181 25.5686 7.13181 25.5737C7.13181 25.5787 7.13181 25.5838 7.13181 25.5888C7.13181 25.5939 7.13181 25.5989 7.13181 25.604C7.13181 25.609 7.13181 25.614 7.13181 25.6191C7.13181 25.6241 7.13181 25.6292 7.13181 25.6342C7.13181 25.6393 7.13181 25.6443 7.13181 25.6493C7.13181 25.6544 7.13181 25.6594 7.13181 25.6645C7.13181 25.6695 7.13181 25.6746 7.13181 25.6796C7.13181 25.6847 7.13181 25.6897 7.13181 25.6947C7.13181 25.6998 7.13181 25.7048 7.13181 25.7099C7.13181 25.7149 7.13181 25.72 7.13181 25.725C7.13181 25.73 7.13181 25.7351 7.13181 25.7401C7.13181 25.7452 7.13181 25.7502 7.13181 25.7553C7.13181 25.7603 7.13181 25.7654 7.13181 25.7704C7.13181 25.7754 7.13181 25.7805 7.13181 25.7855C7.13181 25.7906 7.13181 25.7956 7.13181 25.8007C7.13181 25.8057 7.13181 25.8107 7.13181 25.8158C7.13181 25.8208 7.13181 25.8259 7.13181 25.8309C7.13181 25.836 7.13181 25.841 7.13181 25.8461C7.13181 25.8511 7.13181 25.8561 7.13181 25.8612C7.13181 25.8662 7.13181 25.8713 7.13181 25.8763C7.13181 25.8814 7.13181 25.8864 7.13181 25.8914C7.13181 25.8965 7.13181 25.9015 7.13181 25.9066C7.13181 25.9116 7.13181 25.9167 7.13181 25.9217C7.13181 25.9267 7.13181 25.9318 7.13181 25.9368C7.13181 25.9419 7.13181 25.9469 7.13181 25.952C7.13181 25.957 7.13181 25.9621 7.13181 25.9671C7.13181 25.9721 7.13181 25.9772 7.13181 25.9822C7.13181 25.9873 7.13181 25.9923 7.13181 25.9974C7.13181 26.0024 7.13181 26.0074 7.13181 26.0125C7.13181 26.0175 7.13181 26.0226 7.13181 26.0276C7.13181 26.0327 7.13181 26.0377 7.13181 26.0428C7.13181 26.0478 7.13181 26.0528 7.13181 26.0579C7.13181 26.0629 7.13181 26.068 7.13181 26.073C7.13181 26.0781 7.13181 26.0831 7.13181 26.0881C7.13181 26.0932 7.13181 26.0982 7.13181 26.1033C7.13181 26.1083 7.13181 26.1134 7.13181 26.1184C7.13181 26.1235 7.13181 26.1285 7.13181 26.1335C7.13181 26.1386 7.13181 26.1436 7.13181 26.1487C7.13181 26.1537 7.13181 26.1588 7.13181 26.1638C7.13181 26.1688 7.13181 26.1739 7.13181 26.1789C7.13181 26.184 7.13181 26.189 7.13181 26.1941C7.13181 26.1991 7.13181 26.2042 7.13181 26.2092C7.13181 26.2142 7.13181 26.2193 7.13181 26.2243C7.13181 26.2294 7.13181 26.2344 7.13181 26.2395C7.13181 26.2445 7.13181 26.2495 7.13181 26.2546C7.13181 26.2596 7.13181 26.2647 7.13181 26.2697C7.13181 26.2748 7.13181 26.2798 7.13181 26.2848C7.13181 26.2899 7.13181 26.2949 7.13181 26.3C7.13181 26.305 7.13181 26.3101 7.13181 26.3151C7.13181 26.3202 7.13181 26.3252 7.13181 26.3302C7.13181 26.3353 7.13181 26.3403 7.13181 26.3454C7.13181 26.3504 7.13181 26.3555 7.13181 26.3605C7.13181 26.3655 7.13181 26.3706 7.13181 26.3756C7.13181 26.3807 7.13181 26.3857 7.13181 26.3908C7.13181 26.3958 7.13181 26.4009 7.13181 26.4059C7.13181 26.4109 7.13181 26.416 7.13181 26.421C7.13181 26.4261 7.13181 26.4311 7.13181 26.4362C7.13181 26.4412 7.13181 26.4462 7.13181 26.4513C7.13181 26.4563 7.13181 26.4614 7.13181 26.4664C7.13181 26.4715 7.13181 26.4765 7.13181 26.4816C7.13181 26.4866 7.13181 26.4916 7.13181 26.4967C7.13181 26.5017 7.13181 26.5068 7.13181 26.5118C7.13181 26.5169 7.13181 26.5219 7.13181 26.5269C7.13181 26.532 7.13181 26.537 7.13181 26.5421C7.13181 26.5471 7.13181 26.5522 7.13181 26.5572C7.13181 26.5623 7.13181 26.5673 7.13181 26.5723C7.13181 26.5774 7.13181 26.5824 7.13181 26.5875C7.13181 26.5925 7.13181 26.5976 7.13181 26.6026C7.13181 26.6076 7.13181 26.6127 7.13181 26.6177C7.13181 26.6228 7.13181 26.6278 7.13181 26.6329C7.13181 26.6379 7.13181 26.643 7.13181 26.648C7.13181 26.653 7.13181 26.6581 7.13181 26.6631C7.13181 26.6682 7.13181 26.6732 7.13181 26.6783C7.13181 26.6833 7.13181 26.6883 7.13181 26.6934C7.13181 26.6984 7.13181 26.7035 7.13181 26.7085C7.13181 26.7136 7.13181 26.7186 7.13181 26.7236C7.13181 26.7287 7.13181 26.7337 7.13181 26.7388C7.13181 26.7438 7.13181 26.7489 7.13181 26.7539C7.13181 26.759 7.13181 26.764 7.13181 26.769C7.13181 26.7741 7.13181 26.7791 7.13181 26.7842C7.13181 26.7892 7.13181 26.7943 7.13181 26.7993C7.13181 26.8043 7.13181 26.8094 7.13181 26.8144H7.75198ZM7.7514 19.0863C7.77933 18.6301 7.81844 18.1589 7.81844 17.6812H7.19826C7.19826 18.1339 7.16142 18.5742 7.13238 19.0484L7.7514 19.0863ZM7.81844 17.6812C7.81844 16.4021 8.0666 15.2092 8.72207 14.1407L8.19343 13.8164C7.46278 15.0075 7.19826 16.321 7.19826 17.6812H7.81844ZM8.72161 14.1415C9.18614 13.3889 9.71116 12.7155 10.4045 12.2178L10.0428 11.714C9.25503 12.2795 8.67875 13.0302 8.19388 13.8157L8.72161 14.1415ZM10.4021 12.2195C10.5017 12.1494 10.5677 12.1319 10.607 12.1311C10.6367 12.1305 10.6832 12.1382 10.7542 12.2036L11.1741 11.7472C11.0078 11.5941 10.8122 11.5069 10.595 11.5111C10.3875 11.515 10.2019 11.602 10.0452 11.7123L10.4021 12.2195ZM10.7546 12.2039C10.7877 12.2343 10.832 12.3187 10.8371 12.4447C10.8422 12.5717 10.8042 12.6546 10.778 12.6819L11.2262 13.1106C11.4089 12.9196 11.4659 12.6465 11.4568 12.4198C11.4476 12.1922 11.3685 11.9253 11.1737 11.7468L10.7546 12.2039ZM10.7765 12.6836C10.6242 12.8451 10.4671 13 10.3054 13.1604C10.1453 13.3193 9.98142 13.4831 9.82388 13.6554L10.2816 14.0739C10.4279 13.9139 10.582 13.7597 10.7423 13.6006C10.9011 13.4429 11.0668 13.2797 11.2277 13.109L10.7765 12.6836ZM9.82651 13.6526C9.06508 14.4648 8.64997 15.4308 8.52928 16.527L9.14573 16.5949C9.2529 15.6215 9.6163 14.7836 10.279 14.0767L9.82651 13.6526ZM8.52931 16.5267C8.38481 17.8272 8.36838 19.1261 8.37908 20.4133C8.38984 21.7062 8.42765 22.9779 8.39461 24.2525L9.01458 24.2686C9.04799 22.9799 9.00985 21.6834 8.99924 20.4082C8.98859 19.1273 9.00538 17.8581 9.1457 16.5952L8.52931 16.5267ZM8.39461 24.2525C8.36594 25.3607 8.38505 26.4696 8.39451 27.5671L9.01467 27.5618C9.00514 26.4567 8.98627 25.363 9.01458 24.2686L8.39461 24.2525ZM8.39451 27.5669C8.40419 28.8062 8.57786 30.0529 9.29852 31.1694L9.81958 30.8331C9.19209 29.861 9.02398 28.7532 9.01467 27.562L8.39451 27.5669ZM9.29906 31.1703C9.82967 31.9866 10.5696 32.5735 11.5032 32.8813L11.6973 32.2923C10.903 32.0304 10.2758 31.535 9.81904 30.8323L9.29906 31.1703ZM11.5031 32.8813C12.3906 33.1739 13.2976 33.4828 14.2345 33.705L14.3776 33.1015C13.4726 32.8869 12.5948 32.5882 11.6974 32.2923L11.5031 32.8813ZM14.2335 33.7047C15.0089 33.8912 15.812 33.9595 16.5632 34.0346L16.6249 33.4175C15.8571 33.3407 15.1032 33.276 14.3785 33.1018L14.2335 33.7047ZM16.5628 34.0346C17.3173 34.111 18.0791 34.169 18.8441 34.169V33.5489C18.1092 33.5489 17.3709 33.493 16.6253 33.4175L16.5628 34.0346ZM18.8441 34.169C19.1945 34.169 19.5445 34.1444 19.8849 34.117C20.2288 34.0894 20.5596 34.0593 20.8889 34.0453L20.8628 33.4257C20.5181 33.4403 20.17 33.4719 19.8351 33.4988C19.4967 33.5261 19.1678 33.5489 18.8441 33.5489V34.169ZM20.8879 34.0454C22.1409 33.9968 23.359 33.7737 24.5649 33.4865L24.4212 32.8832C23.2346 33.1658 22.0602 33.3793 20.8638 33.4257L20.8879 34.0454ZM24.5659 33.4863C25.4359 33.276 26.3171 33.0209 27.1266 32.5512L26.8154 32.0148C26.0868 32.4375 25.2781 32.6761 24.4202 32.8835L24.5659 33.4863ZM27.1262 32.5514C28.165 31.9505 28.8681 31.0538 29.1347 29.8332L28.5289 29.7009C28.3018 30.7399 27.7137 31.4951 26.8157 32.0145L27.1262 32.5514ZM29.1344 29.835C29.3498 28.8753 29.4172 27.9301 29.4172 26.9663H28.797C28.797 27.9014 28.7315 28.798 28.5292 29.6991L29.1344 29.835ZM29.4172 26.9653C29.4125 25.4991 29.4125 24.0352 29.4125 22.5706C29.4125 21.1063 29.4125 19.6413 29.4077 18.1739L28.7875 18.1759C28.7923 19.6422 28.7923 21.1061 28.7923 22.5706C28.7923 24.035 28.7923 25.4999 28.797 26.9673L29.4172 26.9653ZM29.4077 18.1749C29.4077 17.0515 29.2727 15.9085 28.7805 14.8538L28.2185 15.1161C28.6567 16.0551 28.7875 17.0958 28.7875 18.1749H29.4077ZM28.7798 14.8522C28.5017 14.2652 28.0283 13.751 27.655 13.3049L27.1794 13.7029C27.5846 14.1872 27.9846 14.6224 28.2193 15.1177L28.7798 14.8522ZM27.6533 13.3028C27.2098 12.7823 26.7375 12.2811 26.2459 11.8087L25.8162 12.2559C26.293 12.714 26.7511 13.2002 27.1811 13.705L27.6533 13.3028ZM26.2472 11.81C25.8505 11.4243 25.3326 11.1903 24.7054 11.3205L24.8314 11.9277C25.2105 11.849 25.5281 11.9758 25.8149 12.2547L26.2472 11.81ZM24.7064 11.3203C23.7429 11.5169 22.8684 11.7724 21.9553 11.8369L21.999 12.4556C22.9657 12.3872 23.933 12.111 24.8304 11.9279L24.7064 11.3203ZM21.9552 11.8369C20.4943 11.9406 19.0144 11.9689 17.5535 11.9218L17.5335 12.5416C19.0157 12.5894 20.5169 12.5608 21.9991 12.4556L21.9552 11.8369ZM17.5515 11.9217C16.4694 11.8937 15.3757 11.763 14.3078 11.557L14.1903 12.1659C15.287 12.3776 16.4149 12.5127 17.5355 12.5417L17.5515 11.9217ZM14.3062 11.5567C13.2546 11.3595 12.255 11.0844 11.3997 10.4786L11.0413 10.9847C12.0088 11.67 13.1169 11.9646 14.1919 12.1662L14.3062 11.5567ZM11.3999 10.4787C10.6736 9.9636 10.3293 9.21209 10.5354 8.31356L9.93088 8.17491C9.66226 9.34607 10.1344 10.3414 11.0411 10.9846L11.3999 10.4787ZM10.5363 8.30921C10.5978 8.02237 10.6275 7.73027 10.6469 7.44909L10.0282 7.40642C10.0096 7.67589 9.98238 7.93444 9.92991 8.17926L10.5363 8.30921ZM10.6472 7.44458C10.6962 6.54253 10.6848 5.70615 10.7878 4.85412L10.1721 4.7797C10.0662 5.65558 10.0738 6.56609 10.0279 7.41093L10.6472 7.44458ZM10.7882 4.85116C10.8471 4.32055 11.2594 3.95487 11.7965 3.58082L11.442 3.0719C10.9158 3.43838 10.2647 3.94614 10.1718 4.78267L10.7882 4.85116ZM11.795 3.58181C12.6194 3.01452 13.5863 2.78586 14.621 2.58651L14.5037 1.97753C13.4687 2.17693 12.385 2.42297 11.4434 3.07091L11.795 3.58181ZM14.6212 2.58647C16.3188 2.25822 18.0311 2.10893 19.7403 2.19299L19.7708 1.57356C18.0052 1.48673 16.2428 1.64125 14.5035 1.97757L14.6212 2.58647ZM19.7415 2.19305C20.9808 2.24938 22.2303 2.39026 23.4616 2.60643L23.5688 1.99559C22.3126 1.77504 21.0367 1.6311 19.7696 1.57351L19.7415 2.19305ZM23.4631 2.60669C24.2709 2.74438 25.0924 3.00236 25.8524 3.32674L26.0958 2.75634C25.2988 2.41615 24.4304 2.14246 23.5673 1.99533L23.4631 2.60669ZM25.8533 3.32712C26.5331 3.61474 27.0584 4.08653 27.272 4.80127L27.8662 4.62369C27.5861 3.68648 26.8962 3.09495 26.0949 2.75596L25.8533 3.32712ZM27.2714 4.7993C27.4405 5.37916 27.2729 6.20988 26.6311 6.66149L26.988 7.16867C27.8843 6.53797 28.0964 5.41294 27.8668 4.62565L27.2714 4.7993ZM26.6281 6.66363C25.7557 7.29325 24.786 7.62301 23.7241 7.8559L23.8569 8.46168C24.9596 8.21987 26.0217 7.86607 26.991 7.16653L26.6281 6.66363ZM23.723 7.85614C22.5163 8.12532 21.2883 8.20027 20.0195 8.28613L20.0613 8.90489C21.3179 8.81986 22.5963 8.74291 23.858 8.46144L23.723 7.85614ZM20.0184 8.2862C18.5761 8.38856 17.1369 8.27729 15.7021 8.09794L15.6252 8.71333C17.0766 8.89475 18.5615 9.01133 20.0623 8.90482L20.0184 8.2862ZM15.699 8.09756C15.1738 8.0373 14.6567 7.79625 14.0716 7.55825L13.8379 8.13272C14.3731 8.35044 14.9952 8.64105 15.6283 8.7137L15.699 8.09756ZM14.0728 7.55876C13.9264 7.49846 13.8491 7.3172 13.9128 7.14738L13.3321 6.92962C13.1679 7.36741 13.3375 7.92669 13.8367 8.13222L14.0728 7.55876ZM13.9116 7.15044C13.937 7.08487 14.0068 7.00316 14.1086 6.94791C14.2105 6.89262 14.2981 6.88802 14.3504 6.90545L14.5465 6.3171C14.2855 6.23009 14.0171 6.29195 13.8128 6.40281C13.6084 6.5137 13.4218 6.69782 13.3333 6.92656L13.9116 7.15044ZM14.3556 6.90715C16.5011 7.58005 18.695 7.55723 20.8435 7.45266L20.8133 6.83321C18.6705 6.93751 16.5731 6.95267 14.5412 6.31539L14.3556 6.90715ZM20.842 7.45273C21.9573 7.40381 23.0635 7.12962 24.1118 6.90498L23.9819 6.29857C22.9035 6.52965 21.8641 6.78712 20.8148 6.83314L20.842 7.45273ZM24.1118 6.90498C24.6843 6.78231 25.2279 6.52884 25.7192 6.29262L25.4505 5.73368C24.9545 5.97216 24.4727 6.19339 23.9819 6.29857L24.1118 6.90498ZM25.7207 6.29192C26.1744 6.07087 26.4307 5.70022 26.4325 5.28465C26.4343 4.88184 26.1955 4.51646 25.8311 4.29545L25.5095 4.8257C25.7243 4.95597 25.813 5.1365 25.8124 5.28196C25.8118 5.41466 25.7358 5.59467 25.4491 5.73439L25.7207 6.29192ZM25.8318 4.29587C25.2393 3.93435 24.6088 3.69484 23.9437 3.54593L23.8082 4.15113C24.4153 4.28704 24.981 4.50323 25.5088 4.82528L25.8318 4.29587ZM23.9432 3.54582C23.2518 3.39217 22.5424 3.28486 21.8709 3.16361L21.7607 3.77392C22.4563 3.89952 23.133 4.00108 23.8087 4.15123L23.9432 3.54582ZM21.8696 3.1634C21.6953 3.13263 21.5124 3.11238 21.3403 3.10225L21.3039 3.72136C21.4545 3.73022 21.6134 3.74795 21.7619 3.77414L21.8696 3.1634ZM21.3436 3.10246C20.6711 3.05576 19.9626 2.98814 19.2705 2.96892L19.2533 3.58886C19.9283 3.60761 20.6059 3.67291 21.3006 3.72115L21.3436 3.10246ZM19.2674 2.96885C18.7214 2.9591 18.1504 3.0179 17.6408 3.0452L17.674 3.66449C18.2277 3.63482 18.739 3.57969 19.2563 3.58893L19.2674 2.96885ZM17.6345 3.0456C17.4114 3.06212 17.1026 3.06519 16.8335 3.10506L16.9243 3.71855C17.1678 3.68248 17.3907 3.68553 17.6803 3.66408L17.6345 3.0456ZM16.8327 3.10517C15.9673 3.23546 15.0599 3.33386 14.1825 3.52668L14.3156 4.1324C15.1662 3.94547 16.0246 3.85399 16.9251 3.71844L16.8327 3.10517ZM14.1844 3.52626C13.5708 3.65703 12.9835 3.90706 12.4364 4.1429L12.6819 4.71242C13.236 4.47356 13.7691 4.24889 14.3137 4.13282L14.1844 3.52626ZM12.4343 4.14383C12.1539 4.26717 11.9196 4.44531 11.7598 4.69693C11.6002 4.94816 11.5316 5.24637 11.537 5.58151L12.1571 5.57135C12.1531 5.32736 12.2032 5.15562 12.2833 5.02946C12.3632 4.90369 12.4896 4.79702 12.684 4.71149L12.4343 4.14383ZM11.5371 5.58296C11.5557 6.46971 11.5091 7.36597 11.397 8.25284L12.0123 8.33057C12.1282 7.41359 12.1764 6.487 12.1571 5.5699L11.5371 5.58296ZM11.397 8.25324C11.387 8.33352 11.3695 8.41388 11.3491 8.5151C11.3301 8.60931 11.3085 8.72205 11.3025 8.83663C11.2963 8.95344 11.3051 9.08619 11.3561 9.22033C11.4084 9.35791 11.4983 9.47897 11.6273 9.5801L12.0099 9.09198C11.9633 9.05545 11.9452 9.0246 11.9358 8.9999C11.9251 8.97175 11.9185 8.93183 11.9218 8.86944C11.9252 8.80483 11.9381 8.73183 11.957 8.63765C11.9746 8.55047 11.9987 8.43977 12.0124 8.33017L11.397 8.25324ZM11.6265 9.57943C12.0055 9.87865 12.4534 10.1555 12.932 10.322L13.1357 9.73622C12.7408 9.59887 12.3533 9.36307 12.0108 9.09266L11.6265 9.57943ZM12.934 10.3227C14.3789 10.814 15.8751 11.1459 17.4276 11.1557L17.4315 10.5355C15.9649 10.5263 14.5369 10.2126 13.1337 9.73552L12.934 10.3227ZM17.4224 11.1556C18.2376 11.1743 18.5078 11.1936 19.11 11.1936V10.5735C18.5159 10.5735 18.2734 10.5548 17.4367 10.5356L17.4224 11.1556ZM19.11 11.1936C20.1672 11.1936 21.2199 11.0381 22.2389 10.926L22.1711 10.3095C21.1205 10.4252 20.1224 10.5735 19.11 10.5735V11.1936ZM22.2368 10.9262C22.8862 10.8593 23.5599 10.7721 24.2096 10.6047L24.0549 10.0041C23.4514 10.1596 22.815 10.2432 22.1733 10.3093L22.2368 10.9262ZM24.2093 10.6048C24.9443 10.4163 25.7588 10.1948 26.426 9.65266L26.0349 9.17133C25.4869 9.61657 24.8014 9.81275 24.0553 10.0041L24.2093 10.6048ZM26.429 9.65021C26.5653 9.53662 26.6562 9.38441 26.7168 9.24445C26.7786 9.10168 26.8179 8.95077 26.8401 8.81738L26.2284 8.71543C26.2126 8.8099 26.1855 8.91057 26.1476 8.99803C26.1086 9.0883 26.0665 9.14496 26.0319 9.17378L26.429 9.65021ZM26.8404 8.81578C26.8782 8.58121 26.9774 8.44153 27.0698 8.37975C27.1488 8.3269 27.2595 8.30489 27.4167 8.38652L27.7025 7.83612C27.366 7.66142 27.0115 7.67263 26.725 7.86425C26.4519 8.04694 26.2852 8.36297 26.2281 8.71703L26.8404 8.81578ZM27.4145 8.38537C27.4431 8.4005 27.4883 8.4377 27.5334 8.49866C27.5776 8.55843 27.6073 8.62166 27.6195 8.67072L28.2212 8.5203C28.186 8.37949 28.116 8.24334 28.032 8.12984C27.9489 8.01755 27.8375 7.90758 27.7047 7.83727L27.4145 8.38537ZM27.6187 8.66734C27.7314 9.14065 27.5755 9.57382 27.2289 9.97961L27.7005 10.3824C28.1324 9.87677 28.3942 9.24662 28.222 8.52369L27.6187 8.66734ZM27.2296 9.97881C26.9788 10.2704 26.866 10.5958 26.9104 10.9324C26.9533 11.2575 27.1366 11.5447 27.3783 11.7864L27.8169 11.3479C27.6313 11.1623 27.5441 10.9938 27.5253 10.8513C27.508 10.7204 27.5423 10.5663 27.6998 10.3832L27.2296 9.97881ZM27.3783 11.7864C27.9444 12.3525 28.5003 12.9366 29.0273 13.5295L29.4908 13.1175C28.9545 12.5141 28.3901 11.9211 27.8169 11.3479L27.3783 11.7864ZM29.0271 13.5293C29.5768 14.1488 29.8748 14.9279 30.0985 15.7761L30.6981 15.6179C30.4661 14.7382 30.1375 13.8463 29.491 13.1177L29.0271 13.5293ZM30.0986 15.7766C30.4083 16.9425 30.3348 18.1379 30.3446 19.402L30.9647 19.3973C30.9555 18.193 31.0339 16.8819 30.698 15.6174L30.0986 15.7766ZM30.3446 19.4015C30.3635 22.5407 30.3256 25.6804 30.2876 28.8234L30.9077 28.8309C30.9457 25.6889 30.9837 22.5436 30.9647 19.3978L30.3446 19.4015ZM30.2876 28.8229C30.2695 30.1567 29.8721 31.36 28.9746 32.3285L29.4295 32.7501C30.4498 31.6489 30.8879 30.2888 30.9077 28.8314L30.2876 28.8229ZM28.9753 32.3278C28.3486 32.9999 27.6035 33.5266 26.7323 33.811L26.9248 34.4006C27.9144 34.0774 28.7454 33.4838 29.4289 32.7508L28.9753 32.3278ZM26.7339 33.8105C25.9794 34.0523 25.2613 34.3106 24.5286 34.4775L24.6664 35.0822C25.4337 34.9074 26.1967 34.6339 26.9232 34.4011L26.7339 33.8105ZM24.5291 34.4774C23.7476 34.6542 22.9438 34.7666 22.1403 34.8612L22.2128 35.4771C23.0232 35.3817 23.8524 35.2663 24.6659 35.0823L24.5291 34.4774ZM22.1423 34.8609C21.3678 34.947 20.6384 34.9615 19.8333 35.0311L19.8867 35.649C20.6197 35.5856 21.4472 35.5622 22.2108 35.4773L22.1423 34.8609Z" fill="#2D333A" mask="url(#path-1-outside-1)"/>
<path d="M24.0284 26.1203L24.1367 26.0094C24.5408 26.404 24.94 26.8008 25.3399 27.1983L25.3409 27.1993C25.7402 27.5963 26.1402 27.9939 26.5472 28.3914C26.871 28.6962 27.1877 29.0108 27.5026 29.3236C27.6595 29.4793 27.8158 29.6347 27.9725 29.7882L28.0485 29.8627L28.0063 29.9605C27.6891 30.694 27.155 31.2573 26.4511 31.67C26.4387 31.6788 26.4274 31.6846 26.4195 31.6882C26.4182 31.6887 26.417 31.6893 26.4158 31.6898L26.3271 31.7785L26.2175 31.6712C25.7714 31.2345 25.3276 30.7979 24.884 30.3614L24.8833 30.3607L24.8832 30.3607C24.4394 29.9239 23.9957 29.4874 23.5497 29.0508L23.5492 29.0504C23.4573 28.9596 23.3654 28.8688 23.2735 28.778C22.6338 28.1455 21.9939 27.5129 21.3323 26.9092C20.6614 26.3018 19.8368 26.0197 18.9333 26.038L18.933 26.038C17.9594 26.0562 17.1233 26.4277 16.4187 27.1231C15.9488 27.5883 15.4765 28.0535 15.0044 28.5185L15.004 28.5188C14.5317 28.9841 14.0595 29.4491 13.5897 29.9142L13.5894 29.9145C13.2858 30.2133 12.9846 30.5121 12.6831 30.8112L12.6828 30.8115C12.3815 31.1105 12.08 31.4096 11.776 31.7088L11.6965 31.7871L11.597 31.7365C11.0113 31.4388 10.5354 31.0019 10.1701 30.4391L10.1697 30.4385C10.0814 30.3012 10.0027 30.1634 9.93359 30.0252L9.88164 29.9213L9.96677 29.8423C10.0308 29.7828 10.0928 29.7208 10.1573 29.6564L10.1582 29.6554C10.2212 29.5925 10.2864 29.5272 10.3544 29.464C10.6096 29.2135 10.8602 28.9629 11.1114 28.7117L11.1116 28.7115C11.363 28.4602 11.6149 28.2082 11.8717 27.9562C12.012 27.8172 12.1521 27.6782 12.2923 27.5393C13.1374 26.7011 13.9811 25.8644 14.8458 25.0487L14.8459 25.0485C15.6663 24.277 16.6526 23.799 17.7526 23.5945C19.5702 23.2447 21.2563 23.6249 22.753 24.7231L22.7532 24.7233C23.1463 25.0125 23.4912 25.3608 23.8267 25.6995C23.9306 25.8044 24.0336 25.9085 24.1368 26.0095L24.0284 26.1203ZM24.0284 26.1203C24.4323 26.5147 24.8314 26.9115 25.2318 27.3094C25.6313 27.7066 26.032 28.105 26.4399 28.5033L24.0284 26.1203Z" fill="#2D333A" stroke="#2D333A" stroke-width="0.310089"/>
<path d="M26.44 13.8273C26.4744 13.6761 26.4132 13.6746 26.3562 13.6969C26.3532 13.6989 26.347 13.7033 26.3438 13.7057C26.3404 13.7084 26.3378 13.7107 26.3372 13.7112L26.3372 13.7113L26.3338 13.7144L26.3321 13.716L26.3312 13.7169L26.3307 13.7173L26.3304 13.7176L26.3293 13.7188L26.3209 13.7271C26.3209 13.7271 26.3209 13.7271 26.3209 13.7271C26.1053 13.9427 25.8864 14.1532 25.6676 14.3635C25.5598 14.4671 25.452 14.5708 25.3447 14.6749L25.3442 14.6754C24.9396 15.0712 24.5572 15.444 24.1827 15.8091C23.3366 16.6339 22.5312 17.419 21.603 18.3406C20.7485 19.1859 19.7588 19.5914 18.5778 19.4551C17.8656 19.3729 17.2204 19.1089 16.6658 18.6452C16.2763 18.3196 15.9253 17.9671 15.5677 17.608C15.3984 17.438 15.2276 17.2665 15.0506 17.0957L26.44 13.8273ZM26.44 13.8273L26.4744 13.6761L26.5249 13.6876L26.5584 13.7271C26.6093 13.7873 26.6628 13.8477 26.7176 13.9097L26.7181 13.9103C26.7723 13.9716 26.8278 14.0344 26.8812 14.0974L26.8813 14.0975C26.924 14.1481 26.9677 14.1993 27.0118 14.251C27.333 14.6273 27.681 15.035 27.8993 15.4972M26.44 13.8273L27.8993 15.4972M9.85529 15.5763L9.90527 15.4764C10.0922 15.1026 10.3285 14.758 10.6331 14.4336C10.7537 14.3034 10.8787 14.1783 11.0014 14.0557L11.0024 14.0547C11.1262 13.9309 11.2475 13.8096 11.3638 13.684L11.4732 13.5657L11.5872 13.6797L11.6062 13.6987C12.7451 14.8376 13.8932 15.9762 15.0505 17.0956L9.85529 15.5763ZM9.85529 15.5763L9.93431 15.6553M9.85529 15.5763L9.93431 15.6553M9.93431 15.6553C10.0205 15.7415 10.1066 15.8252 10.1918 15.9081L10.1922 15.9084C10.2778 15.9916 10.3624 16.074 10.447 16.1585L10.447 16.1585M9.93431 15.6553L10.447 16.1585M10.447 16.1585L10.4481 16.1596M10.447 16.1585L10.4481 16.1596M10.4481 16.1596C11.0027 16.7028 11.5562 17.248 12.1103 17.7937C12.9397 18.6105 13.7702 19.4285 14.6069 20.2424L14.6071 20.2427M10.4481 16.1596L14.6071 20.2427M14.6071 20.2427C15.8222 21.4189 17.284 22.023 18.9751 22.0522L18.9835 22.0523M14.6071 20.2427L18.9835 22.0523M18.9835 22.0523L18.9918 22.0516M18.9835 22.0523L18.9918 22.0516M18.9918 22.0516C19.0397 22.0472 19.0906 22.045 19.1459 22.0426L19.1477 22.0425C19.2009 22.0402 19.2583 22.0377 19.314 22.0326C19.3432 22.0302 19.3761 22.0284 19.4112 22.0264C19.4904 22.0219 19.5808 22.0168 19.6639 22.0033C21.0839 21.8371 22.2915 21.2422 23.3112 20.242L23.3114 20.2417M18.9918 22.0516L23.3114 20.2417M23.3114 20.2417C23.6526 19.9053 23.9961 19.5736 24.3404 19.2412L24.3407 19.2409C24.6846 18.9089 25.0291 18.5762 25.3714 18.2387C25.9358 17.687 26.4962 17.1308 27.0576 16.5736C27.337 16.2963 27.6167 16.0187 27.8972 15.7414L27.9771 15.6623L27.9269 15.5618C27.9256 15.5593 27.9234 15.554 27.9179 15.5403L27.9171 15.5384C27.9132 15.5285 27.9067 15.5122 27.8993 15.4972M23.3114 20.2417L27.8993 15.4972" fill="#2D333A" stroke="#2D333A" stroke-width="0.310089"/>
<path d="M59.0659 10.4119H55.5681L51.4501 16.8617L47.3569 10.4119H43.7847L49.6144 19.1936L43.7351 28.0001H47.2329L51.3757 21.5751L55.4689 28.0001H59.0411L53.2114 19.2184L59.0659 10.4119ZM70.4396 28.0001H73.8134L69.8442 20.7564C72.3001 20.1611 73.8134 18.2509 73.8134 15.7454C73.8134 12.7685 71.7048 10.4119 68.3062 10.4119H61.5586V28.0001H64.5603V21.0541H66.7433L70.4396 28.0001ZM64.5603 18.4246V13.0414H67.7604C69.5962 13.0414 70.7869 14.1081 70.7869 15.7454C70.7869 17.3579 69.5962 18.4246 67.7604 18.4246H64.5603ZM79.9673 18.499V13.0414H83.0682C84.9535 13.0414 86.0947 14.1081 86.0947 15.795C86.0947 17.4571 84.9535 18.499 83.0682 18.499H79.9673ZM83.5147 21.1285C86.8885 21.1285 89.1211 18.8711 89.1211 15.7702C89.1211 12.6941 86.8885 10.4119 83.5147 10.4119H76.9904V28.0001H79.9673V21.1285H83.5147ZM110.694 13.2151V10.4119H96.2807V13.2151H101.986V28.0001H104.963V13.2151H110.694ZM115.425 28.0001V15.919H112.572V28.0001H115.425ZM112.126 11.677C112.126 12.7189 112.969 13.5376 113.986 13.5376C115.028 13.5376 115.872 12.7189 115.872 11.677C115.872 10.6351 115.028 9.79167 113.986 9.79167C112.969 9.79167 112.126 10.6351 112.126 11.677ZM121.99 32.7135V26.6357C122.61 27.5536 123.925 28.2978 125.662 28.2978C129.135 28.2978 131.343 25.569 131.343 21.9472C131.343 18.3749 129.333 15.6462 125.761 15.6462C123.9 15.6462 122.511 16.5144 121.916 17.5563V15.919H119.137V32.7135H121.99ZM128.465 21.9472C128.465 24.2542 127.125 25.7427 125.215 25.7427C123.33 25.7427 121.965 24.2542 121.965 21.9472C121.965 19.6897 123.33 18.2013 125.215 18.2013C127.15 18.2013 128.465 19.6897 128.465 21.9472ZM134.357 10.4119V28.0001H140.856C144.131 28.0001 146.314 25.9659 146.314 23.1379C146.314 21.0541 145.024 19.4417 143.163 18.9455C144.677 18.3998 145.768 17.0106 145.768 15.15C145.768 12.3964 143.784 10.4119 140.41 10.4119H134.357ZM137.309 17.854V12.9422H139.939C141.749 12.9422 142.791 13.9097 142.791 15.3981C142.791 16.8617 141.749 17.854 140.013 17.854H137.309ZM137.309 25.4698V20.3595H140.435C142.27 20.3595 143.288 21.4262 143.288 22.9395C143.288 24.5023 142.122 25.4698 140.335 25.4698H137.309ZM154.607 25.7923C152.846 25.7923 151.233 24.4527 151.233 21.9472C151.233 19.4417 152.846 18.1517 154.607 18.1517C156.393 18.1517 157.981 19.4417 157.981 21.9472C157.981 24.4775 156.393 25.7923 154.607 25.7923ZM154.607 15.5469C151.01 15.5469 148.356 18.2509 148.356 21.9472C148.356 25.6683 151.01 28.3722 154.607 28.3722C158.229 28.3722 160.883 25.6683 160.883 21.9472C160.883 18.2509 158.229 15.5469 154.607 15.5469ZM167.238 12.2228H164.634V14.0337C164.634 15.1004 164.063 15.919 162.773 15.919H162.153V18.4742H164.385V24.5519C164.385 26.8094 165.775 28.149 168.007 28.149C169.049 28.149 169.595 27.9505 169.769 27.8761V25.4946C169.645 25.5194 169.173 25.5938 168.776 25.5938C167.71 25.5938 167.238 25.1473 167.238 24.0806V18.4742H169.744V15.919H167.238V12.2228Z" fill="#2D333A"/>
</svg>
