<svg xmlns="http://www.w3.org/2000/svg" width="100" height="100" fill="none"><path fill="#FF7A7F" d="M78.89 71.207v5.956H6.584V36.81l9.584.004.003-6.531-16.114-.007v.01H.055v53.016h.003v.39h78.831v.004h6.53v-12.49h-6.53Z"/><path fill="#FFC8DC" d="M24.691 77.164H6.578v6.58h18.113v-6.58Z"/><path fill="#A3BEDC" d="M6.578 83.743V65.629h-6.58v18.114h6.58Z"/><path fill="#56B7B5" d="M6.578 65.633V47.52h-6.58v18.113h6.58Z"/><path fill="#FF9852" d="M42.722 77.164H24.61v6.58h18.113v-6.58Z"/><path fill="#98E1D0" d="M60.886 77.164H42.773v6.58h18.113v-6.58Z"/><path fill="#8075B3" d="M78.996 77.164H60.883v6.58h18.113v-6.58Z"/><path fill="#8075B3" d="M85.418 83.738V68.133h-6.58v15.605h6.58Z"/><path fill="#98E1D0" d="M14.635 69.672H100V16.256H14.635v53.416Z"/><path fill="#fff" d="M26.456 47.081h5.738c.704 0 1.273-.569 1.273-1.273v-5.734c0-.704-.57-1.273-1.273-1.273h-5.738c-.704 0-1.272.569-1.272 1.273v5.737c0 .702.568 1.27 1.272 1.27ZM57.326 56.435c7.343 0 13.295-5.953 13.295-13.296 0-7.343-5.952-13.295-13.295-13.295-7.342 0-13.295 5.952-13.295 13.295s5.953 13.296 13.295 13.296ZM82.437 47.081h5.737c.704 0 1.273-.569 1.273-1.273v-5.734c0-.704-.569-1.273-1.273-1.273h-5.737c-.704 0-1.273.569-1.273 1.273v5.737c0 .702.569 1.27 1.273 1.27Z"/><style>@media (prefers-color-scheme:light){:root{filter:none}}@media (prefers-color-scheme:dark){:root{filter:none}}</style></svg>
