<svg class="icon" viewBox="0 0 58 58" xmlns="http://www.w3.org/2000/svg" aria-hidden="true" role="img">
<path d="M57.4994 26.773C57.6925 22.9881 54.7053 20.704 51.8274 18.6348C49.9623 7.39651 32.4764 7.56408 27.8281 7.9903C18.6808 1.93947 8.42611 1.67718 7.4061 2.16169C7.17295 2.98862 7.33324 13.3636 10.2548 19.3962C10.2548 19.3962 5.72673 22.0045 4 27.9606C7.73031 22.5036 14.8667 20.7295 14.8667 20.7295C12.4151 15.3854 11.202 6.402 11.5153 6.43843C20.7136 7.4038 27.0959 11.7388 27.0959 11.7388C45.4524 10.9957 47.7001 17.4909 48.1153 20.7768C53.6926 24.6091 54.1844 26.4743 53.7764 27.9424C53.7655 27.9606 53.7655 27.9897 53.7582 28.008C53.729 28.0917 53.7035 28.1755 53.6744 28.2593H53.6853C52.2828 32.751 49.5179 36.842 49.5652 37.0095C50.0934 38.8856 50.6034 45.92 43.1137 46.328C41.9152 35.3957 27.023 44.6195 25.1943 52C29.2962 46.43 40.9789 40.6051 39.9953 50.1057C54.3702 50.1786 54.3811 40.9074 53.5177 37.7636C56.7963 32.3321 57.565 27.6364 57.4994 26.773Z" fill="currentColor"/>
<path d="M15.2929 24.6201C11.5698 25.6328 8.20382 27.6655 4.56458 32.4231H7.8031C6.16016 35.3265 5.43522 37.7126 5.72301 42.0367C7.51531 36.6452 11.7447 31.9386 15.5151 29.0061H10.9323L15.2929 24.6201Z" fill="currentColor"/>
</svg>