<svg width="20" height="21" viewBox="0 0 20 21" fill="none" xmlns="http://www.w3.org/2000/svg">
<path d="M7.3445 10.3203L13.7753 16.7495C13.8981 16.8723 13.9587 17.02 13.957 17.1928C13.9553 17.365 13.8931 17.5128 13.7703 17.6361C13.647 17.7589 13.4989 17.8203 13.3262 17.8203C13.1539 17.8203 13.0062 17.7589 12.8828 17.6361L6.5195 11.267C6.38505 11.1325 6.28672 10.9825 6.2245 10.817C6.16228 10.6514 6.13144 10.4859 6.132 10.3203C6.13255 10.1548 6.16339 9.9892 6.2245 9.82365C6.28561 9.65809 6.38394 9.50809 6.5195 9.37365L12.8878 3.00365C13.0112 2.88087 13.1584 2.82031 13.3295 2.82198C13.5001 2.82365 13.6467 2.88587 13.7695 3.00865C13.8923 3.13142 13.9537 3.2792 13.9537 3.45198C13.9537 3.62476 13.8923 3.77226 13.7695 3.89448L7.3445 10.3203Z" fill="#8075B3"/>
</svg>
