<svg width="20" height="21" viewBox="0 0 20 21" fill="none" xmlns="http://www.w3.org/2000/svg">
<path d="M12.6555 10.3203L6.22467 3.89115C6.10189 3.76837 6.04134 3.62059 6.043 3.44781C6.04467 3.27559 6.10689 3.12781 6.22967 3.00448C6.353 2.8817 6.50106 2.82031 6.67384 2.82031C6.84606 2.82031 6.99384 2.8817 7.11717 3.00448L13.4805 9.37365C13.6149 9.50809 13.7133 9.65809 13.7755 9.82365C13.8377 9.9892 13.8686 10.1548 13.868 10.3203C13.8674 10.4859 13.8366 10.6514 13.7755 10.817C13.7144 10.9825 13.6161 11.1325 13.4805 11.267L7.11217 17.637C6.98884 17.7598 6.84161 17.8203 6.6705 17.8186C6.49995 17.817 6.35328 17.7548 6.2305 17.632C6.10772 17.5092 6.04634 17.3614 6.04634 17.1886C6.04634 17.0159 6.10772 16.8684 6.2305 16.7461L12.6555 10.3203Z" fill="currentColor"/>
</svg>
