<svg width="1360" height="769" fill="none" xmlns="http://www.w3.org/2000/svg"><path d="M278.066 697h-72v26h72v-26Z" fill="#FFCBDF" fill-opacity=".5"/><path d="M304 697h-26v72h26v-72Z" fill="#A6C1DF" fill-opacity=".5"/><path d="M206 697h-72v26h72v-26Z" fill="#FF9B52" fill-opacity=".5"/><path d="M134 697H62v26h72v-26Z" fill="#9BE4D3" fill-opacity=".5"/><path d="M62 697H0v26h62v-26Z" fill="#8075B6" fill-opacity=".5"/><path d="M144 625H72v26h72v-26Z" fill="#FFCBDF" fill-opacity=".5"/><path d="M170 625h-26v72h26v-72Z" fill="#A6C1DF" fill-opacity=".5"/><path d="M170 697h-26v72h26v-72Z" fill="#56BAB8" fill-opacity=".5"/><path d="M72 625H0v26h72v-26Z" fill="#FF9B52" fill-opacity=".5"/><path d="M958 743h-72v26h72v-26Z" fill="#FFCBDF" fill-opacity=".5"/><path d="M886 743h-72v26h72v-26Z" fill="#FF9B52" fill-opacity=".5"/><path d="M814 743h-72v26h72v-26Z" fill="#9BE4D3" fill-opacity=".5"/><path d="M742 743h-98v26h98v-26Z" fill="#8075B6" fill-opacity=".5"/><path d="M618 743h-72v26h72v-26Z" fill="#FFCBDF" fill-opacity=".5"/><path d="M644 743h-26v26h26v-26Z" fill="#A6C1DF" fill-opacity=".5"/><path d="M1082 743h-98v26h98v-26Z" fill="#8075B6" fill-opacity=".5"/><path d="M984 743h-26v26h26v-26Z" fill="#A6C1DF" fill-opacity=".5"/><path d="M1360 743h-37v26h37v-26Z" fill="#8075B6" fill-opacity=".5"/><path d="M1323 743h-26v26h26v-26Z" fill="#A6C1DF" fill-opacity=".5"/><path d="M546 743h-72v26h72v-26Z" fill="#FF9B52" fill-opacity=".5"/><path d="M474 743h-72v26h72v-26Z" fill="#9BE4D3" fill-opacity=".5"/><path d="M402 743h-98v26h98v-26Z" fill="#8075B6" fill-opacity=".5"/><path d="M1297 743h-72v26h72v-26Z" fill="#FF7A7F" fill-opacity=".5"/><path d="M1225 743h-72v26h72v-26Z" fill="#FF9B52" fill-opacity=".5"/><path d="M1154 743h-72v26h72v-26Z" fill="#9BE4D3" fill-opacity=".5"/><path d="M1123 0h-26v4h26V0Z" fill="#8075B6" fill-opacity=".5"/><path d="M1195 122h-72v26h72v-26Z" fill="#FF7A7F" fill-opacity=".5"/><path d="M1123 76h-26v72h26V76Z" fill="#A6C1DF" fill-opacity=".5"/><path d="M1123 4h-26v72h26V4Z" fill="#56BAB8" fill-opacity=".5"/><path d="M1267 122h-72v26h72v-26Z" fill="#FF9B52" fill-opacity=".5"/><path d="M1339 122h-72v26h72v-26Z" fill="#9BE4D3" fill-opacity=".5"/><path d="M1360 122h-21v26h21v-26Z" fill="#8075B6" fill-opacity=".5"/><path d="M1360 50h-32v26h32V50Z" fill="#FF7A7F" fill-opacity=".5"/><path d="M1328 4h-26v72h26V4Z" fill="#A6C1DF" fill-opacity=".5"/><path d="M1328 0h-26v4h26V0ZM1302 .002 1276 0v11.998l26 .002V.002Z" fill="#56BAB8" fill-opacity=".5"/><path d="M988 4h-26v72h26V4Z" fill="#A6C1DF" fill-opacity=".5"/><path d="M988 0h-26v4h26V0Z" fill="#56BAB8" fill-opacity=".5"/><path d="M380 0h-72v26h72V0Z" fill="#FFCBDF" fill-opacity=".5"/><path d="M308.3 0H282v26h26.3V0Z" fill="#A6C1DF" fill-opacity=".5"/><path d="M452 0h-72v26h72V0Z" fill="#FF9B52" fill-opacity=".5"/><path d="M524 0h-72v26h72V0Z" fill="#9BE4D3" fill-opacity=".5"/><path d="M622 0h-98v26h98V0Z" fill="#8075B6" fill-opacity=".5"/><path d="M720 0h-72v26h72V0Z" fill="#FFCBDF" fill-opacity=".5"/><path d="M648 0h-26v26h26V0Z" fill="#A6C1DF" fill-opacity=".5"/><path d="M792 0h-72v26h72V0Z" fill="#FF9B52" fill-opacity=".5"/><path d="M864 0h-72v26h72V0Z" fill="#9BE4D3" fill-opacity=".5"/><path d="M962 0h-98v26h98V0Z" fill="#8075B6" fill-opacity=".5"/><path d="M40 0H0v26h40V0Z" fill="#FF7A7F" fill-opacity=".5"/><path d="M112 0H40v26h72V0Z" fill="#FF9B52" fill-opacity=".5"/><path d="M184 0h-72v26h72V0Z" fill="#9BE4D3" fill-opacity=".5"/><path d="M282 0h-98v26h98V0Z" fill="#8075B6" fill-opacity=".5"/><path d="M1060 50h-72v26h72V50Z" fill="#FF7A7F" fill-opacity=".5"/><path d="M1132 50h-72v26h72V50Z" fill="#FF9B52" fill-opacity=".5"/><path d="M1204 50h-72v26h72V50Z" fill="#9BE4D3" fill-opacity=".5"/><path d="M1302 76V12h-26v38h-72v26h98Z" fill="#8075B6" fill-opacity=".5"/></svg>
