<svg width="1360" height="144" fill="none" xmlns="http://www.w3.org/2000/svg"><path d="M278.066 72h-72v26h72V72Z" fill="#FFCBDF" fill-opacity=".5"/><path d="M304 72h-26v72h26V72Z" fill="#A6C1DF" fill-opacity=".5"/><path d="M206 72h-72v26h72V72Z" fill="#FF9B52" fill-opacity=".5"/><path d="M134 72H62v26h72V72Z" fill="#9BE4D3" fill-opacity=".5"/><path d="M62 72H0v26h62V72Z" fill="#8075B6" fill-opacity=".5"/><path d="M144 0H72v26h72V0Z" fill="#FFCBDF" fill-opacity=".5"/><path d="M170 0h-26v72h26V0Z" fill="#A6C1DF" fill-opacity=".5"/><path d="M170 72h-26v72h26V72Z" fill="#56BAB8" fill-opacity=".5"/><path d="M72 0H0v26h72V0Z" fill="#FF9B52" fill-opacity=".5"/><path d="M958 118h-72v26h72v-26Z" fill="#FFCBDF" fill-opacity=".5"/><path d="M886 118h-72v26h72v-26Z" fill="#FF9B52" fill-opacity=".5"/><path d="M814 118h-72v26h72v-26Z" fill="#9BE4D3" fill-opacity=".5"/><path d="M742 118h-98v26h98v-26Z" fill="#8075B6" fill-opacity=".5"/><path d="M618 118h-72v26h72v-26Z" fill="#FFCBDF" fill-opacity=".5"/><path d="M644 118h-26v26h26v-26Z" fill="#A6C1DF" fill-opacity=".5"/><path d="M1082 118h-98v26h98v-26Z" fill="#8075B6" fill-opacity=".5"/><path d="M984 118h-26v26h26v-26Z" fill="#A6C1DF" fill-opacity=".5"/><path d="M1360 118h-37v26h37v-26Z" fill="#8075B6" fill-opacity=".5"/><path d="M1323 118h-26v26h26v-26Z" fill="#A6C1DF" fill-opacity=".5"/><path d="M546 118h-72v26h72v-26Z" fill="#FF9B52" fill-opacity=".5"/><path d="M474 118h-72v26h72v-26Z" fill="#9BE4D3" fill-opacity=".5"/><path d="M402 118h-98v26h98v-26Z" fill="#8075B6" fill-opacity=".5"/><path d="M1297 118h-72v26h72v-26Z" fill="#FF7A7F" fill-opacity=".5"/><path d="M1225 118h-72v26h72v-26Z" fill="#FF9B52" fill-opacity=".5"/><path d="M1154 118h-72v26h72v-26Z" fill="#9BE4D3" fill-opacity=".5"/></svg>
