<svg aria-hidden="true" width="20" height="20" fill="none"><path fill="#000" d="M10.001 1.667A8.331 8.331 0 0 0 1.668 10a8.325 8.325 0 0 0 5.697 7.907c.417.072.574-.178.574-.397 0-.197-.011-.853-.011-1.552-2.093.386-2.635-.51-2.802-.979-.094-.24-.5-.979-.854-1.177-.292-.156-.708-.542-.01-.552.656-.01 1.124.604 1.281.854.75 1.26 1.947.906 2.427.688.073-.542.291-.906.531-1.114-1.854-.209-3.791-.928-3.791-4.115 0-.907.322-1.656.854-2.24-.084-.208-.375-1.062.083-2.208 0 0 .698-.22 2.292.853a7.75 7.75 0 0 1 2.083-.28c.708 0 1.417.093 2.083.28 1.595-1.083 2.292-.853 2.292-.853.458 1.146.167 2 .083 2.208.531.584.855 1.323.855 2.24 0 3.198-1.948 3.906-3.802 4.115.302.26.563.76.563 1.541 0 1.114-.011 2.01-.011 2.292 0 .218.156.478.573.395A8.35 8.35 0 0 0 18.334 10 8.331 8.331 0 0 0 10 1.667"/></svg>