<svg xmlns="http://www.w3.org/2000/svg" viewBox="0 0 460 460" fill="none"><g stroke="#363636" clip-path="url(#a)"><circle cx="11.044" cy="11.044" r="11.044" fill="url(#b)" transform="matrix(.86603 -.5 0 1 261.594 77.044)"/><path fill="url(#c)" d="M261.594 88.09c0 2.826.934 5.113 2.801 6.191l-1.594-.92c-1.867-1.078-2.801-3.366-2.801-6.192l1.594.92Z"/><path fill="url(#d)" d="M261.594 88.089c0-6.1 4.282-13.516 9.564-16.566l-1.594-.92C264.282 73.653 260 81.069 260 87.169l1.594.92Z"/><path fill="url(#e)" d="M277.923 70.855c-1.867-1.078-4.315-.743-6.763.67l-1.594-.92c2.448-1.413 4.896-1.748 6.763-.67l1.594.92Z"/><circle cx="11.044" cy="11.044" r="11.044" fill="url(#f)" transform="matrix(.86603 -.5 0 1 261.594 126.176)"/><path fill="url(#g)" d="M261.594 137.221c0 2.827.934 5.114 2.801 6.192l-1.594-.92c-1.867-1.079-2.801-3.366-2.801-6.192l1.594.92Z"/><path fill="url(#h)" d="M261.594 137.221c0-6.1 4.282-13.517 9.564-16.566l-1.594-.921c-5.282 3.05-9.564 10.467-9.564 16.566l1.594.921Z"/><path fill="url(#i)" d="M277.923 119.987c-1.867-1.078-4.315-.743-6.763.67l-1.594-.92c2.448-1.414 4.896-1.749 6.763-.67l1.594.92Z"/><circle cx="11.044" cy="11.044" r="11.044" fill="url(#j)" transform="matrix(.86603 -.5 0 1 261.594 175.308)"/><path fill="url(#k)" d="M261.594 186.353c0 2.826.934 5.114 2.801 6.192l-1.594-.92c-1.867-1.079-2.801-3.366-2.801-6.192l1.594.92Z"/><path fill="url(#l)" d="M261.594 186.353c0-6.1 4.282-13.517 9.564-16.566l-1.594-.921c-5.282 3.05-9.564 10.467-9.564 16.566l1.594.921Z"/><path fill="url(#m)" d="M277.923 169.119c-1.867-1.078-4.315-.743-6.763.67l-1.594-.921c2.448-1.413 4.896-1.748 6.763-.669l1.594.92Z"/><circle cx="11.044" cy="11.044" r="11.044" fill="url(#n)" transform="matrix(.86603 -.5 0 1 261.594 224.44)"/><path fill="url(#o)" d="M261.594 235.484c0-6.099 4.282-13.516 9.564-16.566l-1.594-.92c-5.282 3.05-9.564 10.467-9.564 16.566l1.594.92Z"/><path fill="url(#p)" d="M277.923 218.251c-1.867-1.078-4.315-.743-6.763.67l-1.594-.921c2.448-1.413 4.896-1.748 6.763-.67l1.594.921Z"/></g><g clip-path="url(#q)"><path fill="#fff" stroke="#363636" d="M145.047 349.85c0-4.971 3.488-11.017 7.792-13.504l53.367-30.846c4.303-2.487 7.792-.474 7.792 4.496v4.774c0 4.97-3.489 11.016-7.792 13.503l-53.367 30.846c-4.304 2.488-7.792.474-7.792-4.496v-4.773Z"/><path fill="#fff" stroke="#363636" d="M0 0h2.275v2.277H0z" transform="matrix(.86578 .50042 0 1 143.082 349.963)"/><path fill="#fff" stroke="#363636" d="M0 0h59.161v2.275H0z" transform="scale(1.2244 .7077) rotate(-45 632.749 86.593)"/><path fill="#fff" stroke="#363636" d="M145.052 353.379c0 2.623.866 4.745 2.597 5.746l-1.97-1.139c-1.731-1.001-2.597-3.123-2.597-5.746l1.97 1.139ZM145.052 351.102c0-5.659 3.969-12.542 8.865-15.371l-1.97-1.139c-4.896 2.83-8.865 9.712-8.865 15.372l1.97 1.138ZM211.407 305.501c-1.731-1-4-.689-6.269.622l-1.97-1.139c2.269-1.311 4.538-1.622 6.269-.621l1.97 1.138Z"/><path fill="#363636" d="M156.619 342.663c-.035-.381-.183-.608-.444-.679-.261-.071-.615.023-1.063.282a3.379 3.379 0 0 0-.77.594c-.21.217-.371.444-.482.682-.11.235-.164.462-.164.681-.006.185.027.325.099.42a.497.497 0 0 0 .306.176c.129.022.278.02.447-.005.17-.028.35-.073.543-.135l.792-.239a4.442 4.442 0 0 1 1.058-.214c.322-.02.6.023.835.129.236.106.418.286.547.539.132.252.2.589.202 1.012a4.584 4.584 0 0 1-.413 1.859c-.27.61-.66 1.189-1.171 1.736a7.892 7.892 0 0 1-1.838 1.435c-.711.411-1.331.644-1.859.697-.525.052-.935-.084-1.231-.407-.293-.328-.446-.854-.461-1.578l1.804-1.043c.02.33.105.566.254.709.152.137.354.191.607.161.255-.035.544-.145.865-.331.316-.183.59-.394.822-.634.235-.242.418-.495.547-.759a1.73 1.73 0 0 0 .193-.763c0-.229-.058-.387-.176-.475-.115-.089-.284-.124-.508-.104a4.106 4.106 0 0 0-.813.172l-.96.276c-.744.221-1.33.234-1.761.039-.43-.196-.644-.67-.641-1.425-.003-.614.139-1.235.426-1.862a6.887 6.887 0 0 1 1.192-1.768 7.234 7.234 0 0 1 1.722-1.382c.654-.379 1.225-.579 1.713-.603.491-.025.872.114 1.145.417s.413.756.422 1.357l-1.786 1.033Zm3.126 8.31v-10.5l1.807-1.045v1.283l.082-.047c.081-.252.197-.528.349-.828.155-.305.356-.6.602-.886.25-.29.56-.542.93-.756.482-.278.927-.39 1.335-.333.407.052.733.3.977.742.244.439.365 1.096.365 1.971a7.54 7.54 0 0 1-.357 2.365 6.34 6.34 0 0 1-.964 1.884c-.405.532-.858.944-1.36 1.234-.356.205-.659.313-.908.321-.247.007-.449-.047-.607-.161a1.205 1.205 0 0 1-.362-.423l-.056.033v4.086l-1.833 1.06Zm1.795-7.719c0 .454.054.818.163 1.093.109.276.267.448.474.517.206.066.457.014.753-.157a2.28 2.28 0 0 0 .757-.721 3.59 3.59 0 0 0 .47-1.067c.109-.404.163-.828.163-1.272 0-.441-.053-.798-.159-1.072-.106-.273-.263-.445-.469-.514-.207-.07-.461-.017-.762.157-.299.172-.551.41-.758.711-.203.3-.36.649-.469 1.047a4.821 4.821 0 0 0-.163 1.278Zm8.888-1.17c-.68.393-1.266.572-1.756.537-.488-.039-.864-.276-1.128-.71-.264-.437-.396-1.059-.396-1.864 0-.786.132-1.551.396-2.297a7.087 7.087 0 0 1 1.115-2.032 5.93 5.93 0 0 1 1.696-1.477c.436-.252.842-.406 1.218-.46.379-.06.709-.011.99.148.284.158.505.434.663.83.158.393.236.914.236 1.564v.581l-5.582 3.227v-1.312l3.856-2.23c0-.304-.057-.541-.172-.71a.604.604 0 0 0-.478-.276c-.2-.02-.434.047-.701.202-.278.16-.525.378-.74.651a3.297 3.297 0 0 0-.5.88 2.67 2.67 0 0 0-.185.928v1.248c0 .377.06.669.181.874a.651.651 0 0 0 .521.336c.224.02.489-.059.796-.237.204-.117.39-.258.56-.423a2.644 2.644 0 0 0 .71-1.196l1.696-.851a5.04 5.04 0 0 1-.53 1.539 6.25 6.25 0 0 1-1.024 1.408 6.488 6.488 0 0 1-1.442 1.122Zm6.116-3.541c-.421.244-.797.377-1.127.399-.33.018-.591-.085-.784-.308-.189-.229-.284-.595-.284-1.099 0-.424.068-.819.202-1.186.135-.366.319-.704.551-1.014.233-.31.497-.595.792-.856.299-.262.612-.505.939-.731.384-.268.694-.491.93-.666a2.62 2.62 0 0 0 .512-.485.766.766 0 0 0 .159-.46v-.03c0-.315-.086-.509-.258-.582-.17-.074-.411-.021-.723.16-.33.19-.593.427-.788.709a2.352 2.352 0 0 0-.387.85l-1.696.821a4.996 4.996 0 0 1 .508-1.497c.252-.487.578-.937.977-1.35a6.248 6.248 0 0 1 1.394-1.084 4.642 4.642 0 0 1 1.055-.461c.338-.096.638-.115.899-.057a.95.95 0 0 1 .624.444c.153.237.229.583.229 1.037v5.15l-1.739 1.005v-1.059l-.052.03c-.106.3-.248.593-.426.878a4.502 4.502 0 0 1-.641.793c-.25.244-.538.46-.866.649Zm.526-1.765a2.75 2.75 0 0 0 .714-.597c.207-.245.369-.508.486-.788.118-.28.177-.554.177-.823v-.81a2.16 2.16 0 0 1-.237.256c-.097.09-.208.185-.331.286l-.37.289-.336.248a4.302 4.302 0 0 0-.564.5 2.157 2.157 0 0 0-.375.54 1.315 1.315 0 0 0-.133.574c0 .288.09.457.271.505.184.043.416-.017.698-.18Zm6.282-4.511.004-2.543.267-.154 2.118-4.122 2.104-1.217-2.845 5.483-.435.251-1.213 2.302Zm-1.662 3.158v-10.182l1.834-1.06v10.182l-1.834 1.06Zm4.132-2.388-1.945-2.202 1.222-2.203 2.871 3.163-2.148 1.242Zm2.923-1.69v-7.636l1.834-1.06v7.637l-1.834 1.059Zm.921-9.153c-.272.158-.506.189-.701.093-.193-.101-.289-.299-.289-.594 0-.292.096-.598.289-.918.195-.325.429-.566.701-.724.273-.157.505-.185.697-.084.196.096.293.289.293.581 0 .295-.097.605-.293.93-.192.32-.424.559-.697.716Zm4.215 1.77v4.415l-1.834 1.06v-7.637l1.748-1.01v1.347l.078-.044a4.38 4.38 0 0 1 .736-1.48 4.108 4.108 0 0 1 1.252-1.116c.459-.266.86-.381 1.201-.347.341.035.607.213.796.534.19.319.284.774.284 1.368v4.862l-1.833 1.06v-4.485c.003-.469-.101-.774-.31-.914-.21-.145-.498-.11-.865.102-.247.143-.465.33-.655.562-.186.23-.332.494-.439.791a2.853 2.853 0 0 0-.159.932Zm8.685 2.418c-.594.343-1.103.543-1.528.599-.422.059-.757-.001-1.007-.178-.25-.177-.412-.445-.486-.803l1.695-1.244a.598.598 0 0 0 .246.286c.112.068.259.089.443.062.187-.025.413-.114.68-.269.399-.23.728-.533.986-.907.261-.373.392-.822.392-1.345v-1.397l-.078.044c-.08.259-.201.529-.361.811a4.264 4.264 0 0 1-.62.82c-.253.266-.554.5-.904.702-.497.287-.949.415-1.356.386-.405-.035-.727-.257-.969-.668-.238-.416-.357-1.047-.357-1.892 0-.865.122-1.658.366-2.379.244-.721.568-1.343.973-1.865.407-.524.854-.926 1.339-1.206.37-.214.68-.32.929-.319.25-.001.451.061.603.189.155.123.274.263.357.42l.069-.04v-1.283l1.821-1.052v7.711a4.42 4.42 0 0 1-.413 1.87 5.933 5.933 0 0 1-1.145 1.646 7.618 7.618 0 0 1-1.675 1.301Zm.039-4.746c.295-.171.545-.4.749-.686.206-.292.364-.629.473-1.01a4.47 4.47 0 0 0 .168-1.25c0-.448-.054-.804-.163-1.069-.109-.268-.267-.434-.474-.497-.206-.063-.458-.009-.753.162a2.294 2.294 0 0 0-.762.724 3.45 3.45 0 0 0-.469 1.046 4.748 4.748 0 0 0-.159 1.241c0 .441.053.791.159 1.051.109.256.265.412.469.47.207.053.461-.008.762-.182Z"/><path fill="#fff" stroke="#363636" d="M10.195 380.979c0-4.971 3.489-11.017 7.792-13.504l74.347-42.972c4.304-2.488 7.792-.475 7.792 4.496v4.773c0 4.971-3.488 11.017-7.792 13.504l-74.347 42.972c-4.303 2.487-7.792.474-7.792-4.496v-4.773Z"/><path fill="#fff" stroke="#363636" d="M98.38 323.849c-1.732-1.001-4-.69-6.27.622l-1.97-1.139c2.27-1.311 4.538-1.622 6.27-.622l1.97 1.139Z"/><path fill="#363636" d="M17.094 384.957V373.32l3.975-2.297c.764-.442 1.415-.649 1.953-.623.538.022.948.25 1.23.681.285.426.428 1.026.428 1.798 0 .773-.145 1.538-.433 2.296a7.207 7.207 0 0 1-1.255 2.106 7.422 7.422 0 0 1-1.977 1.637l-2.533 1.464v-1.971l2.189-1.266c.41-.236.747-.513 1.013-.83a3.377 3.377 0 0 0 .802-2.168c0-.386-.067-.684-.202-.894-.131-.216-.331-.326-.6-.33-.269-.007-.61.109-1.023.347l-1.437.831v9.625l-2.13 1.231Zm12.252-6.911c-.777.449-1.447.654-2.007.615-.558-.045-.987-.316-1.29-.812-.3-.5-.452-1.21-.452-2.131 0-.897.151-1.772.453-2.625a8.08 8.08 0 0 1 1.274-2.321 6.767 6.767 0 0 1 1.938-1.689c.499-.288.963-.463 1.392-.526.433-.069.81-.012 1.132.17.324.18.577.496.757.948.18.449.27 1.045.27 1.787v.665l-6.38 3.688v-1.5l4.408-2.548c0-.349-.065-.619-.197-.812a.688.688 0 0 0-.546-.316c-.23-.022-.496.055-.801.231-.319.184-.6.432-.847.745a3.755 3.755 0 0 0-.57 1.006 3.03 3.03 0 0 0-.212 1.059v1.427c0 .431.07.765.207.999.14.233.34.361.595.384.256.022.56-.068.91-.271.233-.134.446-.295.64-.483a3.025 3.025 0 0 0 .811-1.367l1.939-.972a5.786 5.786 0 0 1-.606 1.759 7.14 7.14 0 0 1-1.17 1.608 7.408 7.408 0 0 1-1.648 1.282Zm4.835-2.965v-8.728l2.032-1.174v1.523l.079-.046a4.509 4.509 0 0 1 .693-1.628c.325-.468.699-.824 1.122-1.069.105-.06.218-.118.34-.173.12-.055.227-.096.319-.122v2.147a2.709 2.709 0 0 0-.408.146 4.117 4.117 0 0 0-.477.236 3.033 3.033 0 0 0-.827.71 3.6 3.6 0 0 0-.57.966 2.904 2.904 0 0 0-.207 1.063v4.937l-2.096 1.212Zm11.955-13.149-1.918 1.245a.64.64 0 0 0-.212-.389.58.58 0 0 0-.428-.122c-.174.006-.382.079-.625.219a2.805 2.805 0 0 0-.821.714c-.223.284-.334.557-.334.818 0 .209.072.343.216.404.144.06.392.032.743-.083l1.367-.472c.735-.251 1.283-.287 1.643-.109.361.178.541.581.541 1.21 0 .572-.145 1.158-.437 1.758a6.728 6.728 0 0 1-1.19 1.7 7.685 7.685 0 0 1-1.737 1.362c-1 .578-1.797.798-2.391.66-.59-.144-.936-.603-1.038-1.378l2.061-1.316c.062.316.213.498.453.545.24.044.546-.043.92-.259a2.95 2.95 0 0 0 .885-.756c.226-.297.341-.578.344-.841-.003-.218-.083-.351-.24-.4-.158-.053-.4-.023-.729.091l-1.308.455c-.738.256-1.287.278-1.648.066-.358-.214-.536-.646-.536-1.298 0-.56.13-1.119.393-1.676a5.977 5.977 0 0 1 1.117-1.583 7.72 7.72 0 0 1 1.692-1.308c.954-.551 1.705-.752 2.253-.603.551.148.872.596.964 1.346Zm1.492 8.649v-12l2.066-1.194v1.466l.094-.054c.091-.288.224-.603.398-.946.177-.349.407-.686.689-1.012.285-.331.64-.62 1.062-.864.551-.318 1.06-.446 1.525-.381.466.06.838.343 1.117.848.279.502.418 1.253.418 2.253 0 .974-.136 1.874-.408 2.702a7.273 7.273 0 0 1-1.102 2.154c-.463.608-.98 1.078-1.555 1.41-.406.235-.752.357-1.038.367-.282.007-.513-.054-.693-.185a1.372 1.372 0 0 1-.413-.482l-.064.037v4.67l-2.096 1.211Zm2.051-8.822c0 .519.063.936.187 1.25.125.315.305.511.541.591.237.076.524.016.861-.18.341-.197.63-.471.866-.824.236-.356.415-.762.536-1.219.125-.462.187-.947.187-1.454 0-.504-.06-.912-.182-1.225-.121-.312-.3-.508-.536-.588-.236-.079-.526-.019-.87.18a2.65 2.65 0 0 0-.866.813 3.982 3.982 0 0 0-.537 1.196 5.5 5.5 0 0 0-.187 1.46Zm10.158-1.337c-.777.449-1.446.654-2.007.615-.557-.046-.987-.316-1.288-.812-.302-.5-.453-1.21-.453-2.131 0-.897.15-1.773.453-2.625a8.1 8.1 0 0 1 1.274-2.322 6.78 6.78 0 0 1 1.938-1.688c.498-.288.962-.464 1.392-.526.433-.069.81-.012 1.132.17.324.179.577.496.757.948.18.449.27 1.045.27 1.787v.665l-6.38 3.687v-1.5l4.408-2.547c0-.349-.066-.619-.197-.813a.69.69 0 0 0-.546-.315c-.23-.022-.497.055-.802.231-.318.184-.6.432-.846.745a3.758 3.758 0 0 0-.57 1.006 3.03 3.03 0 0 0-.212 1.059v1.426c0 .432.069.766.207 1 .14.233.34.361.595.384.256.022.56-.068.91-.271.233-.134.446-.295.64-.483a3.047 3.047 0 0 0 .811-1.367l1.938-.972a5.77 5.77 0 0 1-.605 1.758 7.126 7.126 0 0 1-1.17 1.609 7.405 7.405 0 0 1-1.648 1.282Zm8.25-4.768c-.774.447-1.44.643-1.997.586-.554-.062-.98-.346-1.28-.852-.294-.507-.442-1.202-.442-2.085 0-.894.15-1.764.448-2.611a8.037 8.037 0 0 1 1.284-2.327 6.895 6.895 0 0 1 1.977-1.717c.66-.381 1.237-.576 1.732-.586.495-.01.887.152 1.175.485.29.334.448.829.478 1.486l-1.978 1.143c-.056-.404-.203-.669-.443-.795-.236-.133-.546-.088-.93.134a2.688 2.688 0 0 0-.85.798c-.24.339-.427.741-.561 1.205a5.444 5.444 0 0 0-.202 1.52c0 .557.066.993.197 1.307.134.312.323.501.566.565.242.064.526.002.85-.185.24-.139.455-.32.645-.543.194-.226.353-.482.477-.77a3.31 3.31 0 0 0 .251-.935l1.978-1.143a5.942 5.942 0 0 1-.473 2.034 6.874 6.874 0 0 1-2.902 3.286Zm8.735-13.947v1.818l-4.55 2.63v-1.818l4.55-2.63Zm-3.517-.058 2.096-1.211v8.136c0 .224.03.381.088.472a.244.244 0 0 0 .246.113c.109-.013.233-.06.374-.142.099-.057.197-.123.295-.199l.227-.182.33 1.611c-.106.098-.253.227-.444.386-.19.163-.421.329-.693.498-.505.315-.948.493-1.328.535-.377.04-.671-.067-.88-.321-.21-.254-.314-.667-.31-1.241v-8.455Zm4.882 7.996v-8.727l2.096-1.211v8.727l-2.096 1.211Zm1.053-10.46c-.311.18-.579.215-.802.105-.22-.115-.33-.342-.33-.679 0-.333.11-.682.33-1.048.223-.371.49-.647.802-.827.312-.18.577-.213.797-.097.223.11.335.331.335.664 0 .338-.112.692-.335 1.063-.22.366-.485.639-.797.819Zm9.766-4.52-2.641 10.254-2.362 1.365-2.641-7.201 2.213-1.279 1.57 5.337.078-.045 1.564-7.149 2.22-1.282Zm4.272 6.428c-.777.45-1.446.654-2.007.615-.557-.045-.987-.316-1.288-.812-.302-.5-.453-1.21-.453-2.13 0-.898.15-1.773.453-2.626a8.081 8.081 0 0 1 1.274-2.321 6.8 6.8 0 0 1 1.938-1.689c.498-.288.962-.463 1.392-.526.433-.068.81-.012 1.131.17.325.18.578.496.758.949.18.448.27 1.044.27 1.786v.665l-6.38 3.688v-1.5l4.408-2.548c0-.348-.066-.619-.197-.812a.69.69 0 0 0-.546-.315c-.23-.023-.497.054-.802.23-.318.184-.6.432-.846.745a3.758 3.758 0 0 0-.57 1.006c-.138.36-.209.713-.212 1.06v1.426c0 .432.069.765.207 1 .14.233.339.36.595.383.256.023.559-.068.91-.27.233-.135.446-.296.64-.484a3.021 3.021 0 0 0 .811-1.366l1.938-.973a5.776 5.776 0 0 1-.605 1.759 7.14 7.14 0 0 1-1.17 1.608 7.403 7.403 0 0 1-1.649 1.282Z"/><path fill="#fff" stroke="#363636" d="M115.074 320.35c0-4.971 3.489-11.017 7.792-13.504l40.385-23.342c4.303-2.488 7.792-.475 7.792 4.496v4.773c0 4.971-3.489 11.017-7.792 13.504l-40.385 23.342c-4.303 2.488-7.792.474-7.792-4.496v-4.773Z"/><path fill="#fff" stroke="#363636" d="M0 0h2.275v2.277H0z" transform="matrix(.86578 .50042 0 1 113.109 320.455)"/><path fill="#fff" stroke="#363636" d="M0 0h46.448v2.275H0z" transform="scale(1.2244 .7077) rotate(-45 570.192 95.3)"/><path fill="#fff" stroke="#363636" d="M115.079 323.871c0 2.623.866 4.745 2.597 5.746l-1.97-1.139c-1.731-1-2.597-3.123-2.597-5.746l1.97 1.139ZM115.079 321.595c0-5.66 3.969-12.542 8.866-15.372l-1.971-1.139c-4.896 2.83-8.865 9.712-8.865 15.372l1.97 1.139ZM169.293 282.564c-1.731-1.001-4-.69-6.268.621l-1.97-1.138c2.268-1.312 4.537-1.622 6.268-.622l1.97 1.139Z"/><path fill="#363636" d="M121.593 314.942v-2.029l8.275-4.782v2.028l-3.085 1.783v9.608l-2.105 1.217v-9.608l-3.085 1.783Zm10.724 3.574c-.482.279-.911.43-1.288.455-.378.021-.676-.096-.896-.352-.216-.261-.324-.679-.324-1.255 0-.485.077-.937.231-1.355.154-.419.364-.805.629-1.16.266-.354.568-.68.906-.977.341-.3.698-.578 1.072-.836a43.65 43.65 0 0 0 1.063-.762c.268-.205.464-.389.585-.554a.874.874 0 0 0 .182-.526v-.034c0-.36-.098-.581-.295-.665-.194-.085-.469-.024-.827.183a2.742 2.742 0 0 0-.9.81c-.223.318-.37.642-.443.971l-1.938.939a5.747 5.747 0 0 1 .581-1.711 6.563 6.563 0 0 1 1.116-1.543c.459-.477.991-.89 1.594-1.239.42-.243.822-.418 1.205-.526.387-.11.73-.132 1.029-.066.301.064.539.233.713.508.174.271.261.666.261 1.185v5.886l-1.988 1.149v-1.211l-.059.034a5.126 5.126 0 0 1-.487 1.004 5.108 5.108 0 0 1-.733.906 4.926 4.926 0 0 1-.989.742Zm.601-2.017c.308-.178.58-.406.816-.682.236-.281.422-.581.556-.901.134-.32.202-.634.202-.941v-.926a2.429 2.429 0 0 1-.271.293 9.263 9.263 0 0 1-.379.327c-.141.112-.282.222-.423.33l-.383.284a4.87 4.87 0 0 0-.645.571 2.477 2.477 0 0 0-.428.617c-.101.21-.152.429-.152.656 0 .33.103.522.31.577.21.049.475-.019.797-.205Zm7.376-14.394v11.636l-2.096 1.211v-11.636l2.096-1.211Zm5.122 8.846c-.777.449-1.446.654-2.007.614-.557-.045-.987-.315-1.289-.811-.302-.5-.452-1.21-.452-2.131a7.8 7.8 0 0 1 .452-2.625 8.108 8.108 0 0 1 1.274-2.322 6.78 6.78 0 0 1 1.938-1.688c.499-.288.963-.464 1.393-.526.432-.069.81-.012 1.131.17.325.179.577.495.758.948.18.449.27 1.044.27 1.787v.665l-6.38 3.687v-1.5l4.408-2.547c0-.349-.066-.62-.197-.813a.69.69 0 0 0-.546-.315c-.23-.022-.497.054-.802.231a2.97 2.97 0 0 0-.846.744 3.772 3.772 0 0 0-.571 1.006c-.138.36-.208.714-.211 1.06v1.426c0 .432.068.765.206 1 .141.233.34.361.595.383.256.023.56-.067.911-.27.232-.134.446-.296.639-.483.193-.188.359-.397.497-.628.138-.231.243-.478.315-.739l1.938-.973a5.793 5.793 0 0 1-.605 1.759 7.15 7.15 0 0 1-1.171 1.609 7.449 7.449 0 0 1-1.648 1.282Zm6.931-9.222v5.045l-2.095 1.211v-8.727l1.997-1.154v1.54l.088-.052a5.029 5.029 0 0 1 .842-1.69c.393-.527.87-.952 1.431-1.277.525-.303.982-.435 1.373-.395.39.039.693.243.91.61.216.364.324.885.324 1.563v5.556l-2.095 1.212v-5.125c.003-.536-.115-.885-.354-1.046-.24-.164-.569-.125-.989.117a2.7 2.7 0 0 0-.748.643c-.213.263-.38.564-.502.903a3.28 3.28 0 0 0-.182 1.066Zm10.541-9.774v1.818l-4.55 2.63v-1.818l4.55-2.63Zm-3.517-.058 2.095-1.212v8.137c0 .223.03.38.089.471a.247.247 0 0 0 .246.114c.108-.014.233-.061.374-.142.098-.057.196-.124.295-.2l.226-.181.33 1.61c-.105.099-.253.228-.443.387-.19.163-.421.329-.694.497-.505.315-.947.493-1.328.535-.377.04-.671-.067-.88-.321-.21-.253-.314-.667-.31-1.241v-8.454Z"/><path fill="#fff" stroke="#363636" d="M66.129 395.35c0-4.971 3.489-11.017 7.792-13.504l40.385-23.342c4.303-2.488 7.792-.475 7.792 4.496v4.773c0 4.971-3.489 11.017-7.792 13.504l-40.385 23.342c-4.303 2.488-7.792.474-7.792-4.496v-4.773Z"/><path fill="#fff" stroke="#363636" d="M0 0h45.742v2.275H0z" transform="scale(1.2244 .7077) rotate(-45 678.124 196.54)"/><path fill="#fff" stroke="#363636" d="M120.348 358.228c-1.731-1.001-4-.69-6.269.621l-1.97-1.138c2.269-1.312 4.538-1.622 6.269-.622l1.97 1.139Z"/><path fill="#363636" d="M77.782 383.917v10.182l-1.864 1.077v-10.181l1.864-1.078Zm3.333 3.841v4.415l-1.834 1.06v-7.637l1.748-1.01v1.348l.077-.045a4.398 4.398 0 0 1 .736-1.48c.345-.46.762-.833 1.253-1.116.459-.266.86-.381 1.2-.346.342.034.608.212.797.534.19.318.284.773.284 1.367v4.862l-1.834 1.06v-4.485c.003-.469-.1-.774-.31-.914-.209-.144-.497-.11-.864.102-.247.143-.465.33-.655.562a2.685 2.685 0 0 0-.439.791 2.847 2.847 0 0 0-.16.932Zm11.207-7.522-1.678 1.09a.562.562 0 0 0-.186-.341.503.503 0 0 0-.374-.106c-.152.005-.334.069-.547.191a2.461 2.461 0 0 0-.718.625c-.196.248-.293.487-.293.716 0 .182.063.3.19.353.126.053.342.028.65-.073l1.196-.413c.643-.219 1.122-.251 1.438-.095.315.155.473.508.473 1.059 0 .5-.128 1.013-.383 1.538-.253.524-.6 1.02-1.042 1.487-.439.463-.945.86-1.52 1.192-.874.506-1.572.698-2.091.578-.517-.126-.82-.528-.908-1.206l1.803-1.151c.055.276.187.435.396.477.21.038.478-.038.805-.227.322-.186.58-.406.775-.662.198-.26.298-.505.301-.735-.003-.191-.073-.308-.21-.351-.139-.046-.35-.02-.638.08l-1.145.398c-.645.224-1.126.244-1.442.058-.313-.187-.469-.566-.469-1.136 0-.49.115-.979.344-1.466a5.23 5.23 0 0 1 .978-1.385 6.711 6.711 0 0 1 1.48-1.145c.835-.482 1.492-.658 1.972-.528.482.129.763.522.843 1.178Zm1.306 7.568v-10.5l1.807-1.045v1.283l.082-.047c.08-.252.197-.528.349-.828.155-.305.356-.6.602-.885.25-.291.56-.543.93-.757.482-.278.927-.389 1.335-.333.407.053.733.3.977.742.244.44.365 1.097.365 1.972 0 .851-.119 1.639-.357 2.364a6.36 6.36 0 0 1-.964 1.884c-.405.533-.858.944-1.36 1.234-.356.206-.659.313-.908.321-.247.007-.45-.047-.607-.161a1.208 1.208 0 0 1-.362-.423l-.056.033v4.086l-1.833 1.06Zm1.794-7.719c0 .454.055.819.164 1.094.11.275.267.447.474.516.206.067.457.014.753-.156.298-.173.55-.413.757-.722.207-.311.363-.667.47-1.066.109-.405.163-.829.163-1.273 0-.441-.053-.798-.16-1.071-.105-.274-.262-.445-.468-.515-.207-.069-.46-.017-.762.157-.299.173-.551.41-.758.711-.204.301-.36.649-.469 1.047a4.821 4.821 0 0 0-.163 1.278Zm5.876.422v-7.636l1.834-1.06v7.636l-1.834 1.06Zm.921-9.153c-.273.158-.506.188-.702.092-.192-.101-.288-.299-.288-.594 0-.291.096-.597.288-.917.196-.325.429-.566.702-.724.273-.157.505-.186.697-.085.195.097.293.29.293.582 0 .295-.098.605-.293.93-.192.32-.424.559-.697.716Zm2.381 7.244v-7.636l1.778-1.027v1.332l.069-.04c.12-.543.323-1.018.607-1.425.284-.409.611-.721.981-.935.092-.053.191-.103.297-.151.106-.049.2-.084.28-.107v1.879a3.7 3.7 0 0 0-.775.333c-.27.156-.511.363-.723.622a3.166 3.166 0 0 0-.499.845 2.533 2.533 0 0 0-.181.93v4.321l-1.834 1.059Zm7.665-4.281c-.68.393-1.265.573-1.756.538-.488-.039-.864-.276-1.128-.71-.264-.438-.396-1.059-.396-1.864 0-.786.132-1.552.396-2.298a7.081 7.081 0 0 1 1.115-2.031 5.928 5.928 0 0 1 1.696-1.477c.436-.252.842-.406 1.218-.461.379-.06.709-.01.99.149.284.157.505.434.663.83.158.392.237.914.237 1.563v.582l-5.583 3.227v-1.313l3.857-2.229c0-.305-.058-.542-.172-.711a.604.604 0 0 0-.478-.276c-.201-.019-.435.048-.702.202a2.587 2.587 0 0 0-.74.652 3.278 3.278 0 0 0-.499.88 2.624 2.624 0 0 0-.185.927v1.248c0 .378.06.67.18.875a.649.649 0 0 0 .521.335c.224.02.489-.059.796-.236.204-.118.391-.259.56-.423a2.662 2.662 0 0 0 .71-1.196l1.696-.851a5.055 5.055 0 0 1-.529 1.539c-.264.501-.606.97-1.025 1.407a6.465 6.465 0 0 1-1.442 1.122Z"/></g><path fill="#fff" stroke="#363636" stroke-width="1.697" d="M325.324 429.245c0-1.874 1.32-4.144 2.949-5.071l126.336-71.915c1.628-.927 2.948-.159 2.948 1.715v4.922c0 1.874-1.32 4.145-2.948 5.072l-126.336 71.915c-1.629.927-2.949.159-2.949-1.715v-4.923Z"/><path fill="#fff" stroke="#363636" stroke-width="1.697" d="M0 0h118.344v5.018H0z" transform="matrix(.86906 .4947 0 1 222.477 370.647)"/><path fill="#fff" stroke="#363636" stroke-width="1.697" d="M0 0h145.394v118.344H0z" transform="scale(1.22904 .69961) rotate(-45 722.564 39.92)"/><path fill="#fff" stroke="#363636" stroke-width="1.697" d="M325.325 434.216c0 .857.287 1.549.86 1.876l-102.848-58.545c-.574-.326-.86-1.019-.86-1.875l102.848 58.544ZM325.325 429.196c0-1.848 1.315-4.094 2.938-5.018l-102.848-58.545c-1.623.924-2.938 3.171-2.938 5.018l102.848 58.545ZM456.699 352.047c-.573-.327-1.325-.226-2.077.203l-102.849-58.545c.752-.428 1.505-.53 2.078-.203l102.848 58.545Z"/><path fill="#fff" stroke="#363636" stroke-width=".509" d="M243.842 359.394c.814-.463 2.135-.463 2.949 0l2.928 1.667c.814.464.814 1.215 0 1.679l-2.928 1.666c-.814.464-2.135.464-2.949 0l-2.928-1.666c-.815-.464-.815-1.215 0-1.679l2.928-1.667Z"/><path fill="#fff" stroke="#363636" stroke-width=".509" d="M0 0h3.381v3.345H0z" transform="matrix(.86906 .4947 0 1 240.906 362.735)"/><path fill="#fff" stroke="#363636" stroke-width=".509" d="M0 0h3.381v3.345H0z" transform="matrix(.86906 -.4947 0 1 246.785 364.413)"/><path fill="#fff" stroke="#363636" stroke-width=".509" d="M240.297 361.902c0 .327.232.623.608.837v3.345c-.376-.214-.608-.51-.608-.836v-3.346ZM243.844 364.413c.811.462 2.127.462 2.938 0v3.345c-.811.462-2.127.462-2.938 0v-3.345ZM250.331 361.902c0 .327-.232.623-.608.837v3.345c.376-.214.608-.51.608-.836v-3.346ZM255.717 352.7c.814-.464 2.135-.464 2.949 0l2.928 1.667c.814.463.814 1.215 0 1.678l-2.928 1.667c-.814.464-2.135.464-2.949 0l-2.928-1.667c-.815-.463-.815-1.215 0-1.678l2.928-1.667Z"/><path fill="#fff" stroke="#363636" stroke-width=".509" d="M0 0h3.381v3.345H0z" transform="matrix(.86906 .4947 0 1 252.781 356.041)"/><path fill="#fff" stroke="#363636" stroke-width=".509" d="M0 0h3.381v3.345H0z" transform="matrix(.86906 -.4947 0 1 258.66 357.719)"/><path fill="#fff" stroke="#363636" stroke-width=".509" d="M252.172 355.208c0 .327.232.622.608.836v3.346c-.376-.214-.608-.51-.608-.837v-3.345ZM255.719 357.719c.811.461 2.127.461 2.938 0v3.345c-.811.462-2.127.462-2.938 0v-3.345ZM262.206 355.208c0 .327-.232.622-.608.836v3.346c.376-.214.608-.51.608-.837v-3.345ZM267.596 346.021c.814-.464 2.134-.464 2.949 0l2.928 1.667c.814.463.814 1.215 0 1.678l-2.928 1.667c-.815.464-2.135.464-2.949 0l-2.928-1.667c-.815-.463-.815-1.215 0-1.678l2.928-1.667Z"/><path fill="#fff" stroke="#363636" stroke-width=".509" d="M0 0h3.381v3.345H0z" transform="matrix(.86906 .4947 0 1 264.66 349.362)"/><path fill="#fff" stroke="#363636" stroke-width=".509" d="M0 0h3.381v3.345H0z" transform="matrix(.86906 -.4947 0 1 270.539 351.04)"/><path fill="#fff" stroke="#363636" stroke-width=".509" d="M264.051 348.529c0 .327.232.622.608.836v3.346c-.376-.214-.608-.51-.608-.837v-3.345ZM267.598 351.04c.811.461 2.127.461 2.938 0v3.345c-.811.462-2.127.462-2.938 0v-3.345ZM274.085 348.529c0 .327-.232.622-.608.836v3.346c.376-.214.608-.51.608-.837v-3.345ZM279.471 339.33c.814-.463 2.134-.463 2.949 0l2.928 1.667c.814.464.814 1.215 0 1.679l-2.928 1.667c-.815.463-2.135.463-2.949 0l-2.928-1.667c-.815-.464-.815-1.215 0-1.679l2.928-1.667Z"/><path fill="#fff" stroke="#363636" stroke-width=".509" d="M0 0h3.381v3.345H0z" transform="matrix(.86906 .4947 0 1 276.535 342.671)"/><path fill="#fff" stroke="#363636" stroke-width=".509" d="M0 0h3.381v3.345H0z" transform="matrix(.86906 -.4947 0 1 282.414 344.349)"/><path fill="#fff" stroke="#363636" stroke-width=".509" d="M275.926 341.838c0 .327.232.623.608.837v3.345c-.376-.214-.608-.51-.608-.836v-3.346ZM279.473 344.349c.811.462 2.127.462 2.938 0v3.345c-.811.462-2.127.462-2.938 0v-3.345ZM285.96 341.838c0 .327-.232.623-.608.837v3.345c.376-.214.608-.51.608-.836v-3.346ZM291.346 332.624c.814-.463 2.134-.463 2.949 0l2.928 1.667c.814.463.814 1.215 0 1.678l-2.928 1.667c-.815.464-2.135.464-2.949 0l-2.928-1.667c-.815-.463-.815-1.215 0-1.678l2.928-1.667Z"/><path fill="#fff" stroke="#363636" stroke-width=".509" d="M0 0h3.381v3.345H0z" transform="matrix(.86906 .4947 0 1 288.41 335.965)"/><path fill="#fff" stroke="#363636" stroke-width=".509" d="M0 0h3.381v3.345H0z" transform="matrix(.86906 -.4947 0 1 294.289 337.643)"/><path fill="#fff" stroke="#363636" stroke-width=".509" d="M287.801 335.132c0 .327.232.623.608.837v3.345c-.376-.214-.608-.51-.608-.836v-3.346ZM291.348 337.643c.811.462 2.127.462 2.938 0v3.345c-.811.462-2.127.462-2.938 0v-3.345ZM297.835 335.132c0 .327-.232.623-.608.837v3.345c.376-.214.608-.51.608-.836v-3.346ZM303.221 325.93c.814-.464 2.134-.464 2.949 0l2.928 1.666c.814.464.814 1.216 0 1.679l-2.928 1.667c-.815.463-2.135.463-2.949 0l-2.928-1.667c-.815-.463-.815-1.215 0-1.679l2.928-1.666Z"/><path fill="#fff" stroke="#363636" stroke-width=".509" d="M0 0h3.381v3.345H0z" transform="matrix(.86906 .4947 0 1 300.285 329.271)"/><path fill="#fff" stroke="#363636" stroke-width=".509" d="M0 0h3.381v3.345H0z" transform="matrix(.86906 -.4947 0 1 306.164 330.948)"/><path fill="#fff" stroke="#363636" stroke-width=".509" d="M299.676 328.438c0 .326.232.622.608.836v3.346c-.376-.214-.608-.51-.608-.837v-3.345ZM303.223 330.948c.811.462 2.127.462 2.938 0v3.346c-.811.462-2.127.462-2.938 0v-3.346ZM309.71 328.438c0 .326-.232.622-.608.836v3.346c.376-.214.608-.51.608-.837v-3.345ZM315.1 319.239c.814-.463 2.134-.463 2.949 0l2.928 1.667c.814.463.814 1.215 0 1.678l-2.928 1.667c-.815.464-2.135.464-2.949 0l-2.928-1.667c-.815-.463-.815-1.215 0-1.678l2.928-1.667Z"/><path fill="#fff" stroke="#363636" stroke-width=".509" d="M0 0h3.381v3.345H0z" transform="matrix(.86906 .4947 0 1 312.164 322.58)"/><path fill="#fff" stroke="#363636" stroke-width=".509" d="M0 0h3.381v3.345H0z" transform="matrix(.86906 -.4947 0 1 318.043 324.258)"/><path fill="#fff" stroke="#363636" stroke-width=".509" d="M311.555 321.747c0 .327.232.623.608.837v3.345c-.376-.214-.608-.51-.608-.836v-3.346ZM315.102 324.258c.811.462 2.127.462 2.938 0v3.345c-.811.462-2.127.462-2.938 0v-3.345ZM321.589 321.747c0 .327-.233.623-.609.837v3.345c.376-.214.609-.51.609-.836v-3.346ZM326.975 312.56c.814-.463 2.134-.463 2.949 0l2.928 1.667c.814.463.814 1.215 0 1.679l-2.928 1.666c-.815.464-2.135.464-2.949 0l-2.928-1.666c-.815-.464-.815-1.216 0-1.679l2.928-1.667Z"/><path fill="#fff" stroke="#363636" stroke-width=".509" d="M0 0h3.381v3.345H0z" transform="matrix(.86906 .4947 0 1 324.039 315.901)"/><path fill="#fff" stroke="#363636" stroke-width=".509" d="M0 0h3.381v3.345H0z" transform="matrix(.86906 -.4947 0 1 329.918 317.579)"/><path fill="#fff" stroke="#363636" stroke-width=".509" d="M323.43 315.068c0 .327.232.623.608.837v3.345c-.376-.214-.608-.51-.608-.836v-3.346ZM326.977 317.579c.811.462 2.127.462 2.938 0v3.345c-.811.462-2.127.462-2.938 0v-3.345ZM333.464 315.068c0 .327-.233.623-.609.837v3.345c.376-.214.609-.51.609-.836v-3.346ZM338.85 305.869c.814-.463 2.134-.463 2.949 0l2.928 1.667c.814.464.814 1.215 0 1.679l-2.928 1.667c-.815.463-2.135.463-2.949 0l-2.928-1.667c-.815-.464-.815-1.215 0-1.679l2.928-1.667Z"/><path fill="#fff" stroke="#363636" stroke-width=".509" d="M0 0h3.381v3.345H0z" transform="matrix(.86906 .4947 0 1 335.914 309.211)"/><path fill="#fff" stroke="#363636" stroke-width=".509" d="M0 0h3.381v3.345H0z" transform="matrix(.86906 -.4947 0 1 341.793 310.888)"/><path fill="#fff" stroke="#363636" stroke-width=".509" d="M335.305 308.378c0 .326.232.622.608.836v3.345c-.376-.214-.608-.509-.608-.836v-3.345ZM338.852 310.888c.811.462 2.127.462 2.938 0v3.346c-.811.462-2.127.462-2.938 0v-3.346ZM345.339 308.378c0 .326-.233.622-.609.836v3.345c.376-.214.609-.509.609-.836v-3.345ZM350.725 299.175c.814-.464 2.134-.464 2.949 0l2.928 1.667c.814.463.814 1.215 0 1.678l-2.928 1.667c-.815.464-2.135.464-2.949 0l-2.928-1.667c-.815-.463-.815-1.215 0-1.678l2.928-1.667Z"/><path fill="#fff" stroke="#363636" stroke-width=".509" d="M0 0h3.381v3.345H0z" transform="matrix(.86906 .4947 0 1 347.789 302.516)"/><path fill="#fff" stroke="#363636" stroke-width=".509" d="M0 0h3.381v3.345H0z" transform="matrix(.86906 -.4947 0 1 353.668 304.194)"/><path fill="#fff" stroke="#363636" stroke-width=".509" d="M347.18 301.683c0 .327.232.622.608.836v3.346c-.376-.214-.608-.51-.608-.836v-3.346ZM350.727 304.194c.811.462 2.127.462 2.938 0v3.345c-.811.462-2.127.462-2.938 0v-3.345ZM357.214 301.683c0 .327-.233.622-.609.836v3.346c.376-.214.609-.51.609-.836v-3.346ZM259.112 369.416c.814-.464 2.134-.464 2.948 0l2.929 1.667c.814.463.814 1.215 0 1.678l-2.929 1.667c-.814.464-2.134.464-2.948 0l-2.929-1.667c-.814-.463-.814-1.215 0-1.678l2.929-1.667Z"/><path fill="#fff" stroke="#363636" stroke-width=".509" d="M0 0h3.381v3.345H0z" transform="matrix(.86906 .4947 0 1 256.176 372.757)"/><path fill="#fff" stroke="#363636" stroke-width=".509" d="M0 0h3.381v3.345H0z" transform="matrix(.86906 -.4947 0 1 262.055 374.435)"/><path fill="#fff" stroke="#363636" stroke-width=".509" d="M255.566 371.924c0 .327.233.622.609.836v3.346c-.376-.214-.609-.51-.609-.836v-3.346ZM259.113 374.435c.812.462 2.127.462 2.939 0v3.345c-.812.462-2.127.462-2.939 0v-3.345ZM265.601 371.924c0 .327-.233.622-.609.836v3.346c.376-.214.609-.51.609-.836v-3.346ZM270.987 362.721c.814-.463 2.134-.463 2.948 0l2.929 1.667c.814.464.814 1.215 0 1.679l-2.929 1.667c-.814.463-2.134.463-2.948 0l-2.929-1.667c-.814-.464-.814-1.215 0-1.679l2.929-1.667Z"/><path fill="#fff" stroke="#363636" stroke-width=".509" d="M0 0h3.381v3.345H0z" transform="matrix(.86906 .4947 0 1 268.051 366.063)"/><path fill="#fff" stroke="#363636" stroke-width=".509" d="M0 0h3.381v3.345H0z" transform="matrix(.86906 -.4947 0 1 273.93 367.74)"/><path fill="#fff" stroke="#363636" stroke-width=".509" d="M267.441 365.23c0 .326.233.622.609.836v3.345c-.376-.214-.609-.509-.609-.836v-3.345ZM270.988 367.74c.812.462 2.127.462 2.939 0v3.346c-.812.462-2.127.462-2.939 0v-3.346ZM277.476 365.23c0 .326-.233.622-.609.836v3.345c.376-.214.609-.509.609-.836v-3.345ZM282.865 356.043c.815-.464 2.135-.464 2.949 0l2.928 1.666c.815.464.815 1.215 0 1.679l-2.928 1.667c-.814.463-2.134.463-2.949 0l-2.928-1.667c-.814-.464-.814-1.215 0-1.679l2.928-1.666Z"/><path fill="#fff" stroke="#363636" stroke-width=".509" d="M0 0h3.381v3.345H0z" transform="matrix(.86906 .4947 0 1 279.93 359.384)"/><path fill="#fff" stroke="#363636" stroke-width=".509" d="M0 0h3.381v3.345H0z" transform="matrix(.86906 -.4947 0 1 285.809 361.061)"/><path fill="#fff" stroke="#363636" stroke-width=".509" d="M279.32 358.551c0 .326.233.622.609.836v3.345c-.376-.214-.609-.509-.609-.836v-3.345ZM282.867 361.061c.812.462 2.127.462 2.939 0v3.346c-.812.462-2.127.462-2.939 0v-3.346ZM289.355 358.551c0 .326-.233.622-.609.836v3.345c.376-.214.609-.509.609-.836v-3.345ZM294.74 349.352c.815-.464 2.135-.464 2.949 0l2.928 1.667c.815.463.815 1.215 0 1.678l-2.928 1.667c-.814.464-2.134.464-2.949 0l-2.928-1.667c-.814-.463-.814-1.215 0-1.678l2.928-1.667Z"/><path fill="#fff" stroke="#363636" stroke-width=".509" d="M0 0h3.381v3.345H0z" transform="matrix(.86906 .4947 0 1 291.805 352.693)"/><path fill="#fff" stroke="#363636" stroke-width=".509" d="M0 0h3.381v3.345H0z" transform="matrix(.86906 -.4947 0 1 297.684 354.371)"/><path fill="#fff" stroke="#363636" stroke-width=".509" d="M291.195 351.86c0 .327.233.622.609.836v3.346c-.376-.214-.609-.51-.609-.836v-3.346ZM294.742 354.371c.812.462 2.127.462 2.939 0v3.345c-.812.462-2.127.462-2.939 0v-3.345ZM301.23 351.86c0 .327-.233.622-.609.836v3.346c.376-.214.609-.51.609-.836v-3.346ZM306.615 342.661c.815-.463 2.135-.463 2.949 0l2.928 1.667c.815.464.815 1.215 0 1.679l-2.928 1.667c-.814.463-2.134.463-2.949 0l-2.928-1.667c-.814-.464-.814-1.215 0-1.679l2.928-1.667Z"/><path fill="#fff" stroke="#363636" stroke-width=".509" d="M0 0h3.381v3.345H0z" transform="matrix(.86906 .4947 0 1 303.68 346.003)"/><path fill="#fff" stroke="#363636" stroke-width=".509" d="M0 0h3.381v3.345H0z" transform="matrix(.86906 -.4947 0 1 309.559 347.68)"/><path fill="#fff" stroke="#363636" stroke-width=".509" d="M303.07 345.17c0 .326.233.622.609.836v3.345c-.376-.214-.609-.509-.609-.836v-3.345ZM306.617 347.68c.812.462 2.127.462 2.939 0v3.346c-.812.461-2.127.461-2.939 0v-3.346ZM313.105 345.17c0 .326-.233.622-.609.836v3.345c.376-.214.609-.509.609-.836v-3.345ZM318.49 335.967c.815-.464 2.135-.464 2.949 0l2.928 1.667c.815.463.815 1.215 0 1.678l-2.928 1.667c-.814.464-2.134.464-2.949 0l-2.928-1.667c-.814-.463-.814-1.215 0-1.678l2.928-1.667Z"/><path fill="#fff" stroke="#363636" stroke-width=".509" d="M0 0h3.381v3.345H0z" transform="matrix(.86906 .4947 0 1 315.555 339.308)"/><path fill="#fff" stroke="#363636" stroke-width=".509" d="M0 0h3.381v3.345H0z" transform="matrix(.86906 -.4947 0 1 321.434 340.986)"/><path fill="#fff" stroke="#363636" stroke-width=".509" d="M314.945 338.475c0 .327.233.622.609.836v3.346c-.376-.214-.609-.51-.609-.836v-3.346ZM318.492 340.986c.812.462 2.127.462 2.939 0v3.345c-.812.462-2.127.462-2.939 0v-3.345ZM324.98 338.475c0 .327-.233.622-.609.836v3.346c.376-.214.609-.51.609-.836v-3.346ZM330.369 329.261c.815-.464 2.135-.464 2.949 0l2.928 1.667c.815.463.815 1.215 0 1.678l-2.928 1.667c-.814.464-2.134.464-2.949 0l-2.928-1.667c-.814-.463-.814-1.215 0-1.678l2.928-1.667Z"/><path fill="#fff" stroke="#363636" stroke-width=".509" d="M0 0h3.381v3.345H0z" transform="matrix(.86906 .4947 0 1 327.434 332.602)"/><path fill="#fff" stroke="#363636" stroke-width=".509" d="M0 0h3.381v3.345H0z" transform="matrix(.86906 -.4947 0 1 333.312 334.28)"/><path fill="#fff" stroke="#363636" stroke-width=".509" d="M326.824 331.769c0 .327.233.622.609.836v3.346c-.376-.214-.609-.51-.609-.837v-3.345ZM330.371 334.28c.812.461 2.127.461 2.939 0v3.345c-.812.462-2.127.462-2.939 0v-3.345ZM336.859 331.769c0 .327-.233.622-.609.836v3.346c.376-.214.609-.51.609-.837v-3.345ZM342.244 322.582c.815-.464 2.135-.464 2.949 0l2.928 1.667c.815.463.815 1.215 0 1.678l-2.928 1.667c-.814.464-2.134.464-2.949 0l-2.928-1.667c-.814-.463-.814-1.215 0-1.678l2.928-1.667Z"/><path fill="#fff" stroke="#363636" stroke-width=".509" d="M0 0h3.381v3.345H0z" transform="matrix(.86906 .4947 0 1 339.309 325.923)"/><path fill="#fff" stroke="#363636" stroke-width=".509" d="M0 0h3.381v3.345H0z" transform="matrix(.86906 -.4947 0 1 345.188 327.601)"/><path fill="#fff" stroke="#363636" stroke-width=".509" d="M338.699 325.09c0 .327.233.622.609.836v3.346c-.376-.214-.609-.51-.609-.837v-3.345ZM342.246 327.601c.812.461 2.127.461 2.939 0v3.345c-.812.462-2.127.462-2.939 0v-3.345ZM348.734 325.09c0 .327-.233.622-.609.836v3.346c.376-.214.609-.51.609-.837v-3.345ZM354.123 315.891c.815-.463 2.135-.463 2.949 0l2.928 1.667c.815.464.815 1.215 0 1.679l-2.928 1.666c-.814.464-2.134.464-2.949 0l-2.928-1.666c-.814-.464-.814-1.215 0-1.679l2.928-1.667Z"/><path fill="#fff" stroke="#363636" stroke-width=".509" d="M0 0h3.381v3.345H0z" transform="matrix(.86906 .4947 0 1 351.188 319.232)"/><path fill="#fff" stroke="#363636" stroke-width=".509" d="M0 0h3.381v3.345H0z" transform="matrix(.86906 -.4947 0 1 357.066 320.91)"/><path fill="#fff" stroke="#363636" stroke-width=".509" d="M350.578 318.399c0 .327.233.623.609.837v3.345c-.376-.214-.609-.51-.609-.836v-3.346ZM354.125 320.91c.811.462 2.127.462 2.939 0v3.345c-.812.462-2.128.462-2.939 0v-3.345ZM360.612 318.399c0 .327-.232.623-.608.837v3.345c.376-.214.608-.51.608-.836v-3.346ZM365.994 309.197c.815-.464 2.135-.464 2.949 0l2.928 1.667c.815.463.815 1.215 0 1.678l-2.928 1.667c-.814.464-2.134.464-2.949 0l-2.928-1.667c-.814-.463-.814-1.215 0-1.678l2.928-1.667Z"/><path fill="#fff" stroke="#363636" stroke-width=".509" d="M0 0h3.381v3.345H0z" transform="matrix(.86906 .4947 0 1 363.059 312.538)"/><path fill="#fff" stroke="#363636" stroke-width=".509" d="M0 0h3.381v3.345H0z" transform="matrix(.86906 -.4947 0 1 368.938 314.216)"/><path fill="#fff" stroke="#363636" stroke-width=".509" d="M362.449 311.705c0 .327.233.622.609.836v3.346c-.376-.214-.609-.51-.609-.837v-3.345ZM365.996 314.216c.812.461 2.127.461 2.939 0v3.345c-.812.462-2.127.462-2.939 0v-3.345ZM372.484 311.705c0 .327-.233.622-.609.836v3.346c.376-.214.609-.51.609-.837v-3.345ZM270.99 376.11c.815-.463 2.135-.463 2.949 0l2.928 1.667c.815.463.815 1.215 0 1.678l-2.928 1.667c-.814.464-2.134.464-2.949 0l-2.928-1.667c-.814-.463-.814-1.215 0-1.678l2.928-1.667Z"/><path fill="#fff" stroke="#363636" stroke-width=".509" d="M0 0h3.381v3.345H0z" transform="matrix(.86906 .4947 0 1 268.055 379.451)"/><path fill="#fff" stroke="#363636" stroke-width=".509" d="M0 0h3.381v3.345H0z" transform="matrix(.86906 -.4947 0 1 273.934 381.129)"/><path fill="#fff" stroke="#363636" stroke-width=".509" d="M267.445 378.618c0 .327.233.623.609.837v3.345c-.376-.214-.609-.51-.609-.836v-3.346ZM270.992 381.129c.812.462 2.127.462 2.939 0v3.345c-.812.462-2.127.462-2.939 0v-3.345ZM277.48 378.618c0 .327-.233.623-.609.837v3.345c.376-.214.609-.51.609-.836v-3.346ZM282.865 369.416c.815-.464 2.135-.464 2.949 0l2.928 1.666c.815.464.815 1.215 0 1.679l-2.928 1.667c-.814.463-2.134.463-2.949 0l-2.928-1.667c-.814-.464-.814-1.215 0-1.679l2.928-1.666Z"/><path fill="#fff" stroke="#363636" stroke-width=".509" d="M0 0h3.381v3.345H0z" transform="matrix(.86906 .4947 0 1 279.93 372.757)"/><path fill="#fff" stroke="#363636" stroke-width=".509" d="M0 0h3.381v3.345H0z" transform="matrix(.86906 -.4947 0 1 285.809 374.434)"/><path fill="#fff" stroke="#363636" stroke-width=".509" d="M279.32 371.924c0 .326.233.622.609.836v3.346c-.376-.215-.609-.51-.609-.837v-3.345ZM282.867 374.434c.812.462 2.127.462 2.939 0v3.346c-.812.462-2.127.462-2.939 0v-3.346ZM289.355 371.924c0 .326-.233.622-.609.836v3.346c.376-.215.609-.51.609-.837v-3.345ZM294.744 362.737c.815-.464 2.135-.464 2.949 0l2.928 1.666c.815.464.815 1.216 0 1.679l-2.928 1.667c-.814.463-2.134.463-2.949 0l-2.928-1.667c-.814-.463-.814-1.215 0-1.679l2.928-1.666Z"/><path fill="#fff" stroke="#363636" stroke-width=".509" d="M0 0h3.381v3.345H0z" transform="matrix(.86906 .4947 0 1 291.809 366.078)"/><path fill="#fff" stroke="#363636" stroke-width=".509" d="M0 0h3.381v3.345H0z" transform="matrix(.86906 -.4947 0 1 297.688 367.755)"/><path fill="#fff" stroke="#363636" stroke-width=".509" d="M291.199 365.245c0 .326.233.622.609.836v3.346c-.376-.214-.609-.51-.609-.837v-3.345ZM294.746 367.755c.812.462 2.127.462 2.939 0v3.346c-.812.462-2.127.462-2.939 0v-3.346ZM301.234 365.245c0 .326-.233.622-.609.836v3.346c.376-.214.609-.51.609-.837v-3.345ZM306.615 356.042c.815-.463 2.135-.463 2.949 0l2.928 1.667c.815.464.815 1.215 0 1.679l-2.928 1.666c-.814.464-2.134.464-2.949 0l-2.928-1.666c-.814-.464-.814-1.215 0-1.679l2.928-1.667Z"/><path fill="#fff" stroke="#363636" stroke-width=".509" d="M0 0h3.381v3.345H0z" transform="matrix(.86906 .4947 0 1 303.68 359.383)"/><path fill="#fff" stroke="#363636" stroke-width=".509" d="M0 0h3.381v3.345H0z" transform="matrix(.86906 -.4947 0 1 309.559 361.061)"/><path fill="#fff" stroke="#363636" stroke-width=".509" d="M303.07 358.55c0 .327.233.623.609.837v3.345c-.376-.214-.609-.51-.609-.836v-3.346ZM306.617 361.061c.812.462 2.127.462 2.939 0v3.345c-.812.462-2.127.462-2.939 0v-3.345ZM313.105 358.55c0 .327-.233.623-.609.837v3.345c.376-.214.609-.51.609-.836v-3.346ZM318.494 349.355c.815-.463 2.135-.463 2.949 0l2.928 1.667c.815.464.815 1.215 0 1.679l-2.928 1.667c-.814.463-2.134.463-2.949 0l-2.928-1.667c-.814-.464-.814-1.215 0-1.679l2.928-1.667Z"/><path fill="#fff" stroke="#363636" stroke-width=".509" d="M0 0h3.381v3.345H0z" transform="matrix(.86906 .4947 0 1 315.559 352.697)"/><path fill="#fff" stroke="#363636" stroke-width=".509" d="M0 0h3.381v3.345H0z" transform="matrix(.86906 -.4947 0 1 321.438 354.374)"/><path fill="#fff" stroke="#363636" stroke-width=".509" d="M314.949 351.864c0 .326.233.622.609.836v3.345c-.376-.214-.609-.509-.609-.836v-3.345ZM318.496 354.374c.812.462 2.127.462 2.939 0v3.346c-.812.462-2.127.462-2.939 0v-3.346ZM324.984 351.864c0 .326-.233.622-.609.836v3.345c.376-.214.609-.509.609-.836v-3.345ZM330.369 342.661c.815-.464 2.135-.464 2.949 0l2.928 1.667c.815.463.815 1.215 0 1.678l-2.928 1.667c-.814.464-2.134.464-2.949 0l-2.928-1.667c-.814-.463-.814-1.215 0-1.678l2.928-1.667Z"/><path fill="#fff" stroke="#363636" stroke-width=".509" d="M0 0h3.381v3.345H0z" transform="matrix(.86906 .4947 0 1 327.434 346.002)"/><path fill="#fff" stroke="#363636" stroke-width=".509" d="M0 0h3.381v3.345H0z" transform="matrix(.86906 -.4947 0 1 333.312 347.68)"/><path fill="#fff" stroke="#363636" stroke-width=".509" d="M326.824 345.169c0 .327.233.623.609.837v3.345c-.376-.214-.609-.51-.609-.836v-3.346ZM330.371 347.68c.812.462 2.127.462 2.939 0v3.345c-.812.462-2.127.462-2.939 0v-3.345ZM336.859 345.169c0 .327-.233.623-.609.837v3.345c.376-.214.609-.51.609-.836v-3.346ZM342.248 335.97c.815-.463 2.135-.463 2.949 0l2.928 1.667c.815.464.815 1.215 0 1.679l-2.928 1.667c-.814.463-2.134.463-2.949 0l-2.928-1.667c-.814-.464-.814-1.215 0-1.679l2.928-1.667Z"/><path fill="#fff" stroke="#363636" stroke-width=".509" d="M0 0h3.381v3.345H0z" transform="matrix(.86906 .4947 0 1 339.312 339.312)"/><path fill="#fff" stroke="#363636" stroke-width=".509" d="M0 0h3.381v3.345H0z" transform="matrix(.86906 -.4947 0 1 345.191 340.989)"/><path fill="#fff" stroke="#363636" stroke-width=".509" d="M338.703 338.479c0 .326.233.622.609.836v3.345c-.376-.214-.609-.509-.609-.836v-3.345ZM342.25 340.989c.811.462 2.127.462 2.939 0v3.346c-.812.461-2.128.461-2.939 0v-3.346ZM348.737 338.479c0 .326-.232.622-.608.836v3.345c.376-.214.608-.509.608-.836v-3.345ZM354.123 329.272c.815-.463 2.135-.463 2.949 0l2.928 1.667c.815.463.815 1.215 0 1.678l-2.928 1.667c-.814.464-2.134.464-2.949 0l-2.928-1.667c-.814-.463-.814-1.215 0-1.678l2.928-1.667Z"/><path fill="#fff" stroke="#363636" stroke-width=".509" d="M0 0h3.381v3.345H0z" transform="matrix(.86906 .4947 0 1 351.188 332.613)"/><path fill="#fff" stroke="#363636" stroke-width=".509" d="M0 0h3.381v3.345H0z" transform="matrix(.86906 -.4947 0 1 357.066 334.291)"/><path fill="#fff" stroke="#363636" stroke-width=".509" d="M350.578 331.78c0 .327.233.623.609.837v3.345c-.376-.214-.609-.51-.609-.836v-3.346ZM354.125 334.291c.811.462 2.127.462 2.939 0v3.345c-.812.462-2.128.462-2.939 0v-3.345ZM360.612 331.78c0 .327-.232.623-.608.837v3.345c.376-.214.608-.51.608-.836v-3.346ZM365.998 322.585c.815-.463 2.135-.463 2.949 0l2.928 1.667c.815.464.815 1.215 0 1.679l-2.928 1.667c-.814.463-2.134.463-2.949 0l-2.928-1.667c-.814-.464-.814-1.215 0-1.679l2.928-1.667Z"/><path fill="#fff" stroke="#363636" stroke-width=".509" d="M0 0h3.381v3.345H0z" transform="matrix(.86906 .4947 0 1 363.062 325.926)"/><path fill="#fff" stroke="#363636" stroke-width=".509" d="M0 0h3.381v3.345H0z" transform="matrix(.86906 -.4947 0 1 368.941 327.604)"/><path fill="#fff" stroke="#363636" stroke-width=".509" d="M362.453 325.094c0 .326.233.622.609.836v3.345c-.376-.214-.609-.509-.609-.836v-3.345ZM366 327.604c.811.462 2.127.462 2.939 0v3.345c-.812.462-2.128.462-2.939 0v-3.345ZM372.487 325.094c0 .326-.232.622-.608.836v3.345c.376-.214.608-.509.608-.836v-3.345ZM377.873 315.891c.815-.464 2.135-.464 2.949 0l2.928 1.667c.815.463.815 1.215 0 1.678l-2.928 1.667c-.814.464-2.134.464-2.949 0l-2.928-1.667c-.814-.463-.814-1.215 0-1.678l2.928-1.667Z"/><path fill="#fff" stroke="#363636" stroke-width=".509" d="M0 0h3.381v3.345H0z" transform="matrix(.86906 .4947 0 1 374.938 319.232)"/><path fill="#fff" stroke="#363636" stroke-width=".509" d="M0 0h3.381v3.345H0z" transform="matrix(.86906 -.4947 0 1 380.816 320.91)"/><path fill="#fff" stroke="#363636" stroke-width=".509" d="M374.328 318.399c0 .327.233.622.609.836v3.346c-.376-.214-.609-.51-.609-.837v-3.345ZM377.875 320.91c.811.462 2.127.462 2.939 0v3.345c-.812.462-2.128.462-2.939 0v-3.345ZM384.362 318.399c0 .327-.232.622-.608.836v3.346c.376-.214.608-.51.608-.837v-3.345ZM284.565 382.8c.814-.463 2.134-.463 2.948 0l2.929 1.667c.814.464.814 1.215 0 1.679l-2.929 1.666c-.814.464-2.134.464-2.948 0l-2.929-1.666c-.814-.464-.814-1.215 0-1.679l2.929-1.667Z"/><path fill="#fff" stroke="#363636" stroke-width=".509" d="M0 0h3.381v3.345H0z" transform="matrix(.86906 .4947 0 1 281.629 386.141)"/><path fill="#fff" stroke="#363636" stroke-width=".509" d="M0 0h3.381v3.345H0z" transform="matrix(.86906 -.4947 0 1 287.508 387.819)"/><path fill="#fff" stroke="#363636" stroke-width=".509" d="M281.02 385.308c0 .327.232.623.608.837v3.345c-.376-.214-.608-.51-.608-.836v-3.346ZM284.566 387.819c.812.462 2.127.462 2.939 0v3.345c-.812.462-2.127.462-2.939 0v-3.345ZM291.054 385.308c0 .327-.233.623-.609.837v3.345c.376-.214.609-.51.609-.836v-3.346ZM296.436 376.11c.814-.464 2.134-.464 2.949 0l2.928 1.666c.814.464.814 1.215 0 1.679l-2.928 1.667c-.815.463-2.135.463-2.949 0l-2.928-1.667c-.815-.464-.815-1.215 0-1.679l2.928-1.666Z"/><path fill="#fff" stroke="#363636" stroke-width=".509" d="M0 0h3.381v3.345H0z" transform="matrix(.86906 .4947 0 1 293.5 379.451)"/><path fill="#fff" stroke="#363636" stroke-width=".509" d="M0 0h3.381v3.345H0z" transform="matrix(.86906 -.4947 0 1 299.379 381.128)"/><path fill="#fff" stroke="#363636" stroke-width=".509" d="M292.891 378.618c0 .326.232.622.608.836v3.346c-.376-.214-.608-.51-.608-.837v-3.345ZM296.438 381.128c.811.462 2.127.462 2.938 0v3.346c-.811.462-2.127.462-2.938 0v-3.346ZM302.925 378.618c0 .326-.233.622-.609.836v3.346c.376-.214.609-.51.609-.837v-3.345ZM308.315 369.431c.814-.464 2.134-.464 2.948 0l2.929 1.666c.814.464.814 1.216 0 1.679l-2.929 1.667c-.814.463-2.134.463-2.948 0l-2.929-1.667c-.814-.463-.814-1.215 0-1.679l2.929-1.666Z"/><path fill="#fff" stroke="#363636" stroke-width=".509" d="M0 0h3.381v3.345H0z" transform="matrix(.86906 .4947 0 1 305.379 372.772)"/><path fill="#fff" stroke="#363636" stroke-width=".509" d="M0 0h3.381v3.345H0z" transform="matrix(.86906 -.4947 0 1 311.258 374.449)"/><path fill="#fff" stroke="#363636" stroke-width=".509" d="M304.77 371.939c0 .326.232.622.608.836v3.346c-.376-.214-.608-.51-.608-.837v-3.345ZM308.316 374.449c.812.462 2.127.462 2.939 0v3.346c-.812.462-2.127.462-2.939 0v-3.346ZM314.804 371.939c0 .326-.233.622-.609.836v3.346c.376-.214.609-.51.609-.837v-3.345ZM320.19 362.736c.814-.463 2.134-.463 2.948 0l2.929 1.667c.814.464.814 1.215 0 1.679l-2.929 1.666c-.814.464-2.134.464-2.948 0l-2.929-1.666c-.814-.464-.814-1.215 0-1.679l2.929-1.667Z"/><path fill="#fff" stroke="#363636" stroke-width=".509" d="M0 0h3.381v3.345H0z" transform="matrix(.86906 .4947 0 1 317.254 366.077)"/><path fill="#fff" stroke="#363636" stroke-width=".509" d="M0 0h3.381v3.345H0z" transform="matrix(.86906 -.4947 0 1 323.133 367.755)"/><path fill="#fff" stroke="#363636" stroke-width=".509" d="M316.645 365.244c0 .327.232.623.608.837v3.345c-.376-.214-.608-.51-.608-.836v-3.346ZM320.191 367.755c.812.462 2.127.462 2.939 0v3.345c-.812.462-2.127.462-2.939 0v-3.345ZM326.679 365.244c0 .327-.233.623-.609.837v3.345c.376-.214.609-.51.609-.836v-3.346ZM332.069 356.046c.814-.464 2.134-.464 2.948 0l2.929 1.666c.814.464.814 1.215 0 1.679l-2.929 1.667c-.814.463-2.134.463-2.948 0l-2.929-1.667c-.814-.464-.814-1.215 0-1.679l2.929-1.666Z"/><path fill="#fff" stroke="#363636" stroke-width=".509" d="M0 0h3.381v3.345H0z" transform="matrix(.86906 .4947 0 1 329.133 359.387)"/><path fill="#fff" stroke="#363636" stroke-width=".509" d="M0 0h3.381v3.345H0z" transform="matrix(.86906 -.4947 0 1 335.012 361.064)"/><path fill="#fff" stroke="#363636" stroke-width=".509" d="M328.523 358.554c0 .326.233.622.609.836v3.346c-.376-.215-.609-.51-.609-.837v-3.345ZM332.07 361.064c.812.462 2.127.462 2.939 0v3.346c-.812.462-2.127.462-2.939 0v-3.346ZM338.558 358.554c0 .326-.233.622-.609.836v3.346c.376-.215.609-.51.609-.837v-3.345ZM343.94 349.355c.814-.463 2.134-.463 2.948 0l2.929 1.667c.814.463.814 1.215 0 1.678l-2.929 1.667c-.814.464-2.134.464-2.948 0l-2.929-1.667c-.814-.463-.814-1.215 0-1.678l2.929-1.667Z"/><path fill="#fff" stroke="#363636" stroke-width=".509" d="M0 0h3.381v3.345H0z" transform="matrix(.86906 .4947 0 1 341.004 352.696)"/><path fill="#fff" stroke="#363636" stroke-width=".509" d="M0 0h3.381v3.345H0z" transform="matrix(.86906 -.4947 0 1 346.883 354.374)"/><path fill="#fff" stroke="#363636" stroke-width=".509" d="M340.395 351.863c0 .327.232.623.608.837v3.345c-.376-.214-.608-.51-.608-.836v-3.346ZM343.941 354.374c.812.462 2.127.462 2.939 0v3.345c-.812.462-2.127.462-2.939 0v-3.345ZM350.429 351.863c0 .327-.233.623-.609.837v3.345c.376-.214.609-.51.609-.836v-3.346ZM355.819 342.664c.814-.463 2.134-.463 2.948 0l2.929 1.667c.814.464.814 1.215 0 1.679l-2.929 1.667c-.814.463-2.134.463-2.948 0l-2.929-1.667c-.814-.464-.814-1.215 0-1.679l2.929-1.667Z"/><path fill="#fff" stroke="#363636" stroke-width=".509" d="M0 0h3.381v3.345H0z" transform="matrix(.86906 .4947 0 1 352.883 346.006)"/><path fill="#fff" stroke="#363636" stroke-width=".509" d="M0 0h3.381v3.345H0z" transform="matrix(.86906 -.4947 0 1 358.762 347.683)"/><path fill="#fff" stroke="#363636" stroke-width=".509" d="M352.273 345.173c0 .326.233.622.609.836v3.345c-.376-.214-.609-.509-.609-.836v-3.345ZM355.82 347.683c.812.462 2.127.462 2.939 0v3.346c-.812.461-2.127.461-2.939 0v-3.346ZM362.308 345.173c0 .326-.233.622-.609.836v3.345c.376-.214.609-.509.609-.836v-3.345ZM367.694 335.982c.814-.464 2.134-.464 2.948 0l2.929 1.666c.814.464.814 1.216 0 1.679l-2.929 1.667c-.814.463-2.134.463-2.948 0l-2.929-1.667c-.814-.463-.814-1.215 0-1.679l2.929-1.666Z"/><path fill="#fff" stroke="#363636" stroke-width=".509" d="M0 0h3.381v3.345H0z" transform="matrix(.86906 .4947 0 1 364.758 339.323)"/><path fill="#fff" stroke="#363636" stroke-width=".509" d="M0 0h3.381v3.345H0z" transform="matrix(.86906 -.4947 0 1 370.637 341)"/><path fill="#fff" stroke="#363636" stroke-width=".509" d="M364.148 338.49c0 .326.233.622.609.836v3.346c-.376-.214-.609-.51-.609-.837v-3.345ZM367.695 341c.812.462 2.127.462 2.939 0v3.346c-.812.462-2.127.462-2.939 0V341ZM374.183 338.49c0 .326-.233.622-.609.836v3.346c.376-.214.609-.51.609-.837v-3.345ZM379.572 329.276c.815-.464 2.135-.464 2.949 0l2.928 1.666c.815.464.815 1.215 0 1.679l-2.928 1.667c-.814.463-2.134.463-2.949 0l-2.928-1.667c-.814-.464-.814-1.215 0-1.679l2.928-1.666Z"/><path fill="#fff" stroke="#363636" stroke-width=".509" d="M0 0h3.381v3.345H0z" transform="matrix(.86906 .4947 0 1 376.637 332.617)"/><path fill="#fff" stroke="#363636" stroke-width=".509" d="M0 0h3.381v3.345H0z" transform="matrix(.86906 -.4947 0 1 382.516 334.294)"/><path fill="#fff" stroke="#363636" stroke-width=".509" d="M376.027 331.784c0 .326.233.622.609.836v3.345c-.376-.214-.609-.509-.609-.836v-3.345ZM379.574 334.294c.812.462 2.127.462 2.939 0v3.346c-.812.462-2.127.462-2.939 0v-3.346ZM386.062 331.784c0 .326-.233.622-.609.836v3.345c.376-.214.609-.509.609-.836v-3.345ZM391.447 322.585c.815-.464 2.135-.464 2.949 0l2.928 1.667c.815.463.815 1.215 0 1.678l-2.928 1.667c-.814.464-2.134.464-2.949 0l-2.928-1.667c-.814-.463-.814-1.215 0-1.678l2.928-1.667Z"/><path fill="#fff" stroke="#363636" stroke-width=".509" d="M0 0h3.381v3.345H0z" transform="matrix(.86906 .4947 0 1 388.512 325.926)"/><path fill="#fff" stroke="#363636" stroke-width=".509" d="M0 0h3.381v3.345H0z" transform="matrix(.86906 -.4947 0 1 394.391 327.604)"/><path fill="#fff" stroke="#363636" stroke-width=".509" d="M387.902 325.093c0 .327.233.622.609.836v3.346c-.376-.214-.609-.51-.609-.837v-3.345ZM391.449 327.604c.812.462 2.127.462 2.939 0v3.345c-.812.462-2.127.462-2.939 0v-3.345ZM397.937 325.093c0 .327-.233.622-.609.836v3.346c.376-.214.609-.51.609-.837v-3.345ZM296.436 389.479c.814-.464 2.134-.464 2.949 0l2.928 1.667c.814.463.814 1.215 0 1.678l-2.928 1.667c-.815.464-2.135.464-2.949 0l-2.928-1.667c-.815-.463-.815-1.215 0-1.678l2.928-1.667Z"/><path fill="#fff" stroke="#363636" stroke-width=".509" d="M0 0h3.381v3.345H0z" transform="matrix(.86906 .4947 0 1 293.5 392.82)"/><path fill="#fff" stroke="#363636" stroke-width=".509" d="M0 0h3.381v3.345H0z" transform="matrix(.86906 -.4947 0 1 299.379 394.497)"/><path fill="#fff" stroke="#363636" stroke-width=".509" d="M292.891 391.987c0 .327.232.622.608.836v3.346c-.376-.214-.608-.51-.608-.837v-3.345ZM296.438 394.497c.811.462 2.127.462 2.938 0v3.346c-.811.462-2.127.462-2.938 0v-3.346ZM302.925 391.987c0 .327-.233.622-.609.836v3.346c.376-.214.609-.51.609-.837v-3.345ZM308.311 382.784c.814-.463 2.134-.463 2.949 0l2.928 1.667c.814.464.814 1.215 0 1.679l-2.928 1.667c-.815.463-2.135.463-2.949 0l-2.928-1.667c-.815-.464-.815-1.215 0-1.679l2.928-1.667Z"/><path fill="#fff" stroke="#363636" stroke-width=".509" d="M0 0h3.381v3.345H0z" transform="matrix(.86906 .4947 0 1 305.375 386.125)"/><path fill="#fff" stroke="#363636" stroke-width=".509" d="M0 0h3.381v3.345H0z" transform="matrix(.86906 -.4947 0 1 311.254 387.803)"/><path fill="#fff" stroke="#363636" stroke-width=".509" d="M304.766 385.292c0 .327.232.623.608.837v3.345c-.376-.214-.608-.509-.608-.836v-3.346ZM308.312 387.803c.812.462 2.128.462 2.939 0v3.345c-.811.462-2.127.462-2.939 0v-3.345ZM314.8 385.292c0 .327-.233.623-.609.837v3.345c.376-.214.609-.509.609-.836v-3.346ZM320.19 376.109c.814-.463 2.134-.463 2.948 0l2.929 1.667c.814.464.814 1.215 0 1.679l-2.929 1.666c-.814.464-2.134.464-2.948 0l-2.929-1.666c-.814-.464-.814-1.215 0-1.679l2.929-1.667Z"/><path fill="#fff" stroke="#363636" stroke-width=".509" d="M0 0h3.381v3.345H0z" transform="matrix(.86906 .4947 0 1 317.254 379.45)"/><path fill="#fff" stroke="#363636" stroke-width=".509" d="M0 0h3.381v3.345H0z" transform="matrix(.86906 -.4947 0 1 323.133 381.128)"/><path fill="#fff" stroke="#363636" stroke-width=".509" d="M316.645 378.617c0 .327.232.623.608.837v3.345c-.376-.214-.608-.51-.608-.836v-3.346ZM320.191 381.128c.812.462 2.127.462 2.939 0v3.345c-.812.462-2.127.462-2.939 0v-3.345ZM326.679 378.617c0 .327-.233.623-.609.837v3.345c.376-.214.609-.51.609-.836v-3.346ZM332.065 369.415c.814-.464 2.134-.464 2.948 0l2.929 1.667c.814.463.814 1.215 0 1.678l-2.929 1.667c-.814.464-2.134.464-2.948 0l-2.929-1.667c-.814-.463-.814-1.215 0-1.678l2.929-1.667Z"/><path fill="#fff" stroke="#363636" stroke-width=".509" d="M0 0h3.381v3.345H0z" transform="matrix(.86906 .4947 0 1 329.129 372.756)"/><path fill="#fff" stroke="#363636" stroke-width=".509" d="M0 0h3.381v3.345H0z" transform="matrix(.86906 -.4947 0 1 335.008 374.433)"/><path fill="#fff" stroke="#363636" stroke-width=".509" d="M328.52 371.923c0 .327.232.622.608.836v3.346c-.376-.214-.608-.51-.608-.837v-3.345ZM332.066 374.433c.812.462 2.127.462 2.939 0v3.346c-.812.462-2.127.462-2.939 0v-3.346ZM338.554 371.923c0 .327-.233.622-.609.836v3.346c.376-.214.609-.51.609-.837v-3.345ZM343.94 362.724c.814-.463 2.134-.463 2.948 0l2.929 1.667c.814.464.814 1.215 0 1.679l-2.929 1.666c-.814.464-2.134.464-2.948 0l-2.929-1.666c-.814-.464-.814-1.215 0-1.679l2.929-1.667Z"/><path fill="#fff" stroke="#363636" stroke-width=".509" d="M0 0h3.381v3.345H0z" transform="matrix(.86906 .4947 0 1 341.004 366.065)"/><path fill="#fff" stroke="#363636" stroke-width=".509" d="M0 0h3.381v3.345H0z" transform="matrix(.86906 -.4947 0 1 346.883 367.743)"/><path fill="#fff" stroke="#363636" stroke-width=".509" d="M340.395 365.232c0 .327.232.623.608.837v3.345c-.376-.214-.608-.51-.608-.836v-3.346ZM343.941 367.743c.812.462 2.127.462 2.939 0v3.345c-.812.462-2.127.462-2.939 0v-3.345ZM350.429 365.232c0 .327-.233.623-.609.837v3.345c.376-.214.609-.51.609-.836v-3.346ZM355.815 356.03c.814-.464 2.134-.464 2.948 0l2.929 1.667c.814.463.814 1.215 0 1.678l-2.929 1.667c-.814.463-2.134.463-2.948 0l-2.929-1.667c-.814-.463-.814-1.215 0-1.678l2.929-1.667Z"/><path fill="#fff" stroke="#363636" stroke-width=".509" d="M0 0h3.381v3.345H0z" transform="matrix(.86906 .4947 0 1 352.879 359.371)"/><path fill="#fff" stroke="#363636" stroke-width=".509" d="M0 0h3.381v3.345H0z" transform="matrix(.86906 -.4947 0 1 358.758 361.048)"/><path fill="#fff" stroke="#363636" stroke-width=".509" d="M352.27 358.538c0 .327.232.622.608.836v3.346c-.376-.214-.608-.51-.608-.837v-3.345ZM355.816 361.048c.812.462 2.127.462 2.939 0v3.346c-.812.462-2.127.462-2.939 0v-3.346ZM362.304 358.538c0 .327-.233.622-.609.836v3.346c.376-.214.609-.51.609-.837v-3.345ZM367.694 349.343c.814-.464 2.134-.464 2.948 0l2.929 1.667c.814.463.814 1.215 0 1.678l-2.929 1.667c-.814.464-2.134.464-2.948 0l-2.929-1.667c-.814-.463-.814-1.215 0-1.678l2.929-1.667Z"/><path fill="#fff" stroke="#363636" stroke-width=".509" d="M0 0h3.381v3.345H0z" transform="matrix(.86906 .4947 0 1 364.758 352.684)"/><path fill="#fff" stroke="#363636" stroke-width=".509" d="M0 0h3.381v3.345H0z" transform="matrix(.86906 -.4947 0 1 370.637 354.362)"/><path fill="#fff" stroke="#363636" stroke-width=".509" d="M364.148 351.851c0 .327.233.623.609.837v3.345c-.376-.214-.609-.51-.609-.836v-3.346ZM367.695 354.362c.812.462 2.127.462 2.939 0v3.345c-.812.462-2.127.462-2.939 0v-3.345ZM374.183 351.851c0 .327-.233.623-.609.837v3.345c.376-.214.609-.51.609-.836v-3.346ZM379.569 342.66c.814-.463 2.134-.463 2.948 0l2.929 1.667c.814.464.814 1.215 0 1.679l-2.929 1.666c-.814.464-2.134.464-2.948 0l-2.929-1.666c-.814-.464-.814-1.215 0-1.679l2.929-1.667Z"/><path fill="#fff" stroke="#363636" stroke-width=".509" d="M0 0h3.381v3.345H0z" transform="matrix(.86906 .4947 0 1 376.633 346.001)"/><path fill="#fff" stroke="#363636" stroke-width=".509" d="M0 0h3.381v3.345H0z" transform="matrix(.86906 -.4947 0 1 382.512 347.679)"/><path fill="#fff" stroke="#363636" stroke-width=".509" d="M376.023 345.168c0 .327.233.623.609.837v3.345c-.376-.214-.609-.51-.609-.836v-3.346ZM379.57 347.679c.812.462 2.127.462 2.939 0v3.345c-.812.462-2.127.462-2.939 0v-3.345ZM386.058 345.168c0 .327-.233.623-.609.837v3.345c.376-.214.609-.51.609-.836v-3.346ZM391.447 335.97c.815-.464 2.135-.464 2.949 0l2.928 1.666c.815.464.815 1.215 0 1.679l-2.928 1.667c-.814.463-2.134.463-2.949 0l-2.928-1.667c-.814-.464-.814-1.215 0-1.679l2.928-1.666Z"/><path fill="#fff" stroke="#363636" stroke-width=".509" d="M0 0h3.381v3.345H0z" transform="matrix(.86906 .4947 0 1 388.512 339.311)"/><path fill="#fff" stroke="#363636" stroke-width=".509" d="M0 0h3.381v3.345H0z" transform="matrix(.86906 -.4947 0 1 394.391 340.988)"/><path fill="#fff" stroke="#363636" stroke-width=".509" d="M387.902 338.478c0 .326.233.622.609.836v3.346c-.376-.214-.609-.51-.609-.837v-3.345ZM391.449 340.988c.812.462 2.127.462 2.939 0v3.346c-.812.462-2.127.462-2.939 0v-3.346ZM397.937 338.478c0 .326-.233.622-.609.836v3.346c.376-.214.609-.51.609-.837v-3.345ZM403.319 329.26c.814-.464 2.134-.464 2.948 0l2.929 1.666c.814.464.814 1.215 0 1.679l-2.929 1.667c-.814.463-2.134.463-2.948 0l-2.929-1.667c-.814-.464-.814-1.215 0-1.679l2.929-1.666Z"/><path fill="#fff" stroke="#363636" stroke-width=".509" d="M0 0h3.381v3.345H0z" transform="matrix(.86906 .4947 0 1 400.383 332.601)"/><path fill="#fff" stroke="#363636" stroke-width=".509" d="M0 0h3.381v3.345H0z" transform="matrix(.86906 -.4947 0 1 406.262 334.278)"/><path fill="#fff" stroke="#363636" stroke-width=".509" d="M399.773 331.768c0 .326.233.622.609.836v3.346c-.376-.215-.609-.51-.609-.837v-3.345ZM403.32 334.278c.812.462 2.127.462 2.939 0v3.346c-.812.462-2.127.462-2.939 0v-3.346ZM409.808 331.768c0 .326-.233.622-.609.836v3.346c.376-.215.609-.51.609-.837v-3.345ZM308.315 396.188c.814-.463 2.134-.463 2.948 0l2.929 1.667c.814.464.814 1.215 0 1.679l-2.929 1.666c-.814.464-2.134.464-2.948 0l-2.929-1.666c-.814-.464-.814-1.215 0-1.679l2.929-1.667Z"/><path fill="#fff" stroke="#363636" stroke-width=".509" d="M0 0h3.381v3.345H0z" transform="matrix(.86906 .4947 0 1 305.379 399.529)"/><path fill="#fff" stroke="#363636" stroke-width=".509" d="M0 0h3.381v3.345H0z" transform="matrix(.86906 -.4947 0 1 311.258 401.207)"/><path fill="#fff" stroke="#363636" stroke-width=".509" d="M304.77 398.696c0 .327.232.623.608.837v3.345c-.376-.214-.608-.51-.608-.836v-3.346ZM308.316 401.207c.812.462 2.127.462 2.939 0v3.345c-.812.462-2.127.462-2.939 0v-3.345ZM314.804 398.696c0 .327-.233.623-.609.837v3.345c.376-.214.609-.51.609-.836v-3.346ZM320.19 389.494c.814-.464 2.134-.464 2.948 0l2.929 1.667c.814.463.814 1.215 0 1.678l-2.929 1.667c-.814.464-2.134.464-2.948 0l-2.929-1.667c-.814-.463-.814-1.215 0-1.678l2.929-1.667Z"/><path fill="#fff" stroke="#363636" stroke-width=".509" d="M0 0h3.381v3.345H0z" transform="matrix(.86906 .4947 0 1 317.254 392.835)"/><path fill="#fff" stroke="#363636" stroke-width=".509" d="M0 0h3.381v3.345H0z" transform="matrix(.86906 -.4947 0 1 323.133 394.513)"/><path fill="#fff" stroke="#363636" stroke-width=".509" d="M316.645 392.002c0 .327.232.622.608.836v3.346c-.376-.214-.608-.51-.608-.837v-3.345ZM320.191 394.513c.812.461 2.127.461 2.939 0v3.345c-.812.462-2.127.462-2.939 0v-3.345ZM326.679 392.002c0 .327-.233.622-.609.836v3.346c.376-.214.609-.51.609-.837v-3.345ZM332.069 382.815c.814-.464 2.134-.464 2.948 0l2.929 1.667c.814.463.814 1.215 0 1.678l-2.929 1.667c-.814.464-2.134.464-2.948 0l-2.929-1.667c-.814-.463-.814-1.215 0-1.678l2.929-1.667Z"/><path fill="#fff" stroke="#363636" stroke-width=".509" d="M0 0h3.381v3.345H0z" transform="matrix(.86906 .4947 0 1 329.133 386.156)"/><path fill="#fff" stroke="#363636" stroke-width=".509" d="M0 0h3.381v3.345H0z" transform="matrix(.86906 -.4947 0 1 335.012 387.834)"/><path fill="#fff" stroke="#363636" stroke-width=".509" d="M328.523 385.323c0 .327.233.622.609.836v3.346c-.376-.214-.609-.51-.609-.837v-3.345ZM332.07 387.834c.812.461 2.127.461 2.939 0v3.345c-.812.462-2.127.462-2.939 0v-3.345ZM338.558 385.323c0 .327-.233.622-.609.836v3.346c.376-.214.609-.51.609-.837v-3.345ZM391.447 349.37c.815-.464 2.135-.464 2.949 0l2.928 1.667c.815.463.815 1.215 0 1.678l-2.928 1.667c-.814.463-2.134.463-2.949 0l-2.928-1.667c-.814-.463-.814-1.215 0-1.678l2.928-1.667Z"/><path fill="#fff" stroke="#363636" stroke-width=".509" d="M0 0h3.381v3.345H0z" transform="matrix(.86906 .4947 0 1 388.512 352.711)"/><path fill="#fff" stroke="#363636" stroke-width=".509" d="M0 0h3.381v3.345H0z" transform="matrix(.86906 -.4947 0 1 394.391 354.388)"/><path fill="#fff" stroke="#363636" stroke-width=".509" d="M387.902 351.878c0 .326.233.622.609.836v3.346c-.376-.214-.609-.51-.609-.837v-3.345ZM391.449 354.388c.812.462 2.127.462 2.939 0v3.346c-.812.462-2.127.462-2.939 0v-3.346ZM397.937 351.878c0 .326-.233.622-.609.836v3.346c.376-.214.609-.51.609-.837v-3.345ZM379.557 356.049c.814-.464 2.134-.464 2.949 0l2.928 1.666c.814.464.814 1.216 0 1.679l-37.167 21.156c-.814.464-2.134.464-2.948 0l-2.929-1.666c-.814-.464-.814-1.215 0-1.679l37.167-21.156Z"/><path fill="#fff" stroke="#363636" stroke-width=".509" d="M0 0h43.065v3.345H0z" transform="matrix(.86906 -.4947 0 1 348.012 380.701)"/><path fill="#fff" stroke="#363636" stroke-width=".509" d="M0 0h3.381v3.345H0z" transform="matrix(.86906 .4947 0 1 341.824 379.124)"/><path fill="#fff" stroke="#363636" stroke-width=".509" d="M341.223 378.291c0 .327.232.623.608.837v3.345c-.376-.214-.608-.51-.608-.836v-3.346ZM344.77 380.802c.811.462 2.127.462 2.938 0v3.345c-.811.462-2.127.462-2.938 0v-3.345ZM386.05 358.557c0 .326-.233.622-.609.836v3.346c.376-.214.609-.51.609-.837v-3.345ZM403.322 342.679c.815-.463 2.135-.463 2.949 0l2.928 1.667c.815.463.815 1.215 0 1.678l-2.928 1.667c-.814.464-2.134.464-2.949 0l-2.928-1.667c-.814-.463-.814-1.215 0-1.678l2.928-1.667Z"/><path fill="#fff" stroke="#363636" stroke-width=".509" d="M0 0h3.381v3.345H0z" transform="matrix(.86906 .4947 0 1 400.387 346.02)"/><path fill="#fff" stroke="#363636" stroke-width=".509" d="M0 0h3.381v3.345H0z" transform="matrix(.86906 -.4947 0 1 406.266 347.698)"/><path fill="#fff" stroke="#363636" stroke-width=".509" d="M399.777 345.187c0 .327.233.623.609.837v3.345c-.376-.214-.609-.51-.609-.836v-3.346ZM403.324 347.698c.812.462 2.127.462 2.939 0v3.345c-.812.462-2.127.462-2.939 0v-3.345ZM409.812 345.187c0 .327-.233.623-.609.837v3.345c.376-.214.609-.51.609-.836v-3.346ZM415.197 335.985c.815-.464 2.135-.464 2.949 0l2.928 1.666c.815.464.815 1.215 0 1.679l-2.928 1.667c-.814.463-2.134.463-2.949 0l-2.928-1.667c-.814-.464-.814-1.215 0-1.679l2.928-1.666Z"/><path fill="#fff" stroke="#363636" stroke-width=".509" d="M0 0h3.381v3.345H0z" transform="matrix(.86906 .4947 0 1 412.262 339.326)"/><path fill="#fff" stroke="#363636" stroke-width=".509" d="M0 0h3.381v3.345H0z" transform="matrix(.86906 -.4947 0 1 418.141 341.003)"/><path fill="#fff" stroke="#363636" stroke-width=".509" d="M411.652 338.493c0 .326.233.622.609.836v3.346c-.376-.214-.609-.51-.609-.837v-3.345ZM415.199 341.003c.812.462 2.127.462 2.939 0v3.346c-.812.462-2.127.462-2.939 0v-3.346ZM421.687 338.493c0 .326-.233.622-.609.836v3.346c.376-.214.609-.51.609-.837v-3.345Z"/><path fill="#fff" stroke="#363636" stroke-width="1.697" d="M216.938 250.026c0-7.496 5.28-16.579 11.795-20.287l115.989-66.025c6.514-3.708 11.795-.637 11.795 6.858v106.672c0 7.496-5.281 16.579-11.795 20.287l-115.989 66.025c-6.515 3.708-11.795.637-11.795-6.858V250.026Z"/><path fill="#fff" stroke="#363636" stroke-width="1.697" d="M0 0h3.381v107.053H0z" transform="matrix(.86906 .4947 0 1 214 248.158)"/><path fill="#fff" stroke="#363636" stroke-width="1.697" d="M0 0h133.559v3.381H0z" transform="scale(1.22904 .69961) rotate(-45 485.38 -58.721)"/><path fill="#fff" stroke="#363636" stroke-width="1.697" d="M216.939 356.887c0 3.424 1.147 6.196 3.442 7.502l-2.938-1.673c-2.295-1.306-3.443-4.077-3.443-7.502l2.939 1.673ZM216.939 249.83c0-7.39 5.262-16.377 11.754-20.072l-2.939-1.673C219.262 231.78 214 240.767 214 248.157l2.939 1.673ZM353.074 162.876c-2.295-1.306-5.303-.901-8.311.812l-2.939-1.673c3.008-1.712 6.016-2.118 8.312-.812l2.938 1.673Z"/><rect width="151.483" height="122.894" x=".435" y=".253" fill="#fff" stroke="#363636" rx="12.5" transform="matrix(.86906 -.4947 0 1 220.537 240.179)"/><path fill="#fff" stroke="#363636" d="M24.32 247.947c0-4.419 3.102-9.791 6.928-12l55.426-32c3.826-2.209 6.928-.419 6.928 4v204c0 4.418-3.102 9.791-6.928 12l-55.426 32c-3.826 2.209-6.928.418-6.928-4v-204Z"/><path fill="#fff" stroke="#363636" d="M0 0h20v204H0z" transform="matrix(.86603 .5 0 1 7 237.947)"/><path fill="#fff" stroke="#363636" d="M0 0h64v20H0z" transform="matrix(.86603 -.5 .86603 .5 13.93 225.947)"/><path fill="#fff" stroke="#363636" d="M24.32 451.947c0 2.047.677 3.704 2.03 4.485l-17.32-10c-1.354-.781-2.03-2.438-2.03-4.485l17.32 10ZM24.32 247.947c0-4.419 3.102-9.791 6.929-12l-17.32-10c-3.827 2.209-6.929 7.581-6.929 12l17.32 10ZM91.575 203.461c-1.353-.781-3.126-.538-4.899.486l-17.32-10c1.773-1.024 3.546-1.267 4.898-.486l17.321 10Z"/><path fill="url(#r)" stroke="#363636" d="M231.668 55.678c0-4.418 3.102-9.79 6.928-12l56.993-32.905c3.827-2.209 6.929-.418 6.929 4V56.04c0 4.419-3.102 9.791-6.929 12l-56.993 32.906c-3.826 2.209-6.928.418-6.928-4V55.679Z"/><path fill="url(#s)" stroke="#363636" d="M0 0h6.545v44.178H0z" transform="matrix(.86603 .5 0 1 226 50.95)"/><path fill="url(#t)" stroke="#363636" d="M0 0h68.721v6.545H0z" transform="matrix(.86603 -.5 .86603 .5 231.668 41.134)"/><path fill="url(#u)" stroke="#363636" d="M231.668 98.4c0 1.676.553 3.031 1.66 3.67l-5.668-3.272c-1.107-.64-1.66-1.995-1.66-3.67l5.668 3.273Z"/><path fill="url(#v)" stroke="#363636" d="M231.668 54.223c0-3.614 2.538-8.01 5.668-9.817l-5.668-3.272C228.538 42.94 226 47.336 226 50.95l5.668 3.272Z"/><path fill="url(#w)" stroke="#363636" d="M300.859 9.65c-1.106-.64-2.557-.44-4.007.397l-5.668-3.273c1.45-.837 2.901-1.035 4.007-.397l5.668 3.273Z"/><path fill="url(#x)" stroke="#363636" stroke-width=".956" d="M258.941 62.797c0-4.225 2.947-9.397 6.582-11.551L296.481 32.9c3.635-2.154 6.582-.475 6.582 3.75v5.616c0 4.226-2.947 9.397-6.582 11.551l-30.958 18.346c-3.635 2.154-6.582.475-6.582-3.75v-5.616Z"/><path fill="url(#y)" stroke="#363636" stroke-width=".956" d="M0 0h3.419v6.972H0z" transform="matrix(.8603 .5098 0 1 256 60.389)"/><path fill="url(#z)" stroke="#363636" stroke-width=".956" d="M0 0h37.61v3.419H0z" transform="matrix(.8603 -.5098 .8603 .5098 261.883 49.926)"/><path fill="url(#A)" stroke="#363636" stroke-width=".956" d="M258.941 69.098c0 1.784.575 3.228 1.724 3.91l-2.942-1.744c-1.149-.68-1.723-2.125-1.723-3.91l2.941 1.744Z"/><path fill="url(#B)" stroke="#363636" stroke-width=".956" d="M258.941 62.127c0-3.85 2.634-8.533 5.883-10.458l-2.941-1.743C258.634 51.85 256 56.534 256 60.384l2.941 1.743Z"/><path fill="url(#C)" stroke="#363636" stroke-width=".956" d="M301.343 32.072c-1.148-.68-2.654-.469-4.159.423l-2.942-1.743c1.506-.892 3.011-1.104 4.16-.423l2.941 1.743Z"/><ellipse cx="6.838" cy="6.972" fill="url(#D)" stroke="#363636" stroke-width=".956" rx="6.838" ry="6.972" transform="matrix(.8603 -.5098 0 1 263.188 59.519)"/><path fill="url(#E)" stroke="#363636" stroke-width=".956" d="M263.188 66.495c0 1.785.574 3.229 1.723 3.91l-2.942-1.744c-1.149-.68-1.723-2.124-1.723-3.909l2.942 1.743Z"/><path fill="url(#F)" stroke="#363636" stroke-width=".956" d="M263.188 66.495c0-3.85 2.633-8.533 5.882-10.458l-2.941-1.743c-3.249 1.925-5.883 6.608-5.883 10.458l2.942 1.743Z"/><path fill="url(#G)" stroke="#363636" stroke-width=".956" d="M273.23 55.61c-1.149-.68-2.654-.468-4.16.424l-2.941-1.743c1.505-.892 3.011-1.104 4.16-.423l2.941 1.743Z"/><defs><linearGradient id="b" x1="1.577" x2="19.749" y1="9.989" y2="15.097" gradientUnits="userSpaceOnUse"><stop stop-color="#009877"/><stop offset="1" stop-color="#50D098"/></linearGradient><linearGradient id="c" x1="260.314" x2="264.101" y1="90.385" y2="91.043" gradientUnits="userSpaceOnUse"><stop stop-color="#009877"/><stop offset="1" stop-color="#50D098"/></linearGradient><linearGradient id="d" x1="260.797" x2="270.394" y1="78.51" y2="80.232" gradientUnits="userSpaceOnUse"><stop stop-color="#009877"/><stop offset="1" stop-color="#50D098"/></linearGradient><linearGradient id="e" x1="270.163" x2="273.675" y1="70.305" y2="74.009" gradientUnits="userSpaceOnUse"><stop stop-color="#009877"/><stop offset="1" stop-color="#50D098"/></linearGradient><linearGradient id="f" x1="1.577" x2="19.749" y1="9.989" y2="15.097" gradientUnits="userSpaceOnUse"><stop stop-color="#009877"/><stop offset="1" stop-color="#50D098"/></linearGradient><linearGradient id="g" x1="260.314" x2="264.101" y1="139.517" y2="140.175" gradientUnits="userSpaceOnUse"><stop stop-color="#009877"/><stop offset="1" stop-color="#50D098"/></linearGradient><linearGradient id="h" x1="260.797" x2="270.394" y1="127.642" y2="129.364" gradientUnits="userSpaceOnUse"><stop stop-color="#009877"/><stop offset="1" stop-color="#50D098"/></linearGradient><linearGradient id="i" x1="270.163" x2="273.675" y1="119.437" y2="123.141" gradientUnits="userSpaceOnUse"><stop stop-color="#009877"/><stop offset="1" stop-color="#50D098"/></linearGradient><linearGradient id="j" x1="1.577" x2="19.749" y1="9.989" y2="15.097" gradientUnits="userSpaceOnUse"><stop stop-color="#009877"/><stop offset="1" stop-color="#50D098"/></linearGradient><linearGradient id="k" x1="260.314" x2="264.101" y1="188.649" y2="189.307" gradientUnits="userSpaceOnUse"><stop stop-color="#009877"/><stop offset="1" stop-color="#50D098"/></linearGradient><linearGradient id="l" x1="260.797" x2="270.394" y1="176.774" y2="178.496" gradientUnits="userSpaceOnUse"><stop stop-color="#009877"/><stop offset="1" stop-color="#50D098"/></linearGradient><linearGradient id="m" x1="270.163" x2="273.675" y1="168.569" y2="172.273" gradientUnits="userSpaceOnUse"><stop stop-color="#009877"/><stop offset="1" stop-color="#50D098"/></linearGradient><linearGradient id="n" x1="1.577" x2="19.749" y1="9.989" y2="15.097" gradientUnits="userSpaceOnUse"><stop stop-color="#009877"/><stop offset="1" stop-color="#50D098"/></linearGradient><linearGradient id="o" x1="260.797" x2="270.394" y1="225.906" y2="227.627" gradientUnits="userSpaceOnUse"><stop stop-color="#009877"/><stop offset="1" stop-color="#50D098"/></linearGradient><linearGradient id="p" x1="270.163" x2="273.675" y1="217.701" y2="221.405" gradientUnits="userSpaceOnUse"><stop stop-color="#009877"/><stop offset="1" stop-color="#50D098"/></linearGradient><linearGradient id="r" x1="238.738" x2="302.377" y1="76.846" y2="54.311" gradientUnits="userSpaceOnUse"><stop stop-color="#8ED7C6"/><stop offset="1" stop-color="#56ADAB"/></linearGradient><linearGradient id="s" x1="2.328" x2="12.595" y1=".003" y2="2.045" gradientUnits="userSpaceOnUse"><stop stop-color="#5BC5B8"/><stop offset="1" stop-color="#BCEBE5"/></linearGradient><linearGradient id="t" x1="6.857" x2="14.839" y1="3.8" y2="-16.116" gradientUnits="userSpaceOnUse"><stop stop-color="#FF797F"/><stop offset="1" stop-color="#FF587F"/></linearGradient><linearGradient id="u" x1="226.731" x2="232.517" y1="99.159" y2="97.707" gradientUnits="userSpaceOnUse"><stop stop-color="#FF797F"/><stop offset="1" stop-color="#FF587F"/></linearGradient><linearGradient id="v" x1="227.131" x2="236.259" y1="48.733" y2="46.855" gradientUnits="userSpaceOnUse"><stop stop-color="#FF797F"/><stop offset="1" stop-color="#FF587F"/></linearGradient><linearGradient id="w" x1="291.182" x2="300.858" y1="7.996" y2="7.996" gradientUnits="userSpaceOnUse"><stop stop-color="#005D84"/><stop offset="1" stop-color="#4A989D"/></linearGradient><linearGradient id="x" x1="263.344" x2="298.266" y1="64.681" y2="39.78" gradientUnits="userSpaceOnUse"><stop stop-color="#8ED7C6"/><stop offset="1" stop-color="#56ADAB"/></linearGradient><linearGradient id="y" x1=".341" x2="3.172" y1="4.048" y2="3.718" gradientUnits="userSpaceOnUse"><stop stop-color="#8ED7C6"/><stop offset="1" stop-color="#56ADAB"/></linearGradient><linearGradient id="z" x1="3.753" x2="7.783" y1="1.985" y2="-8.549" gradientUnits="userSpaceOnUse"><stop stop-color="#8ED7C6"/><stop offset="1" stop-color="#56ADAB"/></linearGradient><linearGradient id="A" x1="256.465" x2="260.235" y1="70.637" y2="69.897" gradientUnits="userSpaceOnUse"><stop stop-color="#8ED7C6"/><stop offset="1" stop-color="#56ADAB"/></linearGradient><linearGradient id="B" x1="256.881" x2="264.074" y1="57.01" y2="55.774" gradientUnits="userSpaceOnUse"><stop stop-color="#8ED7C6"/><stop offset="1" stop-color="#56ADAB"/></linearGradient><linearGradient id="C" x1="294.951" x2="299.113" y1="31.418" y2="28.683" gradientUnits="userSpaceOnUse"><stop stop-color="#8ED7C6"/><stop offset="1" stop-color="#56ADAB"/></linearGradient><linearGradient id="D" x1="1.365" x2="12.252" y1="8.096" y2="5.559" gradientUnits="userSpaceOnUse"><stop stop-color="#FF797F"/><stop offset="1" stop-color="#FF587F"/></linearGradient><linearGradient id="E" x1="260.712" x2="264.481" y1="68.034" y2="67.294" gradientUnits="userSpaceOnUse"><stop stop-color="#8ED7C6"/><stop offset="1" stop-color="#56ADAB"/></linearGradient><linearGradient id="F" x1="261.127" x2="268.32" y1="61.378" y2="60.142" gradientUnits="userSpaceOnUse"><stop stop-color="#8ED7C6"/><stop offset="1" stop-color="#56ADAB"/></linearGradient><linearGradient id="G" x1="266.838" x2="271" y1="54.957" y2="52.221" gradientUnits="userSpaceOnUse"><stop stop-color="#8ED7C6"/><stop offset="1" stop-color="#56ADAB"/></linearGradient><clipPath id="a"><path fill="#fff" d="M236 66h68v156h-68z"/></clipPath><clipPath id="q"><path fill="#fff" d="M94 202h120v256H94z"/></clipPath></defs></svg>
