<svg xmlns="http://www.w3.org/2000/svg" viewBox="0 0 600 611" fill="none"><g clip-path="url(#a)"><rect width="163.685" height="10.448" fill="url(#b)" rx="5.224" transform="matrix(.86603 -.5 0 1 142.943 81.9)"/><rect width="108.543" height="10.448" fill="url(#c)" rx="5.224" transform="matrix(.86603 -.5 0 1 190.695 69.42)"/><rect width="108.543" height="10.448" fill="url(#d)" rx="5.224" transform="matrix(.86603 -.5 0 1 143.441 223.319)"/><rect width="121.893" height="10.448" fill="url(#e)" rx="5.224" transform="matrix(.86603 -.5 0 1 143.947 253.212)"/><rect width="145.111" height="10.448" fill="url(#f)" rx="5.224" transform="matrix(.86603 -.5 0 1 159.027 259.598)"/><rect width="145.111" height="10.448" fill="url(#g)" rx="5.224" transform="matrix(.86603 -.5 0 1 159.027 304.872)"/><rect width="145.111" height="10.448" fill="url(#h)" rx="5.224" transform="matrix(.86603 -.5 0 1 159.027 320.543)"/><rect width="126.536" height="9.287" fill="url(#i)" rx="4.644" transform="matrix(.86603 -.5 0 1 175.115 265.982)"/><rect width="100.997" height="9.868" fill="url(#j)" rx="4.934" transform="matrix(0 -1 .86603 -.5 143.947 369.302)"/><rect width="90.549" height="9.868" fill="url(#k)" rx="4.934" transform="matrix(-.86603 .5 0 -1 284.697 227.093)"/><rect width="126.536" height="9.287" fill="url(#l)" rx="4.644" transform="matrix(.86603 -.5 0 1 175.115 326.929)"/><rect width="90.549" height="9.868" fill="url(#m)" rx="4.934" transform="matrix(-.86603 .5 0 -1 284.697 288.039)"/><rect width="26.12" height="10.448" fill="url(#n)" rx="5.224" transform="matrix(.86603 -.5 0 1 143.947 238.121)"/><rect width="49.338" height="10.448" fill="url(#o)" rx="5.224" transform="matrix(.86603 -.5 0 1 142.943 96.99)"/><rect width="66.751" height="10.448" fill="url(#p)" rx="5.224" transform="matrix(.86603 -.5 0 1 226.887 63.616)"/><rect width="86.486" height="10.448" fill="url(#q)" rx="5.224" transform="matrix(.86603 -.5 0 1 142.943 112.083)"/><rect width="27.089" height="12.796" x="229.268" y="92.427" fill="url(#r)" rx="5.224" transform="rotate(30 229.268 92.427)"/><rect width="46.919" height="7.388" x="252.727" y="106.006" fill="url(#s)" rx="5.224" transform="rotate(120 252.727 106.006)"/><rect width="27.089" height="12.796" x="210.637" y="157.394" fill="url(#t)" rx="5.224" transform="rotate(-150 210.637 157.394)"/><rect width="46.919" height="7.388" x="187.178" y="143.814" fill="url(#u)" rx="5.224" transform="rotate(-60 187.178 143.814)"/><rect width="27.089" height="12.796" x="227.258" y="330.408" fill="url(#v)" rx="5.224" transform="rotate(30 227.258 330.408)"/><rect width="46.919" height="7.388" x="250.715" y="343.986" fill="url(#w)" rx="5.224" transform="rotate(120 250.715 343.986)"/><rect width="27.089" height="12.796" x="208.629" y="395.376" fill="url(#x)" rx="5.224" transform="rotate(-150 208.629 395.376)"/><rect width="46.919" height="7.388" x="185.166" y="381.797" fill="url(#y)" rx="5.224" transform="rotate(-60 185.166 381.797)"/><rect width="136.404" height="10.448" fill="url(#z)" rx="5.224" transform="matrix(.86603 -.5 0 1 142.943 127.174)"/><rect width="163.685" height="10.448" fill="url(#A)" rx="5.224" transform="matrix(.86603 -.5 0 1 142.943 446.998)"/><rect width="108.543" height="10.448" fill="url(#B)" rx="5.224" transform="matrix(.86603 -.5 0 1 190.695 434.519)"/><rect width="49.338" height="10.448" fill="url(#C)" rx="5.224" transform="matrix(.86603 -.5 0 1 142.943 462.091)"/><rect width="66.751" height="10.448" fill="url(#D)" rx="5.224" transform="matrix(.86603 -.5 0 1 226.887 428.716)"/><rect width="86.486" height="10.448" fill="url(#E)" rx="5.224" transform="matrix(.86603 -.5 0 1 142.943 477.182)"/><rect width="136.404" height="10.448" fill="url(#F)" rx="5.224" transform="matrix(.86603 -.5 0 1 142.943 492.272)"/><rect width="136.404" height="10.448" fill="url(#G)" rx="5.224" transform="matrix(.86603 -.5 0 1 142.943 208.519)"/><rect width="100.997" height="9.868" fill="url(#H)" rx="4.934" transform="matrix(0 -1 .86603 -.5 143.947 3.886)"/><rect width="46.919" height="7.388" x="250.715" y="-21.428" fill="url(#I)" rx="5.224" transform="rotate(120 250.715 -21.428)"/><rect width="27.089" height="12.796" x="208.629" y="29.96" fill="url(#J)" rx="5.224" transform="rotate(-150 208.629 29.96)"/><rect width="46.919" height="7.388" x="185.166" y="16.381" fill="url(#K)" rx="5.224" transform="rotate(-60 185.166 16.38)"/><rect width="27.089" height="12.796" x="229.268" y="456.268" fill="url(#L)" rx="5.224" transform="rotate(30 229.268 456.268)"/><rect width="46.919" height="7.388" x="252.727" y="469.847" fill="url(#M)" rx="5.224" transform="rotate(120 252.727 469.847)"/><rect width="27.089" height="12.796" x="210.637" y="521.234" fill="url(#N)" rx="5.224" transform="rotate(-150 210.637 521.234)"/><rect width="46.919" height="7.388" x="187.178" y="507.655" fill="url(#O)" rx="5.224" transform="rotate(-60 187.178 507.655)"/></g><path fill="#fff" stroke="#363636" stroke-width="2.83" d="M288.682 596.095c0-3.126 2.195-6.928 4.902-8.491l210.803-121.707c2.707-1.563 4.902-.296 4.902 2.831v8.491c0 3.126-2.195 6.928-4.902 8.491L293.584 607.417c-2.707 1.563-4.902.296-4.902-2.83v-8.492Z"/><path fill="#fff" stroke="#363636" stroke-width="2.83" d="M0 0h198.128v8.491H0z" transform="matrix(.86603 .5 0 1 117.1 497.031)"/><path fill="#fff" stroke="#363636" stroke-width="2.83" d="M0 0h243.414v198.128H0z" transform="matrix(.86603 -.5 .86603 .5 121.996 488.539)"/><path fill="#fff" stroke="#363636" stroke-width="2.83" d="M288.683 604.585c0 1.449.479 2.621 1.436 3.174l-171.584-99.064c-.957-.552-1.435-1.725-1.435-3.174l171.583 99.064ZM288.683 596.094c0-3.126 2.195-6.928 4.903-8.491l-171.584-99.064c-2.708 1.563-4.902 5.365-4.902 8.491l171.583 99.064ZM507.855 465.548c-.957-.553-2.212-.381-3.467.343l-171.583-99.064c1.254-.724 2.509-.896 3.466-.343l171.584 99.064Z"/><path fill="#fff" stroke="#363636" stroke-width=".849" d="M152.758 477.96c1.354-.781 3.548-.781 4.902 0l4.903 2.831c1.353.781 1.353 2.048 0 2.83l-4.903 2.83c-1.354.782-3.548.782-4.902 0l-4.903-2.83c-1.353-.782-1.353-2.049 0-2.83l4.903-2.831Z"/><path fill="#fff" stroke="#363636" stroke-width=".849" d="M0 0h5.661v5.661H0z" transform="matrix(.86603 .5 0 1 147.857 483.621)"/><path fill="#fff" stroke="#363636" stroke-width=".849" d="M0 0h5.661v5.661H0z" transform="matrix(.86603 -.5 0 1 157.662 486.451)"/><path fill="#fff" stroke="#363636" stroke-width=".849" d="M146.838 482.205c0 .553.388 1.053 1.015 1.415v5.661c-.627-.362-1.015-.862-1.015-1.415v-5.661ZM152.754 486.451c1.354.782 3.549.782 4.902 0v5.661c-1.353.782-3.548.782-4.902 0v-5.661ZM163.574 482.205c0 .553-.388 1.053-1.015 1.415v5.661c.627-.362 1.015-.862 1.015-1.415v-5.661ZM172.572 466.638c1.354-.782 3.549-.782 4.903 0l4.902 2.83c1.354.782 1.354 2.049 0 2.831l-4.902 2.83c-1.354.782-3.549.782-4.903 0l-4.902-2.83c-1.354-.782-1.354-2.049 0-2.831l4.902-2.83Z"/><path fill="#fff" stroke="#363636" stroke-width=".849" d="M0 0h5.661v5.661H0z" transform="matrix(.86603 .5 0 1 167.672 472.298)"/><path fill="#fff" stroke="#363636" stroke-width=".849" d="M0 0h5.661v5.661H0z" transform="matrix(.86603 -.5 0 1 177.475 475.128)"/><path fill="#fff" stroke="#363636" stroke-width=".849" d="M166.652 470.884c0 .552.388 1.053 1.016 1.415v5.661c-.628-.362-1.016-.863-1.016-1.415v-5.661ZM172.568 475.128c1.354.782 3.549.782 4.903 0v5.661c-1.354.781-3.549.781-4.903 0v-5.661ZM183.388 470.884c0 .552-.388 1.053-1.015 1.415v5.661c.627-.362 1.015-.863 1.015-1.415v-5.661ZM192.387 455.314c1.353-.782 3.548-.782 4.902 0l4.902 2.83c1.354.782 1.354 2.049 0 2.83l-4.902 2.831c-1.354.781-3.549.781-4.902 0l-4.903-2.831c-1.353-.781-1.353-2.048 0-2.83l4.903-2.83Z"/><path fill="#fff" stroke="#363636" stroke-width=".849" d="M0 0h5.661v5.661H0z" transform="matrix(.86603 .5 0 1 187.486 460.975)"/><path fill="#fff" stroke="#363636" stroke-width=".849" d="M0 0h5.661v5.661H0z" transform="matrix(.86603 -.5 0 1 197.289 463.805)"/><path fill="#fff" stroke="#363636" stroke-width=".849" d="M186.467 459.559c0 .552.388 1.053 1.015 1.415v5.661c-.627-.363-1.015-.863-1.015-1.416v-5.66ZM192.383 463.805c1.354.781 3.548.781 4.902 0v5.66c-1.354.782-3.548.782-4.902 0v-5.66ZM203.203 459.559c0 .552-.388 1.053-1.015 1.415v5.661c.627-.363 1.015-.863 1.015-1.416v-5.66ZM212.201 443.996c1.354-.781 3.549-.781 4.903 0l4.902 2.831c1.354.781 1.354 2.048 0 2.83l-4.902 2.83c-1.354.782-3.549.782-4.903 0l-4.902-2.83c-1.354-.782-1.354-2.049 0-2.83l4.902-2.831Z"/><path fill="#fff" stroke="#363636" stroke-width=".849" d="M0 0h5.661v5.661H0z" transform="matrix(.86603 .5 0 1 207.301 449.657)"/><path fill="#fff" stroke="#363636" stroke-width=".849" d="M0 0h5.661v5.661H0z" transform="matrix(.86603 -.5 0 1 217.104 452.487)"/><path fill="#fff" stroke="#363636" stroke-width=".849" d="M206.279 448.241c0 .553.388 1.053 1.016 1.415v5.661c-.628-.362-1.016-.862-1.016-1.415v-5.661ZM212.197 452.487c1.354.782 3.549.782 4.903 0v5.661c-1.354.782-3.549.782-4.903 0v-5.661ZM223.019 448.241c0 .553-.388 1.053-1.015 1.415v5.661c.627-.362 1.015-.862 1.015-1.415v-5.661ZM232.012 432.674c1.353-.782 3.548-.782 4.902 0l4.902 2.83c1.354.782 1.354 2.049 0 2.831l-4.902 2.83c-1.354.782-3.549.782-4.902 0l-4.903-2.83c-1.353-.782-1.353-2.049 0-2.831l4.903-2.83Z"/><path fill="#fff" stroke="#363636" stroke-width=".849" d="M0 0h5.661v5.661H0z" transform="matrix(.86603 .5 0 1 227.111 438.334)"/><path fill="#fff" stroke="#363636" stroke-width=".849" d="M0 0h5.661v5.661H0z" transform="matrix(.86603 -.5 0 1 236.916 441.164)"/><path fill="#fff" stroke="#363636" stroke-width=".849" d="M226.092 436.919c0 .553.388 1.053 1.015 1.415v5.661c-.627-.362-1.015-.863-1.015-1.415v-5.661ZM232.01 441.164c1.354.782 3.548.782 4.902 0v5.661c-1.354.781-3.548.781-4.902 0v-5.661ZM242.828 436.919c0 .553-.388 1.053-1.016 1.415v5.661c.628-.362 1.016-.863 1.016-1.415v-5.661ZM251.82 421.35c1.354-.782 3.549-.782 4.903 0l4.902 2.83c1.354.782 1.354 2.049 0 2.831l-4.902 2.83c-1.354.782-3.549.782-4.903 0l-4.902-2.83c-1.354-.782-1.354-2.049 0-2.831l4.902-2.83Z"/><path fill="#fff" stroke="#363636" stroke-width=".849" d="M0 0h5.661v5.661H0z" transform="matrix(.86603 .5 0 1 246.922 427.011)"/><path fill="#fff" stroke="#363636" stroke-width=".849" d="M0 0h5.661v5.661H0z" transform="matrix(.86603 -.5 0 1 256.727 429.842)"/><path fill="#fff" stroke="#363636" stroke-width=".849" d="M245.902 425.596c0 .552.388 1.053 1.016 1.415v5.661c-.628-.362-1.016-.863-1.016-1.416v-5.66ZM251.82 429.842c1.354.781 3.549.781 4.903 0v5.661c-1.354.781-3.549.781-4.903 0v-5.661ZM262.64 425.596c0 .552-.388 1.053-1.015 1.415v5.661c.627-.362 1.015-.863 1.015-1.416v-5.66Z"/><path fill="url(#P)" stroke="#363636" stroke-width=".849" d="M271.637 410.027c1.353-.782 3.548-.782 4.902 0l4.902 2.83c1.354.782 1.354 2.049 0 2.83l-4.902 2.831c-1.354.781-3.549.781-4.902 0l-4.903-2.831c-1.353-.781-1.353-2.048 0-2.83l4.903-2.83Z"/><path fill="#fff" stroke="#363636" stroke-width=".849" d="M0 0h5.661v5.661H0z" transform="matrix(.86603 .5 0 1 266.736 415.688)"/><path fill="#fff" stroke="#363636" stroke-width=".849" d="M0 0h5.661v5.661H0z" transform="matrix(.86603 -.5 0 1 276.541 418.519)"/><path fill="#fff" stroke="#363636" stroke-width=".849" d="M265.717 414.271c0 .553.388 1.054 1.015 1.416v5.66c-.627-.362-1.015-.862-1.015-1.415v-5.661ZM271.635 418.519c1.354.781 3.548.781 4.902 0v5.66c-1.354.782-3.548.782-4.902 0v-5.66ZM282.453 414.271c0 .553-.388 1.054-1.015 1.416v5.66c.627-.362 1.015-.862 1.015-1.415v-5.661ZM291.451 398.71c1.354-.781 3.549-.781 4.903 0l4.902 2.831c1.354.781 1.354 2.048 0 2.83l-4.902 2.83c-1.354.782-3.549.782-4.903 0l-4.902-2.83c-1.354-.782-1.354-2.049 0-2.83l4.902-2.831Z"/><path fill="#fff" stroke="#363636" stroke-width=".849" d="M0 0h5.661v5.661H0z" transform="matrix(.86603 .5 0 1 286.551 404.37)"/><path fill="#fff" stroke="#363636" stroke-width=".849" d="M0 0h5.661v5.661H0z" transform="matrix(.86603 -.5 0 1 296.355 407.2)"/><path fill="#fff" stroke="#363636" stroke-width=".849" d="M285.531 402.955c0 .553.388 1.053 1.016 1.415v5.661c-.628-.362-1.016-.862-1.016-1.415v-5.661ZM291.447 407.2c1.354.782 3.549.782 4.903 0v5.661c-1.354.782-3.549.782-4.903 0V407.2ZM302.267 402.955c0 .553-.388 1.053-1.015 1.415v5.661c.627-.362 1.015-.862 1.015-1.415v-5.661ZM311.26 387.387c1.354-.782 3.548-.782 4.902 0l4.903 2.83c1.353.782 1.353 2.049 0 2.831l-4.903 2.83c-1.354.782-3.548.782-4.902 0l-4.903-2.83c-1.353-.782-1.353-2.049 0-2.831l4.903-2.83Z"/><path fill="#fff" stroke="#363636" stroke-width=".849" d="M0 0h5.661v5.661H0z" transform="matrix(.86603 .5 0 1 306.357 393.048)"/><path fill="#fff" stroke="#363636" stroke-width=".849" d="M0 0h5.661v5.661H0z" transform="matrix(.86603 -.5 0 1 316.166 395.879)"/><path fill="#fff" stroke="#363636" stroke-width=".849" d="M305.34 391.632c0 .553.388 1.053 1.015 1.415v5.661c-.627-.362-1.015-.863-1.015-1.415v-5.661ZM311.254 395.879c1.354.781 3.549.781 4.902 0v5.661c-1.353.781-3.548.781-4.902 0v-5.661ZM322.078 391.632c0 .553-.388 1.053-1.016 1.415v5.661c.628-.362 1.016-.863 1.016-1.415v-5.661ZM331.074 376.063c1.354-.782 3.549-.782 4.903 0l4.902 2.83c1.354.782 1.354 2.049 0 2.83l-4.902 2.831c-1.354.781-3.549.781-4.903 0l-4.902-2.831c-1.354-.781-1.354-2.048 0-2.83l4.902-2.83Z"/><path fill="#fff" stroke="#363636" stroke-width=".849" d="M0 0h5.661v5.661H0z" transform="matrix(.86603 .5 0 1 326.174 381.724)"/><path fill="#fff" stroke="#363636" stroke-width=".849" d="M0 0h5.661v5.661H0z" transform="matrix(.86603 -.5 0 1 335.98 384.555)"/><path fill="#fff" stroke="#363636" stroke-width=".849" d="M325.156 380.31c0 .552.388 1.053 1.016 1.415v5.661c-.628-.363-1.016-.863-1.016-1.416v-5.66ZM331.072 384.555c1.354.781 3.549.781 4.903 0v5.66c-1.354.782-3.549.782-4.903 0v-5.66ZM341.892 380.31c0 .552-.388 1.053-1.015 1.415v5.661c.627-.363 1.015-.863 1.015-1.416v-5.66ZM178.23 494.942c1.354-.782 3.549-.782 4.903 0l4.902 2.83c1.354.782 1.354 2.049 0 2.83l-4.902 2.831c-1.354.781-3.549.781-4.903 0l-4.902-2.831c-1.354-.781-1.354-2.048 0-2.83l4.902-2.83Z"/><path fill="#fff" stroke="#363636" stroke-width=".849" d="M0 0h5.661v5.661H0z" transform="matrix(.86603 .5 0 1 173.328 500.602)"/><path fill="#fff" stroke="#363636" stroke-width=".849" d="M0 0h5.661v5.661H0z" transform="matrix(.86603 -.5 0 1 183.135 503.434)"/><path fill="#fff" stroke="#363636" stroke-width=".849" d="M172.311 499.188c0 .552.388 1.053 1.015 1.415v5.66c-.627-.362-1.015-.862-1.015-1.415v-5.66ZM178.227 503.434c1.353.781 3.548.781 4.902 0v5.66c-1.354.782-3.549.782-4.902 0v-5.66ZM189.047 499.188c0 .552-.388 1.053-1.016 1.415v5.66c.628-.362 1.016-.862 1.016-1.415v-5.66Z"/><path fill="url(#Q)" stroke="#363636" stroke-width=".849" d="M198.043 483.618c1.354-.781 3.549-.781 4.902 0l4.903 2.831c1.353.781 1.353 2.049 0 2.83l-4.903 2.831c-1.353.781-3.548.781-4.902 0l-4.902-2.831c-1.354-.781-1.354-2.049 0-2.83l4.902-2.831Z"/><path fill="#fff" stroke="#363636" stroke-width=".849" d="M0 0h5.661v5.661H0z" transform="matrix(.86603 .5 0 1 193.141 489.279)"/><path fill="#fff" stroke="#363636" stroke-width=".849" d="M0 0h5.661v5.661H0z" transform="matrix(.86603 -.5 0 1 202.949 492.109)"/><path fill="#fff" stroke="#363636" stroke-width=".849" d="M192.123 487.863c0 .553.388 1.053 1.015 1.415v5.661c-.627-.362-1.015-.862-1.015-1.415v-5.661ZM198.037 492.109c1.354.782 3.549.782 4.902 0v5.661c-1.353.782-3.548.782-4.902 0v-5.661ZM208.861 487.863c0 .553-.388 1.053-1.015 1.415v5.661c.627-.362 1.015-.862 1.015-1.415v-5.661ZM217.859 472.293c1.354-.781 3.549-.781 4.903 0l4.902 2.831c1.354.781 1.354 2.048 0 2.83l-4.902 2.83c-1.354.782-3.549.782-4.903 0l-4.902-2.83c-1.354-.782-1.354-2.049 0-2.83l4.902-2.831Z"/><path fill="#fff" stroke="#363636" stroke-width=".849" d="M0 0h5.661v5.661H0z" transform="matrix(.86603 .5 0 1 212.957 477.954)"/><path fill="#fff" stroke="#363636" stroke-width=".849" d="M0 0h5.661v5.661H0z" transform="matrix(.86603 -.5 0 1 222.766 480.784)"/><path fill="#fff" stroke="#363636" stroke-width=".849" d="M211.939 476.538c0 .553.388 1.053 1.016 1.415v5.661c-.628-.362-1.016-.862-1.016-1.415v-5.661ZM217.855 480.784c1.354.782 3.549.782 4.903 0v5.661c-1.354.782-3.549.782-4.903 0v-5.661ZM228.677 476.538c0 .553-.388 1.053-1.015 1.415v5.661c.627-.362 1.015-.862 1.015-1.415v-5.661ZM237.672 460.978c1.354-.782 3.548-.782 4.902 0l4.903 2.83c1.353.782 1.353 2.049 0 2.83l-4.903 2.831c-1.354.781-3.548.781-4.902 0l-4.903-2.831c-1.353-.781-1.353-2.048 0-2.83l4.903-2.83Z"/><path fill="#fff" stroke="#363636" stroke-width=".849" d="M0 0h5.661v5.661H0z" transform="matrix(.86603 .5 0 1 232.773 466.638)"/><path fill="#fff" stroke="#363636" stroke-width=".849" d="M0 0h5.661v5.661H0z" transform="matrix(.86603 -.5 0 1 242.578 469.468)"/><path fill="#fff" stroke="#363636" stroke-width=".849" d="M231.754 465.223c0 .552.388 1.053 1.015 1.415v5.661c-.627-.363-1.015-.863-1.015-1.416v-5.66ZM237.67 469.468c1.354.781 3.549.781 4.902 0v5.661c-1.353.781-3.548.781-4.902 0v-5.661ZM248.49 465.223c0 .552-.388 1.053-1.015 1.415v5.661c.627-.363 1.015-.863 1.015-1.416v-5.66ZM257.48 449.653c1.354-.781 3.549-.781 4.903 0l4.902 2.831c1.354.781 1.354 2.049 0 2.83l-4.902 2.831c-1.354.781-3.549.781-4.903 0l-4.902-2.831c-1.354-.781-1.354-2.049 0-2.83l4.902-2.831Z"/><path fill="#fff" stroke="#363636" stroke-width=".849" d="M0 0h5.661v5.661H0z" transform="matrix(.86603 .5 0 1 252.58 455.313)"/><path fill="#fff" stroke="#363636" stroke-width=".849" d="M0 0h5.661v5.661H0z" transform="matrix(.86603 -.5 0 1 262.383 458.146)"/><path fill="#fff" stroke="#363636" stroke-width=".849" d="M251.559 453.899c0 .553.388 1.053 1.015 1.416v5.66c-.627-.362-1.015-.862-1.015-1.415v-5.661ZM257.477 458.146c1.353.781 3.548.781 4.902 0v5.66c-1.354.782-3.549.782-4.902 0v-5.66ZM268.297 453.899c0 .553-.388 1.053-1.016 1.416v5.66c.628-.362 1.016-.862 1.016-1.415v-5.661ZM277.295 438.33c1.354-.781 3.549-.781 4.902 0l4.903 2.831c1.353.781 1.353 2.048 0 2.83l-4.903 2.83c-1.353.782-3.548.782-4.902 0l-4.902-2.83c-1.354-.782-1.354-2.049 0-2.83l4.902-2.831Z"/><path fill="#fff" stroke="#363636" stroke-width=".849" d="M0 0h5.661v5.661H0z" transform="matrix(.86603 .5 0 1 272.395 443.991)"/><path fill="#fff" stroke="#363636" stroke-width=".849" d="M0 0h5.661v5.661H0z" transform="matrix(.86603 -.5 0 1 282.197 446.821)"/><path fill="#fff" stroke="#363636" stroke-width=".849" d="M271.373 442.575c0 .553.388 1.053 1.015 1.415v5.661c-.627-.362-1.015-.862-1.015-1.415v-5.661ZM277.291 446.821c1.354.782 3.549.782 4.902 0v5.661c-1.353.782-3.548.782-4.902 0v-5.661ZM288.109 442.575c0 .553-.388 1.053-1.015 1.415v5.661c.627-.362 1.015-.862 1.015-1.415v-5.661ZM297.109 427.008c1.354-.782 3.549-.782 4.903 0l4.902 2.83c1.354.782 1.354 2.049 0 2.831l-4.902 2.83c-1.354.782-3.549.782-4.903 0l-4.902-2.83c-1.354-.782-1.354-2.049 0-2.831l4.902-2.83Z"/><path fill="#fff" stroke="#363636" stroke-width=".849" d="M0 0h5.661v5.661H0z" transform="matrix(.86603 .5 0 1 292.211 432.667)"/><path fill="#fff" stroke="#363636" stroke-width=".849" d="M0 0h5.661v5.661H0z" transform="matrix(.86603 -.5 0 1 302.014 435.498)"/><path fill="#fff" stroke="#363636" stroke-width=".849" d="M291.189 431.253c0 .553.388 1.053 1.016 1.415v5.661c-.628-.362-1.016-.863-1.016-1.415v-5.661ZM297.109 435.498c1.354.782 3.549.782 4.903 0v5.661c-1.354.781-3.549.781-4.903 0v-5.661ZM307.925 431.253c0 .553-.388 1.053-1.015 1.415v5.661c.627-.362 1.015-.863 1.015-1.415v-5.661ZM316.924 415.691c1.354-.782 3.548-.782 4.902 0l4.903 2.83c1.353.782 1.353 2.049 0 2.83l-4.903 2.831c-1.354.781-3.548.781-4.902 0l-4.903-2.831c-1.353-.781-1.353-2.048 0-2.83l4.903-2.83Z"/><path fill="#fff" stroke="#363636" stroke-width=".849" d="M0 0h5.661v5.661H0z" transform="matrix(.86603 .5 0 1 312.027 421.352)"/><path fill="#fff" stroke="#363636" stroke-width=".849" d="M0 0h5.661v5.661H0z" transform="matrix(.86603 -.5 0 1 321.83 424.183)"/><path fill="#fff" stroke="#363636" stroke-width=".849" d="M311.004 419.936c0 .552.388 1.053 1.015 1.415v5.661c-.627-.363-1.015-.863-1.015-1.416v-5.66ZM316.924 424.183c1.354.781 3.548.781 4.902 0v5.66c-1.354.782-3.548.782-4.902 0v-5.66ZM327.744 419.936c0 .552-.388 1.053-1.015 1.415v5.661c.627-.363 1.015-.863 1.015-1.416v-5.66ZM336.736 404.366c1.354-.781 3.549-.781 4.903 0l4.902 2.831c1.354.781 1.354 2.049 0 2.83l-4.902 2.831c-1.354.781-3.549.781-4.903 0l-4.902-2.831c-1.354-.781-1.354-2.049 0-2.83l4.902-2.831Z"/><path fill="#fff" stroke="#363636" stroke-width=".849" d="M0 0h5.661v5.661H0z" transform="matrix(.86603 .5 0 1 331.84 410.027)"/><path fill="#fff" stroke="#363636" stroke-width=".849" d="M0 0h5.661v5.661H0z" transform="matrix(.86603 -.5 0 1 341.643 412.857)"/><path fill="#fff" stroke="#363636" stroke-width=".849" d="M330.816 408.611c0 .553.388 1.053 1.016 1.416v5.66c-.628-.362-1.016-.862-1.016-1.415v-5.661ZM336.736 412.857c1.354.782 3.549.782 4.903 0v5.661c-1.354.782-3.549.782-4.903 0v-5.661ZM347.554 408.611c0 .553-.388 1.053-1.015 1.416v5.66c.627-.362 1.015-.862 1.015-1.415v-5.661ZM356.545 393.044c1.354-.781 3.549-.781 4.902 0l4.903 2.831c1.353.781 1.353 2.048 0 2.83l-4.903 2.83c-1.353.782-3.548.782-4.902 0l-4.902-2.83c-1.354-.782-1.354-2.049 0-2.831l4.902-2.83Z"/><path fill="#fff" stroke="#363636" stroke-width=".849" d="M0 0h5.661v5.661H0z" transform="matrix(.86603 .5 0 1 351.645 398.704)"/><path fill="#fff" stroke="#363636" stroke-width=".849" d="M0 0h5.661v5.661H0z" transform="matrix(.86603 -.5 0 1 361.449 401.534)"/><path fill="#fff" stroke="#363636" stroke-width=".849" d="M350.625 397.289c0 .553.388 1.053 1.015 1.415v5.661c-.627-.362-1.015-.862-1.015-1.415v-5.661ZM356.541 401.534c1.354.782 3.549.782 4.902 0v5.661c-1.353.782-3.548.782-4.902 0v-5.661ZM367.363 397.289c0 .553-.388 1.053-1.015 1.415v5.661c.627-.362 1.015-.862 1.015-1.415v-5.661ZM198.043 506.265c1.354-.782 3.549-.782 4.902 0l4.903 2.83c1.353.782 1.353 2.049 0 2.831l-4.903 2.83c-1.353.782-3.548.782-4.902 0l-4.902-2.83c-1.354-.782-1.354-2.049 0-2.831l4.902-2.83Z"/><path fill="#fff" stroke="#363636" stroke-width=".849" d="M0 0h5.661v5.661H0z" transform="matrix(.86603 .5 0 1 193.141 511.926)"/><path fill="#fff" stroke="#363636" stroke-width=".849" d="M0 0h5.661v5.661H0z" transform="matrix(.86603 -.5 0 1 202.949 514.757)"/><path fill="#fff" stroke="#363636" stroke-width=".849" d="M192.123 510.512c0 .552.388 1.053 1.015 1.415v5.661c-.627-.362-1.015-.863-1.015-1.415v-5.661ZM198.037 514.757c1.354.781 3.549.781 4.902 0v5.661c-1.353.781-3.548.781-4.902 0v-5.661ZM208.861 510.512c0 .552-.388 1.053-1.015 1.415v5.661c.627-.362 1.015-.863 1.015-1.415v-5.661ZM217.859 494.943c1.354-.782 3.549-.782 4.903 0l4.902 2.83c1.354.782 1.354 2.049 0 2.83l-4.902 2.831c-1.354.781-3.549.781-4.903 0l-4.902-2.831c-1.354-.781-1.354-2.048 0-2.83l4.902-2.83Z"/><path fill="#fff" stroke="#363636" stroke-width=".849" d="M0 0h5.661v5.661H0z" transform="matrix(.86603 .5 0 1 212.957 500.603)"/><path fill="#fff" stroke="#363636" stroke-width=".849" d="M0 0h5.661v5.661H0z" transform="matrix(.86603 -.5 0 1 222.766 503.434)"/><path fill="#fff" stroke="#363636" stroke-width=".849" d="M211.939 499.188c0 .553.388 1.053 1.016 1.416v5.66c-.628-.362-1.016-.862-1.016-1.415v-5.661ZM217.855 503.434c1.354.781 3.549.781 4.903 0v5.66c-1.354.782-3.549.782-4.903 0v-5.66ZM228.677 499.188c0 .553-.388 1.053-1.015 1.416v5.66c.627-.362 1.015-.862 1.015-1.415v-5.661ZM237.672 483.619c1.354-.781 3.548-.781 4.902 0l4.903 2.831c1.353.781 1.353 2.048 0 2.83l-4.903 2.83c-1.354.782-3.548.782-4.902 0l-4.903-2.83c-1.353-.782-1.353-2.049 0-2.83l4.903-2.831Z"/><path fill="#fff" stroke="#363636" stroke-width=".849" d="M0 0h5.661v5.661H0z" transform="matrix(.86603 .5 0 1 232.773 489.28)"/><path fill="#fff" stroke="#363636" stroke-width=".849" d="M0 0h5.661v5.661H0z" transform="matrix(.86603 -.5 0 1 242.578 492.11)"/><path fill="#fff" stroke="#363636" stroke-width=".849" d="M231.754 487.864c0 .553.388 1.053 1.015 1.415v5.661c-.627-.362-1.015-.862-1.015-1.415v-5.661ZM237.67 492.11c1.354.782 3.549.782 4.902 0v5.661c-1.353.782-3.548.782-4.902 0v-5.661ZM248.49 487.864c0 .553-.388 1.053-1.015 1.415v5.661c.627-.362 1.015-.862 1.015-1.415v-5.661ZM257.48 472.295c1.354-.782 3.549-.782 4.903 0l4.902 2.83c1.354.782 1.354 2.049 0 2.831l-4.902 2.83c-1.354.782-3.549.782-4.903 0l-4.902-2.83c-1.354-.782-1.354-2.049 0-2.831l4.902-2.83Z"/><path fill="#fff" stroke="#363636" stroke-width=".849" d="M0 0h5.661v5.661H0z" transform="matrix(.86603 .5 0 1 252.58 477.956)"/><path fill="#fff" stroke="#363636" stroke-width=".849" d="M0 0h5.661v5.661H0z" transform="matrix(.86603 -.5 0 1 262.383 480.787)"/><path fill="#fff" stroke="#363636" stroke-width=".849" d="M251.559 476.542c0 .553.388 1.053 1.015 1.415v5.661c-.627-.362-1.015-.863-1.015-1.415v-5.661ZM257.477 480.787c1.353.782 3.548.782 4.902 0v5.661c-1.354.781-3.549.781-4.902 0v-5.661ZM268.297 476.542c0 .553-.388 1.053-1.016 1.415v5.661c.628-.362 1.016-.863 1.016-1.415v-5.661Z"/><path fill="url(#R)" stroke="#363636" stroke-width=".849" d="M277.295 460.98c1.354-.782 3.549-.782 4.902 0l4.903 2.83c1.353.782 1.353 2.049 0 2.83l-4.903 2.831c-1.353.781-3.548.781-4.902 0l-4.902-2.831c-1.354-.781-1.354-2.048 0-2.83l4.902-2.83Z"/><path fill="#fff" stroke="#363636" stroke-width=".849" d="M0 0h5.661v5.661H0z" transform="matrix(.86603 .5 0 1 272.395 466.641)"/><path fill="#fff" stroke="#363636" stroke-width=".849" d="M0 0h5.661v5.661H0z" transform="matrix(.86603 -.5 0 1 282.197 469.471)"/><path fill="#fff" stroke="#363636" stroke-width=".849" d="M271.375 465.225c0 .552.388 1.053 1.015 1.415v5.661c-.627-.363-1.015-.863-1.015-1.416v-5.66ZM277.291 469.471c1.354.781 3.549.781 4.902 0v5.66c-1.353.782-3.548.782-4.902 0v-5.66ZM288.115 465.225c0 .552-.388 1.053-1.015 1.415v5.661c.627-.363 1.015-.863 1.015-1.416v-5.66ZM297.109 449.655c1.354-.781 3.549-.781 4.903 0l4.902 2.831c1.354.781 1.354 2.049 0 2.83l-4.902 2.831c-1.354.781-3.549.781-4.903 0l-4.902-2.831c-1.354-.781-1.354-2.049 0-2.83l4.902-2.831Z"/><path fill="#fff" stroke="#363636" stroke-width=".849" d="M0 0h5.661v5.661H0z" transform="matrix(.86603 .5 0 1 292.211 455.316)"/><path fill="#fff" stroke="#363636" stroke-width=".849" d="M0 0h5.661v5.661H0z" transform="matrix(.86603 -.5 0 1 302.014 458.146)"/><path fill="#fff" stroke="#363636" stroke-width=".849" d="M291.189 453.9c0 .553.388 1.053 1.016 1.416v5.66c-.628-.362-1.016-.862-1.016-1.415V453.9ZM297.109 458.146c1.354.782 3.549.782 4.903 0v5.661c-1.354.782-3.549.782-4.903 0v-5.661ZM307.925 453.9c0 .553-.388 1.053-1.015 1.416v5.66c.627-.362 1.015-.862 1.015-1.415V453.9ZM316.924 438.333c1.354-.781 3.548-.781 4.902 0l4.903 2.831c1.353.781 1.353 2.048 0 2.83l-4.903 2.83c-1.354.782-3.548.782-4.902 0l-4.903-2.83c-1.353-.782-1.353-2.049 0-2.83l4.903-2.831Z"/><path fill="#fff" stroke="#363636" stroke-width=".849" d="M0 0h5.661v5.661H0z" transform="matrix(.86603 .5 0 1 312.027 443.993)"/><path fill="#fff" stroke="#363636" stroke-width=".849" d="M0 0h5.661v5.661H0z" transform="matrix(.86603 -.5 0 1 321.83 446.825)"/><path fill="#fff" stroke="#363636" stroke-width=".849" d="M311.004 442.579c0 .553.388 1.053 1.015 1.415v5.661c-.627-.362-1.015-.862-1.015-1.415v-5.661ZM316.924 446.825c1.354.782 3.548.782 4.902 0v5.661c-1.354.782-3.548.782-4.902 0v-5.661ZM327.744 442.579c0 .553-.388 1.053-1.015 1.415v5.661c.627-.362 1.015-.862 1.015-1.415v-5.661Z"/><path fill="url(#S)" stroke="#363636" stroke-width=".849" d="M336.736 427.01c1.354-.782 3.549-.782 4.903 0l4.902 2.83c1.354.782 1.354 2.049 0 2.831l-4.902 2.83c-1.354.782-3.549.782-4.903 0l-4.902-2.83c-1.354-.782-1.354-2.049 0-2.831l4.902-2.83Z"/><path fill="#fff" stroke="#363636" stroke-width=".849" d="M0 0h5.661v5.661H0z" transform="matrix(.86603 .5 0 1 331.84 432.671)"/><path fill="#fff" stroke="#363636" stroke-width=".849" d="M0 0h5.661v5.661H0z" transform="matrix(.86603 -.5 0 1 341.643 435.501)"/><path fill="#fff" stroke="#363636" stroke-width=".849" d="M330.816 431.255c0 .553.388 1.053 1.016 1.415v5.661c-.628-.362-1.016-.863-1.016-1.415v-5.661ZM336.736 435.501c1.354.782 3.549.782 4.903 0v5.661c-1.354.781-3.549.781-4.903 0v-5.661ZM347.554 431.255c0 .553-.388 1.053-1.015 1.415v5.661c.627-.362 1.015-.863 1.015-1.415v-5.661ZM356.545 415.693c1.354-.782 3.549-.782 4.902 0l4.903 2.83c1.353.782 1.353 2.049 0 2.83l-4.903 2.831c-1.353.781-3.548.781-4.902 0l-4.902-2.831c-1.354-.781-1.354-2.048 0-2.83l4.902-2.83Z"/><path fill="#fff" stroke="#363636" stroke-width=".849" d="M0 0h5.661v5.661H0z" transform="matrix(.86603 .5 0 1 351.645 421.354)"/><path fill="#fff" stroke="#363636" stroke-width=".849" d="M0 0h5.661v5.661H0z" transform="matrix(.86603 -.5 0 1 361.449 424.184)"/><path fill="#fff" stroke="#363636" stroke-width=".849" d="M350.625 419.938c0 .552.388 1.053 1.015 1.415v5.66c-.627-.362-1.015-.862-1.015-1.415v-5.66ZM356.541 424.184c1.354.781 3.549.781 4.902 0v5.66c-1.353.782-3.548.782-4.902 0v-5.66ZM367.363 419.938c0 .552-.388 1.053-1.015 1.415v5.66c.627-.362 1.015-.862 1.015-1.415v-5.66ZM376.357 404.369c1.354-.781 3.549-.781 4.903 0l4.902 2.831c1.354.781 1.354 2.048 0 2.83l-4.902 2.83c-1.354.782-3.549.782-4.903 0l-4.902-2.83c-1.354-.782-1.354-2.049 0-2.83l4.902-2.831Z"/><path fill="#fff" stroke="#363636" stroke-width=".849" d="M0 0h5.661v5.661H0z" transform="matrix(.86603 .5 0 1 371.457 410.029)"/><path fill="#fff" stroke="#363636" stroke-width=".849" d="M0 0h5.661v5.661H0z" transform="matrix(.86603 -.5 0 1 381.262 412.859)"/><path fill="#fff" stroke="#363636" stroke-width=".849" d="M370.438 408.614c0 .553.388 1.053 1.015 1.415v5.661c-.627-.362-1.015-.862-1.015-1.415v-5.661ZM376.354 412.859c1.353.782 3.548.782 4.902 0v5.661c-1.354.782-3.549.782-4.902 0v-5.661ZM387.174 408.614c0 .553-.388 1.053-1.016 1.415v5.661c.628-.362 1.016-.862 1.016-1.415v-5.661ZM220.697 517.584c1.354-.781 3.549-.781 4.903 0l4.902 2.831c1.354.781 1.354 2.048 0 2.83l-4.902 2.83c-1.354.782-3.549.782-4.903 0l-4.902-2.83c-1.354-.782-1.354-2.049 0-2.83l4.902-2.831Z"/><path fill="#fff" stroke="#363636" stroke-width=".849" d="M0 0h5.661v5.661H0z" transform="matrix(.86603 .5 0 1 215.797 523.245)"/><path fill="#fff" stroke="#363636" stroke-width=".849" d="M0 0h5.661v5.661H0z" transform="matrix(.86603 -.5 0 1 225.604 526.076)"/><path fill="#fff" stroke="#363636" stroke-width=".849" d="M214.777 521.831c0 .553.388 1.053 1.016 1.415v5.661c-.628-.362-1.016-.862-1.016-1.415v-5.661ZM220.695 526.076c1.354.782 3.549.782 4.903 0v5.661c-1.354.782-3.549.782-4.903 0v-5.661ZM231.515 521.831c0 .553-.388 1.053-1.015 1.415v5.661c.627-.362 1.015-.862 1.015-1.415v-5.661ZM240.504 506.269c1.354-.782 3.549-.782 4.902 0l4.903 2.83c1.353.782 1.353 2.049 0 2.831l-4.903 2.83c-1.353.781-3.548.781-4.902 0l-4.903-2.83c-1.353-.782-1.353-2.049 0-2.831l4.903-2.83Z"/><path fill="#fff" stroke="#363636" stroke-width=".849" d="M0 0h5.661v5.661H0z" transform="matrix(.86603 .5 0 1 235.604 511.93)"/><path fill="#fff" stroke="#363636" stroke-width=".849" d="M0 0h5.661v5.661H0z" transform="matrix(.86603 -.5 0 1 245.406 514.76)"/><path fill="#fff" stroke="#363636" stroke-width=".849" d="M234.582 510.514c0 .552.388 1.053 1.015 1.415v5.661c-.627-.363-1.015-.863-1.015-1.416v-5.66ZM240.5 514.76c1.354.781 3.549.781 4.902 0v5.661c-1.353.781-3.548.781-4.902 0v-5.661ZM251.318 510.514c0 .552-.388 1.053-1.015 1.415v5.661c.627-.363 1.015-.863 1.015-1.416v-5.66ZM260.318 494.944c1.354-.781 3.549-.781 4.903 0l4.902 2.831c1.354.781 1.354 2.049 0 2.83l-4.902 2.831c-1.354.781-3.549.781-4.903 0l-4.902-2.831c-1.354-.781-1.354-2.049 0-2.83l4.902-2.831Z"/><path fill="#fff" stroke="#363636" stroke-width=".849" d="M0 0h5.661v5.661H0z" transform="matrix(.86603 .5 0 1 255.418 500.605)"/><path fill="#fff" stroke="#363636" stroke-width=".849" d="M0 0h5.661v5.661H0z" transform="matrix(.86603 -.5 0 1 265.221 503.437)"/><path fill="#fff" stroke="#363636" stroke-width=".849" d="M254.396 499.19c0 .553.388 1.053 1.016 1.416v5.66c-.628-.362-1.016-.862-1.016-1.415v-5.661ZM260.314 503.437c1.354.781 3.549.781 4.903 0v5.66c-1.354.782-3.549.782-4.903 0v-5.66ZM271.133 499.19c0 .553-.388 1.053-1.016 1.416v5.66c.628-.362 1.016-.862 1.016-1.415v-5.661ZM280.137 483.622c1.353-.781 3.548-.781 4.902 0l4.902 2.831c1.354.781 1.354 2.048 0 2.83l-4.902 2.83c-1.354.782-3.549.782-4.902 0l-4.903-2.83c-1.353-.782-1.353-2.049 0-2.83l4.903-2.831Z"/><path fill="#fff" stroke="#363636" stroke-width=".849" d="M0 0h5.661v5.661H0z" transform="matrix(.86603 .5 0 1 275.238 489.282)"/><path fill="#fff" stroke="#363636" stroke-width=".849" d="M0 0h5.661v5.661H0z" transform="matrix(.86603 -.5 0 1 285.041 492.114)"/><path fill="#fff" stroke="#363636" stroke-width=".849" d="M274.215 487.868c0 .553.388 1.053 1.015 1.415v5.661c-.627-.362-1.015-.862-1.015-1.415v-5.661ZM280.135 492.114c1.354.782 3.548.782 4.902 0v5.661c-1.354.782-3.548.782-4.902 0v-5.661ZM290.953 487.868c0 .553-.388 1.053-1.015 1.415v5.661c.627-.362 1.015-.862 1.015-1.415v-5.661ZM299.947 472.299c1.354-.782 3.549-.782 4.903 0l4.902 2.83c1.354.782 1.354 2.049 0 2.831l-4.902 2.83c-1.354.782-3.549.782-4.903 0l-4.902-2.83c-1.354-.782-1.354-2.049 0-2.831l4.902-2.83Z"/><path fill="#fff" stroke="#363636" stroke-width=".849" d="M0 0h5.661v5.661H0z" transform="matrix(.86603 .5 0 1 295.051 477.96)"/><path fill="#fff" stroke="#363636" stroke-width=".849" d="M0 0h5.661v5.661H0z" transform="matrix(.86603 -.5 0 1 304.855 480.79)"/><path fill="#fff" stroke="#363636" stroke-width=".849" d="M294.027 476.544c0 .553.388 1.053 1.016 1.415v5.661c-.628-.362-1.016-.863-1.016-1.415v-5.661ZM299.949 480.79c1.354.782 3.549.782 4.903 0v5.661c-1.354.781-3.549.781-4.903 0v-5.661ZM310.767 476.544c0 .553-.388 1.053-1.015 1.415v5.661c.627-.362 1.015-.863 1.015-1.415v-5.661ZM319.754 460.981c1.354-.782 3.549-.782 4.902 0l4.903 2.83c1.353.782 1.353 2.049 0 2.83l-4.903 2.831c-1.353.781-3.548.781-4.902 0l-4.903-2.831c-1.353-.781-1.353-2.048 0-2.83l4.903-2.83Z"/><path fill="#fff" stroke="#363636" stroke-width=".849" d="M0 0h5.661v5.661H0z" transform="matrix(.86603 .5 0 1 314.854 466.642)"/><path fill="#fff" stroke="#363636" stroke-width=".849" d="M0 0h5.661v5.661H0z" transform="matrix(.86603 -.5 0 1 324.66 469.473)"/><path fill="#fff" stroke="#363636" stroke-width=".849" d="M313.836 465.226c0 .552.388 1.053 1.015 1.415v5.661c-.627-.363-1.015-.863-1.015-1.416v-5.66ZM319.752 469.473c1.354.781 3.549.781 4.902 0v5.66c-1.353.782-3.548.782-4.902 0v-5.66ZM330.572 465.226c0 .552-.388 1.053-1.015 1.415v5.661c.627-.363 1.015-.863 1.015-1.416v-5.66ZM339.564 449.658c1.354-.781 3.549-.781 4.903 0l4.902 2.831c1.354.781 1.354 2.049 0 2.83l-4.902 2.831c-1.354.781-3.549.781-4.903 0l-4.902-2.831c-1.354-.781-1.354-2.049 0-2.83l4.902-2.831Z"/><path fill="#fff" stroke="#363636" stroke-width=".849" d="M0 0h5.661v5.661H0z" transform="matrix(.86603 .5 0 1 334.666 455.318)"/><path fill="#fff" stroke="#363636" stroke-width=".849" d="M0 0h5.661v5.661H0z" transform="matrix(.86603 -.5 0 1 344.473 458.148)"/><path fill="#fff" stroke="#363636" stroke-width=".849" d="M333.648 453.903c0 .553.388 1.053 1.016 1.416v5.66c-.628-.362-1.016-.862-1.016-1.415v-5.661ZM339.562 458.148c1.354.782 3.549.782 4.903 0v5.661c-1.354.782-3.549.782-4.903 0v-5.661ZM350.384 453.903c0 .553-.388 1.053-1.015 1.416v5.66c.627-.362 1.015-.862 1.015-1.415v-5.661ZM359.379 438.335c1.354-.781 3.549-.781 4.902 0l4.903 2.831c1.353.781 1.353 2.048 0 2.83l-4.903 2.83c-1.353.782-3.548.782-4.902 0l-4.903-2.83c-1.353-.782-1.353-2.049 0-2.83l4.903-2.831Z"/><path fill="#fff" stroke="#363636" stroke-width=".849" d="M0 0h5.661v5.661H0z" transform="matrix(.86603 .5 0 1 354.48 443.996)"/><path fill="#fff" stroke="#363636" stroke-width=".849" d="M0 0h5.661v5.661H0z" transform="matrix(.86603 -.5 0 1 364.287 446.827)"/><path fill="#fff" stroke="#363636" stroke-width=".849" d="M353.463 442.581c0 .553.388 1.053 1.015 1.415v5.661c-.627-.362-1.015-.862-1.015-1.415v-5.661ZM359.377 446.827c1.354.782 3.549.782 4.902 0v5.661c-1.353.782-3.548.782-4.902 0v-5.661ZM370.199 442.581c0 .553-.388 1.053-1.015 1.415v5.661c.627-.362 1.015-.862 1.015-1.415v-5.661ZM379.195 427.011c1.354-.782 3.549-.782 4.903 0l4.902 2.83c1.354.782 1.354 2.049 0 2.831l-4.902 2.83c-1.354.782-3.549.782-4.903 0l-4.902-2.83c-1.354-.782-1.354-2.049 0-2.831l4.902-2.83Z"/><path fill="#fff" stroke="#363636" stroke-width=".849" d="M0 0h5.661v5.661H0z" transform="matrix(.86603 .5 0 1 374.295 432.672)"/><path fill="#fff" stroke="#363636" stroke-width=".849" d="M0 0h5.661v5.661H0z" transform="matrix(.86603 -.5 0 1 384.1 435.502)"/><path fill="#fff" stroke="#363636" stroke-width=".849" d="M373.275 431.256c0 .553.388 1.053 1.016 1.415v5.661c-.628-.362-1.016-.863-1.016-1.415v-5.661ZM379.191 435.502c1.354.782 3.549.782 4.903 0v5.661c-1.354.781-3.549.781-4.903 0v-5.661ZM390.013 431.256c0 .553-.388 1.053-1.015 1.415v5.661c.627-.362 1.015-.863 1.015-1.415v-5.661Z"/><path fill="url(#T)" stroke="#363636" stroke-width=".849" d="M399.01 415.694c1.354-.781 3.548-.781 4.902 0l4.903 2.831c1.353.781 1.353 2.049 0 2.83l-4.903 2.831c-1.354.781-3.548.781-4.902 0l-4.903-2.831c-1.353-.781-1.353-2.049 0-2.83l4.903-2.831Z"/><path fill="#fff" stroke="#363636" stroke-width=".849" d="M0 0h5.661v5.661H0z" transform="matrix(.86603 .5 0 1 394.109 421.354)"/><path fill="#fff" stroke="#363636" stroke-width=".849" d="M0 0h5.661v5.661H0z" transform="matrix(.86603 -.5 0 1 403.914 424.187)"/><path fill="#fff" stroke="#363636" stroke-width=".849" d="M393.09 419.94c0 .553.388 1.053 1.015 1.416v5.66c-.627-.362-1.015-.862-1.015-1.415v-5.661ZM399.006 424.187c1.354.781 3.548.781 4.902 0v5.66c-1.354.782-3.548.782-4.902 0v-5.66ZM409.828 419.94c0 .553-.388 1.053-1.016 1.416v5.66c.628-.362 1.016-.862 1.016-1.415v-5.661ZM240.498 528.903c1.354-.782 3.549-.782 4.902 0l4.903 2.83c1.354.781 1.354 2.049 0 2.83l-4.903 2.831c-1.353.781-3.548.781-4.902 0l-4.902-2.831c-1.354-.781-1.354-2.049 0-2.83l4.902-2.83Z"/><path fill="#fff" stroke="#363636" stroke-width=".849" d="M0 0h5.661v5.661H0z" transform="matrix(.86603 .5 0 1 235.602 534.563)"/><path fill="#fff" stroke="#363636" stroke-width=".849" d="M0 0h5.661v5.661H0z" transform="matrix(.86603 -.5 0 1 245.404 537.395)"/><path fill="#fff" stroke="#363636" stroke-width=".849" d="M234.578 533.149c0 .553.388 1.053 1.015 1.415v5.661c-.627-.362-1.015-.863-1.015-1.415v-5.661ZM240.498 537.395c1.354.781 3.549.781 4.902 0v5.66c-1.353.782-3.548.782-4.902 0v-5.66ZM251.316 533.149c0 .553-.388 1.053-1.015 1.415v5.661c.627-.362 1.015-.863 1.015-1.415v-5.661ZM260.311 517.58c1.353-.781 3.548-.781 4.902 0l4.902 2.831c1.354.781 1.354 2.048 0 2.83l-4.902 2.83c-1.354.782-3.549.782-4.902 0l-4.903-2.83c-1.354-.782-1.354-2.049 0-2.83l4.903-2.831Z"/><path fill="#fff" stroke="#363636" stroke-width=".849" d="M0 0h5.661v5.661H0z" transform="matrix(.86603 .5 0 1 255.414 523.24)"/><path fill="#fff" stroke="#363636" stroke-width=".849" d="M0 0h5.661v5.661H0z" transform="matrix(.86603 -.5 0 1 265.217 526.07)"/><path fill="#fff" stroke="#363636" stroke-width=".849" d="M254.393 521.825c0 .553.388 1.053 1.015 1.415v5.661c-.627-.362-1.015-.862-1.015-1.415v-5.661ZM260.311 526.07c1.353.782 3.548.782 4.902 0v5.661c-1.354.782-3.549.782-4.902 0v-5.661ZM271.129 521.825c0 .553-.388 1.053-1.016 1.415v5.661c.628-.362 1.016-.862 1.016-1.415v-5.661ZM280.127 506.263c1.354-.782 3.549-.782 4.902 0l4.903 2.83c1.353.782 1.353 2.049 0 2.831l-4.903 2.83c-1.353.782-3.548.782-4.902 0l-4.902-2.83c-1.354-.782-1.354-2.049 0-2.831l4.902-2.83Z"/><path fill="#fff" stroke="#363636" stroke-width=".849" d="M0 0h5.661v5.661H0z" transform="matrix(.86603 .5 0 1 275.23 511.924)"/><path fill="#fff" stroke="#363636" stroke-width=".849" d="M0 0h5.661v5.661H0z" transform="matrix(.86603 -.5 0 1 285.033 514.754)"/><path fill="#fff" stroke="#363636" stroke-width=".849" d="M274.209 510.508c0 .552.388 1.053 1.015 1.415v5.661c-.627-.362-1.015-.863-1.015-1.415v-5.661ZM280.127 514.754c1.354.781 3.549.781 4.902 0v5.661c-1.353.781-3.548.781-4.902 0v-5.661ZM290.945 510.508c0 .552-.388 1.053-1.015 1.415v5.661c.627-.362 1.015-.863 1.015-1.415v-5.661ZM299.943 494.939c1.354-.782 3.549-.782 4.903 0l4.902 2.83c1.354.782 1.354 2.049 0 2.83l-4.902 2.831c-1.354.781-3.549.781-4.903 0l-4.902-2.831c-1.354-.781-1.354-2.048 0-2.83l4.902-2.83Z"/><path fill="#fff" stroke="#363636" stroke-width=".849" d="M0 0h5.661v5.661H0z" transform="matrix(.86603 .5 0 1 295.043 500.6)"/><path fill="#fff" stroke="#363636" stroke-width=".849" d="M0 0h5.661v5.661H0z" transform="matrix(.86603 -.5 0 1 304.848 503.43)"/><path fill="#fff" stroke="#363636" stroke-width=".849" d="M294.023 499.184c0 .552.388 1.053 1.016 1.415v5.661c-.628-.363-1.016-.863-1.016-1.416v-5.66ZM299.941 503.43c1.354.781 3.549.781 4.903 0v5.66c-1.354.782-3.549.782-4.903 0v-5.66ZM310.759 499.184c0 .552-.388 1.053-1.015 1.415v5.661c.627-.363 1.015-.863 1.015-1.416v-5.66ZM319.75 483.616c1.354-.781 3.549-.781 4.902 0l4.903 2.831c1.354.781 1.354 2.049 0 2.83l-4.903 2.831c-1.353.781-3.548.781-4.902 0l-4.902-2.831c-1.354-.781-1.354-2.049 0-2.83l4.902-2.831Z"/><path fill="#fff" stroke="#363636" stroke-width=".849" d="M0 0h5.661v5.661H0z" transform="matrix(.86603 .5 0 1 314.85 489.275)"/><path fill="#fff" stroke="#363636" stroke-width=".849" d="M0 0h5.661v5.661H0z" transform="matrix(.86603 -.5 0 1 324.654 492.106)"/><path fill="#fff" stroke="#363636" stroke-width=".849" d="M313.83 487.861c0 .553.388 1.053 1.015 1.416v5.66c-.627-.362-1.015-.862-1.015-1.415v-5.661ZM319.746 492.106c1.354.782 3.549.782 4.902 0v5.661c-1.353.782-3.548.782-4.902 0v-5.661ZM330.57 487.861c0 .553-.388 1.053-1.015 1.416v5.66c.627-.362 1.015-.862 1.015-1.415v-5.661Z"/><path fill="url(#U)" stroke="#363636" stroke-width=".849" d="M339.561 472.292c1.353-.781 3.548-.781 4.902 0l4.902 2.831c1.354.781 1.354 2.048 0 2.83l-4.902 2.83c-1.354.782-3.549.782-4.902 0l-4.903-2.83c-1.354-.782-1.354-2.049 0-2.83l4.903-2.831Z"/><path fill="#fff" stroke="#363636" stroke-width=".849" d="M0 0h5.661v5.661H0z" transform="matrix(.86603 .5 0 1 334.658 477.952)"/><path fill="#fff" stroke="#363636" stroke-width=".849" d="M0 0h5.661v5.661H0z" transform="matrix(.86603 -.5 0 1 344.465 480.784)"/><path fill="#fff" stroke="#363636" stroke-width=".849" d="M333.641 476.538c0 .553.388 1.053 1.015 1.415v5.661c-.627-.362-1.015-.862-1.015-1.415v-5.661ZM339.557 480.784c1.353.782 3.548.782 4.902 0v5.661c-1.354.782-3.549.782-4.902 0v-5.661ZM350.377 476.538c0 .553-.388 1.053-1.016 1.415v5.661c.628-.362 1.016-.862 1.016-1.415v-5.661ZM359.375 460.975c1.354-.782 3.549-.782 4.902 0l4.903 2.83c1.354.782 1.354 2.049 0 2.831l-4.903 2.83c-1.353.782-3.548.782-4.902 0l-4.902-2.83c-1.354-.782-1.354-2.049 0-2.831l4.902-2.83Z"/><path fill="#fff" stroke="#363636" stroke-width=".849" d="M0 0h5.661v5.661H0z" transform="matrix(.86603 .5 0 1 354.473 466.636)"/><path fill="#fff" stroke="#363636" stroke-width=".849" d="M0 0h5.661v5.661H0z" transform="matrix(.86603 -.5 0 1 364.279 469.467)"/><path fill="#fff" stroke="#363636" stroke-width=".849" d="M353.455 465.221c0 .552.388 1.053 1.015 1.415v5.661c-.627-.362-1.015-.863-1.015-1.416v-5.66ZM359.371 469.467c1.354.781 3.549.781 4.902 0v5.661c-1.353.781-3.548.781-4.902 0v-5.661ZM370.193 465.221c0 .552-.388 1.053-1.015 1.415v5.661c.627-.362 1.015-.863 1.015-1.416v-5.66ZM379.191 449.653c1.354-.782 3.549-.782 4.903 0l4.902 2.83c1.354.781 1.354 2.049 0 2.83l-4.902 2.831c-1.354.781-3.549.781-4.903 0l-4.902-2.831c-1.354-.781-1.354-2.049 0-2.83l4.902-2.83Z"/><path fill="#fff" stroke="#363636" stroke-width=".849" d="M0 0h5.661v5.661H0z" transform="matrix(.86603 .5 0 1 374.291 455.312)"/><path fill="#fff" stroke="#363636" stroke-width=".849" d="M0 0h5.661v5.661H0z" transform="matrix(.86603 -.5 0 1 384.094 458.145)"/><path fill="#fff" stroke="#363636" stroke-width=".849" d="M373.271 453.898c0 .553.388 1.053 1.016 1.416v5.66c-.628-.362-1.016-.862-1.016-1.415v-5.661ZM379.188 458.145c1.353.781 3.548.781 4.902 0v5.66c-1.354.782-3.549.782-4.902 0v-5.66ZM390.009 453.898c0 .553-.388 1.053-1.015 1.416v5.66c.627-.362 1.015-.862 1.015-1.415v-5.661ZM399.006 438.329c1.354-.781 3.548-.781 4.902 0l4.903 2.831c1.353.781 1.353 2.048 0 2.83l-4.903 2.83c-1.354.782-3.548.782-4.902 0l-4.903-2.83c-1.353-.782-1.353-2.049 0-2.83l4.903-2.831Z"/><path fill="#fff" stroke="#363636" stroke-width=".849" d="M0 0h5.661v5.661H0z" transform="matrix(.86603 .5 0 1 394.107 443.99)"/><path fill="#fff" stroke="#363636" stroke-width=".849" d="M0 0h5.661v5.661H0z" transform="matrix(.86603 -.5 0 1 403.91 446.82)"/><path fill="#fff" stroke="#363636" stroke-width=".849" d="M393.088 442.574c0 .553.388 1.053 1.015 1.415v5.661c-.627-.362-1.015-.862-1.015-1.415v-5.661ZM399.004 446.82c1.354.782 3.549.782 4.902 0v5.661c-1.353.782-3.548.782-4.902 0v-5.661ZM409.824 442.574c0 .553-.388 1.053-1.015 1.415v5.661c.627-.362 1.015-.862 1.015-1.415v-5.661ZM418.818 427.005c1.354-.782 3.549-.782 4.903 0l4.902 2.83c1.354.782 1.354 2.049 0 2.831l-4.902 2.83c-1.354.782-3.549.782-4.903 0l-4.902-2.83c-1.354-.782-1.354-2.049 0-2.831l4.902-2.83Z"/><path fill="#fff" stroke="#363636" stroke-width=".849" d="M0 0h5.661v5.661H0z" transform="matrix(.86603 .5 0 1 413.916 432.666)"/><path fill="#fff" stroke="#363636" stroke-width=".849" d="M0 0h5.661v5.661H0z" transform="matrix(.86603 -.5 0 1 423.721 435.496)"/><path fill="#fff" stroke="#363636" stroke-width=".849" d="M412.896 431.251c0 .553.388 1.053 1.016 1.415v5.661c-.628-.362-1.016-.863-1.016-1.415v-5.661ZM418.814 435.496c1.354.782 3.549.782 4.903 0v5.661c-1.354.781-3.549.781-4.903 0v-5.661ZM429.633 431.251c0 .553-.388 1.053-1.016 1.415v5.661c.628-.362 1.016-.863 1.016-1.415v-5.661ZM260.311 540.229c1.353-.781 3.548-.781 4.902 0l4.902 2.831c1.354.781 1.354 2.048 0 2.83l-4.902 2.83c-1.354.782-3.549.782-4.902 0l-4.903-2.83c-1.354-.782-1.354-2.049 0-2.83l4.903-2.831Z"/><path fill="#fff" stroke="#363636" stroke-width=".849" d="M0 0h5.661v5.661H0z" transform="matrix(.86603 .5 0 1 255.414 545.89)"/><path fill="#fff" stroke="#363636" stroke-width=".849" d="M0 0h5.661v5.661H0z" transform="matrix(.86603 -.5 0 1 265.217 548.72)"/><path fill="#fff" stroke="#363636" stroke-width=".849" d="M254.393 544.474c0 .553.388 1.053 1.015 1.415v5.661c-.627-.362-1.015-.862-1.015-1.415v-5.661ZM260.311 548.72c1.353.781 3.548.781 4.902 0v5.661c-1.354.781-3.549.781-4.902 0v-5.661ZM271.129 544.474c0 .553-.388 1.053-1.016 1.415v5.661c.628-.362 1.016-.862 1.016-1.415v-5.661Z"/><path fill="url(#V)" stroke="#363636" stroke-width=".849" d="M280.127 528.906c1.354-.781 3.549-.781 4.902 0l4.903 2.831c1.353.781 1.353 2.049 0 2.83l-4.903 2.831c-1.353.781-3.548.781-4.902 0l-4.902-2.831c-1.354-.781-1.354-2.049 0-2.83l4.902-2.831Z"/><path fill="#fff" stroke="#363636" stroke-width=".849" d="M0 0h5.661v5.661H0z" transform="matrix(.86603 .5 0 1 275.23 534.566)"/><path fill="#fff" stroke="#363636" stroke-width=".849" d="M0 0h5.661v5.661H0z" transform="matrix(.86603 -.5 0 1 285.033 537.397)"/><path fill="#fff" stroke="#363636" stroke-width=".849" d="M274.209 533.151c0 .553.388 1.053 1.015 1.416v5.66c-.627-.362-1.015-.862-1.015-1.415v-5.661ZM280.127 537.397c1.354.782 3.549.782 4.902 0v5.661c-1.353.781-3.548.781-4.902 0v-5.661ZM290.945 533.151c0 .553-.388 1.053-1.015 1.416v5.66c.627-.362 1.015-.862 1.015-1.415v-5.661ZM299.943 517.582c1.354-.781 3.549-.781 4.903 0l4.902 2.831c1.354.781 1.354 2.048 0 2.83l-4.902 2.83c-1.354.782-3.549.782-4.903 0l-4.902-2.83c-1.354-.782-1.354-2.049 0-2.83l4.902-2.831Z"/><path fill="#fff" stroke="#363636" stroke-width=".849" d="M0 0h5.661v5.661H0z" transform="matrix(.86603 .5 0 1 295.043 523.243)"/><path fill="#fff" stroke="#363636" stroke-width=".849" d="M0 0h5.661v5.661H0z" transform="matrix(.86603 -.5 0 1 304.848 526.074)"/><path fill="#fff" stroke="#363636" stroke-width=".849" d="M294.023 521.828c0 .553.388 1.053 1.016 1.415v5.661c-.628-.362-1.016-.862-1.016-1.415v-5.661ZM299.941 526.074c1.354.782 3.549.782 4.903 0v5.661c-1.354.782-3.549.782-4.903 0v-5.661ZM310.759 521.828c0 .553-.388 1.053-1.015 1.415v5.661c.627-.362 1.015-.862 1.015-1.415v-5.661ZM399.006 460.979c1.354-.782 3.548-.782 4.902 0l4.903 2.83c1.353.782 1.353 2.049 0 2.83l-4.903 2.831c-1.354.781-3.548.781-4.902 0l-4.903-2.831c-1.353-.781-1.353-2.048 0-2.83l4.903-2.83Z"/><path fill="#fff" stroke="#363636" stroke-width=".849" d="M0 0h5.661v5.661H0z" transform="matrix(.86603 .5 0 1 394.107 466.639)"/><path fill="#fff" stroke="#363636" stroke-width=".849" d="M0 0h5.661v5.661H0z" transform="matrix(.86603 -.5 0 1 403.91 469.47)"/><path fill="#fff" stroke="#363636" stroke-width=".849" d="M393.088 465.224c0 .552.388 1.053 1.015 1.415v5.661c-.627-.363-1.015-.863-1.015-1.416v-5.66ZM399.004 469.47c1.354.781 3.549.781 4.902 0v5.661c-1.353.781-3.548.781-4.902 0v-5.661ZM409.824 465.224c0 .552-.388 1.053-1.015 1.415v5.661c.627-.363 1.015-.863 1.015-1.416v-5.66ZM379.193 472.294c1.354-.781 3.549-.781 4.903 0l4.902 2.831c1.354.781 1.354 2.048 0 2.83l-62.023 35.809c-1.353.781-3.548.781-4.902 0l-4.902-2.831c-1.354-.781-1.354-2.049 0-2.83l62.022-35.809Z"/><path fill="#fff" stroke="#363636" stroke-width=".849" d="M0 0h72.098v5.661H0z" transform="matrix(.86603 -.5 0 1 326.551 514.009)"/><path fill="#fff" stroke="#363636" stroke-width=".849" d="M0 0h5.661v5.661H0z" transform="matrix(.86603 .5 0 1 316.234 511.354)"/><path fill="#fff" stroke="#363636" stroke-width=".849" d="M315.227 509.938c0 .553.388 1.053 1.015 1.416v5.66c-.627-.362-1.015-.862-1.015-1.415v-5.661ZM321.141 514.184c1.353.781 3.548.781 4.902 0v5.66c-1.354.782-3.549.782-4.902 0v-5.66ZM390.011 476.54c0 .553-.388 1.053-1.015 1.415v5.661c.627-.362 1.015-.863 1.015-1.415v-5.661ZM418.818 449.654c1.354-.781 3.549-.781 4.903 0l4.902 2.831c1.354.781 1.354 2.049 0 2.83l-4.902 2.831c-1.354.781-3.549.781-4.903 0l-4.902-2.831c-1.354-.781-1.354-2.049 0-2.83l4.902-2.831Z"/><path fill="#fff" stroke="#363636" stroke-width=".849" d="M0 0h5.661v5.661H0z" transform="matrix(.86603 .5 0 1 413.916 455.315)"/><path fill="#fff" stroke="#363636" stroke-width=".849" d="M0 0h5.661v5.661H0z" transform="matrix(.86603 -.5 0 1 423.721 458.146)"/><path fill="#fff" stroke="#363636" stroke-width=".849" d="M412.896 453.9c0 .553.388 1.053 1.016 1.416v5.66c-.628-.362-1.016-.862-1.016-1.415V453.9ZM418.814 458.146c1.354.782 3.549.782 4.903 0v5.661c-1.354.782-3.549.782-4.903 0v-5.661ZM429.633 453.9c0 .553-.388 1.053-1.016 1.416v5.66c.628-.362 1.016-.862 1.016-1.415V453.9ZM438.631 438.331c1.354-.781 3.548-.781 4.902 0l4.903 2.831c1.353.781 1.353 2.048 0 2.83l-4.903 2.83c-1.354.782-3.548.782-4.902 0l-4.903-2.83c-1.353-.782-1.353-2.049 0-2.83l4.903-2.831Z"/><path fill="#fff" stroke="#363636" stroke-width=".849" d="M0 0h5.661v5.661H0z" transform="matrix(.86603 .5 0 1 433.734 443.992)"/><path fill="#fff" stroke="#363636" stroke-width=".849" d="M0 0h5.661v5.661H0z" transform="matrix(.86603 -.5 0 1 443.537 446.823)"/><path fill="#fff" stroke="#363636" stroke-width=".849" d="M432.711 442.578c0 .553.388 1.053 1.015 1.415v5.661c-.627-.362-1.015-.862-1.015-1.415v-5.661ZM438.631 446.823c1.354.782 3.548.782 4.902 0v5.661c-1.354.782-3.548.782-4.902 0v-5.661ZM449.449 442.578c0 .553-.388 1.053-1.015 1.415v5.661c.627-.362 1.015-.862 1.015-1.415v-5.661Z"/><path fill="url(#W)" stroke="#363636" stroke-width="2.83" d="M107.852 292.57c0-12.506 8.779-27.712 19.609-33.965l193.644-111.8c10.831-6.253 19.61-1.184 19.61 11.321v181.145c0 12.506-8.779 27.712-19.61 33.965L127.461 485.037c-10.83 6.253-19.609 1.184-19.609-11.322V292.57Z"/><path fill="#fff" stroke="#363636" stroke-width="2.83" d="M0 0h5.661v181.145H0z" transform="matrix(.86603 .5 0 1 102.953 289.739)"/><path fill="#fff" stroke="#363636" stroke-width="2.83" d="M0 0h223.601v5.661H0z" transform="matrix(.86603 -.5 .86603 .5 122.568 255.774)"/><path fill="#fff" stroke="#363636" stroke-width="2.83" d="M107.856 473.716c0 5.795 1.914 10.485 5.743 12.695l-4.902-2.83c-3.829-2.211-5.744-6.9-5.744-12.695l4.903 2.83ZM107.856 292.57c0-12.506 8.779-27.712 19.609-33.965l-4.902-2.831c-10.83 6.253-19.61 21.46-19.61 33.965l4.903 2.831ZM334.974 145.435c-3.829-2.21-8.848-1.524-13.867 1.374l-4.902-2.831c5.019-2.897 10.037-3.584 13.866-1.373l4.903 2.83Z"/><rect width="253.615" height="207.973" x=".722" y=".417" stroke="#363636" stroke-width="1.668" rx="20.854" transform="matrix(.86603 -.5 0 1 113.864 276.238)"/><defs><linearGradient id="b" x1="46.678" x2="50.644" y1="10.448" y2="-11.819" gradientUnits="userSpaceOnUse"><stop stop-color="#008897"/><stop offset=".524" stop-color="#00998B"/><stop offset="1" stop-color="#00A880"/></linearGradient><linearGradient id="c" x1="30.953" x2="36.708" y1="10.448" y2="-10.979" gradientUnits="userSpaceOnUse"><stop stop-color="#008897"/><stop offset=".524" stop-color="#00998B"/><stop offset="1" stop-color="#00A880"/></linearGradient><linearGradient id="d" x1="30.953" x2="36.708" y1="10.448" y2="-10.979" gradientUnits="userSpaceOnUse"><stop stop-color="#008897"/><stop offset=".524" stop-color="#00998B"/><stop offset="1" stop-color="#00A880"/></linearGradient><linearGradient id="e" x1="34.76" x2="39.957" y1="10.448" y2="-11.282" gradientUnits="userSpaceOnUse"><stop stop-color="#008897"/><stop offset=".524" stop-color="#00998B"/><stop offset="1" stop-color="#00A880"/></linearGradient><linearGradient id="f" x1="41.381" x2="45.817" y1="10.448" y2="-11.634" gradientUnits="userSpaceOnUse"><stop stop-color="#008897"/><stop offset=".524" stop-color="#00998B"/><stop offset="1" stop-color="#00A880"/></linearGradient><linearGradient id="g" x1="41.381" x2="45.817" y1="10.448" y2="-11.634" gradientUnits="userSpaceOnUse"><stop stop-color="#008897"/><stop offset=".524" stop-color="#00998B"/><stop offset="1" stop-color="#00A880"/></linearGradient><linearGradient id="h" x1="41.381" x2="45.817" y1="10.448" y2="-11.634" gradientUnits="userSpaceOnUse"><stop stop-color="#008897"/><stop offset=".524" stop-color="#00998B"/><stop offset="1" stop-color="#00A880"/></linearGradient><linearGradient id="i" x1="36.084" x2="40.098" y1="9.287" y2="-10.311" gradientUnits="userSpaceOnUse"><stop stop-color="#008897"/><stop offset=".524" stop-color="#00998B"/><stop offset="1" stop-color="#00A880"/></linearGradient><linearGradient id="j" x1="28.801" x2="34.307" y1="9.868" y2="-10.328" gradientUnits="userSpaceOnUse"><stop stop-color="#008897"/><stop offset=".524" stop-color="#00998B"/><stop offset="1" stop-color="#00A880"/></linearGradient><linearGradient id="k" x1="25.822" x2="31.86" y1="9.868" y2="-9.993" gradientUnits="userSpaceOnUse"><stop stop-color="#008897"/><stop offset=".524" stop-color="#00998B"/><stop offset="1" stop-color="#00A880"/></linearGradient><linearGradient id="l" x1="36.084" x2="40.098" y1="9.287" y2="-10.311" gradientUnits="userSpaceOnUse"><stop stop-color="#008897"/><stop offset=".524" stop-color="#00998B"/><stop offset="1" stop-color="#00A880"/></linearGradient><linearGradient id="m" x1="25.822" x2="31.86" y1="9.868" y2="-9.993" gradientUnits="userSpaceOnUse"><stop stop-color="#008897"/><stop offset=".524" stop-color="#00998B"/><stop offset="1" stop-color="#00A880"/></linearGradient><linearGradient id="n" x1="7.449" x2="18.866" y1="10.448" y2=".218" gradientUnits="userSpaceOnUse"><stop stop-color="#008897"/><stop offset=".524" stop-color="#00998B"/><stop offset="1" stop-color="#00A880"/></linearGradient><linearGradient id="o" x1="14.07" x2="24.131" y1="10.448" y2="-6.58" gradientUnits="userSpaceOnUse"><stop stop-color="#008897"/><stop offset=".524" stop-color="#00998B"/><stop offset="1" stop-color="#00A880"/></linearGradient><linearGradient id="p" x1="19.035" x2="27.461" y1="10.448" y2="-8.845" gradientUnits="userSpaceOnUse"><stop stop-color="#008897"/><stop offset=".524" stop-color="#00998B"/><stop offset="1" stop-color="#00A880"/></linearGradient><linearGradient id="q" x1="24.663" x2="31.616" y1="10.448" y2="-10.181" gradientUnits="userSpaceOnUse"><stop stop-color="#008897"/><stop offset=".524" stop-color="#00998B"/><stop offset="1" stop-color="#00A880"/></linearGradient><linearGradient id="r" x1="236.992" x2="250.541" y1="105.223" y2="94.943" gradientUnits="userSpaceOnUse"><stop stop-color="#008897"/><stop offset=".524" stop-color="#00998B"/><stop offset="1" stop-color="#00A880"/></linearGradient><linearGradient id="s" x1="266.106" x2="272.088" y1="113.394" y2="99.777" gradientUnits="userSpaceOnUse"><stop stop-color="#008897"/><stop offset=".524" stop-color="#00998B"/><stop offset="1" stop-color="#00A880"/></linearGradient><linearGradient id="t" x1="218.362" x2="231.91" y1="170.19" y2="159.91" gradientUnits="userSpaceOnUse"><stop stop-color="#008897"/><stop offset=".524" stop-color="#00998B"/><stop offset="1" stop-color="#00A880"/></linearGradient><linearGradient id="u" x1="200.558" x2="206.54" y1="151.202" y2="137.586" gradientUnits="userSpaceOnUse"><stop stop-color="#008897"/><stop offset=".524" stop-color="#00998B"/><stop offset="1" stop-color="#00A880"/></linearGradient><linearGradient id="v" x1="234.983" x2="248.531" y1="343.204" y2="332.925" gradientUnits="userSpaceOnUse"><stop stop-color="#008897"/><stop offset=".524" stop-color="#00998B"/><stop offset="1" stop-color="#00A880"/></linearGradient><linearGradient id="w" x1="264.095" x2="270.077" y1="351.374" y2="337.758" gradientUnits="userSpaceOnUse"><stop stop-color="#008897"/><stop offset=".524" stop-color="#00998B"/><stop offset="1" stop-color="#00A880"/></linearGradient><linearGradient id="x" x1="216.354" x2="229.902" y1="408.172" y2="397.892" gradientUnits="userSpaceOnUse"><stop stop-color="#008897"/><stop offset=".524" stop-color="#00998B"/><stop offset="1" stop-color="#00A880"/></linearGradient><linearGradient id="y" x1="198.546" x2="204.528" y1="389.185" y2="375.568" gradientUnits="userSpaceOnUse"><stop stop-color="#008897"/><stop offset=".524" stop-color="#00998B"/><stop offset="1" stop-color="#00A880"/></linearGradient><linearGradient id="z" x1="38.898" x2="43.593" y1="10.448" y2="-11.521" gradientUnits="userSpaceOnUse"><stop stop-color="#008897"/><stop offset=".524" stop-color="#00998B"/><stop offset="1" stop-color="#00A880"/></linearGradient><linearGradient id="A" x1="46.678" x2="50.644" y1="10.448" y2="-11.819" gradientUnits="userSpaceOnUse"><stop stop-color="#008897"/><stop offset=".524" stop-color="#00998B"/><stop offset="1" stop-color="#00A880"/></linearGradient><linearGradient id="B" x1="30.953" x2="36.708" y1="10.448" y2="-10.979" gradientUnits="userSpaceOnUse"><stop stop-color="#008897"/><stop offset=".524" stop-color="#00998B"/><stop offset="1" stop-color="#00A880"/></linearGradient><linearGradient id="C" x1="14.07" x2="24.131" y1="10.448" y2="-6.58" gradientUnits="userSpaceOnUse"><stop stop-color="#008897"/><stop offset=".524" stop-color="#00998B"/><stop offset="1" stop-color="#00A880"/></linearGradient><linearGradient id="D" x1="19.035" x2="27.461" y1="10.448" y2="-8.845" gradientUnits="userSpaceOnUse"><stop stop-color="#008897"/><stop offset=".524" stop-color="#00998B"/><stop offset="1" stop-color="#00A880"/></linearGradient><linearGradient id="E" x1="24.663" x2="31.616" y1="10.448" y2="-10.181" gradientUnits="userSpaceOnUse"><stop stop-color="#008897"/><stop offset=".524" stop-color="#00998B"/><stop offset="1" stop-color="#00A880"/></linearGradient><linearGradient id="F" x1="38.898" x2="43.593" y1="10.448" y2="-11.521" gradientUnits="userSpaceOnUse"><stop stop-color="#008897"/><stop offset=".524" stop-color="#00998B"/><stop offset="1" stop-color="#00A880"/></linearGradient><linearGradient id="G" x1="38.898" x2="43.593" y1="10.448" y2="-11.521" gradientUnits="userSpaceOnUse"><stop stop-color="#008897"/><stop offset=".524" stop-color="#00998B"/><stop offset="1" stop-color="#00A880"/></linearGradient><linearGradient id="H" x1="28.801" x2="34.307" y1="9.868" y2="-10.328" gradientUnits="userSpaceOnUse"><stop stop-color="#008897"/><stop offset=".524" stop-color="#00998B"/><stop offset="1" stop-color="#00A880"/></linearGradient><linearGradient id="I" x1="264.095" x2="270.077" y1="-14.04" y2="-27.656" gradientUnits="userSpaceOnUse"><stop stop-color="#008897"/><stop offset=".524" stop-color="#00998B"/><stop offset="1" stop-color="#00A880"/></linearGradient><linearGradient id="J" x1="216.354" x2="229.902" y1="42.756" y2="32.476" gradientUnits="userSpaceOnUse"><stop stop-color="#008897"/><stop offset=".524" stop-color="#00998B"/><stop offset="1" stop-color="#00A880"/></linearGradient><linearGradient id="K" x1="198.546" x2="204.528" y1="23.769" y2="10.152" gradientUnits="userSpaceOnUse"><stop stop-color="#008897"/><stop offset=".524" stop-color="#00998B"/><stop offset="1" stop-color="#00A880"/></linearGradient><linearGradient id="L" x1="236.992" x2="250.541" y1="469.064" y2="458.784" gradientUnits="userSpaceOnUse"><stop stop-color="#008897"/><stop offset=".524" stop-color="#00998B"/><stop offset="1" stop-color="#00A880"/></linearGradient><linearGradient id="M" x1="266.106" x2="272.088" y1="477.235" y2="463.618" gradientUnits="userSpaceOnUse"><stop stop-color="#008897"/><stop offset=".524" stop-color="#00998B"/><stop offset="1" stop-color="#00A880"/></linearGradient><linearGradient id="N" x1="218.362" x2="231.91" y1="534.03" y2="523.751" gradientUnits="userSpaceOnUse"><stop stop-color="#008897"/><stop offset=".524" stop-color="#00998B"/><stop offset="1" stop-color="#00A880"/></linearGradient><linearGradient id="O" x1="200.558" x2="206.54" y1="515.043" y2="501.427" gradientUnits="userSpaceOnUse"><stop stop-color="#008897"/><stop offset=".524" stop-color="#00998B"/><stop offset="1" stop-color="#00A880"/></linearGradient><linearGradient id="P" x1="270.354" x2="272.654" y1="411.575" y2="418.675" gradientUnits="userSpaceOnUse"><stop stop-color="#009877"/><stop offset="1" stop-color="#50D098"/></linearGradient><linearGradient id="Q" x1="193.485" x2="200.301" y1="489.478" y2="495.054" gradientUnits="userSpaceOnUse"><stop stop-color="#008897"/><stop offset=".524" stop-color="#00998B"/><stop offset="1" stop-color="#00A880"/></linearGradient><linearGradient id="R" x1="271.321" x2="283.907" y1="466.011" y2="472.614" gradientUnits="userSpaceOnUse"><stop stop-color="#FF7A7F"/><stop offset="1" stop-color="#FF577F"/></linearGradient><linearGradient id="S" x1="342.675" x2="342.014" y1="427.609" y2="435.435" gradientUnits="userSpaceOnUse"><stop stop-color="#5BC5B8"/><stop offset="1" stop-color="#BCEBE5"/></linearGradient><linearGradient id="T" x1="393.036" x2="405.622" y1="420.726" y2="427.329" gradientUnits="userSpaceOnUse"><stop stop-color="#FF7A7F"/><stop offset="1" stop-color="#FF577F"/></linearGradient><linearGradient id="U" x1="337.175" x2="342.077" y1="473.667" y2="482.159" gradientUnits="userSpaceOnUse"><stop stop-color="#005D84"/><stop offset="1" stop-color="#4A989D"/></linearGradient><linearGradient id="V" x1="278.844" x2="281.144" y1="530.455" y2="537.555" gradientUnits="userSpaceOnUse"><stop stop-color="#009877"/><stop offset="1" stop-color="#50D098"/></linearGradient><radialGradient id="W" cx="0" cy="0" r="1" gradientTransform="matrix(0 113.216 -116.432 0 224.283 315.921)" gradientUnits="userSpaceOnUse"><stop stop-color="#fff" stop-opacity="0"/><stop offset="1" stop-color="#fff"/></radialGradient><clipPath id="a"><path fill="#fff" d="M142.943 81.9 284.699.057v420.82L142.943 502.72z"/></clipPath></defs></svg>
