<svg xmlns="http://www.w3.org/2000/svg" fill="none" viewBox="0 0 1920 1394"><g clip-path="url(#a)"><g filter="url(#b)" opacity=".4"><path fill="#F2797F" fill-opacity=".6" d="m138.95 418.129 140.302 86.174 281.136-121.426-194.425 174.685 140.302 86.174-260.462 21.787L51.378 840.207l33.45-161.219-260.463 21.786 281.136-121.426 33.449-161.219Z"/></g><g filter="url(#c)" opacity=".4"><path fill="#F8C6DB" d="m924.132 548.559 154.728 140.133 448.38-46.905-352.75 133.512 154.73 140.133-372.736-57.618-352.745 133.511 122.38-169.122-372.739-57.618 448.373-46.905 122.379-169.121Z"/></g><g filter="url(#d)" opacity=".4"><path fill="#7F76B2" fill-opacity=".1" d="m839.711 674.33 29.354 198.258 327.055 156.442-308.914-33.913 29.353 198.253-220.27-219.215-308.911-33.917 172.776-101.567-220.271-219.219 327.052 156.446L839.711 674.33Z"/></g><g filter="url(#e)" opacity=".4"><path fill="#A2BDDB" fill-opacity=".7" d="m-64.216 773.423 169.866 72.591 306.444-179.765-201.461 224.628 169.866 72.591L86.123 1029.7l-201.462 224.63 19.528-183.69-294.376 66.24 306.444-179.766 19.527-183.691Z"/></g><g filter="url(#f)" opacity=".4"><path fill="#98E1CF" fill-opacity=".7" d="m1534.81 798.706 122.9 153.101 307.91-50.643-231.95 145.266 122.91 153.1-266.26-63.32-231.96 145.26 67.4-184.4-266.26-63.32 307.91-50.644 67.4-184.4Z"/></g><g filter="url(#g)" opacity=".4"><path fill="#A2BDDB" d="m1655.84 298.264 18.51 140.767 241.5 138.235-230.07-51.237 18.51 140.767-160.69-172.433-230.07-51.237 130.75-55.332-160.69-172.432 241.5 138.235 130.75-55.333Z"/></g></g><defs><filter id="b" width="1336.02" height="1057.33" x="-475.633" y="82.877" color-interpolation-filters="sRGB" filterUnits="userSpaceOnUse"><feFlood flood-opacity="0" result="BackgroundImageFix"/><feBlend in="SourceGraphic" in2="BackgroundImageFix" result="shape"/><feGaussianBlur result="effect1_foregroundBlur_1850_37727" stdDeviation="150"/></filter><filter id="c" width="1773.85" height="1042.77" x="53.383" y="248.559" color-interpolation-filters="sRGB" filterUnits="userSpaceOnUse"><feFlood flood-opacity="0" result="BackgroundImageFix"/><feBlend in="SourceGraphic" in2="BackgroundImageFix" result="shape"/><feGaussianBlur result="effect1_foregroundBlur_1850_37727" stdDeviation="150"/></filter><filter id="d" width="1456.23" height="1173.92" x="39.883" y="319.451" color-interpolation-filters="sRGB" filterUnits="userSpaceOnUse"><feFlood flood-opacity="0" result="BackgroundImageFix"/><feBlend in="SourceGraphic" in2="BackgroundImageFix" result="shape"/><feGaussianBlur result="effect1_foregroundBlur_1850_37727" stdDeviation="150"/></filter><filter id="e" width="1402.28" height="1188.08" x="-690.188" y="366.249" color-interpolation-filters="sRGB" filterUnits="userSpaceOnUse"><feFlood flood-opacity="0" result="BackgroundImageFix"/><feBlend in="SourceGraphic" in2="BackgroundImageFix" result="shape"/><feGaussianBlur result="effect1_foregroundBlur_1850_37727" stdDeviation="150"/></filter><filter id="f" width="1406.12" height="1082.77" x="859.5" y="498.706" color-interpolation-filters="sRGB" filterUnits="userSpaceOnUse"><feFlood flood-opacity="0" result="BackgroundImageFix"/><feBlend in="SourceGraphic" in2="BackgroundImageFix" result="shape"/><feGaussianBlur result="effect1_foregroundBlur_1850_37727" stdDeviation="150"/></filter><filter id="g" width="1232.26" height="1051.43" x="983.594" y="-84.639" color-interpolation-filters="sRGB" filterUnits="userSpaceOnUse"><feFlood flood-opacity="0" result="BackgroundImageFix"/><feBlend in="SourceGraphic" in2="BackgroundImageFix" result="shape"/><feGaussianBlur result="effect1_foregroundBlur_1850_37727" stdDeviation="150"/></filter><clipPath id="a"><path fill="#fff" d="M-320 0h2560v1394H-320z"/></clipPath></defs></svg>