<svg xmlns="http://www.w3.org/2000/svg" width="460" height="460" fill="none"><g fill="#fff" stroke="#363636" clip-path="url(#a)"><circle cx="11.044" cy="11.044" r="11.044" transform="matrix(.86603 -.5 0 1 261.594 77.044)"/><path d="M261.594 88.09c0 2.826.934 5.113 2.801 6.191l-1.594-.92c-1.867-1.078-2.801-3.366-2.801-6.192l1.594.92ZM261.594 88.089c0-6.1 4.282-13.516 9.564-16.566l-1.594-.92C264.282 73.653 260 81.069 260 87.169l1.594.92Z"/><path d="M277.923 70.855c-1.867-1.078-4.315-.743-6.763.67l-1.594-.92c2.448-1.413 4.896-1.748 6.763-.67l1.594.92Z"/><circle cx="11.044" cy="11.044" r="11.044" transform="matrix(.86603 -.5 0 1 261.594 126.176)"/><path d="M261.594 137.221c0 2.827.934 5.114 2.801 6.192l-1.594-.92c-1.867-1.079-2.801-3.366-2.801-6.192l1.594.92ZM261.594 137.221c0-6.1 4.282-13.517 9.564-16.566l-1.594-.921c-5.282 3.05-9.564 10.467-9.564 16.566l1.594.921Z"/><path d="M277.923 119.987c-1.867-1.078-4.315-.743-6.763.67l-1.594-.92c2.448-1.414 4.896-1.749 6.763-.67l1.594.92Z"/><circle cx="11.044" cy="11.044" r="11.044" transform="matrix(.86603 -.5 0 1 261.594 175.308)"/><path d="M261.594 186.353c0 2.826.934 5.114 2.801 6.192l-1.594-.92c-1.867-1.079-2.801-3.366-2.801-6.192l1.594.92ZM261.594 186.352c0-6.099 4.282-13.516 9.564-16.565l-1.594-.921c-5.282 3.05-9.564 10.467-9.564 16.566l1.594.92Z"/><path d="M277.923 169.119c-1.867-1.078-4.315-.743-6.763.67l-1.594-.921c2.448-1.413 4.896-1.748 6.763-.669l1.594.92Z"/><circle cx="11.044" cy="11.044" r="11.044" transform="matrix(.86603 -.5 0 1 261.594 224.439)"/><path d="M261.594 235.484c0-6.099 4.282-13.516 9.564-16.566l-1.594-.92c-5.282 3.05-9.564 10.467-9.564 16.566l1.594.92Z"/><path d="M277.923 218.251c-1.867-1.079-4.315-.744-6.763.67l-1.594-.921c2.448-1.413 4.896-1.748 6.763-.67l1.594.921Z"/></g><g clip-path="url(#b)"><path fill="#fff" stroke="#363636" d="M145.047 349.849c0-4.971 3.488-11.017 7.792-13.504l53.367-30.846c4.303-2.487 7.792-.474 7.792 4.496v4.774c0 4.97-3.489 11.016-7.792 13.503l-53.367 30.846c-4.304 2.487-7.792.474-7.792-4.496v-4.773Z"/><path fill="#fff" stroke="#363636" d="M0 0h2.275v2.277H0z" transform="matrix(.86578 .50042 0 1 143.08 349.962)"/><path fill="#fff" stroke="#363636" d="M0 0h59.161v2.275H0z" transform="scale(1.2244 .7077) rotate(-45 632.747 86.593)"/><path fill="#fff" stroke="#363636" d="M145.05 353.378c0 2.623.866 4.745 2.597 5.746l-1.97-1.139c-1.731-1.001-2.597-3.123-2.597-5.746l1.97 1.139ZM145.05 351.101c0-5.659 3.969-12.542 8.865-15.372l-1.97-1.138c-4.896 2.83-8.865 9.712-8.865 15.372l1.97 1.138ZM211.407 305.5c-1.731-1-4-.689-6.269.622l-1.97-1.139c2.269-1.311 4.538-1.622 6.269-.621l1.97 1.138Z"/><path fill="#363636" d="M156.619 342.663c-.035-.382-.183-.608-.444-.679-.261-.071-.615.023-1.063.282a3.379 3.379 0 0 0-.77.594c-.21.217-.371.444-.482.681-.11.236-.164.463-.164.682-.006.185.027.325.099.42a.501.501 0 0 0 .306.176c.129.022.278.02.447-.005.17-.028.35-.073.543-.135l.792-.239a4.442 4.442 0 0 1 1.058-.214c.322-.02.6.023.835.129.236.106.418.286.547.539.132.252.2.589.202 1.012a4.584 4.584 0 0 1-.413 1.859c-.27.61-.66 1.189-1.171 1.736a7.919 7.919 0 0 1-1.838 1.435c-.711.411-1.331.644-1.859.697-.525.052-.935-.084-1.231-.407-.293-.328-.446-.854-.461-1.578l1.804-1.043c.02.33.105.566.254.709.152.137.354.191.607.161.255-.035.544-.145.865-.331.316-.183.59-.394.822-.634.235-.243.418-.495.547-.759a1.73 1.73 0 0 0 .193-.763c0-.229-.058-.387-.176-.475-.115-.089-.284-.124-.508-.104a4.106 4.106 0 0 0-.813.172l-.96.276c-.744.221-1.33.234-1.761.038-.43-.195-.644-.67-.641-1.424-.003-.614.139-1.235.426-1.862a6.887 6.887 0 0 1 1.192-1.768 7.263 7.263 0 0 1 1.722-1.383c.654-.378 1.225-.579 1.713-.602.491-.025.872.114 1.145.417s.413.756.422 1.357l-1.786 1.033Zm3.126 8.31v-10.5l1.807-1.045v1.283l.082-.048a5.78 5.78 0 0 1 .349-.827c.155-.305.356-.601.602-.886.25-.29.56-.542.93-.756.482-.278.927-.39 1.335-.334.407.053.733.301.977.743.244.439.365 1.096.365 1.971a7.53 7.53 0 0 1-.357 2.364 6.334 6.334 0 0 1-.964 1.885c-.405.532-.858.944-1.36 1.234-.356.205-.659.312-.908.321-.247.007-.449-.047-.607-.161a1.205 1.205 0 0 1-.362-.423l-.056.033v4.086l-1.833 1.06Zm1.795-7.719c0 .454.054.818.163 1.093.109.275.267.448.474.517.206.066.457.014.753-.157a2.28 2.28 0 0 0 .757-.721 3.59 3.59 0 0 0 .47-1.067c.109-.404.163-.828.163-1.272 0-.441-.053-.798-.159-1.072-.106-.273-.263-.445-.469-.514-.207-.07-.461-.017-.762.157-.299.172-.551.41-.758.711-.203.3-.36.649-.469 1.047a4.821 4.821 0 0 0-.163 1.278Zm8.888-1.17c-.68.393-1.266.572-1.756.537-.488-.039-.864-.276-1.128-.71-.264-.437-.396-1.059-.396-1.864 0-.786.132-1.551.396-2.297a7.087 7.087 0 0 1 1.115-2.032 5.93 5.93 0 0 1 1.696-1.477c.436-.252.842-.406 1.218-.461.379-.059.709-.01.99.149.284.157.505.434.663.83.158.393.236.914.236 1.564v.581l-5.582 3.227v-1.312l3.856-2.23c0-.305-.057-.542-.172-.71a.604.604 0 0 0-.478-.276c-.2-.02-.434.047-.701.202-.278.16-.525.378-.74.651a3.297 3.297 0 0 0-.5.88 2.67 2.67 0 0 0-.185.928v1.248c0 .377.06.669.181.874a.651.651 0 0 0 .521.336c.224.02.489-.059.796-.237.204-.118.39-.258.56-.423a2.644 2.644 0 0 0 .71-1.196l1.696-.851a5.04 5.04 0 0 1-.53 1.539 6.25 6.25 0 0 1-1.024 1.408 6.517 6.517 0 0 1-1.442 1.122Zm6.116-3.541c-.421.244-.797.377-1.127.399-.33.018-.591-.085-.784-.308-.189-.229-.284-.595-.284-1.099 0-.424.068-.819.202-1.186.135-.366.319-.704.551-1.014.233-.31.497-.595.792-.856.299-.262.612-.505.939-.731.384-.269.694-.491.93-.667a2.59 2.59 0 0 0 .512-.484.766.766 0 0 0 .159-.46v-.03c0-.315-.086-.509-.258-.582-.17-.074-.411-.021-.723.16-.33.19-.593.427-.788.708a2.364 2.364 0 0 0-.387.851l-1.696.821a4.996 4.996 0 0 1 .508-1.497c.252-.487.578-.937.977-1.35a6.281 6.281 0 0 1 1.394-1.085 4.68 4.68 0 0 1 1.055-.46c.338-.096.638-.115.899-.058a.955.955 0 0 1 .624.445c.153.237.229.583.229 1.037v5.15l-1.739 1.005v-1.059l-.052.03c-.106.3-.248.593-.426.878a4.502 4.502 0 0 1-.641.793c-.25.244-.538.46-.866.649Zm.526-1.765a2.75 2.75 0 0 0 .714-.597c.207-.245.369-.508.486-.788.118-.28.177-.554.177-.823v-.81a2.16 2.16 0 0 1-.237.256 8.039 8.039 0 0 1-.701.574l-.336.249a4.302 4.302 0 0 0-.564.5 2.139 2.139 0 0 0-.375.54 1.315 1.315 0 0 0-.133.574c0 .288.09.457.271.505.184.043.416-.017.698-.18Zm6.282-4.511.004-2.543.267-.154 2.118-4.123 2.104-1.216-2.845 5.482-.435.252-1.213 2.302Zm-1.662 3.158v-10.182l1.834-1.06v10.182l-1.834 1.06Zm4.132-2.388-1.945-2.202 1.222-2.203 2.871 3.163-2.148 1.242Zm2.923-1.69v-7.636l1.834-1.06v7.636l-1.834 1.06Zm.921-9.153c-.272.158-.506.189-.701.092-.193-.101-.289-.298-.289-.593 0-.292.096-.598.289-.918.195-.325.429-.566.701-.724.273-.157.505-.185.697-.084.196.096.293.289.293.581 0 .295-.097.605-.293.93-.192.32-.424.559-.697.716Zm4.215 1.77v4.415l-1.834 1.059v-7.636l1.748-1.01v1.347l.078-.044a4.38 4.38 0 0 1 .736-1.48 4.124 4.124 0 0 1 1.252-1.117c.459-.265.86-.38 1.201-.346.341.035.607.213.796.534.19.318.284.774.284 1.367v4.863l-1.833 1.06v-4.485c.003-.469-.101-.774-.31-.914-.21-.145-.498-.11-.865.102-.247.142-.465.33-.655.562-.186.23-.332.494-.439.791a2.853 2.853 0 0 0-.159.932Zm8.685 2.417c-.594.344-1.103.544-1.528.6-.422.059-.757-.001-1.007-.178-.25-.177-.412-.445-.486-.803l1.695-1.244a.598.598 0 0 0 .246.286c.112.068.259.089.443.062.187-.025.413-.114.68-.269.399-.23.728-.533.986-.907.261-.373.392-.822.392-1.345v-1.398l-.078.045c-.08.259-.201.529-.361.811a4.264 4.264 0 0 1-.62.82c-.253.266-.554.5-.904.702-.497.287-.949.415-1.356.386-.405-.035-.727-.258-.969-.668-.238-.416-.357-1.047-.357-1.892 0-.865.122-1.658.366-2.379.244-.721.568-1.343.973-1.865.407-.524.854-.926 1.339-1.206.37-.214.68-.32.929-.319.25-.001.451.061.603.189.155.122.274.262.357.42l.069-.04v-1.283l1.821-1.052v7.711c0 .65-.138 1.273-.413 1.869a5.923 5.923 0 0 1-1.145 1.647 7.584 7.584 0 0 1-1.675 1.3Zm.039-4.745c.295-.171.545-.4.749-.686.206-.292.364-.629.473-1.01a4.47 4.47 0 0 0 .168-1.25c0-.448-.054-.804-.163-1.069-.109-.268-.267-.434-.474-.497-.206-.063-.458-.009-.753.162a2.294 2.294 0 0 0-.762.724 3.45 3.45 0 0 0-.469 1.046 4.748 4.748 0 0 0-.159 1.241c0 .441.053.791.159 1.051.109.255.265.412.469.47.207.053.461-.008.762-.182Z"/><path fill="#fff" stroke="#363636" d="M10.197 380.979c0-4.971 3.489-11.017 7.792-13.504l74.347-42.972c4.304-2.488 7.792-.475 7.792 4.496v4.773c0 4.971-3.488 11.017-7.792 13.504L17.99 390.248c-4.303 2.487-7.792.474-7.792-4.496v-4.773Z"/><path fill="#fff" stroke="#363636" d="M98.377 323.849c-1.73-1.001-4-.69-6.268.622l-1.97-1.139c2.269-1.311 4.537-1.622 6.268-.622l1.97 1.139Z"/><path fill="#363636" d="M17.096 384.957V373.32l3.975-2.297c.764-.442 1.415-.649 1.953-.623.538.022.948.249 1.23.681.285.426.428 1.026.428 1.798 0 .773-.144 1.538-.433 2.296a7.207 7.207 0 0 1-1.255 2.106 7.424 7.424 0 0 1-1.977 1.637l-2.534 1.464v-1.971l2.19-1.266c.41-.237.747-.513 1.013-.83a3.388 3.388 0 0 0 .802-2.168c0-.386-.067-.684-.202-.894-.131-.216-.331-.326-.6-.33-.269-.007-.61.109-1.023.347l-1.437.831v9.625l-2.13 1.231Zm12.252-6.911c-.778.449-1.447.654-2.007.615-.558-.046-.988-.316-1.29-.812-.3-.5-.452-1.21-.452-2.131 0-.897.151-1.772.453-2.625a8.098 8.098 0 0 1 1.274-2.322 6.779 6.779 0 0 1 1.938-1.688c.498-.288.963-.464 1.392-.526.433-.069.81-.012 1.132.17.324.179.577.496.757.948.18.449.27 1.045.27 1.787v.665l-6.38 3.687v-1.5l4.408-2.547c0-.349-.066-.619-.197-.812a.688.688 0 0 0-.546-.316c-.23-.022-.497.055-.802.231-.318.184-.6.432-.846.745a3.758 3.758 0 0 0-.57 1.006c-.138.36-.209.713-.212 1.059v1.427c0 .431.07.765.207.999.14.233.34.361.595.384.256.022.56-.068.91-.271.233-.134.446-.295.64-.483a3.047 3.047 0 0 0 .811-1.367l1.938-.972a5.768 5.768 0 0 1-.605 1.758 7.123 7.123 0 0 1-1.17 1.609 7.405 7.405 0 0 1-1.648 1.282Zm4.835-2.965v-8.728l2.032-1.174v1.523l.079-.046a4.51 4.51 0 0 1 .693-1.628c.325-.468.699-.824 1.122-1.069.105-.06.218-.118.34-.173.12-.055.227-.096.319-.122v2.147a2.798 2.798 0 0 0-.408.145 4.467 4.467 0 0 0-.477.236 3.056 3.056 0 0 0-.827.711 3.6 3.6 0 0 0-.57.966 2.902 2.902 0 0 0-.207 1.063v4.937l-2.096 1.212Zm11.955-13.149-1.918 1.245a.64.64 0 0 0-.212-.389.58.58 0 0 0-.428-.122c-.174.006-.382.079-.624.219a2.804 2.804 0 0 0-.822.714c-.223.284-.334.557-.334.818 0 .208.072.343.216.403.144.061.392.033.743-.082l1.367-.473c.735-.25 1.282-.286 1.643-.108s.541.581.541 1.21c0 .572-.146 1.158-.437 1.758a6.726 6.726 0 0 1-1.19 1.7 7.65 7.65 0 0 1-1.737 1.361c-1 .579-1.797.799-2.391.661-.59-.144-.936-.603-1.038-1.378l2.061-1.316c.062.316.213.498.453.545.24.044.546-.043.92-.259.367-.212.662-.464.885-.756.226-.297.341-.578.344-.841-.003-.218-.083-.351-.24-.4-.158-.053-.4-.023-.729.091l-1.308.455c-.738.256-1.287.278-1.648.066-.358-.214-.536-.646-.536-1.298 0-.56.13-1.119.393-1.676a5.977 5.977 0 0 1 1.117-1.583 7.722 7.722 0 0 1 1.692-1.308c.954-.551 1.705-.752 2.253-.603.551.147.872.596.964 1.346Zm1.492 8.649v-12l2.066-1.194v1.466l.093-.054c.092-.288.225-.603.399-.946.177-.349.407-.686.689-1.012.285-.332.64-.62 1.062-.864.551-.319 1.06-.446 1.525-.382.466.061.838.344 1.117.849.279.502.418 1.253.418 2.253 0 .973-.136 1.874-.408 2.702a7.273 7.273 0 0 1-1.102 2.154c-.463.608-.98 1.078-1.555 1.41-.406.235-.752.357-1.038.367-.282.007-.513-.054-.693-.185a1.373 1.373 0 0 1-.414-.482l-.063.037v4.67l-2.096 1.211Zm2.051-8.822c0 .519.063.936.187 1.25.125.314.305.511.541.591.236.075.523.016.861-.18.341-.197.63-.471.866-.824.236-.356.415-.762.536-1.219.125-.462.187-.947.187-1.455 0-.503-.06-.911-.182-1.224-.121-.312-.3-.508-.536-.588-.236-.079-.526-.019-.87.18-.342.197-.63.468-.867.813a3.984 3.984 0 0 0-.536 1.196 5.504 5.504 0 0 0-.187 1.46Zm10.159-1.337c-.778.449-1.447.654-2.008.615-.557-.046-.987-.316-1.288-.812-.302-.5-.453-1.21-.453-2.131 0-.898.15-1.773.453-2.625a8.098 8.098 0 0 1 1.274-2.322 6.778 6.778 0 0 1 1.938-1.688c.498-.288.962-.464 1.392-.526.433-.069.81-.012 1.131.17.325.179.578.496.758.948.18.449.27 1.044.27 1.787v.665l-6.38 3.687v-1.5l4.408-2.547c0-.349-.066-.619-.197-.813a.69.69 0 0 0-.546-.315c-.23-.022-.497.055-.802.231-.318.184-.6.432-.846.745a3.74 3.74 0 0 0-.57 1.006 3.028 3.028 0 0 0-.212 1.059v1.426c0 .432.069.766.207 1 .14.233.34.361.595.384.256.022.559-.068.91-.271.233-.134.446-.295.64-.483a3.051 3.051 0 0 0 .811-1.367l1.938-.972a5.771 5.771 0 0 1-.605 1.758 7.123 7.123 0 0 1-1.17 1.609 7.434 7.434 0 0 1-1.648 1.282Zm8.249-4.768c-.774.447-1.44.643-1.997.586-.554-.062-.98-.346-1.28-.852-.294-.507-.442-1.202-.442-2.085 0-.894.15-1.764.448-2.611a8.034 8.034 0 0 1 1.284-2.327 6.893 6.893 0 0 1 1.977-1.717c.66-.381 1.237-.576 1.732-.586.495-.01.887.152 1.175.485.29.333.448.829.478 1.486l-1.978 1.143c-.056-.404-.203-.669-.443-.795-.236-.133-.546-.088-.93.134a2.678 2.678 0 0 0-.85.798c-.24.339-.427.741-.561 1.205a5.448 5.448 0 0 0-.202 1.52c0 .557.066.992.197 1.307.134.312.323.501.566.565.242.064.526.002.85-.185.24-.139.455-.32.645-.543.194-.226.353-.482.477-.77.128-.294.212-.605.251-.935l1.978-1.143a5.944 5.944 0 0 1-.473 2.034 6.877 6.877 0 0 1-2.902 3.286Zm8.735-13.947v1.818l-4.55 2.63v-1.818l4.55-2.63Zm-3.517-.058 2.096-1.211v8.136c0 .224.03.381.088.472.06.087.141.125.246.113.108-.013.233-.06.374-.142.099-.057.197-.123.295-.199l.226-.182.33 1.611c-.105.098-.252.227-.443.386-.19.163-.421.329-.693.498-.505.314-.948.493-1.328.535-.378.04-.671-.067-.881-.321-.21-.254-.313-.667-.31-1.241v-8.455Zm4.882 7.996v-8.727l2.096-1.211v8.727l-2.096 1.211Zm1.053-10.46c-.311.18-.579.215-.802.105-.22-.115-.33-.342-.33-.679 0-.333.11-.683.33-1.048.223-.371.49-.647.802-.827.312-.18.577-.213.797-.097.223.11.335.331.335.664 0 .337-.112.692-.335 1.063-.22.366-.485.639-.797.819Zm9.766-4.52-2.642 10.254-2.36 1.365-2.642-7.201 2.213-1.279 1.57 5.337.078-.045 1.565-7.149 2.218-1.282Zm4.272 6.428c-.777.45-1.446.654-2.007.615-.557-.045-.987-.316-1.288-.812-.302-.5-.453-1.21-.453-2.13 0-.898.15-1.773.453-2.626a8.08 8.08 0 0 1 1.274-2.321 6.783 6.783 0 0 1 1.938-1.689c.498-.288.962-.463 1.392-.526.433-.068.81-.012 1.131.17.325.18.578.496.758.948.18.449.27 1.045.27 1.787v.665l-6.38 3.688v-1.5l4.408-2.548c0-.348-.066-.619-.197-.812a.69.69 0 0 0-.546-.315c-.23-.023-.497.054-.802.23-.318.184-.6.432-.846.745a3.755 3.755 0 0 0-.57 1.006c-.138.36-.209.713-.212 1.06v1.426c0 .432.069.765.207 1 .14.233.339.36.595.383.256.023.559-.068.91-.27a3.26 3.26 0 0 0 .64-.484 3.025 3.025 0 0 0 .811-1.367l1.938-.972a5.777 5.777 0 0 1-.605 1.759 7.14 7.14 0 0 1-1.17 1.608 7.405 7.405 0 0 1-1.649 1.282Z"/><path fill="#fff" stroke="#363636" d="M115.078 320.35c0-4.971 3.489-11.017 7.792-13.504l40.385-23.342c4.303-2.488 7.792-.475 7.792 4.496v4.773c0 4.971-3.489 11.017-7.792 13.504l-40.385 23.342c-4.303 2.487-7.792.474-7.792-4.496v-4.773Z"/><path fill="#fff" stroke="#363636" d="M0 0h2.275v2.277H0z" transform="matrix(.86578 .50042 0 1 113.111 320.455)"/><path fill="#fff" stroke="#363636" d="M0 0h46.448v2.275H0z" transform="scale(1.2244 .7077) rotate(-45 570.194 95.296)"/><path fill="#fff" stroke="#363636" d="M115.081 323.871c0 2.623.866 4.745 2.597 5.746l-1.97-1.139c-1.731-1-2.597-3.123-2.597-5.746l1.97 1.139ZM115.081 321.595c0-5.66 3.969-12.542 8.865-15.372l-1.97-1.139c-4.896 2.83-8.865 9.712-8.865 15.372l1.97 1.139ZM169.297 282.564c-1.731-1.001-4-.69-6.268.621l-1.97-1.138c2.268-1.312 4.537-1.622 6.268-.622l1.97 1.139Z"/><path fill="#363636" d="M121.595 314.942v-2.029l8.275-4.782v2.028l-3.085 1.783v9.608l-2.105 1.217v-9.608l-3.085 1.783Zm10.724 3.574c-.482.279-.911.43-1.288.455-.378.021-.676-.096-.896-.352-.216-.261-.324-.679-.324-1.255 0-.485.077-.937.231-1.355.154-.419.364-.805.629-1.16.266-.354.568-.68.906-.977.341-.3.698-.578 1.072-.836a41.43 41.43 0 0 0 1.062-.762c.269-.205.465-.39.586-.554a.874.874 0 0 0 .182-.526v-.034c0-.36-.098-.581-.295-.665-.194-.085-.469-.024-.827.183a2.731 2.731 0 0 0-.9.81c-.223.318-.37.642-.443.971l-1.938.939a5.738 5.738 0 0 1 .581-1.711 6.535 6.535 0 0 1 1.116-1.543c.459-.477.991-.89 1.594-1.239.42-.243.822-.418 1.205-.526.387-.11.73-.132 1.028-.066.302.064.54.233.714.508.174.271.26.666.26 1.184v5.887l-1.987 1.149v-1.211l-.059.034a5.126 5.126 0 0 1-.487 1.004 5.108 5.108 0 0 1-.733.906 4.926 4.926 0 0 1-.989.742Zm.601-2.017c.308-.178.58-.406.816-.682.236-.281.422-.581.556-.901.134-.32.202-.634.202-.941v-.926a2.429 2.429 0 0 1-.271.293 9.263 9.263 0 0 1-.379.327c-.141.112-.282.221-.423.329l-.383.285a4.87 4.87 0 0 0-.645.571 2.45 2.45 0 0 0-.428.617c-.101.21-.152.429-.152.656 0 .33.103.522.31.577.209.049.475-.02.797-.205Zm7.376-14.394v11.636l-2.096 1.211v-11.636l2.096-1.211Zm5.122 8.846c-.777.449-1.446.654-2.007.614-.558-.045-.987-.315-1.289-.811-.302-.5-.452-1.21-.452-2.131a7.8 7.8 0 0 1 .452-2.625 8.108 8.108 0 0 1 1.274-2.322 6.78 6.78 0 0 1 1.938-1.688c.499-.288.963-.464 1.393-.526.432-.069.81-.012 1.131.169.325.18.577.496.758.949.18.449.27 1.044.27 1.787v.665l-6.38 3.687v-1.5l4.407-2.547c0-.349-.065-.62-.196-.813a.69.69 0 0 0-.546-.315c-.23-.022-.497.054-.802.231a2.97 2.97 0 0 0-.846.744 3.772 3.772 0 0 0-.571 1.006c-.138.36-.208.714-.211 1.06v1.426c0 .432.068.765.206 1 .141.233.34.361.595.383.256.023.56-.067.91-.27a3.31 3.31 0 0 0 .64-.483 3.02 3.02 0 0 0 .812-1.367l1.938-.973a5.793 5.793 0 0 1-.605 1.759 7.15 7.15 0 0 1-1.171 1.609 7.449 7.449 0 0 1-1.648 1.282Zm6.931-9.222v5.045l-2.095 1.211v-8.727l1.997-1.154v1.54l.088-.052a5.029 5.029 0 0 1 .842-1.69c.393-.527.87-.953 1.431-1.277.525-.303.982-.435 1.373-.395.39.039.693.243.91.61.216.364.324.884.324 1.562v5.557l-2.095 1.212v-5.125c.003-.536-.115-.885-.355-1.046-.239-.164-.569-.125-.988.117a2.7 2.7 0 0 0-.748.643c-.213.263-.38.564-.502.903a3.254 3.254 0 0 0-.182 1.066Zm10.541-9.775v1.819l-4.55 2.63v-1.819l4.55-2.63Zm-3.517-.058 2.095-1.211v8.137c0 .223.03.38.089.471a.247.247 0 0 0 .246.114c.108-.014.233-.061.374-.143.098-.056.196-.123.295-.199l.226-.181.33 1.61c-.105.099-.253.228-.443.387-.19.163-.422.329-.694.497-.505.315-.947.493-1.328.535-.377.04-.671-.067-.88-.321-.21-.253-.314-.667-.31-1.241v-8.455Z"/><path fill="#fff" stroke="#363636" d="M66.133 395.35c0-4.971 3.488-11.017 7.792-13.504l40.385-23.342c4.303-2.488 7.792-.475 7.792 4.496v4.773c0 4.971-3.489 11.017-7.792 13.504l-40.385 23.342c-4.304 2.487-7.792.474-7.792-4.496v-4.773Z"/><path fill="#fff" stroke="#363636" d="M0 0h45.742v2.275H0z" transform="scale(1.2244 .7077) rotate(-45 678.125 196.536)"/><path fill="#fff" stroke="#363636" d="M120.352 358.228c-1.731-1.001-4-.69-6.269.621l-1.97-1.138c2.269-1.312 4.538-1.622 6.269-.622l1.97 1.139Z"/><path fill="#363636" d="M77.784 383.917v10.182l-1.864 1.077v-10.182l1.864-1.077Zm3.333 3.841v4.415l-1.834 1.06v-7.637l1.748-1.01v1.348l.077-.045a4.396 4.396 0 0 1 .736-1.48 4.117 4.117 0 0 1 1.253-1.116c.459-.266.86-.381 1.2-.347.342.035.608.213.797.535.19.318.284.773.284 1.367v4.862l-1.834 1.06v-4.485c.003-.469-.1-.774-.31-.914-.209-.144-.497-.11-.865.102-.246.143-.464.33-.654.562a2.685 2.685 0 0 0-.439.791 2.845 2.845 0 0 0-.16.932Zm11.207-7.522-1.678 1.09a.562.562 0 0 0-.186-.341.503.503 0 0 0-.374-.106c-.152.005-.334.069-.547.191a2.449 2.449 0 0 0-.719.625c-.195.248-.292.487-.292.716 0 .182.063.3.19.353.126.052.342.028.65-.073l1.196-.413c.643-.219 1.122-.251 1.437-.095.316.155.474.508.474 1.058 0 .501-.128 1.014-.383 1.539a5.88 5.88 0 0 1-1.042 1.487c-.439.463-.945.86-1.52 1.192-.874.506-1.572.698-2.091.578-.517-.126-.82-.528-.908-1.206l1.803-1.151c.055.276.187.435.396.477.21.038.478-.038.805-.227.321-.186.58-.406.775-.662.198-.26.298-.505.301-.736-.003-.19-.073-.307-.21-.35-.138-.046-.35-.02-.638.08l-1.145.398c-.645.224-1.126.244-1.442.058-.313-.187-.469-.566-.469-1.136 0-.49.115-.979.344-1.466.233-.489.559-.951.977-1.386a6.74 6.74 0 0 1 1.481-1.144c.835-.482 1.492-.658 1.972-.528.482.129.763.522.843 1.178Zm1.305 7.568v-10.5l1.808-1.045v1.283l.082-.047c.08-.252.197-.528.349-.828.155-.305.356-.6.602-.885.25-.291.56-.543.93-.757.482-.278.927-.389 1.334-.333.408.052.734.3.978.742.243.439.365 1.096.365 1.971 0 .852-.119 1.64-.357 2.365a6.362 6.362 0 0 1-.964 1.884c-.405.533-.858.944-1.36 1.234-.356.206-.659.313-.908.321-.247.007-.45-.047-.607-.161a1.208 1.208 0 0 1-.362-.423l-.056.033v4.086l-1.834 1.06Zm1.795-7.719c0 .454.055.819.164 1.094.109.275.267.447.474.516.206.067.457.014.753-.157.298-.172.55-.412.757-.721.207-.311.363-.667.47-1.066.108-.405.163-.829.163-1.273 0-.441-.053-.798-.16-1.072-.105-.273-.262-.444-.468-.514-.207-.069-.461-.017-.762.157-.299.173-.551.41-.758.711-.204.3-.36.649-.469 1.047a4.821 4.821 0 0 0-.164 1.278Zm5.876.422v-7.636l1.833-1.06v7.636l-1.833 1.06Zm.921-9.153c-.273.158-.507.188-.702.092-.192-.101-.288-.299-.288-.594 0-.291.096-.597.288-.917.195-.325.429-.566.702-.724.273-.157.505-.186.697-.085.195.096.293.29.293.582 0 .295-.098.605-.293.93-.192.32-.424.558-.697.716Zm2.381 7.244v-7.636l1.778-1.027v1.332l.069-.04c.12-.544.323-1.018.607-1.425.284-.409.611-.721.981-.935.092-.053.191-.103.297-.151.106-.049.2-.084.28-.108v1.88a3.7 3.7 0 0 0-.775.333c-.27.156-.511.363-.723.622a3.15 3.15 0 0 0-.499.845 2.533 2.533 0 0 0-.181.93v4.321l-1.834 1.059Zm7.665-4.281c-.68.393-1.265.573-1.756.538-.488-.04-.864-.276-1.128-.71-.264-.438-.396-1.059-.396-1.865 0-.785.132-1.551.396-2.297a7.081 7.081 0 0 1 1.115-2.031 5.928 5.928 0 0 1 1.696-1.477c.436-.253.842-.406 1.218-.461.379-.06.709-.01.99.149.284.157.505.434.663.83.158.392.237.914.237 1.563v.582l-5.583 3.227v-1.313l3.857-2.229c0-.305-.058-.542-.172-.711a.604.604 0 0 0-.478-.276c-.201-.019-.435.048-.702.202a2.587 2.587 0 0 0-.74.652 3.278 3.278 0 0 0-.499.88 2.648 2.648 0 0 0-.186.927v1.248c0 .378.061.67.181.875a.649.649 0 0 0 .521.335c.224.02.489-.059.796-.236.204-.118.391-.259.56-.423a2.662 2.662 0 0 0 .71-1.196l1.696-.851a5.055 5.055 0 0 1-.529 1.539c-.264.501-.606.97-1.025 1.407a6.488 6.488 0 0 1-1.442 1.122Z"/></g><path fill="#fff" stroke="#363636" stroke-width="1.697" d="M325.324 429.245c0-1.874 1.32-4.145 2.949-5.072l126.336-71.915c1.628-.927 2.948-.159 2.948 1.715v4.923c0 1.874-1.32 4.144-2.948 5.071l-126.336 71.915c-1.629.927-2.949.159-2.949-1.715v-4.922Z"/><path fill="#fff" stroke="#363636" stroke-width="1.697" d="M0 0h118.344v5.018H0z" transform="matrix(.86906 .4947 0 1 222.477 370.646)"/><path fill="#fff" stroke="#363636" stroke-width="1.697" d="M0 0h145.394v118.344H0z" transform="scale(1.22904 .69961) rotate(-45 722.564 39.92)"/><path fill="#fff" stroke="#363636" stroke-width="1.697" d="M325.325 434.216c0 .856.287 1.549.86 1.875l-102.848-58.544c-.574-.327-.86-1.02-.86-1.876l102.848 58.545ZM325.325 429.196c0-1.848 1.315-4.095 2.938-5.018l-102.848-58.545c-1.623.924-2.938 3.17-2.938 5.018l102.848 58.545ZM456.699 352.046c-.573-.326-1.325-.225-2.077.203l-102.849-58.545c.752-.428 1.505-.529 2.078-.202l102.848 58.544Z"/><path fill="#fff" stroke="#363636" stroke-width=".509" d="M243.846 359.394c.814-.464 2.134-.464 2.949 0l2.928 1.667c.814.463.814 1.215 0 1.678l-2.928 1.667c-.815.464-2.135.464-2.949 0l-2.928-1.667c-.815-.463-.815-1.215 0-1.678l2.928-1.667Z"/><path fill="#fff" stroke="#363636" stroke-width=".509" d="M0 0h3.381v3.345H0z" transform="matrix(.86906 .4947 0 1 240.91 362.735)"/><path fill="#fff" stroke="#363636" stroke-width=".509" d="M0 0h3.381v3.345H0z" transform="matrix(.86906 -.4947 0 1 246.789 364.413)"/><path fill="#fff" stroke="#363636" stroke-width=".509" d="M240.301 361.902c0 .327.232.623.608.837v3.345c-.376-.214-.608-.51-.608-.836v-3.346ZM243.848 364.413c.811.462 2.127.462 2.938 0v3.345c-.811.462-2.127.462-2.938 0v-3.345ZM250.335 361.902c0 .327-.232.623-.608.837v3.345c.376-.214.608-.51.608-.836v-3.346ZM255.721 352.699c.814-.464 2.134-.464 2.949 0l2.928 1.667c.814.463.814 1.215 0 1.678l-2.928 1.667c-.815.463-2.135.463-2.949 0l-2.928-1.667c-.815-.463-.815-1.215 0-1.678l2.928-1.667Z"/><path fill="#fff" stroke="#363636" stroke-width=".509" d="M0 0h3.381v3.345H0z" transform="matrix(.86906 .4947 0 1 252.785 356.04)"/><path fill="#fff" stroke="#363636" stroke-width=".509" d="M0 0h3.381v3.345H0z" transform="matrix(.86906 -.4947 0 1 258.664 357.718)"/><path fill="#fff" stroke="#363636" stroke-width=".509" d="M252.176 355.207c0 .327.232.622.608.836v3.346c-.376-.214-.608-.51-.608-.837v-3.345ZM255.723 357.718c.811.462 2.127.462 2.938 0v3.345c-.811.462-2.127.462-2.938 0v-3.345ZM262.21 355.207c0 .327-.232.622-.608.836v3.346c.376-.214.608-.51.608-.837v-3.345ZM267.6 346.02c.814-.464 2.134-.464 2.949 0l2.928 1.667c.814.463.814 1.215 0 1.678l-2.928 1.667c-.815.464-2.135.464-2.949 0l-2.928-1.667c-.815-.463-.815-1.215 0-1.678l2.928-1.667Z"/><path fill="#fff" stroke="#363636" stroke-width=".509" d="M0 0h3.381v3.345H0z" transform="matrix(.86906 .4947 0 1 264.664 349.361)"/><path fill="#fff" stroke="#363636" stroke-width=".509" d="M0 0h3.381v3.345H0z" transform="matrix(.86906 -.4947 0 1 270.543 351.039)"/><path fill="#fff" stroke="#363636" stroke-width=".509" d="M264.055 348.528c0 .327.232.623.608.837v3.345c-.376-.214-.608-.51-.608-.836v-3.346ZM267.602 351.039c.811.462 2.127.462 2.938 0v3.345c-.811.462-2.127.462-2.938 0v-3.345ZM274.089 348.528c0 .327-.233.623-.609.837v3.345c.376-.214.609-.51.609-.836v-3.346ZM279.475 339.33c.814-.464 2.134-.464 2.949 0l2.928 1.666c.814.464.814 1.215 0 1.679l-2.928 1.667c-.815.463-2.135.463-2.949 0l-2.928-1.667c-.815-.464-.815-1.215 0-1.679l2.928-1.666Z"/><path fill="#fff" stroke="#363636" stroke-width=".509" d="M0 0h3.381v3.345H0z" transform="matrix(.86906 .4947 0 1 276.539 342.671)"/><path fill="#fff" stroke="#363636" stroke-width=".509" d="M0 0h3.381v3.345H0z" transform="matrix(.86906 -.4947 0 1 282.418 344.349)"/><path fill="#fff" stroke="#363636" stroke-width=".509" d="M275.93 341.838c0 .327.232.622.608.836v3.346c-.376-.214-.608-.51-.608-.837v-3.345ZM279.477 344.349c.811.462 2.127.462 2.938 0v3.345c-.811.462-2.127.462-2.938 0v-3.345ZM285.964 341.838c0 .327-.233.622-.609.836v3.346c.376-.214.609-.51.609-.837v-3.345ZM291.35 332.623c.814-.463 2.134-.463 2.949 0l2.928 1.667c.814.464.814 1.215 0 1.679l-2.928 1.667c-.815.463-2.135.463-2.949 0l-2.928-1.667c-.815-.464-.815-1.215 0-1.679l2.928-1.667Z"/><path fill="#fff" stroke="#363636" stroke-width=".509" d="M0 0h3.381v3.345H0z" transform="matrix(.86906 .4947 0 1 288.414 335.965)"/><path fill="#fff" stroke="#363636" stroke-width=".509" d="M0 0h3.381v3.345H0z" transform="matrix(.86906 -.4947 0 1 294.293 337.643)"/><path fill="#fff" stroke="#363636" stroke-width=".509" d="M287.805 335.132c0 .326.232.622.608.836v3.346c-.376-.214-.608-.51-.608-.837v-3.345ZM291.352 337.643c.811.461 2.127.461 2.938 0v3.345c-.811.462-2.127.462-2.938 0v-3.345ZM297.839 335.132c0 .326-.233.622-.609.836v3.346c.376-.214.609-.51.609-.837v-3.345ZM303.225 325.929c.814-.463 2.134-.463 2.949 0l2.928 1.667c.814.463.814 1.215 0 1.679l-2.928 1.666c-.815.464-2.135.464-2.949 0l-2.928-1.666c-.815-.464-.815-1.216 0-1.679l2.928-1.667Z"/><path fill="#fff" stroke="#363636" stroke-width=".509" d="M0 0h3.381v3.345H0z" transform="matrix(.86906 .4947 0 1 300.289 329.271)"/><path fill="#fff" stroke="#363636" stroke-width=".509" d="M0 0h3.381v3.345H0z" transform="matrix(.86906 -.4947 0 1 306.168 330.948)"/><path fill="#fff" stroke="#363636" stroke-width=".509" d="M299.68 328.438c0 .326.232.622.608.836v3.345c-.376-.214-.608-.509-.608-.836v-3.345ZM303.227 330.948c.811.462 2.127.462 2.938 0v3.346c-.811.462-2.127.462-2.938 0v-3.346ZM309.714 328.438c0 .326-.233.622-.609.836v3.345c.376-.214.609-.509.609-.836v-3.345ZM315.104 319.239c.814-.464 2.134-.464 2.949 0l2.928 1.667c.814.463.814 1.215 0 1.678l-2.928 1.667c-.815.463-2.135.463-2.949 0l-2.928-1.667c-.815-.463-.815-1.215 0-1.678l2.928-1.667Z"/><path fill="#fff" stroke="#363636" stroke-width=".509" d="M0 0h3.381v3.345H0z" transform="matrix(.86906 .4947 0 1 312.168 322.58)"/><path fill="#fff" stroke="#363636" stroke-width=".509" d="M0 0h3.381v3.345H0z" transform="matrix(.86906 -.4947 0 1 318.047 324.258)"/><path fill="#fff" stroke="#363636" stroke-width=".509" d="M311.559 321.747c0 .327.232.622.608.836v3.346c-.376-.214-.608-.51-.608-.837v-3.345ZM315.105 324.258c.812.462 2.128.462 2.939 0v3.345c-.811.462-2.127.462-2.939 0v-3.345ZM321.593 321.747c0 .327-.233.622-.609.836v3.346c.376-.214.609-.51.609-.837v-3.345ZM326.979 312.559c.814-.464 2.134-.464 2.949 0l2.928 1.667c.814.463.814 1.215 0 1.678l-2.928 1.667c-.815.464-2.135.464-2.949 0l-2.928-1.667c-.815-.463-.815-1.215 0-1.678l2.928-1.667Z"/><path fill="#fff" stroke="#363636" stroke-width=".509" d="M0 0h3.381v3.345H0z" transform="matrix(.86906 .4947 0 1 324.043 315.9)"/><path fill="#fff" stroke="#363636" stroke-width=".509" d="M0 0h3.381v3.345H0z" transform="matrix(.86906 -.4947 0 1 329.922 317.578)"/><path fill="#fff" stroke="#363636" stroke-width=".509" d="M323.434 315.067c0 .327.232.623.608.837v3.345c-.376-.214-.608-.51-.608-.836v-3.346ZM326.98 317.578c.812.462 2.128.462 2.939 0v3.346c-.811.461-2.127.461-2.939 0v-3.346ZM333.468 315.067c0 .327-.233.623-.609.837v3.345c.376-.214.609-.51.609-.836v-3.346ZM338.854 305.869c.814-.464 2.134-.464 2.949 0l2.928 1.666c.814.464.814 1.215 0 1.679l-2.928 1.667c-.815.463-2.135.463-2.949 0l-2.928-1.667c-.815-.464-.815-1.215 0-1.679l2.928-1.666Z"/><path fill="#fff" stroke="#363636" stroke-width=".509" d="M0 0h3.381v3.345H0z" transform="matrix(.86906 .4947 0 1 335.918 309.21)"/><path fill="#fff" stroke="#363636" stroke-width=".509" d="M0 0h3.381v3.345H0z" transform="matrix(.86906 -.4947 0 1 341.797 310.888)"/><path fill="#fff" stroke="#363636" stroke-width=".509" d="M335.309 308.377c0 .327.232.622.608.836v3.346c-.376-.214-.608-.51-.608-.837v-3.345ZM338.855 310.888c.812.462 2.128.462 2.939 0v3.345c-.811.462-2.127.462-2.939 0v-3.345ZM345.343 308.377c0 .327-.233.622-.609.836v3.346c.376-.214.609-.51.609-.837v-3.345ZM350.729 299.174c.814-.463 2.134-.463 2.949 0l2.928 1.667c.814.464.814 1.215 0 1.679l-2.928 1.666c-.815.464-2.135.464-2.949 0l-2.928-1.666c-.815-.464-.815-1.215 0-1.679l2.928-1.667Z"/><path fill="#fff" stroke="#363636" stroke-width=".509" d="M0 0h3.381v3.345H0z" transform="matrix(.86906 .4947 0 1 347.793 302.516)"/><path fill="#fff" stroke="#363636" stroke-width=".509" d="M0 0h3.381v3.345H0z" transform="matrix(.86906 -.4947 0 1 353.672 304.193)"/><path fill="#fff" stroke="#363636" stroke-width=".509" d="M347.184 301.683c0 .326.232.622.608.836v3.345c-.376-.214-.608-.509-.608-.836v-3.345ZM350.73 304.193c.812.462 2.128.462 2.939 0v3.346c-.811.462-2.127.462-2.939 0v-3.346ZM357.218 301.683c0 .326-.233.622-.609.836v3.345c.376-.214.609-.509.609-.836v-3.345ZM259.115 369.415c.815-.463 2.135-.463 2.949 0l2.928 1.667c.815.464.815 1.215 0 1.679l-2.928 1.667c-.814.463-2.134.463-2.949 0l-2.928-1.667c-.814-.464-.814-1.215 0-1.679l2.928-1.667Z"/><path fill="#fff" stroke="#363636" stroke-width=".509" d="M0 0h3.381v3.345H0z" transform="matrix(.86906 .4947 0 1 256.18 372.757)"/><path fill="#fff" stroke="#363636" stroke-width=".509" d="M0 0h3.381v3.345H0z" transform="matrix(.86906 -.4947 0 1 262.059 374.435)"/><path fill="#fff" stroke="#363636" stroke-width=".509" d="M255.57 371.924c0 .326.233.622.609.836v3.346c-.376-.214-.609-.51-.609-.837v-3.345ZM259.117 374.435c.812.461 2.127.461 2.939 0v3.345c-.812.462-2.127.462-2.939 0v-3.345ZM265.605 371.924c0 .326-.233.622-.609.836v3.346c.376-.214.609-.51.609-.837v-3.345ZM270.99 362.721c.815-.463 2.135-.463 2.949 0l2.928 1.667c.815.463.815 1.215 0 1.679l-2.928 1.666c-.814.464-2.134.464-2.949 0l-2.928-1.666c-.814-.464-.814-1.216 0-1.679l2.928-1.667Z"/><path fill="#fff" stroke="#363636" stroke-width=".509" d="M0 0h3.381v3.345H0z" transform="matrix(.86906 .4947 0 1 268.055 366.062)"/><path fill="#fff" stroke="#363636" stroke-width=".509" d="M0 0h3.381v3.345H0z" transform="matrix(.86906 -.4947 0 1 273.934 367.74)"/><path fill="#fff" stroke="#363636" stroke-width=".509" d="M267.445 365.229c0 .327.233.623.609.837v3.345c-.376-.214-.609-.509-.609-.836v-3.346ZM270.992 367.74c.812.462 2.127.462 2.939 0v3.346c-.812.462-2.127.462-2.939 0v-3.346ZM277.48 365.229c0 .327-.233.623-.609.837v3.345c.376-.214.609-.509.609-.836v-3.346ZM282.869 356.042c.815-.463 2.135-.463 2.949 0l2.928 1.667c.815.464.815 1.215 0 1.679l-2.928 1.667c-.814.463-2.134.463-2.949 0l-2.928-1.667c-.814-.464-.814-1.215 0-1.679l2.928-1.667Z"/><path fill="#fff" stroke="#363636" stroke-width=".509" d="M0 0h3.381v3.345H0z" transform="matrix(.86906 .4947 0 1 279.934 359.384)"/><path fill="#fff" stroke="#363636" stroke-width=".509" d="M0 0h3.381v3.345H0z" transform="matrix(.86906 -.4947 0 1 285.812 361.062)"/><path fill="#fff" stroke="#363636" stroke-width=".509" d="M279.324 358.551c0 .326.233.622.609.836v3.346c-.376-.214-.609-.51-.609-.837v-3.345ZM282.871 361.062c.812.461 2.127.461 2.939 0v3.345c-.812.462-2.127.462-2.939 0v-3.345ZM289.359 358.551c0 .326-.233.622-.609.836v3.346c.376-.214.609-.51.609-.837v-3.345ZM294.744 349.352c.815-.464 2.135-.464 2.949 0l2.928 1.667c.815.463.815 1.215 0 1.678l-2.928 1.667c-.814.464-2.134.464-2.949 0l-2.928-1.667c-.814-.463-.814-1.215 0-1.678l2.928-1.667Z"/><path fill="#fff" stroke="#363636" stroke-width=".509" d="M0 0h3.381v3.345H0z" transform="matrix(.86906 .4947 0 1 291.809 352.693)"/><path fill="#fff" stroke="#363636" stroke-width=".509" d="M0 0h3.381v3.345H0z" transform="matrix(.86906 -.4947 0 1 297.688 354.371)"/><path fill="#fff" stroke="#363636" stroke-width=".509" d="M291.199 351.86c0 .327.233.623.609.837v3.345c-.376-.214-.609-.51-.609-.836v-3.346ZM294.746 354.371c.812.462 2.127.462 2.939 0v3.346c-.812.461-2.127.461-2.939 0v-3.346ZM301.234 351.86c0 .327-.233.623-.609.837v3.345c.376-.214.609-.51.609-.836v-3.346ZM306.619 342.662c.815-.464 2.135-.464 2.949 0l2.928 1.666c.815.464.815 1.215 0 1.679l-2.928 1.667c-.814.463-2.134.463-2.949 0l-2.928-1.667c-.814-.464-.814-1.215 0-1.679l2.928-1.666Z"/><path fill="#fff" stroke="#363636" stroke-width=".509" d="M0 0h3.381v3.345H0z" transform="matrix(.86906 .4947 0 1 303.684 346.003)"/><path fill="#fff" stroke="#363636" stroke-width=".509" d="M0 0h3.381v3.345H0z" transform="matrix(.86906 -.4947 0 1 309.562 347.681)"/><path fill="#fff" stroke="#363636" stroke-width=".509" d="M303.074 345.17c0 .327.233.622.609.836v3.346c-.376-.214-.609-.51-.609-.837v-3.345ZM306.621 347.681c.812.462 2.127.462 2.939 0v3.345c-.812.462-2.127.462-2.939 0v-3.345ZM313.109 345.17c0 .327-.233.622-.609.836v3.346c.376-.214.609-.51.609-.837v-3.345ZM318.494 335.967c.815-.463 2.135-.463 2.949 0l2.928 1.667c.815.464.815 1.215 0 1.679l-2.928 1.666c-.814.464-2.134.464-2.949 0l-2.928-1.666c-.814-.464-.814-1.215 0-1.679l2.928-1.667Z"/><path fill="#fff" stroke="#363636" stroke-width=".509" d="M0 0h3.381v3.345H0z" transform="matrix(.86906 .4947 0 1 315.559 339.309)"/><path fill="#fff" stroke="#363636" stroke-width=".509" d="M0 0h3.381v3.345H0z" transform="matrix(.86906 -.4947 0 1 321.438 340.986)"/><path fill="#fff" stroke="#363636" stroke-width=".509" d="M314.949 338.476c0 .326.233.622.609.836v3.345c-.376-.214-.609-.509-.609-.836v-3.345ZM318.496 340.986c.812.462 2.127.462 2.939 0v3.346c-.812.462-2.127.462-2.939 0v-3.346ZM324.984 338.476c0 .326-.233.622-.609.836v3.345c.376-.214.609-.509.609-.836v-3.345ZM330.373 329.261c.815-.463 2.135-.463 2.949 0l2.928 1.667c.815.464.815 1.215 0 1.679l-2.928 1.666c-.814.464-2.134.464-2.949 0l-2.928-1.666c-.814-.464-.814-1.215 0-1.679l2.928-1.667Z"/><path fill="#fff" stroke="#363636" stroke-width=".509" d="M0 0h3.381v3.345H0z" transform="matrix(.86906 .4947 0 1 327.438 332.603)"/><path fill="#fff" stroke="#363636" stroke-width=".509" d="M0 0h3.381v3.345H0z" transform="matrix(.86906 -.4947 0 1 333.316 334.28)"/><path fill="#fff" stroke="#363636" stroke-width=".509" d="M326.828 331.77c0 .326.233.622.609.836v3.345c-.376-.214-.609-.509-.609-.836v-3.345ZM330.375 334.28c.811.462 2.127.462 2.939 0v3.346c-.812.462-2.128.462-2.939 0v-3.346ZM336.862 331.77c0 .326-.232.622-.608.836v3.345c.376-.214.608-.509.608-.836v-3.345ZM342.248 322.581c.815-.463 2.135-.463 2.949 0l2.928 1.667c.815.464.815 1.215 0 1.679l-2.928 1.667c-.814.463-2.134.463-2.949 0l-2.928-1.667c-.814-.464-.814-1.215 0-1.679l2.928-1.667Z"/><path fill="#fff" stroke="#363636" stroke-width=".509" d="M0 0h3.381v3.345H0z" transform="matrix(.86906 .4947 0 1 339.312 325.923)"/><path fill="#fff" stroke="#363636" stroke-width=".509" d="M0 0h3.381v3.345H0z" transform="matrix(.86906 -.4947 0 1 345.191 327.601)"/><path fill="#fff" stroke="#363636" stroke-width=".509" d="M338.703 325.09c0 .326.233.622.609.836v3.346c-.376-.214-.609-.51-.609-.837v-3.345ZM342.25 327.601c.811.461 2.127.461 2.939 0v3.345c-.812.462-2.128.462-2.939 0v-3.345ZM348.737 325.09c0 .326-.232.622-.608.836v3.346c.376-.214.608-.51.608-.837v-3.345ZM354.127 315.891c.814-.463 2.135-.463 2.949 0l2.928 1.667c.814.463.814 1.215 0 1.678l-2.928 1.667c-.814.464-2.135.464-2.949 0l-2.928-1.667c-.814-.463-.814-1.215 0-1.678l2.928-1.667Z"/><path fill="#fff" stroke="#363636" stroke-width=".509" d="M0 0h3.381v3.345H0z" transform="matrix(.86906 .4947 0 1 351.191 319.232)"/><path fill="#fff" stroke="#363636" stroke-width=".509" d="M0 0h3.381v3.345H0z" transform="matrix(.86906 -.4947 0 1 357.07 320.91)"/><path fill="#fff" stroke="#363636" stroke-width=".509" d="M350.582 318.399c0 .327.233.623.609.837v3.345c-.376-.214-.609-.51-.609-.836v-3.346ZM354.129 320.91c.811.462 2.127.462 2.938 0v3.346c-.811.461-2.127.461-2.938 0v-3.346ZM360.616 318.399c0 .327-.232.623-.608.837v3.345c.376-.214.608-.51.608-.836v-3.346ZM365.998 309.197c.815-.464 2.135-.464 2.949 0l2.928 1.667c.815.463.815 1.215 0 1.678l-2.928 1.667c-.814.463-2.134.463-2.949 0l-2.928-1.667c-.814-.463-.814-1.215 0-1.678l2.928-1.667Z"/><path fill="#fff" stroke="#363636" stroke-width=".509" d="M0 0h3.381v3.345H0z" transform="matrix(.86906 .4947 0 1 363.062 312.538)"/><path fill="#fff" stroke="#363636" stroke-width=".509" d="M0 0h3.381v3.345H0z" transform="matrix(.86906 -.4947 0 1 368.941 314.216)"/><path fill="#fff" stroke="#363636" stroke-width=".509" d="M362.453 311.705c0 .327.233.622.609.836v3.346c-.376-.214-.609-.51-.609-.837v-3.345ZM366 314.216c.811.462 2.127.462 2.939 0v3.345c-.812.462-2.128.462-2.939 0v-3.345ZM372.487 311.705c0 .327-.232.622-.608.836v3.346c.376-.214.608-.51.608-.837v-3.345ZM270.994 376.109c.815-.464 2.135-.464 2.949 0l2.928 1.667c.815.463.815 1.215 0 1.678l-2.928 1.667c-.814.464-2.134.464-2.949 0l-2.928-1.667c-.814-.463-.814-1.215 0-1.678l2.928-1.667Z"/><path fill="#fff" stroke="#363636" stroke-width=".509" d="M0 0h3.381v3.345H0z" transform="matrix(.86906 .4947 0 1 268.059 379.45)"/><path fill="#fff" stroke="#363636" stroke-width=".509" d="M0 0h3.381v3.345H0z" transform="matrix(.86906 -.4947 0 1 273.938 381.128)"/><path fill="#fff" stroke="#363636" stroke-width=".509" d="M267.449 378.617c0 .327.233.622.609.837v3.345c-.376-.214-.609-.51-.609-.836v-3.346ZM270.996 381.128c.812.462 2.127.462 2.939 0v3.345c-.812.462-2.127.462-2.939 0v-3.345ZM277.484 378.617c0 .327-.233.622-.609.837v3.345c.376-.214.609-.51.609-.836v-3.346ZM282.869 369.414c.815-.463 2.135-.463 2.949 0l2.928 1.667c.815.464.815 1.215 0 1.679l-2.928 1.667c-.814.463-2.134.463-2.949 0l-2.928-1.667c-.814-.464-.814-1.215 0-1.679l2.928-1.667Z"/><path fill="#fff" stroke="#363636" stroke-width=".509" d="M0 0h3.381v3.345H0z" transform="matrix(.86906 .4947 0 1 279.934 372.756)"/><path fill="#fff" stroke="#363636" stroke-width=".509" d="M0 0h3.381v3.345H0z" transform="matrix(.86906 -.4947 0 1 285.812 374.434)"/><path fill="#fff" stroke="#363636" stroke-width=".509" d="M279.324 371.923c0 .326.233.622.609.836v3.346c-.376-.214-.609-.51-.609-.837v-3.345ZM282.871 374.434c.812.461 2.127.461 2.939 0v3.345c-.812.462-2.127.462-2.939 0v-3.345ZM289.359 371.923c0 .326-.233.622-.609.836v3.346c.376-.214.609-.51.609-.837v-3.345ZM294.748 362.736c.815-.464 2.135-.464 2.949 0l2.928 1.667c.815.463.815 1.215 0 1.678l-2.928 1.667c-.814.464-2.134.464-2.949 0l-2.928-1.667c-.814-.463-.814-1.215 0-1.678l2.928-1.667Z"/><path fill="#fff" stroke="#363636" stroke-width=".509" d="M0 0h3.381v3.345H0z" transform="matrix(.86906 .4947 0 1 291.812 366.077)"/><path fill="#fff" stroke="#363636" stroke-width=".509" d="M0 0h3.381v3.345H0z" transform="matrix(.86906 -.4947 0 1 297.691 367.755)"/><path fill="#fff" stroke="#363636" stroke-width=".509" d="M291.203 365.244c0 .327.233.622.609.836v3.346c-.376-.214-.609-.51-.609-.836v-3.346ZM294.75 367.755c.811.462 2.127.462 2.939 0v3.345c-.812.462-2.128.462-2.939 0v-3.345ZM301.237 365.244c0 .327-.232.622-.608.836v3.346c.376-.214.608-.51.608-.836v-3.346ZM306.619 356.041c.815-.463 2.135-.463 2.949 0l2.928 1.667c.815.464.815 1.215 0 1.679l-2.928 1.667c-.814.463-2.134.463-2.949 0l-2.928-1.667c-.814-.464-.814-1.215 0-1.679l2.928-1.667Z"/><path fill="#fff" stroke="#363636" stroke-width=".509" d="M0 0h3.381v3.345H0z" transform="matrix(.86906 .4947 0 1 303.684 359.383)"/><path fill="#fff" stroke="#363636" stroke-width=".509" d="M0 0h3.381v3.345H0z" transform="matrix(.86906 -.4947 0 1 309.562 361.061)"/><path fill="#fff" stroke="#363636" stroke-width=".509" d="M303.074 358.55c0 .326.233.622.609.836v3.346c-.376-.214-.609-.51-.609-.837v-3.345ZM306.621 361.061c.812.461 2.127.461 2.939 0v3.345c-.812.462-2.127.462-2.939 0v-3.345ZM313.109 358.55c0 .326-.233.622-.609.836v3.346c.376-.214.609-.51.609-.837v-3.345ZM318.498 349.355c.815-.464 2.135-.464 2.949 0l2.928 1.667c.815.463.815 1.215 0 1.678l-2.928 1.667c-.814.464-2.134.464-2.949 0l-2.928-1.667c-.814-.463-.814-1.215 0-1.678l2.928-1.667Z"/><path fill="#fff" stroke="#363636" stroke-width=".509" d="M0 0h3.381v3.345H0z" transform="matrix(.86906 .4947 0 1 315.562 352.696)"/><path fill="#fff" stroke="#363636" stroke-width=".509" d="M0 0h3.381v3.345H0z" transform="matrix(.86906 -.4947 0 1 321.441 354.374)"/><path fill="#fff" stroke="#363636" stroke-width=".509" d="M314.953 351.863c0 .327.233.623.609.837v3.345c-.376-.214-.609-.51-.609-.836v-3.346ZM318.5 354.374c.811.462 2.127.462 2.939 0v3.345c-.812.462-2.128.462-2.939 0v-3.345ZM324.987 351.863c0 .327-.232.623-.608.837v3.345c.376-.214.608-.51.608-.836v-3.346ZM330.373 342.661c.815-.464 2.135-.464 2.949 0l2.928 1.666c.815.464.815 1.215 0 1.679l-2.928 1.667c-.814.463-2.134.463-2.949 0l-2.928-1.667c-.814-.464-.814-1.215 0-1.679l2.928-1.666Z"/><path fill="#fff" stroke="#363636" stroke-width=".509" d="M0 0h3.381v3.345H0z" transform="matrix(.86906 .4947 0 1 327.438 346.002)"/><path fill="#fff" stroke="#363636" stroke-width=".509" d="M0 0h3.381v3.345H0z" transform="matrix(.86906 -.4947 0 1 333.316 347.68)"/><path fill="#fff" stroke="#363636" stroke-width=".509" d="M326.828 345.169c0 .327.233.622.609.836v3.346c-.376-.214-.609-.51-.609-.837v-3.345ZM330.375 347.68c.811.462 2.127.462 2.939 0v3.345c-.812.462-2.128.462-2.939 0v-3.345ZM336.862 345.169c0 .327-.232.622-.608.836v3.346c.376-.214.608-.51.608-.837v-3.345ZM342.252 335.969c.814-.463 2.135-.463 2.949 0l2.928 1.667c.814.464.814 1.215 0 1.679l-2.928 1.666c-.814.464-2.135.464-2.949 0l-2.928-1.666c-.814-.464-.814-1.215 0-1.679l2.928-1.667Z"/><path fill="#fff" stroke="#363636" stroke-width=".509" d="M0 0h3.381v3.345H0z" transform="matrix(.86906 .4947 0 1 339.316 339.311)"/><path fill="#fff" stroke="#363636" stroke-width=".509" d="M0 0h3.381v3.345H0z" transform="matrix(.86906 -.4947 0 1 345.195 340.988)"/><path fill="#fff" stroke="#363636" stroke-width=".509" d="M338.707 338.478c0 .326.233.622.609.836v3.345c-.376-.214-.609-.509-.609-.836v-3.345ZM342.254 340.988c.811.462 2.127.462 2.938 0v3.346c-.811.462-2.127.462-2.938 0v-3.346ZM348.741 338.478c0 .326-.232.622-.608.836v3.345c.376-.214.608-.509.608-.836v-3.345ZM354.127 329.271c.814-.464 2.135-.464 2.949 0l2.928 1.667c.814.463.814 1.215 0 1.678l-2.928 1.667c-.814.464-2.135.464-2.949 0l-2.928-1.667c-.814-.463-.814-1.215 0-1.678l2.928-1.667Z"/><path fill="#fff" stroke="#363636" stroke-width=".509" d="M0 0h3.381v3.345H0z" transform="matrix(.86906 .4947 0 1 351.191 332.612)"/><path fill="#fff" stroke="#363636" stroke-width=".509" d="M0 0h3.381v3.345H0z" transform="matrix(.86906 -.4947 0 1 357.07 334.29)"/><path fill="#fff" stroke="#363636" stroke-width=".509" d="M350.582 331.779c0 .327.233.623.609.837v3.345c-.376-.214-.609-.51-.609-.836v-3.346ZM354.129 334.29c.811.462 2.127.462 2.938 0v3.345c-.811.462-2.127.462-2.938 0v-3.345ZM360.616 331.779c0 .327-.232.623-.608.837v3.345c.376-.214.608-.51.608-.836v-3.346ZM366.002 322.584c.814-.463 2.135-.463 2.949 0l2.928 1.667c.814.464.814 1.215 0 1.679l-2.928 1.667c-.814.463-2.135.463-2.949 0l-2.928-1.667c-.814-.464-.814-1.215 0-1.679l2.928-1.667Z"/><path fill="#fff" stroke="#363636" stroke-width=".509" d="M0 0h3.381v3.345H0z" transform="matrix(.86906 .4947 0 1 363.066 325.926)"/><path fill="#fff" stroke="#363636" stroke-width=".509" d="M0 0h3.381v3.345H0z" transform="matrix(.86906 -.4947 0 1 368.945 327.604)"/><path fill="#fff" stroke="#363636" stroke-width=".509" d="M362.457 325.093c0 .326.233.622.609.836v3.346c-.376-.215-.609-.51-.609-.837v-3.345ZM366.004 327.604c.811.461 2.127.461 2.938 0v3.345c-.811.462-2.127.462-2.938 0v-3.345ZM372.491 325.093c0 .326-.232.622-.608.836v3.346c.376-.215.608-.51.608-.837v-3.345ZM377.877 315.89c.814-.463 2.135-.463 2.949 0l2.928 1.667c.814.463.814 1.215 0 1.678l-2.928 1.667c-.814.464-2.135.464-2.949 0l-2.928-1.667c-.814-.463-.814-1.215 0-1.678l2.928-1.667Z"/><path fill="#fff" stroke="#363636" stroke-width=".509" d="M0 0h3.381v3.345H0z" transform="matrix(.86906 .4947 0 1 374.941 319.231)"/><path fill="#fff" stroke="#363636" stroke-width=".509" d="M0 0h3.381v3.345H0z" transform="matrix(.86906 -.4947 0 1 380.82 320.909)"/><path fill="#fff" stroke="#363636" stroke-width=".509" d="M374.332 318.398c0 .327.233.623.609.837v3.345c-.376-.214-.609-.51-.609-.836v-3.346ZM377.879 320.909c.811.462 2.127.462 2.938 0v3.346c-.811.461-2.127.461-2.938 0v-3.346ZM384.366 318.398c0 .327-.232.623-.608.837v3.345c.376-.214.608-.51.608-.836v-3.346ZM284.569 382.799c.814-.463 2.134-.463 2.948 0l2.929 1.667c.814.464.814 1.215 0 1.679l-2.929 1.666c-.814.464-2.134.464-2.948 0l-2.929-1.666c-.814-.464-.814-1.215 0-1.679l2.929-1.667Z"/><path fill="#fff" stroke="#363636" stroke-width=".509" d="M0 0h3.381v3.345H0z" transform="matrix(.86906 .4947 0 1 281.633 386.141)"/><path fill="#fff" stroke="#363636" stroke-width=".509" d="M0 0h3.381v3.345H0z" transform="matrix(.86906 -.4947 0 1 287.512 387.818)"/><path fill="#fff" stroke="#363636" stroke-width=".509" d="M281.023 385.308c0 .326.233.622.609.836v3.345c-.376-.214-.609-.509-.609-.836v-3.345ZM284.57 387.818c.812.462 2.127.462 2.939 0v3.346c-.812.462-2.127.462-2.939 0v-3.346ZM291.058 385.308c0 .326-.233.622-.609.836v3.345c.376-.214.609-.509.609-.836v-3.345ZM296.44 376.109c.814-.464 2.134-.464 2.948 0l2.929 1.667c.814.463.814 1.215 0 1.678l-2.929 1.667c-.814.464-2.134.464-2.948 0l-2.929-1.667c-.814-.463-.814-1.215 0-1.678l2.929-1.667Z"/><path fill="#fff" stroke="#363636" stroke-width=".509" d="M0 0h3.381v3.345H0z" transform="matrix(.86906 .4947 0 1 293.504 379.45)"/><path fill="#fff" stroke="#363636" stroke-width=".509" d="M0 0h3.381v3.345H0z" transform="matrix(.86906 -.4947 0 1 299.383 381.128)"/><path fill="#fff" stroke="#363636" stroke-width=".509" d="M292.895 378.617c0 .327.232.622.608.837v3.345c-.376-.214-.608-.51-.608-.836v-3.346ZM296.441 381.128c.812.462 2.127.462 2.939 0v3.345c-.812.462-2.127.462-2.939 0v-3.345ZM302.929 378.617c0 .327-.233.622-.609.837v3.345c.376-.214.609-.51.609-.836v-3.346ZM308.319 369.43c.814-.463 2.134-.463 2.948 0l2.929 1.667c.814.463.814 1.215 0 1.679l-2.929 1.666c-.814.464-2.134.464-2.948 0l-2.929-1.666c-.814-.464-.814-1.216 0-1.679l2.929-1.667Z"/><path fill="#fff" stroke="#363636" stroke-width=".509" d="M0 0h3.381v3.345H0z" transform="matrix(.86906 .4947 0 1 305.383 372.771)"/><path fill="#fff" stroke="#363636" stroke-width=".509" d="M0 0h3.381v3.345H0z" transform="matrix(.86906 -.4947 0 1 311.262 374.449)"/><path fill="#fff" stroke="#363636" stroke-width=".509" d="M304.773 371.938c0 .327.233.623.609.837v3.345c-.376-.214-.609-.509-.609-.836v-3.346ZM308.32 374.449c.812.462 2.127.462 2.939 0v3.346c-.812.462-2.127.462-2.939 0v-3.346ZM314.808 371.938c0 .327-.233.623-.609.837v3.345c.376-.214.609-.509.609-.836v-3.346ZM320.194 362.736c.814-.464 2.134-.464 2.948 0l2.929 1.667c.814.463.814 1.215 0 1.678l-2.929 1.667c-.814.464-2.134.464-2.948 0l-2.929-1.667c-.814-.463-.814-1.215 0-1.678l2.929-1.667Z"/><path fill="#fff" stroke="#363636" stroke-width=".509" d="M0 0h3.381v3.345H0z" transform="matrix(.86906 .4947 0 1 317.258 366.077)"/><path fill="#fff" stroke="#363636" stroke-width=".509" d="M0 0h3.381v3.345H0z" transform="matrix(.86906 -.4947 0 1 323.137 367.755)"/><path fill="#fff" stroke="#363636" stroke-width=".509" d="M316.648 365.244c0 .327.233.622.609.836v3.346c-.376-.214-.609-.51-.609-.836v-3.346ZM320.195 367.755c.812.462 2.127.462 2.939 0v3.345c-.812.462-2.127.462-2.939 0v-3.345ZM326.683 365.244c0 .327-.233.622-.609.836v3.346c.376-.214.609-.51.609-.836v-3.346ZM332.072 356.045c.815-.463 2.135-.463 2.949 0l2.928 1.667c.815.464.815 1.215 0 1.679l-2.928 1.667c-.814.463-2.134.463-2.949 0l-2.928-1.667c-.814-.464-.814-1.215 0-1.679l2.928-1.667Z"/><path fill="#fff" stroke="#363636" stroke-width=".509" d="M0 0h3.381v3.345H0z" transform="matrix(.86906 .4947 0 1 329.137 359.387)"/><path fill="#fff" stroke="#363636" stroke-width=".509" d="M0 0h3.381v3.345H0z" transform="matrix(.86906 -.4947 0 1 335.016 361.064)"/><path fill="#fff" stroke="#363636" stroke-width=".509" d="M328.527 358.554c0 .326.233.622.609.836v3.345c-.376-.214-.609-.509-.609-.836v-3.345ZM332.074 361.064c.812.462 2.127.462 2.939 0v3.346c-.812.462-2.127.462-2.939 0v-3.346ZM338.562 358.554c0 .326-.233.622-.609.836v3.345c.376-.214.609-.509.609-.836v-3.345ZM343.944 349.355c.814-.464 2.134-.464 2.948 0l2.929 1.667c.814.463.814 1.215 0 1.678l-2.929 1.667c-.814.464-2.134.464-2.948 0l-2.929-1.667c-.814-.463-.814-1.215 0-1.678l2.929-1.667Z"/><path fill="#fff" stroke="#363636" stroke-width=".509" d="M0 0h3.381v3.345H0z" transform="matrix(.86906 .4947 0 1 341.008 352.696)"/><path fill="#fff" stroke="#363636" stroke-width=".509" d="M0 0h3.381v3.345H0z" transform="matrix(.86906 -.4947 0 1 346.887 354.374)"/><path fill="#fff" stroke="#363636" stroke-width=".509" d="M340.398 351.863c0 .327.233.623.609.837v3.345c-.376-.214-.609-.51-.609-.836v-3.346ZM343.945 354.374c.812.462 2.127.462 2.939 0v3.345c-.812.462-2.127.462-2.939 0v-3.345ZM350.433 351.863c0 .327-.233.623-.609.837v3.345c.376-.214.609-.51.609-.836v-3.346ZM355.822 342.664c.815-.464 2.135-.464 2.949 0l2.928 1.666c.815.464.815 1.215 0 1.679l-2.928 1.667c-.814.463-2.134.463-2.949 0l-2.928-1.667c-.814-.464-.814-1.215 0-1.679l2.928-1.666Z"/><path fill="#fff" stroke="#363636" stroke-width=".509" d="M0 0h3.381v3.345H0z" transform="matrix(.86906 .4947 0 1 352.887 346.005)"/><path fill="#fff" stroke="#363636" stroke-width=".509" d="M0 0h3.381v3.345H0z" transform="matrix(.86906 -.4947 0 1 358.766 347.683)"/><path fill="#fff" stroke="#363636" stroke-width=".509" d="M352.277 345.172c0 .326.233.622.609.836v3.346c-.376-.214-.609-.51-.609-.837v-3.345ZM355.824 347.683c.812.462 2.127.462 2.939 0v3.345c-.812.462-2.127.462-2.939 0v-3.345ZM362.312 345.172c0 .326-.233.622-.609.836v3.346c.376-.214.609-.51.609-.837v-3.345ZM367.697 335.981c.815-.464 2.135-.464 2.949 0l2.928 1.667c.815.463.815 1.215 0 1.678l-2.928 1.667c-.814.464-2.134.464-2.949 0l-2.928-1.667c-.814-.463-.814-1.215 0-1.678l2.928-1.667Z"/><path fill="#fff" stroke="#363636" stroke-width=".509" d="M0 0h3.381v3.345H0z" transform="matrix(.86906 .4947 0 1 364.762 339.322)"/><path fill="#fff" stroke="#363636" stroke-width=".509" d="M0 0h3.381v3.345H0z" transform="matrix(.86906 -.4947 0 1 370.641 341)"/><path fill="#fff" stroke="#363636" stroke-width=".509" d="M364.152 338.489c0 .327.233.623.609.837v3.345c-.376-.214-.609-.51-.609-.836v-3.346ZM367.699 341c.812.462 2.127.462 2.939 0v3.345c-.812.462-2.127.462-2.939 0V341ZM374.187 338.489c0 .327-.233.623-.609.837v3.345c.376-.214.609-.51.609-.836v-3.346ZM379.576 329.275c.815-.464 2.135-.464 2.949 0l2.928 1.667c.815.463.815 1.215 0 1.678l-2.928 1.667c-.814.464-2.134.464-2.949 0l-2.928-1.667c-.814-.463-.814-1.215 0-1.678l2.928-1.667Z"/><path fill="#fff" stroke="#363636" stroke-width=".509" d="M0 0h3.381v3.345H0z" transform="matrix(.86906 .4947 0 1 376.641 332.616)"/><path fill="#fff" stroke="#363636" stroke-width=".509" d="M0 0h3.381v3.345H0z" transform="matrix(.86906 -.4947 0 1 382.52 334.294)"/><path fill="#fff" stroke="#363636" stroke-width=".509" d="M376.031 331.783c0 .327.233.623.609.837v3.345c-.376-.214-.609-.51-.609-.836v-3.346ZM379.578 334.294c.812.462 2.127.462 2.939 0v3.345c-.812.462-2.127.462-2.939 0v-3.345ZM386.066 331.783c0 .327-.233.623-.609.837v3.345c.376-.214.609-.51.609-.836v-3.346ZM391.451 322.584c.815-.463 2.135-.463 2.949 0l2.928 1.667c.815.464.815 1.215 0 1.679l-2.928 1.667c-.814.463-2.134.463-2.949 0l-2.928-1.667c-.814-.464-.814-1.215 0-1.679l2.928-1.667Z"/><path fill="#fff" stroke="#363636" stroke-width=".509" d="M0 0h3.381v3.345H0z" transform="matrix(.86906 .4947 0 1 388.516 325.926)"/><path fill="#fff" stroke="#363636" stroke-width=".509" d="M0 0h3.381v3.345H0z" transform="matrix(.86906 -.4947 0 1 394.395 327.604)"/><path fill="#fff" stroke="#363636" stroke-width=".509" d="M387.906 325.093c0 .326.233.622.609.836v3.346c-.376-.215-.609-.51-.609-.837v-3.345ZM391.453 327.604c.812.461 2.127.461 2.939 0v3.345c-.812.462-2.127.462-2.939 0v-3.345ZM397.941 325.093c0 .326-.233.622-.609.836v3.346c.376-.215.609-.51.609-.837v-3.345ZM296.44 389.478c.814-.464 2.134-.464 2.948 0l2.929 1.667c.814.463.814 1.215 0 1.678l-2.929 1.667c-.814.464-2.134.464-2.948 0l-2.929-1.667c-.814-.463-.814-1.215 0-1.678l2.929-1.667Z"/><path fill="#fff" stroke="#363636" stroke-width=".509" d="M0 0h3.381v3.345H0z" transform="matrix(.86906 .4947 0 1 293.504 392.819)"/><path fill="#fff" stroke="#363636" stroke-width=".509" d="M0 0h3.381v3.345H0z" transform="matrix(.86906 -.4947 0 1 299.383 394.497)"/><path fill="#fff" stroke="#363636" stroke-width=".509" d="M292.895 391.986c0 .327.232.623.608.837v3.345c-.376-.214-.608-.51-.608-.836v-3.346ZM296.441 394.497c.812.462 2.127.462 2.939 0v3.345c-.812.462-2.127.462-2.939 0v-3.345ZM302.929 391.986c0 .327-.233.623-.609.837v3.345c.376-.214.609-.51.609-.836v-3.346ZM308.315 382.784c.814-.464 2.134-.464 2.948 0l2.929 1.666c.814.464.814 1.216 0 1.679l-2.929 1.667c-.814.463-2.134.463-2.948 0l-2.929-1.667c-.814-.463-.814-1.215 0-1.679l2.929-1.666Z"/><path fill="#fff" stroke="#363636" stroke-width=".509" d="M0 0h3.381v3.345H0z" transform="matrix(.86906 .4947 0 1 305.379 386.125)"/><path fill="#fff" stroke="#363636" stroke-width=".509" d="M0 0h3.381v3.345H0z" transform="matrix(.86906 -.4947 0 1 311.258 387.803)"/><path fill="#fff" stroke="#363636" stroke-width=".509" d="M304.77 385.292c0 .327.232.622.608.836v3.346c-.376-.214-.608-.51-.608-.837v-3.345ZM308.316 387.803c.812.462 2.127.462 2.939 0v3.345c-.812.462-2.127.462-2.939 0v-3.345ZM314.804 385.292c0 .327-.233.622-.609.836v3.346c.376-.214.609-.51.609-.837v-3.345ZM320.194 376.109c.814-.464 2.134-.464 2.948 0l2.929 1.667c.814.463.814 1.215 0 1.678l-2.929 1.667c-.814.464-2.134.464-2.948 0l-2.929-1.667c-.814-.463-.814-1.215 0-1.678l2.929-1.667Z"/><path fill="#fff" stroke="#363636" stroke-width=".509" d="M0 0h3.381v3.345H0z" transform="matrix(.86906 .4947 0 1 317.258 379.45)"/><path fill="#fff" stroke="#363636" stroke-width=".509" d="M0 0h3.381v3.345H0z" transform="matrix(.86906 -.4947 0 1 323.137 381.128)"/><path fill="#fff" stroke="#363636" stroke-width=".509" d="M316.648 378.617c0 .327.233.622.609.837v3.345c-.376-.214-.609-.51-.609-.836v-3.346ZM320.195 381.128c.812.462 2.127.462 2.939 0v3.345c-.812.462-2.127.462-2.939 0v-3.345ZM326.683 378.617c0 .327-.233.622-.609.837v3.345c.376-.214.609-.51.609-.836v-3.346ZM332.069 369.414c.814-.463 2.134-.463 2.948 0l2.929 1.667c.814.464.814 1.215 0 1.679l-2.929 1.667c-.814.463-2.134.463-2.948 0l-2.929-1.667c-.814-.464-.814-1.215 0-1.679l2.929-1.667Z"/><path fill="#fff" stroke="#363636" stroke-width=".509" d="M0 0h3.381v3.345H0z" transform="matrix(.86906 .4947 0 1 329.133 372.756)"/><path fill="#fff" stroke="#363636" stroke-width=".509" d="M0 0h3.381v3.345H0z" transform="matrix(.86906 -.4947 0 1 335.012 374.434)"/><path fill="#fff" stroke="#363636" stroke-width=".509" d="M328.523 371.923c0 .326.233.622.609.836v3.346c-.376-.214-.609-.51-.609-.837v-3.345ZM332.07 374.434c.812.461 2.127.461 2.939 0v3.345c-.812.462-2.127.462-2.939 0v-3.345ZM338.558 371.923c0 .326-.233.622-.609.836v3.346c.376-.214.609-.51.609-.837v-3.345ZM343.944 362.724c.814-.463 2.134-.463 2.948 0l2.929 1.667c.814.463.814 1.215 0 1.678l-2.929 1.667c-.814.464-2.134.464-2.948 0l-2.929-1.667c-.814-.463-.814-1.215 0-1.678l2.929-1.667Z"/><path fill="#fff" stroke="#363636" stroke-width=".509" d="M0 0h3.381v3.345H0z" transform="matrix(.86906 .4947 0 1 341.008 366.065)"/><path fill="#fff" stroke="#363636" stroke-width=".509" d="M0 0h3.381v3.345H0z" transform="matrix(.86906 -.4947 0 1 346.887 367.743)"/><path fill="#fff" stroke="#363636" stroke-width=".509" d="M340.398 365.232c0 .327.233.623.609.837v3.345c-.376-.214-.609-.51-.609-.836v-3.346ZM343.945 367.743c.812.462 2.127.462 2.939 0v3.346c-.812.461-2.127.461-2.939 0v-3.346ZM350.433 365.232c0 .327-.233.623-.609.837v3.345c.376-.214.609-.51.609-.836v-3.346ZM355.819 356.03c.814-.464 2.134-.464 2.948 0l2.929 1.667c.814.463.814 1.215 0 1.678l-2.929 1.667c-.814.463-2.134.463-2.948 0l-2.929-1.667c-.814-.463-.814-1.215 0-1.678l2.929-1.667Z"/><path fill="#fff" stroke="#363636" stroke-width=".509" d="M0 0h3.381v3.345H0z" transform="matrix(.86906 .4947 0 1 352.883 359.371)"/><path fill="#fff" stroke="#363636" stroke-width=".509" d="M0 0h3.381v3.345H0z" transform="matrix(.86906 -.4947 0 1 358.762 361.049)"/><path fill="#fff" stroke="#363636" stroke-width=".509" d="M352.273 358.538c0 .327.233.622.609.836v3.346c-.376-.214-.609-.51-.609-.837v-3.345ZM355.82 361.049c.812.462 2.127.462 2.939 0v3.345c-.812.462-2.127.462-2.939 0v-3.345ZM362.308 358.538c0 .327-.233.622-.609.836v3.346c.376-.214.609-.51.609-.837v-3.345ZM367.697 349.342c.815-.463 2.135-.463 2.949 0l2.928 1.667c.815.464.815 1.215 0 1.679l-2.928 1.666c-.814.464-2.134.464-2.949 0l-2.928-1.666c-.814-.464-.814-1.215 0-1.679l2.928-1.667Z"/><path fill="#fff" stroke="#363636" stroke-width=".509" d="M0 0h3.381v3.345H0z" transform="matrix(.86906 .4947 0 1 364.762 352.684)"/><path fill="#fff" stroke="#363636" stroke-width=".509" d="M0 0h3.381v3.345H0z" transform="matrix(.86906 -.4947 0 1 370.641 354.361)"/><path fill="#fff" stroke="#363636" stroke-width=".509" d="M364.152 351.851c0 .326.233.622.609.836v3.345c-.376-.214-.609-.509-.609-.836v-3.345ZM367.699 354.361c.812.462 2.127.462 2.939 0v3.346c-.812.462-2.127.462-2.939 0v-3.346ZM374.187 351.851c0 .326-.233.622-.609.836v3.345c.376-.214.609-.509.609-.836v-3.345ZM379.572 342.66c.815-.464 2.135-.464 2.949 0l2.928 1.666c.815.464.815 1.215 0 1.679l-2.928 1.667c-.814.463-2.134.463-2.949 0l-2.928-1.667c-.814-.464-.814-1.215 0-1.679l2.928-1.666Z"/><path fill="#fff" stroke="#363636" stroke-width=".509" d="M0 0h3.381v3.345H0z" transform="matrix(.86906 .4947 0 1 376.637 346.001)"/><path fill="#fff" stroke="#363636" stroke-width=".509" d="M0 0h3.381v3.345H0z" transform="matrix(.86906 -.4947 0 1 382.516 347.679)"/><path fill="#fff" stroke="#363636" stroke-width=".509" d="M376.027 345.168c0 .327.233.622.609.836v3.346c-.376-.214-.609-.51-.609-.837v-3.345ZM379.574 347.679c.812.462 2.127.462 2.939 0v3.345c-.812.462-2.127.462-2.939 0v-3.345ZM386.062 345.168c0 .327-.233.622-.609.836v3.346c.376-.214.609-.51.609-.837v-3.345ZM391.451 335.969c.815-.463 2.135-.463 2.949 0l2.928 1.667c.815.464.815 1.215 0 1.679l-2.928 1.666c-.814.464-2.134.464-2.949 0l-2.928-1.666c-.814-.464-.814-1.215 0-1.679l2.928-1.667Z"/><path fill="#fff" stroke="#363636" stroke-width=".509" d="M0 0h3.381v3.345H0z" transform="matrix(.86906 .4947 0 1 388.516 339.311)"/><path fill="#fff" stroke="#363636" stroke-width=".509" d="M0 0h3.381v3.345H0z" transform="matrix(.86906 -.4947 0 1 394.395 340.988)"/><path fill="#fff" stroke="#363636" stroke-width=".509" d="M387.906 338.478c0 .326.233.622.609.836v3.345c-.376-.214-.609-.509-.609-.836v-3.345ZM391.453 340.988c.812.462 2.127.462 2.939 0v3.346c-.812.462-2.127.462-2.939 0v-3.346ZM397.941 338.478c0 .326-.233.622-.609.836v3.345c.376-.214.609-.509.609-.836v-3.345ZM403.322 329.259c.815-.463 2.135-.463 2.949 0l2.928 1.667c.815.464.815 1.215 0 1.679l-2.928 1.666c-.814.464-2.134.464-2.949 0l-2.928-1.666c-.814-.464-.814-1.215 0-1.679l2.928-1.667Z"/><path fill="#fff" stroke="#363636" stroke-width=".509" d="M0 0h3.381v3.345H0z" transform="matrix(.86906 .4947 0 1 400.387 332.601)"/><path fill="#fff" stroke="#363636" stroke-width=".509" d="M0 0h3.381v3.345H0z" transform="matrix(.86906 -.4947 0 1 406.266 334.278)"/><path fill="#fff" stroke="#363636" stroke-width=".509" d="M399.777 331.768c0 .326.233.622.609.836v3.345c-.376-.214-.609-.509-.609-.836v-3.345ZM403.324 334.278c.812.462 2.127.462 2.939 0v3.346c-.812.462-2.127.462-2.939 0v-3.346ZM409.812 331.768c0 .326-.233.622-.609.836v3.345c.376-.214.609-.509.609-.836v-3.345ZM308.319 396.188c.814-.464 2.134-.464 2.948 0l2.929 1.667c.814.463.814 1.215 0 1.678l-2.929 1.667c-.814.464-2.134.464-2.948 0l-2.929-1.667c-.814-.463-.814-1.215 0-1.678l2.929-1.667Z"/><path fill="#fff" stroke="#363636" stroke-width=".509" d="M0 0h3.381v3.345H0z" transform="matrix(.86906 .4947 0 1 305.383 399.529)"/><path fill="#fff" stroke="#363636" stroke-width=".509" d="M0 0h3.381v3.345H0z" transform="matrix(.86906 -.4947 0 1 311.262 401.207)"/><path fill="#fff" stroke="#363636" stroke-width=".509" d="M304.773 398.696c0 .327.233.623.609.837v3.345c-.376-.214-.609-.51-.609-.836v-3.346ZM308.32 401.207c.812.462 2.127.462 2.939 0v3.345c-.812.462-2.127.462-2.939 0v-3.345ZM314.808 398.696c0 .327-.233.623-.609.837v3.345c.376-.214.609-.51.609-.836v-3.346ZM320.194 389.493c.814-.464 2.134-.464 2.948 0l2.929 1.666c.814.464.814 1.215 0 1.679l-2.929 1.667c-.814.463-2.134.463-2.948 0l-2.929-1.667c-.814-.464-.814-1.215 0-1.679l2.929-1.666Z"/><path fill="#fff" stroke="#363636" stroke-width=".509" d="M0 0h3.381v3.345H0z" transform="matrix(.86906 .4947 0 1 317.258 392.834)"/><path fill="#fff" stroke="#363636" stroke-width=".509" d="M0 0h3.381v3.345H0z" transform="matrix(.86906 -.4947 0 1 323.137 394.512)"/><path fill="#fff" stroke="#363636" stroke-width=".509" d="M316.648 392.001c0 .327.233.622.609.836v3.346c-.376-.214-.609-.51-.609-.837v-3.345ZM320.195 394.512c.812.462 2.127.462 2.939 0v3.345c-.812.462-2.127.462-2.939 0v-3.345ZM326.683 392.001c0 .327-.233.622-.609.836v3.346c.376-.214.609-.51.609-.837v-3.345ZM332.072 382.814c.815-.464 2.135-.464 2.949 0l2.928 1.667c.815.463.815 1.215 0 1.678l-2.928 1.667c-.814.464-2.134.464-2.949 0l-2.928-1.667c-.814-.463-.814-1.215 0-1.678l2.928-1.667Z"/><path fill="#fff" stroke="#363636" stroke-width=".509" d="M0 0h3.381v3.345H0z" transform="matrix(.86906 .4947 0 1 329.137 386.155)"/><path fill="#fff" stroke="#363636" stroke-width=".509" d="M0 0h3.381v3.345H0z" transform="matrix(.86906 -.4947 0 1 335.016 387.833)"/><path fill="#fff" stroke="#363636" stroke-width=".509" d="M328.527 385.322c0 .327.233.623.609.837v3.345c-.376-.214-.609-.51-.609-.836v-3.346ZM332.074 387.833c.812.462 2.127.462 2.939 0v3.345c-.812.462-2.127.462-2.939 0v-3.345ZM338.562 385.322c0 .327-.233.623-.609.837v3.345c.376-.214.609-.51.609-.836v-3.346ZM391.451 349.369c.815-.464 2.135-.464 2.949 0l2.928 1.666c.815.464.815 1.215 0 1.679l-2.928 1.667c-.814.463-2.134.463-2.949 0l-2.928-1.667c-.814-.464-.814-1.215 0-1.679l2.928-1.666Z"/><path fill="#fff" stroke="#363636" stroke-width=".509" d="M0 0h3.381v3.345H0z" transform="matrix(.86906 .4947 0 1 388.516 352.71)"/><path fill="#fff" stroke="#363636" stroke-width=".509" d="M0 0h3.381v3.345H0z" transform="matrix(.86906 -.4947 0 1 394.395 354.388)"/><path fill="#fff" stroke="#363636" stroke-width=".509" d="M387.906 351.877c0 .327.233.622.609.836v3.346c-.376-.214-.609-.51-.609-.837v-3.345ZM391.453 354.388c.812.462 2.127.462 2.939 0v3.345c-.812.462-2.127.462-2.939 0v-3.345ZM397.941 351.877c0 .327-.233.622-.609.836v3.346c.376-.214.609-.51.609-.837v-3.345ZM379.557 356.048c.814-.463 2.134-.463 2.949 0l2.928 1.667c.814.464.814 1.215 0 1.679l-37.167 21.156c-.814.464-2.134.464-2.948 0l-2.929-1.667c-.814-.463-.814-1.215 0-1.678l37.167-21.157Z"/><path fill="#fff" stroke="#363636" stroke-width=".509" d="M0 0h43.065v3.345H0z" transform="matrix(.86906 -.4947 0 1 348.012 380.7)"/><path fill="#fff" stroke="#363636" stroke-width=".509" d="M0 0h3.381v3.345H0z" transform="matrix(.86906 .4947 0 1 341.824 379.124)"/><path fill="#fff" stroke="#363636" stroke-width=".509" d="M341.223 378.291c0 .327.232.622.608.836v3.346c-.376-.214-.608-.51-.608-.837v-3.345ZM344.77 380.802c.811.462 2.127.462 2.938 0v3.345c-.811.462-2.127.462-2.938 0v-3.345ZM386.05 358.557c0 .326-.233.622-.609.836v3.345c.376-.214.609-.509.609-.836v-3.345ZM403.326 342.678c.815-.463 2.135-.463 2.949 0l2.928 1.667c.815.464.815 1.215 0 1.679l-2.928 1.666c-.814.464-2.134.464-2.949 0l-2.928-1.666c-.814-.464-.814-1.215 0-1.679l2.928-1.667Z"/><path fill="#fff" stroke="#363636" stroke-width=".509" d="M0 0h3.381v3.345H0z" transform="matrix(.86906 .4947 0 1 400.391 346.02)"/><path fill="#fff" stroke="#363636" stroke-width=".509" d="M0 0h3.381v3.345H0z" transform="matrix(.86906 -.4947 0 1 406.27 347.697)"/><path fill="#fff" stroke="#363636" stroke-width=".509" d="M399.781 345.187c0 .326.233.622.609.836v3.345c-.376-.214-.609-.509-.609-.836v-3.345ZM403.328 347.697c.812.462 2.127.462 2.939 0v3.346c-.812.462-2.127.462-2.939 0v-3.346ZM409.816 345.187c0 .326-.233.622-.609.836v3.345c.376-.214.609-.509.609-.836v-3.345ZM415.201 335.984c.815-.464 2.135-.464 2.949 0l2.928 1.667c.815.463.815 1.215 0 1.678l-2.928 1.667c-.814.464-2.134.464-2.949 0l-2.928-1.667c-.814-.463-.814-1.215 0-1.678l2.928-1.667Z"/><path fill="#fff" stroke="#363636" stroke-width=".509" d="M0 0h3.381v3.345H0z" transform="matrix(.86906 .4947 0 1 412.266 339.325)"/><path fill="#fff" stroke="#363636" stroke-width=".509" d="M0 0h3.381v3.345H0z" transform="matrix(.86906 -.4947 0 1 418.145 341.003)"/><path fill="#fff" stroke="#363636" stroke-width=".509" d="M411.656 338.492c0 .327.233.622.609.837v3.345c-.376-.214-.609-.51-.609-.836v-3.346ZM415.203 341.003c.812.462 2.127.462 2.939 0v3.345c-.812.462-2.127.462-2.939 0v-3.345ZM421.691 338.492c0 .327-.233.622-.609.837v3.345c.376-.214.609-.51.609-.836v-3.346Z"/><path fill="#fff" stroke="#363636" stroke-width="1.697" d="M216.938 250.026c0-7.496 5.28-16.579 11.795-20.287l115.989-66.025c6.514-3.708 11.795-.638 11.795 6.858v106.672c0 7.495-5.281 16.578-11.795 20.286l-115.989 66.025c-6.515 3.709-11.795.638-11.795-6.858V250.026Z"/><path fill="#fff" stroke="#363636" stroke-width="1.697" d="M0 0h3.381v107.053H0z" transform="matrix(.86906 .4947 0 1 214 248.158)"/><path fill="#fff" stroke="#363636" stroke-width="1.697" d="M0 0h133.559v3.381H0z" transform="scale(1.22904 .69961) rotate(-45 485.38 -58.721)"/><path fill="#fff" stroke="#363636" stroke-width="1.697" d="M216.939 356.887c0 3.424 1.147 6.196 3.442 7.502l-2.938-1.673c-2.295-1.306-3.443-4.077-3.443-7.502l2.939 1.673ZM216.939 249.83c0-7.39 5.262-16.377 11.754-20.072l-2.939-1.673C219.262 231.78 214 240.767 214 248.157l2.939 1.673ZM353.074 162.876c-2.295-1.306-5.303-.9-8.311.812l-2.939-1.673c3.008-1.712 6.016-2.118 8.312-.812l2.938 1.673Z"/><rect width="151.483" height="122.894" x=".435" y=".253" fill="#fff" stroke="#363636" rx="12.5" transform="matrix(.86906 -.4947 0 1 220.537 240.18)"/><path fill="#fff" stroke="#363636" d="M24.32 247.946c0-4.418 3.102-9.791 6.928-12l55.426-32c3.826-2.209 6.928-.418 6.928 4v204c0 4.419-3.102 9.791-6.928 12l-55.426 32c-3.826 2.209-6.928.419-6.928-4v-204Z"/><path fill="#fff" stroke="#363636" d="M0 0h20v204H0z" transform="matrix(.86603 .5 0 1 7 237.946)"/><path fill="#fff" stroke="#363636" d="M0 0h64v20H0z" transform="matrix(.86603 -.5 .86603 .5 13.928 225.946)"/><path fill="#fff" stroke="#363636" d="M24.32 451.946c0 2.048.677 3.705 2.03 4.486l-17.32-10c-1.354-.781-2.03-2.438-2.03-4.486l17.32 10ZM24.32 247.946c0-4.418 3.102-9.791 6.929-12l-17.32-10c-3.827 2.209-6.929 7.582-6.929 12l17.32 10ZM91.573 203.461c-1.353-.781-3.126-.538-4.899.486l-17.32-10c1.773-1.024 3.546-1.267 4.898-.486l17.321 10ZM231.67 55.679c0-4.419 3.102-9.791 6.928-12l56.993-32.905c3.827-2.21 6.929-.419 6.929 4V56.04c0 4.418-3.102 9.79-6.929 12l-56.993 32.905c-3.826 2.209-6.928.418-6.928-4V55.679Z"/><path fill="#fff" stroke="#363636" d="M0 0h6.545v44.178H0z" transform="matrix(.86603 .5 0 1 226 50.951)"/><path fill="#fff" stroke="#363636" d="M0 0h68.721v6.545H0z" transform="matrix(.86603 -.5 .86603 .5 231.67 41.134)"/><path fill="#fff" stroke="#363636" d="M231.668 98.4c0 1.675.553 3.031 1.66 3.67l-5.668-3.273c-1.107-.639-1.66-1.994-1.66-3.67l5.668 3.273ZM231.668 54.223c0-3.614 2.538-8.01 5.668-9.817l-5.668-3.272C228.538 42.94 226 47.336 226 50.95l5.668 3.272ZM300.859 9.65c-1.106-.64-2.557-.44-4.007.397l-5.668-3.273c1.45-.837 2.901-1.035 4.007-.397l5.668 3.273Z"/><path fill="#fff" stroke="#363636" stroke-width=".956" d="M258.941 62.797c0-4.225 2.947-9.397 6.582-11.55L296.481 32.9c3.635-2.154 6.582-.475 6.582 3.75v5.615c0 4.226-2.947 9.398-6.582 11.552l-30.958 18.345c-3.635 2.154-6.582.475-6.582-3.75v-5.616Z"/><path fill="#fff" stroke="#363636" stroke-width=".956" d="M0 0h3.419v6.972H0z" transform="matrix(.8603 .5098 0 1 256 60.389)"/><path fill="#fff" stroke="#363636" stroke-width=".956" d="M0 0h37.61v3.419H0z" transform="matrix(.8603 -.5098 .8603 .5098 261.883 49.926)"/><path fill="#fff" stroke="#363636" stroke-width=".956" d="M258.941 69.099c0 1.784.575 3.228 1.724 3.909l-2.942-1.743c-1.149-.681-1.723-2.125-1.723-3.91l2.941 1.743ZM258.941 62.127c0-3.85 2.634-8.533 5.883-10.458l-2.941-1.743C258.634 51.85 256 56.533 256 60.384l2.941 1.743ZM301.343 32.073c-1.148-.68-2.654-.47-4.159.423l-2.942-1.743c1.506-.892 3.011-1.104 4.16-.423l2.941 1.743Z"/><ellipse cx="6.838" cy="6.972" fill="#fff" stroke="#363636" stroke-width=".956" rx="6.838" ry="6.972" transform="matrix(.8603 -.5098 0 1 263.188 59.519)"/><path fill="#fff" stroke="#363636" stroke-width=".956" d="M263.188 66.495c0 1.784.574 3.228 1.723 3.91l-2.942-1.744c-1.149-.68-1.723-2.125-1.723-3.909l2.942 1.743Z"/><path fill="#fff" stroke="#363636" stroke-width=".956" d="M263.188 66.496c0-3.851 2.633-8.534 5.882-10.459l-2.941-1.743c-3.249 1.925-5.883 6.608-5.883 10.458l2.942 1.744ZM273.23 55.611c-1.149-.68-2.654-.47-4.16.423l-2.941-1.743c1.505-.892 3.011-1.104 4.16-.423l2.941 1.743Z"/><defs><clipPath id="a"><path fill="#fff" d="M236 66h68v156h-68z"/></clipPath><clipPath id="b"><path fill="#fff" d="M94 202h120v256H94z"/></clipPath></defs></svg>