<svg xmlns="http://www.w3.org/2000/svg" viewBox="0 0 497 497" fill="none"><g clip-path="url(#a)"><circle cx="11.62" cy="11.62" r="11.62" fill="#fff" stroke="#363636" stroke-width="1.162" transform="matrix(.86603 .5 -.86603 .5 56.295 350.649)"/><path fill="#fff" stroke="#363636" stroke-width="1.162" d="M46.234 368.078c5.558 3.209 14.568 3.209 20.126 0v2.905c-5.558 3.209-14.568 3.209-20.126 0v-2.905ZM70.53 362.269c0 2.268-1.593 4.322-4.169 5.809v2.905c2.576-1.487 4.168-3.541 4.168-5.81v-2.904Z"/><circle cx="11.62" cy="11.62" r="11.62" fill="#fff" stroke="#363636" stroke-width="1.162" transform="matrix(.86603 .5 -.86603 .5 107.42 320.438)"/><path fill="#fff" stroke="#363636" stroke-width="1.162" d="M93.19 332.058c0 2.268 1.592 4.323 4.168 5.809v2.905c-2.576-1.487-4.169-3.541-4.169-5.81v-2.904Z"/><path fill="#fff" stroke="#363636" stroke-width="1.162" d="M97.356 337.867c5.557 3.209 14.567 3.209 20.125 0v2.905c-5.558 3.209-14.568 3.209-20.125 0v-2.905ZM121.653 332.058c0 2.268-1.593 4.323-4.169 5.809v2.905c2.576-1.487 4.169-3.541 4.169-5.81v-2.904Z"/><circle cx="11.62" cy="11.62" r="11.62" fill="#fff" stroke="#363636" stroke-width="1.162" transform="matrix(.86603 .5 -.86603 .5 157.383 291.39)"/><path fill="#fff" stroke="#363636" stroke-width="1.162" d="M143.152 303.009c0 2.269 1.593 4.323 4.168 5.81v2.904c-2.575-1.486-4.168-3.54-4.168-5.809v-2.905ZM147.32 308.819c5.558 3.209 14.568 3.209 20.126 0v2.905c-5.558 3.209-14.568 3.209-20.126 0v-2.905ZM171.617 303.009c0 2.269-1.592 4.323-4.168 5.81v2.904c2.576-1.486 4.168-3.54 4.168-5.809v-2.905Z"/><circle cx="11.62" cy="11.62" r="11.62" fill="#fff" stroke="#363636" stroke-width="1.162" transform="matrix(.86603 .5 -.86603 .5 207.348 263.502)"/><path fill="#fff" stroke="#363636" stroke-width="1.162" d="M193.117 275.122c0 2.269 1.593 4.323 4.168 5.81v2.905c-2.575-1.487-4.168-3.541-4.168-5.81v-2.905Z"/><path fill="#fff" stroke="#363636" stroke-width="1.162" d="M197.283 280.932c5.558 3.208 14.568 3.208 20.126 0v2.905c-5.558 3.208-14.568 3.208-20.126 0v-2.905ZM221.578 275.122c0 2.269-1.593 4.323-4.168 5.81v2.905c2.575-1.487 4.168-3.541 4.168-5.81v-2.905Z"/><circle cx="11.62" cy="11.62" r="11.62" fill="#fff" stroke="#363636" stroke-width="1.162" transform="matrix(.86603 .5 -.86603 .5 258.477 233.292)"/><path fill="#fff" stroke="#363636" stroke-width="1.162" d="M244.246 244.911c0 2.269 1.593 4.323 4.168 5.81v2.905c-2.575-1.487-4.168-3.541-4.168-5.81v-2.905Z"/><path fill="#fff" stroke="#363636" stroke-width="1.162" d="M248.412 250.721c5.558 3.208 14.568 3.208 20.126 0v2.905c-5.558 3.208-14.568 3.208-20.126 0v-2.905ZM272.707 244.911c0 2.269-1.593 4.323-4.168 5.81v2.905c2.575-1.487 4.168-3.541 4.168-5.81v-2.905Z"/><path stroke="#000" stroke-width="1.078" d="M717.615 235.018-44.616 675.092"/></g><path fill="#fff" stroke="#363636" stroke-width="1.829" d="M259.314 296.093c0-2.02 1.419-4.476 3.168-5.486l136.204-78.638c1.749-1.01 3.168-.191 3.168 1.829v5.486c0 2.02-1.419 4.477-3.168 5.487l-136.204 78.637c-1.749 1.01-3.168.191-3.168-1.829v-5.486Z"/><path fill="#fff" stroke="#363636" stroke-width="1.829" d="M0 0h128.014v5.486H0z" transform="matrix(.86603 .5 0 1 148.451 232.086)"/><path fill="#fff" stroke="#363636" stroke-width="1.829" d="M0 0h157.275v128.014H0z" transform="matrix(.86603 -.5 .86603 .5 151.615 226.6)"/><path fill="#fff" stroke="#363636" stroke-width="1.829" d="M259.315 301.579c0 .937.309 1.694.928 2.051l-110.864-64.007c-.619-.357-.928-1.115-.928-2.051l110.864 64.007ZM259.315 296.093c0-2.02 1.418-4.476 3.167-5.486L151.619 226.6c-1.75 1.01-3.168 3.466-3.168 5.486l110.864 64.007ZM400.928 211.745c-.619-.358-1.429-.247-2.24.221l-110.864-64.007c.811-.468 1.622-.579 2.24-.222l110.864 64.008Z"/><path fill="#fff" stroke="#363636" stroke-width=".549" d="M171.492 219.764c.875-.505 2.293-.505 3.168 0l3.167 1.829c.875.505.875 1.324 0 1.829l-3.167 1.828c-.875.505-2.293.505-3.168 0l-3.167-1.828c-.875-.505-.875-1.324 0-1.829l3.167-1.829Z"/><path fill="#fff" stroke="#363636" stroke-width=".549" d="M0 0h3.658v3.658H0z" transform="matrix(.86603 .5 0 1 168.328 223.422)"/><path fill="#fff" stroke="#363636" stroke-width=".549" d="M0 0h3.658v3.658H0z" transform="matrix(.86603 -.5 0 1 174.662 225.25)"/><path fill="#fff" stroke="#363636" stroke-width=".549" d="M167.668 222.507c0 .357.251.68.656.914v3.658c-.405-.234-.656-.558-.656-.915v-3.657ZM171.492 225.25c.875.505 2.293.505 3.168 0v3.658c-.875.505-2.293.505-3.168 0v-3.658ZM178.482 222.507c0 .357-.251.68-.656.914v3.658c.405-.234.656-.558.656-.915v-3.657ZM184.293 212.448c.875-.505 2.293-.505 3.168 0l3.167 1.828c.875.505.875 1.324 0 1.829l-3.167 1.829c-.875.505-2.293.505-3.168 0l-3.167-1.829c-.875-.505-.875-1.324 0-1.829l3.167-1.828Z"/><path fill="#fff" stroke="#363636" stroke-width=".549" d="M0 0h3.658v3.658H0z" transform="matrix(.86603 .5 0 1 181.129 216.104)"/><path fill="#fff" stroke="#363636" stroke-width=".549" d="M0 0h3.658v3.658H0z" transform="matrix(.86603 -.5 0 1 187.463 217.934)"/><path fill="#fff" stroke="#363636" stroke-width=".549" d="M180.469 215.19c0 .358.25.681.656.915v3.657c-.406-.234-.656-.557-.656-.914v-3.658ZM184.293 217.934c.875.505 2.293.505 3.168 0v3.657c-.875.505-2.293.505-3.168 0v-3.657ZM191.283 215.19c0 .358-.251.681-.656.915v3.657c.405-.234.656-.557.656-.914v-3.658ZM197.096 205.131c.875-.505 2.293-.505 3.167 0l3.168 1.829c.875.505.875 1.324 0 1.829l-3.168 1.829c-.874.505-2.292.505-3.167 0l-3.168-1.829c-.874-.505-.874-1.324 0-1.829l3.168-1.829Z"/><path fill="#fff" stroke="#363636" stroke-width=".549" d="M0 0h3.658v3.658H0z" transform="matrix(.86603 .5 0 1 193.93 208.789)"/><path fill="#fff" stroke="#363636" stroke-width=".549" d="M0 0h3.658v3.658H0z" transform="matrix(.86603 -.5 0 1 200.266 210.618)"/><path fill="#fff" stroke="#363636" stroke-width=".549" d="M193.271 207.874c0 .357.251.68.657.914v3.658c-.406-.234-.657-.557-.657-.914v-3.658ZM197.096 210.618c.874.505 2.293.505 3.167 0v3.658c-.874.505-2.293.505-3.167 0v-3.658ZM204.086 207.874c0 .357-.251.68-.656.914v3.658c.405-.234.656-.557.656-.914v-3.658ZM209.899 197.82c.874-.505 2.292-.505 3.167 0l3.168 1.828c.874.505.874 1.324 0 1.829l-3.168 1.829c-.875.505-2.293.505-3.167 0l-3.168-1.829c-.875-.505-.875-1.324 0-1.829l3.168-1.828Z"/><path fill="#fff" stroke="#363636" stroke-width=".549" d="M0 0h3.658v3.658H0z" transform="matrix(.86603 .5 0 1 206.732 201.477)"/><path fill="#fff" stroke="#363636" stroke-width=".549" d="M0 0h3.658v3.658H0z" transform="matrix(.86603 -.5 0 1 213.068 203.306)"/><path fill="#fff" stroke="#363636" stroke-width=".549" d="M206.074 200.562c0 .358.251.681.656.915v3.657c-.405-.234-.656-.557-.656-.914v-3.658ZM209.898 203.306c.875.505 2.293.505 3.168 0v3.657c-.875.505-2.293.505-3.168 0v-3.657ZM216.888 200.562c0 .358-.25.681-.656.915v3.657c.406-.234.656-.557.656-.914v-3.658ZM222.697 190.503c.875-.505 2.293-.505 3.168 0l3.168 1.829c.874.505.874 1.324 0 1.829l-3.168 1.829c-.875.505-2.293.505-3.168 0l-3.167-1.829c-.875-.505-.875-1.324 0-1.829l3.167-1.829Z"/><path fill="#fff" stroke="#363636" stroke-width=".549" d="M0 0h3.658v3.658H0z" transform="matrix(.86603 .5 0 1 219.531 194.161)"/><path fill="#fff" stroke="#363636" stroke-width=".549" d="M0 0h3.658v3.658H0z" transform="matrix(.86603 -.5 0 1 225.867 195.99)"/><path fill="#fff" stroke="#363636" stroke-width=".549" d="M218.873 193.246c0 .357.251.68.656.914v3.658c-.405-.234-.656-.557-.656-.914v-3.658ZM222.695 195.99c.875.505 2.293.505 3.168 0v3.658c-.875.505-2.293.505-3.168 0v-3.658ZM229.687 193.246c0 .357-.25.68-.656.914v3.658c.406-.234.656-.557.656-.914v-3.658ZM235.498 183.187c.875-.505 2.293-.505 3.168 0l3.167 1.829c.875.505.875 1.323 0 1.828l-3.167 1.829c-.875.505-2.293.505-3.168 0l-3.167-1.829c-.875-.505-.875-1.323 0-1.828l3.167-1.829Z"/><path fill="#fff" stroke="#363636" stroke-width=".549" d="M0 0h3.658v3.658H0z" transform="matrix(.86603 .5 0 1 232.332 186.844)"/><path fill="#fff" stroke="#363636" stroke-width=".549" d="M0 0h3.658v3.658H0z" transform="matrix(.86603 -.5 0 1 238.668 188.673)"/><path fill="#fff" stroke="#363636" stroke-width=".549" d="M231.674 185.93c0 .357.251.68.656.914v3.658c-.405-.234-.656-.558-.656-.915v-3.657ZM235.496 188.673c.875.505 2.293.505 3.168 0v3.657c-.875.505-2.293.505-3.168 0v-3.657ZM242.488 185.93c0 .357-.251.68-.656.914v3.658c.405-.234.656-.558.656-.915v-3.657ZM248.301 175.87c.875-.505 2.293-.505 3.168 0l3.167 1.829c.875.505.875 1.324 0 1.829l-3.167 1.829c-.875.505-2.293.505-3.168 0l-3.168-1.829c-.874-.505-.874-1.324 0-1.829l3.168-1.829Z"/><path fill="#fff" stroke="#363636" stroke-width=".549" d="M0 0h3.658v3.658H0z" transform="matrix(.86603 .5 0 1 245.135 179.527)"/><path fill="#fff" stroke="#363636" stroke-width=".549" d="M0 0h3.658v3.658H0z" transform="matrix(.86603 -.5 0 1 251.469 181.356)"/><path fill="#fff" stroke="#363636" stroke-width=".549" d="M244.477 178.613c0 .357.25.681.656.915v3.657c-.406-.234-.656-.557-.656-.914v-3.658ZM248.299 181.356c.875.505 2.293.505 3.167 0v3.658c-.874.505-2.292.505-3.167 0v-3.658ZM255.291 178.613c0 .357-.251.681-.656.915v3.657c.405-.234.656-.557.656-.914v-3.658ZM261.104 168.559c.874-.505 2.293-.505 3.167 0l3.168 1.829c.874.505.874 1.323 0 1.828l-3.168 1.829c-.874.505-2.293.505-3.167 0l-3.168-1.829c-.874-.505-.874-1.323 0-1.828l3.168-1.829Z"/><path fill="#fff" stroke="#363636" stroke-width=".549" d="M0 0h3.658v3.658H0z" transform="matrix(.86603 .5 0 1 257.938 172.216)"/><path fill="#fff" stroke="#363636" stroke-width=".549" d="M0 0h3.658v3.658H0z" transform="matrix(.86603 -.5 0 1 264.271 174.045)"/><path fill="#fff" stroke="#363636" stroke-width=".549" d="M257.277 171.302c0 .357.251.68.656.914v3.658c-.405-.234-.656-.558-.656-.915v-3.657ZM261.102 174.045c.874.505 2.292.505 3.167 0v3.657c-.875.505-2.293.505-3.167 0v-3.657ZM268.094 171.302c0 .357-.251.68-.656.914v3.658c.405-.234.656-.558.656-.915v-3.657ZM273.903 161.243c.874-.505 2.292-.505 3.167 0l3.168 1.828c.874.505.874 1.324 0 1.829l-3.168 1.829c-.875.505-2.293.505-3.167 0l-3.168-1.829c-.875-.505-.875-1.324 0-1.829l3.168-1.828Z"/><path fill="#fff" stroke="#363636" stroke-width=".549" d="M0 0h3.658v3.658H0z" transform="matrix(.86603 .5 0 1 270.738 164.899)"/><path fill="#fff" stroke="#363636" stroke-width=".549" d="M0 0h3.658v3.658H0z" transform="matrix(.86603 -.5 0 1 277.072 166.729)"/><path fill="#fff" stroke="#363636" stroke-width=".549" d="M270.078 163.985c0 .357.251.681.656.915v3.657c-.405-.234-.656-.557-.656-.914v-3.658ZM273.902 166.729c.875.505 2.293.505 3.168 0v3.657c-.875.505-2.293.505-3.168 0v-3.657ZM280.892 163.985c0 .357-.25.681-.656.915v3.657c.406-.234.656-.557.656-.914v-3.658ZM286.705 153.926c.875-.505 2.293-.505 3.168 0l3.167 1.829c.875.505.875 1.324 0 1.829l-3.167 1.828c-.875.505-2.293.505-3.168 0l-3.167-1.828c-.875-.505-.875-1.324 0-1.829l3.167-1.829Z"/><path fill="#fff" stroke="#363636" stroke-width=".549" d="M0 0h3.658v3.658H0z" transform="matrix(.86603 .5 0 1 283.541 157.584)"/><path fill="#fff" stroke="#363636" stroke-width=".549" d="M0 0h3.658v3.658H0z" transform="matrix(.86603 -.5 0 1 289.875 159.412)"/><path fill="#fff" stroke="#363636" stroke-width=".549" d="M282.881 156.669c0 .357.251.68.656.914v3.658c-.405-.234-.656-.557-.656-.914v-3.658ZM286.705 159.412c.875.505 2.293.505 3.168 0v3.658c-.875.505-2.293.505-3.168 0v-3.658ZM293.695 156.669c0 .357-.251.68-.656.914v3.658c.405-.234.656-.557.656-.914v-3.658ZM187.951 230.736c.875-.505 2.293-.505 3.168 0l3.167 1.828c.875.505.875 1.324 0 1.829l-3.167 1.829c-.875.505-2.293.505-3.168 0l-3.167-1.829c-.875-.505-.875-1.324 0-1.829l3.167-1.828Z"/><path fill="#fff" stroke="#363636" stroke-width=".549" d="M0 0h3.658v3.658H0z" transform="matrix(.86603 .5 0 1 184.785 234.393)"/><path fill="#fff" stroke="#363636" stroke-width=".549" d="M0 0h3.658v3.658H0z" transform="matrix(.86603 -.5 0 1 191.119 236.222)"/><path fill="#fff" stroke="#363636" stroke-width=".549" d="M184.125 233.479c0 .357.251.68.656.914v3.657c-.405-.234-.656-.557-.656-.914v-3.657ZM187.949 236.222c.875.505 2.293.505 3.168 0v3.657c-.875.505-2.293.505-3.168 0v-3.657ZM194.939 233.479c0 .357-.25.68-.656.914v3.657c.406-.234.656-.557.656-.914v-3.657ZM200.754 223.419c.875-.505 2.293-.505 3.168 0l3.167 1.829c.875.505.875 1.324 0 1.829l-3.167 1.829c-.875.505-2.293.505-3.168 0l-3.167-1.829c-.875-.505-.875-1.324 0-1.829l3.167-1.829Z"/><path fill="#fff" stroke="#363636" stroke-width=".549" d="M0 0h3.658v3.658H0z" transform="matrix(.86603 .5 0 1 197.588 227.077)"/><path fill="#fff" stroke="#363636" stroke-width=".549" d="M0 0h3.658v3.658H0z" transform="matrix(.86603 -.5 0 1 203.922 228.906)"/><path fill="#fff" stroke="#363636" stroke-width=".549" d="M196.928 226.163c0 .357.25.68.656.914v3.658c-.406-.234-.656-.557-.656-.914v-3.658ZM200.752 228.906c.875.505 2.293.505 3.167 0v3.658c-.874.505-2.292.505-3.167 0v-3.658ZM207.742 226.163c0 .357-.251.68-.656.914v3.658c.405-.234.656-.557.656-.914v-3.658ZM213.557 216.103c.875-.505 2.293-.505 3.167 0l3.168 1.829c.875.505.875 1.323 0 1.828l-3.168 1.829c-.874.505-2.292.505-3.167 0l-3.168-1.829c-.874-.505-.874-1.323 0-1.828l3.168-1.829Z"/><path fill="#fff" stroke="#363636" stroke-width=".549" d="M0 0h3.658v3.658H0z" transform="matrix(.86603 .5 0 1 210.391 219.761)"/><path fill="#fff" stroke="#363636" stroke-width=".549" d="M0 0h3.658v3.658H0z" transform="matrix(.86603 -.5 0 1 216.725 221.589)"/><path fill="#fff" stroke="#363636" stroke-width=".549" d="M209.73 218.846c0 .357.251.68.656.914v3.658c-.405-.234-.656-.558-.656-.915v-3.657ZM213.555 221.589c.874.505 2.293.505 3.167 0v3.657c-.874.505-2.293.505-3.167 0v-3.657ZM220.545 218.846c0 .357-.251.68-.656.914v3.658c.405-.234.656-.558.656-.915v-3.657ZM226.358 208.791c.874-.505 2.292-.505 3.167 0l3.168 1.829c.874.505.874 1.324 0 1.829l-3.168 1.829c-.875.505-2.293.505-3.167 0l-3.168-1.829c-.875-.505-.875-1.324 0-1.829l3.168-1.829Z"/><path fill="#fff" stroke="#363636" stroke-width=".549" d="M0 0h3.658v3.658H0z" transform="matrix(.86603 .5 0 1 223.193 212.449)"/><path fill="#fff" stroke="#363636" stroke-width=".549" d="M0 0h3.658v3.658H0z" transform="matrix(.86603 -.5 0 1 229.527 214.278)"/><path fill="#fff" stroke="#363636" stroke-width=".549" d="M222.533 211.534c0 .357.251.681.656.915v3.657c-.405-.234-.656-.557-.656-.914v-3.658ZM226.357 214.278c.875.505 2.293.505 3.168 0v3.658c-.875.505-2.293.505-3.168 0v-3.658ZM233.347 211.534c0 .357-.25.681-.656.915v3.657c.406-.234.656-.557.656-.914v-3.658ZM239.155 201.475c.874-.505 2.292-.505 3.167 0l3.168 1.829c.874.505.874 1.323 0 1.828l-3.168 1.829c-.875.505-2.293.505-3.167 0l-3.168-1.829c-.875-.505-.875-1.323 0-1.828l3.168-1.829Z"/><path fill="#fff" stroke="#363636" stroke-width=".549" d="M0 0h3.658v3.658H0z" transform="matrix(.86603 .5 0 1 235.988 205.132)"/><path fill="#fff" stroke="#363636" stroke-width=".549" d="M0 0h3.658v3.658H0z" transform="matrix(.86603 -.5 0 1 242.324 206.961)"/><path fill="#fff" stroke="#363636" stroke-width=".549" d="M235.33 204.218c0 .357.251.68.656.914v3.658c-.405-.234-.656-.558-.656-.915v-3.657ZM239.154 206.961c.875.505 2.293.505 3.168 0v3.657c-.875.505-2.293.505-3.168 0v-3.657ZM246.144 204.218c0 .357-.25.68-.656.914v3.658c.406-.234.656-.558.656-.915v-3.657ZM251.955 194.159c.875-.505 2.293-.505 3.168 0l3.167 1.828c.875.505.875 1.324 0 1.829l-3.167 1.829c-.875.505-2.293.505-3.168 0l-3.167-1.829c-.875-.505-.875-1.324 0-1.829l3.167-1.828Z"/><path fill="#fff" stroke="#363636" stroke-width=".549" d="M0 0h3.658v3.658H0z" transform="matrix(.86603 .5 0 1 248.789 197.815)"/><path fill="#fff" stroke="#363636" stroke-width=".549" d="M0 0h3.658v3.658H0z" transform="matrix(.86603 -.5 0 1 255.125 199.645)"/><path fill="#fff" stroke="#363636" stroke-width=".549" d="M248.131 196.901c0 .357.251.681.656.915v3.657c-.405-.234-.656-.557-.656-.914v-3.658ZM251.953 199.645c.875.505 2.293.505 3.168 0v3.657c-.875.505-2.293.505-3.168 0v-3.657ZM258.945 196.901c0 .357-.251.681-.656.915v3.657c.405-.234.656-.557.656-.914v-3.658ZM264.758 186.842c.875-.505 2.293-.505 3.168 0l3.167 1.829c.875.505.875 1.324 0 1.829l-3.167 1.828c-.875.505-2.293.505-3.168 0l-3.168-1.828c-.874-.505-.874-1.324 0-1.829l3.168-1.829Z"/><path fill="#fff" stroke="#363636" stroke-width=".549" d="M0 0h3.658v3.658H0z" transform="matrix(.86603 .5 0 1 261.592 190.5)"/><path fill="#fff" stroke="#363636" stroke-width=".549" d="M0 0h3.658v3.658H0z" transform="matrix(.86603 -.5 0 1 267.928 192.329)"/><path fill="#fff" stroke="#363636" stroke-width=".549" d="M260.934 189.585c0 .357.25.68.656.914v3.658c-.406-.234-.656-.557-.656-.914v-3.658ZM264.756 192.329c.875.505 2.293.505 3.167 0v3.658c-.874.505-2.292.505-3.167 0v-3.658ZM271.748 189.585c0 .357-.251.68-.656.914v3.658c.405-.234.656-.557.656-.914v-3.658ZM277.561 179.531c.874-.505 2.293-.505 3.167 0l3.168 1.828c.875.505.875 1.324 0 1.829l-3.168 1.829c-.874.505-2.293.505-3.167 0l-3.168-1.829c-.874-.505-.874-1.324 0-1.829l3.168-1.828Z"/><path fill="#fff" stroke="#363636" stroke-width=".549" d="M0 0h3.658v3.658H0z" transform="matrix(.86603 .5 0 1 274.395 183.188)"/><path fill="#fff" stroke="#363636" stroke-width=".549" d="M0 0h3.658v3.658H0z" transform="matrix(.86603 -.5 0 1 280.73 185.017)"/><path fill="#fff" stroke="#363636" stroke-width=".549" d="M273.736 182.273c0 .358.251.681.656.915v3.657c-.405-.234-.656-.557-.656-.914v-3.658ZM277.559 185.017c.874.505 2.292.505 3.167 0v3.657c-.875.505-2.293.505-3.167 0v-3.657ZM284.551 182.273c0 .358-.251.681-.656.915v3.657c.405-.234.656-.557.656-.914v-3.658ZM290.363 172.214c.875-.505 2.293-.505 3.168 0l3.168 1.829c.874.505.874 1.324 0 1.829l-3.168 1.829c-.875.505-2.293.505-3.168 0l-3.167-1.829c-.875-.505-.875-1.324 0-1.829l3.167-1.829Z"/><path fill="#fff" stroke="#363636" stroke-width=".549" d="M0 0h3.658v3.658H0z" transform="matrix(.86603 .5 0 1 287.197 175.872)"/><path fill="#fff" stroke="#363636" stroke-width=".549" d="M0 0h3.658v3.658H0z" transform="matrix(.86603 -.5 0 1 293.533 177.7)"/><path fill="#fff" stroke="#363636" stroke-width=".549" d="M286.539 174.957c0 .357.251.68.656.914v3.658c-.405-.234-.656-.557-.656-.914v-3.658ZM290.361 177.7c.875.505 2.293.505 3.168 0v3.658c-.875.505-2.293.505-3.168 0V177.7ZM297.353 174.957c0 .357-.25.68-.656.914v3.658c.406-.234.656-.557.656-.914v-3.658ZM303.164 164.898c.875-.505 2.293-.505 3.168 0l3.167 1.829c.875.505.875 1.323 0 1.828l-3.167 1.829c-.875.505-2.293.505-3.168 0l-3.167-1.829c-.875-.505-.875-1.323 0-1.828l3.167-1.829Z"/><path fill="#fff" stroke="#363636" stroke-width=".549" d="M0 0h3.658v3.658H0z" transform="matrix(.86603 .5 0 1 299.998 168.555)"/><path fill="#fff" stroke="#363636" stroke-width=".549" d="M0 0h3.658v3.658H0z" transform="matrix(.86603 -.5 0 1 306.332 170.384)"/><path fill="#fff" stroke="#363636" stroke-width=".549" d="M299.338 167.641c0 .357.251.68.656.914v3.658c-.405-.234-.656-.558-.656-.915v-3.657ZM303.162 170.384c.875.505 2.293.505 3.168 0v3.657c-.875.505-2.293.505-3.168 0v-3.657ZM310.152 167.641c0 .357-.251.68-.656.914v3.658c.405-.234.656-.558.656-.915v-3.657ZM200.754 238.053c.875-.505 2.293-.505 3.168 0l3.167 1.829c.875.505.875 1.324 0 1.829l-3.167 1.828c-.875.505-2.293.505-3.168 0l-3.167-1.828c-.875-.505-.875-1.324 0-1.829l3.167-1.829Z"/><path fill="#fff" stroke="#363636" stroke-width=".549" d="M0 0h3.658v3.658H0z" transform="matrix(.86603 .5 0 1 197.588 241.711)"/><path fill="#fff" stroke="#363636" stroke-width=".549" d="M0 0h3.658v3.658H0z" transform="matrix(.86603 -.5 0 1 203.922 243.54)"/><path fill="#fff" stroke="#363636" stroke-width=".549" d="M196.928 240.796c0 .357.25.68.656.914v3.658c-.406-.234-.656-.557-.656-.915v-3.657ZM200.752 243.54c.875.505 2.293.505 3.167 0v3.658c-.874.505-2.292.505-3.167 0v-3.658ZM207.742 240.796c0 .357-.251.68-.656.914v3.658c.405-.234.656-.557.656-.915v-3.657ZM213.557 230.737c.875-.505 2.293-.505 3.167 0l3.168 1.828c.875.505.875 1.324 0 1.829l-3.168 1.829c-.874.505-2.292.505-3.167 0l-3.168-1.829c-.874-.505-.874-1.324 0-1.829l3.168-1.828Z"/><path fill="#fff" stroke="#363636" stroke-width=".549" d="M0 0h3.658v3.658H0z" transform="matrix(.86603 .5 0 1 210.391 234.394)"/><path fill="#fff" stroke="#363636" stroke-width=".549" d="M0 0h3.658v3.658H0z" transform="matrix(.86603 -.5 0 1 216.725 236.223)"/><path fill="#fff" stroke="#363636" stroke-width=".549" d="M209.73 233.479c0 .358.251.681.656.915v3.657c-.405-.234-.656-.557-.656-.914v-3.658ZM213.555 236.223c.874.505 2.293.505 3.167 0v3.657c-.874.505-2.293.505-3.167 0v-3.657ZM220.545 233.479c0 .358-.251.681-.656.915v3.657c.405-.234.656-.557.656-.914v-3.658ZM226.358 223.421c.874-.505 2.292-.505 3.167 0l3.168 1.829c.874.505.874 1.324 0 1.829l-3.168 1.829c-.875.505-2.293.505-3.167 0l-3.168-1.829c-.875-.505-.875-1.324 0-1.829l3.168-1.829Z"/><path fill="#fff" stroke="#363636" stroke-width=".549" d="M0 0h3.658v3.658H0z" transform="matrix(.86603 .5 0 1 223.193 227.078)"/><path fill="#fff" stroke="#363636" stroke-width=".549" d="M0 0h3.658v3.658H0z" transform="matrix(.86603 -.5 0 1 229.527 228.907)"/><path fill="#fff" stroke="#363636" stroke-width=".549" d="M222.533 226.164c0 .357.251.68.656.914v3.658c-.405-.234-.656-.557-.656-.914v-3.658ZM226.357 228.907c.875.505 2.293.505 3.168 0v3.658c-.875.505-2.293.505-3.168 0v-3.658ZM233.347 226.164c0 .357-.25.68-.656.914v3.658c.406-.234.656-.557.656-.914v-3.658ZM239.155 216.105c.874-.505 2.292-.505 3.167 0l3.168 1.829c.874.505.874 1.323 0 1.828l-3.168 1.829c-.875.505-2.293.505-3.167 0l-3.168-1.829c-.875-.505-.875-1.323 0-1.828l3.168-1.829Z"/><path fill="#fff" stroke="#363636" stroke-width=".549" d="M0 0h3.658v3.658H0z" transform="matrix(.86603 .5 0 1 235.988 219.763)"/><path fill="#fff" stroke="#363636" stroke-width=".549" d="M0 0h3.658v3.658H0z" transform="matrix(.86603 -.5 0 1 242.324 221.591)"/><path fill="#fff" stroke="#363636" stroke-width=".549" d="M235.33 218.848c0 .357.251.68.656.914v3.658c-.405-.234-.656-.558-.656-.915v-3.657ZM239.154 221.591c.875.505 2.293.505 3.168 0v3.657c-.875.505-2.293.505-3.168 0v-3.657ZM246.144 218.848c0 .357-.25.68-.656.914v3.658c.406-.234.656-.558.656-.915v-3.657ZM251.957 208.792c.875-.505 2.293-.505 3.168 0l3.167 1.829c.875.505.875 1.324 0 1.829l-3.167 1.829c-.875.505-2.293.505-3.168 0l-3.167-1.829c-.875-.505-.875-1.324 0-1.829l3.167-1.829Z"/><path fill="#fff" stroke="#363636" stroke-width=".549" d="M0 0h3.658v3.658H0z" transform="matrix(.86603 .5 0 1 248.791 212.449)"/><path fill="#fff" stroke="#363636" stroke-width=".549" d="M0 0h3.658v3.658H0z" transform="matrix(.86603 -.5 0 1 255.127 214.278)"/><path fill="#fff" stroke="#363636" stroke-width=".549" d="M248.133 211.535c0 .357.251.681.656.915v3.657c-.405-.234-.656-.557-.656-.914v-3.658ZM251.955 214.278c.875.505 2.293.505 3.168 0v3.658c-.875.505-2.293.505-3.168 0v-3.658ZM258.947 211.535c0 .357-.251.681-.656.915v3.657c.405-.234.656-.557.656-.914v-3.658ZM264.758 201.477c.875-.505 2.293-.505 3.168 0l3.167 1.829c.875.505.875 1.323 0 1.828l-3.167 1.829c-.875.505-2.293.505-3.168 0l-3.168-1.829c-.874-.505-.874-1.323 0-1.828l3.168-1.829Z"/><path fill="#fff" stroke="#363636" stroke-width=".549" d="M0 0h3.658v3.658H0z" transform="matrix(.86603 .5 0 1 261.592 205.135)"/><path fill="#fff" stroke="#363636" stroke-width=".549" d="M0 0h3.658v3.658H0z" transform="matrix(.86603 -.5 0 1 267.928 206.963)"/><path fill="#fff" stroke="#363636" stroke-width=".549" d="M260.934 204.22c0 .357.25.68.656.914v3.658c-.406-.234-.656-.558-.656-.915v-3.657ZM264.756 206.963c.875.505 2.293.505 3.167 0v3.657c-.874.505-2.292.505-3.167 0v-3.657ZM271.748 204.22c0 .357-.251.68-.656.914v3.658c.405-.234.656-.558.656-.915v-3.657ZM277.561 194.16c.874-.505 2.293-.505 3.167 0l3.168 1.828c.875.505.875 1.324 0 1.829l-3.168 1.829c-.874.505-2.293.505-3.167 0l-3.168-1.829c-.874-.505-.874-1.324 0-1.829l3.168-1.828Z"/><path fill="#fff" stroke="#363636" stroke-width=".549" d="M0 0h3.658v3.658H0z" transform="matrix(.86603 .5 0 1 274.395 197.816)"/><path fill="#fff" stroke="#363636" stroke-width=".549" d="M0 0h3.658v3.658H0z" transform="matrix(.86603 -.5 0 1 280.73 199.646)"/><path fill="#fff" stroke="#363636" stroke-width=".549" d="M273.736 196.902c0 .357.251.681.656.915v3.657c-.405-.234-.656-.557-.656-.914v-3.658ZM277.559 199.646c.874.505 2.292.505 3.167 0v3.657c-.875.505-2.293.505-3.167 0v-3.657ZM284.551 196.902c0 .357-.251.681-.656.915v3.657c.405-.234.656-.557.656-.914v-3.658ZM290.363 186.844c.875-.505 2.293-.505 3.168 0l3.168 1.829c.874.505.874 1.324 0 1.829l-3.168 1.828c-.875.505-2.293.505-3.168 0l-3.167-1.828c-.875-.505-.875-1.324 0-1.829l3.167-1.829Z"/><path fill="#fff" stroke="#363636" stroke-width=".549" d="M0 0h3.658v3.658H0z" transform="matrix(.86603 .5 0 1 287.197 190.502)"/><path fill="#fff" stroke="#363636" stroke-width=".549" d="M0 0h3.658v3.658H0z" transform="matrix(.86603 -.5 0 1 293.533 192.331)"/><path fill="#fff" stroke="#363636" stroke-width=".549" d="M286.539 189.588c0 .357.251.68.656.914v3.658c-.405-.234-.656-.557-.656-.915v-3.657ZM290.361 192.331c.875.505 2.293.505 3.168 0v3.658c-.875.505-2.293.505-3.168 0v-3.658ZM297.353 189.588c0 .357-.25.68-.656.914v3.658c.406-.234.656-.557.656-.915v-3.657ZM303.164 179.532c.875-.505 2.293-.505 3.168 0l3.167 1.828c.875.505.875 1.324 0 1.829l-3.167 1.829c-.875.505-2.293.505-3.168 0l-3.167-1.829c-.875-.505-.875-1.324 0-1.829l3.167-1.828Z"/><path fill="#fff" stroke="#363636" stroke-width=".549" d="M0 0h3.658v3.658H0z" transform="matrix(.86603 .5 0 1 299.998 183.188)"/><path fill="#fff" stroke="#363636" stroke-width=".549" d="M0 0h3.658v3.658H0z" transform="matrix(.86603 -.5 0 1 306.332 185.018)"/><path fill="#fff" stroke="#363636" stroke-width=".549" d="M299.338 182.274c0 .358.251.681.656.915v3.657c-.405-.234-.656-.557-.656-.914v-3.658ZM303.162 185.018c.875.505 2.293.505 3.168 0v3.657c-.875.505-2.293.505-3.168 0v-3.657ZM310.152 182.274c0 .358-.251.681-.656.915v3.657c.405-.234.656-.557.656-.914v-3.658ZM315.967 172.215c.875-.505 2.293-.505 3.168 0l3.167 1.829c.875.505.875 1.324 0 1.829l-3.167 1.829c-.875.505-2.293.505-3.168 0l-3.168-1.829c-.874-.505-.874-1.324 0-1.829l3.168-1.829Z"/><path fill="#fff" stroke="#363636" stroke-width=".549" d="M0 0h3.658v3.658H0z" transform="matrix(.86603 .5 0 1 312.801 175.873)"/><path fill="#fff" stroke="#363636" stroke-width=".549" d="M0 0h3.658v3.658H0z" transform="matrix(.86603 -.5 0 1 319.135 177.702)"/><path fill="#fff" stroke="#363636" stroke-width=".549" d="M312.141 174.958c0 .357.25.68.656.914v3.658c-.406-.234-.656-.557-.656-.914v-3.658ZM315.965 177.702c.875.505 2.293.505 3.167 0v3.658c-.874.505-2.292.505-3.167 0v-3.658ZM322.955 174.958c0 .357-.251.68-.656.914v3.658c.405-.234.656-.557.656-.914v-3.658ZM215.389 245.367c.875-.505 2.293-.505 3.167 0l3.168 1.828c.875.505.875 1.324 0 1.829l-3.168 1.829c-.874.505-2.292.505-3.167 0l-3.168-1.829c-.874-.505-.874-1.324 0-1.829l3.168-1.828Z"/><path fill="#fff" stroke="#363636" stroke-width=".549" d="M0 0h3.658v3.658H0z" transform="matrix(.86603 .5 0 1 212.225 249.024)"/><path fill="#fff" stroke="#363636" stroke-width=".549" d="M0 0h3.658v3.658H0z" transform="matrix(.86603 -.5 0 1 218.559 250.853)"/><path fill="#fff" stroke="#363636" stroke-width=".549" d="M211.564 248.109c0 .357.251.681.656.915v3.657c-.405-.234-.656-.557-.656-.914v-3.658ZM215.389 250.853c.874.505 2.293.505 3.167 0v3.657c-.874.505-2.293.505-3.167 0v-3.657ZM222.379 248.109c0 .357-.251.681-.656.915v3.657c.405-.234.656-.557.656-.914v-3.658ZM228.186 238.054c.874-.505 2.293-.505 3.167 0l3.168 1.829c.875.505.875 1.324 0 1.829l-3.168 1.828c-.874.505-2.293.505-3.167 0l-3.168-1.828c-.874-.505-.874-1.324 0-1.829l3.168-1.829Z"/><path fill="#fff" stroke="#363636" stroke-width=".549" d="M0 0h3.658v3.658H0z" transform="matrix(.86603 .5 0 1 225.02 241.712)"/><path fill="#fff" stroke="#363636" stroke-width=".549" d="M0 0h3.658v3.658H0z" transform="matrix(.86603 -.5 0 1 231.355 243.541)"/><path fill="#fff" stroke="#363636" stroke-width=".549" d="M224.361 240.798c0 .357.251.68.656.914v3.658c-.405-.234-.656-.558-.656-.915v-3.657ZM228.184 243.541c.874.505 2.292.505 3.167 0v3.658c-.875.505-2.293.505-3.167 0v-3.658ZM235.176 240.798c0 .357-.251.68-.656.914v3.658c.405-.234.656-.558.656-.915v-3.657ZM240.988 230.738c.875-.505 2.293-.505 3.168 0l3.168 1.828c.874.505.874 1.324 0 1.829l-3.168 1.829c-.875.505-2.293.505-3.168 0l-3.167-1.829c-.875-.505-.875-1.324 0-1.829l3.167-1.828Z"/><path fill="#fff" stroke="#363636" stroke-width=".549" d="M0 0h3.658v3.658H0z" transform="matrix(.86603 .5 0 1 237.822 234.396)"/><path fill="#fff" stroke="#363636" stroke-width=".549" d="M0 0h3.658v3.658H0z" transform="matrix(.86603 -.5 0 1 244.158 236.224)"/><path fill="#fff" stroke="#363636" stroke-width=".549" d="M237.164 233.48c0 .358.251.681.656.915v3.657c-.405-.234-.656-.557-.656-.914v-3.658ZM240.986 236.224c.875.505 2.293.505 3.168 0v3.657c-.875.505-2.293.505-3.168 0v-3.657ZM247.978 233.48c0 .358-.25.681-.656.915v3.657c.406-.234.656-.557.656-.914v-3.658ZM253.791 223.421c.875-.505 2.293-.505 3.168 0l3.167 1.829c.875.505.875 1.324 0 1.829l-3.167 1.829c-.875.505-2.293.505-3.168 0l-3.167-1.829c-.875-.505-.875-1.324 0-1.829l3.167-1.829Z"/><path fill="#fff" stroke="#363636" stroke-width=".549" d="M0 0h3.658v3.658H0z" transform="matrix(.86603 .5 0 1 250.625 227.078)"/><path fill="#fff" stroke="#363636" stroke-width=".549" d="M0 0h3.658v3.658H0z" transform="matrix(.86603 -.5 0 1 256.961 228.907)"/><path fill="#fff" stroke="#363636" stroke-width=".549" d="M249.967 226.164c0 .357.25.68.656.914v3.658c-.406-.234-.656-.557-.656-.914v-3.658ZM253.789 228.907c.875.505 2.293.505 3.168 0v3.658c-.875.505-2.293.505-3.168 0v-3.658ZM260.781 226.164c0 .357-.251.68-.656.914v3.658c.405-.234.656-.557.656-.914v-3.658ZM266.594 216.106c.875-.505 2.293-.505 3.168 0l3.167 1.829c.875.505.875 1.323 0 1.828l-3.167 1.829c-.875.505-2.293.505-3.168 0l-3.168-1.829c-.874-.505-.874-1.323 0-1.828l3.168-1.829Z"/><path fill="#fff" stroke="#363636" stroke-width=".549" d="M0 0h3.658v3.658H0z" transform="matrix(.86603 .5 0 1 263.428 219.764)"/><path fill="#fff" stroke="#363636" stroke-width=".549" d="M0 0h3.658v3.658H0z" transform="matrix(.86603 -.5 0 1 269.764 221.593)"/><path fill="#fff" stroke="#363636" stroke-width=".549" d="M262.77 218.85c0 .357.25.68.656.914v3.658c-.406-.234-.656-.558-.656-.915v-3.657ZM266.592 221.593c.874.505 2.293.505 3.167 0v3.657c-.874.505-2.293.505-3.167 0v-3.657ZM273.584 218.85c0 .357-.251.68-.656.914v3.658c.405-.234.656-.558.656-.915v-3.657ZM279.393 208.793c.874-.505 2.293-.505 3.167 0l3.168 1.829c.875.505.875 1.324 0 1.829l-3.168 1.829c-.874.505-2.293.505-3.167 0l-3.168-1.829c-.874-.505-.874-1.324 0-1.829l3.168-1.829Z"/><path fill="#fff" stroke="#363636" stroke-width=".549" d="M0 0h3.658v3.658H0z" transform="matrix(.86603 .5 0 1 276.227 212.45)"/><path fill="#fff" stroke="#363636" stroke-width=".549" d="M0 0h3.658v3.658H0z" transform="matrix(.86603 -.5 0 1 282.561 214.279)"/><path fill="#fff" stroke="#363636" stroke-width=".549" d="M275.566 211.536c0 .357.251.681.656.915v3.657c-.405-.234-.656-.557-.656-.914v-3.658ZM279.391 214.279c.874.505 2.292.505 3.167 0v3.658c-.875.505-2.293.505-3.167 0v-3.658ZM286.383 211.536c0 .357-.251.681-.656.915v3.657c.405-.234.656-.557.656-.914v-3.658ZM292.196 201.477c.874-.505 2.292-.505 3.167 0l3.168 1.829c.874.505.874 1.323 0 1.828l-3.168 1.829c-.875.505-2.293.505-3.167 0l-3.168-1.829c-.875-.505-.875-1.323 0-1.828l3.168-1.829Z"/><path fill="#fff" stroke="#363636" stroke-width=".549" d="M0 0h3.658v3.658H0z" transform="matrix(.86603 .5 0 1 289.029 205.135)"/><path fill="#fff" stroke="#363636" stroke-width=".549" d="M0 0h3.658v3.658H0z" transform="matrix(.86603 -.5 0 1 295.363 206.964)"/><path fill="#fff" stroke="#363636" stroke-width=".549" d="M288.369 204.22c0 .357.251.68.656.914v3.658c-.405-.234-.656-.558-.656-.915v-3.657ZM292.193 206.964c.875.505 2.293.505 3.168 0v3.657c-.875.505-2.293.505-3.168 0v-3.657ZM299.183 204.22c0 .357-.25.68-.656.914v3.658c.406-.234.656-.558.656-.915v-3.657ZM304.998 194.161c.875-.505 2.293-.505 3.168 0l3.167 1.829c.875.505.875 1.324 0 1.829l-3.167 1.829c-.875.505-2.293.505-3.168 0l-3.167-1.829c-.875-.505-.875-1.324 0-1.829l3.167-1.829Z"/><path fill="#fff" stroke="#363636" stroke-width=".549" d="M0 0h3.658v3.658H0z" transform="matrix(.86603 .5 0 1 301.832 197.818)"/><path fill="#fff" stroke="#363636" stroke-width=".549" d="M0 0h3.658v3.658H0z" transform="matrix(.86603 -.5 0 1 308.166 199.647)"/><path fill="#fff" stroke="#363636" stroke-width=".549" d="M301.172 196.904c0 .357.251.681.656.915v3.657c-.405-.234-.656-.557-.656-.914v-3.658ZM304.996 199.647c.875.505 2.293.505 3.168 0v3.658c-.875.505-2.293.505-3.168 0v-3.658ZM311.986 196.904c0 .357-.251.681-.656.915v3.657c.405-.234.656-.557.656-.914v-3.658ZM317.799 186.844c.875-.505 2.293-.505 3.168 0l3.167 1.829c.875.505.875 1.324 0 1.829l-3.167 1.828c-.875.505-2.293.505-3.168 0l-3.167-1.828c-.875-.505-.875-1.324 0-1.829l3.167-1.829Z"/><path fill="#fff" stroke="#363636" stroke-width=".549" d="M0 0h3.658v3.658H0z" transform="matrix(.86603 .5 0 1 314.635 190.501)"/><path fill="#fff" stroke="#363636" stroke-width=".549" d="M0 0h3.658v3.658H0z" transform="matrix(.86603 -.5 0 1 320.969 192.33)"/><path fill="#fff" stroke="#363636" stroke-width=".549" d="M313.975 189.587c0 .357.25.68.656.914v3.658c-.406-.234-.656-.557-.656-.915v-3.657ZM317.799 192.33c.875.505 2.293.505 3.167 0v3.658c-.874.505-2.292.505-3.167 0v-3.658ZM324.789 189.587c0 .357-.251.68-.656.914v3.658c.405-.234.656-.557.656-.915v-3.657ZM330.602 179.533c.874-.505 2.293-.505 3.167 0l3.168 1.828c.875.505.875 1.324 0 1.829l-3.168 1.829c-.874.505-2.293.505-3.167 0l-3.168-1.829c-.874-.505-.874-1.324 0-1.829l3.168-1.828Z"/><path fill="#fff" stroke="#363636" stroke-width=".549" d="M0 0h3.658v3.658H0z" transform="matrix(.86603 .5 0 1 327.438 183.189)"/><path fill="#fff" stroke="#363636" stroke-width=".549" d="M0 0h3.658v3.658H0z" transform="matrix(.86603 -.5 0 1 333.771 185.019)"/><path fill="#fff" stroke="#363636" stroke-width=".549" d="M326.777 182.275c0 .357.251.681.656.915v3.657c-.405-.234-.656-.557-.656-.914v-3.658ZM330.602 185.019c.874.505 2.292.505 3.167 0v3.657c-.875.505-2.293.505-3.167 0v-3.657ZM337.592 182.275c0 .357-.251.681-.656.915v3.657c.405-.234.656-.557.656-.914v-3.658ZM228.182 252.68c.875-.505 2.293-.505 3.167 0l3.168 1.829c.875.505.875 1.324 0 1.829l-3.168 1.828c-.874.505-2.292.505-3.167 0l-3.168-1.828c-.874-.505-.874-1.324 0-1.829l3.168-1.829Z"/><path fill="#fff" stroke="#363636" stroke-width=".549" d="M0 0h3.658v3.658H0z" transform="matrix(.86603 .5 0 1 225.016 256.338)"/><path fill="#fff" stroke="#363636" stroke-width=".549" d="M0 0h3.658v3.658H0z" transform="matrix(.86603 -.5 0 1 231.352 258.166)"/><path fill="#fff" stroke="#363636" stroke-width=".549" d="M224.357 255.423c0 .357.251.68.656.914v3.658c-.405-.234-.656-.558-.656-.915v-3.657ZM228.18 258.166c.874.505 2.293.505 3.167 0v3.658c-.874.505-2.293.505-3.167 0v-3.658ZM235.172 255.423c0 .357-.251.68-.656.914v3.658c.405-.234.656-.558.656-.915v-3.657ZM240.985 245.364c.874-.505 2.292-.505 3.167 0l3.168 1.828c.874.505.874 1.324 0 1.829l-3.168 1.829c-.875.505-2.293.505-3.167 0l-3.168-1.829c-.875-.505-.875-1.324 0-1.829l3.168-1.828Z"/><path fill="#fff" stroke="#363636" stroke-width=".549" d="M0 0h3.658v3.658H0z" transform="matrix(.86603 .5 0 1 237.818 249.021)"/><path fill="#fff" stroke="#363636" stroke-width=".549" d="M0 0h3.658v3.658H0z" transform="matrix(.86603 -.5 0 1 244.154 250.85)"/><path fill="#fff" stroke="#363636" stroke-width=".549" d="M237.16 248.106c0 .358.251.681.656.915v3.657c-.405-.234-.656-.557-.656-.914v-3.658ZM240.982 250.85c.875.505 2.293.505 3.168 0v3.657c-.875.505-2.293.505-3.168 0v-3.657ZM247.974 248.106c0 .358-.25.681-.656.915v3.657c.406-.234.656-.557.656-.914v-3.658ZM253.787 238.051c.875-.505 2.293-.505 3.168 0l3.167 1.829c.875.505.875 1.324 0 1.829l-3.167 1.828c-.875.505-2.293.505-3.168 0l-3.167-1.828c-.875-.505-.875-1.324 0-1.829l3.167-1.829Z"/><path fill="#fff" stroke="#363636" stroke-width=".549" d="M0 0h3.658v3.658H0z" transform="matrix(.86603 .5 0 1 250.621 241.708)"/><path fill="#fff" stroke="#363636" stroke-width=".549" d="M0 0h3.658v3.658H0z" transform="matrix(.86603 -.5 0 1 256.957 243.537)"/><path fill="#fff" stroke="#363636" stroke-width=".549" d="M249.963 240.794c0 .357.251.68.656.914v3.658c-.405-.234-.656-.557-.656-.914v-3.658ZM253.785 243.537c.875.505 2.293.505 3.168 0v3.658c-.875.505-2.293.505-3.168 0v-3.658ZM260.777 240.794c0 .357-.251.68-.656.914v3.658c.405-.234.656-.557.656-.914v-3.658ZM266.59 230.736c.875-.505 2.293-.505 3.168 0l3.167 1.828c.875.505.875 1.324 0 1.829l-3.167 1.829c-.875.505-2.293.505-3.168 0l-3.167-1.829c-.875-.505-.875-1.324 0-1.829l3.167-1.828Z"/><path fill="#fff" stroke="#363636" stroke-width=".549" d="M0 0h3.658v3.658H0z" transform="matrix(.86603 .5 0 1 263.424 234.393)"/><path fill="#fff" stroke="#363636" stroke-width=".549" d="M0 0h3.658v3.658H0z" transform="matrix(.86603 -.5 0 1 269.76 236.222)"/><path fill="#fff" stroke="#363636" stroke-width=".549" d="M262.766 233.479c0 .357.25.68.656.914v3.657c-.406-.234-.656-.557-.656-.914v-3.657ZM266.588 236.222c.875.505 2.293.505 3.167 0v3.657c-.874.505-2.292.505-3.167 0v-3.657ZM273.58 233.479c0 .357-.251.68-.656.914v3.657c.405-.234.656-.557.656-.914v-3.657ZM279.391 223.419c.875-.505 2.293-.505 3.167 0l3.168 1.829c.875.505.875 1.324 0 1.829l-3.168 1.829c-.874.505-2.292.505-3.167 0l-3.168-1.829c-.874-.505-.874-1.324 0-1.829l3.168-1.829Z"/><path fill="#fff" stroke="#363636" stroke-width=".549" d="M0 0h3.658v3.658H0z" transform="matrix(.86603 .5 0 1 276.225 227.077)"/><path fill="#fff" stroke="#363636" stroke-width=".549" d="M0 0h3.658v3.658H0z" transform="matrix(.86603 -.5 0 1 282.559 228.906)"/><path fill="#fff" stroke="#363636" stroke-width=".549" d="M275.564 226.162c0 .357.251.68.656.914v3.658c-.405-.234-.656-.557-.656-.914v-3.658ZM279.389 228.906c.874.505 2.293.505 3.167 0v3.658c-.874.505-2.293.505-3.167 0v-3.658ZM286.379 226.162c0 .357-.251.68-.656.914v3.658c.405-.234.656-.557.656-.914v-3.658ZM292.19 216.103c.874-.505 2.293-.505 3.167 0l3.168 1.829c.874.505.874 1.323 0 1.828l-3.168 1.829c-.874.505-2.293.505-3.167 0l-3.168-1.829c-.875-.505-.875-1.323 0-1.828l3.168-1.829Z"/><path fill="#fff" stroke="#363636" stroke-width=".549" d="M0 0h3.658v3.658H0z" transform="matrix(.86603 .5 0 1 289.025 219.76)"/><path fill="#fff" stroke="#363636" stroke-width=".549" d="M0 0h3.658v3.658H0z" transform="matrix(.86603 -.5 0 1 295.359 221.589)"/><path fill="#fff" stroke="#363636" stroke-width=".549" d="M288.365 218.846c0 .357.251.68.656.914v3.658c-.405-.234-.656-.558-.656-.915v-3.657ZM292.189 221.589c.875.505 2.293.505 3.168 0v3.657c-.875.505-2.293.505-3.168 0v-3.657ZM299.179 218.846c0 .357-.25.68-.656.914v3.658c.406-.234.656-.558.656-.915v-3.657ZM304.992 208.791c.875-.505 2.293-.505 3.168 0l3.167 1.829c.875.505.875 1.324 0 1.829l-3.167 1.829c-.875.505-2.293.505-3.168 0l-3.167-1.829c-.875-.505-.875-1.324 0-1.829l3.167-1.829Z"/><path fill="#fff" stroke="#363636" stroke-width=".549" d="M0 0h3.658v3.658H0z" transform="matrix(.86603 .5 0 1 301.828 212.449)"/><path fill="#fff" stroke="#363636" stroke-width=".549" d="M0 0h3.658v3.658H0z" transform="matrix(.86603 -.5 0 1 308.162 214.277)"/><path fill="#fff" stroke="#363636" stroke-width=".549" d="M301.168 211.534c0 .357.251.681.656.915v3.657c-.405-.234-.656-.557-.656-.914v-3.658ZM304.992 214.277c.875.505 2.293.505 3.168 0v3.658c-.875.505-2.293.505-3.168 0v-3.658ZM311.982 211.534c0 .357-.251.681-.656.915v3.657c.405-.234.656-.557.656-.914v-3.658ZM317.793 201.475c.875-.505 2.293-.505 3.168 0l3.167 1.829c.875.505.875 1.323 0 1.828l-3.167 1.829c-.875.505-2.293.505-3.168 0l-3.167-1.829c-.875-.505-.875-1.323 0-1.828l3.167-1.829Z"/><path fill="#fff" stroke="#363636" stroke-width=".549" d="M0 0h3.658v3.658H0z" transform="matrix(.86603 .5 0 1 314.627 205.132)"/><path fill="#fff" stroke="#363636" stroke-width=".549" d="M0 0h3.658v3.658H0z" transform="matrix(.86603 -.5 0 1 320.963 206.961)"/><path fill="#fff" stroke="#363636" stroke-width=".549" d="M313.969 204.218c0 .357.25.68.656.914v3.658c-.406-.234-.656-.558-.656-.915v-3.657ZM317.793 206.961c.875.505 2.293.505 3.168 0v3.657c-.875.505-2.293.505-3.168 0v-3.657ZM324.783 204.218c0 .357-.251.68-.656.914v3.658c.405-.234.656-.558.656-.915v-3.657ZM330.596 194.159c.875-.505 2.293-.505 3.167 0l3.168 1.828c.875.505.875 1.324 0 1.829l-3.168 1.829c-.874.505-2.292.505-3.167 0l-3.168-1.829c-.874-.505-.874-1.324 0-1.829l3.168-1.828Z"/><path fill="#fff" stroke="#363636" stroke-width=".549" d="M0 0h3.658v3.658H0z" transform="matrix(.86603 .5 0 1 327.43 197.816)"/><path fill="#fff" stroke="#363636" stroke-width=".549" d="M0 0h3.658v3.658H0z" transform="matrix(.86603 -.5 0 1 333.766 199.646)"/><path fill="#fff" stroke="#363636" stroke-width=".549" d="M326.771 196.902c0 .357.251.681.657.915v3.657c-.406-.234-.657-.557-.657-.914v-3.658ZM330.596 199.646c.874.505 2.293.505 3.167 0v3.657c-.874.505-2.293.505-3.167 0v-3.657ZM337.586 196.902c0 .357-.251.681-.656.915v3.657c.405-.234.656-.557.656-.914v-3.658ZM343.395 186.842c.874-.505 2.293-.505 3.167 0l3.168 1.829c.875.505.875 1.324 0 1.829l-3.168 1.828c-.874.505-2.293.505-3.167 0l-3.168-1.828c-.874-.505-.874-1.324 0-1.829l3.168-1.829Z"/><path fill="#fff" stroke="#363636" stroke-width=".549" d="M0 0h3.658v3.658H0z" transform="matrix(.86603 .5 0 1 340.229 190.5)"/><path fill="#fff" stroke="#363636" stroke-width=".549" d="M0 0h3.658v3.658H0z" transform="matrix(.86603 -.5 0 1 346.564 192.328)"/><path fill="#fff" stroke="#363636" stroke-width=".549" d="M339.57 189.585c0 .357.251.68.656.914v3.658c-.405-.234-.656-.557-.656-.914v-3.658ZM343.393 192.328c.874.505 2.292.505 3.167 0v3.658c-.875.505-2.293.505-3.167 0v-3.658ZM350.385 189.585c0 .357-.251.68-.656.914v3.658c.405-.234.656-.557.656-.914v-3.658ZM240.985 259.997c.874-.505 2.292-.505 3.167 0l3.168 1.829c.874.505.874 1.324 0 1.829l-3.168 1.829c-.875.505-2.293.505-3.167 0l-3.168-1.829c-.875-.505-.875-1.324 0-1.829l3.168-1.829Z"/><path fill="#fff" stroke="#363636" stroke-width=".549" d="M0 0h3.658v3.658H0z" transform="matrix(.86603 .5 0 1 237.818 263.654)"/><path fill="#fff" stroke="#363636" stroke-width=".549" d="M0 0h3.658v3.658H0z" transform="matrix(.86603 -.5 0 1 244.154 265.483)"/><path fill="#fff" stroke="#363636" stroke-width=".549" d="M237.16 262.74c0 .357.251.681.656.915v3.657c-.405-.234-.656-.557-.656-.914v-3.658ZM240.982 265.483c.875.505 2.293.505 3.168 0v3.658c-.875.505-2.293.505-3.168 0v-3.658ZM247.974 262.74c0 .357-.25.681-.656.915v3.657c.406-.234.656-.557.656-.914v-3.658ZM253.787 252.681c.875-.505 2.293-.505 3.168 0l3.167 1.829c.875.505.875 1.324 0 1.829l-3.167 1.828c-.875.505-2.293.505-3.168 0l-3.167-1.828c-.875-.505-.875-1.324 0-1.829l3.167-1.829Z"/><path fill="#fff" stroke="#363636" stroke-width=".549" d="M0 0h3.658v3.658H0z" transform="matrix(.86603 .5 0 1 250.621 256.339)"/><path fill="#fff" stroke="#363636" stroke-width=".549" d="M0 0h3.658v3.658H0z" transform="matrix(.86603 -.5 0 1 256.957 258.168)"/><path fill="#fff" stroke="#363636" stroke-width=".549" d="M249.963 255.424c0 .357.251.68.656.914v3.658c-.405-.234-.656-.558-.656-.915v-3.657ZM253.785 258.168c.875.505 2.293.505 3.168 0v3.658c-.875.505-2.293.505-3.168 0v-3.658ZM260.777 255.424c0 .357-.251.68-.656.914v3.658c.405-.234.656-.558.656-.915v-3.657ZM266.59 245.365c.875-.505 2.293-.505 3.168 0l3.167 1.828c.875.505.875 1.324 0 1.829l-3.167 1.829c-.875.505-2.293.505-3.168 0l-3.167-1.829c-.875-.505-.875-1.324 0-1.829l3.167-1.828Z"/><path fill="#fff" stroke="#363636" stroke-width=".549" d="M0 0h3.658v3.658H0z" transform="matrix(.86603 .5 0 1 263.424 249.021)"/><path fill="#fff" stroke="#363636" stroke-width=".549" d="M0 0h3.658v3.658H0z" transform="matrix(.86603 -.5 0 1 269.76 250.851)"/><path fill="#fff" stroke="#363636" stroke-width=".549" d="M262.766 248.107c0 .358.25.681.656.915v3.657c-.406-.234-.656-.557-.656-.914v-3.658ZM266.588 250.851c.875.505 2.293.505 3.167 0v3.657c-.874.505-2.292.505-3.167 0v-3.657ZM273.58 248.107c0 .358-.251.681-.656.915v3.657c.405-.234.656-.557.656-.914v-3.658ZM330.596 208.792c.875-.505 2.293-.505 3.167 0l3.168 1.829c.875.505.875 1.324 0 1.829l-3.168 1.829c-.874.505-2.292.505-3.167 0l-3.168-1.829c-.874-.505-.874-1.324 0-1.829l3.168-1.829Z"/><path fill="#fff" stroke="#363636" stroke-width=".549" d="M0 0h3.658v3.658H0z" transform="matrix(.86603 .5 0 1 327.43 212.45)"/><path fill="#fff" stroke="#363636" stroke-width=".549" d="M0 0h3.658v3.658H0z" transform="matrix(.86603 -.5 0 1 333.766 214.279)"/><path fill="#fff" stroke="#363636" stroke-width=".549" d="M326.771 211.536c0 .357.251.681.657.915v3.657c-.406-.234-.657-.557-.657-.914v-3.658ZM330.596 214.279c.874.505 2.293.505 3.167 0v3.658c-.874.505-2.293.505-3.167 0v-3.658ZM337.586 211.536c0 .357-.251.681-.656.915v3.657c.405-.234.656-.557.656-.914v-3.658ZM317.795 216.104c.875-.505 2.293-.505 3.168 0l3.167 1.829c.875.505.875 1.323 0 1.828l-40.074 23.137c-.875.505-2.293.505-3.167 0l-3.168-1.829c-.875-.505-.875-1.323 0-1.828l40.074-23.137Z"/><path fill="#fff" stroke="#363636" stroke-width=".549" d="M0 0h46.584v3.658H0z" transform="matrix(.86603 -.5 0 1 283.781 243.057)"/><path fill="#fff" stroke="#363636" stroke-width=".549" d="M0 0h3.658v3.658H0z" transform="matrix(.86603 .5 0 1 277.115 241.341)"/><path fill="#fff" stroke="#363636" stroke-width=".549" d="M276.465 240.427c0 .357.251.68.656.914v3.658c-.405-.234-.656-.558-.656-.915v-3.657ZM280.287 243.17c.875.505 2.293.505 3.168 0v3.657c-.875.505-2.293.505-3.168 0v-3.657ZM324.785 218.847c0 .357-.251.68-.656.914v3.658c.405-.234.656-.558.656-.915v-3.657ZM343.395 201.476c.874-.505 2.293-.505 3.167 0l3.168 1.829c.875.505.875 1.323 0 1.828l-3.168 1.829c-.874.505-2.293.505-3.167 0l-3.168-1.829c-.874-.505-.874-1.323 0-1.828l3.168-1.829Z"/><path fill="#fff" stroke="#363636" stroke-width=".549" d="M0 0h3.658v3.658H0z" transform="matrix(.86603 .5 0 1 340.229 205.133)"/><path fill="#fff" stroke="#363636" stroke-width=".549" d="M0 0h3.658v3.658H0z" transform="matrix(.86603 -.5 0 1 346.564 206.962)"/><path fill="#fff" stroke="#363636" stroke-width=".549" d="M339.57 204.219c0 .357.251.68.656.914v3.658c-.405-.234-.656-.558-.656-.915v-3.657ZM343.393 206.962c.874.505 2.292.505 3.167 0v3.657c-.875.505-2.293.505-3.167 0v-3.657ZM350.385 204.219c0 .357-.251.68-.656.914v3.658c.405-.234.656-.558.656-.915v-3.657ZM356.197 194.16c.875-.505 2.293-.505 3.168 0l3.168 1.828c.874.505.874 1.324 0 1.829l-3.168 1.829c-.875.505-2.293.505-3.168 0l-3.167-1.829c-.875-.505-.875-1.324 0-1.829l3.167-1.828Z"/><path fill="#fff" stroke="#363636" stroke-width=".549" d="M0 0h3.658v3.658H0z" transform="matrix(.86603 .5 0 1 353.031 197.816)"/><path fill="#fff" stroke="#363636" stroke-width=".549" d="M0 0h3.658v3.658H0z" transform="matrix(.86603 -.5 0 1 359.367 199.646)"/><path fill="#fff" stroke="#363636" stroke-width=".549" d="M352.373 196.902c0 .357.251.681.656.915v3.657c-.405-.234-.656-.557-.656-.914v-3.658ZM356.195 199.646c.875.505 2.293.505 3.168 0v3.657c-.875.505-2.293.505-3.168 0v-3.657ZM363.187 196.902c0 .357-.25.681-.656.915v3.657c.406-.234.656-.557.656-.914v-3.658Z"/><path fill="#fff" stroke="#363636" stroke-width="1.829" d="M142.477 99.98c0-8.08 5.672-17.904 12.67-21.945L280.264 5.8c6.998-4.04 12.67-.765 12.67 7.315v117.042c0 8.08-5.672 17.905-12.67 21.945l-125.117 72.237c-6.998 4.04-12.67.765-12.67-7.315V99.981Z"/><path fill="#fff" stroke="#363636" stroke-width="1.829" d="M0 0h3.658v117.042H0z" transform="matrix(.86603 .5 0 1 139.312 98.152)"/><path fill="#fff" stroke="#363636" stroke-width="1.829" d="M0 0h144.473v3.658H0z" transform="matrix(.86603 -.5 .86603 .5 151.984 76.207)"/><path fill="#fff" stroke="#363636" stroke-width="1.829" d="M142.48 217.022c0 3.744 1.237 6.774 3.711 8.203l-3.168-1.829c-2.474-1.428-3.711-4.458-3.711-8.203l3.168 1.829ZM142.48 99.981c0-8.08 5.673-17.905 12.67-21.945l-3.167-1.829c-6.998 4.04-12.671 13.865-12.671 21.945l3.168 1.83ZM289.226 4.914c-2.474-1.429-5.716-.985-8.959.887L277.1 3.973c3.242-1.873 6.485-2.316 8.959-.888l3.167 1.829Z"/><rect width="163.866" height="134.376" x=".467" y=".269" fill="#fff" stroke="#363636" stroke-width="1.078" rx="13.474" transform="matrix(.86603 -.5 0 1 146.363 89.428)"/><path fill="#fff" stroke="#363636" stroke-width=".934" d="M64.833 306.999c3.572-2.063 9.363-2.063 12.935 0l43.657 25.205c3.572 2.062 3.572 5.406 0 7.468l-59.826 34.54c-3.572 2.063-9.363 2.063-12.935 0L5.008 349.007c-3.572-2.062-3.572-5.406 0-7.468l59.825-34.54Z"/><path fill="#fff" stroke="#363636" stroke-width=".934" d="M0 0h50.41v9.335H0z" transform="matrix(.86603 .5 0 1 5.01 349.007)"/><path fill="#fff" stroke="#363636" stroke-width=".934" d="M0 0h69.081v9.335H0z" transform="matrix(.86603 -.5 0 1 61.602 374.212)"/><path fill="#fff" stroke="#363636" stroke-width=".934" d="M2.328 345.273c0 1.459 1.024 2.779 2.68 3.735v9.335c-1.656-.956-2.68-2.276-2.68-3.734v-9.336ZM48.666 374.212c3.572 2.062 9.363 2.062 12.935 0v9.335c-3.572 2.062-9.363 2.062-12.935 0v-9.335ZM124.105 335.938c0 1.458-1.024 2.778-2.679 3.734v9.335c1.655-.956 2.679-2.276 2.679-3.734v-9.335ZM83.339 313.533c3.572-2.062 9.363-2.062 12.935 0l5.659 3.267c3.572 2.063 3.572 5.406 0 7.468l-30.72 17.737c-3.573 2.063-9.364 2.063-12.936 0l-5.66-3.267c-3.571-2.062-3.571-5.406 0-7.468l30.722-17.737Z"/><path fill="#fff" stroke="#363636" stroke-width=".934" d="M0 0h6.535v2.801H0z" transform="matrix(.86603 .5 0 1 52.621 338.738)"/><path fill="#fff" stroke="#363636" stroke-width=".934" d="M0 0h35.474v2.801H0z" transform="matrix(.86603 -.5 0 1 71.213 342.006)"/><path fill="#fff" stroke="#363636" stroke-width=".934" d="M49.938 335.004c0 1.458 1.023 2.778 2.678 3.734v2.801c-1.655-.956-2.678-2.276-2.678-3.735v-2.8ZM58.28 342.006c3.571 2.062 9.363 2.062 12.934 0v2.8c-3.571 2.063-9.363 2.063-12.935 0v-2.8ZM104.611 320.535c0 1.458-1.024 2.779-2.679 3.734v2.801c1.655-.956 2.679-2.276 2.679-3.734v-2.801Z"/><circle cx="7.468" cy="7.468" r="7.468" fill="#fff" stroke="#363636" stroke-width=".934" transform="matrix(.86603 .5 -.86603 .5 64.688 324.732)"/><path fill="#fff" stroke="#363636" stroke-width=".934" d="M55.541 332.2c0 1.458 1.024 2.779 2.679 3.734v1.867c-1.655-.955-2.679-2.276-2.679-3.734V332.2ZM58.22 335.935c3.573 2.062 9.364 2.062 12.936 0v1.867c-3.572 2.062-9.363 2.062-12.935 0v-1.867Z"/><path fill="#fff" stroke="#363636" stroke-width=".934" d="M73.835 332.2c0 1.458-1.023 2.779-2.679 3.734v1.867c1.655-.955 2.68-2.276 2.68-3.734V332.2Z"/><g clip-path="url(#b)"><path fill="#fff" stroke="#363636" stroke-width=".781" d="M163.123 142.416c0-10.14 7.119-14.25 15.901-9.18l57.514 33.206c8.782 5.07 15.901 17.401 15.901 27.541s-7.119 14.25-15.901 9.18l-57.514-33.205c-8.782-5.071-15.901-17.401-15.901-27.542Z"/><path fill="#fff" stroke="#363636" stroke-width=".781" d="M0 0h66.411v5.469H0z" transform="matrix(.86603 .5 -.86603 .5 183.76 130.501)"/><path fill="#fff" stroke="#363636" stroke-width=".781" d="M167.781 132.122c3.105-1.793 7.174-1.236 11.244 1.113l4.736-2.734c-4.069-2.35-8.138-2.906-11.243-1.114l-4.737 2.735ZM252.438 193.984c0-10.141-7.119-22.471-15.901-27.541l4.737-2.735c8.781 5.07 15.9 17.401 15.9 27.541l-4.736 2.735Z"/><path fill="#fff" stroke="#363636" stroke-width=".781" d="M247.781 204.278c3.105-1.793 4.657-5.595 4.657-10.294l4.737-2.735c0 4.699-1.552 8.502-4.657 10.294l-4.737 2.735Z"/><path fill="#363636" d="M176.098 145.055v10.91l-1.998-1.153v-10.91l1.998 1.153Zm3.572 8.242v4.731l-1.965-1.135v-8.183l1.873 1.082v1.444l.083.047c.157-.385.42-.609.789-.673.369-.068.816.05 1.342.354.492.284.921.656 1.287 1.116a5.419 5.419 0 0 1 1.158 3.375v5.21l-1.965-1.135v-4.805a2.763 2.763 0 0 0-.332-1.364 2.426 2.426 0 0 0-.927-.962c-.265-.152-.499-.221-.702-.207a.585.585 0 0 0-.47.303c-.111.185-.168.452-.171.802Zm12.012 5.817-1.799-.911a2.016 2.016 0 0 0-.198-.594 2.527 2.527 0 0 0-.402-.578 2.359 2.359 0 0 0-.586-.472c-.304-.175-.561-.249-.77-.221-.209.025-.314.16-.314.405 0 .195.068.4.203.613.135.213.368.455.697.727l1.282 1.039c.689.561 1.203 1.12 1.541 1.678.339.557.508 1.131.508 1.72 0 .537-.137.928-.411 1.175-.271.249-.643.35-1.116.304-.471-.048-1.014-.25-1.629-.605-.938-.542-1.685-1.199-2.242-1.971-.554-.774-.878-1.58-.973-2.416l1.933.999c.058.364.199.698.424 1.001.225.301.512.552.863.754.344.199.621.283.83.251.212-.034.32-.173.323-.416-.003-.208-.078-.42-.226-.637-.148-.22-.375-.454-.683-.703l-1.227-.991c-.692-.559-1.207-1.133-1.545-1.723-.336-.588-.503-1.187-.503-1.798 0-.525.123-.907.369-1.145.249-.236.598-.328 1.047-.274.452.055.981.257 1.587.607.895.517 1.599 1.142 2.113 1.875.517.735.818 1.504.904 2.307Zm1.399 9.725v-11.251l1.938 1.119v1.374l.088.051c.086-.171.21-.322.373-.456.166-.135.382-.202.646-.202.268-.002.6.112.997.341.516.298.993.73 1.43 1.294.436.561.786 1.23 1.047 2.006.261.772.392 1.627.392 2.565 0 .913-.128 1.61-.383 2.091-.252.479-.596.755-1.033.826-.434.069-.92-.052-1.458-.363a3.9 3.9 0 0 1-.973-.78 4.746 4.746 0 0 1-.651-.924 5.663 5.663 0 0 1-.387-.901l-.06-.034v4.379l-1.966-1.135Zm1.924-6.049c0 .487.058.945.175 1.374.117.43.286.81.508 1.14.221.327.49.582.807.765.32.185.591.24.812.165.222-.078.389-.265.503-.562.117-.298.175-.685.175-1.161 0-.473-.057-.921-.17-1.345a3.774 3.774 0 0 0-.503-1.132 2.465 2.465 0 0 0-.817-.776c-.32-.184-.59-.243-.812-.175-.218.069-.386.249-.503.54-.117.292-.175.68-.175 1.167Zm6.297 7.727v-8.182l1.966 1.134v8.183l-1.966-1.135Zm.988-8.667c-.293-.169-.543-.425-.752-.77-.206-.346-.309-.677-.309-.993 0-.313.103-.522.309-.626.209-.107.459-.076.752.093.292.168.541.426.747.772.209.345.314.673.314.986 0 .316-.105.527-.314.634-.206.104-.455.072-.747-.096Zm2.552 10.711v-8.183l1.905 1.1v1.428l.074.043c.129-.434.346-.692.651-.776.304-.087.655-.016 1.051.213a4.29 4.29 0 0 1 .619.437v2.014a4.617 4.617 0 0 0-.383-.306 4.957 4.957 0 0 0-.448-.296c-.289-.167-.547-.243-.775-.229a.678.678 0 0 0-.535.288c-.129.181-.194.438-.194.772v4.629l-1.965-1.134Zm7.133 4.273a5.072 5.072 0 0 1-1.208-.97 4.659 4.659 0 0 1-.84-1.3 3.879 3.879 0 0 1-.304-1.529c0-.454.072-.794.216-1.02a.864.864 0 0 1 .591-.405c.249-.044.532-.023.849.064.32.089.655.215 1.006.379.412.188.744.333.996.436.252.1.435.138.549.115.114-.023.171-.122.171-.296v-.032c0-.337-.092-.651-.277-.943a2.17 2.17 0 0 0-.775-.724c-.354-.204-.635-.276-.844-.216-.209.057-.348.201-.416.432l-1.817-1.22c.092-.444.273-.769.544-.975.271-.21.62-.289 1.047-.237.431.05.929.238 1.495.564.394.228.771.499 1.13.813.363.316.685.667.965 1.052.283.387.506.803.669 1.249.163.442.244.907.244 1.393v5.519l-1.864-1.076v-1.135l-.055-.032a1 1 0 0 1-.457.413c-.191.082-.42.101-.687.056-.268-.048-.577-.173-.928-.375Zm.563-1.242c.289.167.545.249.766.245a.662.662 0 0 0 .521-.242c.127-.154.19-.375.19-.663v-.868a.725.725 0 0 1-.254-.019 4.27 4.27 0 0 1-.355-.104 18.967 18.967 0 0 1-.397-.149 51.208 51.208 0 0 0-.36-.149 2.102 2.102 0 0 0-.604-.163c-.173-.014-.306.024-.402.115-.095.087-.143.237-.143.45 0 .309.097.601.291.876.197.274.446.497.747.671Zm8.722-1.735v1.705l-4.267-2.464v-1.705l4.267 2.464Zm-3.299-3.865 1.966 1.135v7.628c0 .21.027.389.083.538.055.146.132.27.23.373a1.6 1.6 0 0 0 .351.272c.092.053.185.098.277.133l.212.075.309 1.867a4.682 4.682 0 0 1-.415-.117 3.802 3.802 0 0 1-.651-.285 4.897 4.897 0 0 1-1.245-.938 4.145 4.145 0 0 1-.826-1.254 3.754 3.754 0 0 1-.291-1.5v-7.927Zm4.579 12.787v-8.183l1.966 1.135v8.182l-1.966-1.134Zm.987-8.668c-.292-.168-.542-.425-.752-.769-.206-.347-.309-.678-.309-.994 0-.312.103-.521.309-.626.21-.106.46-.075.752.093.293.169.542.427.748.773.209.344.314.673.314.985 0 .317-.105.528-.314.634-.206.105-.455.073-.748-.096Zm5.755 12.72a6.582 6.582 0 0 1-1.86-1.601 7.568 7.568 0 0 1-1.204-2.176 7.306 7.306 0 0 1-.424-2.456c0-.845.141-1.502.424-1.971.283-.472.685-.734 1.204-.786.523-.053 1.143.127 1.86.541a6.507 6.507 0 0 1 1.854 1.603 7.44 7.44 0 0 1 1.209 2.179c.283.796.424 1.616.424 2.461 0 .838-.141 1.494-.424 1.966-.283.469-.686.73-1.209.783-.52.051-1.138-.13-1.854-.543Zm.009-1.753c.326.188.598.239.816.152.219-.091.383-.291.494-.599.114-.308.171-.699.171-1.175 0-.476-.057-.933-.171-1.372a3.968 3.968 0 0 0-.494-1.169 2.37 2.37 0 0 0-.816-.797c-.329-.19-.606-.241-.831-.154-.221.089-.389.287-.502.594-.111.309-.167.701-.167 1.177 0 .476.056.932.167 1.369.113.439.281.83.502 1.175.225.343.502.609.831.799Zm6.722.748v4.731l-1.966-1.135v-8.182l1.873 1.081v1.444l.083.048c.157-.386.42-.61.789-.674.369-.068.817.051 1.343.354.492.284.921.656 1.287 1.116.366.46.65.98.853 1.558.203.576.305 1.181.305 1.817v5.21l-1.965-1.135v-4.805a2.756 2.756 0 0 0-.333-1.364 2.41 2.41 0 0 0-.927-.961c-.264-.153-.498-.222-.701-.208a.586.586 0 0 0-.471.304c-.11.184-.167.452-.17.801Z"/><path fill="#fff" stroke="#363636" stroke-width=".781" d="M354.844 252.802c0-10.14 7.119-14.25 15.901-9.18l57.514 33.205c8.781 5.071 15.9 17.401 15.9 27.542 0 10.14-7.119 14.25-15.9 9.18l-57.514-33.206c-8.782-5.07-15.901-17.4-15.901-27.541Z"/><path fill="#fff" stroke="#363636" stroke-width=".781" d="M0 0h66.411v5.469H0z" transform="matrix(.86603 .5 -.86603 .5 375.48 240.887)"/><path fill="#fff" stroke="#363636" stroke-width=".781" d="M359.502 242.507c3.105-1.792 7.174-1.235 11.244 1.114l4.736-2.734c-4.069-2.35-8.139-2.907-11.244-1.114l-4.736 2.734ZM444.159 304.368c0-10.141-7.119-22.471-15.901-27.542l4.736-2.734c8.782 5.07 15.901 17.401 15.901 27.541l-4.736 2.735Z"/><path fill="#fff" stroke="#363636" stroke-width=".781" d="M439.502 314.662c3.105-1.793 4.657-5.596 4.657-10.295l4.737-2.734c0 4.699-1.553 8.501-4.658 10.294l-4.736 2.735Z"/><path fill="#363636" d="M361.79 264.334v-10.909l3.728 2.152a6.72 6.72 0 0 1 1.831 1.531 6.694 6.694 0 0 1 1.153 1.971c.268.709.402 1.425.402 2.15 0 .724-.136 1.285-.406 1.683-.271.398-.663.603-1.177.615-.51.015-1.128-.188-1.854-.607l-2.376-1.372V259.7l2.053 1.185c.384.222.701.329.95.32a.65.65 0 0 0 .563-.32c.126-.204.189-.485.189-.844 0-.362-.063-.715-.189-1.058a3.055 3.055 0 0 0-.563-.959 3.603 3.603 0 0 0-.959-.783l-1.347-.777v9.024l-1.998-1.154Zm11.462 6.778a6.562 6.562 0 0 1-1.859-1.601 7.544 7.544 0 0 1-1.204-2.176 7.307 7.307 0 0 1-.425-2.456c0-.845.142-1.502.425-1.971.283-.472.684-.734 1.204-.786.523-.053 1.142.127 1.859.541a6.485 6.485 0 0 1 1.855 1.604 7.442 7.442 0 0 1 1.208 2.178c.283.796.425 1.616.425 2.461 0 .839-.142 1.494-.425 1.966-.283.469-.686.73-1.208.783-.52.052-1.138-.129-1.855-.543Zm.009-1.753c.326.188.598.239.817.152.218-.09.383-.29.493-.599.114-.307.171-.699.171-1.175 0-.476-.057-.933-.171-1.372a3.978 3.978 0 0 0-.493-1.169 2.37 2.37 0 0 0-.817-.796c-.329-.19-.606-.242-.83-.155-.222.089-.389.287-.503.594-.111.309-.166.702-.166 1.178 0 .475.055.932.166 1.369.114.438.281.83.503 1.174.224.343.501.609.83.799Zm7.368 5.985c-.538-.31-1.026-.752-1.463-1.324a6.917 6.917 0 0 1-1.033-2.018 8.14 8.14 0 0 1-.378-2.531c0-.937.13-1.642.392-2.112.261-.474.609-.741 1.042-.799.437-.061.915.059 1.435.359.397.23.728.499.992.808.268.307.483.623.646.948.166.323.292.619.378.889l.06.035v-4.102l1.961 1.132v10.91l-1.938-1.119v-1.31l-.083-.048a1.342 1.342 0 0 1-.392.45c-.166.124-.383.182-.65.173-.265-.007-.588-.121-.969-.341Zm.623-1.446c.316.183.584.238.802.165.222-.074.391-.259.508-.554.12-.293.18-.683.18-1.169 0-.487-.059-.943-.176-1.369a3.693 3.693 0 0 0-.507-1.124 2.469 2.469 0 0 0-.807-.759c-.323-.187-.595-.243-.817-.168-.221.074-.389.258-.503.551-.114.293-.171.676-.171 1.148 0 .476.057.93.171 1.361.117.43.285.811.503 1.143.222.33.494.589.817.775Zm8.227 6.582a6.577 6.577 0 0 1-1.874-1.614 7.55 7.55 0 0 1-1.199-2.184 7.35 7.35 0 0 1-.415-2.434c0-.839.14-1.493.42-1.963.283-.473.684-.737 1.204-.792.519-.058 1.138.119 1.854.533.618.357 1.16.799 1.624 1.327a6.518 6.518 0 0 1 1.103 1.728c.27.625.42 1.262.447 1.91l-1.854-1.071a3.111 3.111 0 0 0-.415-1.225 2.389 2.389 0 0 0-.872-.882c-.305-.175-.571-.233-.799-.173-.224.059-.399.233-.525.522-.127.29-.19.692-.19 1.207 0 .522.062 1.001.185 1.438.126.439.303.82.53 1.143.228.323.494.573.799.748.224.13.426.193.604.189a.57.57 0 0 0 .447-.205c.12-.136.199-.338.236-.604l1.854 1.071c-.03.607-.178 1.072-.443 1.395-.261.322-.622.482-1.084.482-.461 0-1.007-.182-1.637-.546Zm6.443 3.715a5.068 5.068 0 0 1-1.208-.969 4.659 4.659 0 0 1-.84-1.3 3.883 3.883 0 0 1-.305-1.529c0-.455.073-.795.217-1.02a.858.858 0 0 1 .591-.405c.249-.044.532-.023.849.064.32.089.655.215 1.005.378.413.188.745.334.997.437.252.099.435.138.549.115.114-.024.171-.122.171-.296v-.032c0-.337-.093-.652-.277-.943a2.178 2.178 0 0 0-.775-.724c-.354-.205-.635-.277-.845-.216-.209.057-.347.2-.415.431l-1.817-1.22c.092-.444.273-.768.544-.974.271-.21.62-.289 1.047-.238.431.05.929.238 1.495.565.394.227.77.498 1.13.813.363.316.685.666.964 1.052.283.387.506.803.669 1.249.163.442.245.906.245 1.393v5.519l-1.864-1.076v-1.135l-.055-.032a1 1 0 0 1-.457.413c-.191.082-.42.1-.687.056-.268-.048-.577-.173-.928-.376Zm.563-1.241c.289.167.545.249.766.245a.667.667 0 0 0 .521-.242c.126-.155.189-.376.189-.664v-.868a.691.691 0 0 1-.253-.018 4.398 4.398 0 0 1-.356-.104 15.98 15.98 0 0 1-.396-.15l-.36-.149a2.094 2.094 0 0 0-.605-.162c-.172-.014-.306.024-.401.114-.095.087-.143.237-.143.451 0 .309.097.601.291.876.197.273.446.497.747.671Zm10.849 1.826-1.8-.911a2.006 2.006 0 0 0-.198-.594 2.522 2.522 0 0 0-.401-.578 2.351 2.351 0 0 0-.586-.471c-.305-.176-.562-.25-.771-.221-.209.024-.313.159-.313.404 0 .196.067.4.203.613.135.213.367.455.696.727l1.283 1.039c.689.561 1.202 1.12 1.541 1.678.338.558.507 1.131.507 1.721 0 .536-.137.927-.411 1.174-.27.249-.642.35-1.116.304-.471-.048-1.013-.25-1.629-.605-.938-.541-1.685-1.198-2.242-1.971-.553-.774-.878-1.579-.973-2.416l1.933.999c.058.364.2.698.424 1.002.225.3.512.551.863.754.345.198.621.282.831.25.212-.034.319-.172.322-.416a1.157 1.157 0 0 0-.226-.636c-.147-.22-.375-.455-.682-.703l-1.228-.991c-.692-.56-1.207-1.134-1.545-1.724-.335-.587-.503-1.187-.503-1.797 0-.526.123-.908.369-1.146.249-.236.598-.327 1.047-.274.453.055.982.257 1.587.607.895.517 1.6 1.142 2.113 1.875.517.735.818 1.504.905 2.307Zm5.168.651v1.704l-4.268-2.464v-1.704l4.268 2.464Zm-3.299-3.865 1.965 1.134v7.629c0 .209.028.389.084.538.055.145.132.27.23.373.102.104.219.195.351.271a1.9 1.9 0 0 0 .277.134l.212.074.309 1.867a4.682 4.682 0 0 1-.415-.117 3.619 3.619 0 0 1-.651-.285 4.9 4.9 0 0 1-1.245-.937 4.162 4.162 0 0 1-.826-1.255 3.75 3.75 0 0 1-.291-1.5v-7.926Zm10.386 10.29-1.799-.911a2.016 2.016 0 0 0-.198-.594 2.527 2.527 0 0 0-.402-.578 2.359 2.359 0 0 0-.586-.472c-.304-.175-.561-.249-.77-.221-.209.025-.314.16-.314.405 0 .195.068.4.203.613.135.213.368.455.697.727l1.282 1.039c.689.561 1.203 1.12 1.541 1.678.338.557.508 1.131.508 1.72 0 .537-.137.928-.411 1.175-.271.249-.643.35-1.116.304-.471-.048-1.014-.25-1.629-.605-.938-.542-1.685-1.199-2.242-1.971-.554-.774-.878-1.58-.974-2.416l1.933.999c.059.364.2.698.425 1.001.224.301.512.552.863.754.344.199.621.283.83.251.212-.034.32-.173.323-.416-.003-.208-.078-.42-.226-.636-.148-.221-.375-.455-.683-.704l-1.227-.991c-.692-.559-1.207-1.133-1.546-1.723-.335-.588-.502-1.187-.502-1.798 0-.525.123-.907.369-1.145.249-.236.598-.328 1.047-.274.452.055.981.257 1.587.607.895.517 1.599 1.142 2.113 1.875.517.735.818 1.504.904 2.307Z"/><path fill="#fff" stroke="#363636" stroke-width=".781" d="M275.832 207.485c0-10.141 7.119-14.251 15.901-9.181l35.391 20.433c8.782 5.071 15.901 17.401 15.901 27.542 0 10.14-7.119 14.25-15.901 9.18l-35.391-20.433c-8.782-5.07-15.901-17.401-15.901-27.541Z"/><path fill="#fff" stroke="#363636" stroke-width=".781" d="M0 0h42.355v5.469H0z" transform="matrix(.86603 .5 -.86603 .5 296.473 195.57)"/><path fill="#fff" stroke="#363636" stroke-width=".781" d="M280.49 197.191c3.105-1.793 7.174-1.236 11.244 1.114l4.736-2.735c-4.069-2.349-8.138-2.906-11.243-1.114l-4.737 2.735ZM343.27 246.551c0-10.14-7.119-22.471-15.901-27.541l4.737-2.735c8.781 5.071 15.9 17.401 15.9 27.542l-4.736 2.734ZM338.615 256.845c3.105-1.792 4.657-5.595 4.657-10.294l4.737-2.735c0 4.699-1.552 8.502-4.657 10.295l-4.737 2.734Z"/><path fill="#363636" d="m294.067 214.137 2.284 9.607.088.051 2.288-6.968 2.214 1.278-3.257 9.03-2.574-1.486-3.262-12.794 2.219 1.282Zm10.377 17.06a6.559 6.559 0 0 1-1.859-1.6 7.55 7.55 0 0 1-1.204-2.177 7.301 7.301 0 0 1-.425-2.455c0-.846.142-1.503.425-1.971.283-.473.684-.735 1.204-.786.523-.053 1.142.127 1.859.541a6.482 6.482 0 0 1 1.855 1.603c.522.653.925 1.38 1.208 2.179.283.795.425 1.616.425 2.461 0 .838-.142 1.493-.425 1.966-.283.468-.686.729-1.208.783-.52.051-1.138-.13-1.855-.544Zm.009-1.752c.326.188.598.239.817.152.218-.091.383-.291.493-.6.114-.307.171-.698.171-1.174s-.057-.933-.171-1.372a3.956 3.956 0 0 0-.493-1.169 2.373 2.373 0 0 0-.817-.797c-.329-.19-.606-.241-.83-.154-.222.088-.389.286-.503.594-.111.309-.166.701-.166 1.177 0 .476.055.932.166 1.369.114.439.281.83.503 1.175.224.342.501.609.83.799Zm4.757 4.344v-8.182l1.965 1.134v8.183l-1.965-1.135Zm.987-8.667c-.292-.169-.543-.425-.752-.77-.206-.346-.309-.677-.309-.993 0-.313.103-.522.309-.626.209-.107.46-.076.752.093.292.168.541.426.747.772.209.345.314.673.314.986 0 .316-.105.527-.314.634-.206.104-.455.072-.747-.096Zm5.754 12.719a6.573 6.573 0 0 1-1.873-1.614 7.53 7.53 0 0 1-1.2-2.184 7.382 7.382 0 0 1-.415-2.435c0-.838.14-1.492.42-1.963.283-.472.684-.736 1.204-.791.52-.059 1.138.119 1.855.533a6.536 6.536 0 0 1 2.726 3.055 5.35 5.35 0 0 1 .448 1.91l-1.855-1.071a3.09 3.09 0 0 0-.415-1.225 2.374 2.374 0 0 0-.872-.882c-.304-.176-.571-.233-.798-.173-.225.059-.4.233-.526.522-.126.289-.189.692-.189 1.207 0 .522.061 1.001.184 1.438.126.438.303.819.531 1.143.227.323.494.572.798.748.225.13.426.193.604.189a.574.574 0 0 0 .448-.205c.12-.137.198-.338.235-.605l1.855 1.071c-.031.607-.179 1.073-.443 1.396-.262.321-.623.482-1.084.482-.462 0-1.008-.182-1.638-.546Zm7.652 4.418a6.796 6.796 0 0 1-1.882-1.598 7.317 7.317 0 0 1-1.209-2.158 7.385 7.385 0 0 1-.424-2.487c0-.842.142-1.499.424-1.971.283-.473.682-.738 1.195-.797.517-.057 1.123.116 1.818.517.468.27.903.608 1.306 1.015.406.405.759.866 1.061 1.385.304.52.541 1.09.71 1.71a7.41 7.41 0 0 1 .254 1.968v.624l-5.984-3.455v-1.406l4.134 2.386c0-.327-.062-.652-.185-.975a3.18 3.18 0 0 0-.512-.887 2.647 2.647 0 0 0-.752-.652c-.298-.173-.563-.245-.793-.219a.71.71 0 0 0-.535.325c-.13.188-.196.443-.199.765v1.337a3.41 3.41 0 0 0 .752 2.165c.24.299.525.543.854.733.218.126.418.206.599.239a.707.707 0 0 0 .466-.05.653.653 0 0 0 .296-.352l1.817 1.188c-.092.451-.281.782-.567.994-.283.209-.649.289-1.098.239-.446-.051-.961-.246-1.546-.583Z"/></g><path fill="#fff" stroke="#363636" stroke-width="1.078" d="M408.156 226.948c0-4.763 3.344-6.693 7.468-4.312l50.411 29.104c4.124 2.382 7.468 8.173 7.468 12.936v219.899c0 4.762-3.344 6.693-7.468 4.311l-50.411-29.104c-4.124-2.381-7.468-8.173-7.468-12.935V226.948Z"/><path fill="#fff" stroke="#363636" stroke-width="1.078" d="M0 0h21.559v219.899H0z" transform="matrix(.86603 -.5 0 1 473.502 264.675)"/><path fill="#fff" stroke="#363636" stroke-width="1.078" d="M0 0h58.209v21.559H0z" transform="matrix(.86603 .5 -.86603 .5 434.295 211.856)"/><path fill="#fff" stroke="#363636" stroke-width="1.078" d="M410.344 222.113c1.458-.842 3.369-.581 5.281.523l18.67-10.78c-1.911-1.103-3.823-1.365-5.281-.523l-18.67 10.78ZM473.503 264.676c0-4.763-3.343-10.554-7.468-12.936l18.671-10.779c4.124 2.381 7.468 8.173 7.468 12.935l-18.671 10.78ZM471.314 489.409c1.459-.842 2.188-2.628 2.188-4.835l18.67-10.779c0 2.207-.729 3.993-2.187 4.835l-18.671 10.779Z"/><defs><clipPath id="a"><path fill="#fff" d="M52.438 161.251h220.77v220.77H52.437z"/></clipPath><clipPath id="b"><path fill="#fff" d="M146.857 86.873h302.107v250.981H146.857z"/></clipPath></defs></svg>
