<svg xmlns="http://www.w3.org/2000/svg" viewBox="0 0 343 648" fill="none"><g clip-path="url(#a)"><path fill="url(#b)" d="M185.701 90.117a4.253 4.253 0 0 1-4.108-.723c-1.439-1.208-1.891-3.198-2.257-5.04l-1.086-5.45 2.273 1.566c1.635 1.125 3.306 2.287 4.438 3.917 1.132 1.63 1.626 3.856.717 5.62"/><path fill="#F2F2F2" d="M185.51 96.715c.23-1.676.467-3.373.305-5.067-.143-1.504-.602-2.973-1.536-4.178a6.952 6.952 0 0 0-1.784-1.616c-.178-.112-.342.17-.165.282a6.603 6.603 0 0 1 2.614 3.154c.569 1.447.66 3.025.562 4.562-.06.93-.185 1.853-.312 2.776a.168.168 0 0 0 .114.201.165.165 0 0 0 .201-.114h.001Z"/><path fill="url(#c)" d="M167.143 96.648s2.388-5.876-4.774-10.283l4.774 10.283Z"/><path fill="url(#d)" d="M170.084 96.541s.728-4.188 6.364-4.152l-6.364 4.152Z"/><path fill="#CBCBCB" d="M231.312 96.841h-71.319a.185.185 0 0 1-.136-.053.173.173 0 0 1-.041-.061.183.183 0 0 1 0-.146.173.173 0 0 1 .041-.061.193.193 0 0 1 .136-.053h71.319a.187.187 0 0 1 .129.318.186.186 0 0 1-.129.056Z"/><path fill="#090814" d="M207.776 17.711a2.015 2.015 0 1 0 0-4.03 2.015 2.015 0 0 0 0 4.03Z"/><path fill="#090814" d="M205.874 16.427a2.023 2.023 0 0 1-.259-1.972 2.01 2.01 0 0 1 1.561-1.233 2.011 2.011 0 0 0-1.946 1.317 2.018 2.018 0 0 0 .101 1.622 2.02 2.02 0 0 0 2.096 1.065 2.01 2.01 0 0 1-1.553-.799Z"/><path fill="#090814" d="M205.684 28.743a5.919 5.919 0 1 0 0-11.837 5.919 5.919 0 0 0 0 11.837Z"/><path fill="#2F2E41" d="M200.174 20.669a5.916 5.916 0 0 1 7.664-2.988c-.06-.03-.119-.06-.181-.089a5.914 5.914 0 0 0-6.493 1.04 5.917 5.917 0 0 0 1.555 9.718c.061.028.123.054.185.08a5.916 5.916 0 0 1-2.729-7.76l-.001-.001Z"/><path fill="#FFB8B8" d="m213.075 48.034-2.005 1.503-1.002-3.006 2.255-.752.752 2.255Z"/><path fill="#090814" d="m211.949 52.667 4.008 20.794 5.261 15.532-8.517 1.754-8.267-31.065-.251 29.812-10.773.25 2.505-17.787 1.253-20.041 14.781.752Z"/><path fill="#090814" d="M199.176 88.993v4.008l-.25 2.255s-.501 2.005 2.505 1.503c3.006-.501 1.503-2.755 1.503-2.755l-1.002-2.005-.501-3.257-2.255.251ZM217.999 88.709l.723 3.943.653 2.172s.854 1.881-2.193 1.93c-3.048.05-1.976-2.44-1.976-2.44l.625-2.152-.094-3.294 2.262-.159Z"/><path fill="#FFB8B8" d="M205.689 28.37a3.758 3.758 0 1 0 0-7.516 3.758 3.758 0 0 0 0 7.515Z"/><path fill="#FFB8B8" d="M203.436 26.864s.501 4.008-1.503 5.01c-2.004 1.002 3.758 2.505 3.758 2.505l3.507-4.008s-1.753-2.255-1.252-3.758l-4.51.25Z"/><path fill="url(#e)" d="M208.694 29.621s-.501 2.505-3.507 2.505c-3.006 0-2.254-1.252-2.254-1.252l-4.009 2.005.501 11.524-3.507 8.517s2.005-.5 4.509.752c2.505 1.252 7.265.25 7.265.25s2.005-.25 3.257.25c1.252.502 1.503-1.002 1.503-1.002l-1.503-7.266 2.255-8.016-.501-7.014-4.009-1.253Z"/><path fill="#FFB8B8" d="m194.415 54.674-.751 3.257s-2.756 4.76-.752 5.01c2.004.25 2.505-5.01 2.505-5.01l1.253-3.257h-2.255Z"/><path fill="url(#f)" d="m210.697 31.626 1.233-1.009.771.257s1.253-.25 2.506 1.754c1.252 2.004 6.151 8.437 6.012 9.52-.139 1.082-6.764 5.511-6.764 5.511s.251.752 0 1.002c-.25.25-1.753.752-1.753.501 0-.25-1.702-3.443-1.702-3.443s1.2-1.568 1.451-1.316c.318.27.653.522 1.002.751l2.005-2.004c.197-.23.366-.482.501-.752.327-.585.25-1.503-4.259-5.762l-1.003-5.01Z"/><path fill="url(#g)" d="m200.174 32.875-.675-.33s-1.58.33-2.081 1.332c-.501 1.003-1.753 11.274-1.753 11.274l-1.003 6.763s-.751 0-.751.752c0 .751-1.002 2.756-.251 2.756.752 0 3.758 0 4.259-.501.501-.501 1.503-2.505 1.253-2.756-.251-.25-.752-.25-.752-.25l1.503-7.015.251-12.025Z"/><path fill="#090814" d="M202.223 20.682v4.183h.969l1.233-1.321-.166 1.321h4.283l-.264-1.321.528 1.321h.683v-4.183h-7.266Z"/><path fill="url(#h)" d="M209.449 23.53h.509a1.082 1.082 0 0 1 1.08 1.08v.118a1.082 1.082 0 0 1-1.08 1.08h-.509v-2.279Z"/><path fill="url(#i)" d="M209.324 23.152h.46a.46.46 0 0 1 .46.46v2.112a.457.457 0 0 1-.46.46h-.46v-3.032Z"/><path fill="url(#j)" d="M201.926 25.807h-.509a1.077 1.077 0 0 1-1.08-1.08v-.119a1.085 1.085 0 0 1 .316-.764 1.091 1.091 0 0 1 .764-.316h.509v2.279Z"/><path fill="url(#k)" d="M202.053 26.186h-.46a.46.46 0 0 1-.46-.46v-2.112a.462.462 0 0 1 .46-.46h.46v3.032Z"/><path fill="url(#l)" d="M209.992 23.688h-.337c0-2.38-1.764-4.318-3.932-4.318-2.169 0-3.933 1.937-3.933 4.318h-.337c0-2.567 1.915-4.655 4.27-4.655 2.354 0 4.269 2.088 4.269 4.655Z"/><path fill="#3F3D56" d="m193.379 57.043-.029.019-.515-.812a.553.553 0 0 0-.565-.25.559.559 0 0 0-.203.079l-1.719 1.09a.558.558 0 0 0-.172.768l2.825 4.452a.555.555 0 0 0 .767.171l1.719-1.09a.554.554 0 0 0 .172-.768l-1.943-3.063.03-.018-.367-.578Z"/><path fill="url(#m)" d="m192.733 56.32 2.82 4.445a.415.415 0 0 1-.128.572l-1.727 1.096a.416.416 0 0 1-.573-.128l-2.82-4.445a.415.415 0 0 1 .128-.573l.209-.133a.202.202 0 0 0 .115.146.2.2 0 0 0 .185-.014l.985-.625a.202.202 0 0 0 .092-.161.214.214 0 0 0-.021-.093.206.206 0 0 0-.062-.073l.224-.143a.417.417 0 0 1 .573.128Z"/><g clip-path="url(#n)"><path fill="url(#o)" d="m161.788 87.073-46.642-11.224a4.293 4.293 0 0 1-3.167-5.171l16.27-67.613A4.292 4.292 0 0 1 133.422-.1l46.642 11.224a4.295 4.295 0 0 1 3.167 5.171l-16.27 67.613a4.29 4.29 0 0 1-5.173 3.165Z"/><path fill="#fff" d="m162.513 84.431-46.806-11.263a1.326 1.326 0 0 1-.976-1.594l16.378-68.06a1.32 1.32 0 0 1 1.594-.976L179.509 13.8a1.321 1.321 0 0 1 .977 1.594l-16.378 68.061a1.32 1.32 0 0 1-1.595.975ZM156.174 7.1a.365.365 0 1 0 .171-.71.365.365 0 0 0-.171.71Z"/><path fill="#fff" d="M166.115 22.576a3.078 3.078 0 0 0 2.116-.742c.058-.05.132.044.074.093a3.199 3.199 0 0 1-2.203.768c-.076-.003-.063-.122.013-.119Z"/><path fill="#CCC" d="m168.139 40.37.708-13.75a1.002 1.002 0 0 0-.796-1.027l-1.689-.343-.182-.036-.843-.171-.182-.038-.542-.11-10.936-2.22a.467.467 0 0 1-.05-.011l-2.417-.636-.895-.235-.029-.007-.66-.174-5.754-1.511-1.525-.401-.752-.198-.18-.047-.858-.225-.18-.048-.877-.23-.18-.048-.964-.253-.151-.04-.86-.226-.137-.035-.02-.005a1 1 0 0 0-1.15.581l-5.51 13.12a.993.993 0 0 0 .685 1.352l12.772 3.074c.188.046.356.15.481.298l.199.237c.137.163.323.278.53.328l7.526 1.811a.987.987 0 0 0 .752-.118.904.904 0 0 1 .636-.118l12.855 2.386a.998.998 0 0 0 1.066-.52.992.992 0 0 0 .11-.407l-.001.001Z"/><path fill="#E6E6E6" d="m166.211 39.53 1.895-13.903c.002-.006.002-.012.002-.018a.883.883 0 0 0-.165-.629l-2.358-3.165a.802.802 0 0 0-.411-.29c-1.328-.412-8.108-2.382-11.167-.795a.72.72 0 0 1-1.018-.422 2.974 2.974 0 0 0-.625-1.043 4.546 4.546 0 0 0-.396-.393 5.792 5.792 0 0 0-.412-.329c-.13-.095-.27-.19-.422-.284-.788-.493-1.881-.982-3.395-1.422a27.516 27.516 0 0 0-2.048-.506c-.667-.14-1.381-.27-2.121-.384l-.011-.002-5.633 1.815a.873.873 0 0 0-.551.538l-.032.088-4.912 13.554a.897.897 0 0 0 .042.711.823.823 0 0 0 .541.431l12.102 2.912c.161.04.304.133.405.264l.427.55a.823.823 0 0 0 .442.292l5.301 1.368.013.003c.134.032.274.03.407-.008l1.164-.322a.729.729 0 0 1 .326-.015l11.615 2.154a.822.822 0 0 0 .65-.157.884.884 0 0 0 .346-.594h-.001Z"/><path fill="#fff" d="m162.8 36.12.347-2.152 1.467-9.07.216-1.342a1.435 1.435 0 0 0-1.05-1.621c-2.466-.66-6.987-1.63-9.548-.684a1.256 1.256 0 0 1-1.552-.582 3.668 3.668 0 0 0-.885-1.066 6.313 6.313 0 0 0-.838-.596c-.862-.523-1.996-.987-3.403-1.394l-3.371-.832-.006-.001a.947.947 0 0 0-1.124.64l-.704 2.282-3.085 10.004a1.453 1.453 0 0 0 .499 1.566c.155.119.332.205.521.253 5.646 1.448 7.834 3.239 8.676 4.486a1.44 1.44 0 0 0 1.68.551c2.268-.811 5.611-.384 8.217.184.798.175 1.527.362 2.134.53a1.444 1.444 0 0 0 1.591-.596c.112-.17.186-.36.218-.56ZM133.96 32.298l-.006-.002a.092.092 0 0 1-.054-.046.087.087 0 0 1-.006-.07l4.286-13.526a.09.09 0 0 1 .116-.06.093.093 0 0 1 .054.046.087.087 0 0 1 .006.07l-4.286 13.526a.092.092 0 0 1-.11.062ZM135.263 32.038l-.006-.002a.095.095 0 0 1-.055-.045.096.096 0 0 1-.006-.071l4.286-13.525a.098.098 0 0 1 .046-.055.095.095 0 0 1 .071-.006.093.093 0 0 1 .06.117l-4.286 13.525a.09.09 0 0 1-.043.052.092.092 0 0 1-.067.01ZM136.412 32.028l-.007-.002a.092.092 0 0 1-.031-.017.09.09 0 0 1-.029-.099l4.286-13.525a.09.09 0 0 1 .116-.06c.012.003.023.01.032.017a.105.105 0 0 1 .023.028c.005.011.009.023.01.035a.11.11 0 0 1-.004.036l-4.286 13.525a.094.094 0 0 1-.11.062ZM137.621 31.747l-.007-.002a.092.092 0 0 1-.031-.017.078.078 0 0 1-.023-.028.085.085 0 0 1-.01-.035.088.088 0 0 1 .004-.036l4.286-13.525a.09.09 0 0 1 .116-.06c.012.003.023.009.032.017a.107.107 0 0 1 .023.028c.005.01.009.023.01.035a.109.109 0 0 1-.004.036l-4.286 13.525a.094.094 0 0 1-.11.062ZM164.978 39.856l.007.002a.092.092 0 0 0 .069-.016.097.097 0 0 0 .038-.06l2.336-13.995a.089.089 0 0 0-.001-.036.1.1 0 0 0-.015-.033.085.085 0 0 0-.027-.025.088.088 0 0 0-.034-.012.091.091 0 0 0-.069.016.1.1 0 0 0-.025.026.1.1 0 0 0-.012.034l-2.337 13.994a.092.092 0 0 0 .07.106ZM164.002 38.763l.006.001a.093.093 0 0 0 .107-.076l2.336-13.994a.089.089 0 0 0-.001-.037.094.094 0 0 0-.041-.058.095.095 0 0 0-.103.004.093.093 0 0 0-.038.06l-2.336 13.994a.091.091 0 0 0 .07.106ZM163.135 37.599l.006.001a.091.091 0 0 0 .094-.042.101.101 0 0 0 .013-.034l2.336-13.994a.089.089 0 0 0-.001-.037.093.093 0 0 0-.041-.058.097.097 0 0 0-.071-.011.102.102 0 0 0-.033.015.096.096 0 0 0-.037.06l-2.336 13.994a.092.092 0 0 0 .014.067c.012.02.032.034.055.04l.001-.001Z"/><path fill="#3F3D56" d="M143.939 20.012a8.84 8.84 0 0 1 6.125 1.936c.488.392.93.836 1.319 1.326.11.139.349-.005.238-.146a9.125 9.125 0 0 0-5.786-3.322 8.776 8.776 0 0 0-1.906-.073c-.178.013-.17.292.01.279ZM154.773 24.2a8.84 8.84 0 0 1 6.368.849 8.43 8.43 0 0 1 1.528 1.078c.134.119.327-.082.193-.201a9.135 9.135 0 0 0-6.283-2.256 8.757 8.757 0 0 0-1.886.264c-.174.043-.093.31.08.266ZM154.341 26.005a8.84 8.84 0 0 1 6.368.848 8.43 8.43 0 0 1 1.528 1.078c.134.119.327-.082.193-.2a9.134 9.134 0 0 0-6.283-2.257 8.76 8.76 0 0 0-1.886.264c-.174.044-.093.31.081.267h-.001Z"/><path fill="url(#p)" d="M162.033 29.663a.117.117 0 0 0-.04-.128 9.134 9.134 0 0 0-4.881-2.187l-.034-.005a8.804 8.804 0 0 0-3.253.2.145.145 0 0 0-.061.038.15.15 0 0 0-.034.063l-.81 3.366a.149.149 0 0 0 .001.063c.005.02.014.04.028.056a.138.138 0 0 0 .111.052l.134-.005a13.804 13.804 0 0 1 2.998.244l.064.012a15.57 15.57 0 0 1 2.576.738 16.29 16.29 0 0 1 1.108.466l.042.019c.347.16.689.331 1.028.51a.142.142 0 0 0 .174-.032.148.148 0 0 0 .029-.057l.82-3.407v-.006Z"/><path fill="#fff" d="m155.117 28.01-.043.019a.524.524 0 0 1 .045-.017l-.002-.001Z"/><path fill="#3F3D56" d="M143.509 21.814a8.843 8.843 0 0 1 6.126 1.937c.487.391.929.836 1.319 1.325.109.14.348-.005.237-.145a9.124 9.124 0 0 0-5.786-3.323 8.76 8.76 0 0 0-1.905-.072c-.178.013-.171.291.009.278ZM143.071 23.62a8.842 8.842 0 0 1 6.126 1.935c.488.392.93.837 1.319 1.326.11.14.349-.005.237-.145a9.12 9.12 0 0 0-5.786-3.323 8.758 8.758 0 0 0-1.905-.072c-.178.013-.17.291.009.278ZM142.636 25.424a8.843 8.843 0 0 1 6.126 1.936c.487.392.929.836 1.319 1.326.109.139.348-.005.237-.145a9.125 9.125 0 0 0-5.786-3.323 8.76 8.76 0 0 0-1.905-.072c-.178.012-.171.29.009.278ZM142.204 27.229a8.842 8.842 0 0 1 6.126 1.936c.487.392.93.836 1.319 1.326.11.139.349-.006.237-.146a9.122 9.122 0 0 0-5.786-3.322 8.765 8.765 0 0 0-1.905-.073c-.178.013-.17.291.009.279ZM141.769 29.033a8.84 8.84 0 0 1 6.125 1.936c.488.392.93.837 1.319 1.326.11.14.349-.005.238-.145a9.125 9.125 0 0 0-5.786-3.323 8.763 8.763 0 0 0-1.905-.072c-.178.013-.171.291.009.278Z"/><path fill="url(#q)" d="m151.967 18.875-1.217 5.056c-.021.087-.188.122-.396.093a1.127 1.127 0 0 1-.427-.154.443.443 0 0 1-.05-.04c-.043-.042-.064-.084-.055-.122l1.311-5.446c.152.095.292.19.422.284.151.11.288.22.412.329Z"/><path fill="#E6E6E6" d="m153.496 21.073-.133-.032-3.936 16.357.133.032 3.936-16.357Z"/><path fill="#F2F2F2" d="M162.151 37.102a1.445 1.445 0 0 1-1.164.175 39.463 39.463 0 0 0-2.134-.53l-.004-.006 4.513-3.63-.566 3.008a1.453 1.453 0 0 1-.645.983Z"/><path fill="url(#r)" d="M143.193 61.709a3.614 3.614 0 0 1 2.436 5.025 3.614 3.614 0 1 1-5.168-4.595c.817-.5 1.8-.655 2.732-.43Z"/><path fill="#fff" d="m141.625 63.394-.751 3.122a.198.198 0 0 0 .059.194.198.198 0 0 0 .198.044l2.913-.95a.204.204 0 0 0 .133-.144.204.204 0 0 0-.053-.189l-2.162-2.171a.197.197 0 0 0-.196-.052.2.2 0 0 0-.141.146Z"/><path fill="#F2F2F2" d="M152.276 65.132a2.41 2.41 0 0 1 .694 4.395 2.407 2.407 0 0 1-3.518-1.222 2.408 2.408 0 0 1 2.824-3.173Z"/><path fill="#3F3D56" d="m151.818 68.514.466-1.936a.2.2 0 0 1 .24-.147l.024.006a.201.201 0 0 1 .147.24l-.466 1.936a.198.198 0 0 1-.24.147l-.024-.006a.196.196 0 0 1-.123-.09.194.194 0 0 1-.024-.15ZM150.778 68.481a.12.12 0 0 1-.055-.13l.507-2.106a.119.119 0 0 1 .227-.015l.457 1.19c.015.038.017.08.008.12a.205.205 0 0 1-.062.101l-.942.828a.116.116 0 0 1-.05.027.122.122 0 0 1-.091-.014h.001Z"/><path fill="#F2F2F2" d="M133.549 60.622a2.409 2.409 0 1 0-1.128 4.684 2.409 2.409 0 0 0 1.128-4.684Z"/><path fill="#3F3D56" d="m132.422 63.841.466-1.935a.199.199 0 0 0-.147-.24l-.024-.006a.198.198 0 0 0-.24.147l-.466 1.935a.199.199 0 0 0 .147.24l.024.006a.197.197 0 0 0 .24-.147ZM133.364 64.288a.117.117 0 0 0 .069-.028.116.116 0 0 0 .039-.063l.507-2.106a.12.12 0 0 0-.196-.117l-.948.852a.2.2 0 0 0-.052.221l.462 1.166a.122.122 0 0 0 .032.046.123.123 0 0 0 .087.03v-.001Z"/><path fill="#E6E6E6" d="m139.486 43.478-10.445-2.513a.65.65 0 0 0-.785.48l-.118.491a.65.65 0 0 0 .48.785l10.445 2.513a.65.65 0 0 0 .785-.48l.118-.491a.65.65 0 0 0-.48-.785ZM148.151 48.66l-19.813-4.768a.65.65 0 0 0-.785.48l-.118.492a.65.65 0 0 0 .48.784l19.814 4.768a.65.65 0 0 0 .784-.48l.118-.491a.65.65 0 0 0-.48-.785ZM163.125 60.005l-36.887-8.876a.301.301 0 0 0-.141.585l36.888 8.877a.301.301 0 1 0 .14-.585Z"/><path fill="url(#s)" d="m150.098 56.87-23.86-5.741a.301.301 0 0 0-.141.585l23.86 5.742a.301.301 0 0 0 .141-.585Z"/><path fill="url(#t)" d="M150.041 58.402a1.205 1.205 0 1 0 .564-2.342 1.205 1.205 0 0 0-.564 2.342Z"/></g></g><path fill="#56B7B5" d="M104.778 106.438h-2.488a2.428 2.428 0 0 0-.279-.858c-.14-.254-.32-.47-.539-.648a2.367 2.367 0 0 0-.762-.409 2.904 2.904 0 0 0-.926-.142c-.602 0-1.127.149-1.574.449-.447.295-.793.727-1.04 1.295-.246.564-.369 1.25-.369 2.057 0 .829.123 1.526.37 2.091.25.564.598.99 1.045 1.278.447.288.964.432 1.551.432.33 0 .635-.044.915-.131a2.42 2.42 0 0 0 .756-.38c.219-.171.401-.377.545-.62a2.41 2.41 0 0 0 .307-.829l2.488.011a4.626 4.626 0 0 1-1.511 2.869 4.821 4.821 0 0 1-1.534.921c-.591.223-1.26.335-2.006.335-1.038 0-1.966-.235-2.784-.704-.814-.47-1.458-1.15-1.932-2.04-.47-.89-.704-1.968-.704-3.233 0-1.269.239-2.349.716-3.239.477-.89 1.125-1.568 1.943-2.034.818-.47 1.739-.704 2.761-.704.675 0 1.3.094 1.875.284.58.189 1.093.466 1.54.829.447.36.811.801 1.091 1.324.284.523.466 1.121.545 1.796Zm5.662 7.732c-.882 0-1.645-.187-2.289-.562a3.839 3.839 0 0 1-1.483-1.58c-.349-.678-.523-1.464-.523-2.358 0-.901.174-1.689.523-2.363a3.797 3.797 0 0 1 1.483-1.58c.644-.379 1.407-.568 2.289-.568.883 0 1.644.189 2.284.568a3.792 3.792 0 0 1 1.489 1.58c.349.674.523 1.462.523 2.363 0 .894-.174 1.68-.523 2.358a3.833 3.833 0 0 1-1.489 1.58c-.64.375-1.401.562-2.284.562Zm.012-1.875c.401 0 .736-.113 1.005-.34.269-.232.472-.546.608-.944.14-.397.211-.85.211-1.358 0-.507-.071-.96-.211-1.358-.136-.397-.339-.712-.608-.943-.269-.231-.604-.346-1.005-.346-.406 0-.747.115-1.023.346-.273.231-.479.546-.619.943a4.163 4.163 0 0 0-.205 1.358c0 .508.068.961.205 1.358.14.398.346.712.619.944.276.227.617.34 1.023.34Zm8.278-3.34V114h-2.42v-8.727h2.306v1.539h.103c.193-.507.517-.909.971-1.204.455-.299 1.006-.449 1.654-.449.606 0 1.134.133 1.585.398.451.265.801.644 1.051 1.136.25.489.375 1.072.375 1.75V114h-2.42v-5.125c.003-.534-.133-.951-.409-1.25-.277-.303-.658-.455-1.142-.455-.326 0-.614.071-.864.211-.246.14-.44.344-.58.613-.136.265-.206.586-.21.961Zm12.175-3.682v1.818h-5.256v-1.818h5.256Zm-4.063-2.091h2.421v8.136c0 .224.034.398.102.523a.569.569 0 0 0 .284.256c.125.049.269.073.432.073.114 0 .227-.009.341-.028l.261-.051.381 1.801a7.158 7.158 0 0 1-.511.131c-.22.053-.487.085-.802.096-.583.023-1.094-.055-1.534-.233a2.145 2.145 0 0 1-1.017-.829c-.242-.375-.361-.849-.358-1.421v-8.454Zm9.523 10.988c-.898 0-1.67-.181-2.318-.545a3.734 3.734 0 0 1-1.489-1.557c-.348-.674-.522-1.471-.522-2.392 0-.898.174-1.685.522-2.364a3.866 3.866 0 0 1 1.472-1.585c.636-.379 1.382-.568 2.238-.568.576 0 1.112.093 1.608.279.5.181.936.456 1.307.823.375.368.667.83.875 1.387.209.553.313 1.2.313 1.943v.665h-7.37v-1.5h5.091c0-.349-.075-.658-.227-.926a1.622 1.622 0 0 0-.631-.631 1.799 1.799 0 0 0-.926-.233c-.367 0-.693.085-.977.256-.28.166-.5.392-.659.676-.159.28-.241.593-.244.937v1.426c0 .432.079.805.238 1.12.163.314.392.557.688.727.295.17.646.256 1.051.256.269 0 .515-.038.738-.114a1.474 1.474 0 0 0 .938-.898l2.239.148a3.06 3.06 0 0 1-.699 1.409c-.349.398-.8.708-1.353.932-.549.22-1.183.329-1.903.329Zm8.006-5.215V114h-2.421v-8.727h2.307v1.539h.102c.194-.507.517-.909.972-1.204.455-.299 1.006-.449 1.653-.449.606 0 1.135.133 1.586.398.45.265.801.644 1.051 1.136.25.489.375 1.072.375 1.75V114h-2.421v-5.125c.004-.534-.132-.951-.409-1.25-.276-.303-.657-.455-1.142-.455-.326 0-.613.071-.863.211-.247.14-.44.344-.58.613-.136.265-.206.586-.21.961Zm12.174-3.682v1.818h-5.255v-1.818h5.255Zm-4.062-2.091h2.42v8.136c0 .224.035.398.103.523a.569.569 0 0 0 .284.256c.125.049.269.073.432.073.113 0 .227-.009.34-.028l.262-.051.381 1.801a7.21 7.21 0 0 1-.512.131c-.22.053-.487.085-.801.096-.583.023-1.095-.055-1.534-.233a2.136 2.136 0 0 1-1.017-.829c-.243-.375-.362-.849-.358-1.421v-8.454Zm19.655 3.256h-2.489a2.427 2.427 0 0 0-.278-.858c-.14-.254-.32-.47-.54-.648a2.373 2.373 0 0 0-.761-.409 2.906 2.906 0 0 0-.927-.142c-.602 0-1.126.149-1.573.449-.447.295-.794.727-1.04 1.295-.246.564-.369 1.25-.369 2.057 0 .829.123 1.526.369 2.091.25.564.598.99 1.045 1.278.447.288.964.432 1.551.432.33 0 .635-.044.915-.131a2.42 2.42 0 0 0 .756-.38 2.19 2.19 0 0 0 .545-.62 2.41 2.41 0 0 0 .307-.829l2.489.011a4.537 4.537 0 0 1-.483 1.546 4.647 4.647 0 0 1-1.029 1.323 4.821 4.821 0 0 1-1.534.921c-.591.223-1.259.335-2.005.335-1.038 0-1.966-.235-2.784-.704-.815-.47-1.459-1.15-1.932-2.04-.47-.89-.705-1.968-.705-3.233 0-1.269.239-2.349.716-3.239.477-.89 1.125-1.568 1.943-2.034.818-.47 1.739-.704 2.762-.704.674 0 1.299.094 1.875.284a4.76 4.76 0 0 1 1.539.829c.447.36.811.801 1.091 1.324.284.523.466 1.121.546 1.796Zm5.662 7.732c-.883 0-1.646-.187-2.29-.562a3.845 3.845 0 0 1-1.483-1.58c-.348-.678-.523-1.464-.523-2.358 0-.901.175-1.689.523-2.363a3.803 3.803 0 0 1 1.483-1.58c.644-.379 1.407-.568 2.29-.568.882 0 1.644.189 2.284.568a3.79 3.79 0 0 1 1.488 1.58c.349.674.523 1.462.523 2.363 0 .894-.174 1.68-.523 2.358a3.831 3.831 0 0 1-1.488 1.58c-.64.375-1.402.562-2.284.562Zm.011-1.875c.402 0 .737-.113 1.006-.34.269-.232.471-.546.608-.944.14-.397.21-.85.21-1.358 0-.507-.07-.96-.21-1.358-.137-.397-.339-.712-.608-.943-.269-.231-.604-.346-1.006-.346-.405 0-.746.115-1.023.346-.272.231-.479.546-.619.943a4.19 4.19 0 0 0-.205 1.358c0 .508.069.961.205 1.358.14.398.347.712.619.944.277.227.618.34 1.023.34Zm8.278-3.34V114h-2.42v-8.727h2.307v1.539h.102c.193-.507.517-.909.972-1.204.454-.299 1.005-.449 1.653-.449.606 0 1.135.133 1.585.398.451.265.801.644 1.051 1.136.25.489.375 1.072.375 1.75V114h-2.42v-5.125c.004-.534-.133-.951-.409-1.25-.277-.303-.657-.455-1.142-.455-.326 0-.614.071-.864.211-.246.14-.439.344-.579.613-.137.265-.207.586-.211.961Zm14.795-1.194-2.216.137a1.15 1.15 0 0 0-.245-.512 1.296 1.296 0 0 0-.494-.369 1.675 1.675 0 0 0-.722-.142c-.375 0-.691.08-.948.239-.258.155-.387.363-.387.625 0 .208.083.384.25.528.167.144.453.26.858.347l1.58.318c.848.174 1.481.454 1.897.841.417.386.625.894.625 1.522 0 .572-.168 1.074-.505 1.506-.334.432-.792.769-1.375 1.011-.58.239-1.248.358-2.006.358-1.155 0-2.076-.24-2.761-.721a2.81 2.81 0 0 1-1.199-1.977l2.38-.125c.072.352.247.621.523.806.277.182.631.273 1.063.273.424 0 .765-.081 1.022-.244.262-.167.394-.381.398-.642a.667.667 0 0 0-.278-.54c-.182-.144-.462-.254-.841-.33l-1.512-.301c-.852-.17-1.486-.466-1.903-.886-.413-.421-.619-.956-.619-1.608 0-.561.151-1.044.454-1.449.307-.405.737-.718 1.29-.937.557-.22 1.208-.33 1.955-.33 1.102 0 1.969.233 2.602.699.636.466 1.007 1.1 1.114 1.903Zm7.319 2.523v-5.011h2.421V114H208.3v-1.585h-.091a2.583 2.583 0 0 1-.983 1.233c-.455.31-1.01.466-1.665.466-.583 0-1.097-.133-1.54-.398a2.732 2.732 0 0 1-1.039-1.131c-.247-.488-.372-1.074-.375-1.755v-5.557h2.42v5.125c.004.515.142.922.415 1.221.272.3.638.449 1.096.449.292 0 .565-.066.819-.199a1.56 1.56 0 0 0 .613-.602c.159-.265.237-.593.233-.983ZM212.56 114v-8.727h2.306v1.539h.103c.182-.511.485-.914.909-1.21.424-.295.932-.443 1.523-.443.598 0 1.108.15 1.528.449.42.295.701.697.841 1.204h.091c.178-.5.5-.899.966-1.198.469-.303 1.024-.455 1.664-.455.815 0 1.476.26 1.983.779.512.515.767 1.246.767 2.193V114h-2.414v-5.392c0-.485-.129-.849-.387-1.091-.257-.242-.579-.364-.966-.364-.439 0-.782.141-1.028.421-.246.276-.369.642-.369 1.096V114h-2.347v-5.443c0-.428-.123-.769-.369-1.023-.243-.254-.563-.381-.96-.381a1.34 1.34 0 0 0-.728.205c-.212.133-.38.32-.505.562a1.79 1.79 0 0 0-.188.841V114h-2.42Zm18.571.17c-.898 0-1.671-.181-2.319-.545a3.732 3.732 0 0 1-1.488-1.557c-.349-.674-.523-1.471-.523-2.392 0-.898.174-1.685.523-2.364a3.864 3.864 0 0 1 1.471-1.585c.637-.379 1.383-.568 2.239-.568.576 0 1.112.093 1.608.279.5.181.936.456 1.307.823.375.368.667.83.875 1.387.208.553.312 1.2.312 1.943v.665h-7.369v-1.5h5.091c0-.349-.076-.658-.227-.926a1.629 1.629 0 0 0-.631-.631 1.802 1.802 0 0 0-.926-.233c-.368 0-.693.085-.977.256-.281.166-.5.392-.659.676-.16.28-.241.593-.245.937v1.426c0 .432.08.805.239 1.12.163.314.392.557.687.727.296.17.646.256 1.051.256.269 0 .516-.038.739-.114.224-.076.415-.189.574-.341.159-.151.28-.337.364-.557l2.238.148a3.04 3.04 0 0 1-.699 1.409c-.348.398-.799.708-1.352.932-.549.22-1.184.329-1.903.329Zm5.585-.17v-8.727h2.346v1.522h.091c.16-.541.427-.95.802-1.227.375-.28.806-.42 1.295-.42.121 0 .252.007.392.022.14.016.263.036.369.063v2.148a3.075 3.075 0 0 0-.471-.091 4.164 4.164 0 0 0-.551-.04 1.94 1.94 0 0 0-.955.233 1.72 1.72 0 0 0-.659.636 1.839 1.839 0 0 0-.239.943V114h-2.42Z"/><path fill="url(#u)" d="M171.5 121.333a2.667 2.667 0 1 0 0 5.334 2.667 2.667 0 0 0 0-5.334Zm-.354 27.021a.502.502 0 0 0 .708 0l3.182-3.182a.502.502 0 0 0-.708-.708l-2.828 2.829-2.828-2.829a.502.502 0 0 0-.708.708l3.182 3.182ZM171.5 124h-.5v24h1v-24h-.5Z"/><path fill="#fff" stroke="#363636" stroke-width=".649" d="M150.178 184.134c0-2.867 2.012-6.353 4.495-7.786l36.978-21.349c2.482-1.433 4.495-.271 4.495 2.595v26.775c0 2.866-2.013 6.352-4.495 7.785l-36.978 21.35c-2.483 1.433-4.495.271-4.495-2.596v-26.774Z"/><path fill="#fff" stroke="#363636" stroke-width=".649" d="M0 0h4.246v28.663H0z" transform="matrix(.86603 .5 0 1 146.5 181.066)"/><path fill="#fff" stroke="#363636" stroke-width=".649" d="M0 0h44.587v4.246H0z" transform="matrix(.86603 -.5 .86603 .5 150.178 174.695)"/><path fill="#fff" stroke="#363636" stroke-width=".649" d="M150.177 211.852c0 1.086.359 1.966 1.078 2.38l-3.678-2.123c-.718-.414-1.077-1.294-1.077-2.38l3.677 2.123ZM150.177 183.188c0-2.345 1.647-5.197 3.678-6.37l-3.678-2.123c-2.031 1.173-3.677 4.025-3.677 6.37l3.677 2.123ZM195.071 154.27c-.718-.414-1.659-.285-2.601.258l-3.677-2.123c.941-.544 1.882-.672 2.6-.258l3.678 2.123Z"/><path fill="#fff" stroke="#363636" stroke-width=".62" d="M167.873 188.753c0-2.741 1.912-6.097 4.27-7.495l20.086-11.902c2.359-1.398 4.271-.308 4.271 2.433v3.643c0 2.742-1.912 6.097-4.271 7.495l-20.086 11.903c-2.358 1.397-4.27.308-4.27-2.434v-3.643Z"/><path fill="#fff" stroke="#363636" stroke-width=".62" d="M0 0h2.218v4.524H0z" transform="matrix(.8603 .5098 0 1 165.965 187.189)"/><path fill="#fff" stroke="#363636" stroke-width=".62" d="M0 0h24.402v2.218H0z" transform="matrix(.8603 -.5098 .8603 .5098 169.781 180.4)"/><path fill="#fff" stroke="#363636" stroke-width=".62" d="M167.873 192.84c0 1.158.373 2.095 1.118 2.536l-1.908-1.131c-.746-.441-1.118-1.378-1.118-2.536l1.908 1.131ZM167.873 188.317c0-2.499 1.709-5.537 3.817-6.786l-1.908-1.131c-2.108 1.25-3.817 4.288-3.817 6.786l1.908 1.131ZM195.385 168.816c-.746-.442-1.722-.305-2.699.274l-1.909-1.131c.977-.579 1.954-.716 2.699-.274l1.909 1.131Z"/><ellipse cx="4.437" cy="4.524" fill="#fff" stroke="#363636" stroke-width=".62" rx="4.437" ry="4.524" transform="matrix(.8603 -.5098 0 1 170.631 186.627)"/><path fill="#fff" stroke="#363636" stroke-width=".62" d="M170.631 191.152c0 1.158.373 2.095 1.118 2.537l-1.908-1.131c-.746-.442-1.118-1.379-1.118-2.537l1.908 1.131Z"/><path fill="#fff" stroke="#363636" stroke-width=".62" d="M170.631 191.153c0-2.499 1.709-5.537 3.817-6.786l-1.908-1.131c-2.108 1.25-3.817 4.288-3.817 6.786l1.908 1.131ZM177.146 184.091c-.745-.442-1.722-.304-2.698.274l-1.909-1.13c.977-.579 1.954-.717 2.699-.275l1.908 1.131Z"/><path fill="#4AB7A5" d="M125.636 246.098h-4.125v-11.637h4.159c1.171 0 2.178.233 3.023.699a4.71 4.71 0 0 1 1.949 1.994c.458.868.688 1.906.688 3.114 0 1.212-.23 2.254-.688 3.125a4.725 4.725 0 0 1-1.96 2.006c-.849.466-1.864.699-3.046.699Zm-1.664-2.108h1.562c.727 0 1.339-.129 1.835-.387.5-.261.875-.664 1.125-1.21.254-.549.381-1.257.381-2.125 0-.86-.127-1.562-.381-2.108-.25-.545-.623-.947-1.119-1.204-.496-.258-1.108-.387-1.835-.387h-1.568v7.421Zm9.135 2.108v-8.728h2.42v8.728h-2.42Zm1.215-9.853c-.359 0-.668-.119-.926-.358a1.162 1.162 0 0 1-.38-.869c0-.333.127-.619.38-.858.258-.242.567-.363.926-.363.36 0 .667.121.921.363.257.239.386.525.386.858 0 .337-.129.627-.386.869a1.295 1.295 0 0 1-.921.358Zm7.076 13.307c-.784 0-1.457-.108-2.017-.324-.557-.212-1-.502-1.33-.869a2.679 2.679 0 0 1-.642-1.239l2.239-.301c.068.174.176.337.324.489.147.151.342.273.585.364.246.094.545.142.898.142.526 0 .96-.129 1.301-.387.344-.254.517-.68.517-1.278v-1.597h-.103a2.296 2.296 0 0 1-.477.688 2.399 2.399 0 0 1-.818.528c-.333.136-.731.205-1.193.205a3.585 3.585 0 0 1-1.79-.455c-.534-.307-.96-.775-1.278-1.403-.315-.633-.472-1.432-.472-2.398 0-.989.161-1.814.483-2.477.322-.663.75-1.159 1.284-1.489a3.323 3.323 0 0 1 1.767-.494c.489 0 .898.083 1.227.25.33.163.595.367.796.613.204.243.362.481.471.716h.091v-1.466h2.404v8.813c0 .742-.182 1.364-.546 1.864-.363.5-.867.875-1.511 1.125-.64.253-1.377.38-2.21.38Zm.051-5.398c.39 0 .72-.096.989-.289a1.84 1.84 0 0 0 .624-.841c.148-.368.222-.807.222-1.318 0-.512-.072-.955-.216-1.33-.144-.379-.352-.672-.625-.881-.273-.208-.604-.312-.994-.312-.398 0-.733.108-1.006.324-.273.212-.479.507-.619.886s-.21.816-.21 1.313c0 .503.07.939.21 1.306.144.364.35.646.619.847.273.197.608.295 1.006.295Zm6.142 1.944v-8.728h2.42v8.728h-2.42Zm1.216-9.853c-.36 0-.669-.119-.926-.358a1.159 1.159 0 0 1-.381-.869c0-.333.127-.619.381-.858.257-.242.566-.363.926-.363.36 0 .666.121.92.363.258.239.387.525.387.858 0 .337-.129.627-.387.869-.254.239-.56.358-.92.358Zm7.785 1.125v1.819h-5.255v-1.819h5.255Zm-4.062-2.091h2.42v8.137c0 .223.034.398.103.523a.558.558 0 0 0 .284.255c.125.049.269.074.431.074.114 0 .228-.009.341-.028l.262-.051.38 1.801a6.61 6.61 0 0 1-.511.13c-.22.053-.487.086-.801.097-.583.023-1.095-.055-1.534-.233a2.138 2.138 0 0 1-1.017-.83c-.243-.375-.362-.848-.358-1.42v-8.455Zm8.128 10.983c-.557 0-1.053-.096-1.489-.289a2.394 2.394 0 0 1-1.034-.87c-.25-.386-.375-.867-.375-1.443 0-.485.089-.892.267-1.221.178-.33.42-.595.727-.796a3.52 3.52 0 0 1 1.046-.454 7.817 7.817 0 0 1 1.238-.216c.508-.053.917-.103 1.228-.148.31-.049.536-.121.676-.216a.475.475 0 0 0 .21-.42v-.035c0-.359-.114-.638-.341-.835-.223-.197-.542-.295-.954-.295-.436 0-.783.096-1.04.29a1.335 1.335 0 0 0-.512.715l-2.238-.181c.113-.531.337-.989.67-1.375.334-.39.763-.69 1.29-.898.53-.212 1.144-.318 1.841-.318.485 0 .949.057 1.392.17.447.114.843.29 1.187.529.349.238.624.545.824.92.201.371.301.816.301 1.335v5.887h-2.295v-1.211h-.068c-.14.273-.328.514-.563.722a2.592 2.592 0 0 1-.846.483c-.33.114-.711.17-1.142.17Zm.693-1.67c.356 0 .67-.07.943-.21.273-.144.487-.337.642-.58.155-.242.233-.517.233-.824v-.926c-.076.049-.18.095-.312.137a6.71 6.71 0 0 1-.438.108c-.163.03-.326.058-.489.085l-.443.062a3.002 3.002 0 0 0-.744.199 1.19 1.19 0 0 0-.494.369.899.899 0 0 0-.177.569c0 .329.12.581.358.755.243.171.55.256.921.256Zm8.52-10.131v11.637h-2.421v-11.637h2.421Zm7.363 11.637-2.375-8.728h2.449l1.353 5.864h.079l1.409-5.864h2.404l1.431 5.83h.074l1.33-5.83h2.443l-2.369 8.728h-2.563l-1.5-5.489h-.108l-1.5 5.489h-2.557Zm14.377.164c-.557 0-1.053-.096-1.489-.289a2.4 2.4 0 0 1-1.034-.87c-.25-.386-.375-.867-.375-1.443 0-.485.089-.892.267-1.221.178-.33.421-.595.727-.796a3.52 3.52 0 0 1 1.046-.454 7.817 7.817 0 0 1 1.238-.216c.508-.053.917-.103 1.228-.148.31-.049.536-.121.676-.216a.475.475 0 0 0 .21-.42v-.035c0-.359-.114-.638-.341-.835-.223-.197-.541-.295-.954-.295-.436 0-.783.096-1.04.29a1.328 1.328 0 0 0-.511.715l-2.239-.181c.114-.531.337-.989.67-1.375.334-.39.764-.69 1.29-.898.53-.212 1.144-.318 1.841-.318.485 0 .949.057 1.392.17.447.114.843.29 1.188.529.348.238.623.545.823.92.201.371.302.816.302 1.335v5.887h-2.296v-1.211h-.068c-.14.273-.328.514-.563.722a2.582 2.582 0 0 1-.846.483c-.33.114-.71.17-1.142.17Zm.693-1.67c.356 0 .67-.07.943-.21.273-.144.487-.337.642-.58.156-.242.233-.517.233-.824v-.926c-.076.049-.18.095-.312.137a6.71 6.71 0 0 1-.438.108c-.163.03-.326.058-.488.085l-.444.062a3.002 3.002 0 0 0-.744.199 1.19 1.19 0 0 0-.494.369.898.898 0 0 0-.176.569c0 .329.119.581.358.755.242.171.549.256.92.256Zm8.52-10.131v11.637h-2.421v-11.637h2.421Zm4.359 0v11.637h-2.42v-11.637h2.42Zm5.916 11.807c-.897 0-1.67-.182-2.318-.545a3.737 3.737 0 0 1-1.488-1.557c-.349-.674-.523-1.472-.523-2.392 0-.898.174-1.686.523-2.364a3.864 3.864 0 0 1 1.471-1.585c.637-.379 1.383-.568 2.239-.568.576 0 1.112.093 1.608.278.5.182.935.457 1.307.824.375.367.666.83.875 1.386.208.553.312 1.201.312 1.944v.664h-7.369v-1.5h5.091a1.85 1.85 0 0 0-.228-.926 1.617 1.617 0 0 0-.63-.63 1.792 1.792 0 0 0-.926-.233c-.368 0-.694.085-.978.255-.28.167-.5.392-.659.676-.159.281-.24.593-.244.938v1.426c0 .432.079.805.239 1.119.162.315.392.557.687.728.296.17.646.255 1.051.255.269 0 .515-.038.739-.113.223-.076.415-.19.574-.341a1.48 1.48 0 0 0 .363-.557l2.239.148a3.065 3.065 0 0 1-.699 1.409c-.348.397-.799.708-1.352.932-.549.219-1.184.329-1.904.329Zm10.228-8.898v1.819h-5.256v-1.819h5.256Zm-4.063-2.091h2.421v8.137c0 .223.034.398.102.523a.562.562 0 0 0 .284.255c.125.049.269.074.432.074.113 0 .227-.009.341-.028l.261-.051.381 1.801a6.658 6.658 0 0 1-.512.13 4.058 4.058 0 0 1-.801.097c-.583.023-1.094-.055-1.534-.233a2.147 2.147 0 0 1-1.017-.83c-.242-.375-.362-.848-.358-1.42v-8.455Z"/><path fill="url(#v)" d="M171.5 253.333a2.667 2.667 0 1 0 0 5.334 2.667 2.667 0 0 0 0-5.334Zm-.354 27.021a.502.502 0 0 0 .708 0l3.182-3.182a.502.502 0 0 0-.708-.708l-2.828 2.829-2.828-2.829a.502.502 0 0 0-.708.708l3.182 3.182ZM171.5 256h-.5v24h1v-24h-.5Z"/><path fill="#FF7A7F" d="M187.678 316.875v3.335h-40.491v-22.598l5.367.002.001-3.657-9.024-.004v.005h-.002v29.691h.002v.219h44.147v.002h3.658v-6.995h-3.658Z"/><path fill="#FFC8DC" d="M157.329 320.213h-10.143v3.685h10.143v-3.685Z"/><path fill="#A3BEDC" d="M147.186 323.896v-10.144h-3.685v10.144h3.685Z"/><path fill="#56B7B5" d="M147.186 313.754v-10.145h-3.685v10.145h3.685Z"/><path fill="#FF9852" d="M167.425 320.213h-10.144v3.685h10.144v-3.685Z"/><path fill="#98E1D0" d="M177.597 320.213h-10.144v3.685h10.144v-3.685Z"/><path fill="#8075B3" d="M187.739 320.213h-10.143v3.685h10.143v-3.685Z"/><path fill="#8075B3" d="M191.334 323.895v-8.739h-3.685v8.739h3.685Z"/><path fill="#98E1D0" d="M151.694 316.016H199.5v-29.915h-47.806v29.915Z"/><path fill="#fff" d="M158.312 303.364h3.214a.712.712 0 0 0 .712-.713v-3.212a.711.711 0 0 0-.712-.712h-3.214a.711.711 0 0 0-.712.712v3.214c0 .392.318.711.712.711ZM175.6 308.601a7.446 7.446 0 0 0 7.445-7.446 7.446 7.446 0 1 0-7.445 7.446ZM189.664 303.364h3.213a.713.713 0 0 0 .713-.713v-3.212a.712.712 0 0 0-.713-.712h-3.213a.712.712 0 0 0-.713.712v3.214c0 .392.319.711.713.711Z"/><path fill="#4AB7A5" d="m103.935 351.898-3.329-11.636h2.687l1.926 8.085h.097l2.125-8.085h2.301l2.12 8.102h.102l1.926-8.102h2.687l-3.329 11.636h-2.398l-2.216-7.608h-.091l-2.21 7.608h-2.398Zm16.953.171c-.897 0-1.67-.182-2.318-.546a3.73 3.73 0 0 1-1.488-1.556c-.349-.675-.523-1.472-.523-2.392 0-.898.174-1.686.523-2.364a3.858 3.858 0 0 1 1.471-1.585c.637-.379 1.383-.568 2.239-.568.576 0 1.112.092 1.608.278.5.182.935.456 1.307.824.375.367.666.829.875 1.386.208.553.312 1.201.312 1.943v.665h-7.369v-1.5h5.091a1.85 1.85 0 0 0-.228-.926 1.626 1.626 0 0 0-.63-.631 1.802 1.802 0 0 0-.926-.233c-.368 0-.694.086-.978.256-.28.167-.5.392-.659.676-.159.28-.24.593-.244.938v1.426c0 .432.08.805.239 1.119.163.315.392.557.687.727.296.171.646.256 1.051.256.269 0 .515-.038.739-.114.223-.075.415-.189.574-.34.159-.152.28-.338.363-.557l2.239.147a3.068 3.068 0 0 1-.699 1.41c-.348.397-.799.708-1.352.931-.549.22-1.184.33-1.904.33Zm5.631-.171v-11.636h2.421v4.375h.073c.107-.235.26-.473.461-.716.204-.246.469-.451.795-.613.33-.167.739-.25 1.227-.25.637 0 1.224.166 1.762.5.538.329.968.827 1.29 1.494.322.663.483 1.494.483 2.494 0 .974-.158 1.796-.472 2.466-.311.667-.735 1.172-1.273 1.517a3.264 3.264 0 0 1-1.795.511c-.47 0-.87-.077-1.199-.232a2.482 2.482 0 0 1-.801-.586 2.954 2.954 0 0 1-.478-.721h-.107v1.397h-2.387Zm2.369-4.363c0 .519.072.971.216 1.358.144.386.353.687.625.903.273.212.605.318.995.318.394 0 .727-.108 1-.324.272-.219.479-.522.619-.909.144-.39.216-.839.216-1.346 0-.504-.07-.947-.21-1.33-.14-.382-.347-.682-.62-.897-.272-.216-.608-.324-1.005-.324-.394 0-.728.104-1 .312-.269.208-.476.504-.62.887-.144.382-.216.833-.216 1.352Zm11.506-7.273h3.034l3.205 7.818h.136l3.205-7.818h3.034v11.636h-2.387v-7.573h-.096l-3.012 7.517h-1.625l-3.011-7.546h-.096v7.602h-2.387v-11.636Zm18.539 11.807c-.883 0-1.646-.188-2.29-.563a3.842 3.842 0 0 1-1.483-1.579c-.349-.678-.523-1.464-.523-2.358 0-.902.174-1.69.523-2.364a3.8 3.8 0 0 1 1.483-1.579c.644-.379 1.407-.568 2.29-.568.882 0 1.643.189 2.284.568.644.375 1.14.901 1.488 1.579.349.674.523 1.462.523 2.364 0 .894-.174 1.68-.523 2.358a3.828 3.828 0 0 1-1.488 1.579c-.641.375-1.402.563-2.284.563Zm.011-1.875c.401 0 .737-.114 1.006-.341.269-.231.471-.545.608-.943.14-.398.21-.851.21-1.358 0-.508-.07-.96-.21-1.358-.137-.398-.339-.712-.608-.943-.269-.231-.605-.347-1.006-.347-.405 0-.746.116-1.023.347-.273.231-.479.545-.619.943-.137.398-.205.85-.205 1.358 0 .507.068.96.205 1.358.14.398.346.712.619.943.277.227.618.341 1.023.341Zm8.278-3.341v5.045h-2.42v-8.727h2.307v1.54h.102c.193-.508.517-.909.972-1.205.454-.299 1.005-.448 1.653-.448.606 0 1.134.132 1.585.397.451.265.801.644 1.051 1.137.25.488.375 1.072.375 1.75v5.556h-2.42v-5.125c.004-.534-.133-.95-.409-1.25-.277-.303-.657-.454-1.142-.454-.326 0-.614.07-.864.21-.246.14-.439.345-.579.614-.137.265-.207.585-.211.96Zm11.51 5.216c-.897 0-1.67-.182-2.318-.546a3.737 3.737 0 0 1-1.489-1.556c-.348-.675-.522-1.472-.522-2.392 0-.898.174-1.686.522-2.364a3.86 3.86 0 0 1 1.472-1.585c.636-.379 1.383-.568 2.239-.568a4.55 4.55 0 0 1 1.608.278c.5.182.935.456 1.306.824.375.367.667.829.875 1.386.209.553.313 1.201.313 1.943v.665h-7.369v-1.5h5.091a1.85 1.85 0 0 0-.228-.926 1.626 1.626 0 0 0-.63-.631 1.805 1.805 0 0 0-.927-.233c-.367 0-.693.086-.977.256-.28.167-.5.392-.659.676-.159.28-.24.593-.244.938v1.426c0 .432.079.805.238 1.119.163.315.392.557.688.727.295.171.646.256 1.051.256.269 0 .515-.038.739-.114a1.54 1.54 0 0 0 .574-.34c.159-.152.28-.338.363-.557l2.239.147a3.068 3.068 0 0 1-.699 1.41 3.513 3.513 0 0 1-1.352.931c-.55.22-1.184.33-1.904.33Zm10.228-8.898v1.818h-5.256v-1.818h5.256Zm-4.063-2.091h2.42v8.137c0 .223.035.397.103.522a.56.56 0 0 0 .284.256c.125.049.269.074.432.074.113 0 .227-.01.341-.029l.261-.051.381 1.801a6.7 6.7 0 0 1-.512.131 4.134 4.134 0 0 1-.801.097c-.583.022-1.095-.055-1.534-.233a2.138 2.138 0 0 1-1.017-.83c-.242-.375-.362-.848-.358-1.42v-8.455Zm5.639 10.818v-8.727h2.421v8.727h-2.421Zm1.216-9.852c-.36 0-.668-.119-.926-.358a1.159 1.159 0 0 1-.381-.869c0-.333.127-.619.381-.858.258-.242.566-.364.926-.364.36 0 .667.122.921.364.257.239.386.525.386.858 0 .337-.129.627-.386.869a1.295 1.295 0 0 1-.921.358Zm3.098 9.852v-1.443l4.273-5.29v-.062h-4.125v-1.932h7.04v1.574l-4.012 5.159v.063h4.159v1.931h-7.335Zm11.675.165c-.557 0-1.053-.096-1.489-.29a2.398 2.398 0 0 1-1.034-.869c-.25-.386-.375-.867-.375-1.443 0-.485.089-.892.267-1.222.178-.329.421-.594.727-.795a3.548 3.548 0 0 1 1.046-.455 8.043 8.043 0 0 1 1.239-.216c.507-.053.916-.102 1.227-.147.31-.05.536-.122.676-.216a.475.475 0 0 0 .21-.421v-.034c0-.36-.113-.638-.341-.835-.223-.197-.541-.295-.954-.295-.436 0-.782.096-1.04.289a1.33 1.33 0 0 0-.511.716l-2.239-.182c.114-.53.337-.988.67-1.375.334-.39.764-.689 1.29-.897.53-.212 1.144-.318 1.841-.318.485 0 .949.056 1.392.17.447.114.843.29 1.188.528.348.239.623.546.823.921.201.371.302.816.302 1.335v5.886h-2.296v-1.21h-.068c-.14.273-.328.513-.563.722a2.618 2.618 0 0 1-.846.483c-.33.113-.71.17-1.142.17Zm.693-1.67c.356 0 .67-.07.943-.21.273-.144.487-.338.642-.58.156-.242.233-.517.233-.824v-.926a1.29 1.29 0 0 1-.312.136 5.628 5.628 0 0 1-.438.108c-.163.031-.326.059-.488.086l-.444.062a3.002 3.002 0 0 0-.744.199 1.19 1.19 0 0 0-.494.369.897.897 0 0 0-.176.568c0 .33.119.582.358.756.242.171.549.256.92.256Zm10.742-7.222v1.818h-5.256v-1.818h5.256Zm-4.063-2.091h2.42v8.137c0 .223.035.397.103.522a.56.56 0 0 0 .284.256c.125.049.269.074.432.074.113 0 .227-.01.341-.029l.261-.051.381 1.801a6.7 6.7 0 0 1-.512.131 4.134 4.134 0 0 1-.801.097c-.583.022-1.095-.055-1.534-.233a2.138 2.138 0 0 1-1.017-.83c-.242-.375-.362-.848-.358-1.42v-8.455Zm5.639 10.818v-8.727h2.421v8.727h-2.421Zm1.216-9.852c-.36 0-.668-.119-.926-.358a1.159 1.159 0 0 1-.381-.869c0-.333.127-.619.381-.858.258-.242.566-.364.926-.364.36 0 .667.122.921.364.257.239.386.525.386.858 0 .337-.129.627-.386.869a1.295 1.295 0 0 1-.921.358Zm7.087 10.023c-.883 0-1.646-.188-2.29-.563a3.849 3.849 0 0 1-1.483-1.579c-.348-.678-.523-1.464-.523-2.358 0-.902.175-1.69.523-2.364a3.807 3.807 0 0 1 1.483-1.579c.644-.379 1.407-.568 2.29-.568.882 0 1.644.189 2.284.568.644.375 1.14.901 1.489 1.579.348.674.522 1.462.522 2.364 0 .894-.174 1.68-.522 2.358a3.837 3.837 0 0 1-1.489 1.579c-.64.375-1.402.563-2.284.563Zm.011-1.875c.402 0 .737-.114 1.006-.341.269-.231.471-.545.608-.943.14-.398.21-.851.21-1.358 0-.508-.07-.96-.21-1.358-.137-.398-.339-.712-.608-.943-.269-.231-.604-.347-1.006-.347-.405 0-.746.116-1.023.347-.272.231-.479.545-.619.943-.136.398-.204.85-.204 1.358 0 .507.068.96.204 1.358.14.398.347.712.619.943.277.227.618.341 1.023.341Zm8.279-3.341v5.045h-2.421v-8.727h2.307v1.54h.102c.193-.508.517-.909.972-1.205.454-.299 1.005-.448 1.653-.448.606 0 1.135.132 1.585.397.451.265.802.644 1.052 1.137.25.488.375 1.072.375 1.75v5.556h-2.421v-5.125c.004-.534-.132-.95-.409-1.25-.277-.303-.657-.454-1.142-.454-.326 0-.614.07-.864.21-.246.14-.439.345-.579.614-.137.265-.207.585-.21.96Zm-102.485 29.045v-11.636h7.841v2.028h-5.381v2.773h4.978v2.029h-4.978v2.778h5.404v2.028h-7.864Zm11.774-8.727 1.603 3.051 1.642-3.051h2.483l-2.529 4.364 2.597 4.363h-2.472l-1.721-3.017-1.694 3.017h-2.5l2.591-4.363-2.5-4.364h2.5Zm11.807 0v1.818h-5.256v-1.818h5.256Zm-4.062-2.091h2.42v8.137c0 .223.034.397.102.522a.564.564 0 0 0 .284.256c.125.049.269.074.432.074.114 0 .228-.01.341-.029l.262-.051.38 1.801a6.531 6.531 0 0 1-.511.131c-.22.053-.487.085-.801.097-.584.022-1.095-.055-1.534-.233a2.138 2.138 0 0 1-1.017-.83c-.243-.375-.362-.848-.358-1.42v-8.455Zm9.522 10.989c-.897 0-1.67-.182-2.318-.546a3.73 3.73 0 0 1-1.488-1.556c-.349-.675-.523-1.472-.523-2.392 0-.898.174-1.686.523-2.364a3.858 3.858 0 0 1 1.471-1.585c.637-.379 1.383-.568 2.239-.568.576 0 1.112.092 1.608.278.5.182.935.456 1.307.824.375.367.666.829.875 1.386.208.553.312 1.201.312 1.943v.665h-7.369v-1.5h5.091a1.85 1.85 0 0 0-.228-.926 1.626 1.626 0 0 0-.63-.631 1.802 1.802 0 0 0-.926-.233c-.368 0-.694.086-.978.256-.28.167-.5.392-.659.676-.159.28-.24.593-.244.938v1.426c0 .432.079.805.239 1.119.162.315.392.557.687.727.295.171.646.256 1.051.256.269 0 .515-.038.739-.114.223-.075.415-.189.574-.34.159-.152.28-.338.363-.557l2.239.147a3.068 3.068 0 0 1-.699 1.41c-.348.397-.799.708-1.352.931-.549.22-1.184.33-1.904.33Zm8.006-5.216v5.045h-2.42v-8.727h2.306v1.54h.103c.193-.508.517-.909.971-1.205.455-.299 1.006-.448 1.654-.448.606 0 1.134.132 1.585.397.451.265.801.644 1.051 1.137.25.488.375 1.072.375 1.75v5.556h-2.42v-5.125c.003-.534-.133-.95-.409-1.25-.277-.303-.658-.454-1.143-.454-.325 0-.613.07-.863.21-.246.14-.44.345-.58.614-.136.265-.206.585-.21.96Zm14.794-1.193-2.216.136a1.144 1.144 0 0 0-.244-.511 1.295 1.295 0 0 0-.494-.37 1.693 1.693 0 0 0-.722-.142c-.375 0-.691.08-.949.239-.257.155-.386.364-.386.625a.67.67 0 0 0 .25.528c.166.144.452.26.858.347l1.579.318c.849.174 1.481.455 1.898.841.417.387.625.894.625 1.523a2.38 2.38 0 0 1-.506 1.506c-.333.431-.791.769-1.375 1.011-.579.239-1.248.358-2.005.358-1.156 0-2.076-.241-2.762-.722a2.813 2.813 0 0 1-1.199-1.977l2.381-.125c.072.352.246.621.523.807.276.182.63.273 1.062.273.425 0 .765-.082 1.023-.245.261-.166.394-.38.398-.642a.671.671 0 0 0-.279-.54c-.182-.144-.462-.253-.841-.329l-1.511-.301c-.852-.171-1.487-.466-1.903-.887-.413-.42-.62-.956-.62-1.608 0-.56.152-1.043.455-1.448.307-.406.737-.718 1.29-.938.556-.22 1.208-.329 1.954-.329 1.102 0 1.97.232 2.602.698.637.466 1.008 1.101 1.114 1.904Zm1.723 6.238v-8.727h2.421v8.727h-2.421Zm1.216-9.852c-.36 0-.669-.119-.926-.358a1.159 1.159 0 0 1-.381-.869c0-.333.127-.619.381-.858.257-.242.566-.364.926-.364.36 0 .667.122.92.364.258.239.387.525.387.858 0 .337-.129.627-.387.869-.253.239-.56.358-.92.358Zm7.087 10.023c-.883 0-1.646-.188-2.29-.563a3.842 3.842 0 0 1-1.483-1.579c-.349-.678-.523-1.464-.523-2.358 0-.902.174-1.69.523-2.364a3.8 3.8 0 0 1 1.483-1.579c.644-.379 1.407-.568 2.29-.568.882 0 1.644.189 2.284.568.644.375 1.14.901 1.488 1.579.349.674.523 1.462.523 2.364 0 .894-.174 1.68-.523 2.358a3.828 3.828 0 0 1-1.488 1.579c-.64.375-1.402.563-2.284.563Zm.011-1.875c.402 0 .737-.114 1.006-.341.269-.231.471-.545.608-.943.14-.398.21-.851.21-1.358 0-.508-.07-.96-.21-1.358-.137-.398-.339-.712-.608-.943-.269-.231-.604-.347-1.006-.347-.405 0-.746.116-1.023.347-.272.231-.479.545-.619.943-.136.398-.205.85-.205 1.358 0 .507.069.96.205 1.358.14.398.347.712.619.943.277.227.618.341 1.023.341Zm8.278-3.341v5.045h-2.42v-8.727h2.307v1.54h.102c.193-.508.517-.909.972-1.205.454-.299 1.005-.448 1.653-.448.606 0 1.135.132 1.585.397.451.265.801.644 1.051 1.137.25.488.375 1.072.375 1.75v5.556h-2.42v-5.125c.004-.534-.133-.95-.409-1.25-.277-.303-.657-.454-1.142-.454-.326 0-.614.07-.864.21-.246.14-.439.345-.579.614-.137.265-.207.585-.211.96Z"/><path fill="url(#w)" d="M171.5 385.333a2.667 2.667 0 1 0 0 5.334 2.667 2.667 0 0 0 0-5.334Zm-.354 27.021a.502.502 0 0 0 .708 0l3.182-3.182a.502.502 0 0 0-.708-.708l-2.828 2.829-2.828-2.829a.502.502 0 0 0-.708.708l3.182 3.182ZM171.5 388h-.5v24h1v-24h-.5Z"/><path fill="#fff" stroke="#363636" stroke-width=".649" d="M150.178 448.134c0-2.867 2.012-6.353 4.495-7.786l36.978-21.349c2.482-1.433 4.495-.271 4.495 2.595v26.775c0 2.866-2.013 6.352-4.495 7.785l-36.978 21.35c-2.483 1.433-4.495.271-4.495-2.596v-26.774Z"/><path fill="#fff" stroke="#363636" stroke-width=".649" d="M0 0h4.246v28.663H0z" transform="matrix(.86603 .5 0 1 146.5 445.066)"/><path fill="#fff" stroke="#363636" stroke-width=".649" d="M0 0h44.587v4.246H0z" transform="matrix(.86603 -.5 .86603 .5 150.178 438.695)"/><path fill="#fff" stroke="#363636" stroke-width=".649" d="M150.177 475.852c0 1.086.359 1.966 1.078 2.38l-3.678-2.123c-.718-.414-1.077-1.294-1.077-2.38l3.677 2.123ZM150.177 447.188c0-2.345 1.647-5.197 3.678-6.37l-3.678-2.123c-2.031 1.173-3.677 4.025-3.677 6.37l3.677 2.123ZM195.071 418.27c-.718-.414-1.659-.285-2.601.258l-3.677-2.123c.941-.544 1.882-.672 2.6-.258l3.678 2.123Z"/><path fill="#fff" stroke="#363636" stroke-width=".62" d="M167.873 452.753c0-2.741 1.912-6.097 4.27-7.495l20.086-11.902c2.359-1.398 4.271-.308 4.271 2.433v3.643c0 2.742-1.912 6.097-4.271 7.495l-20.086 11.903c-2.358 1.397-4.27.308-4.27-2.434v-3.643Z"/><path fill="#fff" stroke="#363636" stroke-width=".62" d="M0 0h2.218v4.524H0z" transform="matrix(.8603 .5098 0 1 165.965 451.189)"/><path fill="#fff" stroke="#363636" stroke-width=".62" d="M0 0h24.402v2.218H0z" transform="matrix(.8603 -.5098 .8603 .5098 169.781 444.402)"/><path fill="#fff" stroke="#363636" stroke-width=".62" d="M167.873 456.84c0 1.158.373 2.095 1.118 2.536l-1.908-1.131c-.746-.441-1.118-1.378-1.118-2.536l1.908 1.131ZM167.873 452.319c0-2.499 1.709-5.537 3.817-6.786l-1.908-1.131c-2.108 1.25-3.817 4.288-3.817 6.786l1.908 1.131ZM195.385 432.818c-.746-.442-1.722-.305-2.699.274l-1.909-1.131c.977-.579 1.954-.716 2.699-.274l1.909 1.131Z"/><ellipse cx="4.437" cy="4.524" fill="#fff" stroke="#363636" stroke-width=".62" rx="4.437" ry="4.524" transform="matrix(.8603 -.5098 0 1 170.631 450.625)"/><path fill="#fff" stroke="#363636" stroke-width=".62" d="M170.631 455.15c0 1.158.373 2.095 1.118 2.537l-1.908-1.131c-.746-.442-1.118-1.379-1.118-2.536l1.908 1.13Z"/><path fill="#fff" stroke="#363636" stroke-width=".62" d="M170.631 455.151c0-2.499 1.709-5.537 3.817-6.786l-1.908-1.131c-2.108 1.25-3.817 4.288-3.817 6.786l1.908 1.131ZM177.146 448.089c-.745-.442-1.722-.304-2.698.275l-1.909-1.131c.977-.579 1.954-.716 2.699-.275l1.908 1.131Z"/><path fill="#4AB7A5" d="M125.636 510.098h-4.125v-11.637h4.159c1.171 0 2.178.233 3.023.699a4.71 4.71 0 0 1 1.949 1.994c.458.868.688 1.906.688 3.114 0 1.212-.23 2.254-.688 3.125a4.725 4.725 0 0 1-1.96 2.006c-.849.466-1.864.699-3.046.699Zm-1.664-2.108h1.562c.727 0 1.339-.129 1.835-.387.5-.261.875-.664 1.125-1.21.254-.549.381-1.257.381-2.125 0-.86-.127-1.562-.381-2.108-.25-.545-.623-.947-1.119-1.204-.496-.258-1.108-.387-1.835-.387h-1.568v7.421Zm9.135 2.108v-8.728h2.42v8.728h-2.42Zm1.215-9.853c-.359 0-.668-.119-.926-.358a1.162 1.162 0 0 1-.38-.869c0-.333.127-.619.38-.858.258-.242.567-.363.926-.363.36 0 .667.121.921.363.257.239.386.525.386.858 0 .337-.129.627-.386.869a1.295 1.295 0 0 1-.921.358Zm7.076 13.307c-.784 0-1.457-.108-2.017-.324-.557-.212-1-.502-1.33-.869a2.679 2.679 0 0 1-.642-1.239l2.239-.301c.068.174.176.337.324.489.147.151.342.273.585.364.246.094.545.142.898.142.526 0 .96-.129 1.301-.387.344-.254.517-.68.517-1.278v-1.597h-.103a2.296 2.296 0 0 1-.477.688 2.399 2.399 0 0 1-.818.528c-.333.136-.731.205-1.193.205a3.585 3.585 0 0 1-1.79-.455c-.534-.307-.96-.775-1.278-1.403-.315-.633-.472-1.432-.472-2.398 0-.989.161-1.814.483-2.477.322-.663.75-1.159 1.284-1.489a3.323 3.323 0 0 1 1.767-.494c.489 0 .898.083 1.227.25.33.163.595.367.796.613.204.243.362.481.471.716h.091v-1.466h2.404v8.813c0 .742-.182 1.364-.546 1.864-.363.5-.867.875-1.511 1.125-.64.253-1.377.38-2.21.38Zm.051-5.398c.39 0 .72-.096.989-.289a1.84 1.84 0 0 0 .624-.841c.148-.368.222-.807.222-1.318 0-.512-.072-.955-.216-1.33-.144-.379-.352-.672-.625-.881-.273-.208-.604-.312-.994-.312-.398 0-.733.108-1.006.324-.273.212-.479.507-.619.886s-.21.816-.21 1.313c0 .503.07.939.21 1.306.144.364.35.646.619.847.273.197.608.295 1.006.295Zm6.142 1.944v-8.728h2.42v8.728h-2.42Zm1.216-9.853c-.36 0-.669-.119-.926-.358a1.159 1.159 0 0 1-.381-.869c0-.333.127-.619.381-.858.257-.242.566-.363.926-.363.36 0 .666.121.92.363.258.239.387.525.387.858 0 .337-.129.627-.387.869-.254.239-.56.358-.92.358Zm7.785 1.125v1.819h-5.255v-1.819h5.255Zm-4.062-2.091h2.42v8.137c0 .223.034.398.103.523a.558.558 0 0 0 .284.255c.125.049.269.074.431.074.114 0 .228-.009.341-.028l.262-.051.38 1.801a6.61 6.61 0 0 1-.511.13c-.22.053-.487.086-.801.097-.583.023-1.095-.055-1.534-.233a2.138 2.138 0 0 1-1.017-.83c-.243-.375-.362-.848-.358-1.42v-8.455Zm8.128 10.983c-.557 0-1.053-.096-1.489-.289a2.394 2.394 0 0 1-1.034-.87c-.25-.386-.375-.867-.375-1.443 0-.485.089-.892.267-1.221.178-.33.42-.595.727-.796a3.52 3.52 0 0 1 1.046-.454 7.817 7.817 0 0 1 1.238-.216c.508-.053.917-.103 1.228-.148.31-.049.536-.121.676-.216a.475.475 0 0 0 .21-.42v-.035c0-.359-.114-.638-.341-.835-.223-.197-.542-.295-.954-.295-.436 0-.783.096-1.04.29a1.335 1.335 0 0 0-.512.715l-2.238-.181c.113-.531.337-.989.67-1.375.334-.39.763-.69 1.29-.898.53-.212 1.144-.318 1.841-.318.485 0 .949.057 1.392.17.447.114.843.29 1.187.529.349.238.624.545.824.92.201.371.301.816.301 1.335v5.887h-2.295v-1.211h-.068c-.14.273-.328.514-.563.722a2.592 2.592 0 0 1-.846.483c-.33.114-.711.17-1.142.17Zm.693-1.67c.356 0 .67-.07.943-.21.273-.144.487-.337.642-.58.155-.242.233-.517.233-.824v-.926c-.076.049-.18.095-.312.137a6.71 6.71 0 0 1-.438.108c-.163.03-.326.058-.489.085l-.443.062a3.002 3.002 0 0 0-.744.199 1.19 1.19 0 0 0-.494.369.899.899 0 0 0-.177.569c0 .329.12.581.358.755.243.171.55.256.921.256Zm8.52-10.131v11.637h-2.421v-11.637h2.421Zm7.363 11.637-2.375-8.728h2.449l1.353 5.864h.079l1.409-5.864h2.404l1.431 5.83h.074l1.33-5.83h2.443l-2.369 8.728h-2.563l-1.5-5.489h-.108l-1.5 5.489h-2.557Zm14.377.164c-.557 0-1.053-.096-1.489-.289a2.4 2.4 0 0 1-1.034-.87c-.25-.386-.375-.867-.375-1.443 0-.485.089-.892.267-1.221.178-.33.421-.595.727-.796a3.52 3.52 0 0 1 1.046-.454 7.817 7.817 0 0 1 1.238-.216c.508-.053.917-.103 1.228-.148.31-.049.536-.121.676-.216a.475.475 0 0 0 .21-.42v-.035c0-.359-.114-.638-.341-.835-.223-.197-.541-.295-.954-.295-.436 0-.783.096-1.04.29a1.328 1.328 0 0 0-.511.715l-2.239-.181c.114-.531.337-.989.67-1.375.334-.39.764-.69 1.29-.898.53-.212 1.144-.318 1.841-.318.485 0 .949.057 1.392.17.447.114.843.29 1.188.529.348.238.623.545.823.92.201.371.302.816.302 1.335v5.887h-2.296v-1.211h-.068c-.14.273-.328.514-.563.722a2.582 2.582 0 0 1-.846.483c-.33.114-.71.17-1.142.17Zm.693-1.67c.356 0 .67-.07.943-.21.273-.144.487-.337.642-.58.156-.242.233-.517.233-.824v-.926c-.076.049-.18.095-.312.137a6.71 6.71 0 0 1-.438.108c-.163.03-.326.058-.488.085l-.444.062a3.002 3.002 0 0 0-.744.199 1.19 1.19 0 0 0-.494.369.898.898 0 0 0-.176.569c0 .329.119.581.358.755.242.171.549.256.92.256Zm8.52-10.131v11.637h-2.421v-11.637h2.421Zm4.359 0v11.637h-2.42v-11.637h2.42Zm5.916 11.807c-.897 0-1.67-.182-2.318-.545a3.737 3.737 0 0 1-1.488-1.557c-.349-.674-.523-1.472-.523-2.392 0-.898.174-1.686.523-2.364a3.864 3.864 0 0 1 1.471-1.585c.637-.379 1.383-.568 2.239-.568.576 0 1.112.093 1.608.278.5.182.935.457 1.307.824.375.367.666.83.875 1.386.208.553.312 1.201.312 1.944v.664h-7.369v-1.5h5.091a1.85 1.85 0 0 0-.228-.926 1.617 1.617 0 0 0-.63-.63 1.792 1.792 0 0 0-.926-.233c-.368 0-.694.085-.978.255-.28.167-.5.392-.659.676-.159.281-.24.593-.244.938v1.426c0 .432.079.805.239 1.119.162.315.392.557.687.728.296.17.646.255 1.051.255.269 0 .515-.038.739-.113.223-.076.415-.19.574-.341a1.48 1.48 0 0 0 .363-.557l2.239.148a3.065 3.065 0 0 1-.699 1.409c-.348.397-.799.708-1.352.932-.549.219-1.184.329-1.904.329Zm10.228-8.898v1.819h-5.256v-1.819h5.256Zm-4.063-2.091h2.421v8.137c0 .223.034.398.102.523a.562.562 0 0 0 .284.255c.125.049.269.074.432.074.113 0 .227-.009.341-.028l.261-.051.381 1.801a6.658 6.658 0 0 1-.512.13 4.058 4.058 0 0 1-.801.097c-.583.023-1.094-.055-1.534-.233a2.147 2.147 0 0 1-1.017-.83c-.242-.375-.362-.848-.358-1.42v-8.455Z"/><path fill="url(#x)" d="M171.5 517.333a2.667 2.667 0 1 0 0 5.334 2.667 2.667 0 0 0 0-5.334Zm-.354 27.021a.502.502 0 0 0 .708 0l3.182-3.182a.502.502 0 0 0-.708-.708l-2.828 2.829-2.828-2.829a.502.502 0 0 0-.708.708l3.182 3.182ZM171.5 520h-.5v24h1v-24h-.5Z"/><g clip-path="url(#y)"><path fill="#DFE6F5" d="M163.455 566.445h-1.126v-7.765h1.126c.86 0 1.685.341 2.293.947.608.606.949 1.428.949 2.286v1.292a3.228 3.228 0 0 1-.947 2.291 3.238 3.238 0 0 1-2.295.949Z"/><path fill="#535461" d="M162.188 566.445h.283c.45 0 .814-.363.814-.812v-6.134a.813.813 0 0 0-.814-.812h-.283a.813.813 0 0 0-.814.812v6.134c0 .449.364.812.814.812Z"/><g fill="#F2F2F2" opacity=".1"><path d="M163.457 566.445h-1.126v-7.765h1.126c.86 0 1.685.341 2.293.947.608.606.949 1.428.949 2.286v1.292a3.228 3.228 0 0 1-.947 2.291 3.238 3.238 0 0 1-2.295.949Z"/><path d="M162.192 566.445h.283a.813.813 0 0 0 .814-.812v-6.134a.814.814 0 0 0-.814-.812h-.283a.813.813 0 0 0-.814.812v6.134c0 .449.364.812.814.812Z"/></g><path fill="#090814" d="M163.991 562.789h-19.68v20.353h19.68v-20.353Z"/><path fill="#ED9DA0" d="m163.319 579.67-1.188 8.608-.56 4.045-.206 1.486-1.725 3.353-3.168 6.154-6.111.732-10.751-15.115s-5.629-10.725 2.929-9.751c4.798.548 5.94-3.735 6.026-7.603a28.697 28.697 0 0 0-.528-5.804l8.557 4.145a31.126 31.126 0 0 0-.449 2.546c-.417 3.167-.072 5.141.652 6.337 1.926 3.186 6.522.867 6.522.867Z"/><path fill="#ED9DA0" d="M153.417 572.601c5.469 0 9.902-4.42 9.902-9.872s-4.433-9.872-9.902-9.872c-5.468 0-9.901 4.42-9.901 9.872s4.433 9.872 9.901 9.872Z"/><path fill="url(#z)" d="M161.759 608.207c-.298 1.185.454 3.22 1.452 5.219-4.785.513-10.033.246-10.033.246l-5.384 1.464-15.157 4.387c-.66-.851-1.189-1.921-1.625-3.127l1.502-1.748c4.727-2.879 6.272-6.479 6.497-9.648a13.516 13.516 0 0 0-.417-4.276 14.305 14.305 0 0 0-1.312-3.381l14.071.066h.118l1.157 2.62.053.119.86 1.949 2.933-5.241 1.018-1.639.57-.921s8.436-1.954 8.558 3.048c.015.573-.008 1.147-.067 1.718-.42 4.022-2.627 6.696-4.455 8.519-.169.174-.286.39-.339.626Z"/><path fill="#ED9DA0" d="M193.515 614.525c-.244 2.925-7.334-.975-7.334-.975s-2.201-.732-9.658-5.484a22.716 22.716 0 0 1-8.58-9.987 14.21 14.21 0 0 1-.714-1.956l5.137-3.781 1.498 2.283 4.981 7.587 7.334 4.87s7.58 4.519 7.336 7.443Z"/><path fill="#F2F2F2" d="M225.313 621.751h-107.51l10.763-3.691 26.906-9.228 17.158-5.885h22.099l30.584 18.804Z"/><path fill="#F2F2F2" d="m117.759 621.75-.28 2.248h108.052l-.187-2.248H117.759Z"/><path fill="#000" d="m162.129 588.277-.766 5.528-1.725 3.353a10.577 10.577 0 0 0-3.277-.307c1.216-.167 2.002-7.741 2.002-7.741l.07-.016 3.696-.817Z" opacity=".1"/><path fill="url(#A)" d="M173.345 594.54c-2.445-.366-5.257 3.169-5.257 3.169s-3.3 3.169-5.5.975c-2.132-2.125-5.869-1.842-6.102-1.829 1.216-.169 2.002-7.743 2.002-7.743l.07-.015 11.731-2.601s.7 1.069 1.489 2.43c1.424 2.451 3.14 5.85 1.567 5.614Z"/><path fill="#000" d="m163.319 579.67-1.189 8.607-.56 4.046a120.918 120.918 0 0 1-3.627-.342s2.078-8.653-1.345-13.161c0 0 .072 0 .203-.013 1.921 3.182 6.518.863 6.518.863Z" opacity=".1"/><path fill="url(#B)" d="M156.719 578.816s6.234-.487 8.679 1.219c2.445 1.706 5.418 6.989 5.418 6.989l.936 1.995s-1.462.156-1.341.401c.122.245-1.956 1.462-2.933 1.096-.977-.366-3.423 1.579-3.667 1.828-.245.249-5.745-.366-5.745-.366s2.076-8.653-1.347-13.162Z"/><path fill="#ED9DA0" d="M169.92 611.602c-2.812 3.29-17.236 2.56-17.236 2.56l-5.38 1.46-15.157 4.388c-3.565-4.606-3.485-15.583-3.291-20.024.053-1.192.112-1.913.112-1.913s5.134-3.17 7.457 0c.414.564.762 1.354 1.056 2.27 1.348 4.223 1.513 11.135 1.513 11.135l6.111-.609 8.88-2.106a8.048 8.048 0 0 1 1.868-.217c3.682.01 16.48.231 14.067 3.056Z"/><path fill="url(#C)" d="M152.679 599.904s-1.1.243-3.3-.244c-2.201-.487-3.056.487-4.279.975-1.222.489-4.401.732-5.623.244-1.223-.489-2.444-1.462-5.016-.366s-4.279-1.098-6.845-.858c-2.566.239-4.278-.975-4.278-.975l2.727-6.281.819-1.885 20.452-1.395h.098l5.245 10.785Z"/><path fill="url(#D)" d="M143.517 579.671s-6.723-1.341-9.901.366c-3.177 1.707-5.622 5.484-5.622 5.484s-1.926 5.098-1.66 6.58c.266 1.482 4.471 0 4.471 0s5.256-1.219 5.99.609 4.157.853 4.157.853 7.09-1.95 8.435.244l-5.87-14.136Z"/><path fill="#090814" d="M166.604 589.534c-.605 1.587-2.397 2.378-4.074 2.68-1.653.296-3.346.28-4.994-.045a9.993 9.993 0 0 0 2.7-5.528c.45-3.231-.708-6.529-.231-9.754.49-3.312 2.655-6.219 3.029-9.546-.744.479-1.601-.432-1.992-1.225a32.23 32.23 0 0 1-1.809-4.52c-.606-1.924-1.148-4.079-2.815-5.222-.294-.202-.691-.366-.996-.178-.223.132-.311.41-.375.658-.573 2.238-3.469 3.996-4.289 6.158-.78 2.052-2.188 3.817-2.957 5.877-1.764 4.711 2.89 10.52 3.168 15.542.124 2.218-.061 4.441-.246 6.653-.03.354-.087.754-.381.953-.193.104-.413.15-.631.131a8.66 8.66 0 0 1-2.906-.484c-.376-.132-.753-.292-1.152-.299-.589-.009-1.125.313-1.69.482-1.905.571-3.887-.652-5.271-2.076-1.383-1.424-2.555-3.149-4.335-4.03-.582-.289-1.344-.708-1.188-1.338.075-.214.206-.405.379-.552.721-.722 1.478-1.421 2.069-2.253.889-1.257 1.353-2.756 1.804-4.228.652-2.129 1.311-4.311 1.188-6.534-.058-1.101-.308-2.184-.405-3.29-.19-2.19.241-4.38.668-6.536.291-1.468.606-2.991 1.513-4.185.616-.81 1.464-1.412 2.155-2.161 1.033-1.117 1.679-2.525 2.516-3.795s1.972-2.473 3.462-2.795c.901-.197 1.84-.047 2.751.105.727.122 1.472.248 2.159.526.543.216 1.042.749 1.598.85 1.106.207 2.322-.226 3.506.053 2.303.541 4.405 2.081 5.426 4.233.2.425.369.865.505 1.316.195.631.344 1.278.492 1.922.032.132.062.274.091.41.905 4.285.321 7.405-.074 11.863-.394 4.458-.491 10.43.753 14.74.519 1.8 1.544 3.676.879 5.422Z"/><path fill="url(#E)" d="M150.424 597.646v8.044a5.817 5.817 0 0 1-1.707 4.123 5.875 5.875 0 0 1-6.41 1.275 5.854 5.854 0 0 1-2.354-1.777 5.808 5.808 0 0 1-1.267-3.621v-8.044a5.809 5.809 0 0 1 1.858-4.266 5.873 5.873 0 0 1 8.02 0c.047.042.093.088.139.131.132.132.247.263.363.395a5.81 5.81 0 0 1 1.358 3.74Z"/><path fill="#000" d="M141.988 593.989a.366.366 0 1 0 0-.731.366.366 0 1 0 0 .731ZM141.988 595.208a.366.366 0 1 0 .001-.733.366.366 0 0 0-.001.733ZM141.988 596.427a.366.366 0 1 0 .001-.733.366.366 0 0 0-.001.733ZM141.988 597.646a.366.366 0 1 0 .001-.733.366.366 0 0 0-.001.733ZM141.988 598.864a.366.366 0 1 0 0-.731.366.366 0 1 0 0 .731ZM141.988 600.083a.366.366 0 1 0 .001-.733.366.366 0 0 0-.001.733ZM141.988 601.302a.366.366 0 1 0 .001-.733.366.366 0 0 0-.001.733ZM141.988 602.523a.366.366 0 1 0 .001-.733.366.366 0 0 0-.001.733ZM141.988 603.741a.366.366 0 1 0 0-.731.366.366 0 1 0 0 .731ZM141.988 604.96a.366.366 0 1 0 .001-.733.366.366 0 0 0-.001.733ZM141.988 606.177a.366.366 0 1 0 .001-.733.366.366 0 0 0-.001.733ZM141.988 607.396a.366.366 0 1 0 .001-.733.366.366 0 0 0-.001.733ZM141.988 608.616a.366.366 0 1 0 0-.731.366.366 0 1 0 0 .731ZM141.988 609.835a.366.366 0 1 0 .001-.733.366.366 0 0 0-.001.733ZM140.644 593.624a.37.37 0 0 1-.413.363.374.374 0 0 1-.188-.081 5.56 5.56 0 0 1 .502-.527.36.36 0 0 1 .099.245ZM140.277 595.208a.366.366 0 1 0 .001-.733.366.366 0 0 0-.001.733ZM140.277 596.427a.366.366 0 1 0 .001-.733.366.366 0 0 0-.001.733ZM140.277 597.646a.366.366 0 1 0 .001-.733.366.366 0 0 0-.001.733ZM140.277 598.864a.366.366 0 1 0 0-.731.366.366 0 1 0 0 .731ZM140.277 600.083a.366.366 0 1 0 .001-.733.366.366 0 0 0-.001.733ZM140.277 601.302a.366.366 0 1 0 .001-.733.366.366 0 0 0-.001.733ZM140.277 602.523a.366.366 0 1 0 .001-.733.366.366 0 0 0-.001.733ZM140.277 603.741a.366.366 0 1 0 0-.731.366.366 0 1 0 0 .731ZM140.277 604.96a.366.366 0 1 0 .001-.733.366.366 0 0 0-.001.733ZM140.277 606.177a.366.366 0 1 0 .001-.733.366.366 0 0 0-.001.733ZM140.277 607.396a.366.366 0 1 0 .001-.733.366.366 0 0 0-.001.733ZM140.277 608.616a.366.366 0 1 0 0-.731.366.366 0 1 0 0 .731ZM140.644 609.468a.363.363 0 0 1-.249.346 6.082 6.082 0 0 1-.448-.502.365.365 0 0 1 .697.156ZM143.699 593.989a.366.366 0 1 0 0-.731.366.366 0 1 0 0 .731ZM143.699 595.208a.366.366 0 1 0 .001-.733.366.366 0 0 0-.001.733ZM143.699 596.427a.366.366 0 1 0 .001-.733.366.366 0 0 0-.001.733ZM143.699 597.646a.366.366 0 1 0 .001-.733.366.366 0 0 0-.001.733ZM143.699 598.864a.366.366 0 1 0 0-.731.366.366 0 1 0 0 .731ZM143.699 600.083a.366.366 0 1 0 .001-.733.366.366 0 0 0-.001.733ZM143.699 601.302a.366.366 0 1 0 .001-.733.366.366 0 0 0-.001.733ZM143.699 602.523a.366.366 0 1 0 .001-.733.366.366 0 0 0-.001.733ZM143.699 603.741a.366.366 0 1 0 0-.731.366.366 0 1 0 0 .731ZM143.699 604.96a.366.366 0 1 0 .001-.733.366.366 0 0 0-.001.733ZM143.699 606.177a.366.366 0 1 0 .001-.733.366.366 0 0 0-.001.733ZM143.699 607.396a.366.366 0 1 0 .001-.733.366.366 0 0 0-.001.733ZM143.699 608.616a.366.366 0 1 0 0-.731.366.366 0 1 0 0 .731ZM143.699 609.835a.366.366 0 1 0 .001-.733.366.366 0 0 0-.001.733ZM145.41 593.989a.366.366 0 1 0 0-.731.366.366 0 1 0 0 .731ZM145.41 595.208a.366.366 0 1 0 .001-.733.366.366 0 0 0-.001.733ZM145.41 596.427a.366.366 0 1 0 .001-.733.366.366 0 0 0-.001.733ZM145.41 597.646a.366.366 0 1 0 .001-.733.366.366 0 0 0-.001.733ZM145.41 598.864a.366.366 0 1 0 0-.731.366.366 0 1 0 0 .731ZM145.41 600.083a.366.366 0 1 0 .001-.733.366.366 0 0 0-.001.733ZM145.41 601.302a.366.366 0 1 0 .001-.733.366.366 0 0 0-.001.733ZM145.41 602.523a.366.366 0 1 0 .001-.733.366.366 0 0 0-.001.733ZM145.41 603.741a.366.366 0 1 0 0-.731.366.366 0 1 0 0 .731ZM145.41 604.96a.366.366 0 1 0 .001-.733.366.366 0 0 0-.001.733ZM145.41 606.177a.366.366 0 1 0 .001-.733.366.366 0 0 0-.001.733ZM145.41 607.396a.366.366 0 1 0 .001-.733.366.366 0 0 0-.001.733ZM145.41 608.616a.366.366 0 1 0 0-.731.366.366 0 1 0 0 .731ZM145.41 609.835a.366.366 0 1 0 .001-.733.366.366 0 0 0-.001.733ZM147.123 593.989a.366.366 0 1 0-.367-.365c0 .202.164.365.367.365ZM147.123 595.208a.366.366 0 1 0 0-.731.366.366 0 1 0 0 .731ZM147.123 596.427a.367.367 0 0 0 .367-.366.367.367 0 0 0-.734 0c0 .202.164.366.367.366ZM147.123 597.646a.367.367 0 0 0 .367-.366.367.367 0 0 0-.734 0c0 .202.164.366.367.366ZM147.123 598.864a.366.366 0 1 0-.367-.365c0 .202.164.365.367.365ZM147.123 600.083a.366.366 0 1 0 0-.731.366.366 0 1 0 0 .731ZM147.123 601.302a.367.367 0 0 0 .367-.366.367.367 0 0 0-.734 0c0 .202.164.366.367.366ZM147.123 602.523a.367.367 0 0 0 .367-.366.367.367 0 0 0-.734 0c0 .202.164.366.367.366ZM147.123 603.741a.366.366 0 1 0-.367-.365c0 .202.164.365.367.365ZM147.123 604.96a.366.366 0 1 0 0-.731.366.366 0 1 0 0 .731ZM147.123 606.177a.367.367 0 0 0 .367-.366.367.367 0 0 0-.734 0c0 .202.164.366.367.366ZM147.123 607.396a.367.367 0 0 0 .367-.366.367.367 0 0 0-.734 0c0 .202.164.366.367.366ZM147.123 608.616a.366.366 0 1 0-.367-.365c0 .202.164.365.367.365ZM147.123 609.835a.366.366 0 1 0 0-.731.366.366 0 1 0 0 .731ZM149.069 593.906a.367.367 0 0 1-.6-.282.355.355 0 0 1 .097-.247c.048.042.094.088.14.131.127.13.247.261.363.398ZM148.834 595.208a.366.366 0 1 0 0-.731.366.366 0 1 0 0 .731ZM148.834 596.427a.367.367 0 0 0 .367-.366.367.367 0 0 0-.734 0c0 .202.164.366.367.366ZM148.834 597.646a.367.367 0 0 0 .367-.366.367.367 0 0 0-.734 0c0 .202.164.366.367.366ZM148.834 598.864a.366.366 0 1 0-.367-.365c0 .202.164.365.367.365ZM148.834 600.083a.366.366 0 1 0 0-.731.366.366 0 1 0 0 .731ZM148.834 601.302a.367.367 0 0 0 .367-.366.367.367 0 0 0-.734 0c0 .202.164.366.367.366ZM148.834 602.523a.367.367 0 0 0 .367-.366.367.367 0 0 0-.734 0c0 .202.164.366.367.366ZM148.834 603.741a.366.366 0 1 0-.367-.365c0 .202.164.365.367.365ZM148.834 604.96a.366.366 0 1 0 0-.731.366.366 0 1 0 0 .731ZM148.834 606.177a.367.367 0 0 0 .367-.366.367.367 0 0 0-.734 0c0 .202.164.366.367.366ZM148.834 607.396a.367.367 0 0 0 .367-.366.367.367 0 0 0-.734 0c0 .202.164.366.367.366ZM148.834 608.616a.366.366 0 1 0-.367-.365c0 .202.164.365.367.365ZM149.164 609.31c-.14.176-.289.344-.448.503a.372.372 0 0 1-.239-.253.374.374 0 0 1 .08-.337.37.37 0 0 1 .493-.052.374.374 0 0 1 .114.139Z" opacity=".1"/><path fill="#54576B" d="M144.439 605.08h-.253a.729.729 0 0 0-.729.727v14.877c0 .402.327.727.729.727h.253a.728.728 0 0 0 .729-.727v-14.877a.729.729 0 0 0-.729-.727Z"/><path fill="#54576B" d="M149.242 619.219h-9.858a.938.938 0 0 0-.939.935v.323c0 .517.421.936.939.936h9.858a.938.938 0 0 0 .939-.936v-.323a.938.938 0 0 0-.939-.935Z"/><path fill="#000" d="M167.475 618.731a.183.183 0 1 0 0-.366.183.183 0 0 0 0 .366Z" opacity=".2"/><path fill="url(#F)" d="M165.044 557.508c-2.018-3.626-6.115-6.112-10.824-6.112-6.706 0-12.163 5.03-12.163 11.213h-.862c0-6.653 5.842-12.066 13.019-12.066 4.155 0 7.862 1.814 10.247 4.633.196.631.345 1.277.493 1.922.033.138.063.274.09.41Z"/><path fill="url(#G)" d="M143.012 559.045h1.126v7.765h-1.126a3.258 3.258 0 0 1-2.293-.947 3.225 3.225 0 0 1-.949-2.285v-1.293a3.231 3.231 0 0 1 3.242-3.24Z"/><path fill="#535461" d="M144.281 559.053h-.283a.812.812 0 0 0-.814.812v6.134c0 .448.364.812.814.812h.283a.814.814 0 0 0 .814-.812v-6.134a.813.813 0 0 0-.814-.812Z"/><path fill="url(#H)" d="m147.666 614.882 30.038-3.052.367 5.85-13.619 1.1a8.939 8.939 0 0 1-2.8-.213l-14.011-3.302a.197.197 0 0 1-.111-.074.196.196 0 0 1 .016-.25.199.199 0 0 1 .12-.059Z"/><path fill="#fff" d="m154.787 615.096 15.884-1.614.194 3.093-7.201.583c-.497.04-.997.002-1.481-.114l-7.408-1.747a.1.1 0 0 1-.079-.106.099.099 0 0 1 .028-.065.11.11 0 0 1 .064-.031l-.001.001Z" opacity=".3"/><path fill="url(#I)" d="m171.627 588.853 30.776-.378c.765.05 1.488.368 2.039.899a2.12 2.12 0 0 1 .637 1.809l-3.492 23.537c-.172 1.166-1.35 2.067-2.799 2.137l-31.456 1.577a3.39 3.39 0 0 1-2.391-.783c-.611-.539-.89-1.272-.759-1.996l4.177-24.735c.232-1.286 1.672-2.196 3.268-2.067Z"/><path fill="#F2F2F2" d="M186.096 601.288c.809 0 1.466-.655 1.466-1.463 0-.807-.657-1.462-1.466-1.462-.81 0-1.467.655-1.467 1.462 0 .808.657 1.463 1.467 1.463Z"/></g><path fill="#56B7B5" d="M135.511 642v-11.636h4.591c.883 0 1.635.168 2.256.505a3.428 3.428 0 0 1 1.42 1.392c.33.591.495 1.273.495 2.046 0 .773-.167 1.454-.5 2.045a3.459 3.459 0 0 1-1.449 1.381c-.629.329-1.39.494-2.284.494h-2.926v-1.971h2.528c.474 0 .864-.082 1.17-.245.311-.166.542-.395.694-.687a2.16 2.16 0 0 0 .233-1.017c0-.387-.078-.724-.233-1.012a1.56 1.56 0 0 0-.694-.676c-.31-.163-.704-.244-1.181-.244h-1.659V642h-2.461Zm15.911-3.716v-5.011h2.42V642h-2.324v-1.585h-.09a2.583 2.583 0 0 1-.983 1.233c-.455.31-1.01.466-1.665.466-.584 0-1.097-.133-1.54-.398a2.734 2.734 0 0 1-1.04-1.131c-.246-.488-.371-1.074-.375-1.755v-5.557h2.421v5.125c.004.515.142.922.415 1.221.272.3.638.449 1.096.449.292 0 .564-.066.818-.199.254-.136.459-.337.614-.602.159-.265.237-.593.233-.983Zm4.402 3.716v-11.636h2.42v4.375h.074c.106-.235.26-.474.46-.716.205-.246.47-.451.796-.614.329-.167.739-.25 1.227-.25.637 0 1.224.167 1.761.5.538.33.968.828 1.29 1.494.322.663.483 1.495.483 2.495 0 .973-.157 1.795-.471 2.466-.311.666-.735 1.172-1.273 1.517a3.267 3.267 0 0 1-1.796.511c-.469 0-.869-.078-1.198-.233a2.48 2.48 0 0 1-.802-.585 2.983 2.983 0 0 1-.477-.722h-.108V642h-2.386Zm2.369-4.364c0 .519.072.972.216 1.358.144.387.352.688.625.904.273.212.604.318.994.318.394 0 .728-.108 1-.324.273-.22.48-.523.62-.909.144-.39.216-.839.216-1.347 0-.503-.07-.947-.211-1.329-.14-.383-.346-.682-.619-.898-.273-.216-.608-.324-1.006-.324-.394 0-.727.104-1 .313-.269.208-.475.504-.619.886-.144.383-.216.833-.216 1.352Zm10.178-7.272V642h-2.421v-11.636h2.421ZM170.31 642v-8.727h2.42V642h-2.42Zm1.216-9.852c-.36 0-.669-.12-.927-.358a1.164 1.164 0 0 1-.38-.87c0-.333.127-.619.38-.858.258-.242.567-.363.927-.363.359 0 .666.121.92.363.258.239.386.525.386.858 0 .338-.128.627-.386.87a1.299 1.299 0 0 1-.92.358Zm10.404 3.613-2.216.137a1.137 1.137 0 0 0-.244-.512 1.303 1.303 0 0 0-.494-.369 1.675 1.675 0 0 0-.722-.142c-.375 0-.691.08-.949.239-.257.155-.386.363-.386.625 0 .208.083.384.25.528.167.144.453.26.858.347l1.58.318c.848.174 1.481.454 1.897.841.417.386.625.894.625 1.522 0 .572-.168 1.074-.505 1.506-.334.432-.792.769-1.375 1.011-.58.239-1.249.358-2.006.358-1.155 0-2.076-.24-2.761-.721a2.81 2.81 0 0 1-1.199-1.977l2.38-.125c.072.352.247.621.523.806.277.182.631.273 1.063.273.424 0 .765-.081 1.022-.244.262-.167.394-.381.398-.642a.67.67 0 0 0-.278-.54c-.182-.144-.462-.254-.841-.33l-1.512-.301c-.852-.17-1.486-.466-1.903-.886-.413-.421-.619-.956-.619-1.608 0-.561.151-1.044.454-1.449.307-.405.737-.718 1.29-.937.557-.22 1.208-.33 1.954-.33 1.103 0 1.97.233 2.603.699.636.466 1.007 1.1 1.113 1.903Zm4.144 1.194V642h-2.421v-11.636h2.353v4.448h.102c.197-.515.515-.918.954-1.21.44-.295.991-.443 1.654-.443.606 0 1.134.133 1.585.398a2.65 2.65 0 0 1 1.057 1.131c.254.488.379 1.073.375 1.755V642h-2.421v-5.125c.004-.538-.132-.956-.409-1.256-.272-.299-.655-.449-1.147-.449-.33 0-.622.071-.875.211-.25.14-.447.344-.591.613-.14.265-.212.586-.216.961Zm11.541 5.215c-.898 0-1.67-.181-2.318-.545a3.734 3.734 0 0 1-1.489-1.557c-.348-.674-.522-1.471-.522-2.392 0-.898.174-1.685.522-2.364a3.866 3.866 0 0 1 1.472-1.585c.636-.379 1.382-.568 2.238-.568.576 0 1.112.093 1.608.279.5.181.936.456 1.307.823.375.368.667.83.875 1.387.209.553.313 1.2.313 1.943v.665h-7.37v-1.5h5.091c0-.349-.075-.658-.227-.926a1.622 1.622 0 0 0-.631-.631 1.799 1.799 0 0 0-.926-.233c-.367 0-.693.085-.977.256-.28.166-.5.392-.659.676-.159.28-.241.593-.244.937v1.426c0 .432.079.805.238 1.12.163.314.392.557.688.727.295.17.646.256 1.051.256.269 0 .515-.038.738-.114a1.474 1.474 0 0 0 .938-.898l2.239.148a3.06 3.06 0 0 1-.699 1.409c-.349.398-.8.708-1.353.932-.549.22-1.183.329-1.903.329Zm5.585-.17v-8.727h2.347v1.522h.091c.159-.541.426-.95.801-1.227.375-.28.807-.42 1.295-.42.122 0 .252.007.392.022a2.8 2.8 0 0 1 .37.063v2.148a3.117 3.117 0 0 0-.472-.091 4.153 4.153 0 0 0-.551-.04c-.356 0-.674.078-.955.233a1.72 1.72 0 0 0-.659.636 1.838 1.838 0 0 0-.238.943V642H203.2Z"/><defs><linearGradient id="b" x1="178.249" x2="186.149" y1="84.552" y2="84.552" gradientUnits="userSpaceOnUse"><stop stop-color="#005D84"/><stop offset="1" stop-color="#4A989D"/></linearGradient><linearGradient id="c" x1="162.368" x2="167.525" y1="91.436" y2="91.436" gradientUnits="userSpaceOnUse"><stop stop-color="#005D84"/><stop offset="1" stop-color="#4A989D"/></linearGradient><linearGradient id="d" x1="170.083" x2="176.447" y1="94.436" y2="94.436" gradientUnits="userSpaceOnUse"><stop stop-color="#005D84"/><stop offset="1" stop-color="#4A989D"/></linearGradient><linearGradient id="e" x1="197.152" x2="211.925" y1="40.782" y2="43.691" gradientUnits="userSpaceOnUse"><stop stop-color="#009877"/><stop offset="1" stop-color="#50D098"/></linearGradient><linearGradient id="f" x1="211.449" x2="220.562" y1="39.035" y2="40.483" gradientUnits="userSpaceOnUse"><stop stop-color="#009877"/><stop offset="1" stop-color="#50D098"/></linearGradient><linearGradient id="g" x1="193.866" x2="199.855" y1="42.89" y2="43.39" gradientUnits="userSpaceOnUse"><stop stop-color="#009877"/><stop offset="1" stop-color="#50D098"/></linearGradient><linearGradient id="h" x1="209.563" x2="210.921" y1="24.56" y2="24.826" gradientUnits="userSpaceOnUse"><stop stop-color="#009877"/><stop offset="1" stop-color="#50D098"/></linearGradient><linearGradient id="i" x1="209.39" x2="210.201" y1="24.523" y2="24.592" gradientUnits="userSpaceOnUse"><stop stop-color="#009877"/><stop offset="1" stop-color="#50D098"/></linearGradient><linearGradient id="j" x1="201.812" x2="200.454" y1="24.776" y2="24.51" gradientUnits="userSpaceOnUse"><stop stop-color="#009877"/><stop offset="1" stop-color="#50D098"/></linearGradient><linearGradient id="k" x1="201.987" x2="201.176" y1="24.815" y2="24.746" gradientUnits="userSpaceOnUse"><stop stop-color="#009877"/><stop offset="1" stop-color="#50D098"/></linearGradient><linearGradient id="l" x1="202.063" x2="208.051" y1="21.138" y2="24.226" gradientUnits="userSpaceOnUse"><stop stop-color="#009877"/><stop offset="1" stop-color="#50D098"/></linearGradient><linearGradient id="m" x1="190.624" x2="195.143" y1="59.008" y2="60.08" gradientUnits="userSpaceOnUse"><stop stop-color="#009877"/><stop offset="1" stop-color="#50D098"/></linearGradient><linearGradient id="o" x1="124.127" x2="170.801" y1="44.313" y2="47.388" gradientUnits="userSpaceOnUse"><stop stop-color="#FF797F"/><stop offset="1" stop-color="#FF587F"/></linearGradient><linearGradient id="p" x1="154.081" x2="159.272" y1="28.795" y2="33.165" gradientUnits="userSpaceOnUse"><stop stop-color="#009877"/><stop offset="1" stop-color="#50D098"/></linearGradient><linearGradient id="q" x1="150.586" x2="151.399" y1="20.823" y2="21.059" gradientUnits="userSpaceOnUse"><stop stop-color="#009877"/><stop offset="1" stop-color="#50D098"/></linearGradient><linearGradient id="r" x1="139.417" x2="144.806" y1="64.16" y2="67.177" gradientUnits="userSpaceOnUse"><stop stop-color="#009877"/><stop offset="1" stop-color="#50D098"/></linearGradient><linearGradient id="s" x1="127.627" x2="127.342" y1="51.743" y2="53.616" gradientUnits="userSpaceOnUse"><stop stop-color="#009877"/><stop offset="1" stop-color="#50D098"/></linearGradient><linearGradient id="t" x1="149.346" x2="151.142" y1="56.878" y2="57.884" gradientUnits="userSpaceOnUse"><stop stop-color="#009877"/><stop offset="1" stop-color="#50D098"/></linearGradient><linearGradient id="u" x1="170.5" x2="180.527" y1="145.514" y2="136.061" gradientUnits="userSpaceOnUse"><stop offset=".12" stop-color="#7F76B2"/><stop offset=".298" stop-color="#F69656"/><stop offset=".591" stop-color="#F2797F"/><stop offset=".904" stop-color="#9CD6CB"/></linearGradient><linearGradient id="v" x1="170.5" x2="180.527" y1="277.514" y2="268.061" gradientUnits="userSpaceOnUse"><stop offset=".12" stop-color="#7F76B2"/><stop offset=".298" stop-color="#F69656"/><stop offset=".591" stop-color="#F2797F"/><stop offset=".904" stop-color="#9CD6CB"/></linearGradient><linearGradient id="w" x1="170.5" x2="180.527" y1="409.514" y2="400.061" gradientUnits="userSpaceOnUse"><stop offset=".12" stop-color="#7F76B2"/><stop offset=".298" stop-color="#F69656"/><stop offset=".591" stop-color="#F2797F"/><stop offset=".904" stop-color="#9CD6CB"/></linearGradient><linearGradient id="x" x1="170.5" x2="180.527" y1="541.514" y2="532.061" gradientUnits="userSpaceOnUse"><stop offset=".12" stop-color="#7F76B2"/><stop offset=".298" stop-color="#F69656"/><stop offset=".591" stop-color="#F2797F"/><stop offset=".904" stop-color="#9CD6CB"/></linearGradient><linearGradient id="z" x1="133.554" x2="160.976" y1="605.498" y2="616.221" gradientUnits="userSpaceOnUse"><stop stop-color="#009877"/><stop offset="1" stop-color="#50D098"/></linearGradient><linearGradient id="A" x1="157.735" x2="171.305" y1="592.358" y2="597.504" gradientUnits="userSpaceOnUse"><stop stop-color="#009877"/><stop offset="1" stop-color="#50D098"/></linearGradient><linearGradient id="B" x1="157.792" x2="169.971" y1="584.925" y2="588.696" gradientUnits="userSpaceOnUse"><stop stop-color="#009877"/><stop offset="1" stop-color="#50D098"/></linearGradient><linearGradient id="C" x1="125.433" x2="143.146" y1="594.558" y2="606.707" gradientUnits="userSpaceOnUse"><stop stop-color="#009877"/><stop offset="1" stop-color="#50D098"/></linearGradient><linearGradient id="D" x1="127.956" x2="145.086" y1="585.796" y2="593.381" gradientUnits="userSpaceOnUse"><stop stop-color="#009877"/><stop offset="1" stop-color="#50D098"/></linearGradient><linearGradient id="E" x1="138.684" x2="150.422" y1="601.532" y2="601.532" gradientUnits="userSpaceOnUse"><stop stop-color="#005D84"/><stop offset="1" stop-color="#4A989D"/></linearGradient><linearGradient id="F" x1="142.898" x2="159.075" y1="555.999" y2="564.989" gradientUnits="userSpaceOnUse"><stop stop-color="#009877"/><stop offset="1" stop-color="#50D098"/></linearGradient><linearGradient id="G" x1="140.081" x2="143.865" y1="562.556" y2="563.155" gradientUnits="userSpaceOnUse"><stop stop-color="#009877"/><stop offset="1" stop-color="#50D098"/></linearGradient><linearGradient id="H" x1="150.544" x2="162.86" y1="615.883" y2="603.061" gradientUnits="userSpaceOnUse"><stop stop-color="#FF797F"/><stop offset="1" stop-color="#FF587F"/></linearGradient><linearGradient id="I" x1="168.236" x2="199.324" y1="605.873" y2="595.778" gradientUnits="userSpaceOnUse"><stop stop-color="#FF797F"/><stop offset="1" stop-color="#FF587F"/></linearGradient><clipPath id="a"><path fill="#fff" d="M111.5 0h120v96.84h-120z"/></clipPath><clipPath id="n"><path fill="#fff" d="m129.256-1.104 54.982 13.23-18.276 75.95-54.982-13.23z"/></clipPath><clipPath id="y"><path fill="#fff" d="M117.475 548h108.052v76H117.475z"/></clipPath></defs></svg>
