<svg xmlns="http://www.w3.org/2000/svg" fill="none" viewBox="0 0 147 152"><ellipse cx="73.5" cy="73.763" fill="#FFC121" rx="73.5" ry="73.763"/><path fill="#FFFDF8" d="m41.53 107.323 23.416-3.303 5.746 41.03a3.658 3.658 0 0 1-3.112 4.129l-16.178 2.282a3.65 3.65 0 0 1-4.126-3.109l-5.745-41.029ZM97.95 75.402l3.29 23.499-36.294 5.119-3.29-23.499zM91.038 26.054l3.291 23.499-36.294 5.119-3.29-23.499zM121.365 72.1 97.95 75.402l-3.62-25.848 23.415-3.303z"/><path fill="#FFFDF8" d="M41.53 107.323c-1.81-12.934 7.193-24.978 20.125-26.802l3.291 23.499-23.415 3.303ZM121.364 72.1c1.812 12.934-7.192 24.978-20.124 26.802l-3.29-23.5 23.414-3.302ZM91.038 26.054c12.932-1.824 24.895 7.263 26.707 20.197l-23.416 3.302-3.29-23.499ZM58.035 54.672C45.103 56.496 33.14 47.41 31.33 34.476l23.415-3.303 3.291 23.5Z"/><path fill="#FFFDF8" fill-rule="evenodd" d="m97.948 75.401-.492-3.512a3.551 3.551 0 0 1-3.02 4.008l3.512-.496ZM68.459 103.525l-3.513.495.492 3.513a3.551 3.551 0 0 1 3.02-4.008ZM94.33 49.553l-3.513.496a3.543 3.543 0 0 1 4.004 3.017l-.492-3.513Z" clip-rule="evenodd"/><rect width="5.912" height="28.474" fill="#FFFDF8" rx="1.182" transform="rotate(-8.028 221.937 -524.945) skewX(-.056)"/><rect width="5.932" height="28.377" fill="#FFFDF8" rx="1.182" transform="rotate(82.028 28.898 97.455) skewX(.056)"/></svg>
