<svg xmlns="http://www.w3.org/2000/svg" fill="none" viewBox="0 0 460 160"><path fill="#17191E" d="M65.784 121.175c-4.517-4.13-5.836-12.807-3.954-19.093 3.264 3.963 7.786 5.219 12.47 5.927 7.23 1.094 14.332.685 21.049-2.62.768-.378 1.478-.882 2.318-1.391.63 1.828.794 3.674.574 5.553-.535 4.576-2.812 8.111-6.434 10.79-1.448 1.072-2.98 2.03-4.477 3.041-4.595 3.105-5.838 6.747-4.112 12.045.041.129.078.258.17.573-2.345-1.05-4.06-2.579-5.365-4.589-1.38-2.122-2.035-4.469-2.07-7.008-.017-1.236-.017-2.483-.183-3.701-.406-2.97-1.8-4.3-4.427-4.377-2.696-.078-4.829 1.588-5.394 4.213-.044.201-.106.4-.169.634l.004.003ZM40 101.034s13.377-6.516 26.792-6.516l10.115-31.303c.379-1.513 1.484-2.542 2.732-2.542 1.249 0 2.354 1.029 2.733 2.542l10.114 31.303c15.888 0 26.793 6.516 26.793 6.516L96.511 39.009C95.86 37.179 94.758 36 93.274 36H66.007c-1.484 0-2.54 1.179-3.237 3.009-.05.122-22.77 62.025-22.77 62.025ZM181.043 81.123c0 5.485-6.823 8.76-16.27 8.76-6.149 0-8.323-1.523-8.323-4.723 0-3.352 2.699-4.951 8.847-4.951 5.549 0 10.272.076 15.746.761v.153Zm.075-6.78c-3.374-.763-8.473-1.22-14.546-1.22-17.695 0-26.017 4.19-26.017 13.942 0 10.133 5.698 14.018 18.894 14.018 11.172 0 18.744-2.819 21.519-9.752h.449c-.075 1.676-.15 3.352-.15 4.647 0 3.581.6 3.886 3.524 3.886h13.796c-.75-2.133-1.2-8.152-1.2-13.332 0-5.562.225-9.752.225-15.39 0-11.503-6.897-18.817-28.491-18.817-9.297 0-19.644 1.6-27.516 3.962.749 3.123 1.799 9.447 2.324 13.56 6.823-3.2 16.495-4.57 23.993-4.57 10.346 0 13.196 2.361 13.196 7.16v1.905ZM218.971 84.322c-1.874.229-4.424.229-7.048.229-2.774 0-5.323-.076-7.048-.305 0 .61-.075 1.295-.075 1.905 0 9.523 6.223 15.084 28.117 15.084 20.618 0 27.291-5.485 27.291-15.16 0-9.142-4.423-13.637-23.992-14.628-15.221-.685-16.57-2.361-16.57-4.266 0-2.21 1.949-3.352 12.146-3.352 10.572 0 13.421 1.447 13.421 4.495v.685c1.499-.076 4.199-.152 6.973-.152 2.624 0 5.473.076 7.123.229 0-.686.075-1.296.075-1.829 0-11.199-9.298-14.856-27.292-14.856-20.244 0-27.067 4.952-27.067 14.628 0 8.685 5.474 14.094 24.893 14.932 14.32.457 15.895 2.057 15.895 4.266 0 2.362-2.325 3.428-12.371 3.428-11.547 0-14.471-1.6-14.471-4.876v-.457ZM284.955 44.173c-5.473 5.105-15.295 10.21-20.768 11.58.075 2.82.075 8 .075 10.819l5.023.076c-.075 5.409-.15 11.96-.15 16.303 0 10.133 5.323 17.751 21.893 17.751 6.973 0 11.622-.762 17.395-1.98-.6-3.734-1.275-9.448-1.5-13.79-3.449 1.143-7.797 1.752-12.596 1.752-6.673 0-9.372-1.828-9.372-7.085 0-4.571 0-8.837.075-12.799 8.548.076 17.095.229 22.118.381-.075-3.962.075-9.675.3-13.485-7.273.153-15.445.229-22.193.229.075-3.352.15-6.552.225-9.752h-.525ZM329.736 64.286c.075-3.962.15-7.314.225-10.59H314.89c.225 6.552.225 13.257.225 23.084 0 9.828-.075 16.608-.225 23.084h17.245c-.3-4.571-.375-12.266-.375-18.818 0-10.36 4.199-13.332 13.721-13.332 4.424 0 7.573.534 10.347 1.524.075-3.885.825-11.428 1.274-14.78-2.849-.838-5.998-1.371-9.822-1.371-8.172-.076-14.17 3.276-16.944 11.275l-.6-.076ZM404.808 76.475c0 8.305-5.998 12.19-15.445 12.19-9.372 0-15.37-3.657-15.37-12.19 0-8.532 6.073-11.732 15.37-11.732 9.372 0 15.445 3.428 15.445 11.732Zm15.67-.38c0-16.532-12.896-23.922-31.115-23.922-18.294 0-30.741 7.39-30.741 23.921 0 16.456 11.622 25.294 30.666 25.294 19.194 0 31.19-8.838 31.19-25.294Z"/></svg>
