<svg xmlns="http://www.w3.org/2000/svg" id="Layer_1" data-name="Layer 1" viewBox="0 0 1783.56 297.85"><defs><style>.cls-5,.cls-6{stroke-width:0}.cls-5{fill:#0d7268}.cls-6{fill:#222}</style></defs><path d="M371.01 218.76V82.07h15.21v136.69h-15.21ZM427.9 218.76h-14.81v-98.77h14.61v6.92c10.66-5.93 20.87-8.89 30.61-8.89 13.16 0 22.02 3.56 26.57 10.66 4.55 7.11 6.81 19.75 6.81 37.93v52.14h-14.61v-51.76c0-13.69-1.36-23.07-4.05-28.15-2.7-5.07-8.46-7.6-17.29-7.6-4.22 0-8.66.62-13.34 1.87s-8.26 2.47-10.77 3.65l-3.75 1.78v80.2h.01v.02ZM565.78 132.83h-31.4v47.21c0 11.32.82 18.76 2.47 22.32 1.65 3.56 5.56 5.34 11.75 5.34l17.58-1.19.99 12.24c-8.83 1.45-15.54 2.17-20.15 2.17-10.28 0-17.38-2.5-21.33-7.51s-5.93-14.55-5.93-28.65V132.8h-14.02v-12.84h14.02V89.77h14.61V120h31.4v12.83h.01ZM647.17 206.51l5.73-.59.4 11.65c-15.01 2.11-27.86 3.16-38.52 3.16-14.22 0-24.3-4.11-30.23-12.35-5.93-8.23-8.89-21.03-8.89-38.42 0-34.63 13.76-51.96 41.28-51.96 13.3 0 23.24 3.72 29.83 11.16s9.88 19.13 9.88 35.06l-.79 11.27h-65.19c0 10.94 1.98 19.03 5.93 24.3s10.83 7.91 20.65 7.91 19.79-.4 29.93-1.19h-.01Zm-5.34-42.87c0-12.11-1.94-20.67-5.83-25.68s-10.2-7.51-18.96-7.51-15.34 2.64-19.75 7.91c-4.42 5.27-6.68 13.69-6.81 25.29h51.35ZM675.8 218.76v-98.77h14.61v13.43c11.45-7.91 23.51-13.1 36.15-15.6v15.01c-5.53 1.06-11.29 2.7-17.29 4.94s-10.57 4.22-13.73 5.93l-4.94 2.57v72.5h-14.81ZM741.38 218.76V76.93h14.81v141.83h-14.81ZM849.04 206.51l5.73-.59.4 11.65c-15.01 2.11-27.86 3.16-38.52 3.16-14.22 0-24.3-4.11-30.23-12.35-5.93-8.23-8.89-21.03-8.89-38.42 0-34.63 13.76-51.96 41.28-51.96 13.3 0 23.24 3.72 29.83 11.16s9.88 19.13 9.88 35.06l-.79 11.27h-65.19c0 10.94 1.98 19.03 5.93 24.3s10.83 7.91 20.65 7.91 19.79-.4 29.93-1.19h-.01Zm-5.34-42.87c0-12.11-1.94-20.67-5.83-25.68s-10.2-7.51-18.96-7.51-15.34 2.64-19.75 7.91c-4.42 5.27-6.68 13.69-6.81 25.29h51.35ZM953.53 76.93v141.83h-14.61v-6.72c-10.15 5.8-20.15 8.7-30.03 8.7-5.27 0-9.88-.66-13.82-1.98s-7.64-3.69-11.07-7.11c-7.11-7.11-10.66-20.24-10.66-39.41s3.19-32.98 9.58-41.48 16.96-12.74 31.7-12.74c7.64 0 15.73.86 24.3 2.57V76.92h14.61Zm-51.35 129.19c2.37.92 5.43 1.38 9.19 1.38s7.97-.62 12.64-1.87c4.68-1.25 8.33-2.47 10.96-3.65l3.95-1.78v-66.97c-8.43-1.58-16.26-2.37-23.51-2.37-10 0-16.99 3.19-20.94 9.58s-5.93 16.3-5.93 29.73c0 15.28 2.3 25.55 6.92 30.82 2.11 2.51 4.35 4.22 6.72 5.14ZM1016.35 265.19c-15.8 0-26.83-2.14-33.09-6.42s-9.38-12.08-9.38-23.4c0-5.4 1.19-9.78 3.56-13.14 2.37-3.36 6.39-7.14 12.06-11.36-3.69-2.5-5.53-7.05-5.53-13.63 0-2.24 1.65-6.39 4.94-12.44l1.78-3.16c-10.41-4.74-15.6-14.68-15.6-29.83 0-22.52 12.31-33.77 36.94-33.77 6.32 0 12.18.66 17.58 1.98l2.96.59 29.24-.79v12.64l-18.76-.4c4.35 4.35 6.52 10.94 6.52 19.75 0 12.38-3.06 21.03-9.19 25.97-6.13 4.94-15.77 7.41-28.94 7.41-3.56 0-6.79-.26-9.67-.79-2.37 5.8-3.56 9.55-3.56 11.25 0 4.09 1.25 6.62 3.76 7.6 2.5.99 10.08 1.48 22.72 1.48s21.73 1.98 27.26 5.93 8.3 11.65 8.3 23.11c-.02 20.94-14.64 31.42-43.87 31.42h-.03Zm-27.86-31.02c0 6.98 1.94 11.82 5.82 14.52 3.89 2.7 11.07 4.05 21.53 4.05s17.97-1.45 22.52-4.35 6.81-7.74 6.81-14.52-1.65-11.16-4.94-13.14-9.75-2.96-19.36-2.96l-21.33-.99c-4.35 3.16-7.28 5.93-8.79 8.3-1.5 2.37-2.26 5.4-2.26 9.09Zm1.39-82.37c0 7.78 1.74 13.3 5.23 16.59s9.25 4.94 17.29 4.94 13.76-1.65 17.18-4.94 5.14-8.85 5.14-16.69-1.71-13.4-5.14-16.69c-3.43-3.29-9.16-4.94-17.18-4.94s-13.8 1.67-17.29 5.03c-3.49 3.35-5.23 8.91-5.23 16.69ZM1142.97 206.51l5.73-.59.4 11.65c-15.01 2.11-27.86 3.16-38.52 3.16-14.22 0-24.3-4.11-30.23-12.35-5.93-8.23-8.89-21.03-8.89-38.42 0-34.63 13.76-51.96 41.28-51.96 13.3 0 23.24 3.72 29.83 11.16s9.88 19.13 9.88 35.06l-.79 11.27h-65.19c0 10.94 1.98 19.03 5.93 24.3 3.95 5.27 10.83 7.91 20.65 7.91s19.79-.4 29.93-1.19h-.01Zm-5.34-42.87c0-12.11-1.94-20.67-5.83-25.68s-10.2-7.51-18.96-7.51-15.34 2.64-19.75 7.91c-4.42 5.27-6.68 13.69-6.81 25.29h51.35ZM1171.6 218.76v-98.77h14.61v13.43c11.45-7.91 23.51-13.1 36.15-15.6v15.01c-5.53 1.06-11.29 2.7-17.29 4.94s-10.57 4.22-13.73 5.93l-4.94 2.57v72.5h-14.81.01Z" class="cls-6"/><path d="M251.82 184.52c7.01-21.38 4.21-45.3 0-65.86-8.8-18.78-19.84-38.6-37.96-51.64C195.5 53.8 172.2 49.1 151.17 46.7c-20.75 2.5-43.31 6.03-61.42 19.07C71.4 78.98 59.8 100.24 51 119.32c-4.01 20.33-6.92 44.11 0 65.2 7.01 21.38 23.14 37.45 38.75 51.64 18.27 10.06 38.95 19.8 61.34 19.8s44.33-9.9 62.77-20.21c15.31-14.12 31.04-30.13 37.96-51.23" style="fill:#fff;stroke-width:0"/><path d="M151.44 251.95c-22.38 0-43.41-5.74-61.69-15.79.71 14.19 28.46 31 62.16 31s59.89-20.67 61.95-31.42c-18.44 10.31-39.74 16.2-62.42 16.2" style="fill:#b4eee0;stroke-width:0"/><path d="M89.75 236.16c-15.6-14.19-27.83-32.44-34.85-53.82-6.92-21.09-7.92-42.68-3.9-63.01-12.24 2.91-18.74 44.18-10.55 68.16 8.19 23.96 37.12 53.9 49.29 48.67" style="fill:#d3d6e2;stroke-width:0"/><path d="M91.9 69.85c18.11-13.03 38.52-20.65 59.27-23.14-10.09-8.83-50.94-2.3-68.68 11.12-17.73 13.42-38.64 48.93-31.49 61.5 8.8-19.1 22.53-36.27 40.89-49.48" style="fill:#ffc9dd;stroke-width:0"/><path d="M151.17 46.71c21.03 2.39 41.76 10.03 60.11 23.25 18.11 13.03 31.72 29.92 40.53 48.7 7.61-12.79-9.37-46.56-31.89-61.28-22.52-14.72-63.01-18.56-68.75-10.68" style="fill:#ffebb2;stroke-width:0"/><path d="M251.82 118.65c4.21 20.56 3.28 42.46-3.74 63.83-6.92 21.09-18.91 39.13-34.22 53.25 17.39 1.66 41.55-21.25 48.96-49 7.41-27.74-.15-66.6-11.01-68.09" style="fill:#c6e4a2;stroke-width:0"/><path d="M40.46 187.48c-7.42 9.29 1.97 48.35 33.42 70.47s71.14 17.3 78.03 9.2c-23.19-4.42-44.77-15.19-62.16-30.99-20.63-11.37-37.74-28.27-49.29-48.68" style="fill:#a4bfdd;stroke-width:0"/><path d="M262.82 186.74c-11.41 20.49-28.4 37.5-48.96 49-17.29 15.93-38.79 26.84-61.95 31.42 8.31 10.02 53.5 4.95 77.96-9.71s37.7-57.98 32.95-70.7" style="fill:#99e2d1;stroke-width:0"/><path d="M51 119.32c4.54-22.97 15.47-44.31 31.49-61.5-16.46-6.02-47.64 21.27-57.32 53.26-9.67 31.99-1.9 68.61 15.28 76.38-2.92-23.21.74-46.88 10.55-68.15" style="fill:#ffa7b3;stroke-width:0"/><path d="M151.17 46.71c23.45-2.82 47.31.88 68.75 10.66 7.04-13.2-37.63-37.56-68.83-37.56s-68.06 21.34-68.59 38a128.673 128.673 0 0 1 68.68-11.11" style="fill:#fca;stroke-width:0"/><path d="M262.82 186.74c14.86-2.86 25.91-39.43 14.78-76.47-11.15-37.04-45.63-56.7-57.67-52.9 16.14 17.09 27.21 38.36 31.9 61.28a125.547 125.547 0 0 1 10.99 68.09" style="fill:#e9d59e;stroke-width:0"/><path d="M73.88 257.95a125.59 125.59 0 0 1-10.1-12.13c-13.07-17.83-20.74-37.92-23.31-58.34-10.29-18.18-16.16-39.16-16.16-61.5 0-5.03.31-10 .88-14.88-11.93 3.29-26.31 50.61-13.26 85.67 13.04 35.07 50.87 63.15 61.94 61.18" style="fill:#a499d7;stroke-width:0"/><path d="M229.87 257.44c-4.74 2.2-9.66 4.14-14.77 5.77-21.15 6.81-42.8 7.82-63.2 3.94-20.65 4.08-42.59 3.12-64.02-3.78-4.83-1.56-9.51-3.38-14.01-5.43 5.6 17.05 34.01 38.96 78.14 38.96 44.13.01 69.69-21.47 77.86-39.45" style="fill:#56b8b6;stroke-width:0"/><path d="M277.59 110.27c.65 5.14.98 10.38.98 15.7 0 22.04-5.72 42.75-15.76 60.77-2.46 20.72-10.16 41.1-23.41 59.17-2.99 4.07-6.17 7.92-9.55 11.52 20.43 1.32 50.54-21.02 61.55-61.59 11.01-40.57-2.72-80.58-13.81-85.56" style="fill:#68c280;stroke-width:0"/><path d="M25.19 111.09c2.53-4.54 5.36-8.98 8.52-13.27C46.78 79.99 63.69 66.57 82.5 57.83c14.28-15.32 32.59-27.33 54.04-34.23 4.83-1.56 9.7-2.8 14.55-3.77-17.25-8.54-59.4-3.48-86.33 13.99-26.91 17.46-44.52 60.81-39.57 77.28" style="fill:#ff7a7f;stroke-width:0"/><path d="M151.09 19.83c5.14.98 10.28 2.29 15.37 3.92 21.15 6.81 39.26 18.6 53.46 33.62 19.11 8.72 36.31 22.27 49.55 40.35 2.98 4.08 5.69 8.27 8.12 12.55 7.78-14.69-15.83-58.88-40.1-77.03-24.28-18.15-68.31-21.51-86.4-13.41" style="fill:#ffba86;stroke-width:0"/><path d="M25.19 111.09C28.8 80.7 43.31 53.63 64.77 33.81 37.95 48.78 16.51 73.36 6.26 104.63c-10.36 31.57-7.45 64.26 5.67 92.13-5.79-28.49-1.67-58.9 13.26-85.67" style="stroke-width:0;fill:#835283"/><path d="M73.88 257.95c-28.05-12.79-49.55-34.85-61.94-61.18 6.08 29.88 23.04 57.68 49.89 77.02 27.09 19.5 59.37 26.87 90.18 23.12-29.15-3.35-57.06-16.63-78.14-38.96" style="fill:#8075b4;stroke-width:0"/><path d="M229.87 257.44c-20.94 22.48-48.75 35.93-77.86 39.46 30.56 3.52 62.49-3.89 89.35-23.21 27.09-19.51 44.13-47.64 50.06-77.85-12.23 26.43-33.6 48.63-61.55 61.59" style="fill:#2e9d87;stroke-width:0"/><path d="M277.59 110.27c15.11 26.69 19.42 57.05 13.82 85.58 12.81-27.72 15.58-60.09 5.31-91.36-10.35-31.57-32.08-56.32-59.24-71.23 21.6 19.68 36.29 46.68 40.1 77.02" style="fill:#549558;stroke-width:0"/><path d="M151.09 19.83c30.28-5.99 60.76-.67 86.4 13.42C214.85 12.6 184.63 0 151.44 0S87.48 12.84 64.77 33.82c25.56-14.27 56.01-19.79 86.32-13.99" style="fill:#ff9952;stroke-width:0"/><path d="M1242.64 82.88h23.17l19.4 116.62h4.16l25.74-116.23h25.74l25.74 116.23h4.36l19.4-116.62h23.17l-26.73 135.63h-35.44l-23.36-108.7-23.17 108.7h-35.64l-26.53-135.63ZM1501.62 150.01v45.14c.13 2.91.89 5.05 2.28 6.44s3.53 2.28 6.43 2.67l-.59 16.43c-11.35 0-20.13-2.44-26.33-7.33-10.56 4.89-21.19 7.33-31.88 7.33-19.67 0-29.5-10.49-29.5-31.48 0-10.03 2.67-17.29 8.02-21.78 5.35-4.49 13.56-7.19 24.65-8.12l25.54-2.18V150c0-5.28-1.16-8.98-3.47-11.09-2.31-2.11-5.71-3.17-10.2-3.17-8.45 0-19.01.53-31.68 1.58l-6.34.4-.79-15.25c14.39-3.43 27.62-5.15 39.7-5.15s20.79 2.61 26.14 7.82c5.35 5.22 8.02 13.5 8.02 24.85Zm-44.35 24.55c-9.11.79-13.66 5.74-13.66 14.85s4.03 13.66 12.08 13.66c6.6 0 13.59-1.05 20.99-3.17l3.56-1.19v-26.33l-22.97 2.18ZM1529.93 218.51V78.33h21.58v140.18h-21.58ZM1580.02 218.51V78.33h21.58v140.18h-21.58ZM1699.41 200.69l5.54-.59.4 16.04c-15.05 3.04-28.38 4.55-40 4.55-14.65 0-25.18-4.02-31.58-12.08-6.4-8.05-9.6-20.92-9.6-38.61 0-35.11 14.32-52.67 42.97-52.67s41.58 15.12 41.58 45.34l-1.39 15.44h-61.38c.13 8.19 1.91 14.19 5.35 18.02 3.43 3.83 9.83 5.74 19.21 5.74s19.01-.4 28.91-1.19Zm-11.88-39.2c0-9.77-1.55-16.6-4.65-20.49-3.1-3.89-8.35-5.84-15.74-5.84s-12.77 2.05-16.14 6.14c-3.37 4.09-5.12 10.83-5.25 20.2h41.78ZM1782.77 137.93h-27.32v43.56c0 8.05.59 13.4 1.78 16.04 1.19 2.64 4.22 3.96 9.11 3.96l16.24-.59.99 17.23c-8.84 1.71-15.58 2.57-20.2 2.57-11.22 0-18.91-2.57-23.07-7.72s-6.24-14.85-6.24-29.11v-45.94h-12.67v-18.41h12.67V90.81h21.38v28.71h27.32v18.41Z" class="cls-5"/></svg>
