<svg xmlns="http://www.w3.org/2000/svg" fill="none" viewBox="0 0 311 120"><circle cx="60" cy="60" r="60" fill="#F98012"/><path fill="#fff" d="M79.14 81.353V56.37c0-5.221-2.154-7.833-6.462-7.835-4.307-.001-6.466 2.61-6.475 7.835v24.983H53.476V56.37c0-5.221-2.12-7.833-6.362-7.835-4.316 0-6.47 2.612-6.462 7.835v24.983H27.923V54.895c0-5.45 1.892-9.576 5.677-12.376 3.332-2.5 7.837-3.75 13.514-3.75 5.755 0 9.995 1.476 12.72 4.429 2.348-2.953 6.626-4.429 12.835-4.429 5.677 0 10.18 1.25 13.51 3.75 3.784 2.799 5.677 6.924 5.679 12.376v26.458H79.14Z"/><path fill="#333" d="m52.555 36.794 12.633-9.23-.162-.564c-22.795 2.795-33.161 4.775-52.795 16.156l.182.517 1.56.016c-.143 1.572-.392 5.456-.074 11.296-2.178 6.305-.055 10.588 1.939 15.247.316-4.846.284-10.154-1.205-15.436-.311-5.801-.055-9.616.085-11.1l13.016.125a59.524 59.524 0 0 0 .385 7.629c11.63 4.087 23.329-.014 29.539-10.09-1.724-1.93-5.103-4.566-5.103-4.566Z"/><path fill="#000" d="M154 40h7v40h-7z"/><path fill="#000" d="M137 64v-7h40v7z"/><path fill="#FF7A7F" d="M286.929 84.648v6.79H204.5v-46l10.925.004.004-7.445-18.371-.007V38h-.004v60.438h.004v.445h89.871v.004h7.446V84.648h-7.446Z"/><path fill="#FFC8DC" d="M204.5 91.438h20.649v7.501H204.5v-7.501Z"/><path fill="#A3BEDC" d="M204.501 78.289v20.65H197v-20.65h7.501Z"/><path fill="#56B7B5" d="M204.503 57.638v20.65h-7.501v-20.65h7.501Z"/><path fill="#FF9852" d="M225.054 91.438h20.65v7.501h-20.65v-7.501Z"/><path fill="#98E1D0" d="M245.76 91.438h20.65v7.501h-20.65v-7.501Z"/><path fill="#8075B3" d="M266.41 91.438h20.649v7.501H266.41v-7.501Z"/><path fill="#8075B3" d="M294.376 81.145v17.79h-7.502v-17.79h7.502Z"/><path fill="#98E1D0" d="M311 82.894h-97.32V22H311v60.894Z"/><path fill="#fff" d="M227.154 57.15h6.541a1.45 1.45 0 0 0 1.451-1.452v-6.537a1.45 1.45 0 0 0-1.451-1.451h-6.541a1.45 1.45 0 0 0-1.451 1.45v6.542c0 .799.648 1.447 1.451 1.447Zm35.186 10.655c8.371 0 15.157-6.785 15.157-15.156 0-8.37-6.786-15.157-15.157-15.157s-15.157 6.786-15.157 15.157c0 8.37 6.786 15.156 15.157 15.156Zm28.634-10.656h6.541a1.45 1.45 0 0 0 1.451-1.45V49.16a1.45 1.45 0 0 0-1.451-1.451h-6.541a1.45 1.45 0 0 0-1.451 1.45v6.542c0 .799.649 1.447 1.451 1.447Z"/></svg>
