<svg height="512" width="512" xmlns="http://www.w3.org/2000/svg"><path d="M369.717 142.283 316.684 89.25l-53.033 53.033-10.607 31.82L85.57 341.577l-31.82 10.607-31.82 31.82c-29.241 29.241-29.241 76.825 0 106.066s76.825 29.241 106.066 0L422.75 195.316z" fill="#fabe2c"/><path d="M127.997 490.07 422.75 195.316l-53.033-53.033L21.93 490.07c29.241 29.24 76.826 29.24 106.067 0z" fill="#ff9100"/><path d="m507.603 131.676-63.64-63.64-63.64-63.64c-5.863-5.863-15.351-5.863-21.213 0l-63.64 63.64c-5.863 5.863-5.863 15.351 0 21.213l63.64 63.64 63.64 63.64c5.863 5.863 15.351 5.863 21.213 0l63.64-63.64c5.863-5.862 5.863-15.35 0-21.213z" fill="#f3fbff"/><path d="m443.963 216.529 63.64-63.64c5.863-5.863 5.863-15.351 0-21.213l-63.64-63.64-84.853 84.853 63.64 63.64c5.863 5.863 15.351 5.863 21.213 0zM369.684 36.177l21.21 21.21-42.42 42.42-21.21-21.21z" fill="#e0f4fe"/><path d="m454.537 121.01 21.21 21.21-42.42 42.42-21.21-21.21z" fill="#b7e4f8"/><path d="m316.684 195.316-53.033-53.033L53.75 352.184l53.033 53.033c5.863 5.863 15.351 5.863 21.213 0l188.688-188.688c5.863-5.863 5.863-15.351 0-21.213z" fill="#f3fbff"/><path d="m127.997 405.217 188.688-188.688c5.863-5.863 5.863-15.351 0-21.213L106.783 405.217c5.863 5.862 15.351 5.862 21.214 0zM422.75 89.25l-10.606-10.607-42.427 42.427 10.607 10.606 10.606 10.607 42.427-42.427z" fill="#e0f4fe"/><path d="m380.272 131.705 42.42-42.42 10.605 10.605-42.42 42.42z" fill="#b7e4f8"/></svg>