<svg viewBox="0 0 1432 400" fill="none" xmlns="http://www.w3.org/2000/svg"><path fill="#222" d="M116.246 130.171H78.9086V299.151H24.25V130.171H0V85.9051H24.25V75.1273C24.25 48.9528 31.6918 29.7068 46.5753 17.3893C61.4589 5.07188 83.9126 -0.701918 113.936 0.067928V45.4885C100.849 45.2319 91.7393 47.4131 86.607 52.0321C81.4748 56.6512 78.9086 64.9911 78.9086 77.0519V85.9051H116.246V130.171Z"></path><path fill="#222" d="M366.724 85.9051L234.696 400H177.343L223.533 293.762L138.081 85.9051H198.514L253.557 234.869L309.371 85.9051H366.724Z"></path><path fill="#222" d="M510.094 82.8258C535.499 82.8258 556.028 90.9091 571.682 107.076C587.335 122.986 595.162 145.311 595.162 174.052V299.151H541.273V181.365C541.273 164.429 537.039 151.47 528.571 142.488C520.102 133.25 508.555 128.631 493.928 128.631C479.044 128.631 467.24 133.25 458.515 142.488C450.047 151.47 445.813 164.429 445.813 181.365V299.151H391.924V85.9051H445.813V112.465C452.998 103.227 462.108 96.0413 473.142 90.9091C484.433 85.5202 496.75 82.8258 510.094 82.8258Z"></path><path fill="#222" d="M696.447 117.084C703.375 106.819 712.87 98.4792 724.931 92.0638C737.248 85.6485 751.234 82.4408 766.887 82.4408C785.107 82.4408 801.53 86.9316 816.157 95.913C831.041 104.895 842.717 117.725 851.185 134.405C859.91 150.828 864.272 169.946 864.272 191.758C864.272 213.57 859.91 232.945 851.185 249.881C842.717 266.561 831.041 279.52 816.157 288.758C801.53 297.996 785.107 302.615 766.887 302.615C750.977 302.615 736.992 299.536 724.931 293.377C713.127 286.962 703.632 278.75 696.447 268.742V299.151H642.558V14.31H696.447V117.084ZM809.229 191.758C809.229 178.927 806.534 167.893 801.145 158.655C796.013 149.16 789.084 141.975 780.359 137.1C771.891 132.224 762.653 129.786 752.645 129.786C742.894 129.786 733.656 132.352 724.931 137.484C716.463 142.36 709.534 149.545 704.145 159.04C699.013 168.535 696.447 179.697 696.447 192.528C696.447 205.359 699.013 216.521 704.145 226.016C709.534 235.511 716.463 242.824 724.931 247.957C733.656 252.832 742.894 255.27 752.645 255.27C762.653 255.27 771.891 252.704 780.359 247.572C789.084 242.439 796.013 235.126 801.145 225.631C806.534 216.136 809.229 204.845 809.229 191.758Z"></path><path fill="#222" d="M994.273 302.615C973.744 302.615 955.268 298.124 938.844 289.143C922.421 279.905 909.462 266.946 899.967 250.266C890.729 233.586 886.11 214.34 886.11 192.528C886.11 170.716 890.858 151.47 900.352 134.79C910.104 118.11 923.319 105.279 939.999 96.298C956.679 87.0599 975.283 82.4408 995.812 82.4408C1016.34 82.4408 1034.95 87.0599 1051.63 96.298C1068.31 105.279 1081.39 118.11 1090.89 134.79C1100.64 151.47 1105.51 170.716 1105.51 192.528C1105.51 214.34 1100.51 233.586 1090.5 250.266C1080.75 266.946 1067.41 279.905 1050.47 289.143C1033.79 298.124 1015.06 302.615 994.273 302.615ZM994.273 255.655C1004.02 255.655 1013.13 253.345 1021.6 248.726C1030.33 243.851 1037.26 236.666 1042.39 227.171C1047.52 217.676 1050.09 206.129 1050.09 192.528C1050.09 172.256 1044.7 156.73 1033.92 145.953C1023.4 134.918 1010.44 129.401 995.043 129.401C979.646 129.401 966.687 134.918 956.166 145.953C945.901 156.73 940.769 172.256 940.769 192.528C940.769 212.8 945.773 228.454 955.781 239.488C966.045 250.266 978.876 255.655 994.273 255.655Z"></path><path fill="#222" d="M1222.8 302.615C1205.35 302.615 1189.69 299.536 1175.84 293.377C1161.98 286.962 1150.95 278.365 1142.73 267.587C1134.78 256.81 1130.42 244.877 1129.65 231.79H1183.92C1184.95 240.001 1188.93 246.802 1195.85 252.191C1203.04 257.579 1211.89 260.274 1222.41 260.274C1232.68 260.274 1240.63 258.221 1246.28 254.115C1252.18 250.009 1255.13 244.749 1255.13 238.333C1255.13 231.405 1251.54 226.273 1244.35 222.937C1237.43 219.344 1226.26 215.495 1210.87 211.389C1194.96 207.54 1181.87 203.562 1171.6 199.457C1161.6 195.351 1152.87 189.064 1145.43 180.595C1138.24 172.127 1134.65 160.708 1134.65 146.338C1134.65 134.533 1137.99 123.756 1144.66 114.004C1151.59 104.253 1161.34 96.5546 1173.91 90.9091C1186.74 85.2636 1201.76 82.4408 1218.95 82.4408C1244.35 82.4408 1264.63 88.8562 1279.77 101.687C1294.91 114.261 1303.25 131.326 1304.79 152.881H1253.21C1252.44 144.413 1248.84 137.741 1242.43 132.865C1236.27 127.733 1227.93 125.167 1217.41 125.167C1207.66 125.167 1200.09 126.963 1194.7 130.556C1189.57 134.148 1187 139.152 1187 145.568C1187 152.753 1190.59 158.27 1197.78 162.119C1204.96 165.712 1216.13 169.433 1231.27 173.282C1246.66 177.131 1259.37 181.109 1269.37 185.215C1279.38 189.32 1287.98 195.736 1295.16 204.461C1302.6 212.929 1306.45 224.22 1306.71 238.333C1306.71 250.651 1303.25 261.685 1296.32 271.437C1289.65 281.188 1279.89 288.886 1267.06 294.532C1254.49 299.921 1239.73 302.615 1222.8 302.615Z"></path><path d="M1387.77 302.743C1374.77 302.743 1363.99 298.809 1355.43 290.939C1347.22 282.728 1343.12 272.634 1343.12 260.659C1343.12 248.684 1347.22 238.761 1355.43 230.892C1363.99 222.68 1374.77 218.574 1387.77 218.574C1400.43 218.574 1410.86 222.68 1419.07 230.892C1427.29 238.761 1431.39 248.684 1431.39 260.659C1431.39 272.634 1427.29 282.728 1419.07 290.939C1410.86 298.809 1400.43 302.743 1387.77 302.743Z" fill="#F43F5E"></path></svg>
