<svg viewBox="0 0 150 40" fill="none" xmlns="http://www.w3.org/2000/svg">
<g clip-path="url(#clip0_4093_2244)">
<rect opacity="0.7" x="0.828125" y="0.135742" width="149.133" height="39.1986" rx="19.5993" fill="#7000FF"/>
<path d="M144.235 5.75014C140.534 2.04252 135.614 0 130.384 0H20.4186C9.6154 0 0.828125 8.78728 0.828125 19.5904C0.828125 30.3936 9.6154 39.1986 20.4186 39.1986H130.621C135.757 39.132 140.581 37.0939 144.229 33.4396C147.932 29.7298 149.968 24.8122 149.961 19.5904C149.968 14.3709 147.936 9.45553 144.235 5.75014ZM142.848 32.1408C139.509 35.42 135.073 37.2116 130.371 37.1805H20.4208C10.8986 37.0895 3.08822 29.2724 3.01273 19.7569C2.92393 10.0661 10.7321 2.1069 20.4186 2.01588H130.688C135.379 2.06028 139.777 3.93407 143.072 7.28869C146.367 10.6433 148.156 15.0725 148.112 19.7569C148.067 24.4547 146.198 28.8528 142.848 32.1408Z" fill="#DAC4F7"/>
<path d="M24.7705 11.8513C24.1955 10.3394 22.7768 9.36255 21.1539 9.36255C19.0581 9.36255 17.3442 11.0365 17.2776 13.1168C14.9065 14.0848 13.1748 15.9208 12.633 18.0544L12.4688 18.6494H14.287L14.3869 18.3186C14.8332 16.8666 16.0121 15.6211 17.6417 14.8751C18.0346 15.7254 18.7162 16.3959 19.582 16.7822C20.5278 17.2018 21.5802 17.2285 22.5459 16.8577C24.5396 16.0895 25.5364 13.8428 24.7705 11.8513ZM22.6458 14.7597C22.2462 15.1549 21.7223 15.3724 21.1561 15.3613H21.1539C20.1193 15.3613 19.2401 14.6132 19.0625 13.5919C19.047 13.4742 19.0337 13.3632 19.0337 13.2567C19.0337 12.0866 19.9839 11.1364 21.1539 11.1364C22.3239 11.1364 23.2741 12.0866 23.2741 13.2567C23.2741 13.825 23.0521 14.3601 22.6458 14.7597Z" fill="white"/>
<path d="M22.3398 13.241C22.3398 13.9048 21.8181 14.4265 21.1543 14.4265C20.4905 14.4265 19.9688 13.9048 19.9688 13.241C19.9688 12.5772 20.4905 12.0554 21.1543 12.0554C21.8181 12.0554 22.3398 12.5772 22.3398 13.241Z" fill="white"/>
<path d="M16.6472 19.606C16.6472 20.09 16.252 20.4851 15.768 20.4851H10.9104C10.6972 20.4851 10.4863 20.4052 10.3243 20.2587C10.1511 20.1033 10.049 19.8857 10.0401 19.6482C10.029 19.4106 10.1089 19.1842 10.2643 19.0132C10.4219 18.84 10.6395 18.7379 10.8771 18.7268H15.7525C16.2453 18.7268 16.6472 19.122 16.6472 19.606Z" fill="white"/>
<path d="M23.9157 23.2427C23.1809 22.5012 22.1996 22.0927 21.1539 22.0927C19.6198 22.0927 18.2677 22.9652 17.6394 24.3372C16.0076 23.589 14.8287 22.3435 14.3869 20.896L14.287 20.563H12.4688L12.633 21.1535C13.1925 23.2982 14.922 25.1342 17.2776 26.0978C17.3442 28.178 19.0581 29.8498 21.1539 29.8498C23.2497 29.8498 25.0325 28.1092 25.0325 25.9734C25.0391 24.9455 24.6439 23.9753 23.9157 23.2427ZM23.2475 26.2998C23.0832 27.3299 22.204 28.0759 21.1539 28.0759C19.9994 28.0759 19.047 27.1235 19.0337 25.9557C19.0337 25.8513 19.047 25.7426 19.0625 25.6404V25.5938C19.2646 24.4638 20.3524 23.6889 21.4958 23.8621C22.6369 24.053 23.4229 25.1476 23.2475 26.2998Z" fill="white"/>
<path d="M22.3398 25.9712C22.3398 26.635 21.8181 27.1567 21.1543 27.1567C20.4905 27.1567 19.9688 26.635 19.9688 25.9712C19.9688 25.3074 20.5016 24.7856 21.1543 24.7856C21.807 24.7856 22.3398 25.3074 22.3398 25.9712Z" fill="white"/>
<path d="M40.4885 17.4836C40.2843 17.7878 39.9646 17.961 39.6094 17.961H39.5783C39.1742 17.961 38.8079 17.7212 38.6436 17.3526C38.5548 17.1617 38.4305 16.9597 38.2773 16.7599C38.0575 16.4846 37.8 16.2448 37.5114 16.0516C37.2383 15.8696 36.9053 15.7208 36.5234 15.6098C35.7108 15.3923 34.845 15.3923 34.028 15.6098C33.1288 15.8496 32.3074 16.287 31.6502 16.8709C31.3016 17.1906 31.0019 17.5391 30.7599 17.9077C30.5068 18.3095 30.3048 18.7336 30.1605 19.1665C30.0206 19.6172 29.9451 20.1145 29.9451 20.6007C29.9296 21.1246 30.0295 21.6486 30.2315 22.1237C30.4291 22.5833 30.6933 22.9718 31.0152 23.2804C31.386 23.6223 31.7701 23.8598 32.1786 24.0064C32.6426 24.1795 33.1288 24.2661 33.6261 24.2661C34.0324 24.2661 34.4476 24.2128 34.8983 24.1041C35.3068 24.0019 35.713 23.8421 36.0727 23.6401C36.4301 23.4469 36.7831 23.2071 37.1539 22.9007C37.4137 22.6699 37.6601 22.4079 37.8799 22.1281C38.0753 21.8906 38.3461 21.7574 38.6281 21.7574C38.9988 21.7574 39.3319 21.9616 39.4961 22.2947C39.6604 22.621 39.6227 23.014 39.3985 23.3204C39.2408 23.5246 39.0588 23.7244 38.8967 23.8998L38.8745 23.922C37.9598 24.87 36.8053 25.5716 35.5332 25.9512C34.8849 26.1421 34.2078 26.2376 33.5196 26.2376C32.7092 26.2376 31.9433 26.0977 31.2395 25.8224C30.549 25.5427 29.9451 25.1564 29.4412 24.668C28.9328 24.1596 28.5398 23.5712 28.2667 22.9163C27.9914 22.2547 27.8516 21.522 27.8516 20.7383C27.8516 20.079 27.947 19.4307 28.138 18.8135C28.3467 18.1519 28.6064 17.5858 28.9305 17.0818C29.2547 16.5601 29.6588 16.0694 30.1339 15.6276C30.5979 15.1947 31.1174 14.8128 31.6813 14.4909C32.2674 14.1668 32.8713 13.9159 33.4818 13.7494C34.8206 13.3897 36.1415 13.3875 37.4003 13.7649C37.982 13.9425 38.5459 14.22 39.0344 14.5664C39.5139 14.9127 39.9313 15.3545 40.2488 15.843C40.3909 16.0494 40.5041 16.2759 40.6129 16.4957L40.6329 16.5467C40.7194 16.8909 40.6662 17.2328 40.4885 17.4836Z" fill="white"/>
<path d="M54.8335 19.3574L53.8233 25.0964C53.7456 25.5893 53.3038 25.9623 52.7954 25.9623C52.2115 25.9623 51.7497 25.5005 51.7497 24.9299C51.7497 24.8788 51.7497 24.81 51.7697 24.7345L52.7466 19.2397C52.8665 18.6336 52.8953 18.0186 52.8354 17.4125C52.7976 17.0151 52.64 16.6311 52.3847 16.3025C52.1427 16.025 51.8186 15.8118 51.4323 15.6831C50.9349 15.5276 50.391 15.4522 49.8648 15.4655C49.3409 15.4655 48.8214 15.5565 48.3529 15.7275C47.8823 15.8917 47.4271 16.1471 46.9987 16.4845C46.5946 16.8042 46.2416 17.2061 45.9574 17.6723C45.6577 18.1629 45.4645 18.6936 45.378 19.2464L44.3367 25.1275C44.2302 25.627 43.7972 25.9645 43.3199 25.9645C43.2489 25.9645 43.1756 25.9578 43.1045 25.9423C42.5717 25.8424 42.1987 25.3184 42.2809 24.7723L44.8362 10.2149C44.9384 9.64652 45.4801 9.26688 46.0462 9.36679C46.6146 9.46891 46.9942 10.0106 46.8921 10.5768L46.1195 14.906C46.1306 14.8971 46.1439 14.8883 46.155 14.8772C46.5502 14.5686 46.9543 14.3221 47.3539 14.1445C47.7491 13.9536 48.1931 13.7937 48.7082 13.6561C49.2365 13.5362 49.7205 13.4785 50.1956 13.4785C52.025 13.4785 53.366 13.9669 54.1808 14.9304C54.9711 15.8607 55.1843 17.3082 54.8335 19.3574Z" fill="white"/>
<path d="M61.983 10.6011C61.983 10.7921 61.9253 11.0007 61.8298 11.1739C61.7299 11.3538 61.6122 11.4825 61.5123 11.5824C61.1926 11.8644 60.813 12.0087 60.4 12.0087C60.3801 12.0087 60.3601 12.0109 60.3379 12.0109C60.0337 12.0109 59.7296 11.8844 59.5031 11.6579C59.2722 11.427 59.1501 11.1118 59.1701 10.7921C59.1701 10.6056 59.2145 10.4146 59.3033 10.237C59.3965 10.0505 59.5075 9.90623 59.6541 9.77746C59.8161 9.63537 59.9804 9.53546 60.1625 9.47108C60.3579 9.40004 60.5555 9.36229 60.753 9.36229C61.0727 9.34453 61.3991 9.46664 61.6589 9.70641L61.6811 9.72861C61.8853 9.97505 61.9985 10.3014 61.983 10.6011Z" fill="white"/>
<path d="M60.8657 14.8084C60.8657 14.8639 60.8612 14.9061 60.8546 14.9438C60.8546 14.9527 60.8501 14.9616 60.8501 14.9705V15.0126L59.0718 25.0965C58.9808 25.6027 58.5412 25.9601 58.0461 25.9601C57.9839 25.9601 57.924 25.9534 57.8618 25.9423C57.2957 25.8424 56.9161 25.2985 57.016 24.7346L58.8076 14.6508C58.8853 14.1512 59.3116 13.7849 59.82 13.7849C60.375 13.7849 60.8457 14.2445 60.8657 14.8084Z" fill="white"/>
<path d="M82.9259 19.3175L81.9024 25.0965C81.8291 25.6005 81.3873 25.9712 80.8789 25.9712C80.8301 25.9712 80.7812 25.9668 80.7302 25.9601C80.4571 25.9202 80.2151 25.7759 80.0508 25.5539C79.8909 25.3385 79.8221 25.0721 79.8576 24.8035C79.8599 24.7613 79.8687 24.7235 79.8843 24.6902L80.8412 19.2265C80.9544 18.6515 80.9899 18.0454 80.9433 17.4215C80.9011 17.0108 80.7746 16.6245 80.5659 16.2782C80.4016 16.0095 80.1529 15.7942 79.851 15.6587C79.5224 15.5122 79.1294 15.4367 78.7165 15.4367C78.2081 15.4367 77.7174 15.5233 77.2601 15.6943C76.7983 15.8674 76.3765 16.1161 76.0013 16.4313C75.6261 16.7533 75.3042 17.1507 75.0511 17.6147C74.7758 18.1075 74.5848 18.6604 74.496 19.2176L74.4561 19.5506H74.4139L73.4392 25.0654C73.3904 25.3407 73.2394 25.5783 73.0108 25.7381C72.7799 25.9002 72.5046 25.9624 72.2315 25.9135C71.6631 25.8114 71.2835 25.2697 71.3856 24.7035L72.3492 19.2109C72.4646 18.6359 72.4979 18.0298 72.4535 17.406C72.4269 17.0263 72.2959 16.6312 72.0739 16.2626C71.9096 15.994 71.6609 15.7808 71.359 15.6432C71.0304 15.4967 70.6419 15.4212 70.24 15.4212C69.7316 15.4212 69.241 15.5078 68.7836 15.6787C68.3218 15.8519 67.9 16.1005 67.5248 16.4158C67.1496 16.7377 66.8277 17.1351 66.5746 17.6013C66.2971 18.1098 66.1062 18.6537 66.004 19.222L64.9783 25.0654C64.9295 25.3407 64.7763 25.5783 64.5498 25.7381C64.319 25.9002 64.0437 25.9624 63.7684 25.9135C63.4953 25.8647 63.2577 25.7115 63.0979 25.4828C62.9358 25.2541 62.8736 24.9766 62.9225 24.7035L64.7141 14.6042C64.7918 14.1135 65.2248 13.7539 65.7421 13.7539H65.7709C66.3149 13.7539 66.7611 14.1757 66.8011 14.7085C67.1385 14.4532 67.5048 14.2312 67.8956 14.0403C68.7259 13.6406 69.614 13.4475 70.5353 13.463C71.5233 13.463 72.3691 13.7006 73.0441 14.1668C73.5547 14.5154 73.9632 14.9949 74.2207 15.5433C74.3806 15.3723 74.5404 15.2169 74.6892 15.0771C75.1021 14.7174 75.4995 14.4465 75.9103 14.2401C76.3854 13.9959 76.8671 13.8071 77.3378 13.6873C77.8551 13.5496 78.4123 13.4786 78.9918 13.4786C79.6401 13.4652 80.3105 13.5918 80.9255 13.8515C81.5139 14.1113 81.9979 14.4998 82.3353 14.9794C82.715 15.5411 82.9569 16.1827 83.0369 16.8376C83.1235 17.759 83.0857 18.5693 82.9259 19.3175Z" fill="white"/>
<path d="M97.7205 16.8331C97.1766 15.4922 96.0865 14.4265 94.7344 13.9092C93.9885 13.6184 93.2203 13.4807 92.4544 13.494C91.7506 13.494 91.0823 13.5851 90.474 13.7627C89.7924 13.9514 89.2063 14.1956 88.6868 14.5064C88.1251 14.8283 87.6034 15.2102 87.1371 15.6454C86.6798 16.0894 86.2713 16.5778 85.9205 17.1018C85.5853 17.6435 85.3211 18.2251 85.1301 18.829C84.9392 19.4462 84.8438 20.0945 84.8438 20.7539C84.8438 21.4887 84.9836 22.2147 85.2589 22.9163C85.5275 23.5601 85.9205 24.1529 86.4334 24.6835C86.9551 25.1875 87.559 25.5804 88.2294 25.8535C88.9132 26.1266 89.657 26.2687 90.3808 26.2687H90.4962C91.18 26.2687 91.846 26.1821 92.4721 26.0156C93.711 25.687 94.8676 25.0409 95.8267 24.1484C96.2952 23.6955 96.7037 23.2005 97.0434 22.6765C97.3786 22.1348 97.645 21.5553 97.836 20.9492C98.0247 20.332 98.1223 19.6838 98.1223 19.0355C98.1534 18.2962 98.0136 17.5347 97.7205 16.8331ZM96.0421 19.162C96.0421 19.8814 95.8911 20.5541 95.5936 21.1668C95.3006 21.7774 94.8965 22.3302 94.3925 22.8053C93.8775 23.2893 93.298 23.6578 92.6653 23.902C92.0259 24.164 91.3465 24.2972 90.6494 24.2972C90.1388 24.2972 89.6348 24.1995 89.153 24.0086C88.2716 23.6489 87.5745 22.9474 87.2415 22.0837C87.0594 21.6242 86.9684 21.1246 86.9684 20.6007C86.9684 20.1456 87.035 19.686 87.1704 19.2353C87.3014 18.8024 87.4857 18.3983 87.7366 17.9987C87.9852 17.619 88.2783 17.2683 88.6002 16.9619C88.9643 16.6289 89.3329 16.3558 89.6992 16.1538C90.1055 15.9273 90.5295 15.7564 90.9602 15.6409C91.422 15.5144 91.8927 15.45 92.3611 15.45C92.905 15.45 93.4068 15.5477 93.853 15.7364C94.3082 15.934 94.6989 16.1937 95.012 16.5068C95.3539 16.8642 95.6025 17.2483 95.769 17.679C95.9511 18.1386 96.0421 18.6381 96.0421 19.162Z" fill="white"/>
<path d="M112.348 19.4351L111.353 25.0965C111.264 25.6026 110.822 25.9601 110.327 25.9601C110.267 25.9601 110.205 25.9534 110.143 25.9423C109.577 25.8424 109.197 25.2985 109.297 24.7346L110.247 19.3175C110.367 18.6936 110.394 18.0831 110.321 17.4947C110.281 17.0884 110.123 16.6866 109.861 16.3247C109.619 16.0317 109.295 15.8052 108.931 15.6831C108.451 15.5144 107.934 15.4345 107.395 15.45C106.873 15.45 106.358 15.5477 105.856 15.7408C105.365 15.9273 104.901 16.2026 104.473 16.5556C104.053 16.9175 103.687 17.3593 103.414 17.8344C103.103 18.3517 102.903 18.9023 102.817 19.4751L101.822 25.0965C101.742 25.5871 101.311 25.9468 100.794 25.9468C100.226 25.9468 99.7617 25.4783 99.7617 24.9011C99.7617 24.8478 99.7617 24.779 99.7839 24.7035L101.571 14.6352C101.609 14.371 101.762 14.1179 101.989 13.9536C102.217 13.7893 102.492 13.725 102.766 13.7738C103.325 13.8737 103.705 14.3821 103.634 14.9216C103.662 14.8994 103.694 14.8794 103.722 14.8572C104.055 14.5975 104.44 14.3577 104.888 14.1335C105.319 13.9248 105.769 13.7649 106.227 13.6539C106.733 13.5362 107.208 13.4785 107.679 13.4785C109.51 13.4785 110.851 13.9847 111.668 14.9793C112.47 15.9739 112.698 17.4725 112.348 19.4351Z" fill="white"/>
<path d="M127.357 17.4171C127.166 16.6623 126.793 15.9496 126.28 15.3568C125.774 14.773 125.119 14.3001 124.382 13.9892C123.563 13.6451 122.721 13.4786 121.882 13.4942C120.983 13.4942 120.099 13.6651 119.251 14.0003C118.436 14.3156 117.679 14.7663 117.004 15.3457C116.347 15.9097 115.779 16.5846 115.317 17.3505C114.849 18.1254 114.538 18.9579 114.398 19.8193C114.24 20.6385 114.267 21.5066 114.478 22.3303C114.673 23.1007 115.046 23.8178 115.555 24.4061C116.074 25.0055 116.729 25.4851 117.453 25.7892C118.237 26.1178 119.047 26.2843 119.86 26.2843H119.968C120.643 26.2843 121.329 26.1844 121.955 25.9979C122.621 25.7915 123.207 25.5339 123.74 25.2076C124.335 24.8501 124.828 24.466 125.241 24.0376C125.399 23.8799 125.541 23.7223 125.683 23.5647C125.934 23.2716 125.989 22.8742 125.827 22.5279C125.663 22.1815 125.317 21.9551 124.941 21.9551C124.635 21.9551 124.353 22.0927 124.193 22.3125C124.009 22.5479 123.785 22.7832 123.512 23.023C123.114 23.3493 122.797 23.5669 122.484 23.729C122.091 23.9332 121.702 24.0864 121.331 24.1819C120.899 24.2907 120.492 24.3439 120.09 24.3439C119.542 24.3439 119.027 24.2463 118.563 24.0553C118.099 23.8666 117.69 23.598 117.351 23.2583C116.998 22.8898 116.731 22.4568 116.58 22.0039C116.436 21.5865 116.369 21.1469 116.381 20.6985H126.533C126.975 20.6985 127.359 20.3877 127.47 19.9192C127.519 19.5929 127.546 19.2643 127.546 18.9379C127.546 18.4184 127.481 17.9056 127.357 17.4171ZM123.361 15.6921C123.816 15.883 124.209 16.1561 124.526 16.5024C124.857 16.8621 125.097 17.2728 125.239 17.7302C125.37 18.1098 125.439 18.5072 125.441 18.8957H116.727C116.878 18.5272 117.069 18.1653 117.297 17.8212C117.651 17.3172 118.059 16.8887 118.516 16.5446C118.978 16.185 119.482 15.9074 120.053 15.6965C120.621 15.4923 121.205 15.3902 121.789 15.3902H121.795C122.333 15.3746 122.859 15.4767 123.361 15.6921Z" fill="white"/>
<path d="M140.735 14.8262C140.735 14.9461 140.71 15.1393 140.59 15.3324L131.916 29.377C131.776 29.6034 131.559 29.7633 131.299 29.8254C131.221 29.8432 131.144 29.8521 131.066 29.8521C130.884 29.8521 130.704 29.8032 130.546 29.7055C130.318 29.5657 130.158 29.3481 130.098 29.0884C130.036 28.8286 130.078 28.5622 130.216 28.3335L132.058 25.3652L129.363 15.1415C129.285 14.864 129.325 14.5598 129.472 14.3089C129.618 14.0625 129.849 13.8893 130.127 13.8227C130.4 13.7472 130.704 13.7872 130.955 13.9337C131.201 14.0803 131.375 14.3134 131.441 14.5909L131.448 14.6309L133.601 22.8453L138.879 14.2712C139.054 13.9781 139.376 13.8005 139.733 13.8005C140.006 13.8005 140.271 13.9138 140.459 14.1091C140.648 14.3023 140.746 14.5576 140.735 14.8262Z" fill="white"/>
</g>
<defs>
<clipPath id="clip0_4093_2244">
<rect width="149.133" height="39.1986" fill="white" transform="translate(0.828125)"/>
</clipPath>
</defs>
</svg>
