<svg xmlns="http://www.w3.org/2000/svg" viewBox="0 0 378 507" fill="none"><rect width="377.867" height="506.071" fill="#fff" rx="8"/><path fill="#FF7A7F" d="M46.034 46.925v1.947h-23.64V35.68h3.133l.002-2.134-5.27-.002V51.007h25.775v.001h2.135v-4.083h-2.135Z"/><path fill="#FFC8DC" d="M28.317 48.87h-5.922v2.151h5.922v-2.15Z"/><path fill="#A3BEDC" d="M22.395 51.023V45.1h-2.152v5.922h2.152Z"/><path fill="#56B7B5" d="M22.395 45.1v-5.922h-2.152V45.1h2.152Z"/><path fill="#FF9852" d="M34.218 48.87h-5.922v2.151h5.922v-2.15Z"/><path fill="#98E1D0" d="M40.154 48.87h-5.922v2.151h5.922v-2.15Z"/><path fill="#8075B3" d="M46.078 48.87h-5.922v2.151h5.922v-2.15Z"/><path fill="#8075B3" d="M48.17 51.02v-5.102h-2.151v5.102h2.15Z"/><path fill="#98E1D0" d="M25.025 46.422h27.91V28.96h-27.91v17.463Z"/><path fill="#fff" d="M28.886 39.04h1.876c.23 0 .416-.186.416-.416v-1.875a.416.416 0 0 0-.416-.416h-1.876a.416.416 0 0 0-.416.416v1.876c0 .23.186.415.416.415ZM38.978 42.095a4.347 4.347 0 1 0 0-8.693 4.347 4.347 0 0 0 0 8.693ZM47.192 39.04h1.875c.23 0 .417-.186.417-.416v-1.875a.416.416 0 0 0-.417-.416h-1.875a.416.416 0 0 0-.417.416v1.876c0 .23.186.415.417.415Z"/><path fill="#0F172A" d="M63.564 34.28h1.354l1.997 10.56h.49l2.386-10.458h1.523L73.7 44.84h.491l1.997-10.56h1.337l-2.37 11.71H72.77l-2.217-10-2.217 10H65.95l-2.386-11.71Zm21.122 10.661.49-.05.035.998c-1.286.18-2.386.27-3.3.27-1.218 0-2.081-.349-2.589-1.048-.508-.711-.761-1.811-.761-3.3 0-2.967 1.178-4.45 3.536-4.45 1.14 0 1.991.32 2.555.964.564.632.847 1.63.847 2.995l-.068.965h-5.584c0 .936.169 1.63.507 2.081.339.451.925.677 1.76.677.846 0 1.704-.034 2.572-.102Zm-.457-3.672c0-1.038-.169-1.77-.507-2.2-.328-.428-.869-.643-1.625-.643-.744 0-1.308.226-1.692.677-.372.452-.564 1.174-.575 2.166h4.4Zm6.987-3.909c1.14 0 1.935.328 2.386.982.462.643.694 1.777.694 3.401 0 1.625-.288 2.77-.863 3.435-.564.655-1.608.982-3.13.982-.475 0-1.259-.045-2.353-.136l-.474-.05V33.84h1.252v4.112c.858-.395 1.687-.593 2.488-.593Zm-.93 7.666c1.105 0 1.832-.248 2.182-.745.361-.507.542-1.359.542-2.555 0-1.196-.141-2.03-.423-2.504-.282-.485-.784-.728-1.506-.728-.655 0-1.326.124-2.014.372l-.338.119v5.956c.733.057 1.252.085 1.556.085Zm10.036.964V34.28h2.352l3.316 9.9 3.317-9.9h2.352v11.71h-1.303V35.668h-.237l-3.401 9.9h-1.455l-3.402-9.9h-.237V45.99h-1.302Zm13.536-4.247c0-1.545.277-2.662.829-3.35.553-.688 1.484-1.033 2.793-1.033 1.319 0 2.25.345 2.792 1.033.552.688.829 1.805.829 3.35 0 1.546-.26 2.668-.779 3.367-.519.7-1.466 1.05-2.842 1.05-1.377 0-2.324-.35-2.843-1.05-.519-.699-.779-1.821-.779-3.367Zm1.303-.017c0 1.23.147 2.093.44 2.59.305.496.931.744 1.879.744.958 0 1.585-.243 1.878-.728.293-.496.44-1.365.44-2.606 0-1.24-.164-2.093-.491-2.555-.327-.474-.936-.71-1.827-.71-.88 0-1.49.236-1.828.71-.327.462-.491 1.314-.491 2.555Zm9.279 4.264h-1.269v-8.46h1.252v.592c.914-.508 1.788-.762 2.623-.762 1.128 0 1.884.305 2.267.914.395.61.592 1.692.592 3.25v4.466h-1.252v-4.433c0-1.173-.118-1.974-.355-2.403-.226-.44-.716-.66-1.472-.66-.361 0-.745.056-1.151.17a5.343 5.343 0 0 0-.914.304l-.321.152v6.87Zm13.573-1.049.491-.05.033.998c-1.286.18-2.386.27-3.299.27-1.219 0-2.082-.349-2.589-1.048-.508-.711-.762-1.811-.762-3.3 0-2.967 1.179-4.45 3.537-4.45 1.139 0 1.991.32 2.555.964.564.632.846 1.63.846 2.995l-.068.965h-5.584c0 .936.169 1.63.508 2.081.338.451.925.677 1.76.677.846 0 1.703-.034 2.572-.102Zm-.457-3.672c0-1.038-.169-1.77-.508-2.2-.327-.428-.868-.643-1.624-.643-.745 0-1.309.226-1.692.677-.373.452-.564 1.174-.576 2.166h4.4Zm7.58-2.64h-2.69v4.045c0 .97.067 1.607.203 1.912.146.305.485.457 1.015.457l1.506-.102.085 1.05c-.756.124-1.332.186-1.726.186-.88 0-1.49-.215-1.828-.643-.338-.43-.508-1.247-.508-2.454v-4.45h-1.201v-1.1h1.201v-2.59h1.253v2.59h2.69v1.1Zm1.55 7.361v-8.46h1.269v8.46h-1.269Zm0-10.373v-1.472h1.269v1.472h-1.269Zm3.194 3.046V37.53h6.278v1.133l-4.738 6.194h4.738v1.133h-6.278v-1.133l4.738-6.194h-4.738Zm14.182 1.422v4.332c.033.417.361.665.981.744l-.051.999c-.891 0-1.562-.226-2.013-.677-1.016.451-2.031.677-3.046.677-.779 0-1.371-.22-1.777-.66-.406-.44-.609-1.072-.609-1.895 0-.824.208-1.428.626-1.811.417-.395 1.072-.637 1.963-.728l2.657-.254v-.727c0-.576-.125-.987-.373-1.236-.248-.248-.586-.372-1.015-.372-.903 0-1.839.057-2.809.17l-.525.05-.05-.964c1.241-.248 2.34-.373 3.299-.373.959 0 1.653.22 2.082.66.44.44.66 1.128.66 2.065Zm-5.212 3.452c0 1.038.428 1.557 1.286 1.557a6.84 6.84 0 0 0 2.267-.39l.39-.135v-2.792l-2.505.237c-.508.045-.874.192-1.1.44-.225.248-.338.609-.338 1.083Zm12.098-4.907h-2.69v4.044c0 .97.068 1.607.203 1.912.147.305.485.457 1.015.457l1.506-.102.085 1.05c-.756.124-1.331.186-1.726.186-.88 0-1.489-.215-1.828-.643-.338-.43-.507-1.247-.507-2.454v-4.45h-1.202v-1.1h1.202v-2.59h1.252v2.59h2.69v1.1Zm1.55 7.36v-8.46h1.269v8.46h-1.269Zm0-10.373v-1.472h1.269v1.472h-1.269Zm3.33 6.126c0-1.545.276-2.662.829-3.35.552-.688 1.483-1.033 2.792-1.033 1.32 0 2.25.345 2.792 1.033.553.688.829 1.805.829 3.35 0 1.546-.259 2.668-.778 3.367-.519.7-1.467 1.05-2.843 1.05s-2.324-.35-2.843-1.05c-.519-.699-.778-1.821-.778-3.367Zm1.303-.017c0 1.23.146 2.093.439 2.59.305.496.931.744 1.879.744.959 0 1.585-.243 1.878-.728.293-.496.44-1.365.44-2.606 0-1.24-.163-2.093-.491-2.555-.327-.474-.936-.71-1.827-.71-.88 0-1.489.236-1.828.71-.327.462-.49 1.314-.49 2.555Zm9.278 4.264h-1.269v-8.46h1.252v.592c.914-.508 1.788-.762 2.623-.762 1.128 0 1.884.305 2.268.914.394.61.592 1.692.592 3.25v4.466h-1.252v-4.433c0-1.173-.119-1.974-.356-2.403-.225-.44-.716-.66-1.472-.66-.361 0-.745.056-1.151.17a5.327 5.327 0 0 0-.913.304l-.322.152v6.87Z"/><mask id="a" width="21" height="22" x="335" y="29" maskUnits="userSpaceOnUse" style="mask-type:alpha"><path fill="#C4C4C4" d="M335.694 29.869h20.243v20.243h-20.243z"/></mask><g mask="url(#a)"><path fill="#475569" d="m343.499 48.425-.337-2.699a3.21 3.21 0 0 1-.517-.253 6.697 6.697 0 0 1-.474-.316l-2.51 1.054-2.319-4.006 2.172-1.645a2.024 2.024 0 0 1-.021-.285v-.569c0-.092.007-.186.021-.285l-2.172-1.644 2.319-4.007 2.51 1.054c.154-.112.316-.217.485-.316.168-.098.337-.183.506-.253l.337-2.699h4.639l.337 2.7c.183.07.355.154.517.252.162.099.32.204.474.316l2.51-1.054 2.319 4.007-2.172 1.644c.014.099.021.194.021.285v.569c0 .092-.014.187-.042.285l2.172 1.645-2.319 4.006-2.489-1.054a5.59 5.59 0 0 1-.485.316 4.175 4.175 0 0 1-.506.253l-.337 2.7h-4.639Zm2.362-5.482c.815 0 1.511-.288 2.087-.865a2.842 2.842 0 0 0 .865-2.087c0-.816-.288-1.511-.865-2.088a2.843 2.843 0 0 0-2.087-.864c-.83 0-1.529.288-2.099.864a2.863 2.863 0 0 0-.853 2.088c0 .815.284 1.51.853 2.087.57.577 1.269.865 2.099.865Zm0-1.687c-.352 0-.65-.123-.896-.37a1.22 1.22 0 0 1-.37-.895c0-.352.124-.65.37-.896s.544-.37.896-.37c.351 0 .65.124.896.37s.369.544.369.896c0 .351-.123.65-.369.895a1.22 1.22 0 0 1-.896.37Zm-.886 5.482h1.666l.295-2.235c.436-.112.84-.278 1.213-.496a5.033 5.033 0 0 0 1.022-.79l2.088.864.822-1.433-1.813-1.371c.07-.197.119-.404.147-.623a5.197 5.197 0 0 0 0-1.328 2.987 2.987 0 0 0-.147-.622l1.813-1.37-.822-1.434-2.088.886a4.696 4.696 0 0 0-1.022-.813 4.746 4.746 0 0 0-1.213-.495l-.274-2.235h-1.666l-.295 2.235c-.436.113-.84.278-1.212.495a5.034 5.034 0 0 0-1.023.791l-2.088-.864-.822 1.434 1.813 1.35c-.07.21-.119.421-.147.632a5.133 5.133 0 0 0 0 1.328c.028.211.077.422.147.633l-1.813 1.37.822 1.434 2.088-.885a4.659 4.659 0 0 0 2.235 1.307l.274 2.235Z"/></g><path stroke="#FF7A7F" stroke-width="3.374" d="M20.243 65.642H68.44"/><path stroke="#56B7B5" stroke-width="3.374" d="M68.44 65.642h48.198"/><path stroke="#A3BEDC" stroke-width="3.374" d="M116.638 65.642h48.197"/><path stroke="#FFC8DC" stroke-width="3.374" d="M164.835 65.642h48.197"/><path stroke="#FF9852" stroke-width="3.374" d="M213.032 65.642h48.198"/><path stroke="#98E1D0" stroke-width="3.374" d="M261.229 65.642h48.198"/><path stroke="#8075B3" stroke-width="3.374" d="M309.427 65.642h48.197"/><path fill="#475569" d="M36.221 90.045h-1.495a2.289 2.289 0 0 0-.896-1.462 2.48 2.48 0 0 0-.762-.383 2.974 2.974 0 0 0-.887-.13c-.565 0-1.072.143-1.519.427-.444.284-.795.701-1.054 1.25-.256.55-.384 1.221-.384 2.014 0 .798.128 1.473.384 2.022.259.55.612.965 1.059 1.246.447.281.95.422 1.51.422.31 0 .603-.042.881-.125.282-.086.535-.212.762-.378a2.297 2.297 0 0 0 .906-1.443l1.495.005c-.08.482-.235.926-.465 1.332-.226.403-.519.75-.877 1.045-.354.29-.76.516-1.217.675a4.5 4.5 0 0 1-1.495.24c-.85 0-1.607-.201-2.272-.604-.664-.405-1.188-.985-1.572-1.74-.38-.753-.57-1.653-.57-2.697 0-1.048.192-1.948.575-2.698.384-.755.908-1.333 1.572-1.735.665-.406 1.42-.609 2.267-.609.52 0 1.006.075 1.457.225.453.147.86.364 1.222.652.36.284.66.633.896 1.045.236.409.396.877.48 1.404Zm4.758 6.772c-.69 0-1.292-.159-1.807-.475a3.2 3.2 0 0 1-1.198-1.327c-.284-.57-.426-1.234-.426-1.994 0-.764.142-1.431.426-2.003a3.193 3.193 0 0 1 1.198-1.332c.515-.317 1.117-.475 1.807-.475s1.292.158 1.807.475c.514.316.913.76 1.198 1.332.284.572.426 1.24.426 2.003 0 .76-.142 1.425-.426 1.994a3.2 3.2 0 0 1-1.198 1.327c-.515.316-1.117.475-1.807.475Zm.005-1.203c.447 0 .817-.119 1.111-.355.294-.236.512-.551.652-.944.144-.393.216-.826.216-1.299 0-.47-.072-.9-.216-1.294a2.107 2.107 0 0 0-.651-.953c-.294-.24-.665-.36-1.112-.36-.45 0-.825.12-1.122.36-.294.24-.513.557-.656.953-.14.393-.211.825-.211 1.294 0 .473.07.906.21 1.299.145.393.363.708.657.944.297.236.671.355 1.122.355Zm6.459-3.317v4.371H46.01v-7.361h1.375v1.198h.091c.17-.39.435-.703.796-.94.364-.236.822-.354 1.375-.354.502 0 .94.106 1.318.316.377.208.67.518.877.93.208.412.311.922.311 1.529v4.682h-1.432v-4.51c0-.533-.14-.95-.417-1.25-.278-.304-.66-.456-1.146-.456-.332 0-.628.072-.886.216a1.55 1.55 0 0 0-.609.632c-.147.275-.22.608-.22.997Zm8.065 0v4.371h-1.433v-7.361h1.375v1.198h.092c.169-.39.434-.703.795-.94.364-.236.823-.354 1.375-.354.502 0 .941.106 1.318.316.377.208.67.518.877.93.208.412.312.922.312 1.529v4.682h-1.433v-4.51c0-.533-.139-.95-.417-1.25-.278-.304-.66-.456-1.145-.456-.333 0-.628.072-.887.216a1.55 1.55 0 0 0-.609.632c-.147.275-.22.608-.22.997Zm9.805 4.52c-.725 0-1.35-.155-1.874-.465a3.153 3.153 0 0 1-1.207-1.318c-.281-.569-.422-1.235-.422-1.999 0-.754.14-1.418.422-1.993a3.275 3.275 0 0 1 1.188-1.347c.511-.323 1.109-.484 1.793-.484.415 0 .817.069 1.207.206.39.138.74.353 1.05.647.31.294.554.676.733 1.146.179.466.268 1.033.268 1.7v.509H62.62v-1.074h4.447c0-.377-.076-.71-.23-1.001a1.739 1.739 0 0 0-.647-.695 1.808 1.808 0 0 0-.968-.254 1.87 1.87 0 0 0-1.054.297c-.297.195-.527.45-.69.767-.16.313-.24.653-.24 1.02v.84c0 .491.086.91.259 1.255.176.345.42.608.733.79.313.18.679.269 1.098.269.271 0 .519-.038.742-.115a1.54 1.54 0 0 0 .954-.934l1.356.244c-.108.4-.303.749-.584 1.05a2.832 2.832 0 0 1-1.05.694 3.927 3.927 0 0 1-1.433.245Zm7.849 0c-.713 0-1.326-.162-1.84-.484a3.204 3.204 0 0 1-1.18-1.347c-.274-.572-.411-1.227-.411-1.965 0-.748.14-1.407.421-1.98a3.23 3.23 0 0 1 1.189-1.346c.51-.323 1.113-.484 1.806-.484.56 0 1.058.104 1.496.312.437.204.79.492 1.059.862.271.37.433.804.484 1.299H74.79a1.67 1.67 0 0 0-.527-.891c-.271-.25-.636-.374-1.093-.374-.399 0-.749.105-1.05.316-.296.208-.528.505-.694.891-.166.384-.25.837-.25 1.361 0 .537.082 1 .245 1.39.163.39.393.692.69.906.3.214.654.321 1.06.321.271 0 .517-.05.737-.148.224-.103.411-.248.561-.437a1.64 1.64 0 0 0 .321-.68h1.395a2.71 2.71 0 0 1-.465 1.275 2.675 2.675 0 0 1-1.04.881c-.431.215-.938.322-1.52.322Zm7.992-7.51v1.15h-4.02v-1.15h4.02Zm-2.942-1.764h1.433v6.964c0 .278.041.487.124.627a.65.65 0 0 0 .321.283c.135.048.28.072.436.072.115 0 .216-.008.302-.024l.202-.038.258 1.183a2.411 2.411 0 0 1-.354.096 2.802 2.802 0 0 1-.575.058 2.522 2.522 0 0 1-1.055-.201 1.808 1.808 0 0 1-.79-.652c-.202-.294-.302-.663-.302-1.107v-7.26Zm7.62 9.273c-.724 0-1.349-.154-1.873-.464a3.153 3.153 0 0 1-1.208-1.318c-.28-.569-.421-1.235-.421-1.999 0-.754.14-1.418.421-1.993a3.275 3.275 0 0 1 1.189-1.347c.511-.323 1.109-.484 1.792-.484.415 0 .818.069 1.208.206.39.138.74.353 1.05.647.31.294.554.676.733 1.146.178.466.268 1.033.268 1.7v.509h-5.852v-1.074h4.448c0-.377-.077-.71-.23-1.001a1.739 1.739 0 0 0-.647-.695 1.808 1.808 0 0 0-.968-.254 1.87 1.87 0 0 0-1.055.297c-.297.195-.527.45-.69.767-.16.313-.24.653-.24 1.02v.84c0 .491.087.91.26 1.255.175.345.42.608.733.79.313.18.679.269 1.097.269.272 0 .52-.038.743-.115a1.542 1.542 0 0 0 .954-.934l1.356.244c-.109.4-.304.749-.585 1.05a2.832 2.832 0 0 1-1.05.694 3.927 3.927 0 0 1-1.432.245Zm7.504-.004a2.852 2.852 0 0 1-1.59-.456c-.464-.306-.828-.742-1.093-1.308-.262-.569-.393-1.25-.393-2.046 0-.796.132-1.476.397-2.042.269-.565.636-.998 1.103-1.298.466-.3.995-.45 1.586-.45.457 0 .824.076 1.102.23.281.15.499.325.652.526.157.202.278.379.364.532h.087v-3.647h1.432v9.815h-1.399v-1.145h-.12c-.086.156-.21.335-.374.536-.16.202-.38.377-.66.528-.282.15-.646.225-1.094.225Zm.317-1.222c.412 0 .76-.109 1.044-.326.288-.22.505-.526.652-.915.15-.39.225-.844.225-1.362 0-.51-.073-.958-.22-1.341-.147-.384-.363-.683-.647-.897-.284-.214-.636-.32-1.054-.32-.432 0-.791.111-1.079.335a2.05 2.05 0 0 0-.651.915 3.733 3.733 0 0 0-.216 1.308c0 .493.074.935.22 1.328.147.393.365.704.652.934.291.227.649.34 1.074.34Zm10.543 1.078-2.166-7.361h1.481l1.442 5.406h.072l1.447-5.406h1.481l1.438 5.382h.072l1.433-5.382h1.48l-2.161 7.361h-1.462l-1.495-5.315h-.11l-1.495 5.315h-1.457Zm11.682.163c-.466 0-.888-.086-1.265-.259a2.128 2.128 0 0 1-.896-.762c-.217-.332-.326-.74-.326-1.222 0-.415.08-.757.24-1.025.16-.269.375-.481.647-.638.271-.156.575-.275.91-.355.336-.08.678-.14 1.026-.182l1.073-.124c.275-.035.475-.091.599-.168.125-.077.187-.201.187-.374v-.033c0-.419-.118-.743-.354-.973-.234-.23-.582-.345-1.045-.345-.483 0-.863.107-1.141.32-.274.212-.465.447-.57.705l-1.347-.306c.16-.448.393-.809.7-1.083.31-.278.666-.48 1.069-.604a4.17 4.17 0 0 1 1.27-.192c.294 0 .605.035.934.106.333.067.642.191.93.373.291.182.529.443.714.782.185.335.278.771.278 1.308v4.888h-1.399v-1.006h-.058a2.053 2.053 0 0 1-.417.546 2.209 2.209 0 0 1-.714.446c-.291.118-.639.177-1.045.177Zm.312-1.15c.396 0 .735-.078 1.016-.235.284-.157.5-.361.647-.614.15-.255.225-.528.225-.819v-.949c-.051.051-.15.1-.297.144a4.6 4.6 0 0 1-.494.11l-.541.082-.441.057a3.547 3.547 0 0 0-.762.177 1.304 1.304 0 0 0-.546.36c-.135.153-.202.358-.202.613 0 .355.131.623.393.805.262.18.596.269 1.002.269Zm6.662-8.828v9.815h-1.432v-9.815h1.432Zm3.361 0v9.815h-1.433v-9.815h1.433Zm5.1 9.964c-.725 0-1.35-.155-1.873-.465a3.15 3.15 0 0 1-1.208-1.318c-.281-.569-.422-1.235-.422-1.999 0-.754.141-1.418.422-1.993a3.271 3.271 0 0 1 1.188-1.347c.512-.323 1.109-.484 1.793-.484a3.6 3.6 0 0 1 1.207.206c.39.138.74.353 1.05.647.31.294.554.676.733 1.146.179.466.268 1.033.268 1.7v.509h-5.851v-1.074h4.447c0-.377-.076-.71-.23-1.001a1.736 1.736 0 0 0-.647-.695 1.805 1.805 0 0 0-.968-.254 1.87 1.87 0 0 0-1.054.297c-.297.195-.527.45-.69.767a2.21 2.21 0 0 0-.24 1.02v.84c0 .491.087.91.259 1.255.176.345.42.608.733.79.313.18.679.269 1.098.269.271 0 .519-.038.743-.115a1.538 1.538 0 0 0 .953-.934l1.356.244c-.108.4-.303.749-.584 1.05a2.832 2.832 0 0 1-1.05.694 3.924 3.924 0 0 1-1.433.245Zm8.184-7.51v1.15h-4.02v-1.15h4.02Zm-2.942-1.764h1.433v6.964c0 .278.041.487.124.627a.656.656 0 0 0 .322.283c.134.048.279.072.436.072.115 0 .215-.008.302-.024l.201-.038.259 1.183a2.428 2.428 0 0 1-.355.096 2.8 2.8 0 0 1-.575.058 2.518 2.518 0 0 1-1.054-.201 1.807 1.807 0 0 1-.791-.652c-.201-.294-.302-.663-.302-1.107v-7.26Zm10.241 9.288c-.466 0-.888-.086-1.265-.259a2.128 2.128 0 0 1-.896-.762c-.217-.332-.326-.74-.326-1.222 0-.415.08-.757.24-1.025a1.76 1.76 0 0 1 .647-.638c.271-.156.575-.275.91-.355.336-.08.677-.14 1.026-.182l1.073-.124c.275-.035.475-.091.599-.168.125-.077.187-.201.187-.374v-.033c0-.419-.118-.743-.355-.973-.233-.23-.581-.345-1.044-.345-.483 0-.863.107-1.141.32-.275.212-.465.447-.57.705l-1.347-.306c.16-.448.393-.809.7-1.083.31-.278.666-.48 1.069-.604a4.165 4.165 0 0 1 1.27-.192c.293 0 .605.035.934.106.332.067.642.191.93.373.291.182.529.443.714.782.185.335.278.771.278 1.308v4.888h-1.4v-1.006h-.057a2.053 2.053 0 0 1-.417.546 2.209 2.209 0 0 1-.714.446c-.291.118-.639.177-1.045.177Zm.312-1.15c.396 0 .735-.078 1.016-.235.284-.157.5-.361.647-.614.15-.255.225-.528.225-.819v-.949c-.051.051-.15.1-.297.144a4.656 4.656 0 0 1-.494.11l-.541.082-.441.057a3.547 3.547 0 0 0-.762.177 1.314 1.314 0 0 0-.547.36c-.134.153-.201.358-.201.613 0 .355.131.623.393.805.262.18.596.269 1.002.269Zm7.985 1.13a2.852 2.852 0 0 1-1.591-.455c-.463-.306-.828-.742-1.093-1.308-.262-.569-.393-1.25-.393-2.046 0-.796.133-1.476.398-2.042.268-.565.636-.998 1.102-1.298.467-.3.995-.45 1.587-.45.456 0 .824.076 1.102.23.281.15.498.325.652.526.156.202.277.379.364.532h.086v-3.647h1.433v9.815h-1.399v-1.145h-.12a3.85 3.85 0 0 1-.374.536 2.08 2.08 0 0 1-.661.528c-.282.15-.646.225-1.093.225Zm.316-1.221c.412 0 .761-.109 1.045-.326.288-.22.505-.526.652-.915.15-.39.225-.844.225-1.362 0-.51-.074-.958-.22-1.341-.147-.384-.363-.683-.647-.897-.285-.214-.636-.32-1.055-.32-.431 0-.79.111-1.078.335a2.048 2.048 0 0 0-.652.915 3.728 3.728 0 0 0-.215 1.308c0 .493.073.935.22 1.328.147.393.364.704.652.934.29.227.648.34 1.073.34Zm8.132 1.222a2.85 2.85 0 0 1-1.591-.456c-.464-.306-.828-.742-1.093-1.308-.262-.569-.393-1.25-.393-2.046 0-.796.133-1.476.398-2.042.268-.565.636-.998 1.102-1.298.466-.3.995-.45 1.586-.45.457 0 .825.076 1.102.23.282.15.499.325.652.526.157.202.278.379.364.532h.087v-3.647h1.433v9.815h-1.4v-1.145h-.12a3.75 3.75 0 0 1-.373.536c-.16.202-.381.377-.662.528-.281.15-.645.225-1.092.225Zm.316-1.222c.412 0 .76-.109 1.045-.326.287-.22.504-.526.651-.915.151-.39.226-.844.226-1.362 0-.51-.074-.958-.221-1.341-.147-.384-.362-.683-.647-.897-.284-.214-.636-.32-1.054-.32-.431 0-.791.111-1.078.335a2.048 2.048 0 0 0-.652.915 3.728 3.728 0 0 0-.216 1.308c0 .493.074.935.221 1.328.147.393.364.704.651.934.291.227.649.34 1.074.34Zm5.376 1.078v-7.361h1.385v1.17h.076c.135-.397.371-.708.71-.935.342-.23.728-.345 1.159-.345a6.141 6.141 0 0 1 .609.033v1.37a2.552 2.552 0 0 0-.307-.052 2.936 2.936 0 0 0-.441-.033c-.338 0-.64.072-.905.215a1.599 1.599 0 0 0-.853 1.443v4.495h-1.433Zm8.088.148c-.725 0-1.35-.154-1.874-.464a3.148 3.148 0 0 1-1.207-1.318c-.282-.569-.422-1.235-.422-1.999 0-.754.14-1.418.422-1.993a3.271 3.271 0 0 1 1.188-1.347c.511-.323 1.109-.484 1.792-.484.416 0 .818.069 1.208.206.39.138.74.353 1.05.647.309.294.554.676.733 1.146.179.466.268 1.033.268 1.7v.509h-5.851v-1.074h4.447c0-.377-.077-.71-.23-1.001a1.736 1.736 0 0 0-.647-.695 1.808 1.808 0 0 0-.968-.254c-.403 0-.754.099-1.054.297-.297.195-.528.45-.69.767a2.21 2.21 0 0 0-.24 1.02v.84c0 .491.086.91.259 1.255.175.345.42.608.733.79.313.18.679.269 1.097.269.272 0 .52-.038.743-.115a1.538 1.538 0 0 0 .954-.934l1.356.244c-.109.4-.303.749-.585 1.05a2.828 2.828 0 0 1-1.049.694 3.928 3.928 0 0 1-1.433.245Zm10.264-5.712-1.299.23a1.535 1.535 0 0 0-.258-.474 1.292 1.292 0 0 0-.47-.37c-.198-.095-.446-.143-.743-.143-.406 0-.744.09-1.016.273-.271.179-.407.41-.407.695 0 .246.091.444.273.594.182.15.476.273.882.37l1.169.268c.677.156 1.182.397 1.514.723.333.326.499.75.499 1.27 0 .441-.128.834-.384 1.18-.252.34-.605.61-1.059.804-.45.195-.973.293-1.567.293-.824 0-1.497-.176-2.017-.528-.521-.354-.841-.858-.959-1.51l1.385-.21c.086.36.264.634.532.82.268.181.618.273 1.05.273.469 0 .845-.098 1.126-.293.281-.198.422-.44.422-.723a.754.754 0 0 0-.259-.58c-.17-.157-.43-.275-.781-.355l-1.246-.273c-.687-.157-1.195-.406-1.524-.748-.326-.341-.489-.774-.489-1.298 0-.435.121-.815.364-1.141.243-.326.578-.58 1.006-.762.429-.185.919-.278 1.472-.278.795 0 1.421.173 1.878.518.457.341.759.8.906 1.375Zm7.235 0-1.298.23a1.56 1.56 0 0 0-.259-.474 1.283 1.283 0 0 0-.47-.37c-.198-.095-.446-.143-.743-.143-.405 0-.744.09-1.016.273-.271.179-.407.41-.407.695 0 .246.091.444.273.594.182.15.476.273.882.37l1.169.268c.678.156 1.182.397 1.515.723.332.326.498.75.498 1.27 0 .441-.128.834-.383 1.18-.253.34-.606.61-1.059.804-.451.195-.973.293-1.568.293-.824 0-1.496-.176-2.017-.528-.521-.354-.84-.858-.959-1.51l1.385-.21c.087.36.264.634.532.82.269.181.619.273 1.05.273.47 0 .845-.098 1.126-.293.281-.198.422-.44.422-.723a.75.75 0 0 0-.259-.58c-.169-.157-.43-.275-.781-.355l-1.246-.273c-.687-.157-1.195-.406-1.524-.748-.326-.341-.489-.774-.489-1.298 0-.435.121-.815.364-1.141.243-.326.579-.58 1.007-.762.428-.185.918-.278 1.471-.278.795 0 1.422.173 1.879.518.456.341.758.8.905 1.375Z"/><rect width="337.381" height="47.233" x="20.243" y="106.885" fill="#F8FAFC" rx="10.121"/><path fill="#475569" d="M35.904 130.574v4.428h-1.13v-9.815h1.13v3.604H36c.173-.38.432-.682.777-.906.348-.227.811-.34 1.39-.34.501 0 .94.101 1.317.302.377.198.67.503.877.915.211.409.317.93.317 1.563v4.677h-1.131v-4.601c0-.584-.152-1.036-.456-1.356-.3-.323-.717-.484-1.25-.484-.371 0-.703.078-.997.235-.291.156-.521.385-.69.685-.167.3-.25.665-.25 1.093Zm10.044-2.933v.958h-3.815v-.958h3.815Zm-2.703-1.764h1.131v7.016c0 .32.046.559.14.719a.716.716 0 0 0 .363.316c.15.052.309.077.475.077.124 0 .227-.006.306-.019l.192-.038.23 1.016a2.458 2.458 0 0 1-.843.134c-.32 0-.633-.069-.94-.206a1.873 1.873 0 0 1-.757-.628c-.198-.281-.297-.636-.297-1.064v-7.323Zm7.605 1.764v.958h-3.814v-.958h3.814Zm-2.702-1.764h1.13v7.016c0 .32.047.559.14.719a.716.716 0 0 0 .364.316c.15.052.308.077.474.077.125 0 .227-.006.307-.019l.192-.038.23 1.016a2.458 2.458 0 0 1-.844.134c-.32 0-.632-.069-.939-.206a1.873 1.873 0 0 1-.757-.628c-.198-.281-.297-.636-.297-1.064v-7.323Zm4.404 11.885v-10.121h1.093v1.169h.134c.083-.128.198-.29.345-.489.15-.201.364-.38.642-.536.281-.16.661-.24 1.14-.24.62 0 1.167.155 1.64.465.472.31.841.749 1.107 1.318.265.569.397 1.239.397 2.013 0 .779-.132 1.455-.397 2.027-.266.568-.633 1.009-1.103 1.322-.47.31-1.01.465-1.624.465-.473 0-.852-.078-1.136-.235a2.099 2.099 0 0 1-.657-.541 7.383 7.383 0 0 1-.354-.508h-.096v3.891h-1.131Zm1.112-6.441c0 .556.081 1.047.244 1.472.163.421.401.752.714.992.313.236.697.354 1.15.354.473 0 .868-.124 1.184-.373.32-.253.56-.592.719-1.016.163-.429.244-.905.244-1.429 0-.517-.08-.984-.24-1.399a2.166 2.166 0 0 0-.713-.992c-.317-.246-.715-.369-1.194-.369-.46 0-.846.117-1.16.35-.313.23-.549.553-.709.968-.16.412-.24.893-.24 1.442Zm12.326-2.032-1.016.288a1.899 1.899 0 0 0-.283-.494 1.366 1.366 0 0 0-.499-.402c-.21-.106-.48-.158-.81-.158-.45 0-.825.104-1.126.311-.297.205-.445.465-.445.781 0 .282.102.504.306.666.205.163.524.299.959.408l1.092.268c.659.16 1.149.404 1.472.733.322.326.484.746.484 1.261 0 .422-.122.799-.364 1.131-.24.332-.576.594-1.007.786-.431.191-.933.287-1.505.287-.75 0-1.372-.163-1.864-.489-.492-.325-.803-.801-.934-1.428l1.073-.268c.102.396.296.693.58.891.288.198.663.298 1.126.298.527 0 .946-.112 1.256-.336.313-.227.47-.498.47-.815a.857.857 0 0 0-.269-.642c-.179-.176-.454-.307-.824-.393l-1.227-.287c-.674-.16-1.17-.408-1.486-.743-.313-.339-.47-.762-.47-1.27 0-.415.117-.783.35-1.102.237-.32.558-.571.964-.753a3.384 3.384 0 0 1 1.39-.273c.728 0 1.3.16 1.715.479.419.32.716.742.892 1.265Zm2.66 5.79a.831.831 0 0 1-.608-.254.833.833 0 0 1-.254-.609c0-.236.085-.439.254-.609a.831.831 0 0 1 .608-.254c.237 0 .44.085.61.254.168.17.253.373.253.609a.898.898 0 0 1-.431.748.828.828 0 0 1-.431.115Zm0-5.464a.828.828 0 0 1-.608-.254.829.829 0 0 1-.254-.608.83.83 0 0 1 .254-.609.831.831 0 0 1 .608-.254c.237 0 .44.085.61.254a.83.83 0 0 1 .253.609.895.895 0 0 1-.431.747.82.82 0 0 1-.431.115Zm6.362-4.888-3.163 11.751h-1.035l3.163-11.751h1.035Zm4.81 0-3.162 11.751h-1.035l3.162-11.751h1.036Zm4.62 2.914v.958h-3.969v-.958h3.968Zm-2.78 7.361v-8.377c0-.422.099-.773.297-1.054a1.84 1.84 0 0 1 .771-.633c.317-.141.65-.211 1.002-.211.278 0 .505.023.68.067.176.045.307.087.393.125l-.325.978a3.938 3.938 0 0 0-.24-.072 1.438 1.438 0 0 0-.393-.044c-.374 0-.644.095-.81.283-.163.189-.244.465-.244.829v8.109h-1.131Zm5.093 2.76c-.192 0-.363-.016-.513-.048a1.305 1.305 0 0 1-.312-.086l.288-.997c.275.071.518.096.728.077a.87.87 0 0 0 .561-.283c.166-.166.318-.436.455-.81l.211-.575-2.722-7.399h1.227l2.032 5.866h.077l2.032-5.866h1.227l-3.125 8.434c-.14.381-.315.695-.523.945a1.954 1.954 0 0 1-.723.56 2.222 2.222 0 0 1-.92.182Zm7.914-7.188v4.428h-1.13v-7.361h1.092v1.15h.096c.172-.374.434-.674.786-.901.351-.23.805-.345 1.36-.345.5 0 .935.102 1.31.307.373.201.664.508.871.92.208.409.312.926.312 1.553v4.677h-1.131v-4.601c0-.578-.15-1.028-.45-1.351-.301-.326-.713-.489-1.237-.489-.361 0-.684.078-.968.235a1.678 1.678 0 0 0-.666.685c-.163.3-.245.665-.245 1.093Zm6.917 4.428v-9.815h1.131v3.623h.096c.083-.128.198-.29.345-.489.15-.201.364-.38.642-.536.281-.16.661-.24 1.141-.24.619 0 1.166.155 1.638.465.473.31.842.749 1.108 1.318.265.569.397 1.239.397 2.013 0 .779-.132 1.455-.397 2.027-.266.568-.633 1.009-1.103 1.322-.469.31-1.011.465-1.624.465-.473 0-.852-.078-1.136-.235a2.111 2.111 0 0 1-.657-.541 7.485 7.485 0 0 1-.354-.508h-.134v1.131h-1.093Zm1.112-3.681c0 .556.081 1.047.244 1.472.163.421.401.752.714.992.313.236.697.354 1.15.354.473 0 .868-.124 1.184-.373.32-.253.559-.592.719-1.016.163-.429.244-.905.244-1.429 0-.517-.08-.984-.239-1.399a2.173 2.173 0 0 0-.714-.992c-.317-.246-.714-.369-1.194-.369-.46 0-.846.117-1.159.35-.314.23-.55.553-.71.968-.159.412-.239.893-.239 1.442Zm10.107 3.834c-.665 0-1.248-.158-1.749-.474a3.217 3.217 0 0 1-1.17-1.328c-.278-.568-.417-1.233-.417-1.993 0-.767.139-1.436.417-2.008a3.21 3.21 0 0 1 1.17-1.332c.501-.317 1.084-.475 1.749-.475.664 0 1.246.158 1.744.475.502.316.892.76 1.17 1.332.281.572.421 1.241.421 2.008 0 .76-.14 1.425-.421 1.993a3.176 3.176 0 0 1-1.17 1.328c-.498.316-1.08.474-1.744.474Zm0-1.016c.505 0 .92-.129 1.246-.388.326-.259.567-.599.723-1.021.157-.421.235-.878.235-1.37 0-.492-.078-.951-.235-1.376a2.31 2.31 0 0 0-.723-1.03c-.326-.262-.741-.393-1.246-.393s-.92.131-1.246.393a2.32 2.32 0 0 0-.724 1.03 3.964 3.964 0 0 0-.235 1.376c0 .492.079.949.235 1.37.157.422.398.762.724 1.021.326.259.741.388 1.246.388Zm10.276-4.85-1.016.288a1.891 1.891 0 0 0-.283-.494 1.368 1.368 0 0 0-.498-.402c-.211-.106-.481-.158-.81-.158-.451 0-.826.104-1.126.311-.298.205-.446.465-.446.781 0 .282.102.504.307.666.204.163.523.299.958.408l1.093.268c.658.16 1.148.404 1.471.733.323.326.484.746.484 1.261 0 .422-.121.799-.364 1.131-.24.332-.575.594-1.007.786-.431.191-.933.287-1.504.287-.751 0-1.373-.163-1.865-.489-.492-.325-.803-.801-.934-1.428l1.073-.268c.103.396.296.693.58.891.288.198.663.298 1.126.298.528 0 .946-.112 1.256-.336.313-.227.47-.498.47-.815a.858.858 0 0 0-.269-.642c-.179-.176-.453-.307-.824-.393l-1.227-.287c-.674-.16-1.169-.408-1.486-.743-.313-.339-.469-.762-.469-1.27 0-.415.116-.783.35-1.102.236-.32.557-.571.963-.753a3.384 3.384 0 0 1 1.39-.273c.728 0 1.3.16 1.715.479.419.32.716.742.892 1.265Zm2.661 5.79a.83.83 0 0 1-.609-.254.834.834 0 0 1-.254-.609c0-.236.085-.439.254-.609a.83.83 0 0 1 .609-.254.83.83 0 0 1 .608.254.83.83 0 0 1 .254.609c0 .157-.04.3-.12.431a.89.89 0 0 1-.311.317.83.83 0 0 1-.431.115Zm2.892-.077v-7.361h1.093v1.15h.095a1.85 1.85 0 0 1 .743-.915c.342-.221.753-.331 1.232-.331.485 0 .89.11 1.212.331.326.217.58.522.762.915h.077c.188-.38.471-.682.848-.906.377-.227.829-.34 1.356-.34.659 0 1.197.206 1.615.618.419.409.628 1.047.628 1.912v4.927h-1.131v-4.927c0-.543-.148-.931-.445-1.164a1.653 1.653 0 0 0-1.05-.35c-.518 0-.919.157-1.203.47-.284.31-.426.703-.426 1.179v4.792h-1.151v-5.042c0-.418-.135-.755-.407-1.011-.271-.259-.621-.388-1.049-.388a1.55 1.55 0 0 0-.825.235 1.767 1.767 0 0 0-.613.652c-.153.274-.23.592-.23.953v4.601h-1.131Zm14.815.153c-.709 0-1.321-.156-1.835-.469a3.163 3.163 0 0 1-1.184-1.323c-.275-.569-.412-1.23-.412-1.984s.137-1.419.412-1.994a3.256 3.256 0 0 1 1.16-1.351c.498-.326 1.08-.489 1.744-.489.384 0 .762.064 1.136.192.374.128.714.335 1.021.623.307.284.551.661.733 1.131.182.469.273 1.048.273 1.735v.479h-5.674v-.978h4.524c0-.415-.083-.786-.249-1.112a1.87 1.87 0 0 0-.7-.771c-.3-.189-.655-.283-1.064-.283-.45 0-.84.112-1.169.336-.326.22-.577.507-.752.862a2.533 2.533 0 0 0-.264 1.141v.651c0 .556.096 1.028.288 1.414.194.384.464.676.81.877.345.198.746.297 1.202.297.298 0 .566-.041.806-.124.242-.087.452-.214.627-.384.176-.172.312-.386.408-.642l1.092.307c-.115.37-.308.696-.58.978a2.827 2.827 0 0 1-1.006.651c-.399.154-.848.23-1.347.23Zm8.238-10.428-3.163 11.751h-1.035l3.163-11.751h1.035Zm3.507 10.447c-.466 0-.89-.087-1.27-.263a2.172 2.172 0 0 1-.905-.772c-.224-.338-.336-.747-.336-1.227 0-.421.083-.763.249-1.025.166-.265.388-.473.666-.623.278-.15.585-.262.921-.336.338-.076.678-.137 1.02-.182.448-.057.81-.1 1.088-.129.281-.032.486-.085.614-.158.131-.074.196-.201.196-.384v-.038c0-.473-.129-.84-.388-1.102-.256-.262-.644-.393-1.165-.393-.54 0-.963.118-1.27.355-.306.236-.522.488-.647.757l-1.073-.384c.192-.447.447-.795.767-1.044a2.86 2.86 0 0 1 1.054-.528c.383-.102.76-.153 1.131-.153.236 0 .508.029.815.086.31.055.608.168.896.341.291.172.532.432.723.781.192.348.288.814.288 1.399v4.85h-1.131v-.997h-.057c-.077.16-.205.331-.384.513a2.22 2.22 0 0 1-.714.465c-.297.128-.66.191-1.088.191Zm.173-1.015c.447 0 .824-.088 1.131-.264a1.79 1.79 0 0 0 .699-.681c.16-.278.24-.57.24-.877v-1.035c-.048.058-.153.11-.316.158-.16.045-.345.085-.556.12-.208.032-.411.061-.609.086a36.76 36.76 0 0 0-.474.058 4.328 4.328 0 0 0-.825.187 1.426 1.426 0 0 0-.613.378c-.153.167-.23.393-.23.681 0 .393.145.69.436.891.294.198.666.298 1.117.298Zm6.396-8.972v9.815h-1.131v-9.815h1.131Zm2.072 9.815v-7.361h1.131v7.361h-1.131Zm.575-8.588a.802.802 0 0 1-.57-.225.723.723 0 0 1-.235-.542.72.72 0 0 1 .235-.541.802.802 0 0 1 .57-.225c.22 0 .409.075.565.225.16.15.24.33.24.541 0 .211-.08.392-.24.542a.787.787 0 0 1-.565.225Zm5.618 8.741c-.69 0-1.285-.163-1.783-.489a3.178 3.178 0 0 1-1.15-1.346c-.269-.572-.403-1.225-.403-1.96 0-.748.138-1.408.412-1.979a3.257 3.257 0 0 1 1.16-1.347c.499-.326 1.08-.489 1.745-.489.517 0 .984.096 1.399.288.415.191.756.46 1.021.805.265.345.429.747.493 1.207h-1.131c-.086-.335-.278-.632-.575-.891-.294-.262-.69-.393-1.188-.393-.441 0-.828.115-1.16.345-.329.227-.586.548-.772.963-.182.412-.273.897-.273 1.452 0 .569.09 1.064.269 1.486.182.422.437.749.766.982.333.234.722.35 1.17.35.294 0 .56-.051.8-.153a1.642 1.642 0 0 0 .963-1.131h1.131a2.626 2.626 0 0 1-.474 1.174c-.249.345-.58.62-.992.824-.409.202-.885.302-1.428.302Zm7.634 0c-.709 0-1.321-.156-1.836-.469a3.16 3.16 0 0 1-1.183-1.323c-.275-.569-.412-1.23-.412-1.984s.137-1.419.412-1.994a3.254 3.254 0 0 1 1.159-1.351c.499-.326 1.08-.489 1.745-.489.383 0 .762.064 1.136.192.373.128.714.335 1.02.623.307.284.552.661.734 1.131.182.469.273 1.048.273 1.735v.479h-5.674v-.978h4.524c0-.415-.083-.786-.25-1.112a1.868 1.868 0 0 0-.699-.771c-.301-.189-.655-.283-1.064-.283-.451 0-.84.112-1.169.336-.326.22-.577.507-.753.862a2.532 2.532 0 0 0-.263 1.141v.651c0 .556.095 1.028.287 1.414.195.384.465.676.81.877.345.198.746.297 1.203.297.297 0 .565-.041.805-.124.243-.087.452-.214.628-.384.176-.172.311-.386.407-.642l1.093.307c-.115.37-.308.696-.58.978a2.836 2.836 0 0 1-1.006.651c-.4.154-.849.23-1.347.23Zm8.966-5.06c0-1.208.157-2.318.47-3.331a10.402 10.402 0 0 1 1.351-2.804h.997c-.23.317-.445.706-.647 1.17-.198.46-.372.966-.522 1.519-.15.549-.268 1.118-.355 1.706a12.437 12.437 0 0 0-.124 1.74c0 .76.073 1.532.22 2.314.147.783.345 1.51.594 2.181.25.671.528 1.217.834 1.639h-.997a10.414 10.414 0 0 1-1.351-2.799c-.313-1.016-.47-2.128-.47-3.335Zm4.641 4.907v-9.815h3.316c.767 0 1.396.131 1.888.393.492.259.856.615 1.093 1.069.236.454.354.97.354 1.548 0 .578-.118 1.091-.354 1.538a2.5 2.5 0 0 1-1.088 1.054c-.489.253-1.114.379-1.874.379h-2.684v-1.073h2.646c.524 0 .945-.077 1.265-.23.323-.154.556-.371.7-.652.147-.285.22-.623.22-1.016s-.073-.737-.22-1.031a1.508 1.508 0 0 0-.705-.68c-.323-.163-.749-.244-1.279-.244h-2.09v8.76h-1.188Zm4.619-4.409 2.416 4.409h-1.38l-2.377-4.409h1.341Zm6.867 4.562c-.71 0-1.321-.156-1.836-.469a3.163 3.163 0 0 1-1.184-1.323c-.274-.569-.412-1.23-.412-1.984s.138-1.419.412-1.994a3.256 3.256 0 0 1 1.16-1.351c.499-.326 1.08-.489 1.745-.489.383 0 .762.064 1.135.192.374.128.714.335 1.021.623.307.284.551.661.733 1.131.183.469.274 1.048.274 1.735v.479h-5.675v-.978h4.524c0-.415-.083-.786-.249-1.112a1.875 1.875 0 0 0-.699-.771c-.301-.189-.655-.283-1.064-.283-.451 0-.841.112-1.17.336a2.2 2.2 0 0 0-.752.862 2.533 2.533 0 0 0-.264 1.141v.651c0 .556.096 1.028.288 1.414.195.384.465.676.81.877.345.198.746.297 1.203.297.297 0 .565-.041.805-.124.243-.087.452-.214.628-.384.175-.172.311-.386.407-.642l1.093.307a2.44 2.44 0 0 1-.58.978 2.831 2.831 0 0 1-1.007.651c-.399.154-.848.23-1.346.23Zm6.934.019c-.466 0-.89-.087-1.27-.263a2.181 2.181 0 0 1-.906-.772c-.223-.338-.335-.747-.335-1.227 0-.421.083-.763.249-1.025.166-.265.388-.473.666-.623.278-.15.585-.262.92-.336.339-.076.679-.137 1.021-.182.447-.057.81-.1 1.088-.129.281-.032.486-.085.613-.158.131-.074.197-.201.197-.384v-.038c0-.473-.129-.84-.388-1.102-.256-.262-.644-.393-1.165-.393-.54 0-.963.118-1.27.355-.306.236-.522.488-.647.757l-1.073-.384c.192-.447.447-.795.767-1.044a2.86 2.86 0 0 1 1.054-.528c.383-.102.76-.153 1.131-.153.236 0 .508.029.815.086.31.055.608.168.896.341.291.172.532.432.723.781.192.348.288.814.288 1.399v4.85h-1.131v-.997h-.058c-.076.16-.204.331-.383.513a2.22 2.22 0 0 1-.714.465c-.297.128-.66.191-1.088.191Zm.173-1.015c.447 0 .824-.088 1.131-.264a1.79 1.79 0 0 0 .699-.681c.16-.278.24-.57.24-.877v-1.035c-.048.058-.153.11-.316.158-.16.045-.345.085-.556.12-.208.032-.411.061-.609.086a36.76 36.76 0 0 0-.474.058 4.328 4.328 0 0 0-.825.187 1.426 1.426 0 0 0-.613.378c-.153.167-.23.393-.23.681 0 .393.145.69.436.891.294.198.666.298 1.117.298Zm8.045.996c-.614 0-1.155-.155-1.625-.465-.469-.313-.837-.754-1.102-1.322-.265-.572-.398-1.248-.398-2.027 0-.774.133-1.444.398-2.013s.634-1.008 1.107-1.318c.473-.31 1.019-.465 1.639-.465.479 0 .858.08 1.136.24.281.156.495.335.642.536.15.199.267.361.35.489h.096v-3.623h1.131v9.815h-1.093v-1.131h-.134a7.203 7.203 0 0 1-.355.508 2.095 2.095 0 0 1-.656.541c-.285.157-.663.235-1.136.235Zm.153-1.016c.454 0 .837-.118 1.15-.354.313-.24.551-.571.714-.992.163-.425.245-.916.245-1.472 0-.549-.08-1.03-.24-1.442-.16-.415-.396-.738-.709-.968-.313-.233-.7-.35-1.16-.35-.479 0-.878.123-1.198.369a2.217 2.217 0 0 0-.714.992 3.932 3.932 0 0 0-.235 1.399c0 .524.08 1 .24 1.429.163.424.402.763.719 1.016.319.249.715.373 1.188.373Zm12.235 1.016c-.664 0-1.248-.158-1.749-.474a3.215 3.215 0 0 1-1.169-1.328c-.278-.568-.417-1.233-.417-1.993 0-.767.139-1.436.417-2.008a3.208 3.208 0 0 1 1.169-1.332c.501-.317 1.085-.475 1.749-.475.665 0 1.246.158 1.744.475.502.316.892.76 1.17 1.332.281.572.422 1.241.422 2.008 0 .76-.141 1.425-.422 1.993a3.176 3.176 0 0 1-1.17 1.328c-.498.316-1.079.474-1.744.474Zm0-1.016c.505 0 .92-.129 1.246-.388.326-.259.567-.599.724-1.021.156-.421.235-.878.235-1.37 0-.492-.079-.951-.235-1.376a2.32 2.32 0 0 0-.724-1.03c-.326-.262-.741-.393-1.246-.393s-.92.131-1.246.393a2.32 2.32 0 0 0-.724 1.03 3.964 3.964 0 0 0-.234 1.376c0 .492.078.949.234 1.37.157.422.398.762.724 1.021.326.259.741.388 1.246.388Zm6.193-3.565v4.428h-1.131v-7.361h1.093v1.15h.095c.173-.374.435-.674.786-.901.352-.23.806-.345 1.361-.345.499 0 .935.102 1.309.307.374.201.664.508.872.92.208.409.311.926.311 1.553v4.677h-1.131v-4.601c0-.578-.15-1.028-.45-1.351-.3-.326-.712-.489-1.236-.489-.361 0-.684.078-.969.235a1.679 1.679 0 0 0-.666.685c-.163.3-.244.665-.244 1.093Zm7.894-5.387v9.815h-1.131v-9.815h1.131Zm2.8 12.575c-.192 0-.363-.016-.513-.048a1.295 1.295 0 0 1-.311-.086l.287-.997c.275.071.518.096.729.077a.865.865 0 0 0 .56-.283c.167-.166.318-.436.456-.81l.211-.575-2.722-7.399h1.226l2.032 5.866h.077l2.032-5.866h1.227l-3.125 8.434c-.14.381-.315.695-.522.945a1.957 1.957 0 0 1-.724.56 2.219 2.219 0 0 1-.92.182Zm13.857-10.121v.958h-3.968v-.958h3.968Zm-2.779 7.361v-8.377c0-.422.099-.773.297-1.054.198-.282.455-.492.771-.633.317-.141.65-.211 1.002-.211.278 0 .505.023.68.067.176.045.307.087.393.125l-.326.978a3.832 3.832 0 0 0-.239-.072 1.438 1.438 0 0 0-.393-.044c-.374 0-.644.095-.81.283-.163.189-.244.465-.244.829v8.109h-1.131Zm4.364 0v-7.361h1.131v7.361h-1.131Zm.575-8.588a.805.805 0 0 1-.57-.225.723.723 0 0 1-.235-.542.72.72 0 0 1 .235-.541c.16-.15.35-.225.57-.225a.79.79 0 0 1 .566.225c.16.15.239.33.239.541a.716.716 0 0 1-.239.542.79.79 0 0 1-.566.225Zm5.714 8.741c-.709 0-1.321-.156-1.836-.469a3.16 3.16 0 0 1-1.183-1.323c-.275-.569-.412-1.23-.412-1.984s.137-1.419.412-1.994a3.249 3.249 0 0 1 1.16-1.351c.498-.326 1.079-.489 1.744-.489.383 0 .762.064 1.136.192a2.8 2.8 0 0 1 1.02.623c.307.284.552.661.734 1.131.182.469.273 1.048.273 1.735v.479h-5.674v-.978h4.524c0-.415-.083-.786-.249-1.112a1.877 1.877 0 0 0-.7-.771c-.301-.189-.655-.283-1.064-.283-.451 0-.84.112-1.169.336-.326.22-.577.507-.753.862a2.532 2.532 0 0 0-.263 1.141v.651c0 .556.095 1.028.287 1.414.195.384.465.676.81.877.345.198.746.297 1.203.297.297 0 .565-.041.805-.124.243-.087.452-.214.628-.384.176-.172.311-.386.407-.642l1.093.307c-.115.37-.308.696-.58.978a2.836 2.836 0 0 1-1.006.651c-.4.154-.849.23-1.347.23Zm5.899-9.968v9.815h-1.131v-9.815h1.131Zm4.851 9.968c-.613 0-1.155-.155-1.624-.465-.47-.313-.837-.754-1.102-1.322-.266-.572-.398-1.248-.398-2.027 0-.774.132-1.444.398-2.013.265-.569.634-1.008 1.107-1.318.472-.31 1.019-.465 1.639-.465.479 0 .857.08 1.135.24.281.156.496.335.642.536.151.199.267.361.35.489h.096v-3.623h1.131v9.815h-1.092v-1.131h-.135a7.485 7.485 0 0 1-.354.508 2.111 2.111 0 0 1-.657.541c-.284.157-.663.235-1.136.235Zm.154-1.016c.453 0 .837-.118 1.15-.354.313-.24.551-.571.714-.992.163-.425.244-.916.244-1.472 0-.549-.08-1.03-.239-1.442-.16-.415-.396-.738-.71-.968-.313-.233-.699-.35-1.159-.35-.48 0-.879.123-1.198.369a2.202 2.202 0 0 0-.714.992 3.932 3.932 0 0 0-.235 1.399c0 .524.08 1 .239 1.429.163.424.403.763.719 1.016.32.249.716.373 1.189.373Zm7.864-3.278c0 1.208-.158 2.32-.474 3.336a10.315 10.315 0 0 1-1.347 2.799h-.997c.23-.317.444-.707.642-1.17.202-.46.377-.965.527-1.514a13.82 13.82 0 0 0 .35-1.711c.086-.591.13-1.171.13-1.74 0-.76-.074-1.532-.221-2.314a13.337 13.337 0 0 0-.594-2.181c-.249-.671-.527-1.217-.834-1.639h.997a10.303 10.303 0 0 1 1.347 2.804c.316 1.012.474 2.123.474 3.33ZM28.899 183.457h-1.572l3.532-9.815h1.71l3.532 9.815H34.53l-2.775-8.032h-.077l-2.78 8.032Zm.263-3.843h5.1v1.246h-5.1v-1.246Zm8.242 3.843v-7.361h1.375v1.198h.091c.154-.406.404-.722.753-.949.348-.23.765-.345 1.25-.345.492 0 .905.115 1.237.345.335.23.583.547.743.949h.076a2.07 2.07 0 0 1 .839-.939c.383-.237.84-.355 1.37-.355.668 0 1.213.209 1.635.628.425.418.637 1.049.637 1.893v4.936h-1.433v-4.802c0-.498-.135-.859-.407-1.083a1.48 1.48 0 0 0-.973-.335c-.466 0-.829.143-1.088.431-.259.284-.388.65-.388 1.097v4.692h-1.428v-4.893c0-.399-.125-.72-.374-.963-.25-.243-.573-.364-.973-.364a1.39 1.39 0 0 0-.752.215c-.227.141-.41.337-.551.59a1.802 1.802 0 0 0-.206.877v4.538h-1.433Zm15.027.149c-.69 0-1.292-.159-1.806-.475a3.2 3.2 0 0 1-1.198-1.327c-.285-.569-.427-1.234-.427-1.994 0-.764.142-1.431.427-2.003a3.19 3.19 0 0 1 1.198-1.332c.514-.317 1.116-.475 1.806-.475s1.293.158 1.807.475c.514.316.914.76 1.198 1.332.285.572.427 1.239.427 2.003 0 .76-.142 1.425-.427 1.994a3.2 3.2 0 0 1-1.198 1.327c-.514.316-1.117.475-1.807.475Zm.005-1.203c.447 0 .818-.118 1.112-.355.294-.236.511-.551.652-.944.143-.393.215-.826.215-1.299 0-.469-.072-.901-.215-1.294a2.103 2.103 0 0 0-.652-.953c-.294-.24-.665-.36-1.112-.36-.45 0-.824.12-1.121.36a2.137 2.137 0 0 0-.657.953 3.82 3.82 0 0 0-.21 1.294c0 .473.07.906.21 1.299.144.393.363.708.657.944.297.237.67.355 1.121.355Zm9.69-1.999v-4.308h1.437v7.361h-1.41v-1.275h-.076a2.3 2.3 0 0 1-.814.983c-.371.258-.833.388-1.386.388-.472 0-.89-.104-1.255-.312a2.184 2.184 0 0 1-.853-.934c-.205-.412-.307-.922-.307-1.529v-4.682h1.433v4.51c0 .501.139.901.417 1.198.278.297.639.445 1.083.445.268 0 .535-.067.8-.201.269-.134.49-.337.666-.609.18-.271.267-.616.264-1.035Zm4.795-1.318v4.371h-1.433v-7.361h1.376v1.198h.09a2.1 2.1 0 0 1 .796-.939c.364-.237.823-.355 1.376-.355.501 0 .94.106 1.317.316.377.208.67.518.877.93.208.412.312.922.312 1.529v4.682h-1.433v-4.51c0-.533-.139-.95-.417-1.25-.278-.304-.66-.456-1.145-.456-.333 0-.628.072-.887.216a1.553 1.553 0 0 0-.609.633c-.147.274-.22.607-.22.996Zm10.069-2.99v1.15h-4.021v-1.15h4.02Zm-2.943-1.764h1.433v6.964c0 .278.042.487.125.627.083.138.19.232.32.283.135.048.28.072.437.072.115 0 .216-.008.302-.024l.201-.038.259 1.184a2.565 2.565 0 0 1-.355.095 2.732 2.732 0 0 1-.575.058 2.538 2.538 0 0 1-1.054-.201 1.812 1.812 0 0 1-.79-.652c-.202-.294-.303-.663-.303-1.107v-7.261ZM27.883 203.674v-7.361h4.442v.791h-3.551v2.487h3.321v.791h-3.321v2.502h3.609v.79h-4.5Zm6.782-3.321v3.321h-.848v-5.52h.82v.862h.071c.13-.28.326-.505.59-.676.263-.172.603-.258 1.02-.258.374 0 .701.076.982.23.28.151.498.381.654.69.155.306.233.695.233 1.164v3.508h-.848v-3.45c0-.434-.112-.772-.338-1.014-.225-.244-.534-.366-.927-.366-.27 0-.513.058-.726.176-.211.117-.377.288-.5.514-.122.225-.183.498-.183.819Zm7.473-2.199v.718h-2.86v-.718h2.86Zm-2.027-1.323h.848v5.262c0 .239.035.419.105.539a.543.543 0 0 0 .273.237c.112.039.231.058.356.058.093 0 .17-.005.23-.015l.143-.028.173.762a1.738 1.738 0 0 1-.24.064 1.77 1.77 0 0 1-.393.036c-.24 0-.474-.051-.704-.154a1.398 1.398 0 0 1-.568-.471c-.149-.211-.223-.477-.223-.798v-5.492Zm5.559 6.958c-.532 0-.991-.117-1.377-.352a2.364 2.364 0 0 1-.888-.992c-.206-.426-.309-.922-.309-1.488 0-.565.103-1.064.31-1.495.208-.434.498-.772.87-1.014.373-.244.809-.366 1.307-.366.288 0 .572.048.852.143.28.096.536.252.766.468.23.213.413.496.55.848.136.352.205.786.205 1.301v.359H43.7v-.733h3.393c0-.311-.062-.589-.187-.834a1.406 1.406 0 0 0-.525-.578 1.464 1.464 0 0 0-.798-.212c-.337 0-.63.084-.877.251a1.66 1.66 0 0 0-.564.647 1.9 1.9 0 0 0-.198.856v.488c0 .417.072.771.216 1.061.146.287.349.507.608.658.258.148.559.222.902.222.222 0 .424-.031.603-.093.183-.065.34-.161.471-.288.132-.129.234-.29.306-.481l.82.23a1.817 1.817 0 0 1-.436.733 2.134 2.134 0 0 1-.754.489 2.8 2.8 0 0 1-1.01.172Zm3.576-.115v-5.52h.82v.833h.057c.1-.273.283-.494.546-.665.264-.17.561-.255.892-.255a7.306 7.306 0 0 1 .445.015v.862a2.48 2.48 0 0 0-.197-.032 1.922 1.922 0 0 0-.32-.025c-.269 0-.508.056-.72.169a1.238 1.238 0 0 0-.676 1.125v3.493h-.847Zm9.014-5.52v.718h-2.862v-.718h2.861Zm-2.028-1.323h.849v5.262c0 .239.034.419.104.539a.543.543 0 0 0 .273.237c.113.039.231.058.356.058.093 0 .17-.005.23-.015l.144-.028.172.762a1.742 1.742 0 0 1-.24.064 1.771 1.771 0 0 1-.392.036c-.24 0-.475-.051-.705-.154a1.399 1.399 0 0 1-.568-.471c-.148-.211-.223-.477-.223-.798v-5.492Zm4.27 3.522v3.321h-.848v-7.361h.848v2.703h.072c.13-.285.324-.511.582-.679.262-.17.61-.255 1.043-.255.376 0 .705.075.988.226.283.149.502.377.658.687.158.306.237.697.237 1.171v3.508h-.848v-3.45c0-.439-.114-.778-.342-1.017-.225-.242-.538-.363-.938-.363-.278 0-.527.058-.747.176a1.28 1.28 0 0 0-.518.514c-.124.225-.187.498-.187.819Zm7.447 3.436c-.532 0-.991-.117-1.377-.352a2.364 2.364 0 0 1-.888-.992c-.206-.426-.309-.922-.309-1.488 0-.565.103-1.064.31-1.495.208-.434.498-.772.87-1.014.373-.244.809-.366 1.307-.366.288 0 .572.048.852.143.28.096.536.252.766.468.23.213.413.496.55.848.136.352.205.786.205 1.301v.359h-4.256v-.733h3.393c0-.311-.062-.589-.187-.834a1.406 1.406 0 0 0-.525-.578 1.464 1.464 0 0 0-.798-.212c-.337 0-.63.084-.877.251a1.66 1.66 0 0 0-.564.647 1.9 1.9 0 0 0-.198.856v.488c0 .417.072.771.216 1.061.146.287.349.507.608.658.258.148.559.222.902.222.222 0 .424-.031.603-.093.183-.065.34-.161.471-.288.132-.129.234-.29.306-.481l.82.23a1.818 1.818 0 0 1-.436.733 2.135 2.135 0 0 1-.754.489 2.8 2.8 0 0 1-1.01.172Zm8.047.015a2.24 2.24 0 0 1-.952-.198 1.632 1.632 0 0 1-.68-.579c-.167-.254-.251-.56-.251-.92 0-.316.062-.572.187-.769.124-.199.29-.355.5-.467a2.61 2.61 0 0 1 .69-.252c.253-.057.509-.103.765-.136.336-.044.607-.076.816-.097.21-.024.364-.064.46-.119.098-.055.147-.151.147-.288v-.028c0-.355-.097-.631-.29-.827-.193-.196-.484-.295-.874-.295-.405 0-.723.089-.953.266-.23.178-.392.367-.485.568l-.805-.287a1.93 1.93 0 0 1 .575-.784c.242-.189.506-.321.79-.395.288-.077.571-.115.849-.115.177 0 .381.021.611.064.233.041.456.126.672.256.218.129.4.324.543.585.144.262.216.611.216 1.05v3.637h-.849v-.747h-.043a1.48 1.48 0 0 1-.287.384 1.655 1.655 0 0 1-.536.349 2.06 2.06 0 0 1-.816.144Zm.13-.762c.335 0 .618-.066.848-.198a1.35 1.35 0 0 0 .704-1.168v-.776c-.036.043-.115.082-.237.118-.12.034-.259.064-.417.09a18.008 18.008 0 0 1-.812.108c-.22.029-.427.075-.618.14-.19.062-.343.157-.46.284-.115.125-.173.295-.173.51 0 .295.11.518.327.669.22.148.5.223.838.223Zm3.949.632v-5.52h.82v.862h.071c.115-.295.3-.523.557-.686.257-.166.565-.248.924-.248.364 0 .667.082.91.248.244.163.434.391.57.686h.058a1.61 1.61 0 0 1 .636-.679c.283-.17.622-.255 1.018-.255.493 0 .897.154 1.211.463.314.307.47.785.47 1.434v3.695h-.847v-3.695c0-.407-.112-.698-.335-.873a1.236 1.236 0 0 0-.787-.262c-.388 0-.689.117-.902.352-.213.232-.32.527-.32.884v3.594h-.863v-3.781c0-.314-.101-.567-.305-.758-.204-.194-.466-.291-.787-.291-.22 0-.427.058-.618.176-.19.117-.343.28-.46.489a1.441 1.441 0 0 0-.173.715v3.45h-.848Zm11.04.115c-.499 0-.936-.118-1.312-.355a2.426 2.426 0 0 1-.877-.996c-.209-.427-.313-.925-.313-1.495 0-.575.104-1.077.313-1.506.21-.429.503-.762.877-1 .376-.237.813-.355 1.312-.355.498 0 .934.118 1.308.355.376.238.668.571.877 1 .21.429.316.931.316 1.506 0 .57-.105 1.068-.316 1.495-.209.426-.5.758-.877.996-.374.237-.81.355-1.308.355Zm0-.762c.378 0 .69-.097.934-.291.244-.194.425-.449.543-.765.117-.317.176-.659.176-1.028s-.059-.713-.176-1.032a1.74 1.74 0 0 0-.543-.773c-.244-.196-.556-.294-.934-.294-.379 0-.69.098-.935.294a1.74 1.74 0 0 0-.543.773 2.965 2.965 0 0 0-.176 1.032c0 .369.059.711.176 1.028.118.316.299.571.543.765.244.194.556.291.935.291Zm7.275-1.61v-3.263h.849v5.52h-.849v-.934h-.057c-.13.28-.33.519-.604.715-.273.194-.618.291-1.035.291-.345 0-.652-.075-.92-.226a1.592 1.592 0 0 1-.633-.69c-.153-.309-.23-.699-.23-1.168v-3.508h.848v3.45c0 .403.113.724.338.963.228.24.518.36.87.36.21 0 .425-.054.643-.162.22-.108.405-.273.554-.496.15-.223.226-.507.226-.852Zm3.25-1.064v3.321h-.848v-5.52h.82v.862h.071c.13-.28.326-.505.59-.676.264-.172.604-.258 1.021-.258.374 0 .701.076.981.23.28.151.498.381.654.69.156.306.234.695.234 1.164v3.508h-.849v-3.45c0-.434-.112-.772-.337-1.014-.226-.244-.535-.366-.928-.366-.27 0-.512.058-.726.176a1.25 1.25 0 0 0-.499.514c-.123.225-.184.498-.184.819Zm7.474-2.199v.718h-2.861v-.718h2.861Zm-2.027-1.323h.848v5.262c0 .239.035.419.104.539a.544.544 0 0 0 .273.237c.113.039.231.058.356.058.093 0 .17-.005.23-.015l.144-.028.172.762a1.706 1.706 0 0 1-.24.064 1.78 1.78 0 0 1-.392.036c-.24 0-.475-.051-.705-.154a1.403 1.403 0 0 1-.568-.471c-.148-.211-.222-.477-.222-.798v-5.492Zm6.696 8.914a1.86 1.86 0 0 1-.619-.101l.216-.748c.206.053.388.072.546.058a.656.656 0 0 0 .421-.212c.125-.125.238-.327.341-.608l.159-.431-2.042-5.549h.92l1.524 4.399h.058l1.524-4.399h.92l-2.344 6.325a2.356 2.356 0 0 1-.392.708c-.155.19-.336.33-.542.421a1.676 1.676 0 0 1-.69.137Zm7.132-1.956c-.498 0-.935-.118-1.311-.355a2.42 2.42 0 0 1-.877-.996c-.209-.427-.313-.925-.313-1.495 0-.575.104-1.077.313-1.506.21-.429.503-.762.877-1 .376-.237.813-.355 1.311-.355.499 0 .935.118 1.309.355.376.238.668.571.877 1 .211.429.316.931.316 1.506 0 .57-.105 1.068-.316 1.495a2.398 2.398 0 0 1-.877.996c-.374.237-.81.355-1.309.355Zm0-.762c.379 0 .691-.097.935-.291.244-.194.425-.449.543-.765.117-.317.176-.659.176-1.028s-.059-.713-.176-1.032a1.749 1.749 0 0 0-.543-.773c-.244-.196-.556-.294-.935-.294-.378 0-.69.098-.934.294a1.749 1.749 0 0 0-.543.773 2.974 2.974 0 0 0-.176 1.032c0 .369.059.711.176 1.028.118.316.299.571.543.765.244.194.556.291.934.291Zm7.276-1.61v-3.263h.848v5.52h-.848v-.934h-.057c-.13.28-.331.519-.604.715-.273.194-.618.291-1.035.291-.345 0-.652-.075-.921-.226a1.59 1.59 0 0 1-.632-.69c-.153-.309-.23-.699-.23-1.168v-3.508h.848v3.45c0 .403.113.724.338.963.228.24.518.36.87.36.211 0 .425-.054.643-.162.221-.108.405-.273.554-.496.151-.223.226-.507.226-.852Zm6.499 2.257-1.682-5.52h.892l1.193 4.226h.058l1.178-4.226h.906l1.165 4.212h.057l1.194-4.212h.891l-1.682 5.52h-.834l-1.208-4.241h-.086l-1.208 4.241h-.834Zm6.973 0v-5.52h.849v5.52h-.849Zm.432-6.441a.601.601 0 0 1-.428-.169.54.54 0 0 1-.176-.406c0-.158.058-.293.176-.406a.606.606 0 0 1 .428-.169c.165 0 .306.057.424.169.12.113.179.248.179.406a.535.535 0 0 1-.179.406.59.59 0 0 1-.424.169Zm5.881 2.157-.762.216a1.437 1.437 0 0 0-.212-.371 1.043 1.043 0 0 0-.374-.302c-.158-.079-.361-.118-.608-.118-.337 0-.619.078-.844.234-.223.153-.334.348-.334.585 0 .211.076.378.23.5.153.122.393.224.718.305l.82.202c.494.12.861.303 1.103.55.242.244.363.559.363.945 0 .316-.091.599-.273.848-.18.249-.431.446-.755.59a2.765 2.765 0 0 1-1.128.215c-.563 0-1.029-.122-1.398-.366-.369-.245-.603-.602-.701-1.071l.805-.202c.077.297.222.52.435.669.215.148.497.223.844.223.396 0 .71-.084.942-.252.235-.17.352-.374.352-.611a.644.644 0 0 0-.201-.482c-.134-.131-.34-.23-.618-.294l-.92-.216c-.506-.12-.877-.305-1.114-.557-.235-.254-.353-.572-.353-.952 0-.312.088-.588.263-.827.177-.24.418-.428.722-.564a2.53 2.53 0 0 1 1.042-.205c.547 0 .976.119 1.287.359.314.24.537.556.669.949Zm2.225.963v3.321h-.848v-7.361h.848v2.703h.072c.13-.285.324-.511.583-.679.261-.17.608-.255 1.042-.255.376 0 .706.075.988.226.283.149.502.377.658.687.158.306.237.697.237 1.171v3.508h-.848v-3.45c0-.439-.114-.778-.341-1.017-.226-.242-.538-.363-.938-.363-.278 0-.528.058-.748.176a1.281 1.281 0 0 0-.518.514 1.675 1.675 0 0 0-.187.819Zm10.38-2.199v.718h-2.861v-.718h2.861Zm-2.027-1.323h.848v5.262c0 .239.035.419.104.539a.544.544 0 0 0 .273.237c.113.039.231.058.356.058.094 0 .17-.005.23-.015l.144-.028.172.762a1.706 1.706 0 0 1-.24.064 1.773 1.773 0 0 1-.392.036c-.24 0-.475-.051-.705-.154a1.403 1.403 0 0 1-.568-.471c-.148-.211-.222-.477-.222-.798v-5.492Zm5.486 6.958c-.498 0-.935-.118-1.312-.355a2.433 2.433 0 0 1-.877-.996c-.208-.427-.312-.925-.312-1.495 0-.575.104-1.077.312-1.506.211-.429.504-.762.877-1 .377-.237.814-.355 1.312-.355.499 0 .935.118 1.309.355.376.238.668.571.877 1 .21.429.316.931.316 1.506 0 .57-.106 1.068-.316 1.495a2.398 2.398 0 0 1-.877.996c-.374.237-.81.355-1.309.355Zm0-.762c.379 0 .69-.097.935-.291.244-.194.425-.449.542-.765.118-.317.177-.659.177-1.028s-.059-.713-.177-1.032a1.74 1.74 0 0 0-.542-.773c-.245-.196-.556-.294-.935-.294-.378 0-.69.098-.934.294a1.733 1.733 0 0 0-.543.773 2.974 2.974 0 0 0-.176 1.032c0 .369.059.711.176 1.028.117.316.298.571.543.765.244.194.556.291.934.291Zm8.268.777c-.35 0-.667-.066-.953-.198a1.633 1.633 0 0 1-.679-.579c-.168-.254-.251-.56-.251-.92 0-.316.062-.572.186-.769a1.32 1.32 0 0 1 .5-.467c.209-.113.439-.197.69-.252.254-.057.509-.103.766-.136.335-.044.607-.076.816-.097.21-.024.364-.064.46-.119.098-.055.147-.151.147-.288v-.028c0-.355-.097-.631-.291-.827-.192-.196-.483-.295-.873-.295-.405 0-.723.089-.953.266-.23.178-.392.367-.485.568l-.805-.287c.143-.336.335-.597.575-.784a2.15 2.15 0 0 1 .791-.395c.287-.077.57-.115.848-.115.177 0 .381.021.611.064.232.041.456.126.672.256.218.129.399.324.543.585.143.262.215.611.215 1.05v3.637h-.848v-.747h-.043c-.058.12-.153.248-.288.384a1.649 1.649 0 0 1-.535.349 2.062 2.062 0 0 1-.816.144Zm.129-.762c.336 0 .619-.066.849-.198a1.347 1.347 0 0 0 .704-1.168v-.776c-.036.043-.115.082-.237.118-.12.034-.259.064-.417.09a17.913 17.913 0 0 1-.812.108 3.24 3.24 0 0 0-.619.14 1.068 1.068 0 0 0-.46.284c-.115.125-.172.295-.172.51 0 .295.109.518.327.669.22.148.499.223.837.223Zm6.034.747c-.46 0-.866-.116-1.218-.348a2.354 2.354 0 0 1-.827-.992c-.199-.429-.298-.936-.298-1.521 0-.58.099-1.083.298-1.509.199-.427.476-.756.83-.989a2.197 2.197 0 0 1 1.23-.348c.359 0 .643.06.851.179.211.118.372.252.482.403.113.148.2.271.262.367h.072v-2.718h.849v7.361h-.82v-.848h-.101a5.187 5.187 0 0 1-.266.381 1.581 1.581 0 0 1-.492.406c-.213.118-.497.176-.852.176Zm.115-.762c.34 0 .628-.088.863-.266.235-.179.413-.427.535-.744.123-.318.184-.686.184-1.103 0-.412-.06-.773-.18-1.082a1.58 1.58 0 0 0-.532-.726c-.235-.175-.525-.262-.87-.262-.359 0-.659.092-.898.276a1.663 1.663 0 0 0-.536.744 2.972 2.972 0 0 0-.176 1.05c0 .393.06.75.18 1.071.122.319.302.573.539.762.239.187.537.28.891.28Zm6.172.762c-.461 0-.867-.116-1.219-.348a2.362 2.362 0 0 1-.827-.992c-.198-.429-.298-.936-.298-1.521 0-.58.1-1.083.298-1.509.199-.427.476-.756.831-.989a2.192 2.192 0 0 1 1.229-.348c.359 0 .643.06.852.179.211.118.371.252.481.403.113.148.2.271.263.367h.072v-2.718h.848v7.361h-.82v-.848h-.1a5.519 5.519 0 0 1-.266.381 1.575 1.575 0 0 1-.493.406c-.213.118-.497.176-.851.176Zm.115-.762c.34 0 .627-.088.862-.266.235-.179.414-.427.536-.744.122-.318.183-.686.183-1.103 0-.412-.06-.773-.18-1.082a1.573 1.573 0 0 0-.532-.726c-.234-.175-.524-.262-.869-.262-.36 0-.659.092-.899.276a1.67 1.67 0 0 0-.536.744 2.972 2.972 0 0 0-.176 1.05c0 .393.06.75.18 1.071.122.319.302.573.539.762.24.187.537.28.892.28Zm4.704.705a.623.623 0 0 1-.456-.191.623.623 0 0 1-.191-.456c0-.177.064-.33.191-.457a.622.622 0 0 1 .456-.19c.178 0 .33.063.457.19s.19.28.19.457a.675.675 0 0 1-.323.561.623.623 0 0 1-.324.086Zm4.729-6.628v-.791h5.52v.791h-2.314v6.57h-.892v-6.57h-2.314Zm7.629 3.249v3.321h-.848v-7.361h.848v2.703h.072c.13-.285.324-.511.583-.679.261-.17.608-.255 1.042-.255.376 0 .706.075.988.226.283.149.502.377.658.687.158.306.237.697.237 1.171v3.508h-.848v-3.45c0-.439-.114-.778-.341-1.017-.226-.242-.538-.363-.939-.363-.277 0-.527.058-.747.176a1.281 1.281 0 0 0-.518.514 1.675 1.675 0 0 0-.187.819Zm5.132 3.321v-5.52h.848v5.52h-.848Zm.431-6.441a.6.6 0 0 1-.427-.169.54.54 0 0 1-.176-.406c0-.158.058-.293.176-.406a.605.605 0 0 1 .427-.169c.166 0 .307.057.425.169a.54.54 0 0 1 .179.406c0 .158-.06.294-.179.406a.591.591 0 0 1-.425.169Zm5.882 2.157-.762.216a1.413 1.413 0 0 0-.213-.371 1.039 1.039 0 0 0-.373-.302c-.158-.079-.361-.118-.608-.118-.338 0-.619.078-.844.234-.223.153-.335.348-.335.585 0 .211.077.378.23.5.154.122.393.224.719.305l.82.202c.493.12.861.303 1.103.55.242.244.363.559.363.945 0 .316-.091.599-.273.848-.18.249-.431.446-.755.59a2.765 2.765 0 0 1-1.128.215c-.564 0-1.03-.122-1.399-.366-.369-.245-.602-.602-.7-1.071l.805-.202c.076.297.221.52.435.669.215.148.497.223.844.223.396 0 .709-.084.942-.252.235-.17.352-.374.352-.611a.644.644 0 0 0-.201-.482c-.134-.131-.34-.23-.618-.294l-.92-.216c-.506-.12-.877-.305-1.115-.557-.235-.254-.352-.572-.352-.952 0-.312.088-.588.262-.827.178-.24.419-.428.723-.564a2.53 2.53 0 0 1 1.042-.205c.547 0 .975.119 1.287.359.314.24.537.556.669.949Zm5.848 4.414c-.35 0-.667-.066-.952-.198a1.636 1.636 0 0 1-.68-.579c-.167-.254-.251-.56-.251-.92 0-.316.062-.572.187-.769a1.31 1.31 0 0 1 .499-.467c.209-.113.439-.197.69-.252.254-.057.51-.103.766-.136.336-.044.607-.076.816-.097.211-.024.364-.064.46-.119.098-.055.147-.151.147-.288v-.028c0-.355-.097-.631-.291-.827-.191-.196-.483-.295-.873-.295-.405 0-.723.089-.953.266-.23.178-.391.367-.485.568l-.805-.287c.144-.336.335-.597.575-.784.242-.189.506-.321.791-.395.287-.077.57-.115.848-.115.177 0 .381.021.611.064.233.041.457.126.672.256.218.129.399.324.543.585.144.262.216.611.216 1.05v3.637h-.849v-.747h-.043c-.057.12-.153.248-.287.384a1.654 1.654 0 0 1-.536.349 2.062 2.062 0 0 1-.816.144Zm.13-.762c.335 0 .618-.066.848-.198.232-.132.407-.302.525-.51a1.31 1.31 0 0 0 .179-.658v-.776c-.036.043-.115.082-.237.118-.12.034-.259.064-.417.09a18.505 18.505 0 0 1-.812.108 3.212 3.212 0 0 0-.618.14c-.19.062-.343.157-.46.284-.115.125-.173.295-.173.51 0 .295.109.518.327.669.221.148.5.223.838.223Zm3.949.632v-5.52h.819v.862h.072c.115-.295.301-.523.557-.686.257-.166.565-.248.924-.248.364 0 .667.082.909.248.245.163.435.391.572.686h.057c.142-.285.354-.511.637-.679.282-.17.621-.255 1.017-.255.493 0 .897.154 1.211.463.314.307.471.785.471 1.434v3.695h-.848v-3.695c0-.407-.112-.698-.335-.873a1.234 1.234 0 0 0-.787-.262c-.388 0-.689.117-.902.352-.213.232-.32.527-.32.884v3.594h-.862v-3.781c0-.314-.102-.567-.306-.758-.204-.194-.466-.291-.787-.291-.221 0-.427.058-.618.176-.19.117-.343.28-.46.489a1.442 1.442 0 0 0-.173.715v3.45h-.848Zm11.04.115c-.499 0-.936-.118-1.312-.355a2.426 2.426 0 0 1-.877-.996c-.209-.427-.313-.925-.313-1.495 0-.575.104-1.077.313-1.506.211-.429.503-.762.877-1 .376-.237.813-.355 1.312-.355.498 0 .934.118 1.308.355.376.238.668.571.877 1 .211.429.316.931.316 1.506 0 .57-.105 1.068-.316 1.495a2.398 2.398 0 0 1-.877.996c-.374.237-.81.355-1.308.355Zm0-.762c.378 0 .69-.097.934-.291.245-.194.425-.449.543-.765.117-.317.176-.659.176-1.028s-.059-.713-.176-1.032a1.74 1.74 0 0 0-.543-.773c-.244-.196-.556-.294-.934-.294-.379 0-.69.098-.935.294a1.749 1.749 0 0 0-.543.773 2.974 2.974 0 0 0-.176 1.032c0 .369.059.711.176 1.028.118.316.299.571.543.765.245.194.556.291.935.291Zm7.275-1.61v-3.263h.849v5.52h-.849v-.934h-.057c-.13.28-.331.519-.604.715-.273.194-.618.291-1.035.291-.345 0-.652-.075-.92-.226a1.587 1.587 0 0 1-.633-.69c-.153-.309-.23-.699-.23-1.168v-3.508h.848v3.45c0 .403.113.724.338.963.228.24.518.36.87.36.211 0 .425-.054.643-.162.221-.108.405-.273.554-.496.151-.223.226-.507.226-.852Zm3.25-1.064v3.321h-.848v-5.52h.82v.862h.072c.129-.28.325-.505.589-.676.264-.172.604-.258 1.021-.258.374 0 .701.076.981.23.28.151.498.381.654.69.156.306.234.695.234 1.164v3.508h-.848v-3.45c0-.434-.113-.772-.338-1.014-.226-.244-.535-.366-.928-.366-.27 0-.512.058-.726.176a1.25 1.25 0 0 0-.499.514c-.123.225-.184.498-.184.819Zm7.474-2.199v.718h-2.861v-.718h2.861Zm-2.027-1.323h.848v5.262c0 .239.035.419.104.539a.544.544 0 0 0 .273.237c.113.039.231.058.356.058.094 0 .17-.005.23-.015l.144-.028.172.762a1.706 1.706 0 0 1-.24.064 1.773 1.773 0 0 1-.392.036c-.24 0-.475-.051-.705-.154a1.403 1.403 0 0 1-.568-.471c-.148-.211-.222-.477-.222-.798v-5.492Zm7.4 6.843-1.682-5.52h.891l1.194 4.226h.057l1.179-4.226h.906l1.164 4.212h.058l1.193-4.212h.892l-1.682 5.52h-.834l-1.208-4.241h-.086l-1.208 4.241h-.834Zm6.973 0v-5.52h.848v5.52h-.848Zm.431-6.441a.6.6 0 0 1-.427-.169.54.54 0 0 1-.177-.406c0-.158.059-.293.177-.406a.603.603 0 0 1 .427-.169c.166 0 .307.057.424.169.12.113.18.248.18.406 0 .158-.06.294-.18.406a.587.587 0 0 1-.424.169Zm2.819-.92v7.361h-.848v-7.361h.848Zm2.402 0v7.361h-.848v-7.361h.848Zm4.4 7.361v-5.52h.82v.833h.057c.101-.273.283-.494.547-.665.263-.17.56-.255.891-.255a7.366 7.366 0 0 1 .446.015v.862a2.53 2.53 0 0 0-.198-.032 1.923 1.923 0 0 0-.32-.025 1.5 1.5 0 0 0-.719.169 1.236 1.236 0 0 0-.675 1.125v3.493h-.849Zm5.913.115c-.532 0-.991-.117-1.377-.352a2.37 2.37 0 0 1-.888-.992c-.206-.426-.309-.922-.309-1.488 0-.565.103-1.064.309-1.495.209-.434.499-.772.87-1.014.374-.244.81-.366 1.309-.366.287 0 .571.048.851.143.281.096.536.252.766.468.23.213.413.496.55.848.136.352.205.786.205 1.301v.359h-4.256v-.733h3.393c0-.311-.062-.589-.187-.834a1.404 1.404 0 0 0-.525-.578 1.462 1.462 0 0 0-.797-.212c-.338 0-.631.084-.877.251a1.658 1.658 0 0 0-.565.647 1.898 1.898 0 0 0-.197.856v.488c0 .417.071.771.215 1.061.146.287.349.507.608.658.258.148.559.222.902.222.223 0 .424-.031.604-.093.182-.065.339-.161.47-.288.132-.129.234-.29.306-.481l.819.23a1.82 1.82 0 0 1-.434.733 2.143 2.143 0 0 1-.755.489 2.8 2.8 0 0 1-1.01.172Zm4.424-3.436v3.321h-.848v-5.52h.82v.862h.071c.13-.28.326-.505.59-.676.264-.172.604-.258 1.021-.258.374 0 .701.076.981.23.28.151.498.381.654.69.156.306.234.695.234 1.164v3.508h-.849v-3.45c0-.434-.112-.772-.337-1.014-.226-.244-.535-.366-.928-.366-.27 0-.512.058-.726.176a1.25 1.25 0 0 0-.499.514c-.123.225-.184.498-.184.819Zm7.387 3.436c-.532 0-.99-.117-1.376-.352a2.364 2.364 0 0 1-.888-.992c-.206-.426-.309-.922-.309-1.488 0-.565.103-1.064.309-1.495.209-.434.498-.772.87-1.014.374-.244.81-.366 1.308-.366.288 0 .572.048.852.143.28.096.536.252.766.468.23.213.413.496.55.848.136.352.204.786.204 1.301v.359h-4.255v-.733h3.393c0-.311-.063-.589-.187-.834a1.404 1.404 0 0 0-.525-.578 1.463 1.463 0 0 0-.798-.212c-.338 0-.63.084-.877.251a1.664 1.664 0 0 0-.564.647 1.898 1.898 0 0 0-.198.856v.488c0 .417.072.771.216 1.061.146.287.348.507.607.658.259.148.56.222.902.222.223 0 .425-.031.604-.093a1.3 1.3 0 0 0 .471-.288c.132-.129.234-.29.306-.481l.819.23a1.81 1.81 0 0 1-.435.733 2.125 2.125 0 0 1-.755.489 2.797 2.797 0 0 1-1.01.172Zm4.828-.115-1.683-5.52h.892l1.193 4.226h.058l1.179-4.226h.905l1.165 4.212h.057l1.194-4.212h.891l-1.682 5.52h-.834l-1.208-4.241h-.086l-1.208 4.241h-.833Zm-267.904 14.13a2.24 2.24 0 0 1-.952-.198 1.631 1.631 0 0 1-.68-.579c-.167-.254-.251-.56-.251-.92 0-.316.062-.572.187-.769.124-.199.29-.355.5-.467a2.61 2.61 0 0 1 .69-.252c.253-.057.509-.103.765-.136.335-.044.607-.076.816-.097.21-.024.364-.064.46-.119.098-.055.147-.151.147-.288v-.028c0-.355-.097-.631-.29-.827-.192-.196-.484-.295-.874-.295-.405 0-.723.089-.953.266-.23.178-.392.367-.485.568l-.805-.287c.144-.336.335-.597.575-.784.242-.189.506-.321.79-.395a3.27 3.27 0 0 1 .849-.115c.177 0 .381.021.611.064.232.041.456.126.672.256.218.129.4.324.543.585.144.262.215.611.215 1.05v3.637h-.848v-.747h-.043a1.48 1.48 0 0 1-.287.384 1.656 1.656 0 0 1-.536.349 2.06 2.06 0 0 1-.816.144Zm.13-.762c.335 0 .618-.066.848-.198a1.35 1.35 0 0 0 .704-1.168v-.776c-.036.043-.115.082-.237.118-.12.034-.259.064-.417.09a18.001 18.001 0 0 1-.812.108c-.22.029-.427.075-.618.14-.19.062-.343.157-.46.284-.116.125-.173.295-.173.51 0 .295.11.518.327.669.22.148.5.223.838.223Zm7.428-1.625v-3.263h.848v5.52h-.848v-.934h-.058c-.129.28-.33.519-.603.715-.273.194-.619.291-1.035.291-.346 0-.652-.075-.92-.226a1.591 1.591 0 0 1-.633-.69c-.154-.309-.23-.699-.23-1.168v-3.508h.848v3.45c0 .403.113.724.338.963.228.24.517.36.87.36.21 0 .425-.054.643-.162.22-.108.405-.273.554-.496.15-.223.226-.507.226-.852Zm4.803-3.263v.718h-2.861v-.718h2.86Zm-2.027-1.323h.848v5.262c0 .239.035.419.104.539a.543.543 0 0 0 .273.237c.113.039.231.058.356.058.094 0 .17-.005.23-.015l.144-.028.172.762a1.74 1.74 0 0 1-.24.064 1.77 1.77 0 0 1-.392.036c-.24 0-.475-.051-.705-.154a1.399 1.399 0 0 1-.567-.471c-.15-.211-.223-.477-.223-.798v-5.492Zm5.486 6.958c-.498 0-.935-.118-1.312-.355a2.427 2.427 0 0 1-.877-.996c-.208-.427-.312-.925-.312-1.495 0-.575.104-1.077.312-1.506a2.42 2.42 0 0 1 .877-1c.377-.237.814-.355 1.312-.355.499 0 .935.118 1.309.355.376.238.668.571.877 1 .21.429.316.931.316 1.506 0 .57-.105 1.068-.316 1.495-.209.426-.501.758-.877.996-.374.237-.81.355-1.309.355Zm0-.762c.379 0 .69-.097.935-.291.244-.194.425-.449.543-.765.117-.317.176-.659.176-1.028s-.059-.713-.176-1.032a1.74 1.74 0 0 0-.543-.773c-.245-.196-.556-.294-.935-.294-.378 0-.69.098-.934.294a1.74 1.74 0 0 0-.543.773 2.963 2.963 0 0 0-.176 1.032c0 .369.059.711.176 1.028.117.316.298.571.543.765.244.194.556.291.934.291Zm3.797.647v-5.52h.82v.862h.071c.115-.295.3-.523.557-.686.257-.166.565-.248.924-.248.364 0 .667.082.91.248.244.163.434.391.57.686h.058a1.61 1.61 0 0 1 .637-.679c.282-.17.621-.255 1.017-.255.493 0 .897.154 1.21.463.315.307.472.785.472 1.434v3.695h-.849v-3.695c0-.407-.11-.698-.334-.873a1.236 1.236 0 0 0-.787-.262c-.388 0-.689.117-.902.352-.213.232-.32.527-.32.884v3.594H52.2v-3.781c0-.314-.101-.567-.305-.758-.204-.194-.466-.291-.787-.291-.22 0-.427.058-.618.176-.19.117-.343.28-.46.489a1.441 1.441 0 0 0-.173.715v3.45h-.848Zm10.421.13a2.24 2.24 0 0 1-.952-.198 1.631 1.631 0 0 1-.68-.579c-.167-.254-.251-.56-.251-.92 0-.316.062-.572.187-.769.124-.199.29-.355.5-.467a2.61 2.61 0 0 1 .69-.252c.254-.057.509-.103.765-.136.336-.044.608-.076.816-.097.21-.024.364-.064.46-.119.098-.055.147-.151.147-.288v-.028c0-.355-.097-.631-.29-.827-.192-.196-.484-.295-.874-.295-.405 0-.723.089-.953.266-.23.178-.391.367-.485.568l-.805-.287c.144-.336.336-.597.575-.784.242-.189.506-.321.79-.395.288-.077.571-.115.85-.115.176 0 .38.021.61.064.233.041.457.126.672.256.218.129.4.324.543.585.144.262.216.611.216 1.05v3.637h-.849v-.747h-.043c-.057.12-.153.248-.287.384a1.656 1.656 0 0 1-.536.349 2.06 2.06 0 0 1-.816.144Zm.13-.762c.335 0 .618-.066.848-.198a1.35 1.35 0 0 0 .704-1.168v-.776c-.035.043-.115.082-.237.118-.12.034-.259.064-.417.09a18.001 18.001 0 0 1-.812.108c-.22.029-.427.075-.618.14-.19.062-.343.157-.46.284-.115.125-.173.295-.173.51 0 .295.11.518.327.669.22.148.5.223.838.223Zm6.35-4.888v.718h-2.861v-.718h2.86Zm-2.027-1.323h.848v5.262c0 .239.035.419.104.539a.543.543 0 0 0 .273.237c.113.039.231.058.356.058.094 0 .17-.005.23-.015l.144-.028.172.762a1.742 1.742 0 0 1-.24.064 1.771 1.771 0 0 1-.392.036c-.24 0-.475-.051-.705-.154a1.399 1.399 0 0 1-.567-.471c-.15-.211-.223-.477-.223-.798v-5.492Zm3.303 6.843v-5.52h.848v5.52h-.848Zm.431-6.441a.602.602 0 0 1-.428-.169.542.542 0 0 1-.176-.406c0-.158.059-.293.176-.406a.606.606 0 0 1 .428-.169c.165 0 .307.057.424.169.12.113.18.248.18.406 0 .158-.06.294-.18.406a.59.59 0 0 1-.424.169Zm4.213 6.556c-.517 0-.963-.122-1.337-.366a2.392 2.392 0 0 1-.862-1.01c-.201-.429-.302-.919-.302-1.47 0-.561.103-1.056.309-1.485.208-.431.498-.768.87-1.01.374-.244.81-.366 1.308-.366.388 0 .738.072 1.05.215.311.144.566.345.765.604.2.259.323.561.37.906h-.848a1.314 1.314 0 0 0-.431-.669c-.22-.196-.518-.294-.891-.294-.331 0-.621.086-.87.258a1.69 1.69 0 0 0-.579.723c-.137.309-.205.672-.205 1.089 0 .426.067.798.201 1.114.137.316.329.562.576.737.249.175.541.262.877.262.22 0 .42-.038.6-.115.18-.076.332-.187.456-.33.125-.144.213-.317.266-.518h.848a1.97 1.97 0 0 1-.355.881 1.992 1.992 0 0 1-.744.618 2.397 2.397 0 0 1-1.072.226Zm5.036.015a2.24 2.24 0 0 1-.953-.198 1.632 1.632 0 0 1-.679-.579c-.167-.254-.251-.56-.251-.92 0-.316.062-.572.186-.769.125-.199.292-.355.5-.467a2.61 2.61 0 0 1 .69-.252c.254-.057.51-.103.766-.136.335-.044.607-.076.816-.097.21-.024.364-.064.46-.119.098-.055.147-.151.147-.288v-.028c0-.355-.097-.631-.291-.827-.192-.196-.483-.295-.873-.295-.405 0-.723.089-.953.266-.23.178-.392.367-.485.568l-.805-.287c.144-.336.335-.597.575-.784.242-.189.506-.321.79-.395.288-.077.57-.115.849-.115.177 0 .38.021.61.064.233.041.457.126.673.256.218.129.399.324.543.585.144.262.215.611.215 1.05v3.637h-.848v-.747h-.043c-.057.12-.153.248-.287.384a1.655 1.655 0 0 1-.536.349 2.06 2.06 0 0 1-.816.144Zm.13-.762c.335 0 .618-.066.848-.198a1.35 1.35 0 0 0 .704-1.168v-.776c-.036.043-.115.082-.237.118-.12.034-.259.064-.417.09a18.008 18.008 0 0 1-.812.108c-.22.029-.427.075-.618.14-.19.062-.343.157-.46.284-.116.125-.173.295-.173.51 0 .295.109.518.327.669.22.148.5.223.837.223Zm4.797-6.729v7.361h-.848v-7.361h.848Zm2.402 0v7.361h-.848v-7.361h.848Zm2.1 9.432a1.855 1.855 0 0 1-.619-.101l.216-.748c.206.053.388.072.546.058a.658.658 0 0 0 .421-.212c.125-.125.238-.327.341-.608l.159-.431-2.042-5.549h.92l1.524 4.399h.058l1.524-4.399h.92l-2.344 6.325a2.373 2.373 0 0 1-.391.708c-.156.19-.337.33-.543.421a1.675 1.675 0 0 1-.69.137Zm10.249-1.956c-.532 0-.991-.117-1.377-.352a2.364 2.364 0 0 1-.888-.992c-.206-.426-.309-.922-.309-1.488 0-.565.103-1.064.31-1.495.208-.434.498-.772.87-1.014.373-.244.809-.366 1.307-.366.288 0 .572.048.852.143.28.096.536.252.766.468.23.213.413.496.55.848.136.352.205.786.205 1.301v.359h-4.256v-.733h3.393c0-.311-.062-.589-.187-.834a1.406 1.406 0 0 0-.525-.578 1.464 1.464 0 0 0-.798-.212c-.337 0-.63.084-.877.251a1.66 1.66 0 0 0-.564.647 1.9 1.9 0 0 0-.198.856v.488c0 .417.072.771.216 1.061.146.287.349.507.607.658.26.148.56.222.903.222.222 0 .424-.031.603-.093.183-.065.34-.161.471-.288.132-.129.234-.29.306-.481l.82.23a1.818 1.818 0 0 1-.436.733 2.135 2.135 0 0 1-.754.489 2.8 2.8 0 0 1-1.01.172Zm7.922-5.635-2.041 5.52h-.863l-2.041-5.52h.92l1.524 4.399h.057l1.524-4.399h.92Zm3.237 5.635c-.532 0-.991-.117-1.377-.352a2.361 2.361 0 0 1-.887-.992c-.206-.426-.31-.922-.31-1.488 0-.565.104-1.064.31-1.495.208-.434.498-.772.869-1.014.374-.244.81-.366 1.309-.366.287 0 .571.048.852.143.28.096.535.252.765.468.23.213.413.496.55.848.137.352.205.786.205 1.301v.359h-4.256v-.733h3.393c0-.311-.062-.589-.187-.834a1.408 1.408 0 0 0-.524-.578 1.468 1.468 0 0 0-.798-.212c-.338 0-.631.084-.877.251a1.658 1.658 0 0 0-.565.647 1.91 1.91 0 0 0-.197.856v.488c0 .417.072.771.215 1.061.147.287.349.507.608.658.259.148.559.222.902.222.223 0 .424-.031.604-.093a1.3 1.3 0 0 0 .471-.288c.131-.129.233-.29.305-.481l.82.23a1.833 1.833 0 0 1-.435.733 2.143 2.143 0 0 1-.755.489 2.8 2.8 0 0 1-1.01.172Zm3.576-.115v-5.52h.82v.833h.057c.101-.273.283-.494.547-.665.263-.17.56-.255.891-.255a7.366 7.366 0 0 1 .446.015v.862a2.53 2.53 0 0 0-.198-.032 1.923 1.923 0 0 0-.32-.025 1.5 1.5 0 0 0-.719.169 1.236 1.236 0 0 0-.676 1.125v3.493h-.848Zm4.48 2.071a1.857 1.857 0 0 1-.618-.101l.216-.748c.206.053.388.072.546.058a.659.659 0 0 0 .421-.212c.124-.125.238-.327.341-.608l.158-.431-2.041-5.549h.92l1.524 4.399h.057l1.524-4.399h.921l-2.344 6.325a2.356 2.356 0 0 1-.392.708c-.155.19-.336.33-.542.421a1.678 1.678 0 0 1-.691.137Zm8.179-4.659v-.575l4.63-2.357v.92l-3.552 1.711.029-.058v.144l-.029-.058 3.552 1.711v.92l-4.63-2.358Zm8.512 2.703c-.46 0-.866-.116-1.218-.348a2.362 2.362 0 0 1-.827-.992c-.199-.429-.298-.936-.298-1.521 0-.58.099-1.083.298-1.509.199-.427.476-.756.83-.989a2.197 2.197 0 0 1 1.23-.348c.359 0 .643.06.852.179.21.118.371.252.481.403.113.148.2.271.263.367h.071v-2.718h.849v7.361h-.82v-.848h-.1a5.519 5.519 0 0 1-.266.381c-.115.151-.28.286-.493.406-.213.118-.497.176-.852.176Zm.115-.762c.341 0 .628-.088.863-.266.235-.179.413-.427.535-.744.123-.318.184-.686.184-1.103 0-.412-.06-.773-.18-1.082a1.58 1.58 0 0 0-.532-.726c-.235-.175-.525-.262-.87-.262-.359 0-.659.092-.898.276a1.67 1.67 0 0 0-.536.744 2.972 2.972 0 0 0-.176 1.05c0 .393.06.75.18 1.071.122.319.302.573.539.762.24.187.537.28.891.28Zm5.712.777c-.35 0-.668-.066-.953-.198a1.633 1.633 0 0 1-.679-.579c-.168-.254-.252-.56-.252-.92 0-.316.063-.572.187-.769.125-.199.291-.355.5-.467.208-.113.438-.197.69-.252.254-.057.509-.103.765-.136.336-.044.608-.076.816-.097.211-.024.365-.064.46-.119.099-.055.148-.151.148-.288v-.028c0-.355-.097-.631-.291-.827-.192-.196-.483-.295-.874-.295-.405 0-.722.089-.952.266-.23.178-.392.367-.486.568l-.805-.287a1.94 1.94 0 0 1 .575-.784c.242-.189.506-.321.791-.395a3.27 3.27 0 0 1 .848-.115c.178 0 .381.021.611.064.233.041.457.126.673.256.218.129.399.324.542.585.144.262.216.611.216 1.05v3.637h-.848v-.747h-.043c-.058.12-.154.248-.288.384a1.66 1.66 0 0 1-.535.349 2.062 2.062 0 0 1-.816.144Zm.129-.762c.335 0 .618-.066.848-.198a1.344 1.344 0 0 0 .705-1.168v-.776c-.036.043-.115.082-.238.118a3.746 3.746 0 0 1-.416.09 17.913 17.913 0 0 1-.813.108c-.22.029-.426.075-.618.14a1.062 1.062 0 0 0-.46.284c-.115.125-.173.295-.173.51 0 .295.109.518.328.669.22.148.499.223.837.223Zm6.35-4.888v.718h-2.861v-.718h2.861Zm-2.027-1.323h.848v5.262c0 .239.035.419.104.539a.542.542 0 0 0 .274.237c.112.039.231.058.355.058.094 0 .171-.005.23-.015l.144-.028.173.762a1.766 1.766 0 0 1-.241.064 1.773 1.773 0 0 1-.392.036c-.239 0-.474-.051-.704-.154a1.397 1.397 0 0 1-.568-.471c-.149-.211-.223-.477-.223-.798v-5.492Zm5.559 6.958c-.532 0-.991-.117-1.377-.352a2.37 2.37 0 0 1-.888-.992c-.206-.426-.309-.922-.309-1.488 0-.565.103-1.064.309-1.495.209-.434.499-.772.87-1.014.374-.244.81-.366 1.308-.366.288 0 .572.048.852.143.28.096.536.252.766.468.23.213.413.496.55.848.136.352.204.786.204 1.301v.359h-4.255v-.733h3.393c0-.311-.062-.589-.187-.834a1.404 1.404 0 0 0-.525-.578 1.463 1.463 0 0 0-.798-.212c-.338 0-.63.084-.877.251a1.664 1.664 0 0 0-.564.647 1.898 1.898 0 0 0-.198.856v.488c0 .417.072.771.216 1.061.146.287.349.507.607.658.259.148.56.222.903.222.222 0 .424-.031.603-.093a1.3 1.3 0 0 0 .471-.288c.132-.129.234-.29.306-.481l.819.23a1.81 1.81 0 0 1-.435.733 2.125 2.125 0 0 1-.755.489 2.795 2.795 0 0 1-1.009.172Zm8.45-2.703-4.63 2.358v-.92l3.551-1.711-.028.058v-.144l.028.058-3.551-1.711v-.92l4.63 2.357v.575Zm2.416 2.646a.625.625 0 0 1-.457-.191.622.622 0 0 1-.19-.456c0-.177.063-.33.19-.457a.624.624 0 0 1 .457-.19c.177 0 .329.063.456.19s.191.28.191.457a.667.667 0 0 1-.324.561.62.62 0 0 1-.323.086Z"/><g clip-path="url(#b)"><mask id="c" width="21" height="21" x="28" y="238" maskUnits="userSpaceOnUse" style="mask-type:alpha"><path fill="#D9D9D9" d="M28.243 238.387h20.243v20.243H28.243z"/></mask><g mask="url(#c)"><path fill="#475569" d="M37.543 256.099v-1.813a4.293 4.293 0 0 1-1.93-.97c-.54-.478-.938-1.153-1.191-2.025l1.56-.632c.211.675.524 1.188.939 1.539.414.352.959.527 1.634.527.576 0 1.065-.13 1.466-.389.4-.261.6-.665.6-1.213 0-.492-.154-.882-.464-1.171-.309-.288-1.026-.615-2.15-.98-1.21-.38-2.039-.833-2.489-1.36-.45-.527-.674-1.17-.674-1.93 0-.913.295-1.623.885-2.129.59-.506 1.195-.794 1.814-.865v-1.771h1.687v1.771c.702.113 1.282.369 1.74.769.456.401.79.89 1 1.466l-1.56.675c-.168-.45-.407-.787-.716-1.012-.31-.225-.732-.337-1.266-.337-.618 0-1.09.137-1.412.411a1.287 1.287 0 0 0-.485 1.022c0 .464.21.83.632 1.097.422.267 1.153.548 2.193.843.97.282 1.705.728 2.204 1.339.499.612.748 1.318.748 2.12 0 .998-.295 1.757-.886 2.277-.59.52-1.32.843-2.192.97v1.771h-1.687Z"/></g><path fill="#475569" d="M61.327 254.667c-.666 0-1.267-.132-1.8-.397a3.345 3.345 0 0 1-1.285-1.091 2.973 2.973 0 0 1-.528-1.58h1.363c.053.527.292.962.716 1.307.428.341.94.511 1.534.511.477 0 .902-.111 1.273-.335.375-.223.669-.53.88-.92.217-.394.325-.839.325-1.336 0-.507-.112-.96-.336-1.357a2.457 2.457 0 0 0-.909-.949 2.572 2.572 0 0 0-1.324-.353 3.683 3.683 0 0 0-1.096.165c-.375.11-.684.252-.926.426l-1.319-.159.705-5.727h6.045v1.25h-4.863l-.41 3.432h.069c.238-.19.538-.347.898-.472s.734-.187 1.125-.187c.712 0 1.346.17 1.903.511.56.337 1 .799 1.318 1.386.322.588.483 1.258.483 2.012 0 .742-.167 1.405-.5 1.988a3.65 3.65 0 0 1-1.364 1.375c-.579.334-1.238.5-1.977.5Zm6.66-.068c-.28 0-.52-.1-.72-.301a.984.984 0 0 1-.302-.722c0-.28.1-.52.301-.721a.983.983 0 0 1 .722-.301c.28 0 .52.1.721.301.201.201.301.441.301.721a.964.964 0 0 1-.142.512c-.09.155-.214.28-.369.375a.974.974 0 0 1-.511.136Zm6.796.068c-.856 0-1.585-.233-2.187-.698-.603-.47-1.063-1.15-1.381-2.04-.318-.894-.477-1.974-.477-3.239 0-1.257.159-2.331.477-3.221.322-.894.784-1.576 1.386-2.046.606-.473 1.334-.71 2.182-.71.849 0 1.574.237 2.176.71.606.47 1.069 1.152 1.387 2.046.322.89.483 1.964.483 3.221 0 1.265-.16 2.345-.478 3.239-.318.89-.778 1.57-1.38 2.04-.603.465-1.332.698-2.188.698Zm0-1.25c.849 0 1.508-.409 1.977-1.227.47-.818.705-1.985.705-3.5 0-1.007-.108-1.865-.324-2.574-.212-.708-.519-1.248-.92-1.619a2.033 2.033 0 0 0-1.438-.557c-.84 0-1.498.415-1.971 1.244-.474.826-.71 1.995-.71 3.506 0 1.008.105 1.864.318 2.568.212.705.517 1.241.914 1.608.402.368.885.551 1.45.551Zm10 1.25c-.856 0-1.585-.233-2.187-.698-.603-.47-1.063-1.15-1.381-2.04-.318-.894-.477-1.974-.477-3.239 0-1.257.159-2.331.477-3.221.322-.894.784-1.576 1.386-2.046.606-.473 1.334-.71 2.182-.71.849 0 1.574.237 2.176.71.606.47 1.069 1.152 1.387 2.046.322.89.483 1.964.483 3.221 0 1.265-.16 2.345-.478 3.239-.318.89-.778 1.57-1.38 2.04-.603.465-1.332.698-2.188.698Zm0-1.25c.849 0 1.508-.409 1.977-1.227.47-.818.705-1.985.705-3.5 0-1.007-.108-1.865-.324-2.574-.212-.708-.519-1.248-.92-1.619a2.033 2.033 0 0 0-1.438-.557c-.84 0-1.498.415-1.971 1.244-.474.826-.71 1.995-.71 3.506 0 1.008.105 1.864.318 2.568.212.705.517 1.241.914 1.608.402.368.885.551 1.45.551Z"/></g><rect width="339.068" height="48.92" x="19.4" y="224.048" stroke="#CBD5E1" stroke-width="1.687" rx="10.965"/><rect width="337.381" height="47.233" x="20.243" y="286.464" fill="#56B7B5" rx="10.121"/><path fill="#fff" d="M159.32 314.58h-1.246l3.604-9.814h1.227l3.604 9.814h-1.246l-2.933-8.262h-.077l-2.933 8.262Zm.46-3.834h5.023v1.055h-5.023v-1.055Zm10.884 3.988c-.614 0-1.155-.155-1.625-.465-.47-.313-.837-.754-1.102-1.323-.265-.572-.398-1.247-.398-2.027 0-.773.133-1.444.398-2.013s.634-1.008 1.107-1.318c.473-.31 1.019-.465 1.639-.465.479 0 .858.08 1.136.24.281.157.495.336.642.537.15.198.267.361.35.489h.095v-3.623h1.131v9.814h-1.092v-1.131h-.134a7.076 7.076 0 0 1-.355.508 2.09 2.09 0 0 1-.657.542c-.284.156-.662.235-1.135.235Zm.153-1.016c.454 0 .837-.119 1.15-.355.313-.24.551-.57.714-.992.163-.425.245-.915.245-1.471 0-.55-.08-1.031-.24-1.443-.16-.415-.396-.738-.709-.968-.313-.233-.7-.35-1.16-.35-.479 0-.879.123-1.198.369a2.217 2.217 0 0 0-.714.992 3.938 3.938 0 0 0-.235 1.4c0 .524.08 1 .24 1.428.163.425.402.764.719 1.016.319.249.715.374 1.188.374Zm8.228 1.016c-.613 0-1.154-.155-1.624-.465-.47-.313-.837-.754-1.102-1.323-.266-.572-.398-1.247-.398-2.027 0-.773.132-1.444.398-2.013.265-.569.634-1.008 1.107-1.318.473-.31 1.019-.465 1.639-.465.479 0 .857.08 1.135.24.282.157.496.336.643.537.15.198.266.361.349.489h.096v-3.623h1.131v9.814h-1.092v-1.131h-.135a7.013 7.013 0 0 1-.354.508 2.102 2.102 0 0 1-.657.542c-.284.156-.663.235-1.136.235Zm.154-1.016c.454 0 .837-.119 1.15-.355.313-.24.551-.57.714-.992.163-.425.244-.915.244-1.471 0-.55-.079-1.031-.239-1.443-.16-.415-.396-.738-.709-.968-.314-.233-.7-.35-1.16-.35-.479 0-.879.123-1.198.369a2.202 2.202 0 0 0-.714.992 3.938 3.938 0 0 0-.235 1.4c0 .524.08 1 .239 1.428.163.425.403.764.719 1.016.32.249.716.374 1.189.374Zm12.522-6.499v.959h-3.968v-.959h3.968Zm-2.779 7.361v-8.377c0-.421.099-.773.297-1.054.198-.281.455-.492.771-.633.317-.14.651-.21 1.002-.21.278 0 .505.022.68.067.176.044.307.086.393.124l-.325.978a6.705 6.705 0 0 0-.24-.072 1.443 1.443 0 0 0-.393-.043c-.374 0-.644.094-.81.283-.163.188-.244.464-.244.829v8.108h-1.131Zm9.003-3.009v-4.352h1.131v7.361h-1.131v-1.246h-.076a2.414 2.414 0 0 1-.806.954c-.364.259-.824.388-1.38.388-.46 0-.869-.1-1.227-.302a2.11 2.11 0 0 1-.843-.92c-.204-.412-.307-.931-.307-1.557v-4.678h1.131v4.601c0 .537.15.965.451 1.284.303.32.69.48 1.16.48.281 0 .567-.072.857-.216a1.87 1.87 0 0 0 .738-.661c.202-.298.302-.676.302-1.136Zm4.334-1.419v4.428h-1.131v-7.361h1.092v1.15h.096c.173-.373.435-.674.786-.901.352-.23.805-.345 1.361-.345.499 0 .935.103 1.309.307.373.201.664.508.872.92.207.409.311.927.311 1.553v4.677h-1.131v-4.6c0-.579-.15-1.029-.45-1.352-.301-.326-.713-.489-1.237-.489-.361 0-.683.079-.968.235a1.682 1.682 0 0 0-.666.686c-.163.3-.244.664-.244 1.092Zm9.543 4.582c-.614 0-1.155-.155-1.625-.465-.47-.313-.837-.754-1.102-1.323-.266-.572-.398-1.247-.398-2.027 0-.773.132-1.444.398-2.013.265-.569.634-1.008 1.107-1.318.473-.31 1.019-.465 1.639-.465.479 0 .858.08 1.135.24.282.157.496.336.643.537.15.198.266.361.349.489h.096v-3.623h1.131v9.814h-1.092v-1.131h-.135a7.013 7.013 0 0 1-.354.508 2.102 2.102 0 0 1-.657.542c-.284.156-.663.235-1.135.235Zm.153-1.016c.454 0 .837-.119 1.15-.355.313-.24.551-.57.714-.992.163-.425.244-.915.244-1.471 0-.55-.079-1.031-.239-1.443-.16-.415-.396-.738-.709-.968-.313-.233-.7-.35-1.16-.35-.479 0-.879.123-1.198.369a2.202 2.202 0 0 0-.714.992 3.938 3.938 0 0 0-.235 1.4c0 .524.08 1 .24 1.428.162.425.402.764.718 1.016.32.249.716.374 1.189.374Zm10.663-4.85-1.016.287a1.886 1.886 0 0 0-.283-.493 1.372 1.372 0 0 0-.498-.403c-.211-.105-.481-.158-.81-.158-.451 0-.826.104-1.126.312-.298.204-.446.464-.446.781 0 .281.102.503.307.666.204.163.524.299.958.407l1.093.269c.658.159 1.148.404 1.471.733.323.326.484.746.484 1.26 0 .422-.121.799-.364 1.131-.24.332-.575.594-1.007.786-.431.192-.933.288-1.504.288-.751 0-1.373-.163-1.865-.489-.492-.326-.803-.802-.934-1.428l1.073-.269c.103.397.296.694.58.892.288.198.663.297 1.126.297.528 0 .946-.112 1.256-.336.313-.226.47-.498.47-.814 0-.256-.09-.47-.269-.642-.179-.176-.453-.307-.824-.393l-1.227-.288c-.674-.16-1.169-.407-1.485-.743-.314-.338-.47-.762-.47-1.27 0-.415.117-.783.35-1.102.236-.319.557-.57.963-.752a3.368 3.368 0 0 1 1.39-.274c.728 0 1.3.16 1.715.48.419.319.716.741.892 1.265Z"/><defs><clipPath id="b"><rect width="337.381" height="47.233" x="20.243" y="224.892" fill="#fff" rx="10.121"/></clipPath></defs></svg>
