<svg viewBox="0 0 442 23" fill="none" xmlns="http://www.w3.org/2000/svg">
<path fill-rule="evenodd" clip-rule="evenodd" d="M20.5797 6.22609C10.5703 6.86172 4.60729 7.43379 3.64894 8.06942C1.30633 9.46782 5.99155 10.167 20.7926 10.2306C20.8991 10.2306 405.195 5.01836 405.301 5.01836C422.658 4.57342 424.042 4.00135 424.042 2.92077C424.042 1.52238 419.357 0.568927 409.348 0.123982C396.144 -0.575217 94.5851 1.71307 20.5797 6.22609ZM411.797 9.40426C407.112 9.53139 102.145 13.7266 94.4786 14.108C0.560936 18.2396 -6.67987 18.8752 3.43598 21.9263C8.33418 23.3882 17.5982 23.3882 57.7421 21.7356C154.535 17.8582 430.112 17.4133 439.802 15.3157C444.274 14.2986 444.913 8.70506 411.797 9.40426Z" fill="url(#paint0_linear_1850_37739)"/>
<defs>
<linearGradient id="paint0_linear_1850_37739" x1="396.224" y1="23" x2="181.297" y2="-159.554" gradientUnits="userSpaceOnUse">
<stop offset="0.120192" stop-color="#7F76B2"/>
<stop offset="0.298077" stop-color="#F69656"/>
<stop offset="0.591346" stop-color="#F2797F"/>
<stop offset="0.903846" stop-color="#9CD6CB"/>
</linearGradient>
</defs>
</svg>
