<svg xmlns="http://www.w3.org/2000/svg" fill="none" viewBox="0 0 842 615"><style>@keyframes blink{0%,30%{opacity:1}10%{opacity:0}}</style><path fill="#FF7A7F" d="M270 53h-70v20h70V53Z" style="--animation-order:1;animation:blink 3s infinite;animation-delay:calc(var(--animation-order)*200ms)"/><path fill="#56BAB8" d="M340 53h-70v20h70V53Z" style="--animation-order:2;animation:blink 3s infinite;animation-delay:calc(var(--animation-order)*200ms)"/><path fill="#92DBCA" d="M410 53h-70v20h70V53Z" style="--animation-order:3;animation:blink 3s infinite;animation-delay:calc(var(--animation-order)*200ms)"/><path fill="#FF7A7F" d="M480 53h-70v20h70V53Z" style="--animation-order:4;animation:blink 3s infinite;animation-delay:calc(var(--animation-order)*200ms)"/><path fill="#56BAB8" d="M550 53h-70v20h70V53Z" style="--animation-order:5;animation:blink 3s infinite;animation-delay:calc(var(--animation-order)*200ms)"/><path fill="#92DBCA" d="M620 53h-70v20h70V53Z" style="--animation-order:6;animation:blink 3s infinite;animation-delay:calc(var(--animation-order)*200ms)"/><path fill="#FF7A7F" d="M690 53h-70v20h70V53Z" style="--animation-order:7;animation:blink 3s infinite;animation-delay:calc(var(--animation-order)*200ms)"/><path fill="#56BAB8" d="M760 53h-70v20h70V53Z" style="--animation-order:8;animation:blink 3s infinite;animation-delay:calc(var(--animation-order)*200ms)"/><path fill="#92DBCA" d="M780 53h-20v70h20V53Z" style="--animation-order:9;animation:blink 3s infinite;animation-delay:calc(var(--animation-order)*200ms)"/><path fill="#FF7A7F" d="M780 123h-20v70h20v-70Z" style="--animation-order:10;animation:blink 3s infinite;animation-delay:calc(var(--animation-order)*200ms)"/><path fill="url(#paint0_linear_212_312)" d="M604.37 614.66c110.617 0 200.29-4.714 200.29-10.53 0-5.815-89.673-10.53-200.29-10.53-110.617 0-200.29 4.715-200.29 10.53 0 5.816 89.673 10.53 200.29 10.53Z" opacity=".22"/><path fill="url(#paint1_linear_212_312)" d="M664.57 593.96h-120.4l6.89-51.8h107.61l5.9 51.8Z"/><path fill="#FF7A7F" d="M366.94 498.77v31.99c0 6.49 5.31 11.81 11.81 11.81H830c6.49 0 11.8-5.32 11.8-11.81v-31.99H366.94Z"/><path fill="url(#paint2_linear_212_312)" d="M841.8 227.14c0-6.49-5.31-11.81-11.8-11.81H378.75c-6.5 0-11.81 5.31-11.81 11.81v271.63H841.8V227.14Z"/><path fill="url(#paint3_linear_212_312)" d="M825.07 231.07h-441.4v251.95h441.4V231.07Z"/><path fill="#FF7A7F" d="M544.17 593.96h120.4l21.18 5-162.76.13 21.18-5.13Z"/><path fill="url(#paint4_linear_212_312)" d="M684.64 601.75H524.1l-1.06-2.66 162.71-.13-1.11 2.79Z"/><path fill="#fff" d="M612.82 522.06c0 4.66-3.78 8.45-8.45 8.45s-8.45-3.78-8.45-8.45 3.78-8.45 8.45-8.45 8.45 3.78 8.45 8.45Z"/><path fill="#DDD" d="M477.757 465.745v-1.209l5.346-2.991-5.346-2.99v-1.21l6.364 3.564v1.273l-6.364 3.563ZM469.759 468.622c-.203 0-.403-.013-.598-.038a8.604 8.604 0 0 1-.598-.102l.216-1.133c.221.051.425.089.611.115.196.025.374.038.535.038.39 0 .734-.111 1.031-.331.305-.221.539-.573.7-1.057l.038-.114h-.471l-2.711-7.636h1.387l2.151 6.567 2.139-6.567h1.336l-2.8 7.89c-.289.823-.683 1.422-1.184 1.795-.492.382-1.086.573-1.782.573ZM462.729 464.918c.416 0 .81-.11 1.184-.331.373-.22.742-.556 1.107-1.005v-3.742a3.048 3.048 0 0 0-.84-.356 3.455 3.455 0 0 0-.955-.128c-.687 0-1.196.153-1.527.458-.331.297-.496.751-.496 1.362v2.049c0 .569.127.993.381 1.273.255.28.637.42 1.146.42Zm1.909-.191a2.525 2.525 0 0 1-.916 1.031 2.411 2.411 0 0 1-1.311.369c-.789 0-1.4-.254-1.833-.763-.433-.51-.649-1.222-.649-2.139v-2.074c0-.925.288-1.642.865-2.151.577-.509 1.383-.764 2.419-.764.297 0 .602.034.916.102.314.06.611.144.891.255v-2.775h1.273V466h-1.273v-1.273h-.382ZM454.197 466.127c-1.027 0-1.816-.246-2.368-.738-.543-.501-.814-1.218-.814-2.151v-2.062c0-.941.276-1.667.827-2.176.552-.509 1.341-.764 2.367-.764 1.019 0 1.799.255 2.342.764.552.509.828 1.235.828 2.176v2.062c0 .933-.276 1.65-.828 2.151-.543.492-1.328.738-2.354.738Zm0-1.145c.645 0 1.124-.144 1.438-.433.314-.288.471-.725.471-1.311v-2.062c0-.611-.157-1.06-.471-1.349-.314-.297-.793-.445-1.438-.445-.645 0-1.125.148-1.438.445-.314.289-.471.738-.471 1.349v2.062c0 .586.157 1.023.471 1.311.313.289.793.433 1.438.433ZM445.181 466.127a5.807 5.807 0 0 1-1.578-.229 5.687 5.687 0 0 1-1.502-.662v-9.418h1.273v3.818h.381a2.52 2.52 0 0 1 .917-1.031c.39-.246.827-.369 1.311-.369.789 0 1.4.255 1.832.764.433.509.649 1.222.649 2.138v2.075c0 .925-.288 1.641-.865 2.151-.577.509-1.383.763-2.418.763Zm-.013-1.12c.687 0 1.196-.148 1.527-.445.331-.306.497-.764.497-1.375v-2.036c0-.577-.128-1.006-.382-1.286-.255-.28-.636-.42-1.146-.42-.415 0-.81.111-1.183.331-.374.221-.743.556-1.107 1.006v3.742c.271.161.551.284.84.369.297.076.615.114.954.114ZM433.187 468.545l5.091-12.727h1.272l-5.091 12.727h-1.272ZM430.636 465.745l-6.363-3.563v-1.273l6.363-3.564v1.21l-5.345 2.99 5.345 2.991v1.209ZM691.695 448.745v-1.209l5.345-2.991-5.345-2.99v-1.21l6.363 3.564v1.273l-6.363 3.563ZM682.781 445.182v-1.273h6.363v1.273h-6.363ZM673.866 445.182v-1.273h6.364v1.273h-6.364ZM660.48 449.114c-.84 0-1.493-.207-1.96-.623-.467-.416-.7-1.052-.7-1.909v-4.073h-2.164v-1.145h2.164v-2.546h1.273v2.546h3.309v1.145h-3.309v3.958c0 .492.123.857.369 1.095.246.237.611.356 1.094.356.323 0 .624-.021.904-.064.28-.05.547-.114.802-.19l.254 1.158a7.112 7.112 0 0 1-.929.203c-.322.06-.691.089-1.107.089ZM647.124 449v-7.636h1.273v1.272h.382c.186-.432.479-.772.878-1.018a2.482 2.482 0 0 1 1.362-.382c.763 0 1.366.234 1.807.7.441.467.662 1.103.662 1.909V449h-1.273v-4.9c0-.535-.131-.942-.394-1.222-.255-.288-.624-.433-1.108-.433-.381 0-.772.115-1.171.344-.39.229-.772.56-1.145.993V449h-1.273ZM644.599 447.32c-.229.636-.577 1.099-1.043 1.387-.467.28-1.184.42-2.151.42-1.01 0-1.795-.242-2.355-.725-.56-.492-.84-1.218-.84-2.177v-2.049c0-.984.293-1.718.878-2.201.594-.493 1.366-.739 2.317-.739.959 0 1.726.251 2.303.751.577.492.866 1.252.866 2.278v1.171h-5.091v.802c0 .637.157 1.099.471 1.387.322.28.802.42 1.438.42.611 0 1.056-.084 1.336-.254.28-.17.493-.446.637-.827l1.234.356Zm-5.116-3.144v.306h3.818v-.191c0-.687-.161-1.188-.484-1.502-.313-.314-.789-.471-1.425-.471s-1.116.153-1.438.458c-.314.297-.471.764-.471 1.4ZM633.738 449.114c-.84 0-1.493-.207-1.96-.623-.467-.416-.7-1.052-.7-1.909v-4.073h-2.164v-1.145h2.164v-2.546h1.273v2.546h3.309v1.145h-3.309v3.958c0 .492.123.857.369 1.095.246.237.611.356 1.094.356.323 0 .624-.021.904-.064.28-.05.547-.114.802-.19l.254 1.158a7.112 7.112 0 0 1-.929.203c-.322.06-.691.089-1.107.089ZM620.382 449v-7.636h1.273v1.272h.382c.186-.432.479-.772.878-1.018a2.482 2.482 0 0 1 1.362-.382c.763 0 1.366.234 1.807.7.441.467.662 1.103.662 1.909V449h-1.273v-4.9c0-.535-.132-.942-.395-1.222-.254-.288-.623-.433-1.107-.433-.382 0-.772.115-1.171.344-.39.229-.772.56-1.145.993V449h-1.273ZM614.65 449.127c-1.027 0-1.816-.246-2.367-.738-.543-.501-.815-1.218-.815-2.151v-2.062c0-.941.276-1.667.827-2.176.552-.509 1.341-.764 2.368-.764 1.018 0 1.798.255 2.341.764.552.509.828 1.235.828 2.176v2.062c0 .933-.276 1.65-.828 2.151-.543.492-1.327.738-2.354.738Zm0-1.145c.645 0 1.124-.144 1.438-.433.314-.288.471-.725.471-1.311v-2.062c0-.611-.157-1.06-.471-1.349-.314-.297-.793-.445-1.438-.445-.645 0-1.124.148-1.438.445-.314.289-.471.738-.471 1.349v2.062c0 .586.157 1.023.471 1.311.314.289.793.433 1.438.433ZM605.914 449.127c-1.112 0-1.952-.242-2.52-.725-.56-.492-.84-1.214-.84-2.164v-2.062c0-.967.28-1.697.84-2.189.568-.5 1.404-.751 2.507-.751.984 0 1.74.225 2.266.675.534.441.831 1.09.891 1.947l-1.248.077c-.034-.527-.208-.917-.521-1.171-.314-.255-.781-.382-1.4-.382-.696 0-1.214.148-1.553.445-.34.289-.509.738-.509 1.349v2.062c0 .586.169 1.023.509 1.311.348.289.874.433 1.578.433.611 0 1.073-.106 1.387-.318.314-.221.484-.548.509-.98l1.248.076c-.06.781-.353 1.37-.879 1.769-.526.399-1.281.598-2.265.598ZM591.115 447.32c-.229.636-.577 1.099-1.044 1.387-.466.28-1.183.42-2.151.42-1.009 0-1.794-.242-2.354-.725-.56-.492-.84-1.218-.84-2.177v-2.049c0-.984.293-1.718.878-2.201.594-.493 1.366-.739 2.316-.739.959 0 1.727.251 2.304.751.577.492.865 1.252.865 2.278v1.171h-5.09v.802c0 .637.157 1.099.47 1.387.323.28.802.42 1.439.42.611 0 1.056-.084 1.336-.254.28-.17.492-.446.636-.827l1.235.356Zm-5.116-3.144v.306h3.818v-.191c0-.687-.161-1.188-.484-1.502-.314-.314-.789-.471-1.425-.471-.637 0-1.116.153-1.439.458-.313.297-.47.764-.47 1.4ZM576.474 443.527V449h-1.171v-7.636h1.171v1.018h.254c.161-.357.374-.637.637-.84.263-.204.538-.306.827-.306.331 0 .606.102.827.306.229.195.386.475.471.84h.28c.161-.357.378-.637.649-.84.28-.204.577-.306.891-.306.424 0 .759.174 1.005.522.247.34.37.802.37 1.387V449h-1.171v-5.651c0-.382-.051-.67-.153-.865-.102-.196-.25-.293-.446-.293-.161 0-.364.119-.61.356-.238.238-.48.564-.726.98V449h-1.171v-5.651c0-.382-.055-.67-.165-.865-.102-.196-.251-.293-.446-.293-.169 0-.369.114-.598.344-.221.229-.462.56-.725.992ZM570.08 449.127c-1.027 0-1.816-.246-2.368-.738-.543-.501-.814-1.218-.814-2.151v-2.062c0-.941.275-1.667.827-2.176.552-.509 1.341-.764 2.367-.764 1.018 0 1.799.255 2.342.764.552.509.827 1.235.827 2.176v2.062c0 .933-.275 1.65-.827 2.151-.543.492-1.328.738-2.354.738Zm0-1.145c.644 0 1.124-.144 1.438-.433.314-.288.471-.725.471-1.311v-2.062c0-.611-.157-1.06-.471-1.349-.314-.297-.794-.445-1.438-.445-.645 0-1.125.148-1.439.445-.314.289-.471.738-.471 1.349v2.062c0 .586.157 1.023.471 1.311.314.289.794.433 1.439.433ZM561.267 449.127a6.277 6.277 0 0 1-1.871-.28 5.364 5.364 0 0 1-1.667-.891l.573-1.005c.415.339.878.598 1.387.776a5.03 5.03 0 0 0 1.578.255c.441 0 .861-.068 1.26-.204.407-.136.611-.424.611-.865 0-.365-.165-.624-.496-.777-.331-.152-.938-.284-1.82-.394-.934-.111-1.642-.327-2.126-.649-.475-.331-.712-.849-.712-1.553 0-.764.288-1.336.865-1.718.577-.391 1.247-.586 2.011-.586.602 0 1.179.102 1.731.306.56.203 1.077.492 1.553.865l-.573 1.006a5.056 5.056 0 0 0-1.273-.751 3.766 3.766 0 0 0-1.438-.28c-.407 0-.781.076-1.12.229-.331.153-.496.433-.496.84 0 .348.152.602.458.764.314.152.912.284 1.794.394.968.11 1.693.348 2.177.713.483.356.725.857.725 1.502 0 .797-.322 1.383-.967 1.756-.645.365-1.366.547-2.164.547ZM555.459 447.32c-.229.636-.577 1.099-1.044 1.387-.467.28-1.184.42-2.151.42-1.01 0-1.794-.242-2.354-.725-.56-.492-.84-1.218-.84-2.177v-2.049c0-.984.292-1.718.878-2.201.594-.493 1.366-.739 2.316-.739.959 0 1.727.251 2.304.751.577.492.865 1.252.865 2.278v1.171h-5.091v.802c0 .637.157 1.099.471 1.387.323.28.802.42 1.438.42.611 0 1.057-.084 1.337-.254.28-.17.492-.446.636-.827l1.235.356Zm-5.117-3.144v.306h3.818v-.191c0-.687-.161-1.188-.483-1.502-.314-.314-.789-.471-1.426-.471-.636 0-1.115.153-1.438.458-.314.297-.471.764-.471 1.4ZM544.457 449l-1.12-4.976-1.069 4.976h-1.451l-1.438-7.636h1.222l.967 6.707.993-5.435h1.502l1.082 5.231.929-6.503h1.222L545.857 449h-1.4ZM533.507 448.033c.441 0 .848-.077 1.222-.229.373-.162.695-.437.967-.828v-1.221h-2.291c-.365 0-.67.084-.916.254-.238.161-.357.45-.357.866 0 .364.102.649.306.852.212.204.568.306 1.069.306Zm-.166 1.094a3.043 3.043 0 0 1-1.73-.509c-.501-.348-.751-.903-.751-1.667 0-.67.216-1.196.649-1.578a2.28 2.28 0 0 1 1.54-.573h2.647v-1.095c0-.407-.136-.729-.407-.967-.272-.237-.683-.356-1.235-.356-.56 0-.98.085-1.26.254-.271.162-.488.526-.649 1.095l-1.12-.306c.144-.721.467-1.264.967-1.629.509-.373 1.188-.56 2.037-.56.84 0 1.54.191 2.1.573.56.373.84.955.84 1.744v3.411c0 .458.127.746.382.865.254.11.636.123 1.145.038v1.171a3.333 3.333 0 0 1-1.489-.102c-.458-.152-.709-.555-.751-1.209h-.255c-.237.391-.593.721-1.069.993a3.153 3.153 0 0 1-1.591.407ZM514.05 449v-7.636h1.273v1.272h.381c.179-.483.45-.835.815-1.056.365-.229.806-.344 1.324-.344.568 0 1.043.191 1.425.573.382.373.573.904.573 1.591v1.145h-1.209v-.687c0-.483-.111-.84-.331-1.069-.212-.229-.539-.344-.98-.344-.399 0-.764.098-1.095.293-.322.195-.623.501-.903.917V449h-1.273ZM506.968 449.127c-.738 0-1.336-.237-1.794-.713-.45-.483-.675-1.115-.675-1.896v-5.154h1.273v4.9c0 .56.123.975.369 1.247.246.271.624.407 1.133.407.399 0 .785-.106 1.158-.318.382-.221.768-.56 1.158-1.018v-5.218h1.273V449h-1.273v-1.273h-.382a2.231 2.231 0 0 1-.891 1.018 2.49 2.49 0 0 1-1.349.382ZM498.767 449.127c-1.027 0-1.816-.246-2.367-.738-.543-.501-.815-1.218-.815-2.151v-2.062c0-.941.276-1.667.827-2.176.552-.509 1.341-.764 2.368-.764 1.018 0 1.799.255 2.342.764.551.509.827 1.235.827 2.176v2.062c0 .933-.276 1.65-.827 2.151-.543.492-1.328.738-2.355.738Zm0-1.145c.645 0 1.124-.144 1.438-.433.314-.288.471-.725.471-1.311v-2.062c0-.611-.157-1.06-.471-1.349-.314-.297-.793-.445-1.438-.445-.645 0-1.124.148-1.438.445-.314.289-.471.738-.471 1.349v2.062c0 .586.157 1.023.471 1.311.314.289.793.433 1.438.433ZM490.489 449h-1.272v-3.818l-3.64-6.364h1.425l2.927 5.218 2.788-5.218h1.4l-3.628 6.364V449ZM468.843 445.182v-1.273h6.364v1.273h-6.364ZM459.929 445.182v-1.273h6.364v1.273h-6.364ZM453.688 445.182l-.382-6.364h1.782l-.382 6.364h-1.018Zm.521 3.945c-.424 0-.738-.085-.941-.254-.196-.179-.293-.45-.293-.815v-.356c0-.374.097-.649.293-.828.203-.178.517-.267.941-.267.425 0 .734.089.929.267.196.179.293.454.293.828v.356c0 .365-.102.636-.305.815-.195.169-.501.254-.917.254ZM448.464 448.745l-6.363-3.563v-1.273l6.363-3.564v1.21l-5.345 2.99 5.345 2.991v1.209ZM468.843 431.745v-1.209l5.345-2.991-5.345-2.99v-1.21l6.364 3.564v1.273l-6.364 3.563ZM460.845 434.622c-.203 0-.403-.013-.598-.038a8.604 8.604 0 0 1-.598-.102l.216-1.133c.221.051.425.089.611.115.195.025.374.038.535.038.39 0 .734-.111 1.031-.331.305-.221.539-.573.7-1.057l.038-.114h-.471l-2.711-7.636h1.387l2.151 6.567 2.139-6.567h1.336l-2.8 7.89c-.289.823-.683 1.422-1.184 1.795-.492.382-1.086.573-1.782.573ZM453.815 430.918c.416 0 .81-.11 1.184-.331.373-.22.742-.556 1.107-1.005v-3.742a3.048 3.048 0 0 0-.84-.356 3.455 3.455 0 0 0-.955-.128c-.687 0-1.196.153-1.527.458-.331.297-.496.751-.496 1.362v2.049c0 .569.127.993.381 1.273.255.28.637.42 1.146.42Zm1.909-.191a2.525 2.525 0 0 1-.916 1.031 2.411 2.411 0 0 1-1.311.369c-.789 0-1.4-.254-1.833-.763-.433-.51-.649-1.222-.649-2.139v-2.074c0-.925.288-1.642.865-2.151.577-.509 1.383-.764 2.419-.764.296 0 .602.034.916.102.314.06.611.144.891.255v-2.775h1.273V432h-1.273v-1.273h-.382ZM445.283 432.127c-1.027 0-1.816-.246-2.368-.738-.543-.501-.814-1.218-.814-2.151v-2.062c0-.941.276-1.667.827-2.176.552-.509 1.341-.764 2.367-.764 1.019 0 1.799.255 2.342.764.552.509.827 1.235.827 2.176v2.062c0 .933-.275 1.65-.827 2.151-.543.492-1.328.738-2.354.738Zm0-1.145c.644 0 1.124-.144 1.438-.433.314-.288.471-.725.471-1.311v-2.062c0-.611-.157-1.06-.471-1.349-.314-.297-.794-.445-1.438-.445-.645 0-1.125.148-1.439.445-.313.289-.47.738-.47 1.349v2.062c0 .586.157 1.023.47 1.311.314.289.794.433 1.439.433ZM436.267 432.127a5.807 5.807 0 0 1-1.578-.229 5.687 5.687 0 0 1-1.502-.662v-9.418h1.272v3.818h.382a2.52 2.52 0 0 1 .917-1.031c.39-.246.827-.369 1.311-.369.789 0 1.4.255 1.832.764.433.509.649 1.222.649 2.138v2.075c0 .925-.288 1.641-.865 2.151-.577.509-1.383.763-2.418.763Zm-.013-1.12c.687 0 1.196-.148 1.527-.445.331-.306.497-.764.497-1.375v-2.036c0-.577-.128-1.006-.382-1.286-.255-.28-.637-.42-1.146-.42-.415 0-.81.111-1.183.331-.374.221-.743.556-1.108 1.006v3.742c.272.161.552.284.84.369.297.076.616.114.955.114ZM430.636 431.745l-6.363-3.563v-1.273l6.363-3.564v1.21l-5.345 2.99 5.345 2.991v1.209ZM477.757 397.745v-1.209l5.346-2.991-5.346-2.99v-1.21l6.364 3.564v1.273l-6.364 3.563ZM468.843 398v-1.146h2.545v-7.89h-2.545v-1.146h3.818v9.036h2.546V398h-6.364ZM460.591 392.527V398h-1.171v-7.636h1.171v1.018h.254c.162-.357.374-.637.637-.84.263-.204.539-.306.827-.306.331 0 .607.102.827.306.229.195.386.475.471.84h.28c.161-.357.378-.637.649-.84.28-.204.577-.306.891-.306.424 0 .76.174 1.006.522.246.34.369.802.369 1.387V398h-1.171v-5.651c0-.382-.051-.67-.153-.865-.102-.196-.25-.293-.445-.293-.162 0-.365.119-.611.356-.238.238-.48.564-.726.98V398h-1.171v-5.651c0-.382-.055-.67-.165-.865-.102-.196-.25-.293-.446-.293-.169 0-.369.114-.598.344-.22.229-.462.56-.725.992ZM455.457 398.114c-.84 0-1.494-.207-1.96-.623-.467-.416-.7-1.052-.7-1.909v-4.073h-2.164v-1.145h2.164v-2.546h1.272v2.546h3.31v1.145h-3.31v3.958c0 .492.123.857.37 1.095.246.237.61.356 1.094.356.322 0 .624-.021.904-.064.28-.05.547-.114.802-.19l.254 1.158a7.112 7.112 0 0 1-.929.203c-.322.06-.692.089-1.107.089ZM442.101 398v-10.182h1.273v3.818h.381c.187-.432.48-.772.879-1.018a2.477 2.477 0 0 1 1.361-.382c.764 0 1.366.234 1.808.7.441.467.661 1.099.661 1.897V398h-1.272v-4.9c0-.535-.132-.942-.395-1.222-.254-.288-.623-.433-1.107-.433-.382 0-.772.115-1.171.344-.39.229-.772.56-1.145.993V398h-1.273ZM433.187 400.545l5.091-12.727h1.272l-5.091 12.727h-1.272ZM430.636 397.745l-6.363-3.563v-1.273l6.363-3.564v1.21l-5.345 2.99 5.345 2.991v1.209ZM495.585 380.745v-1.209l5.346-2.991-5.346-2.99v-1.21l6.364 3.564v1.273l-6.364 3.563ZM489.471 379.918c.416 0 .81-.11 1.184-.331.373-.22.742-.556 1.107-1.005v-3.742a3.048 3.048 0 0 0-.84-.356 3.453 3.453 0 0 0-.954-.128c-.688 0-1.197.153-1.528.458-.331.297-.496.751-.496 1.362v2.049c0 .569.127.993.382 1.273.254.28.636.42 1.145.42Zm1.909-.191c-.22.441-.526.785-.916 1.031-.39.246-.827.369-1.311.369-.789 0-1.4-.254-1.833-.763-.432-.51-.649-1.222-.649-2.139v-2.074c0-.925.289-1.642.866-2.151.577-.509 1.383-.764 2.418-.764.297 0 .602.034.916.102.314.06.611.144.891.255v-2.775h1.273V381h-1.273v-1.273h-.382ZM480.023 380.033c.441 0 .848-.077 1.221-.229.374-.162.696-.437.968-.828v-1.221h-2.291c-.365 0-.671.084-.917.254-.237.161-.356.45-.356.866 0 .364.102.649.305.852.213.204.569.306 1.07.306Zm-.166 1.094a3.044 3.044 0 0 1-1.731-.509c-.5-.348-.751-.903-.751-1.667 0-.67.217-1.196.649-1.578a2.283 2.283 0 0 1 1.54-.573h2.648v-1.095c0-.407-.136-.729-.408-.967-.271-.237-.683-.356-1.234-.356-.56 0-.98.085-1.26.254-.272.162-.488.526-.649 1.095l-1.12-.306c.144-.721.466-1.264.967-1.629.509-.373 1.188-.56 2.036-.56.84 0 1.54.191 2.1.573.56.373.84.955.84 1.744v3.411c0 .458.128.746.382.865.255.11.637.123 1.146.038v1.171a3.332 3.332 0 0 1-1.489-.102c-.459-.152-.709-.555-.751-1.209h-.255c-.238.391-.594.721-1.069.993a3.153 3.153 0 0 1-1.591.407ZM475.232 379.32c-.229.636-.577 1.099-1.044 1.387-.466.28-1.183.42-2.15.42-1.01 0-1.795-.242-2.355-.725-.56-.492-.84-1.218-.84-2.177v-2.049c0-.984.293-1.718.878-2.201.594-.493 1.366-.739 2.317-.739.958 0 1.726.251 2.303.751.577.492.866 1.252.866 2.278v1.171h-5.091v.802c0 .637.157 1.099.471 1.387.322.28.801.42 1.438.42.611 0 1.056-.084 1.336-.254.28-.17.492-.446.637-.827l1.234.356Zm-5.116-3.144v.306h3.818v-.191c0-.687-.161-1.188-.484-1.502-.314-.314-.789-.471-1.425-.471-.637 0-1.116.153-1.438.458-.314.297-.471.764-.471 1.4ZM459.929 381v-10.182h1.273v3.818h.381c.187-.432.48-.772.879-1.018a2.478 2.478 0 0 1 1.362-.382c.763 0 1.366.234 1.807.7.441.467.662 1.099.662 1.897V381h-1.273v-4.9c0-.535-.132-.942-.395-1.222-.254-.288-.623-.433-1.107-.433-.382 0-.772.115-1.171.344-.39.229-.772.56-1.145.993V381h-1.273ZM451.015 383.545l5.091-12.727h1.273l-5.091 12.727h-1.273ZM448.464 380.745l-6.363-3.563v-1.273l6.363-3.564v1.21l-5.345 2.99 5.345 2.991v1.209ZM468.754 363.924v-1.655l5.396-2.724-5.396-2.723v-1.655l6.542 3.297v2.163l-6.542 3.297ZM459.662 366.545l5.091-12.727h1.807l-5.091 12.727h-1.807ZM785.073 342.354l-.432-5.536h2.571l-.433 5.536h-1.706Zm-3.818 0-.432-5.536h2.57l-.432 5.536h-1.706Z"/><path fill="#FFD174" d="M778.768 345.231c-.297.713-.708 1.209-1.234 1.489-.518.271-1.315.407-2.393.407-1.035 0-1.892-.242-2.571-.725-.67-.492-1.005-1.222-1.005-2.189v-2.037c0-.933.318-1.654.954-2.163.637-.518 1.502-.777 2.597-.777 1.094 0 1.955.259 2.583.777.628.509.942 1.243.942 2.202v1.4h-4.913v.725c0 .433.115.768.344 1.005.229.23.602.344 1.12.344.433 0 .785-.064 1.056-.191.28-.136.514-.39.7-.763l1.82.496Zm-5.04-3.233v.433h2.749v-.318c0-.535-.101-.917-.305-1.146-.204-.229-.56-.343-1.069-.343-.509 0-.866.11-1.069.331-.204.212-.306.56-.306 1.043ZM766.329 347.127c-1.197 0-2.109-.254-2.737-.763-.627-.509-.941-1.248-.941-2.215v-1.96c0-.95.314-1.68.941-2.189.637-.509 1.545-.764 2.724-.764 1.112 0 1.939.246 2.482.739.543.483.87 1.17.98 2.061l-2.087.166c-.043-.492-.174-.84-.395-1.044-.22-.212-.568-.318-1.044-.318-.509 0-.878.115-1.107.344-.22.22-.331.598-.331 1.132v1.744c0 .535.115.916.344 1.145.229.221.602.331 1.12.331.475 0 .819-.085 1.031-.254.22-.178.348-.467.382-.866l2.087.166c-.059.814-.344 1.442-.853 1.883-.509.442-1.374.662-2.596.662ZM753.826 347v-1.591h2.367v-4.455h-2.367v-1.59h4.531v6.045h2.367V347h-6.898Zm3.551-8.858c-.433 0-.785-.064-1.057-.191-.271-.136-.407-.369-.407-.7v-.166c0-.339.136-.577.407-.712.272-.145.624-.217 1.057-.217.432 0 .784.072 1.056.217.271.135.407.373.407.712v.166c0 .331-.136.564-.407.7-.272.127-.624.191-1.056.191ZM745.001 347v-1.591h2.456v-7h-2.456v-1.591h4.62v8.591h2.367V347h-6.987ZM738.581 345.727c.314 0 .611-.046.891-.14a2.95 2.95 0 0 0 .802-.432v-1.235h-1.756c-.289 0-.514.064-.675.191-.161.127-.242.377-.242.751 0 .28.077.496.229.649.153.144.403.216.751.216Zm-.522 1.4c-.712 0-1.298-.191-1.756-.572-.458-.382-.687-.93-.687-1.642 0-.705.242-1.243.725-1.617.492-.373 1.137-.56 1.935-.56h1.998v-.929c0-.373-.11-.636-.331-.789-.212-.161-.526-.242-.942-.242-.433 0-.755.077-.967.229-.204.153-.356.454-.458.904l-1.782-.318c.178-.857.513-1.464 1.005-1.82.501-.356 1.256-.535 2.266-.535 1.06 0 1.871.208 2.431.624.568.407.852 1.035.852 1.884v2.952c0 .365.107.594.319.688.212.084.526.097.941.038v1.54c-.661.144-1.213.131-1.654-.038-.433-.17-.717-.539-.853-1.108h-.343c-.263.357-.633.666-1.108.929a3.308 3.308 0 0 1-1.591.382ZM727.083 349.545l5.091-12.727h1.808l-5.091 12.727h-1.808ZM725.284 345.231c-.297.713-.709 1.209-1.235 1.489-.517.271-1.315.407-2.392.407-1.035 0-1.892-.242-2.571-.725-.671-.492-1.006-1.222-1.006-2.189v-2.037c0-.933.319-1.654.955-2.163.636-.518 1.502-.777 2.596-.777 1.095 0 1.956.259 2.584.777.628.509.942 1.243.942 2.202v1.4h-4.913v.725c0 .433.115.768.344 1.005.229.23.602.344 1.12.344.432 0 .784-.064 1.056-.191.28-.136.513-.39.7-.763l1.82.496Zm-5.04-3.233v.433h2.749v-.318c0-.535-.102-.917-.305-1.146-.204-.229-.56-.343-1.069-.343-.51 0-.866.11-1.07.331-.203.212-.305.56-.305 1.043ZM709.344 347v-1.591h2.457v-7h-2.457v-1.591h4.62v8.591h2.368V347h-6.988ZM703.79 345.511c.459 0 .802-.102 1.031-.306.229-.203.344-.538.344-1.005v-1.973c0-.441-.093-.768-.28-.98-.187-.212-.454-.318-.802-.318-.297 0-.577.072-.84.216a3.426 3.426 0 0 0-.827.637v3.36c.22.127.433.22.636.28.212.059.458.089.738.089Zm.344 1.578c-.288 0-.585-.025-.891-.076a4.123 4.123 0 0 1-.827-.229v2.761h-2.164v-10.181h2.164v1.361h.382c.195-.458.496-.818.903-1.081a2.423 2.423 0 0 1 1.375-.408c.687 0 1.234.238 1.642.713.407.475.611 1.12.611 1.935v2.329c0 .882-.289 1.582-.866 2.1-.568.517-1.345.776-2.329.776ZM692.776 341.578V347h-1.794v-7.636h1.782v1.018h.343c.162-.357.357-.628.586-.815.229-.195.488-.293.776-.293.289 0 .543.094.764.28.22.187.373.463.458.828h.331c.144-.357.348-.628.611-.815.263-.195.564-.293.903-.293.382 0 .684.166.904.497.221.322.331.755.331 1.298V347h-1.795v-5.562c0-.246-.033-.433-.101-.56-.06-.136-.149-.204-.268-.204-.127 0-.267.081-.42.242a2.36 2.36 0 0 0-.432.662V347h-1.757v-5.562c0-.246-.034-.433-.102-.56-.067-.136-.161-.204-.28-.204-.127 0-.267.081-.42.242a2.578 2.578 0 0 0-.42.662ZM685.097 345.727c.314 0 .611-.046.891-.14a2.98 2.98 0 0 0 .802-.432v-1.235h-1.757c-.288 0-.513.064-.674.191-.162.127-.242.377-.242.751 0 .28.076.496.229.649.153.144.403.216.751.216Zm-.522 1.4c-.713 0-1.298-.191-1.756-.572-.459-.382-.688-.93-.688-1.642 0-.705.242-1.243.726-1.617.492-.373 1.137-.56 1.934-.56h1.999v-.929c0-.373-.111-.636-.331-.789-.213-.161-.526-.242-.942-.242-.433 0-.755.077-.967.229-.204.153-.357.454-.459.904l-1.781-.318c.178-.857.513-1.464 1.005-1.82.501-.356 1.256-.535 2.265-.535 1.061 0 1.871.208 2.431.624.569.407.853 1.035.853 1.884v2.952c0 .365.106.594.318.688.212.084.526.097.942.038v1.54c-.662.144-1.213.131-1.654-.038-.433-.17-.717-.539-.853-1.108h-.344c-.263.357-.632.666-1.107.929a3.311 3.311 0 0 1-1.591.382ZM678.601 347l-1.654-2.456-1.528 2.456h-2.176l2.736-3.882-2.558-3.754h2.202l1.502 2.214 1.374-2.214h2.177l-2.546 3.678 2.698 3.958h-2.227ZM671.8 345.231c-.297.713-.709 1.209-1.235 1.489-.518.271-1.315.407-2.393.407-1.035 0-1.892-.242-2.571-.725-.67-.492-1.005-1.222-1.005-2.189v-2.037c0-.933.318-1.654.954-2.163.637-.518 1.502-.777 2.597-.777 1.094 0 1.956.259 2.583.777.628.509.942 1.243.942 2.202v1.4h-4.912v.725c0 .433.114.768.343 1.005.229.23.603.344 1.12.344.433 0 .785-.064 1.057-.191.28-.136.513-.39.7-.763l1.82.496Zm-5.04-3.233v.433h2.749v-.318c0-.535-.102-.917-.306-1.146-.203-.229-.56-.343-1.069-.343-.509 0-.865.11-1.069.331-.204.212-.305.56-.305 1.043ZM659.233 347.127c-.535 0-.963-.114-1.285-.343-.323-.238-.484-.573-.484-1.006v-.878c0-.441.161-.781.484-1.018.322-.238.75-.357 1.285-.357.526 0 .95.119 1.273.357.322.237.483.577.483 1.018v.878c0 .433-.165.768-.496 1.006-.331.229-.751.343-1.26.343ZM651.668 347.127c-.993 0-1.761-.229-2.304-.687-.543-.467-.814-1.141-.814-2.024v-3.462h-1.897v-1.59h1.897v-2.546h2.163v2.546h2.953v1.59h-2.953v3.182c0 .484.111.836.331 1.057.221.212.526.318.917.318.237 0 .487-.017.751-.051a3.57 3.57 0 0 0 .814-.204l.255 1.566c-.204.085-.493.157-.866.216a7.9 7.9 0 0 1-1.247.089ZM645.057 345.231c-.297.713-.708 1.209-1.234 1.489-.518.271-1.315.407-2.393.407-1.035 0-1.892-.242-2.571-.725-.67-.492-1.005-1.222-1.005-2.189v-2.037c0-.933.318-1.654.954-2.163.637-.518 1.502-.777 2.597-.777 1.094 0 1.955.259 2.583.777.628.509.942 1.243.942 2.202v1.4h-4.913v.725c0 .433.115.768.344 1.005.229.23.602.344 1.12.344.433 0 .785-.064 1.056-.191.28-.136.514-.39.7-.763l1.82.496Zm-5.04-3.233v.433h2.749v-.318c0-.535-.101-.917-.305-1.146-.204-.229-.56-.343-1.069-.343-.509 0-.866.11-1.069.331-.204.212-.306.56-.306 1.043ZM629.118 347v-1.591h2.456v-7h-2.456v-1.591h4.62v8.591h2.367V347h-6.987ZM620.204 347v-1.591h2.456v-7h-2.456v-1.591h4.62v8.591h2.367V347h-6.987ZM613.784 345.727c.314 0 .611-.046.891-.14a2.95 2.95 0 0 0 .802-.432v-1.235h-1.756c-.289 0-.514.064-.675.191-.161.127-.242.377-.242.751 0 .28.077.496.229.649.153.144.403.216.751.216Zm-.522 1.4c-.712 0-1.298-.191-1.756-.572-.458-.382-.687-.93-.687-1.642 0-.705.242-1.243.725-1.617.492-.373 1.137-.56 1.935-.56h1.998v-.929c0-.373-.11-.636-.331-.789-.212-.161-.526-.242-.942-.242-.432 0-.755.077-.967.229-.204.153-.356.454-.458.904l-1.782-.318c.178-.857.513-1.464 1.005-1.82.501-.356 1.256-.535 2.266-.535 1.061 0 1.871.208 2.431.624.568.407.853 1.035.853 1.884v2.952c0 .365.106.594.318.688.212.084.526.097.942.038v1.54c-.662.144-1.214.131-1.655-.038-.433-.17-.717-.539-.853-1.108h-.343c-.263.357-.632.666-1.108.929a3.308 3.308 0 0 1-1.591.382ZM606.767 347l-1.031-4.035-.98 4.035h-1.986l-1.26-7.636h1.871l.713 5.472.878-4.111h1.476l.968 3.984.674-5.345h1.871l-1.26 7.636h-1.934ZM593.373 349.545l5.09-12.727h1.808l-5.091 12.727h-1.807ZM584.458 349.545l5.091-12.727h1.808l-5.091 12.727h-1.808ZM579.006 342.075c-.483 0-.878-.102-1.183-.306-.306-.212-.458-.513-.458-.904v-.7c0-.398.152-.704.458-.916.305-.212.7-.318 1.183-.318.484 0 .874.106 1.171.318.297.212.446.518.446.916v.7c0 .391-.153.692-.458.904-.306.204-.692.306-1.159.306Zm0 5.001c-.483 0-.878-.101-1.183-.305-.306-.212-.458-.513-.458-.904v-.7c0-.399.152-.704.458-.916.305-.212.7-.318 1.183-.318.484 0 .874.106 1.171.318.297.212.446.517.446.916v.7c0 .391-.153.692-.458.904-.306.204-.692.305-1.159.305ZM570.118 347.089a7.328 7.328 0 0 1-1.96-.267 5.612 5.612 0 0 1-1.693-.764l.573-1.362a6.116 6.116 0 0 0 1.565.726c.56.161 1.082.242 1.565.242.391 0 .7-.06.93-.179.229-.127.343-.335.343-.623 0-.297-.114-.509-.343-.637-.221-.135-.611-.233-1.171-.292-1.035-.111-1.829-.323-2.38-.637-.552-.322-.828-.852-.828-1.591 0-.772.297-1.374.891-1.807.594-.441 1.366-.662 2.317-.662.543 0 1.098.085 1.667.255.577.161 1.099.39 1.565.687l-.483 1.298a6.453 6.453 0 0 0-1.375-.598 4.246 4.246 0 0 0-1.298-.216c-.348 0-.624.063-.827.191-.204.127-.306.326-.306.598a.63.63 0 0 0 .408.624c.28.11.742.207 1.387.292.993.119 1.727.357 2.202.713.483.356.725.874.725 1.553 0 .78-.314 1.387-.942 1.82-.628.424-1.472.636-2.532.636ZM561.165 345.511c.459 0 .802-.102 1.031-.306.229-.203.344-.538.344-1.005v-1.973c0-.441-.093-.768-.28-.98-.187-.212-.454-.318-.802-.318-.297 0-.577.072-.84.216a3.426 3.426 0 0 0-.827.637v3.36c.22.127.433.22.636.28.212.059.458.089.738.089Zm.344 1.578c-.288 0-.585-.025-.891-.076a4.123 4.123 0 0 1-.827-.229v2.761h-2.164v-10.181h2.164v1.361h.382c.195-.458.496-.818.903-1.081a2.423 2.423 0 0 1 1.375-.408c.687 0 1.234.238 1.642.713.407.475.611 1.12.611 1.935v2.329c0 .882-.289 1.582-.866 2.1-.568.517-1.345.776-2.329.776ZM553.613 347.127c-.993 0-1.76-.229-2.303-.687-.543-.467-.815-1.141-.815-2.024v-3.462h-1.896v-1.59h1.896v-2.546h2.164v2.546h2.952v1.59h-2.952v3.182c0 .484.11.836.331 1.057.22.212.526.318.916.318.237 0 .488-.017.751-.051a3.57 3.57 0 0 0 .814-.204l.255 1.566c-.204.085-.492.157-.866.216a7.9 7.9 0 0 1-1.247.089ZM544.699 347.127c-.993 0-1.76-.229-2.304-.687-.543-.467-.814-1.141-.814-2.024v-3.462h-1.896v-1.59h1.896v-2.546h2.164v2.546h2.952v1.59h-2.952v3.182c0 .484.11.836.33 1.057.221.212.527.318.917.318.237 0 .488-.017.751-.051a3.57 3.57 0 0 0 .814-.204l.255 1.566c-.204.085-.492.157-.866.216a7.9 7.9 0 0 1-1.247.089ZM530.885 347v-10.182h2.164v3.907h.381c.204-.466.51-.831.917-1.094.407-.263.87-.395 1.387-.395.679 0 1.218.217 1.616.649.408.433.611 1.014.611 1.744V347h-2.163v-4.798c0-.416-.085-.73-.255-.942-.17-.221-.411-.331-.725-.331-.289 0-.586.106-.891.318a3.752 3.752 0 0 0-.878.853v4.9h-2.164Z"/><path fill="#DDD" d="m526.566 342.354-.433-5.536h2.571l-.433 5.536h-1.705Zm-3.819 0-.432-5.536h2.571l-.433 5.536h-1.706ZM512.942 341.489v-1.807h7.306v1.807h-7.306Zm0 3.92v-1.807h7.306v1.807h-7.306Z"/><path fill="#92DBCA" d="M506.141 347v-6.046h-2.074v-1.59h2.074v-.433c0-.781.289-1.392.866-1.833.585-.441 1.357-.662 2.316-.662.365 0 .717.026 1.056.077.348.051.679.127.993.229l-.254 1.438a4.383 4.383 0 0 0-.79-.178 4.644 4.644 0 0 0-.776-.064c-.399 0-.708.098-.929.293-.212.186-.318.471-.318.853v.28h2.914v1.59h-2.914V347h-2.164ZM502.432 345.231c-.297.713-.708 1.209-1.234 1.489-.518.271-1.315.407-2.393.407-1.035 0-1.892-.242-2.571-.725-.67-.492-1.005-1.222-1.005-2.189v-2.037c0-.933.318-1.654.954-2.163.637-.518 1.502-.777 2.597-.777 1.094 0 1.955.259 2.583.777.628.509.942 1.243.942 2.202v1.4h-4.913v.725c0 .433.115.768.344 1.005.229.23.602.344 1.12.344.433 0 .785-.064 1.056-.191.28-.136.514-.39.7-.763l1.82.496Zm-5.04-3.233v.433h2.749v-.318c0-.535-.101-.917-.305-1.146-.204-.229-.56-.343-1.069-.343-.509 0-.866.11-1.069.331-.204.212-.306.56-.306 1.043ZM486.684 347v-7.636h2.163v1.361h.382c.187-.526.475-.903.866-1.132.399-.238.869-.357 1.412-.357.637 0 1.129.191 1.477.573.348.373.522.904.522 1.591v1.336h-1.973v-.687c0-.356-.081-.632-.242-.827-.153-.195-.416-.293-.789-.293-.322 0-.628.076-.916.229-.28.153-.526.407-.739.764V347h-2.163ZM477.401 347v-10.182h2.163v3.907h.382c.204-.466.509-.831.916-1.094.408-.263.87-.395 1.388-.395.679 0 1.217.217 1.616.649.407.433.611 1.014.611 1.744V347h-2.164v-4.798c0-.416-.084-.73-.254-.942-.17-.221-.412-.331-.726-.331-.288 0-.585.106-.891.318a3.771 3.771 0 0 0-.878.853v4.9h-2.163Z"/><path fill="#DDD" d="m633.534 325.354-.432-5.536h2.571l-.433 5.536h-1.706Zm-3.818 0-.433-5.536h2.571l-.432 5.536h-1.706Z"/><path fill="#FFD174" d="M620.026 330v-7.636h2.163v1.361h.382c.195-.466.505-.831.929-1.094.424-.263.912-.395 1.464-.395.67 0 1.192.212 1.565.637.382.424.573 1.009.573 1.756V330h-2.164v-4.976c0-.357-.084-.628-.254-.815-.17-.187-.412-.28-.726-.28-.288 0-.594.085-.916.255a2.76 2.76 0 0 0-.853.738V330h-2.163ZM614.65 330.127c-1.112 0-1.981-.254-2.609-.763-.62-.509-.929-1.218-.929-2.126v-2.062c0-.925.309-1.646.929-2.163.628-.518 1.501-.777 2.621-.777 1.112 0 1.977.263 2.597.789.619.526.929 1.256.929 2.19v2.061c0 .9-.314 1.6-.942 2.1-.619.501-1.485.751-2.596.751Zm0-1.591c.475 0 .823-.11 1.043-.331.221-.22.331-.572.331-1.056v-1.896c0-.492-.11-.853-.331-1.082-.22-.229-.568-.344-1.043-.344s-.823.115-1.044.344c-.22.229-.331.585-.331 1.069v1.858c0 .501.111.866.331 1.095.221.229.569.343 1.044.343ZM602.287 330v-1.591h2.367v-4.455h-2.367v-1.59h4.531v6.045h2.367V330h-6.898Zm3.551-8.858c-.433 0-.785-.064-1.057-.191-.271-.136-.407-.369-.407-.7v-.166c0-.339.136-.577.407-.712.272-.145.624-.217 1.057-.217.432 0 .784.072 1.056.217.271.135.407.373.407.712v.166c0 .331-.136.564-.407.7-.272.127-.624.191-1.056.191ZM598.183 330.127c-.992 0-1.76-.229-2.303-.687-.543-.467-.815-1.141-.815-2.024v-3.462h-1.896v-1.59h1.896v-2.546h2.164v2.546h2.953v1.59h-2.953v3.182c0 .484.11.836.331 1.057.22.212.526.318.916.318.238 0 .488-.017.751-.051.272-.034.543-.102.815-.204l.254 1.566c-.203.085-.492.157-.865.216-.374.06-.789.089-1.248.089ZM587.042 328.727c.314 0 .611-.046.891-.14.288-.102.556-.246.802-.432v-1.235h-1.757c-.288 0-.513.064-.674.191-.161.127-.242.377-.242.751 0 .28.076.496.229.649.153.144.403.216.751.216Zm-.522 1.4c-.712 0-1.298-.191-1.756-.572-.458-.382-.687-.93-.687-1.642 0-.705.241-1.243.725-1.617.492-.373 1.137-.56 1.935-.56h1.998v-.929c0-.373-.11-.636-.331-.789-.212-.161-.526-.242-.942-.242-.433 0-.755.077-.967.229-.204.153-.357.454-.458.904l-1.782-.318c.178-.857.513-1.464 1.005-1.82.501-.356 1.256-.535 2.266-.535 1.06 0 1.871.208 2.431.624.568.407.852 1.035.852 1.884v2.952c0 .365.106.594.319.688.212.084.526.097.941.038v1.54c-.661.144-1.213.131-1.654-.038-.433-.17-.717-.539-.853-1.108h-.344c-.263.357-.632.666-1.107.929a3.308 3.308 0 0 1-1.591.382ZM582.366 330h-6.745v-1.591l4.429-4.455h-4.429v-1.59h6.745v1.59l-4.416 4.455h4.416V330ZM566.63 330v-1.591h2.368v-4.455h-2.368v-1.59h4.531v6.045h2.368V330h-6.899Zm3.551-8.858c-.432 0-.785-.064-1.056-.191-.272-.136-.407-.369-.407-.7v-.166c0-.339.135-.577.407-.712.271-.145.624-.217 1.056-.217.433 0 .785.072 1.057.217.271.135.407.373.407.712v.166c0 .331-.136.564-.407.7-.272.127-.624.191-1.057.191ZM562.527 330.127c-.992 0-1.76-.229-2.303-.687-.543-.467-.815-1.141-.815-2.024v-3.462h-1.896v-1.59h1.896v-2.546h2.164v2.546h2.952v1.59h-2.952v3.182c0 .484.11.836.331 1.057.22.212.526.318.916.318.238 0 .488-.017.751-.051a3.57 3.57 0 0 0 .814-.204l.255 1.566c-.204.085-.492.157-.865.216-.374.06-.79.089-1.248.089ZM555.917 328.231c-.297.713-.709 1.209-1.235 1.489-.517.271-1.315.407-2.393.407-1.035 0-1.892-.242-2.57-.725-.671-.492-1.006-1.222-1.006-2.189v-2.037c0-.933.318-1.654.955-2.163.636-.518 1.501-.777 2.596-.777 1.095 0 1.956.259 2.584.777.628.509.941 1.243.941 2.202v1.4h-4.912v.725c0 .433.114.768.343 1.005.229.23.603.344 1.12.344.433 0 .785-.064 1.057-.191.28-.136.513-.39.7-.763l1.82.496Zm-5.04-3.233v.433h2.749v-.318c0-.535-.102-.917-.306-1.146-.203-.229-.56-.343-1.069-.343-.509 0-.865.11-1.069.331-.203.212-.305.56-.305 1.043ZM539.799 330v-7.636h2.164v1.361h.382c.195-.466.504-.831.929-1.094a2.719 2.719 0 0 1 1.463-.395c.671 0 1.192.212 1.566.637.382.424.572 1.009.572 1.756V330h-2.163v-4.976c0-.357-.085-.628-.255-.815-.169-.187-.411-.28-.725-.28-.289 0-.594.085-.917.255a2.746 2.746 0 0 0-.852.738V330h-2.164ZM534.423 330.127c-1.111 0-1.981-.254-2.609-.763-.619-.509-.929-1.218-.929-2.126v-2.062c0-.925.31-1.646.929-2.163.628-.518 1.502-.777 2.622-.777 1.111 0 1.977.263 2.596.789.62.526.929 1.256.929 2.19v2.061c0 .9-.314 1.6-.941 2.1-.62.501-1.485.751-2.597.751Zm0-1.591c.475 0 .823-.11 1.044-.331.22-.22.331-.572.331-1.056v-1.896c0-.492-.111-.853-.331-1.082-.221-.229-.569-.344-1.044-.344-.475 0-.823.115-1.043.344-.221.229-.331.585-.331 1.069v1.858c0 .501.11.866.331 1.095.22.229.568.343 1.043.343ZM523.409 324.578V330h-1.794v-7.636h1.782v1.018h.343c.161-.357.357-.628.586-.815.229-.195.488-.293.776-.293.289 0 .543.094.764.28.22.187.373.463.458.828h.331c.144-.357.348-.628.611-.815.263-.195.564-.293.903-.293.382 0 .683.166.904.497.221.322.331.755.331 1.298V330h-1.795v-5.562c0-.246-.034-.433-.102-.56-.059-.136-.148-.204-.267-.204-.127 0-.267.081-.42.242-.153.153-.297.374-.433.662V330h-1.756v-5.562c0-.246-.034-.433-.102-.56-.068-.136-.161-.204-.28-.204-.127 0-.267.081-.42.242a2.578 2.578 0 0 0-.42.662Z"/><path fill="#DDD" d="m517.652 325.354-.433-5.536h2.571l-.433 5.536h-1.705Zm-3.819 0-.432-5.536h2.571l-.433 5.536h-1.706ZM504.028 324.489v-1.807h7.306v1.807h-7.306Zm0 3.92v-1.807h7.306v1.807h-7.306Z"/><path fill="#92DBCA" d="M495.407 330v-1.591h2.456v-7h-2.456v-1.591h4.62v8.591h2.367V330h-6.987ZM493.518 328.231c-.297.713-.708 1.209-1.234 1.489-.518.271-1.315.407-2.393.407-1.035 0-1.892-.242-2.571-.725-.67-.492-1.005-1.222-1.005-2.189v-2.037c0-.933.318-1.654.954-2.163.637-.518 1.502-.777 2.597-.777 1.094 0 1.955.259 2.583.777.628.509.942 1.243.942 2.202v1.4h-4.913v.725c0 .433.115.768.344 1.005.229.23.602.344 1.12.344.433 0 .785-.064 1.056-.191.28-.136.514-.39.7-.763l1.82.496Zm-5.04-3.233v.433h2.749v-.318c0-.535-.101-.917-.305-1.146-.204-.229-.56-.343-1.069-.343-.509 0-.866.11-1.069.331-.204.212-.306.56-.306 1.043ZM477.77 330v-7.636h2.163v1.361h.382c.187-.526.475-.903.866-1.132.398-.238.869-.357 1.412-.357.637 0 1.129.191 1.477.573.348.373.522.904.522 1.591v1.336h-1.973v-.687c0-.356-.081-.632-.242-.827-.153-.195-.416-.293-.789-.293-.322 0-.628.076-.916.229-.28.153-.526.407-.739.764V330h-2.163Z"/><path fill="#FFCBDF" d="M497.672 309.78V313h-2.163v-10.182h2.163v5.473h.522l2.1-2.927h2.291l-2.596 3.461 2.558 4.175h-2.329l-2.024-3.22h-.522ZM486.315 313v-7.636h2.163v1.361h.382c.195-.466.505-.831.929-1.094.424-.263.912-.395 1.464-.395.67 0 1.192.212 1.565.637.382.424.573 1.009.573 1.756V313h-2.164v-4.976c0-.357-.084-.628-.254-.815-.17-.187-.412-.28-.726-.28-.288 0-.594.085-.916.255a2.76 2.76 0 0 0-.853.738V313h-2.163ZM477.49 313v-1.591h2.367v-4.455h-2.367v-1.59h4.531v6.045h2.367V313h-6.898Zm3.551-8.858c-.433 0-.785-.064-1.057-.191-.271-.136-.407-.369-.407-.7v-.166c0-.339.136-.577.407-.712.272-.145.624-.217 1.057-.217.432 0 .785.072 1.056.217.272.135.407.373.407.712v.166c0 .331-.135.564-.407.7-.271.127-.624.191-1.056.191ZM468.665 313v-1.591h2.456v-7h-2.456v-1.591h4.62v8.591h2.367V313h-6.987Z"/><path fill="#DDD" d="m466.382 312.924-6.542-3.297v-2.163l6.542-3.297v1.744l-5.219 2.634 5.219 2.635v1.744ZM691.695 295.745v-1.209l5.345-2.991-5.345-2.99v-1.21l6.363 3.564v1.273l-6.363 3.563ZM689.17 294.32c-.23.636-.577 1.099-1.044 1.387-.467.28-1.184.42-2.151.42-1.01 0-1.794-.242-2.354-.725-.56-.492-.84-1.218-.84-2.177v-2.049c0-.984.292-1.718.878-2.201.594-.493 1.366-.739 2.316-.739.959 0 1.727.251 2.304.751.577.492.865 1.252.865 2.278v1.171h-5.091v.802c0 .637.157 1.099.471 1.387.323.28.802.42 1.438.42.611 0 1.057-.084 1.337-.254.28-.17.492-.446.636-.827l1.235.356Zm-5.117-3.144v.306h3.818v-.191c0-.687-.161-1.188-.483-1.502-.314-.314-.789-.471-1.426-.471-.636 0-1.115.153-1.438.458-.314.297-.471.764-.471 1.4ZM673.866 296v-1.146h2.546v-7.89h-2.546v-1.146h3.819v9.036h2.545V296h-6.364ZM669.394 296.114c-.84 0-1.493-.207-1.96-.623-.466-.416-.7-1.052-.7-1.909v-4.073h-2.163v-1.145h2.163v-2.546h1.273v2.546h3.309v1.145h-3.309v3.958c0 .492.123.857.369 1.095.246.237.611.356 1.095.356.322 0 .623-.021.903-.064.28-.05.547-.114.802-.19l.255 1.158a7.164 7.164 0 0 1-.93.203c-.322.06-.691.089-1.107.089ZM656.038 296v-1.145h2.546v-5.346h-2.546v-1.145h3.819v6.491h2.545V296h-6.364Zm3.182-9.036c-.322 0-.585-.051-.789-.153-.195-.102-.293-.293-.293-.573v-.089c0-.288.098-.484.293-.585.204-.111.467-.166.789-.166.323 0 .581.055.777.166.203.101.305.297.305.585v.089c0 .28-.102.471-.305.573-.204.102-.463.153-.777.153ZM651.566 296.114c-.84 0-1.493-.207-1.96-.623-.467-.416-.7-1.052-.7-1.909v-4.073h-2.164v-1.145h2.164v-2.546h1.273v2.546h3.309v1.145h-3.309v3.958c0 .492.123.857.369 1.095.246.237.611.356 1.094.356.323 0 .624-.021.904-.064.28-.05.547-.114.802-.19l.254 1.158a7.112 7.112 0 0 1-.929.203c-.322.06-.691.089-1.107.089ZM638.21 298.545l5.091-12.727h1.273l-5.091 12.727h-1.273ZM635.66 295.745l-6.364-3.563v-1.273l6.364-3.564v1.21l-5.346 2.99 5.346 2.991v1.209ZM626.771 294.32c-.229.636-.577 1.099-1.043 1.387-.467.28-1.184.42-2.151.42-1.01 0-1.795-.242-2.355-.725-.56-.492-.84-1.218-.84-2.177v-2.049c0-.984.293-1.718.878-2.201.594-.493 1.366-.739 2.317-.739.958 0 1.726.251 2.303.751.577.492.866 1.252.866 2.278v1.171h-5.091v.802c0 .637.157 1.099.471 1.387.322.28.802.42 1.438.42.611 0 1.056-.084 1.336-.254.28-.17.492-.446.637-.827l1.234.356Zm-5.116-3.144v.306h3.818v-.191c0-.687-.161-1.188-.484-1.502-.314-.314-.789-.471-1.425-.471s-1.116.153-1.438.458c-.314.297-.471.764-.471 1.4ZM615.91 296.114c-.84 0-1.494-.207-1.96-.623-.467-.416-.7-1.052-.7-1.909v-4.073h-2.164v-1.145h2.164v-2.546h1.273v2.546h3.309v1.145h-3.309v3.958c0 .492.123.857.369 1.095.246.237.611.356 1.094.356.323 0 .624-.021.904-.064.28-.05.547-.114.802-.19l.254 1.158a7.112 7.112 0 0 1-.929.203c-.322.06-.691.089-1.107.089ZM602.554 296v-1.145h2.545v-5.346h-2.545v-1.145h3.818v6.491h2.546V296h-6.364Zm3.182-9.036c-.323 0-.586-.051-.789-.153-.195-.102-.293-.293-.293-.573v-.089c0-.288.098-.484.293-.585.203-.111.466-.166.789-.166.322 0 .581.055.776.166.204.101.306.297.306.585v.089c0 .28-.102.471-.306.573-.203.102-.462.153-.776.153ZM596.987 296.076a6.09 6.09 0 0 1-2.138-.369c-.662-.246-1.256-.696-1.782-1.349l.917-.865c.356.483.78.844 1.272 1.081.501.238 1.091.357 1.769.357.628 0 1.133-.145 1.515-.433.39-.297.585-.696.585-1.196 0-.484-.165-.853-.496-1.108-.331-.263-.984-.538-1.96-.827-1.239-.356-2.083-.742-2.533-1.158-.449-.416-.674-1.006-.674-1.769 0-.883.292-1.549.878-1.998.594-.45 1.311-.675 2.151-.675.713 0 1.387.127 2.023.382.645.246 1.214.687 1.706 1.324l-.878.878a3.181 3.181 0 0 0-1.273-1.082 3.632 3.632 0 0 0-1.553-.356c-.534 0-.963.11-1.285.33-.323.213-.484.573-.484 1.082 0 .45.174.806.522 1.069.356.255 1.052.531 2.087.828 1.171.339 1.969.712 2.393 1.12.433.398.649.98.649 1.743 0 .976-.348 1.718-1.044 2.228a3.904 3.904 0 0 1-2.367.763ZM582.201 294.32c-.229.636-.577 1.099-1.044 1.387-.466.28-1.183.42-2.151.42-1.009 0-1.794-.242-2.354-.725-.56-.492-.84-1.218-.84-2.177v-2.049c0-.984.293-1.718.878-2.201.594-.493 1.366-.739 2.316-.739.959 0 1.727.251 2.304.751.577.492.865 1.252.865 2.278v1.171h-5.09v.802c0 .637.156 1.099.47 1.387.323.28.802.42 1.439.42.611 0 1.056-.084 1.336-.254.28-.17.492-.446.636-.827l1.235.356Zm-5.116-3.144v.306h3.818v-.191c0-.687-.162-1.188-.484-1.502-.314-.314-.789-.471-1.425-.471-.637 0-1.116.153-1.439.458-.314.297-.47.764-.47 1.4ZM567.56 290.527V296h-1.171v-7.636h1.171v1.018h.254c.161-.357.373-.637.636-.84.264-.204.539-.306.828-.306.331 0 .606.102.827.306.229.195.386.475.471.84h.28c.161-.357.378-.637.649-.84.28-.204.577-.306.891-.306.424 0 .759.174 1.005.522.246.34.369.802.369 1.387V296h-1.17v-5.651c0-.382-.051-.67-.153-.865-.102-.196-.25-.293-.446-.293-.161 0-.364.119-.611.356-.237.238-.479.564-.725.98V296h-1.171v-5.651c0-.382-.055-.67-.165-.865-.102-.196-.251-.293-.446-.293-.169 0-.369.114-.598.344-.221.229-.462.56-.725.992ZM561.165 296.127c-1.026 0-1.815-.246-2.367-.738-.543-.501-.814-1.218-.814-2.151v-2.062c0-.941.275-1.667.827-2.176.551-.509 1.341-.764 2.367-.764 1.018 0 1.799.255 2.342.764.552.509.827 1.235.827 2.176v2.062c0 .933-.275 1.65-.827 2.151-.543.492-1.328.738-2.355.738Zm0-1.145c.645 0 1.125-.144 1.439-.433.314-.288.471-.725.471-1.311v-2.062c0-.611-.157-1.06-.471-1.349-.314-.297-.794-.445-1.439-.445-.644 0-1.124.148-1.438.445-.314.289-.471.738-.471 1.349v2.062c0 .586.157 1.023.471 1.311.314.289.794.433 1.438.433ZM552.353 296.127a6.277 6.277 0 0 1-1.871-.28 5.364 5.364 0 0 1-1.667-.891l.573-1.005c.415.339.878.598 1.387.776a5.03 5.03 0 0 0 1.578.255c.441 0 .861-.068 1.26-.204.407-.136.611-.424.611-.865 0-.365-.165-.624-.496-.777-.331-.152-.938-.284-1.82-.394-.934-.111-1.642-.327-2.126-.649-.475-.331-.713-.849-.713-1.553 0-.764.289-1.336.866-1.718.577-.391 1.247-.586 2.011-.586.602 0 1.179.102 1.731.306.56.203 1.077.492 1.552.865l-.572 1.006a5.074 5.074 0 0 0-1.273-.751 3.77 3.77 0 0 0-1.438-.28c-.407 0-.781.076-1.12.229-.331.153-.497.433-.497.84 0 .348.153.602.459.764.314.152.912.284 1.794.394.967.11 1.693.348 2.177.713.483.356.725.857.725 1.502 0 .797-.322 1.383-.967 1.756-.645.365-1.366.547-2.164.547ZM546.545 294.32c-.229.636-.577 1.099-1.044 1.387-.467.28-1.184.42-2.151.42-1.01 0-1.794-.242-2.354-.725-.56-.492-.84-1.218-.84-2.177v-2.049c0-.984.292-1.718.878-2.201.594-.493 1.366-.739 2.316-.739.959 0 1.727.251 2.304.751.577.492.865 1.252.865 2.278v1.171h-5.091v.802c0 .637.157 1.099.471 1.387.323.28.802.42 1.438.42.611 0 1.057-.084 1.337-.254.28-.17.492-.446.636-.827l1.235.356Zm-5.117-3.144v.306h3.818v-.191c0-.687-.161-1.188-.483-1.502-.314-.314-.789-.471-1.426-.471-.636 0-1.115.153-1.438.458-.314.297-.471.764-.471 1.4ZM535.543 296l-1.12-4.976-1.069 4.976h-1.451l-1.438-7.636h1.222l.967 6.707.993-5.435h1.502l1.082 5.231.929-6.503h1.221L536.943 296h-1.4ZM526.896 291.927l-1.4-4.671-1.412 4.671h2.812Zm1.222 4.073-.878-2.927h-3.5l-.878 2.927h-1.298l3.283-10.182h1.337L529.467 296h-1.349ZM513.413 295.745v-1.209l5.346-2.991-5.346-2.99v-1.21l6.364 3.564v1.273l-6.364 3.563ZM510.888 294.32c-.229.636-.577 1.099-1.043 1.387-.467.28-1.184.42-2.151.42-1.01 0-1.795-.242-2.355-.725-.56-.492-.84-1.218-.84-2.177v-2.049c0-.984.293-1.718.878-2.201.594-.493 1.367-.739 2.317-.739.959 0 1.726.251 2.303.751.577.492.866 1.252.866 2.278v1.171h-5.091v.802c0 .637.157 1.099.471 1.387.322.28.802.42 1.438.42.611 0 1.056-.084 1.336-.254.28-.17.493-.446.637-.827l1.234.356Zm-5.116-3.144v.306h3.818v-.191c0-.687-.161-1.188-.483-1.502-.314-.314-.79-.471-1.426-.471-.636 0-1.116.153-1.438.458-.314.297-.471.764-.471 1.4ZM495.585 296v-1.146h2.546v-7.89h-2.546v-1.146h3.818v9.036h2.546V296h-6.364ZM491.113 296.114c-.84 0-1.493-.207-1.96-.623-.467-.416-.7-1.052-.7-1.909v-4.073h-2.164v-1.145h2.164v-2.546h1.273v2.546h3.309v1.145h-3.309v3.958c0 .492.123.857.369 1.095.246.237.611.356 1.094.356.323 0 .624-.021.904-.064.28-.05.547-.114.802-.19l.254 1.158a7.112 7.112 0 0 1-.929.203c-.322.06-.691.089-1.107.089ZM477.757 296v-1.145h2.546v-5.346h-2.546v-1.145h3.818v6.491h2.546V296h-6.364Zm3.182-9.036c-.323 0-.586-.051-.789-.153-.195-.102-.293-.293-.293-.573v-.089c0-.288.098-.484.293-.585.203-.111.466-.166.789-.166.322 0 .581.055.776.166.204.101.306.297.306.585v.089c0 .28-.102.471-.306.573-.203.102-.462.153-.776.153ZM473.285 296.114c-.84 0-1.494-.207-1.96-.623-.467-.416-.7-1.052-.7-1.909v-4.073h-2.164v-1.145h2.164v-2.546h1.273v2.546h3.309v1.145h-3.309v3.958c0 .492.123.857.369 1.095.246.237.611.356 1.094.356.323 0 .624-.021.904-.064.28-.05.547-.114.802-.19l.254 1.158a7.112 7.112 0 0 1-.929.203c-.322.06-.691.089-1.107.089ZM466.293 295.745l-6.364-3.563v-1.273l6.364-3.564v1.21l-5.346 2.99 5.346 2.991v1.209ZM486.671 278.745v-1.209l5.346-2.991-5.346-2.99v-1.21l6.364 3.564v1.273l-6.364 3.563ZM480.557 277.918c.416 0 .81-.11 1.184-.331.373-.22.742-.556 1.107-1.005v-3.742a3.048 3.048 0 0 0-.84-.356 3.455 3.455 0 0 0-.955-.128c-.687 0-1.196.153-1.527.458-.331.297-.496.751-.496 1.362v2.049c0 .569.127.993.382 1.273.254.28.636.42 1.145.42Zm1.909-.191c-.22.441-.526.785-.916 1.031-.39.246-.827.369-1.311.369-.789 0-1.4-.254-1.833-.763-.433-.51-.649-1.222-.649-2.139v-2.074c0-.925.289-1.642.866-2.151.577-.509 1.383-.764 2.418-.764.297 0 .602.034.916.102.314.06.611.144.891.255v-2.775h1.273V279h-1.273v-1.273h-.382ZM471.108 278.033c.442 0 .849-.077 1.222-.229.374-.162.696-.437.968-.828v-1.221h-2.291c-.365 0-.671.084-.917.254-.237.161-.356.45-.356.866 0 .364.102.649.305.852.212.204.569.306 1.069.306Zm-.165 1.094a3.044 3.044 0 0 1-1.731-.509c-.501-.348-.751-.903-.751-1.667 0-.67.217-1.196.649-1.578a2.281 2.281 0 0 1 1.54-.573h2.648v-1.095c0-.407-.136-.729-.408-.967-.271-.237-.683-.356-1.234-.356-.56 0-.98.085-1.26.254-.272.162-.488.526-.649 1.095l-1.12-.306c.144-.721.466-1.264.967-1.629.509-.373 1.188-.56 2.036-.56.84 0 1.54.191 2.1.573.56.373.84.955.84 1.744v3.411c0 .458.128.746.382.865.255.11.636.123 1.146.038v1.171a3.337 3.337 0 0 1-1.49-.102c-.458-.152-.708-.555-.75-1.209h-.255c-.238.391-.594.721-1.069.993a3.155 3.155 0 0 1-1.591.407ZM466.318 277.32c-.229.636-.577 1.099-1.044 1.387-.466.28-1.183.42-2.15.42-1.01 0-1.795-.242-2.355-.725-.56-.492-.84-1.218-.84-2.177v-2.049c0-.984.293-1.718.878-2.201.594-.493 1.366-.739 2.317-.739.958 0 1.726.251 2.303.751.577.492.866 1.252.866 2.278v1.171h-5.091v.802c0 .637.157 1.099.471 1.387.322.28.801.42 1.438.42.611 0 1.056-.084 1.336-.254.28-.17.492-.446.636-.827l1.235.356Zm-5.116-3.144v.306h3.818v-.191c0-.687-.161-1.188-.484-1.502-.314-.314-.789-.471-1.425-.471-.637 0-1.116.153-1.438.458-.314.297-.471.764-.471 1.4ZM451.015 279v-10.182h1.273v3.818h.381c.187-.432.48-.772.879-1.018a2.477 2.477 0 0 1 1.361-.382c.764 0 1.366.234 1.808.7.441.467.662 1.099.662 1.897V279h-1.273v-4.9c0-.535-.132-.942-.395-1.222-.254-.288-.623-.433-1.107-.433-.382 0-.772.115-1.171.344-.39.229-.772.56-1.145.993V279h-1.273ZM448.464 278.745l-6.363-3.563v-1.273l6.363-3.564v1.21l-5.345 2.99 5.345 2.991v1.209ZM468.843 261.745v-1.209l5.345-2.991-5.345-2.99v-1.21l6.364 3.564v1.273l-6.364 3.563ZM459.929 262v-1.146h2.545v-7.89h-2.545v-1.146h3.818v9.036h2.546V262h-6.364ZM451.677 256.527V262h-1.171v-7.636h1.171v1.018h.254c.162-.357.374-.637.637-.84.263-.204.538-.306.827-.306.331 0 .607.102.827.306.229.195.386.475.471.84h.28c.161-.357.378-.637.649-.84.28-.204.577-.306.891-.306.424 0 .76.174 1.006.522.246.34.369.802.369 1.387V262h-1.171v-5.651c0-.382-.051-.67-.153-.865-.102-.196-.25-.293-.445-.293-.162 0-.365.119-.611.356-.238.238-.48.564-.726.98V262h-1.171v-5.651c0-.382-.055-.67-.165-.865-.102-.196-.25-.293-.446-.293-.169 0-.369.114-.598.344-.22.229-.462.56-.725.992ZM446.543 262.114c-.84 0-1.494-.207-1.96-.623-.467-.416-.7-1.052-.7-1.909v-4.073h-2.164v-1.145h2.164v-2.546h1.272v2.546h3.309v1.145h-3.309v3.958c0 .492.123.857.369 1.095.247.237.611.356 1.095.356.322 0 .624-.021.904-.064.28-.05.547-.114.801-.19l.255 1.158a7.112 7.112 0 0 1-.929.203c-.323.06-.692.089-1.107.089ZM433.187 262v-10.182h1.272v3.818h.382c.187-.432.48-.772.878-1.018a2.482 2.482 0 0 1 1.362-.382c.764 0 1.366.234 1.808.7.441.467.661 1.099.661 1.897V262h-1.272v-4.9c0-.535-.132-.942-.395-1.222-.254-.288-.624-.433-1.107-.433-.382 0-.772.115-1.171.344-.39.229-.772.56-1.146.993V262h-1.272ZM430.636 261.745l-6.363-3.563v-1.273l6.363-3.564v1.21l-5.345 2.99 5.345 2.991v1.209Z"/><path fill="url(#paint5_linear_212_312)" d="M164.42 0H29.37C15.099 0 3.53 11.569 3.53 25.84v300.69c0 14.271 11.569 25.84 25.84 25.84h135.05c14.271 0 25.84-11.569 25.84-25.84V25.84C190.26 11.569 178.691 0 164.42 0Z"/><path fill="#E1FFFD" d="M159.8 9.98H34c-11.836 0-21.43 9.595-21.43 21.43v289.55c0 11.835 9.594 21.43 21.43 21.43h125.8c11.835 0 21.43-9.595 21.43-21.43V31.41c0-11.835-9.595-21.43-21.43-21.43Z"/><path fill="#fff" d="m113.369 81.69-.09-.06a.43.43 0 0 1-.09-.63l52.66-63.22c.14-.17.38-.2.56-.08l.09.06c.21.14.25.43.09.63l-52.66 63.22a.42.42 0 0 1-.56.08ZM128.62 76.5a.43.43 0 0 1-.09-.63l46.64-55.99c.14-.17.38-.2.56-.08.21.14.25.43.09.63l-46.64 55.99a.42.42 0 0 1-.56.08ZM62.065 36.763l-39.69 53.481a.43.43 0 0 0 .09.602l.112.083a.43.43 0 0 0 .601-.089l39.69-53.482a.43.43 0 0 0-.089-.601l-.112-.084a.43.43 0 0 0-.602.09ZM76.122 30.728 36.432 84.21a.43.43 0 0 0 .09.601l.111.084a.43.43 0 0 0 .602-.09l39.69-53.48a.43.43 0 0 0-.09-.602l-.111-.084a.43.43 0 0 0-.602.09ZM64.629 153.077l-39.69 53.482a.43.43 0 0 0 .089.601l.112.084a.43.43 0 0 0 .602-.09l39.69-53.481a.43.43 0 0 0-.09-.602l-.112-.083a.43.43 0 0 0-.601.089ZM66.632 164.112l-39.69 53.482a.43.43 0 0 0 .09.601l.112.084c.19.141.46.101.601-.089l39.69-53.482a.43.43 0 0 0-.089-.601l-.112-.084a.43.43 0 0 0-.602.089ZM170.007 138.967l-46.671 64.569a.43.43 0 0 0 .096.6l.114.082a.43.43 0 0 0 .6-.096l46.672-64.569a.43.43 0 0 0-.097-.6l-.114-.082a.43.43 0 0 0-.6.096ZM167.995 155.034l-46.671 64.569a.43.43 0 0 0 .097.6l.113.082a.43.43 0 0 0 .601-.097l46.671-64.568a.43.43 0 0 0-.097-.601l-.113-.082a.431.431 0 0 0-.601.097ZM121.749 331.94l-.12-.09a.44.44 0 0 1-.1-.6l43.67-60.55c.14-.19.4-.23.6-.1l.12.09c.19.14.23.4.1.6l-43.67 60.55a.44.44 0 0 1-.6.1ZM172.241 274.714l-35.638 50.502a.43.43 0 0 0 .104.599l.114.081a.43.43 0 0 0 .599-.104l35.639-50.501a.432.432 0 0 0-.104-.6l-.114-.08a.43.43 0 0 0-.6.103ZM24.37 332.95l-.12-.09a.44.44 0 0 1-.1-.6l43.67-60.55c.14-.19.4-.23.6-.1l.12.09c.19.14.23.4.1.6l-43.67 60.55a.44.44 0 0 1-.6.1ZM58.795 270.71l-35.638 50.502a.43.43 0 0 0 .103.599l.114.081a.43.43 0 0 0 .6-.104l35.638-50.501a.431.431 0 0 0-.104-.6l-.114-.08a.43.43 0 0 0-.6.103Z"/><path fill="url(#paint6_linear_212_312)" d="M29.41 9.98h134.72c9.44 0 17.1 7.66 17.1 17.1v17.56H12.57V26.81c0-9.29 7.55-16.84 16.84-16.84v.01Z"/><path fill="#909090" d="M68.12 31.02h-.59v-6.89h.59v1.98c.22-.4.66-.53 1.26-.53 1.4 0 1.87.68 1.87 2.73v2.71h-.59v-2.71c0-1.68-.31-2.19-1.27-2.19s-1.26.27-1.26 1.41v3.49h-.01Zm6.9.12c-1.15 0-1.54-.56-1.54-1.95v-2.97h-1.07v-.54h1.07v-1.54h.59v1.54h1.79v.54h-1.79v2.97c0 1.02.23 1.41.95 1.41.61 0 .79-.12.95-.53l.56.19c-.23.67-.59.89-1.51.89v-.01Zm5.17 0c-1.15 0-1.54-.56-1.54-1.95v-2.97h-1.07v-.54h1.07v-1.54h.59v1.54h1.79v.54h-1.79v2.97c0 1.02.23 1.41.95 1.41.61 0 .79-.12.95-.53l.56.19c-.23.67-.59.89-1.51.89v-.01Zm3.33 1.45h-.59V25.7h.59v.34c.26-.34.73-.46 1.34-.46 1.45 0 1.94.71 1.94 2.77s-.48 2.79-1.94 2.79c-.62 0-1.09-.16-1.34-.61v2.06Zm1.34-1.99c1.02 0 1.34-.54 1.34-2.25s-.33-2.23-1.34-2.23c-.77 0-1.34.19-1.34.69v2.39c0 1.01.5 1.39 1.34 1.39v.01Zm4.89.54c-.85 0-1.25-.23-1.64-.96l.46-.38c.3.61.55.79 1.18.79 1.26 0 1.63-.25 1.63-1.05 0-.7-.31-.91-1.38-1.04-1.33-.16-1.8-.59-1.8-1.41 0-1.14.49-1.51 1.98-1.51.89 0 1.3.2 1.7.81l-.43.42c-.32-.53-.59-.69-1.27-.69-1.08 0-1.39.23-1.39.97 0 .47.3.72 1.22.84 1.47.2 1.95.56 1.95 1.61 0 1.2-.56 1.59-2.22 1.59l.01.01Zm5.38-4.42c-.46 0-.59-.13-.59-.56 0-.43.14-.56.59-.56.45 0 .59.14.59.56 0 .42-.14.56-.59.56Zm0 4.42c-.46 0-.59-.13-.59-.56 0-.43.14-.56.59-.56.45 0 .59.13.59.56 0 .43-.14.56-.59.56Zm3.69 1.45h-.62l3.58-9.73h.62l-3.58 9.73Zm5.17 0h-.62l3.58-9.73h.62l-3.58 9.73Z"/><path fill="#292929" d="M110.5 31.14c-1.4 0-1.87-.4-1.87-1.59 0-1.27.46-1.65 1.87-1.65h1.28v-.45c0-.98-.3-1.29-1.28-1.29-.73 0-.99.2-1.18.88l-.57-.14c.27-.97.7-1.32 1.75-1.32 1.41 0 1.88.51 1.88 1.87v2.19c0 .7.15.85.67.83v.55c-.65 0-.93-.14-1.07-.62-.32.56-.7.74-1.48.74Zm0-.54c.98 0 1.28-.34 1.28-1.47v-.68h-1.28c-.99 0-1.27.22-1.27 1.1 0 .8.28 1.05 1.27 1.05Zm4.45.42h-.56l-.93-5.32h.6l.7 4.13.77-2.49h.55l.76 2.49.71-4.13h.6l-.94 5.32h-.56l-.84-2.68-.85 2.68h-.01Zm6.04-.42c.65 0 .98-.18 1.41-.73l.47.32c-.52.72-.96.96-1.89.96-1.57 0-2.07-.67-2.07-2.78s.49-2.78 2.07-2.78c1.58 0 2.04.69 2.04 2.87h-3.51c.03 1.63.39 2.15 1.47 2.15l.01-.01Zm0-4.48c-1.02 0-1.41.43-1.46 1.77h2.89c0-1.34-.34-1.77-1.43-1.77Zm4.94 5.02c-.85 0-1.25-.23-1.64-.96l.46-.38c.3.61.55.79 1.18.79 1.26 0 1.63-.25 1.63-1.05 0-.7-.31-.91-1.38-1.04-1.33-.16-1.8-.59-1.8-1.41 0-1.14.49-1.51 1.98-1.51.89 0 1.3.2 1.7.81l-.43.42c-.32-.53-.59-.69-1.27-.69-1.08 0-1.39.23-1.39.97 0 .47.3.72 1.22.84 1.47.2 1.95.56 1.95 1.61 0 1.2-.56 1.59-2.22 1.59l.01.01Zm5.38 0c-1.45 0-1.93-.71-1.93-2.78s.47-2.78 1.93-2.78 1.94.71 1.94 2.78-.48 2.78-1.94 2.78Zm0-.54c1.02 0 1.34-.53 1.34-2.24 0-1.71-.33-2.24-1.34-2.24s-1.33.53-1.33 2.24c0 1.71.32 2.24 1.33 2.24Zm3.59.42h-.59V25.7h.59v.34c.23-.35.42-.46.79-.46.46 0 .65.17.84.7.29-.53.54-.7 1.03-.7.83 0 1.08.49 1.08 2.02v3.42h-.59V27.6c0-1.1-.12-1.45-.49-1.45-.6 0-.78.34-.78 1.44v3.43h-.59v-3.37c0-1.14-.12-1.51-.49-1.51-.6 0-.79.34-.79 1.44v3.43l-.01.01Zm6.76-.42c.65 0 .98-.18 1.41-.73l.47.32c-.52.72-.96.96-1.89.96-1.57 0-2.07-.67-2.07-2.78s.49-2.78 2.07-2.78c1.58 0 2.04.69 2.04 2.87h-3.51c.03 1.63.39 2.15 1.47 2.15l.01-.01Zm0-4.48c-1.02 0-1.41.43-1.46 1.77h2.89c0-1.34-.34-1.77-1.43-1.77Zm5.15 5.02c-.46 0-.59-.13-.59-.56 0-.43.14-.56.59-.56.45 0 .59.13.59.56 0 .43-.14.56-.59.56Zm4.95 0c-.85 0-1.25-.23-1.64-.96l.46-.38c.3.61.55.79 1.18.79 1.26 0 1.63-.25 1.63-1.05 0-.7-.31-.91-1.38-1.04-1.33-.16-1.8-.59-1.8-1.41 0-1.14.49-1.51 1.98-1.51.89 0 1.3.2 1.7.81l-.43.42c-.32-.53-.59-.69-1.27-.69-1.08 0-1.39.23-1.39.97 0 .47.3.72 1.22.84 1.47.2 1.95.56 1.95 1.61 0 1.2-.56 1.59-2.22 1.59l.01.01Zm5.43-6.46c-.42 0-.55-.12-.55-.52s.13-.53.55-.53c.42 0 .56.12.56.53 0 .41-.14.52-.56.52Zm.48 1.02v4.78h1.51v.54h-3.61v-.54h1.51v-4.23H156v-.54h1.68l-.01-.01Zm5.2 5.44c-1.15 0-1.54-.56-1.54-1.95v-2.97h-1.07v-.54h1.07v-1.54h.59v1.54h1.79v.54h-1.79v2.97c0 1.02.23 1.41.95 1.41.61 0 .79-.12.95-.53l.56.19c-.23.67-.59.89-1.51.89v-.01Zm4.63-.54c.65 0 .98-.18 1.41-.73l.47.32c-.52.72-.96.96-1.89.96-1.57 0-2.07-.67-2.07-2.78s.49-2.78 2.07-2.78c1.58 0 2.04.69 2.04 2.87h-3.51c.03 1.63.39 2.15 1.47 2.15l.01-.01Zm0-4.48c-1.02 0-1.41.43-1.46 1.77h2.89c0-1.34-.34-1.77-1.43-1.77Z"/><path fill="#34C749" fill-rule="evenodd" d="M53.45 31.02c2.09 0 3.79-1.7 3.79-3.79s-1.7-3.79-3.79-3.79-3.79 1.7-3.79 3.79 1.7 3.79 3.79 3.79Z" clip-rule="evenodd"/><path fill="#FDBC40" fill-rule="evenodd" d="M41.14 31.02c2.09 0 3.79-1.7 3.79-3.79s-1.7-3.79-3.79-3.79-3.79 1.7-3.79 3.79 1.7 3.79 3.79 3.79Z" clip-rule="evenodd"/><path fill="#FC605C" fill-rule="evenodd" d="M28.83 31.02c2.09 0 3.79-1.7 3.79-3.79s-1.7-3.79-3.79-3.79-3.79 1.7-3.79 3.79 1.7 3.79 3.79 3.79Z" clip-rule="evenodd"/><path fill="url(#paint7_linear_212_312)" d="M94.27 403.24c52.064 0 94.27-4.034 94.27-9.01s-42.206-9.01-94.27-9.01c-52.064 0-94.27 4.034-94.27 9.01s42.206 9.01 94.27 9.01Z" opacity=".22"/><path fill="url(#paint8_linear_212_312)" d="M152.22 132.45H35.43c-2.03 0-3.68-1.14-3.68-2.55s1.65-2.55 3.68-2.55h116.79c2.03 0 3.68 1.14 3.68 2.55s-1.65 2.55-3.68 2.55Z"/><path fill="url(#paint9_linear_212_312)" d="M152.22 152.14H35.43c-2.03 0-3.68-1.14-3.68-2.55s1.65-2.55 3.68-2.55h116.79c2.03 0 3.68 1.14 3.68 2.55s-1.65 2.55-3.68 2.55Z"/><path fill="url(#paint10_linear_212_312)" d="M152.22 171.83H35.43c-2.03 0-3.68-1.14-3.68-2.55s1.65-2.55 3.68-2.55h116.79c2.03 0 3.68 1.14 3.68 2.55s-1.65 2.55-3.68 2.55Z"/><path fill="url(#paint11_linear_212_312)" d="M152.22 191.52H35.43c-2.03 0-3.68-1.14-3.68-2.55s1.65-2.55 3.68-2.55h116.79c2.03 0 3.68 1.14 3.68 2.55s-1.65 2.55-3.68 2.55Z"/><path fill="#fff" d="M55.71 249.77h-.06a1.35 1.35 0 0 0-1.35 1.35v30.01c0 .746.605 1.35 1.35 1.35h.06a1.35 1.35 0 0 0 1.35-1.35v-30.01a1.35 1.35 0 0 0-1.35-1.35Z"/><path fill="url(#paint12_linear_212_312)" d="M61.7 284.23a1.38 1.38 0 0 0-2.76 0v16.35a1.38 1.38 0 0 0 2.76 0v-16.35Z"/><path fill="url(#paint13_linear_212_312)" d="M141.62 284.23a1.38 1.38 0 0 0-2.76 0v16.35a1.38 1.38 0 0 0 2.76 0v-16.35Z"/><path fill="url(#paint14_linear_212_312)" d="M132.4 287.22a1.38 1.38 0 0 0-2.76 0v19.07a1.38 1.38 0 0 0 2.76 0v-19.07Z"/><path fill="url(#paint15_linear_212_312)" d="M36.71 287.22a1.38 1.38 0 0 0-2.76 0v19.07a1.38 1.38 0 0 0 2.76 0v-19.07Z"/><path fill="#fff" d="M137.5 249.77h-.06a1.35 1.35 0 0 0-1.35 1.35v30.01c0 .746.605 1.35 1.35 1.35h.06a1.35 1.35 0 0 0 1.35-1.35v-30.01a1.35 1.35 0 0 0-1.35-1.35Z"/><path fill="#FFCBDF" d="M142.65 252.19H52.93a4.04 4.04 0 0 0-4.04 4.04v.21a4.04 4.04 0 0 0 4.04 4.04h89.72a4.04 4.04 0 0 0 4.04-4.04v-.21a4.04 4.04 0 0 0-4.04-4.04ZM142.65 262.28H52.93a4.04 4.04 0 0 0-4.04 4.04v.21a4.04 4.04 0 0 0 4.04 4.04h89.72a4.04 4.04 0 0 0 4.04-4.04v-.21a4.04 4.04 0 0 0-4.04-4.04ZM142.65 272.38H52.93a4.04 4.04 0 0 0-4.04 4.04v.21a4.04 4.04 0 0 0 4.04 4.04h89.72a4.04 4.04 0 0 0 4.04-4.04v-.21a4.04 4.04 0 0 0-4.04-4.04ZM136.04 287.21H31.25c-.58 0-.81-.75-.34-1.08l5.17-3.55c.1-.07.22-.1.34-.1h104.53c.57 0 .81.73.35 1.07l-4.91 3.55c-.1.07-.22.11-.35.11Z"/><path fill="#F3795C" d="M55.69 257.56a1.22 1.22 0 1 0 0-2.44 1.22 1.22 0 0 0 0 2.44ZM55.69 267.65a1.22 1.22 0 1 0 0-2.44 1.22 1.22 0 0 0 0 2.44ZM55.69 277.75a1.22 1.22 0 1 0 0-2.44 1.22 1.22 0 0 0 0 2.44ZM137.48 257.56a1.22 1.22 0 1 0 0-2.44 1.22 1.22 0 0 0 0 2.44ZM137.48 267.65a1.22 1.22 0 1 0 0-2.44 1.22 1.22 0 0 0 0 2.44ZM137.48 277.75a1.22 1.22 0 1 0 0-2.44 1.22 1.22 0 0 0 0 2.44Z"/><path fill="url(#paint16_linear_212_312)" d="M143.47 295.19c-.43-4.56 4.51.2 5.4 4.41.11-1.49.29-3.26.55-5.15.03-.23.07-.46.1-.69-.83-.37-4.57-2.3-4.26-6.98.29-4.44 4.2.63 4.6 4.86.36-2.08.79-4 1.29-5.76-.9-.5-4.32-2.7-3.69-7.24.63-4.5 4.29 1.16 4.24 5.45.71-2.15 1.53-4.01 2.46-5.58-.23-1.53-.35-5.29 3.37-7.71 4.57-2.97 1.57 5.99-2.67 8.15-.92 1.56-1.68 3.34-2.31 5.21 3.13-2.96 9.98-4.03 7-.54-2.68 3.14-6.14 2.56-7.5 2.16-.7 2.4-1.2 4.84-1.55 7.05 2.76-3.4 10.74-4.87 7.56-1.15-2.83 3.32-6.52 2.48-7.71 2.09a85.155 85.155 0 0 0-.7 6.58c2.15-3.81 9.68-6.62 7.22-2.41-2.24 3.83-6.11 3.58-7.28 3.41-.1 1.76-.11 2.85-.11 2.87h-.83s0-1.1.11-2.83c-.96-.26-4.85-1.61-5.28-6.2h-.01Z"/><path fill="url(#paint17_linear_212_312)" d="M131.86 295.48c-1.02-3.53 3.59-.51 4.92 2.68-.13-1.2-.26-2.61-.33-4.15 0-.19-.02-.37-.02-.56-.71-.17-3.95-1.14-4.4-4.88-.43-3.55 3.41-.13 4.35 3.16-.02-1.7.03-3.28.16-4.74-.79-.26-3.81-1.49-3.99-5.17-.17-3.65 3.56.28 4.16 3.68.24-1.8.61-3.39 1.12-4.77-.41-1.18-1.06-4.12 1.52-6.59 3.17-3.03 2.13 4.5-.9 6.83-.49 1.37-.83 2.89-1.05 4.45 2.04-2.8 7.28-4.66 5.44-1.46-1.65 2.88-4.47 2.93-5.6 2.82-.2 2-.23 4-.18 5.79 1.67-3.1 7.76-5.43 5.8-2.03-1.75 3.04-4.78 2.92-5.77 2.8 0 .21.02.43.03.63.09 1.76.24 3.37.39 4.66 1.13-3.33 6.66-6.66 5.34-2.98-1.2 3.35-4.3 3.73-5.24 3.77.18 1.4 1.56 7.16 1.56 7.18l-.65.12s-1.38-5.76-1.56-7.14c-.8-.07-4.07-.55-5.09-4.11l-.01.01Z"/><path fill="url(#paint18_linear_212_312)" d="M168.09 297.53c.72-2.5-2.54-.36-3.48 1.9.09-.85.18-1.85.23-2.93 0-.13.01-.27.02-.4.5-.12 2.79-.81 3.11-3.45.3-2.51-2.41-.09-3.08 2.23a35.3 35.3 0 0 0-.12-3.35c.56-.18 2.69-1.06 2.82-3.66.12-2.58-2.52.2-2.94 2.6-.17-1.27-.44-2.4-.79-3.37.29-.83.75-2.92-1.08-4.66-2.24-2.14-1.5 3.18.64 4.83.35.97.59 2.04.75 3.15-1.44-1.98-5.15-3.29-3.85-1.03 1.17 2.03 3.16 2.07 3.96 1.99.14 1.41.16 2.83.13 4.1-1.18-2.19-5.49-3.84-4.1-1.43 1.24 2.15 3.38 2.06 4.08 1.97 0 .15-.01.3-.02.45-.06 1.25-.17 2.38-.27 3.3-.8-2.35-4.71-4.71-3.78-2.1.85 2.37 3.04 2.64 3.71 2.66-.13.99-1.1 5.06-1.1 5.08l.46.08s.97-4.07 1.1-5.05c.56-.05 2.87-.39 3.6-2.91Z"/><path fill="url(#paint19_linear_212_312)" d="M21.01 297.01c-.8-2.47 2.53-.44 3.54 1.79-.12-.84-.24-1.84-.33-2.92l-.03-.4c-.5-.1-2.82-.72-3.22-3.35-.38-2.5 2.4-.17 3.15 2.13-.05-1.2-.05-2.32.01-3.35-.56-.17-2.73-.97-2.93-3.56-.2-2.57 2.52.12 3.02 2.5.13-1.28.36-2.41.68-3.4-.32-.82-.84-2.89.93-4.69 2.17-2.21 1.6 3.13-.48 4.85-.32.98-.52 2.06-.64 3.17 1.38-2.02 5.04-3.46 3.81-1.16-1.1 2.07-3.09 2.17-3.89 2.11-.09 1.41-.07 2.83 0 4.1 1.11-2.23 5.36-4.01 4.05-1.56-1.17 2.19-3.31 2.17-4.02 2.1l.03.45c.1 1.24.24 2.38.38 3.29.73-2.38 4.56-4.86 3.71-2.22-.78 2.4-2.95 2.73-3.62 2.78.16.99 1.26 5.03 1.26 5.04l-.46.1s-1.1-4.04-1.26-5.01c-.57-.03-2.88-.3-3.69-2.79Z"/><path fill="url(#paint20_linear_212_312)" d="M50.57 282.19c.05-4.29-4.2.54-4.71 4.55-.22-1.39-.52-3.02-.91-4.77-.05-.22-.1-.43-.15-.64.74-.41 4.09-2.51 3.44-6.86-.62-4.12-3.87.91-3.92 4.9-.5-1.92-1.05-3.68-1.65-5.28.8-.54 3.83-2.86 2.89-7.05-.94-4.16-3.92 1.42-3.54 5.43-.83-1.95-1.74-3.63-2.74-5.02.1-1.45-.08-4.97-3.75-6.94-4.51-2.42-1 5.72 3.13 7.41.98 1.38 1.83 2.99 2.56 4.68-3.16-2.52-9.64-2.99-6.58.04 2.75 2.73 5.93 1.91 7.18 1.43.84 2.18 1.5 4.43 2 6.46-2.84-2.97-10.42-3.71-7.15-.48 2.91 2.88 6.29 1.81 7.37 1.36.06.24.11.49.17.72.45 2.01.78 3.87 1.01 5.37-2.31-3.4-9.57-5.43-6.93-1.69 2.4 3.4 5.99 2.87 7.07 2.62.23 1.63 1.37 12.12 1.37 12.14l.77-.07s-1.14-10.49-1.36-12.1c.88-.32 4.4-1.88 4.45-6.2l-.02-.01Z"/><path fill="url(#paint21_linear_212_312)" d="M45.42 293.5c-.45-3.76-3.62.96-3.6 4.52-.35-1.19-.8-2.59-1.34-4.07-.07-.18-.14-.36-.2-.54.6-.44 3.3-2.67 2.23-6.4-1.01-3.54-3.29 1.24-2.87 4.74-.66-1.62-1.34-3.1-2.05-4.44.64-.56 3.02-2.94 1.72-6.51-1.29-3.53-3.27 1.69-2.48 5.15-.95-1.61-1.94-2.98-2.97-4.08-.08-1.28-.64-4.34-4.08-5.65-4.22-1.61-.22 5.12 3.59 6.13 1.02 1.1 1.95 2.41 2.78 3.81-3.05-1.85-8.78-1.52-5.76.79 2.72 2.07 5.41.99 6.45.43.98 1.82 1.82 3.71 2.49 5.43-2.83-2.27-9.54-2.06-6.32.4 2.87 2.19 5.71.86 6.6.34.08.21.15.41.23.61.62 1.71 1.12 3.3 1.5 4.59-2.41-2.71-9-3.66-6.26-.69 2.49 2.7 5.58 1.83 6.49 1.48.39 1.4.59 2.29.59 2.31l.67-.15s-.2-.89-.58-2.27c.73-.38 3.64-2.15 3.19-5.94l-.02.01Z"/><path fill="url(#paint22_linear_212_312)" d="M56.53 294.86c-.4-.23-1.25.48-2.08 1.67.02-.21.03-.42.04-.64.06-2.05-.35-3.72-.94-3.74-.58-.02-1.11 1.63-1.17 3.68v.57c-.61-1.43-1.36-2.37-1.81-2.21-.55.19-.47 1.91.19 3.85.6 1.78 1.47 3.13 2.04 3.19.03.04.06.08.1.1.51.29 1.73-.93 2.74-2.72 1.01-1.79 1.41-3.47.9-3.75h-.01Z"/><path fill="url(#paint23_linear_212_312)" d="M70.89 301.17c-.4-.23-1.25.48-2.08 1.67.02-.21.03-.42.04-.64.06-2.05-.35-3.72-.94-3.74-.58-.02-1.11 1.63-1.17 3.68v.57c-.61-1.43-1.36-2.37-1.81-2.21-.55.19-.47 1.91.19 3.85.6 1.78 1.47 3.13 2.04 3.19.03.04.06.08.1.1.51.29 1.73-.93 2.74-2.72 1.01-1.79 1.41-3.47.9-3.75h-.01Z"/><path fill="url(#paint24_linear_212_312)" d="M122.03 298.38c-.35-.2-1.1.43-1.83 1.47.01-.18.03-.37.03-.57.06-1.8-.31-3.28-.82-3.3-.51-.02-.97 1.43-1.03 3.24v.51c-.54-1.25-1.2-2.08-1.6-1.95-.49.16-.41 1.68.16 3.39.53 1.57 1.3 2.75 1.79 2.81.03.04.05.07.09.09.45.25 1.53-.82 2.41-2.39.88-1.57 1.24-3.05.8-3.3Z"/><path fill="url(#paint25_linear_212_312)" d="M161.68 301.58c-.36-.17-1.14.39-1.92 1.3.02-.16.03-.32.04-.49.09-1.56-.27-2.83-.8-2.84-.53 0-1.03 1.25-1.12 2.81 0 .15-.01.29-.01.44-.54-1.08-1.21-1.78-1.62-1.66-.5.15-.45 1.46.12 2.93.52 1.35 1.3 2.36 1.81 2.4.03.03.06.06.09.07.46.21 1.59-.73 2.53-2.1.94-1.37 1.33-2.66.87-2.87l.01.01Z"/><path fill="url(#paint26_linear_212_312)" d="M109.53 295.27c-.36-.17-1.14.39-1.92 1.3.02-.16.03-.32.04-.49.09-1.56-.27-2.83-.8-2.84-.53 0-1.03 1.25-1.12 2.81 0 .15-.01.29-.01.44-.54-1.08-1.21-1.78-1.62-1.66-.5.15-.45 1.46.12 2.93.52 1.35 1.3 2.36 1.81 2.4.03.03.06.06.09.07.46.21 1.59-.73 2.53-2.1.94-1.37 1.33-2.66.87-2.87l.01.01Z"/><path fill="#8C4443" d="M94.18 238.5s-.2 2.63-.38 3.04c-.18.41-.61 1.38-6.53 3.12 0 0 1.95 2.46 9.42 2.53 7.47.08 9.86-2.56 9.86-2.56s-5.15-1.23-6.27-2.36c-1.12-1.13-.96-4.29-.96-4.29l-1.73.87h-2.28l-1.13-.37v.02Z"/><path fill="#8C4443" d="M92.6 228.69s-1.64 1.2-1.69 1.56c-.05.36-.56 2.36-.56 2.36s-.44.74-.38.87.54.95.54.95l.9.51.46.41s.84 1.89 1.59 2.56c.63.57 1.38 1.09 2.19 1.35 1.67.54 3.12-.47 4.1-1.76.71-.93 1.22-2.02 1.59-3.13.61-1.84 3.43-2.07 3.43-2.07s-2.18-.74-2.28-.74c-.1 0-.44-.72-.44-.72s-.72-1.36-.9-1.66c-.18-.3-2.43-2.1-2.43-2.1s-3.79-.56-3.97-.49c-.18.07-2.15 2.1-2.15 2.1Z"/><path fill="#763635" d="M94.18 238.5s1.1 1.01 2.73.89 2.41-1.39 2.41-1.39-.13 2.45.41 3.37c0 0-3.74.03-5.55-2.87Z"/><path fill="#330504" d="M96.43 227.5c.15-.04-.4 0 .47 0s.03-.42.87 0 .46.19.84.42c.38.23.69-.04.73.31.04.35.31.42.67.54.36.12.56-.04.58.42.02.46-.29.35.17.73.46.38.92 0 .61.65-.31.65-.38.95-.31 1.01.07.06.23.19.08.28-.15.09-.35.28-.27.45.08.17.04.64.15.54.11-.1.15.14.27 0 .12-.14.35-.27.35-.36 0-.09.19-.43.38-.4.19.03.35.07.35.21 0 .14.42.45 0 .54-.42.09-.73.43-.73.43v2.39s.81.25.92.3c.11.05.39.27.43-.23.04-.5-.35-.27.04-.5.39-.23.38.27.81-.27.43-.54.27-.58.42-.83.15-.25 0-.17.5-.25.5-.08.77.12.61-.28-.16-.4-.73-.82-.19-.77.54.05-.04.28.54.05.58-.23.58-.49.54-.55-.04-.06-.23-.5-.23-.5s.2-.33.52-.44c.32-.11.17-.41.17-.63 0-.22-.08-.3.19-.49s-.12-.35 0-.5c.12-.15-.08.15.38-.23s.46.04.46-.38.65-.19 0-.65l-.65-.46c.15-.42.31-.68.27-.76-.04-.08-.15-.12-.23-.39-.08-.27-.35-.42-.15-.69.2-.27.35-.38.19-.61-.16-.23-.87-.23-.63-.61s.47.12.47-.46c0-.58-.35-.54-.31-.88.04-.34.61-.81.35-1-.26-.19-.88-.31-1.15-.35-.27-.04-.31.08-.35-.31-.04-.39.42-.27-.23-.65s-.42-.31-.58-.61c-.16-.3-.42-.65-.42-.65s.65-.77.08-.84c-.57-.07-.77.12-1.08 0-.31-.12-.08-.31-.38-.38s-.58 0-.58 0 .12-.77-.35-.84c-.47-.07-.92.46-1.04 0s.46-.42-.19-.73-.57-.61-1.07-.35c-.5.26-.14.42-.7.38-.56-.04-.18.35-.57-.04-.39-.39.5-.35-.38-.38-.88-.03-.97.04-1.18.12-.21.08-.27.23-.51.08-.24-.15.11-.32-.47-.26s0-.09-.58.06-.65-.04-.84.12c-.19.16.35-.08-.19.15-.54.23-.62.19-.89.15-.27-.04-.5-.19-.61.08-.11.27 0 .35-.46.35s-.96-.23-1.06 0c-.1.23-.1.58-.56.54-.46-.04-1.08.15-1.31.65-.23.5-.08.92-.5 1.04s-1.08.12-1.11.5c-.03.38.35.92 0 1.04s-1.42.42-1.27.84c.15.42.24.58-.01.84s-.79 1.04-.64 1.38c.15.34.41.73-.03 1-.44.27-.55.77-.28 1.19.27.42-.21.31-.14 1.31.07 1 .68 1.11.49 1.5-.19.39-.58.78-.12 1.22.46.44 1.19.56.96 1.07-.23.51.63.6.49 1s-.37.6.17.77c.54.17.81.4.81.53s.08.56.38.63c.3.07.65 0 .77.12s.47.65.56.58c.09-.07-.54-.05.29-.15l.83-.11s.83.43.33-.29c-.5-.72-.99-.15-.9-.51.09-.36.05-.13-.03-.59-.08-.46-.08-.8-.04-.84.04-.04-.41-.43-.09-.39.32.04.55-.32.59-.1.04.22.42 1.18.42 1.18s.18.17.33-.05c.13-.19-.1-.63-.18-.77-.08-.14-.16-.18.13-.73.29-.55-.24-.27-.09-.55s-.27-.5.15-.79c.42-.29-.12-1.02.5-1.33.62-.31.71-.46.83-.61.12-.15 0-.54.39-.5.39.04.08.15.39.04.31-.11.47-.31.47-.31s-.19-.27.04-.35c.23-.08.3-.19.41-.19.11 0-.08.31.31.08l.38-.23s.01-.38.26-.31.74.42.74.42l.03-.02Z"/><path fill="url(#paint27_linear_212_312)" d="M91.53 235.22a.56.56 0 1 0-.79-.51c0 .23.13.42.33.51-.47.18-.83.92-.83 1.8 0 1.02.47 1.85 1.06 1.85.59 0 1.06-.83 1.06-1.85 0-.88-.35-1.62-.83-1.8Z"/><path fill="url(#paint28_linear_212_312)" d="M101.88 234.69a.56.56 0 1 0-.79-.51c0 .23.13.42.33.51-.47.18-.83.92-.83 1.8 0 1.02.47 1.85 1.06 1.85.59 0 1.06-.83 1.06-1.85 0-.88-.35-1.62-.83-1.8Z"/><path fill="#FF7A7F" d="M63.4 249.96s.58-1.31 3.26-1.65l3.53 8.45s-.12.38.61 0 11.48-9.02 11.48-9.02 3.89-2.96 4.98-3.07c0 0 2.05 2.18 7.42 2.45 5.38.28 9.57-.47 11.85-2.48 0 0 1.86.1 3.62 3.6 1.77 3.49 4.26 12.75 4.26 12.75s1.61 5.64 2.04 9.41c.43 3.77 1 5.8 1 6.03 0 .23.58 1.69 0 1.96s-3.19 1.19-3.19 1.19-.88.46-1.42-1.54c-.54-2-2.04-9.18-2.04-9.18l-3.26-10.52s-1.08 11.28-.23 13.39l-19.97.5-.46-9.4s-.46-5.99-2.07-8.06l-7.91 5.72-4.3 2.8s-3.11 1.46-5.26-1.42-3.96-11.9-3.96-11.9l.02-.01Z"/><path fill="url(#paint29_linear_212_312)" d="M89.84 272s-1.06-1.04-3.26-.23c-2.2.81-3.58 3.22-3.48 5.22.1 2 .56 4.23 2.43 4.88 1.87.65 5.83 4.62 5.83 4.62v12.98l-.43 11.01s2.1 1.59 5.58 0c0 0 .2 0 .56-.56.36-.56 3.17-28.01 3.17-28.01s2.73-10.1-10.41-9.91h.01Z"/><path fill="url(#paint30_linear_212_312)" d="M81.36 291.94s2.92 1.28 4.86.36c1.94-.92 10.29-12.19 11.62-17.31 0 0 2.82 1.79 2.41 6.91 0 0 4.04 1.43 7.07-.61 3.03-2.04 2.61-6.09 2.51-6.66-.1-.57-.61-2.92-5.53-5.48l-5.79-3.29-2-.86s-3.14-1.13-4.52 2.05c-1.38 3.17-10.63 24.37-10.63 24.37v.52Z"/><path fill="#8C4443" d="M64.81 239.88s-.11-.11-.35 0-.16.79-.16.79-.08.9.08 1.1c0 0-.11.29-.08.48s.24.83.04 1.07l-.35.73.05 1.74-.22 1.42-.94.25-.78.07s.23.33.36.4c.13.07.74.56.78.6.04.04.24.21.24.21s1.86-.37 2.75-1.56l-.07-2.26c-.01-.39-.11-.81-.24-1.18-.08-.21-.17-.41-.23-.62-.06-.21-.07-.43-.11-.64-.04-.22-.09-.44-.15-.65l-.24-.91s-.13-.91-.38-1.02v-.02Z"/><path fill="#763635" d="M64.59 239.84c-.1.05-.12.18-.13.28-.02.19-.04.46-.02.65.01.16.06.3.12.45.04.11.18.31.07.41-.17.16-.13.45-.09.66.06.37.2.75.12 1.13-.07.33-.14.66-.22.99-.04.17-.12.37-.12.54l-.02-1.71s.18.19.13-.44l-.11-.56s-.04-.17.08-.48c0 0-.57-1.71.21-1.93l-.02.01Z"/><path fill="url(#paint31_linear_212_312)" d="M63.47 238.04h-3.54a.84.84 0 0 0-.84.84v8.16c0 .464.376.84.84.84h3.54a.84.84 0 0 0 .84-.84v-8.16a.84.84 0 0 0-.84-.84Z"/><path fill="url(#paint32_linear_212_312)" d="M63.5 238.42h-3.6a.5.5 0 0 0-.5.5v8.07a.5.5 0 0 0 .5.5h3.6a.5.5 0 0 0 .5-.5v-8.07a.5.5 0 0 0-.5-.5Z"/><path fill="#8C4443" d="M59.1 239.27c0-.05-.12-.17-.16-.21-.18-.19-.51-.34-.76-.16-.2.15-.22.4-.12.57.1.17.62.82.72 1.05l.27.42.04-1.68.01.01Z"/><path fill="#763635" d="M59.02 239.15s.05.77-.37 1.13l.45.7v-1.74l-.07-.09h-.01Z"/><path fill="#8C4443" d="M59.15 241.08s.05.02.08.03c.12.04.23.07.35.11.24.08.32.29.25.53-.03.12-.09.25-.18.34-.11.1-.26.11-.4.1-.17-.01-.33-.06-.5-.1-.16-.04-.32-.1-.46-.2s-.14-.29-.11-.44c.04-.18.12-.34.29-.42a.65.65 0 0 1 .39-.04c.1.02.19.05.28.09h.01Z"/><path fill="#763635" d="M59.32 241.15s.25.2.26.5c.01.3-.26.55-.26.55s.15.02.32-.07c0 0 .24-.16.22-.47-.02-.31-.1-.42-.55-.5l.01-.01Z"/><path fill="#8C4443" d="M59.51 242.41c-.08-.04-.16-.07-.25-.1-.16-.05-.31-.11-.47-.16 0 0-.29-.1-.47.12-.17.21-.1.5.13.63.15.09.33.13.5.2.17.07.33.18.51.12.22-.06.36-.25.32-.48a.44.44 0 0 0-.27-.33Z"/><path fill="#763635" d="M59.44 242.37s.15.19.11.44c-.02.11-.09.21-.17.29-.04.04-.09.07-.14.11 0 0 .07.04.15.03.07 0 .11-.03.17-.06a.41.41 0 0 0 .2-.21.62.62 0 0 0 .04-.23c0-.1-.03-.18-.1-.24a.794.794 0 0 0-.26-.13Z"/><path fill="#8C4443" d="M59.43 243.37c-.06-.03-.13-.04-.19-.06l-.37-.09s-.23-.06-.34.14c-.11.18-.03.4.15.49.12.06.26.08.39.11s.26.11.39.06c.16-.07.25-.23.21-.41a.368.368 0 0 0-.23-.24h-.01Z"/><path fill="#763635" d="M59.38 243.35s.13.14.12.34c0 .09-.05.18-.1.25-.03.04-.06.06-.1.1 0 0 .06.02.11.01.05 0 .08-.03.13-.06.06-.04.11-.11.13-.18.02-.06.02-.13.01-.18 0-.08-.03-.14-.1-.19a.456.456 0 0 0-.21-.08l.01-.01Z"/><path fill="#8C4443" d="m63.48 248.73.09.98s.68-1.01 2.81-1.36l-.14-1.18s-2.22 1.4-2.75 1.56h-.01ZM114.28 279.57l2.96-1.09s.61 1.36 1.53 1.98c.92.62 1.65 2.36 1.65 2.36s.31.79.25 1.09c-.06.3-.29.44-.29.44s-.29-1.86-.81-2.19c0 0 .36.96.44 1.36.08.4.48 1.92.19 2.15 0 0-.19.25-.38-.1s-.31-2.53-.75-3.05c0 0 .02.44.23 1.54.21 1.1.35 1.96.25 2.25-.1.29-.23.42-.23.42s-.44.23-.61-.56c-.17-.79-.02-1.52-.61-3.24 0 0-.1.29.15 1.5s.42 2.23.25 2.34c-.17.11-.5.35-.86-.7-.36-1.05-.15-2.04-.84-2.67-.69-.63-.69-.58-.81-.5-.12.08-.06.63.4 1.23s.38 1.36.31 1.52c-.07.16-.36.33-.79-.1 0 0-.19-.52-.5-.94-.31-.42-.71-1.11-1.01-2.27-.3-1.16-.12-2.76-.12-2.76v-.01ZM81.77 292.1l-1.43 1.88s.92 1.15 2.63 1.29c1.71.14 2.46-.5 2.96-1.46l.3-1.51s-2.22.74-4.46-.2Z"/><path fill="#4CBDBC" d="m80.34 293.98-3.25 3.33-2.76 2.82s-.26.33.2.61c.46.28 1.43 1.13 4.58.59 3.15-.54 6.66-2.97 6.66-2.97s.9-.82.95-1.46c.05-.64.24-2.02-.79-3.1 0 0-.62 1.33-2.49 1.2-1.87-.13-3.1-1.03-3.1-1.03v.01Z"/><path fill="#F3795C" d="M74.25 300.44c.1.55.08 1.19.63 1.47.74.38 1.64.42 2.46.42 3.24.03 6.1-1.7 8.76-3.35.08-.05.17-.1.22-.18.31-.44.2-1.18.33-1.69-.26.53-.66.98-1.12 1.34-.64.51-1.39.88-2.12 1.24-1.61.81-3.36 1.69-5.2 1.76-1.26.05-2.6.31-3.96-1.02v.01ZM80.28 295.59l-.26-.12c-1.53-.71-2.22-1.79-2-2.41.05-.13.26-.56 1.02-.37 1.48.36 1.28 2.53 1.27 2.62l-.03.29v-.01Zm-1.59-2.54c-.12 0-.24.03-.28.14-.11.31.32 1.13 1.51 1.77 0-.55-.11-1.67-.97-1.88a.928.928 0 0 0-.26-.03Z"/><path fill="#F3795C" d="M78.19 296.13c-.61 0-1.05-.19-1.23-.49-.07-.12-.26-.56.38-1.02 1.23-.9 2.76.65 2.82.71l.2.21-.26.12c-.71.33-1.37.48-1.9.48l-.01-.01Zm0-1.38c-.21 0-.42.06-.61.2-.12.08-.37.3-.26.49.17.28 1.07.48 2.33-.02-.31-.26-.88-.66-1.45-.66l-.01-.01Z"/><path fill="#F3795C" d="M82.8 297.06c-.63 0-1.11-.24-1.42-.7-.66-.99-1.21-.88-1.22-.88l-.11-.39s.82-.22 1.67 1.04c.66.99 2.28.24 2.3.24l.17.37s-.48.23-1.05.3c-.12.01-.23.02-.34.02Z"/><path fill="#F3795C" d="M82.72 298.64s-.53-.06-1.05-.29c-.73-.33-1.13-.84-1.15-1.49-.05-1.2-.58-1.38-.58-1.38l.11-.39s.82.24.88 1.76c.05 1.19 1.82 1.39 1.84 1.39l-.04.41-.01-.01ZM78.495 296.578l-.401.085.41 1.947.401-.085-.41-1.947Z"/><path fill="#F3795C" d="m79.783 296.908-2.726.544.08.402 2.726-.544-.08-.402ZM76.6 298.43h-.41V300h.41v-1.57Z"/><path fill="#F3795C" d="m77.34 298.698-2.078.513.098.398 2.078-.513-.098-.398Z"/><path fill="#4CBDBC" d="m92.38 313.82-.9 4.3s-.35 1.84.12 2.61c.47.77 1.63 1.5 2.73 1.44 1.1-.06 2.44-.61 3.07-1.29.63-.68.9-1.69.38-3.61s-1.09-3.44-1.09-3.44l-2.34-.67-1.25.31-.71.35h-.01Z"/><path fill="#F3795C" d="M91.6 320.72c.09.09.07.31.09.44.08.49.22.88.69 1.12 1.44.75 3.43.84 4.75-.22.47-.37 1.02-1.14.67-1.76 0 0-.57.92-1.39 1.27-.79.34-1.57.57-2.43.42a4.29 4.29 0 0 1-2.37-1.29l-.01.02ZM94.79 316.02h-.3l.07-.26c.02-.07.46-1.73 1.49-1.59.43.06.71.37.68.76-.04.54-.65 1.09-1.93 1.09h-.01Zm1.14-1.45c-.45 0-.75.65-.89 1.03.9-.06 1.27-.44 1.28-.7.01-.17-.11-.3-.33-.33h-.06Z"/><path fill="#F3795C" d="M94.51 316.02c-1.28 0-1.89-.54-1.93-1.09-.03-.39.25-.7.68-.76 1.03-.14 1.47 1.52 1.49 1.59l.07.25h-.3l-.01.01Zm-1.14-1.45h-.06c-.21.03-.34.15-.33.33.02.26.38.64 1.28.7-.14-.38-.45-1.03-.89-1.03Z"/><path fill="#F3795C" d="M92 318.86s-.04 0-.07-.01l.13-.39c-.06-.02-.11 0-.11 0 .08-.03.77-.47 1.02-1.27.31-.98 1.1-1.53 1.13-1.56l.23.34s-.71.5-.97 1.34c-.27.86-.96 1.37-1.2 1.5-.05.03-.1.05-.16.05ZM96.73 318.62c-.5-.11-1.41-.61-1.3-1.66.04-.38 0-.66-.14-.82-.1-.12-.21-.13-.22-.13l.02-.41s.29.02.5.27c.21.25.3.63.24 1.14-.1.96.94 1.21.99 1.22l-.09.4v-.01ZM94.997 317.364l-1.354 1.458.3.279 1.354-1.459-.3-.278Z"/><path fill="#F3795C" d="m93.697 317.353-.272.307 1.647 1.459.271-.307-1.646-1.459ZM94.997 319.567l-1.354 1.459.3.279 1.354-1.459-.3-.279Z"/><path fill="#F3795C" d="m93.7 319.568-.271.307 1.647 1.459.272-.307-1.647-1.459Z"/><path fill="#8C4443" d="M92.51 311.09s2.09.32 3.63-.45c0 0 .17 1.32.17 1.55 0 .23.42 1.54.36 1.65-.06.11-.31.44-1.34 0s-1.02-.46-1.34-.44c-.32.02-.69.5-.86.56-.17.06-.73.08-.75-.13-.02-.21.14-2.73.14-2.73l-.01-.01Z"/><path fill="#fff" d="M62.43 242.99a.93.93 0 0 1-.26.41.94.94 0 0 1-.47.12.94.94 0 0 1-.47-.12.93.93 0 0 1-.26-.41.988.988 0 0 1-.03-.48.973.973 0 0 1 .76-.56.993.993 0 0 1 .76.55c.03.16.02.32-.03.49Z"/><path fill="#FFC8DC" d="M62.25 241.99c-.15 0-.25-.01-.55-.02-.15 0-.3.08-.44.17-.14.1-.24.23-.3.37-.03-.2.06-.38.19-.52.11-.12.28-.35.55-.35s.44.22.55.34v.01Z"/><path fill="#FFA6B2" d="M61.25 243.38a.715.715 0 0 1-.44-.34c-.08-.15-.24-.36-.16-.63.08-.27.35-.35.5-.42-.13.14-.15.35-.19.52-.03.15-.02.31.03.47.05.16.14.29.26.4Z"/><path fill="#A3BEDC" d="M62.16 243.38c-.09.16-.27.28-.45.31-.17.03-.43.1-.65-.05-.22-.15-.23-.43-.25-.6.09.17.29.25.44.34.13.07.29.12.45.12.16 0 .32-.04.46-.12Z"/><path fill="#98E1D0" d="M62.6 243.04c-.02.17-.04.44-.24.6-.2.16-.48.08-.65.05.19-.04.33-.19.45-.31a.937.937 0 0 0 .28-.86c.11.11.18.34.16.53v-.01Z"/><path fill="#EAD69F" d="M62.6 243.04c.02-.19-.08-.37-.16-.53a.937.937 0 0 0-.74-.53c.17-.02.38-.06.55.02.15.07.42.18.5.41.08.23-.07.49-.16.63h.01Z"/><path fill="#A398D6" d="M61.06 243.65c-.23-.11-.48-.25-.56-.5-.08-.25.03-.51.16-.74v.12c0 .19.08.36.17.51.02.17.05.35.16.5.03.04.05.07.08.1l-.01.01Z"/><path fill="#56B7B5" d="M62.36 243.64c-.17.19-.39.38-.65.38s-.47-.19-.65-.38c.04.02.08.03.12.05.18.06.37.03.53 0 .16.03.35.06.52 0 .04-.01.08-.03.12-.05h.01Z"/><path fill="#80C187" d="M62.91 243.14c-.08.24-.33.39-.56.5.03-.03.05-.06.08-.1.11-.15.14-.34.16-.51.08-.15.16-.32.16-.5v-.13c.13.22.24.49.16.74Z"/><path fill="#FF7A7F" d="m61.7 241.65-.12.03c-.18.06-.31.19-.43.32-.15.07-.32.16-.43.31-.03.04-.05.07-.07.11.03-.26.1-.54.3-.69.2-.15.49-.13.75-.08Z"/><path fill="#FFB985" d="M62.75 242.41s-.04-.07-.07-.1c-.11-.15-.28-.24-.43-.31-.11-.12-.25-.25-.42-.31l-.13-.03c.25-.05.54-.07.75.07.21.14.27.43.3.68Z"/><path fill="#825282" d="M60.65 242.42c-.12.22-.21.49-.16.74a1.1 1.1 0 0 1-.05-.8c.09-.27.27-.49.51-.62-.19.17-.27.43-.3.69v-.01Z"/><path fill="#8075B3" d="M61.71 244.03a1.093 1.093 0 0 1-1.21-.87c.11.23.33.39.56.5.18.19.4.35.65.38v-.01Z"/><path fill="#2E9C86" d="M62.91 243.14a1.086 1.086 0 0 1-1.2.88c.25-.03.47-.19.65-.38.23-.11.45-.27.56-.5h-.01Z"/><path fill="#549458" d="M62.91 243.14c.05-.25-.04-.51-.16-.74-.03-.25-.12-.51-.3-.68.24.13.42.35.51.62.09.27.06.56-.05.8Z"/><path fill="#FF9852" d="M62.45 241.73c-.22-.12-.5-.13-.75-.07-.25-.05-.53-.05-.75.08.2-.18.46-.3.75-.3s.55.11.74.29h.01Z"/><path fill="url(#paint33_linear_212_312)" d="m94.39 106.61 1.22-1.96-.12-3.36.52-.01.12 3.22 2.23.39-.09.52-1.98-.35.57 1.43-.48.2-.56-1.39-.98 1.59-.45-.28Z"/><path fill="url(#paint34_linear_212_312)" d="m88.59 107.24 1.25-1.95.06-4.08.53-.01-.07 3.95 2.22.42-.1.52-1.97-.38.56 1.44-.49.19-.54-1.4-1.01 1.58-.44-.28Z"/><path fill="#FF7A7F" d="M96.6 81.97s-.31 1.83-.36 2.03c-.16.73-.37 1.45-.65 2.14-.53 1.34-1.32 2.59-2.47 3.47-4.17 3.18-9.84.88-14.23-.54-.92-.29-1.9-.53-2.78-.92 0 0-4.84-2.11-4.11-3.35 0 0 24.59-2.84 24.6-2.84v.01Z"/><path fill="#FFCBDF" d="M96.6 81.97s-.49 2.56-2.01 3.92c-1.52 1.36-4.17 2.46-9.66 2.72-5.49.26-8.03.51-10.73-1.43 0 0-1.82-.63-2.75-2.36l25.16-2.86-.01.01Z"/><path fill="url(#paint35_linear_212_312)" d="M96.6 81.97s-3.71 3.34-7.13 3.91c-3.18.53-11.07 1.8-16.36 1.58-1.13-.05-2.58.05-3.61-.48-1.55-.79-.68-2.11.74-2.14 1.77-.04 26.37-2.88 26.37-2.88l-.01.01Z"/><path fill="url(#paint36_linear_212_312)" d="M105.2 87.52s1.57 5.56-2.18 9.72c-3.75 4.15-7.22 4.69-11.18 5.08-3.96.38-10.28-2.18-12.88-5.2-2.6-3.02-2.1-2.87-2.1-2.87l16.59-12.81s4.34 9.09 11.75 6.09v-.01Z"/><path fill="#FFCBDF" d="m106.94 81.91 3.59 3.56-3.77-1.09.18-2.47Z"/><path fill="#FFCBDF" d="m106.76 84.38 3.77 1.09-5.02.64 1.25-1.73Z"/><path fill="#FF7A7F" d="M93.45 81.43s2.55-2.48 4.69-3.17c1.6-.52 3.46-.83 5.13-.32 2.27.69 4.17 3.35 3.95 5.74-.22 2.39-2.02 4.5-4.28 5.05-1.65.41-3.73-.43-5.07-1.41-.84-.61-1.55-1.38-2.21-2.18-2.18-2.62-2.21-3.72-2.21-3.72v.01Z"/><path fill="#000" d="M103.32 84.23a1.57 1.57 0 1 0 0-3.14 1.57 1.57 0 0 0 0 3.14Z"/><path fill="#fff" d="M103.66 82.55a.44.44 0 1 0 0-.88.44.44 0 0 0 0 .88Z"/><path fill="#FF7A7F" d="M94.72 83.68s.29 2.12.31 2.35c.07.85.09 1.72.03 2.57-.12 1.65-.55 3.3-1.51 4.67-3.48 4.93-10.51 4.36-15.82 4.32-1.11 0-2.27.07-3.37-.05 0 0-6.04-.65-5.67-2.26 0 0 26.03-11.6 26.03-11.61v.01Z"/><path fill="#FFCBDF" d="M94.72 83.68s.34 2.98-.85 5c-1.2 2.02-3.73 4.14-9.67 6.32-5.94 2.18-8.64 3.33-12.28 2.14 0 0-2.22-.06-3.84-1.64l26.64-11.82Z"/><path fill="url(#paint37_linear_212_312)" d="M94.72 83.68s-2.92 4.95-6.48 6.75c-3.31 1.68-11.54 5.79-17.42 7.39-1.26.34-2.81.95-4.13.72-1.97-.33-1.47-2.08.07-2.6 1.93-.65 27.97-12.26 27.97-12.26h-.01Z"/><circle cx="770" cy="223" r="31.5" fill="#077" stroke="#fff" stroke-width="3"/><path fill="url(#paint38_linear_212_312)" d="m760.77 213.814 13.713-7.452 1.929-1.047c.938-.51 2.135-.187 2.648.712l4.439 7.79"/><path fill="#92DBCA" d="m769.232 203.809-10.336 11.067 16.437-8.999-2.969-2.304c-.94-.729-2.325-.624-3.132.238v-.002Z"/><path fill="url(#paint39_linear_212_312)" d="M786.871 213.814h-33.592a2.129 2.129 0 0 0-2.129 2.129v20.061c0 1.176.953 2.129 2.129 2.129h33.592a2.129 2.129 0 0 0 2.129-2.129v-20.061a2.129 2.129 0 0 0-2.129-2.129Z"/><circle cx="185.5" cy="63.5" r="23.5" fill="#077" stroke="#fff" stroke-width="2"/><path fill="url(#paint40_linear_212_312)" d="m178.704 56.688 10.284-5.588 1.446-.787c.703-.382 1.601-.14 1.985.533l3.33 5.84"/><path fill="#92DBCA" d="m185.051 49.184-7.751 8.299 12.326-6.75-2.228-1.727c-.706-.548-1.745-.47-2.347.178Z"/><path fill="url(#paint41_linear_212_312)" d="M198.412 56.688h-25.459c-.808 0-1.463.655-1.463 1.463v15.31c0 .808.655 1.463 1.463 1.463h25.459c.808 0 1.462-.655 1.462-1.463V58.15c0-.808-.654-1.463-1.462-1.463Z"/><defs><linearGradient id="paint0_linear_212_312" x1="404.08" x2="804.67" y1="604.13" y2="604.13" gradientUnits="userSpaceOnUse"><stop stop-color="#077"/><stop offset="1" stop-color="#69BAC1"/></linearGradient><linearGradient id="paint1_linear_212_312" x1="544.17" x2="664.57" y1="568.06" y2="568.06" gradientUnits="userSpaceOnUse"><stop stop-color="#077"/><stop offset="1" stop-color="#69BBC2"/></linearGradient><linearGradient id="paint2_linear_212_312" x1="366.94" x2="841.8" y1="357.05" y2="357.05" gradientUnits="userSpaceOnUse"><stop stop-color="#077"/><stop offset="1" stop-color="#69BBC2"/></linearGradient><linearGradient id="paint3_linear_212_312" x1="383.67" x2="825.08" y1="357.05" y2="357.05" gradientUnits="userSpaceOnUse"><stop stop-color="#005D84"/><stop offset="1" stop-color="#4A989D"/></linearGradient><linearGradient id="paint4_linear_212_312" x1="523.04" x2="685.75" y1="600.36" y2="600.36" gradientUnits="userSpaceOnUse"><stop stop-color="#077"/><stop offset="1" stop-color="#009897"/></linearGradient><linearGradient id="paint5_linear_212_312" x1="3.53" x2="190.26" y1="176.19" y2="176.19" gradientUnits="userSpaceOnUse"><stop stop-color="#077"/><stop offset="1" stop-color="#69BBC2"/></linearGradient><linearGradient id="paint6_linear_212_312" x1="96.9" x2="96.9" y1="9.98" y2="44.65" gradientUnits="userSpaceOnUse"><stop stop-color="#fff"/><stop offset="1" stop-color="#FAFBFC"/></linearGradient><linearGradient id="paint7_linear_212_312" x1="0" x2="188.54" y1="394.23" y2="394.23" gradientUnits="userSpaceOnUse"><stop stop-color="#077"/><stop offset="1" stop-color="#69BAC1"/></linearGradient><linearGradient id="paint8_linear_212_312" x1="31.75" x2="155.9" y1="129.9" y2="129.9" gradientUnits="userSpaceOnUse"><stop stop-color="#077"/><stop offset="1" stop-color="#69BBC2"/></linearGradient><linearGradient id="paint9_linear_212_312" x1="31.75" x2="155.9" y1="149.59" y2="149.59" gradientUnits="userSpaceOnUse"><stop stop-color="#077"/><stop offset="1" stop-color="#69BBC2"/></linearGradient><linearGradient id="paint10_linear_212_312" x1="31.75" x2="155.9" y1="169.28" y2="169.28" gradientUnits="userSpaceOnUse"><stop stop-color="#077"/><stop offset="1" stop-color="#69BBC2"/></linearGradient><linearGradient id="paint11_linear_212_312" x1="31.75" x2="155.9" y1="188.97" y2="188.97" gradientUnits="userSpaceOnUse"><stop stop-color="#077"/><stop offset="1" stop-color="#69BBC2"/></linearGradient><linearGradient id="paint12_linear_212_312" x1="58.94" x2="61.7" y1="292.4" y2="292.4" gradientUnits="userSpaceOnUse"><stop stop-color="#077"/><stop offset="1" stop-color="#69BBC2"/></linearGradient><linearGradient id="paint13_linear_212_312" x1="138.86" x2="141.62" y1="292.4" y2="292.4" gradientUnits="userSpaceOnUse"><stop stop-color="#077"/><stop offset="1" stop-color="#69BBC2"/></linearGradient><linearGradient id="paint14_linear_212_312" x1="129.64" x2="132.41" y1="296.75" y2="296.75" gradientUnits="userSpaceOnUse"><stop stop-color="#077"/><stop offset="1" stop-color="#69BBC2"/></linearGradient><linearGradient id="paint15_linear_212_312" x1="33.95" x2="36.72" y1="296.75" y2="296.75" gradientUnits="userSpaceOnUse"><stop stop-color="#077"/><stop offset="1" stop-color="#69BBC2"/></linearGradient><linearGradient id="paint16_linear_212_312" x1="143.44" x2="160.29" y1="287.21" y2="287.21" gradientUnits="userSpaceOnUse"><stop stop-color="#8ED7C6"/><stop offset="1" stop-color="#56ADAB"/></linearGradient><linearGradient id="paint17_linear_212_312" x1="131.71" x2="143.24" y1="290.08" y2="290.08" gradientUnits="userSpaceOnUse"><stop stop-color="#8ED7C6"/><stop offset="1" stop-color="#56ADAB"/></linearGradient><linearGradient id="paint18_linear_212_312" x1="160.04" x2="168.19" y1="293.72" y2="293.72" gradientUnits="userSpaceOnUse"><stop stop-color="#12AA98"/><stop offset="1" stop-color="#077"/></linearGradient><linearGradient id="paint19_linear_212_312" x1="20.89" x2="28.92" y1="293.03" y2="293.03" gradientUnits="userSpaceOnUse"><stop stop-color="#008897"/><stop offset=".59" stop-color="#009E87"/><stop offset="1" stop-color="#00A880"/></linearGradient><linearGradient id="paint20_linear_212_312" x1="33.42" x2="50.57" y1="280.31" y2="280.31" gradientUnits="userSpaceOnUse"><stop stop-color="#008897"/><stop offset=".59" stop-color="#009E87"/><stop offset="1" stop-color="#00A880"/></linearGradient><linearGradient id="paint21_linear_212_312" x1="27.96" x2="45.47" y1="288.92" y2="288.92" gradientUnits="userSpaceOnUse"><stop stop-color="#8ED7C6"/><stop offset="1" stop-color="#56ADAB"/></linearGradient><linearGradient id="paint22_linear_212_312" x1="50.19" x2="56.75" y1="296.75" y2="296.75" gradientUnits="userSpaceOnUse"><stop stop-color="#008897"/><stop offset=".59" stop-color="#009E87"/><stop offset="1" stop-color="#00A880"/></linearGradient><linearGradient id="paint23_linear_212_312" x1="64.56" x2="71.11" y1="303.07" y2="303.07" gradientUnits="userSpaceOnUse"><stop stop-color="#12AA98"/><stop offset="1" stop-color="#077"/></linearGradient><linearGradient id="paint24_linear_212_312" x1="116.45" x2="122.22" y1="300.05" y2="300.05" gradientUnits="userSpaceOnUse"><stop stop-color="#008897"/><stop offset=".59" stop-color="#009E87"/><stop offset="1" stop-color="#00A880"/></linearGradient><linearGradient id="paint25_linear_212_312" x1="155.9" x2="161.87" y1="303.07" y2="303.07" gradientUnits="userSpaceOnUse"><stop stop-color="#12AA98"/><stop offset="1" stop-color="#077"/></linearGradient><linearGradient id="paint26_linear_212_312" x1="103.76" x2="109.73" y1="296.75" y2="296.75" gradientUnits="userSpaceOnUse"><stop stop-color="#8ED7C6"/><stop offset="1" stop-color="#56ADAB"/></linearGradient><linearGradient id="paint27_linear_212_312" x1="90.24" x2="92.36" y1="236.51" y2="236.51" gradientUnits="userSpaceOnUse"><stop stop-color="#12AA98"/><stop offset="1" stop-color="#077"/></linearGradient><linearGradient id="paint28_linear_212_312" x1="100.59" x2="102.71" y1="235.98" y2="235.98" gradientUnits="userSpaceOnUse"><stop stop-color="#12AA98"/><stop offset="1" stop-color="#077"/></linearGradient><linearGradient id="paint29_linear_212_312" x1="83.1" x2="100.49" y1="291.32" y2="291.32" gradientUnits="userSpaceOnUse"><stop stop-color="#12AA98"/><stop offset="1" stop-color="#077"/></linearGradient><linearGradient id="paint30_linear_212_312" x1="81.36" x2="109.9" y1="278.73" y2="278.73" gradientUnits="userSpaceOnUse"><stop stop-color="#008897"/><stop offset=".59" stop-color="#009E87"/><stop offset="1" stop-color="#00A880"/></linearGradient><linearGradient id="paint31_linear_212_312" x1="59.09" x2="64.31" y1="242.96" y2="242.96" gradientUnits="userSpaceOnUse"><stop stop-color="#12AA98"/><stop offset="1" stop-color="#077"/></linearGradient><linearGradient id="paint32_linear_212_312" x1="59.4" x2="64" y1="242.96" y2="242.96" gradientUnits="userSpaceOnUse"><stop stop-color="#8ED7C6"/><stop offset="1" stop-color="#56ADAB"/></linearGradient><linearGradient id="paint33_linear_212_312" x1="94.39" x2="98.36" y1="104.08" y2="104.08" gradientUnits="userSpaceOnUse"><stop stop-color="#077"/><stop offset="1" stop-color="#69BBC2"/></linearGradient><linearGradient id="paint34_linear_212_312" x1="88.59" x2="92.58" y1="104.36" y2="104.36" gradientUnits="userSpaceOnUse"><stop stop-color="#077"/><stop offset="1" stop-color="#69BBC2"/></linearGradient><linearGradient id="paint35_linear_212_312" x1="80.335" x2="84.758" y1="90.68" y2="77.83" gradientUnits="userSpaceOnUse"><stop stop-color="#69BBC2"/><stop offset="1" stop-color="#077"/></linearGradient><linearGradient id="paint36_linear_212_312" x1="77.311" x2="105.504" y1="96.136" y2="88.687" gradientUnits="userSpaceOnUse"><stop stop-color="#077"/><stop offset="1" stop-color="#69BBC2"/></linearGradient><linearGradient id="paint37_linear_212_312" x1="72.662" x2="87.436" y1="102.325" y2="78.882" gradientUnits="userSpaceOnUse"><stop stop-color="#69BBC2"/><stop offset="1" stop-color="#077"/></linearGradient><linearGradient id="paint38_linear_212_312" x1="760.77" x2="783.499" y1="209.443" y2="209.443" gradientUnits="userSpaceOnUse"><stop stop-color="#8ED7C6"/><stop offset="1" stop-color="#56ADAB"/></linearGradient><linearGradient id="paint39_linear_212_312" x1="751.15" x2="789.002" y1="225.972" y2="225.972" gradientUnits="userSpaceOnUse"><stop stop-color="#FF7A7F"/><stop offset="1" stop-color="#FF577F"/></linearGradient><linearGradient id="paint40_linear_212_312" x1="178.704" x2="195.749" y1="53.411" y2="53.411" gradientUnits="userSpaceOnUse"><stop stop-color="#FF7A7F"/><stop offset="1" stop-color="#FF577F"/></linearGradient><linearGradient id="paint41_linear_212_312" x1="171.49" x2="199.874" y1="65.805" y2="65.805" gradientUnits="userSpaceOnUse"><stop stop-color="#8ED7C6"/><stop offset="1" stop-color="#56ADAB"/></linearGradient></defs></svg>
