<svg width="700" height="470" fill="none" xmlns="http://www.w3.org/2000/svg"><path d="M45.002 220v-75H100v-45h-100l.022.064H.001L0 220h45.002Z" fill="#FF7A7F"/><path d="M45 220v125H0V220h45Z" fill="#56B7B5"/><path d="M45 345v125H0V345h45Z" fill="#A3BEDC"/><path d="M45 425h127.5v45H45v-45Z" fill="#FFC8DC"/><path d="M172.5 425H300v45H172.5v-45Z" fill="#FF9852"/><path d="M300 425h127.5v45H300v-45Z" fill="#98E1D0"/><path d="M427.5 425H555v45H427.5v-45ZM600 370v100h-45V370h45Z" fill="#8075B3"/><path d="M700.001 370h-600V0h600v370Z" fill="#98E1D0"/><path d="M189.761 214h39.481a8.752 8.752 0 0 0 8.759-8.763v-39.474a8.752 8.752 0 0 0-8.759-8.763h-39.481a8.752 8.752 0 0 0-8.76 8.763v39.495c0 4.826 3.915 8.742 8.76 8.742ZM399.501 277c50.534 0 91.5-40.966 91.5-91.5S450.035 94 399.501 94s-91.5 40.966-91.5 91.5 40.966 91.5 91.5 91.5ZM569.761 214h39.481a8.752 8.752 0 0 0 8.759-8.763v-39.474a8.752 8.752 0 0 0-8.759-8.763h-39.481a8.752 8.752 0 0 0-8.76 8.763v39.495c0 4.826 3.915 8.742 8.76 8.742Z" fill="#fff"/></svg>
