<svg aria-hidden="true" width="176" height="44" fill="none"><path fill="#FF7A7F" d="M34.712 31.333v2.62H2.897V16.2l4.217.001.001-2.873-7.09-.003v.004H.023V36.656h.002v.171h34.688v.002h2.873v-5.496h-2.873Z"/><path fill="#FFC8DC" d="M10.865 33.953h-7.97v2.895h7.97v-2.895Z"/><path fill="#A3BEDC" d="M2.895 36.849v-7.97H-.001v7.97h2.896Z"/><path fill="#56B7B5" d="M2.895 28.878v-7.97H-.001v7.97h2.896Z"/><path fill="#FF9852" d="M18.798 33.953h-7.97v2.895h7.97v-2.895Z"/><path fill="#98E1D0" d="M26.79 33.953h-7.97v2.895h7.97v-2.895Z"/><path fill="#8075B3" d="M34.76 33.953h-7.97v2.895h7.97v-2.895Z"/><path fill="#8075B3" d="M37.586 36.848v-6.866H34.69v6.866h2.895Z"/><path fill="#98E1D0" d="M6.437 30.655H44V7.152H6.437v23.503Z"/><path fill="#fff" d="M11.638 20.718h2.525c.31 0 .56-.25.56-.56v-2.523a.56.56 0 0 0-.56-.56h-2.525a.56.56 0 0 0-.56.56v2.525c0 .308.25.558.56.558ZM25.221 24.831a5.85 5.85 0 1 0 0-11.7 5.85 5.85 0 0 0 0 11.7ZM36.271 20.718h2.525c.31 0 .56-.25.56-.56v-2.523a.56.56 0 0 0-.56-.56H36.27a.56.56 0 0 0-.56.56v2.525c0 .308.25.558.56.558Z"/><path fill="#363636" d="m59.082 27-2.784-10.182h1.253l2.128 8.293h.1l2.167-8.293h1.392l2.168 8.293h.1l2.127-8.293h1.253L66.202 27h-1.273l-2.247-8.114h-.08L60.355 27h-1.273Zm13.772.16c-.736 0-1.37-.163-1.904-.488a3.27 3.27 0 0 1-1.228-1.372c-.285-.59-.428-1.276-.428-2.059 0-.782.143-1.471.428-2.068.288-.6.689-1.067 1.203-1.402.517-.338 1.12-.507 1.81-.507.397 0 .79.067 1.178.2.387.132.74.347 1.059.645.318.295.571.686.76 1.174.19.487.284 1.087.284 1.8v.497h-5.887v-1.015h4.693c0-.43-.086-.815-.258-1.153a1.949 1.949 0 0 0-.726-.8c-.311-.196-.68-.294-1.104-.294-.467 0-.871.116-1.213.348a2.289 2.289 0 0 0-.78.895 2.629 2.629 0 0 0-.274 1.183v.677c0 .576.1 1.065.299 1.466.202.398.482.701.84.91.358.205.774.308 1.248.308.308 0 .586-.043.835-.13.252-.089.469-.221.651-.397.182-.179.323-.4.423-.666l1.133.318c-.119.385-.32.723-.601 1.014-.282.289-.63.514-1.044.677-.415.159-.88.238-1.397.238ZM77.96 27V16.818h1.173v3.759h.1c.085-.133.205-.302.357-.507.156-.21.378-.395.666-.557.292-.166.686-.249 1.184-.249.643 0 1.21.161 1.7.482.49.322.873.778 1.148 1.368.275.59.413 1.286.413 2.088 0 .808-.138 1.51-.413 2.103-.275.59-.656 1.047-1.143 1.372-.487.321-1.05.482-1.685.482-.491 0-.884-.081-1.179-.243a2.185 2.185 0 0 1-.68-.562 7.561 7.561 0 0 1-.369-.527h-.139V27H77.96Zm1.153-3.818c0 .577.084 1.085.254 1.526.168.438.415.78.74 1.03.325.245.723.367 1.193.367.491 0 .9-.13 1.228-.388a2.37 2.37 0 0 0 .746-1.054c.17-.444.254-.938.254-1.481 0-.537-.083-1.021-.249-1.452a2.243 2.243 0 0 0-.74-1.029c-.329-.255-.741-.383-1.239-.383-.477 0-.878.121-1.203.363-.325.239-.57.573-.735 1.004-.166.428-.25.927-.25 1.497Zm11.48-6.364h1.47l3.461 8.452h.12l3.46-8.452h1.471V27h-1.153v-7.736h-.1L96.141 27h-1.114l-3.182-7.736h-.1V27h-1.153V16.818ZM105.99 27.16c-.69 0-1.295-.164-1.815-.492a3.346 3.346 0 0 1-1.213-1.377c-.288-.59-.433-1.28-.433-2.068 0-.796.145-1.49.433-2.084a3.34 3.34 0 0 1 1.213-1.382c.52-.328 1.125-.492 1.815-.492.689 0 1.292.164 1.809.492.521.328.925.79 1.213 1.383.292.593.438 1.287.438 2.083 0 .788-.146 1.478-.438 2.068a3.291 3.291 0 0 1-1.213 1.377c-.517.328-1.12.492-1.809.492Zm0-1.054c.523 0 .954-.134 1.292-.403.338-.268.589-.621.751-1.059.162-.437.244-.911.244-1.421s-.082-.986-.244-1.427a2.402 2.402 0 0 0-.751-1.07c-.338-.27-.769-.407-1.292-.407-.524 0-.955.136-1.293.408a2.41 2.41 0 0 0-.751 1.069c-.162.44-.243.916-.243 1.427 0 .51.081.984.243 1.421.163.438.413.79.751 1.06.338.268.769.402 1.293.402Zm6.424-3.699V27h-1.173v-7.636h1.133v1.193h.1c.179-.388.451-.7.815-.935.365-.238.835-.358 1.412-.358.517 0 .97.106 1.357.318.388.21.69.527.905.955.216.424.323.961.323 1.61V27h-1.173v-4.773c0-.6-.156-1.067-.467-1.402-.312-.338-.739-.507-1.283-.507-.375 0-.709.081-1.004.244a1.74 1.74 0 0 0-.691.71c-.169.312-.254.69-.254 1.134Zm10.218 4.753c-.736 0-1.371-.162-1.904-.487a3.27 3.27 0 0 1-1.228-1.372c-.285-.59-.428-1.276-.428-2.059 0-.782.143-1.471.428-2.068.288-.6.689-1.067 1.203-1.402.517-.338 1.12-.507 1.81-.507.397 0 .79.067 1.178.2.388.132.741.347 1.059.645.318.295.572.686.761 1.174.188.487.283 1.087.283 1.8v.497h-5.886v-1.015h4.693c0-.43-.086-.815-.259-1.153a1.948 1.948 0 0 0-.726-.8c-.311-.196-.679-.294-1.103-.294-.468 0-.872.116-1.213.348a2.289 2.289 0 0 0-.781.895 2.632 2.632 0 0 0-.273 1.183v.677c0 .576.099 1.065.298 1.466.202.398.482.701.84.91.358.205.774.308 1.248.308.308 0 .587-.043.835-.13.252-.089.469-.221.651-.397.183-.179.324-.4.423-.666l1.134.318c-.12.385-.32.723-.602 1.014-.282.289-.63.514-1.044.677-.414.159-.88.238-1.397.238Zm8.268-7.795v.994h-3.958v-.994h3.958Zm-2.804-1.83h1.173v7.279c0 .33.048.58.144.745.1.163.226.272.378.328.156.053.32.08.492.08.13 0 .236-.007.318-.02l.199-.04.239 1.054c-.08.03-.191.06-.333.09-.143.033-.323.05-.542.05a2.36 2.36 0 0 1-.974-.214 1.939 1.939 0 0 1-.786-.652c-.205-.291-.308-.66-.308-1.103v-7.597ZM132.666 27v-7.636h1.173V27h-1.173Zm.596-8.91a.833.833 0 0 1-.591-.233.749.749 0 0 1-.244-.561c0-.22.081-.407.244-.562a.833.833 0 0 1 .591-.234c.229 0 .424.078.587.234a.742.742 0 0 1 .248.561.742.742 0 0 1-.248.562.818.818 0 0 1-.587.234Zm2.507 8.91v-.895l4.335-5.568v-.08h-4.196v-1.093h5.708v.934l-4.216 5.529v.08h4.355V27h-5.986Zm10.04.179a3.1 3.1 0 0 1-1.317-.273 2.258 2.258 0 0 1-.94-.8c-.232-.352-.348-.777-.348-1.274 0-.437.086-.792.259-1.064.172-.275.402-.49.691-.646.288-.156.606-.272.954-.348.352-.08.705-.142 1.059-.189.464-.06.84-.104 1.129-.134.291-.033.504-.088.636-.164.136-.076.204-.209.204-.398v-.04c0-.49-.134-.871-.403-1.143-.265-.272-.668-.408-1.208-.408-.56 0-.999.123-1.317.368-.318.245-.542.507-.671.786l-1.114-.398c.199-.464.464-.825.795-1.084.335-.262.7-.444 1.094-.547.398-.106.789-.159 1.173-.159.246 0 .527.03.846.09.321.056.631.174.929.353.302.179.552.449.751.81.199.361.298.845.298 1.452V27h-1.173v-1.034h-.06a2.064 2.064 0 0 1-.397.532c-.186.189-.433.35-.741.482-.308.133-.685.199-1.129.199Zm.179-1.054c.464 0 .855-.091 1.174-.273a1.86 1.86 0 0 0 .974-1.616v-1.074c-.05.06-.159.114-.328.164a5.554 5.554 0 0 1-.577.124 26.387 26.387 0 0 1-1.123.15c-.305.04-.59.104-.856.193a1.481 1.481 0 0 0-.636.393c-.159.172-.239.408-.239.706 0 .408.151.716.453.925.305.205.691.308 1.158.308Zm8.784-6.761v.994h-3.958v-.994h3.958Zm-2.804-1.83h1.173v7.279c0 .33.048.58.144.745.1.163.226.272.378.328.156.053.32.08.492.08.13 0 .236-.007.319-.02l.198-.04.239 1.054c-.08.03-.191.06-.333.09-.143.033-.323.05-.542.05a2.36 2.36 0 0 1-.974-.214 1.939 1.939 0 0 1-.786-.652c-.205-.291-.308-.66-.308-1.103v-7.597ZM156.537 27v-7.636h1.173V27h-1.173Zm.596-8.91a.833.833 0 0 1-.591-.233.749.749 0 0 1-.244-.561c0-.22.081-.407.244-.562a.833.833 0 0 1 .591-.234c.229 0 .425.078.587.234a.743.743 0 0 1 .249.561.743.743 0 0 1-.249.562.817.817 0 0 1-.587.234Zm5.828 9.07c-.689 0-1.294-.165-1.814-.493a3.34 3.34 0 0 1-1.213-1.377c-.289-.59-.433-1.28-.433-2.068 0-.796.144-1.49.433-2.084a3.333 3.333 0 0 1 1.213-1.382c.52-.328 1.125-.492 1.814-.492.69 0 1.293.164 1.81.492.52.328.925.79 1.213 1.383.292.593.438 1.287.438 2.083 0 .788-.146 1.478-.438 2.068a3.298 3.298 0 0 1-1.213 1.377c-.517.328-1.12.492-1.81.492Zm0-1.055c.524 0 .955-.134 1.293-.403a2.38 2.38 0 0 0 .751-1.059c.162-.437.243-.911.243-1.421s-.081-.986-.243-1.427a2.41 2.41 0 0 0-.751-1.07c-.338-.27-.769-.407-1.293-.407-.523 0-.954.136-1.292.408a2.402 2.402 0 0 0-.751 1.069c-.162.44-.244.916-.244 1.427 0 .51.082.984.244 1.421.162.438.413.79.751 1.06.338.268.769.402 1.292.402Zm6.425-3.699V27h-1.173v-7.636h1.133v1.193h.099c.179-.388.451-.7.816-.935.364-.238.835-.358 1.412-.358.517 0 .969.106 1.357.318.388.21.689.527.905.955.215.424.323.961.323 1.61V27h-1.173v-4.773c0-.6-.156-1.067-.468-1.402-.311-.338-.739-.507-1.282-.507-.375 0-.71.081-1.005.244-.291.162-.522.4-.691.71-.169.312-.253.69-.253 1.134Z"/></svg>