<svg xmlns="http://www.w3.org/2000/svg" viewBox="0 0 54 36" fill="none"><path fill="#000" d="M27.5 5.81c2.538 0 5.008.756 7.101 2.174a12.745 12.745 0 0 1 4.604 5.588 12.652 12.652 0 0 1-1.175 12.029 12.745 12.745 0 0 1-5.589 4.604 12.652 12.652 0 0 1-12.029-1.175 12.745 12.745 0 0 1-4.603-5.589 12.652 12.652 0 0 1 1.175-12.028 12.745 12.745 0 0 1 5.588-4.604A12.607 12.607 0 0 1 27.5 5.81Zm0-.81C20.048 5 14 11.048 14 18.5S20.048 32 27.5 32 41 25.952 41 18.5 34.952 5 27.5 5Z"/><path fill="#000" d="M16.255 18.5A11.24 11.24 0 0 0 22.6 28.625l-5.373-14.702a11.147 11.147 0 0 0-.972 4.577Zm18.846-.567c0-1.39-.5-2.35-.932-3.105-.432-.756-1.107-1.715-1.107-2.633 0-.918.783-1.998 1.89-1.998h.149C30.524 6 23.41 6.31 19.21 10.9c-.405.446-.783.918-1.107 1.418h.73c1.174 0 2.996-.149 2.996-.149.608-.04.675.85.068.932 0 0-.608.067-1.283.108l4.09 12.19 2.458-7.384-1.755-4.806c-.608-.04-1.175-.108-1.175-.108-.607-.04-.54-.959.068-.932 0 0 1.863.149 2.956.149 1.094 0 2.997-.149 2.997-.149.608-.04.675.85.068.932 0 0-.608.067-1.283.108l4.064 12.096 1.16-3.672c.514-1.607.824-2.74.824-3.713l.014.014Zm-7.412 1.539-3.375 9.814c2.268.662 4.685.608 6.912-.175l-.08-.149-3.457-9.49Zm9.68-6.372c.054.378.08.77.08 1.16 0 1.148-.215 2.43-.85 4.024l-3.442 9.936c5.265-3.065 7.141-9.774 4.212-15.12Z"/></svg>
