<svg aria-hidden="true" width="28" height="20" viewBox='0 0 28 20'  fill="none"><path fill="red" d="M27.382 3.12a3.59 3.59 0 0 0-.909-1.595 3.508 3.508 0 0 0-1.57-.923C22.732 0 13.987 0 13.987 0S5.24.018 3.068.62a3.507 3.507 0 0 0-1.57.923A3.589 3.589 0 0 0 .59 3.138C-.068 7.06-.323 13.036.608 16.8a3.59 3.59 0 0 0 .908 1.594c.435.442.976.76 1.57.924 2.172.602 10.918.602 10.918.602s8.745 0 10.917-.602a3.508 3.508 0 0 0 1.57-.924 3.59 3.59 0 0 0 .909-1.594c.693-3.927.906-9.9-.018-13.682Z"/><path fill="#fff" d="m11.203 14.229 7.255-4.269-7.255-4.268v8.537Z"/></svg>