<svg data-name="Layer 1" xmlns="http://www.w3.org/2000/svg" viewBox="0 0 544.89 378.12"><path d="M213.63 0h7.48c-.53 1.77.81 2.27 1.96 2.94 14.47 8.34 28.95 16.68 43.4 25.06 1.24.72 2.2 1.07 3.63.25.85-.48 2.43-.51 3.24-.02 1.44.88 2.41.45 3.62-.25 14.3-8.28 28.64-16.51 42.91-24.83 1.26-.74 2.17-2.08 3.24-3.15h6.94c.63.93 1.05 2.21 1.93 2.73 14.58 8.52 29.11 17.13 43.93 25.21 2.5 1.36 6.28.36 9.47.44.08 0 .16-.08.23-.12 14.86-8.57 29.72-17.13 44.53-25.78.7-.41.92-1.63 1.37-2.47h6.94c.99.99 1.83 2.24 3 2.92 14.04 8.19 28.13 16.3 42.21 24.43 1.65.95 3.14 2.36 5.25.65.53-.43 1.83.16 2.78.18 1.12.02 2.31.15 3.34-.17 1.16-.36 2.18-1.17 3.25-1.81 14.61-8.74 29.2-17.47 43.8-26.21h2.67c.05.62.15 1.24.15 1.86 0 21.27-.02 42.54-.04 63.81 0 .48-.16.96-.25 1.44-3.03-2.73-5.25-.44-7.55.88-13.79 7.95-27.58 15.92-41.36 23.89-2.71 1.57-2.67 3.92.1 5.52 13.79 7.96 27.59 15.9 41.36 23.88 2.11 1.23 4.09 2.89 6.53.65.18-.16.64-.02 1-.02V256.7c-2.41-1.65-4.28-1.72-6.65-.31-14.08 8.34-28.31 16.43-42.49 24.6-2.54 1.47-2.5 3.88.13 5.4 13.86 8.01 27.73 16 41.59 24.01 2.18 1.26 4.25 2.97 6.91 1.09.07-.05.3.12.71.3v2.79c0 17.53 0 35.07-.02 52.6 0 3.65-.07 7.29-.11 10.94h-4.27c-.4-.82-.58-2.02-1.23-2.4-14.82-8.66-29.69-17.23-44.55-25.82-3.14.51-6.27.48-9.41.02-14.93 8.64-29.88 17.26-44.77 25.96-.57.33-.66 1.47-.97 2.24h-8.01c-.64-.92-1.06-2.19-1.94-2.7-14.35-8.38-28.75-16.66-43.13-24.98-1.34-.77-2.43-1.29-4.03-.21-.79.54-2.32 0-3.51-.05-1.01-.04-2.24-.46-2.99-.03-14.82 8.44-29.6 16.97-44.33 25.56-.73.43-1.04 1.59-1.54 2.41h-7.48c-.66-.94-1.14-2.15-2.03-2.75-2.05-1.39-4.32-2.45-6.47-3.69-12.32-7.1-24.67-14.15-36.9-21.38-2.97-1.76-6.29 2.31-8.98-.92-.07-.08-.77.32-1.15.54-14.93 8.62-29.86 17.23-44.75 25.92-.63.37-.8 1.5-1.19 2.28h-8.01c.8-1.74-.64-2.1-1.67-2.69-14.15-8.18-28.3-16.35-42.46-24.52-1.64-.94-3.17-2.31-5.22-.62-.48.39-1.82.41-2.28.02-2.18-1.84-3.75-.22-5.45.72-1.4.77-2.77 1.6-4.15 2.4-12.69 7.32-25.39 14.64-38.08 21.97-1.02.59-2.49.98-1.63 2.73h-8.01c-.49-.82-.77-2-1.49-2.42-14.79-8.63-29.54-17.37-44.58-25.56-2.43-1.33-6.84-1.31-9.28.02-15.04 8.19-29.78 16.92-44.58 25.55-.74.43-1.04 1.59-1.55 2.42H0v-3.74c1.84 1.45 3.41.7 5.2-.34 14.06-8.19 28.16-16.29 42.27-24.4 1.37-.79 2.35-1.52 2.22-3.42-.06-.91.81-2.27 1.65-2.78 1.25-.75 1.63-1.53 1.62-2.92-.04-16.91-.01-33.81-.02-50.72 0-2.96-2.07-4.11-4.67-2.61-14.55 8.4-29.1 16.81-43.67 25.18-1.24.71-1.81 1.42-1.99 3.01-.14 1.24-1.69 2.31-2.61 3.46v-7.48c1.49 1.21 2.82 1.03 4.5.05 14.33-8.37 28.72-16.63 43.09-24.93 2.99-1.73 3.01-3.89.02-5.62-14.21-8.22-28.45-16.4-42.64-24.67-1.71-1-3.21-1.63-4.97-.37v-7.48c.92 1.19 2.49 2.33 2.6 3.59.15 1.64.82 2.3 2.02 2.99 14.17 8.15 28.32 16.34 42.48 24.5 4.47 2.57 5.85 1.73 5.85-3.5v-48.27c0-1.88.48-3.91-2.06-4.84-.61-.23-.82-1.46-1.28-2.19-.6-.95-1.06-2.22-1.94-2.73-14.57-8.52-29.21-16.92-43.79-25.42-1.37-.8-2.54-1-3.87-.19v-7.48c.89.53 1.77 1.06 2.73 1.63 15.21-8.8 30.37-17.54 45.47-26.39.73-.43.92-1.76 1.39-2.66.65-1.27 1.32-2.53 1.99-3.79.44-.83 1.29-1.65 1.3-2.47.08-16.81.07-33.62.05-50.43 0-3.1-1.91-4.15-4.62-2.59-14.32 8.26-28.64 16.52-42.96 24.79-1.44.83-2.85 1.47-2.82 3.7.01.87-1.63 1.77-2.52 2.66v-7.48c.89.54 1.78 1.08 2.66 1.62 15.11-8.73 30.12-17.39 45.12-26.06 2.74-1.59 2.68-3.87-.12-5.48C33.36 83.6 19.03 75.36 4.75 67.04c-1.64-.96-3.08-1.45-4.72-.25v-7.48c.92 1.18 2.51 2.33 2.59 3.56.11 1.81.99 2.42 2.24 3.14 14.4 8.29 28.8 16.61 43.2 24.92 2.9 1.68 4.92.55 4.92-2.79.01-16.63 0-33.26.03-49.9 0-1.58-.15-2.77-1.82-3.63-.8-.41-1.53-1.9-1.48-2.85.09-1.71-.77-2.31-2-3.01C33.43 20.53 19.18 12.33 4.98 4.04 3.24 3.02 1.75 2.43 0 3.74V0h2.67c.55.88.88 2.12 1.67 2.58 14.65 8.57 29.34 17.07 44.08 25.49.78.44 2.02.1 3.04.09 1.28-.01 2.84-.53 3.77.02 1.49.89 2.41.4 3.6-.29 14.38-8.32 28.79-16.6 43.15-24.97 1.09-.64 1.81-1.93 2.7-2.92h6.94c.66.9 1.13 2.14 2.02 2.66 14.42 8.43 28.9 16.76 43.35 25.16 1.39.81 2.49 1.16 4.08.23.87-.5 2.34.1 3.54.12 1.03.02 2.26.29 3.05-.16 14.59-8.33 29.13-16.72 43.64-25.19.99-.58 1.56-1.86 2.33-2.82Zm275.93 252.05v-24.57c0-1.76.31-3.49-1.99-4.37-.74-.28-1-1.75-1.53-2.64-.54-.9-.94-2.1-1.75-2.57-14.6-8.51-29.24-16.94-43.89-25.37-2.84-1.64-4.54-.64-4.54 2.61 0 16.82.01 33.65-.02 50.47 0 1.58.09 2.79 1.8 3.65.84.42 1.7 1.87 1.64 2.8-.11 1.76.85 2.26 2.05 2.94 14.48 8.34 28.95 16.72 43.42 25.09 2.83 1.64 4.8.56 4.8-2.68.02-8.46 0-16.91 0-25.37Zm54.57-31.41v-25.1c0-3.8-1.59-4.72-4.9-2.81-14.33 8.26-28.64 16.54-42.98 24.78-1.36.78-2.41 1.46-2.48 3.33-.04.93-1.24 1.8-1.85 2.74-.55.86-1.45 1.78-1.45 2.68-.09 16.91-.07 33.82-.06 50.72 0 3.83 1.78 4.85 5.14 2.91 14.18-8.17 28.34-16.36 42.51-24.54 1.44-.83 3.01-1.39 2.72-3.69-.1-.78.86-2.13 1.67-2.5 1.68-.76 1.71-1.95 1.71-3.43-.04-8.36-.02-16.73-.01-25.1Zm-381.87 31.24h-.11v-24.55c0-1.75.34-3.51-1.99-4.33-.69-.24-.97-1.59-1.48-2.39-.61-.95-1.05-2.23-1.93-2.74-14.57-8.52-29.2-16.95-43.83-25.39-2.88-1.66-4.46-.74-4.46 2.61 0 16.81.01 33.62-.03 50.43 0 1.61.2 2.73 1.82 3.63.88.49 1.15 2.03 1.74 3.08.49.87.83 2.07 1.59 2.51 14.71 8.64 29.48 17.19 44.24 25.74 2.04 1.18 4.45-.33 4.45-2.73v-25.87Zm.75.11h-.02c0 8.36-.04 16.71.05 25.07.01 1.04.48 2.26 1.14 3.06 1.14 1.4 2.45.68 3.77-.09 14.06-8.16 28.14-16.28 42.23-24.4 1.66-.96 3.51-1.6 3.23-4.2-.08-.72.84-1.92 1.59-2.26 1.63-.74 1.75-1.88 1.75-3.4-.04-16.72 0-33.43-.07-50.15 0-1.12-.56-2.45-1.29-3.3-1.29-1.49-2.57-.17-3.75.51-14.09 8.12-28.16 16.26-42.25 24.38-1.52.88-3.1 1.51-3.09 3.8 0 .82-1.23 1.6-1.8 2.46-.56.84-1.4 1.76-1.41 2.65-.11 8.62-.06 17.25-.06 25.88Zm53.7-220.16V6.73c0-3.41-2.15-4.68-5.07-2.99-14.32 8.27-28.64 16.55-42.97 24.81-1.33.77-2.38 1.42-2.26 3.36.06.96-1.22 1.99-1.83 3.02-.57.95-1.5 1.94-1.51 2.92-.09 16.73-.07 33.45-.07 50.18 0 3.32 2.07 4.56 4.89 2.93 14.41-8.31 28.81-16.62 43.22-24.94 1.2-.69 2.44-1.16 2.22-3.14-.1-.93.96-2.39 1.88-2.93 1.34-.78 1.54-1.68 1.53-3.02-.04-8.37-.02-16.73-.03-25.1Zm272.82 31.51c0-8.45.05-16.9-.07-25.35-.01-.98-.98-1.95-1.5-2.92-.64-1.19-1.27-2.4-1.93-3.58-.5-.88-.83-2.1-1.6-2.55-14.42-8.42-28.9-16.76-43.37-25.1-3.13-1.8-5.22-.61-5.22 2.98 0 16.37 0 32.73-.02 49.1 0 1.78-.19 3.4 1.97 4.36.8.35 1.06 1.91 1.61 2.89.49.88.84 2.08 1.61 2.53 14.58 8.52 29.21 16.96 43.84 25.4 2.64 1.52 4.66.36 4.67-2.67.01-8.36 0-16.72 0-25.08ZM162.09 315.22v-25.08c0-3.49-2.05-4.65-5.14-2.85-4.29 2.5-8.56 5.05-12.85 7.54-10.3 5.96-20.77 11.64-30.79 18.04-2.39 1.53-4.57 5.39-4.65 8.23-.43 16.98-.22 33.97-.21 50.95 0 2.53 2.44 3.91 4.64 2.64 14.47-8.34 28.93-16.71 43.42-25.04 1.38-.79 2.33-1.5 2.26-3.41-.03-.99.94-2.47 1.86-2.93 1.48-.75 1.48-1.74 1.48-3.02-.02-8.36-.01-16.72-.01-25.08Zm.04-252.16c0-8.27-.03-16.53.02-24.8 0-1.6-.12-2.8-1.84-3.65-.83-.4-1.66-1.9-1.57-2.82.17-1.89-.91-2.46-2.18-3.19-14.33-8.25-28.64-16.52-42.96-24.79-3.22-1.86-5.16-.76-5.16 2.95 0 16.55.02 33.09-.03 49.64 0 1.61.22 2.71 1.82 3.61.88.5 1.69 2.07 1.6 3.07-.14 1.55.59 2 1.63 2.6 14.63 8.44 29.25 16.9 43.88 25.34 2.67 1.54 4.77.27 4.78-2.88.01-8.36 0-16.72 0-25.09Zm382 256.56c-.24.12-.47.24-.71.36-.95-1.55-2.54-3.06-2.67-4.68-.13-1.67-.75-2.26-1.94-2.95-14.4-8.29-28.79-16.61-43.19-24.92-3.18-1.83-5.22-.66-5.22 2.99 0 16.28.01 32.55 0 48.83 0 1.86-.24 3.69 2.08 4.58.6.23 1.33 1.31 1.25 1.91-.36 2.94 1.84 3.66 3.73 4.72 1.86 1.05 3.7 2.13 5.54 3.2 12.16 7.02 24.31 14.05 36.48 21.06 2.31 1.33 4.64.19 4.64-2.27.03-17.61.01-35.21.01-52.82Zm-54.63-4.25c0-8.54.02-17.07-.01-25.61 0-2.66-2.33-3.98-4.6-2.67-14.62 8.44-29.23 16.9-43.86 25.32-1.23.71-2.05 1.26-1.79 3.03.14.94-.78 2.58-1.67 3.04-1.72.88-1.76 2.1-1.75 3.66.03 16.45.02 32.9.02 49.35 0 3.63 2.01 4.75 5.2 2.9 14.16-8.18 28.3-16.36 42.47-24.51 1.5-.86 2.91-1.49 2.66-3.74-.09-.8.83-2.13 1.63-2.51 1.64-.78 1.73-1.94 1.73-3.44-.04-8.27-.02-16.54-.02-24.81Zm-326.49-.29c0 8.37.02 16.73-.02 25.1 0 1.41.15 2.39 1.63 3.22.95.53 1.88 2.18 1.79 3.24-.15 1.7.73 2.14 1.82 2.76 14.56 8.4 29.11 16.81 43.67 25.21 2.68 1.55 4.82.31 4.82-2.82.01-16.73 0-33.46.02-50.2 0-1.34-.23-2.18-1.56-2.98-.97-.58-1.97-2.15-1.88-3.19.14-1.72-.57-2.31-1.81-3.03-14.57-8.38-29.12-16.8-43.68-25.21-2.74-1.58-4.8-.38-4.81 2.79-.01 8.37 0 16.73 0 25.1ZM490.39 63.04v25.09c0 3.39 1.93 4.53 4.87 2.84 14.64-8.42 29.28-16.85 43.88-25.35.7-.41.96-1.58 1.43-2.4.64-1.11 1.03-2.63 1.99-3.23 1.28-.8 1.57-1.61 1.56-2.97-.04-16.82-.01-33.63-.02-50.45 0-3.18-2.23-4.44-4.98-2.85-14.48 8.35-28.95 16.71-43.44 25.04-1.23.71-1.97 1.31-1.88 3.02.06 1.06-.92 2.61-1.88 3.2-1.31.8-1.57 1.63-1.57 2.98.04 8.36.02 16.73.02 25.09Zm53.75 121.32c0-16.83-.02-33.9.02-50.96 0-1.98.22-3.81-2.15-4.81-.69-.29-1.38-1.63-1.32-2.43.13-1.75-.91-2.26-2.1-2.95-14.47-8.34-28.93-16.71-43.4-25.06-2.56-1.48-4.76-.31-4.77 2.59-.03 16.81-.04 33.61 0 50.42 0 .77.33 1.93.88 2.23 2.45 1.32 3.01 3.29 2.35 5.79 14.88 8.62 29.66 17.12 44.36 25.77 2.3 1.35 4.13 1.61 6.11-.58ZM268.17 97.24c-.39.21-.94.5-1.48.81-14.17 8.17-28.33 16.35-42.5 24.52-1.66.96-3.46 1.66-3.33 4.19.04.74-.89 1.85-1.65 2.23-1.35.67-1.65 1.52-1.64 2.93.05 16.81.03 33.63.04 50.44 0 3.23 2.35 4.57 5.15 2.97 2.24-1.28 4.48-2.55 6.71-3.84 12.85-7.42 25.7-14.85 38.54-22.27-.23-.15-.47-.3-.7-.45.75-1.62 1.1-3.79 2.37-4.72 1.44-1.06 1.6-2.04 1.6-3.48-.01-16.1-.06-32.2.05-48.31.02-2.49-.3-4.34-3.16-5.01Zm3.1 245.39c0-17.2-.06-34.11.06-51.02.02-2.58-.37-4.47-3.16-5.27-.13.06-.38.14-.61.27-15.03 8.65-30.17 17.12-44.97 26.15-2.44 1.49-3.36 5.44-4.98 8.26-.04.07 0 .18 0 .26 0 17-.02 34 0 51 0 2.4 2.26 3.78 4.3 2.61 14.88-8.56 29.74-17.14 44.58-25.75.58-.34 1.31-1.14 1.28-1.68-.15-2.59 1.3-3.91 3.5-4.83Zm164.58-185.42v25.08c0 3.39 2.33 4.7 5.3 2.98 14.32-8.26 28.63-16.54 42.96-24.78 1.38-.79 2.32-1.45 2.05-3.39-.13-.95.77-2.54 1.65-3.05 1.52-.88 1.75-1.94 1.75-3.46-.04-16.46-.03-32.91-.05-49.37 0-3.62-1.93-4.72-5.02-2.93-14.39 8.32-28.77 16.64-43.18 24.93-1.22.7-2.06 1.31-2.08 2.97-.02.95-.9 2.32-1.76 2.73-1.55.75-1.65 1.79-1.64 3.2.04 8.36.02 16.72.02 25.08Zm-269.65 1.77c.21.2.33.34.47.43 15.15 8.77 30.31 17.55 45.47 26.3 2.14 1.24 4.58-.47 4.58-3.18 0-16.64.09-33.27-.07-49.91-.03-3.73-3.71-5.91-5.03-9.17-14.78-8.54-29.55-17.08-44.34-25.6-2.11-1.21-4.25.05-4.26 2.5-.02 16.99-.02 33.98.02 50.97 0 .66.37 1.66.87 1.92 2.52 1.3 2.97 3.31 2.28 5.74Zm-57.75-1.88c0 8.54-.01 17.08 0 25.62 0 2.51 2.66 4.04 4.8 2.81 14.64-8.43 29.26-16.88 43.91-25.29 1.18-.68 1.71-1.27 1.61-2.84-.07-1.17.74-2.99 1.71-3.51 1.66-.91 1.63-2.07 1.63-3.5-.02-16.37-.02-32.74-.02-49.11 0-3.84-1.77-4.85-5.11-2.93-14.24 8.22-28.48 16.45-42.73 24.66-1.33.76-2.48 1.43-2.5 3.33 0 .86-.89 2.13-1.69 2.48-1.61.7-1.64 1.79-1.63 3.19.03 8.36.02 16.72.02 25.09Zm50.83 126.76c-.79-1.18-1.13-2.25-1.84-2.66a5652 5652 0 0 0-44.64-25.63c-.69-.39-1.83 0-2.76.02-1.28.03-2.88.56-3.77-.02-1.49-.97-2.4-.45-3.59.23-14.47 8.37-28.95 16.72-43.43 25.08-2.99 1.73-2.98 3.85.05 5.6 14.32 8.27 28.65 16.53 42.96 24.81 1.39.81 2.58 1.69 4.3.38.65-.49 2.3-.44 3 .06 1.62 1.15 2.75.42 4.08-.35 14.46-8.34 28.94-16.65 43.38-25.02.83-.48 1.36-1.47 2.26-2.49ZM323 190.46c-.66-1.31-.95-3.08-1.93-3.65-14.94-8.79-29.97-17.43-45-26.06-.59-.34-1.44-.27-2.17-.29-1.43-.03-2.86 0-4.29.05-.73.02-1.58-.11-2.16.21-15.05 8.62-30.07 17.28-45.07 25.97-2.06 1.19-1.96 3.78.11 4.98 14.71 8.49 29.41 16.98 44.17 25.39.67.38 1.78-.02 2.69-.05 1.5-.05 3.37-.67 4.43 0 1.49.93 2.32.58 3.52-.13 4.29-2.53 8.62-4.99 12.93-7.48l32.78-18.93ZM57.22 217.85c.74-.41 1.52-.82 2.28-1.26 14.16-8.18 28.32-16.34 42.44-24.57.91-.53 1.87-1.48 2.17-2.44.53-1.69-.71-2.57-2.14-3.39-13.88-7.95-27.72-15.97-41.58-23.97-2.01-1.16-3.89-2.84-6.5-1.36-.38.22-1.15.15-1.55-.1-1.65-1.04-2.97-.33-4.36.56-1.57 1-3.22 1.88-4.84 2.82-12.92 7.46-25.85 14.9-38.74 22.41-2.73 1.59-2.57 3.73.19 5.33 4.7 2.71 9.39 5.42 14.08 8.13 10.38 5.99 20.76 11.98 31.1 17.94 2.95-2.41 4.14-2.41 7.44-.09Zm108.51 65.89c1.09 1.14 1.69 2.1 2.55 2.6 14.53 8.45 29.1 16.84 43.64 25.26 1.22.71 2.2 1.08 3.64.28.84-.47 2.39-.43 3.24.05 1.33.75 2.22.47 3.37-.2 14.62-8.48 29.26-16.91 43.88-25.37 2.8-1.62 2.74-3.81-.11-5.45-14.4-8.32-28.81-16.63-43.19-24.97-1.38-.8-2.44-1.13-4.03-.16-.89.54-2.47-.06-3.74-.12-.92-.05-2.06-.43-2.75-.04-14.83 8.46-29.62 16.99-44.38 25.57-.73.43-1.17 1.37-2.14 2.56Zm-53.87-92.95c15.53 8.97 31.28 18.06 46.97 27.12 3.19-2.39 4.19-2.39 7.55-.03 15.03-8.68 30.1-17.38 45.17-26.1 2.6-1.5 2.62-3.82 0-5.34-14.31-8.27-28.63-16.51-42.94-24.78-1.69-.98-3.27-2.08-5.36-.88-.51.29-1.38-.1-2.08-.06-1.2.07-2.61-.13-3.57.42-14.2 8.1-28.33 16.32-42.51 24.45-2 1.14-3.85 2.17-3.22 5.19Zm265.9 92.89c-1.12-1.17-1.72-2.15-2.6-2.67-14.52-8.45-29.07-16.83-43.61-25.25-1.1-.64-1.95-1-3.3-.15-.93.59-2.79.7-3.68.14-1.5-.95-2.5-.63-3.8.12-14.45 8.38-28.93 16.73-43.39 25.09-2.75 1.59-2.7 3.87.12 5.5 14.32 8.27 28.64 16.52 42.94 24.8 1.48.86 2.76 1.74 4.58.49.67-.46 2 .1 3.03.12 1.03.02 2.28.32 3.07-.13 14.82-8.45 29.6-16.98 44.35-25.55.76-.44 1.25-1.36 2.27-2.51Zm61.09-28.99c-2 1.68-3.92 2.23-6.16.62-.46-.33-1.65-.02-2.3.36-14.72 8.46-29.42 16.95-44.11 25.46-2.41 1.4-2.39 3.74.06 5.16 14.69 8.5 29.28 17.19 44.19 25.28 2.54 1.38 6.46.41 9.72.15 1.2-.09 2.31-1.25 3.47-1.91 13.55-7.82 27.1-15.64 40.64-23.47 2.33-1.35 2.53-3.84.38-5.08-15.21-8.83-30.45-17.63-45.89-26.57ZM377.27 218c1.74-1.57 3.66-2.66 5.59-1.09 1.4 1.13 2.27.71 3.49 0 14.3-8.29 28.64-16.53 42.92-24.85.92-.54 1.88-1.52 2.2-2.49.55-1.7-.7-2.59-2.13-3.41-14.04-8.04-28.04-16.14-42.04-24.24-1.84-1.06-3.51-2.34-5.82-.93-.57.35-1.67-.26-2.53-.3-.88-.04-1.94-.22-2.63.18-14.96 8.57-29.89 17.2-44.81 25.84-2.16 1.25-2.12 3.68.05 4.93 15.16 8.76 30.32 17.51 45.7 26.38Zm163.53-27.31c.2-2.36-.72-3.66-2.66-4.76-14.06-7.99-28.05-16.1-42.04-24.2-1.69-.98-3.21-2.18-5.3-.77-.5.34-1.52-.13-2.29-.13-1.12 0-2.46-.3-3.33.2-14.36 8.19-28.63 16.53-42.99 24.71-2.04 1.16-3.37 2.37-2.94 4.94.06.05.18.2.33.28 15.15 8.76 30.3 17.52 45.5 26.21.61.35 1.65-.07 2.49-.09 1.57-.05 3.38-.57 4.65.03 1.27.6 1.97.56 3.04-.07 5.68-3.32 11.39-6.57 17.08-9.86 9.53-5.51 19.05-11.03 28.48-16.49ZM111.39 65.62l-.04.72c-1.74.06-3.69.63-5.17.03-1.42-.57-2.23-.35-3.32.28-14.62 8.45-29.25 16.89-43.87 25.33-2.56 1.48-2.55 3.77.06 5.28 9.85 5.7 19.71 11.37 29.56 17.06 5.29 3.05 10.57 6.11 15.83 9.15 2.08-1.96 4.06-2.47 6.39-.76.48.35 1.65.22 2.25-.12 14.73-8.45 29.42-16.94 44.11-25.45 2.12-1.23 2.22-3.78.15-4.98-15.3-8.87-30.63-17.7-45.94-26.54Zm272.46 29.03c1.21 1.2 1.88 2.18 2.8 2.72 14.45 8.39 28.94 16.72 43.39 25.1 1.17.68 1.98.84 3.31.09 1.04-.59 3.05-.76 3.88-.13 1.66 1.24 2.72.51 4-.23 14.24-8.21 28.49-16.42 42.73-24.64 3.11-1.8 3.13-4.05.01-5.85-14.24-8.23-28.49-16.43-42.71-24.69-1.52-.88-2.71-1.46-4.5-.28-.8.53-2.43-.23-3.7-.35-.77-.07-1.72-.33-2.31 0-14.96 8.57-29.9 17.2-44.81 25.86-.67.39-1.09 1.2-2.12 2.39Zm-3.54 157.32c0-8.18-.02-16.36.01-24.54 0-1.8.19-3.47-1.98-4.39-.68-.29-.87-1.62-1.37-2.42-.59-.95-1.05-2.21-1.93-2.72-14.57-8.53-29.2-16.96-43.81-25.4-2.78-1.61-4.45-.59-4.45 2.71 0 16.81.02 33.61-.01 50.42 0 1.58.08 2.81 1.79 3.67.81.41 1.05 1.88 1.6 2.85.51.9.87 2.12 1.65 2.58 14.65 8.56 29.35 17.04 44.06 25.52 2.6 1.5 4.43.39 4.44-2.66.02-8.54 0-17.07 0-25.61Zm1 27.47c1.64 1.35 2.97 1.78 4.89.65 14.41-8.45 28.9-16.77 43.38-25.11 1.21-.69 2.07-1.32 2.04-3.01-.01-.95.8-2.36 1.64-2.8 1.51-.79 1.63-1.83 1.63-3.24-.03-16.81-.02-33.62-.03-50.43 0-4.04-1.35-4.8-4.9-2.75-14.39 8.31-28.77 16.63-43.17 24.93-1.17.68-2.14 1.23-2.17 2.93-.02.95-.87 2.32-1.72 2.73-1.56.76-1.6 1.83-1.6 3.22.02 16.99.01 33.97.01 50.96v1.92ZM268.54 94.52c-.9-1.02-1.38-1.92-2.12-2.35-14.77-8.57-29.56-17.1-44.39-25.57-.7-.4-1.81-.08-2.73-.08-1.42 0-2.85 0-4.27.01-1.01.01-2.22-.29-2.99.15-14.52 8.28-29 16.65-43.47 25.01-3.13 1.81-3.16 3.99-.1 5.75 14.25 8.23 28.5 16.43 42.73 24.69 1.44.84 2.5 1.52 4.23.23.83-.62 2.6.04 3.94.12.92.06 2.06.51 2.72.12 14.83-8.46 29.62-16.99 44.38-25.57.73-.43 1.16-1.39 2.07-2.52ZM107.47 220.53h-.01v-25.36c0-3.61-1.38-4.41-4.56-2.58-14.25 8.21-28.49 16.45-42.74 24.66-1.54.89-3.12 1.57-3.06 3.84.02.69-.79 1.76-1.48 2.03-1.7.69-1.72 1.9-1.72 3.39.03 16.99.01 33.99.02 50.98 0 3.02 2.03 4.16 4.67 2.64 14.63-8.44 29.27-16.87 43.86-25.4.78-.46 1.13-1.68 1.64-2.56.65-1.1 1.28-2.2 1.88-3.32.52-.97 1.42-1.97 1.43-2.96.11-8.45.07-16.9.07-25.36Zm163.78 31.27c0-8.01-.03-16.01.02-24.02.01-1.96.28-3.82-2.14-4.79-.67-.27-.88-1.63-1.36-2.46-.52-.89-.9-2.1-1.7-2.56-14.66-8.57-29.36-17.05-44.07-25.53-2.71-1.56-4.35-.55-4.36 2.66-.02 16.72 0 33.44-.04 50.17 0 1.75 0 3.24 1.97 4.15.74.35.96 1.77 1.48 2.66.56.96.96 2.25 1.81 2.75 14.58 8.52 29.21 16.95 43.84 25.39 2.5 1.44 4.52.3 4.53-2.54V251.8Zm54.52-30.96v-25.61c0-3.43-1.63-4.34-4.65-2.6-14.24 8.21-28.47 16.44-42.72 24.65-1.54.89-3.1 1.55-2.97 3.86.04.74-.87 1.91-1.63 2.24-1.61.7-1.58 1.85-1.58 3.22.02 16.9.02 33.79.02 50.69 0 3.44 1.71 4.5 4.64 2.81 14.48-8.34 28.95-16.7 43.42-25.05 1.22-.7 2.39-1.25 2.23-3.15-.08-.9.83-2.36 1.67-2.75 1.61-.75 1.6-1.85 1.59-3.22-.03-8.36-.01-16.72-.02-25.08Zm-3.03-97.34c2.05-1.81 4.03-2.46 6.33-.64.41.32 1.51.18 2.06-.14 14.8-8.49 29.57-17.03 44.33-25.58 2.3-1.34 2.28-3.74-.04-5.08-14.69-8.5-29.38-17-44.13-25.42-.76-.44-1.99-.05-3-.07-1.42-.03-2.84-.08-4.27-.11-.86-.02-1.9-.37-2.54 0a9361.74 9361.74 0 0 0-44.58 25.7c-1.92 1.11-1.97 3.75-.09 4.84 15.23 8.81 30.47 17.59 45.92 26.5Zm58.57-60.21c0 8.45-.01 16.91 0 25.36 0 2.65 2.09 3.88 4.38 2.56 14.8-8.52 29.68-16.89 44.26-25.76 2.34-1.43 3.31-5.13 4.9-7.78.04-.06 0-.17 0-.26 0-17.08.02-34.16 0-51.25 0-2.72-2.24-3.96-4.61-2.6-14.63 8.44-29.25 16.91-43.89 25.34-1.13.65-1.83 1.19-1.73 2.81.07 1.07-.85 2.67-1.8 3.23-1.35.8-1.54 1.66-1.54 2.99.04 8.45.02 16.91.02 25.36Zm-55.54-31.36c0-8.63.02-17.26-.01-25.89 0-2.48-2.35-3.83-4.48-2.6-14.63 8.44-29.34 16.74-43.78 25.49-2.78 1.69-3.22 5.92-5.27 8.67-.04.06 0 .17 0 .26 0 16.9-.02 33.81 0 50.71 0 2.89 2.04 3.99 4.57 2.53L320 66.17c1.35-.78 2.72-1.35 2.51-3.48-.09-.87.88-2.29 1.74-2.72 1.44-.71 1.55-1.66 1.55-2.97-.03-8.36-.01-16.73-.02-25.09Zm54.54 283.54v-25.08c0-3.56-1.98-4.76-4.97-3.03-14.47 8.35-28.93 16.73-43.42 25.05-1.25.72-1.87 1.41-1.9 3.05-.02 1.15-1.31 2.27-2.02 3.41-.42.68-1.15 1.38-1.15 2.07-.07 16.99-.09 33.97-.06 50.96 0 3.14 2.1 4.23 4.81 2.67 14.4-8.31 28.79-16.63 43.2-24.9 1.38-.79 2.35-1.51 2.29-3.4-.03-.92.86-2.27 1.71-2.73 1.38-.74 1.53-1.66 1.53-2.98-.04-8.36-.02-16.72-.02-25.08Zm-54.51 31.52h-.01v-25.36c0-1.28-.09-2.23-1.48-3.02-.95-.54-1.87-2.15-1.8-3.21.12-1.75-.74-2.31-1.94-3-14.57-8.38-29.12-16.78-43.69-25.17-2.52-1.45-4.64-.2-4.64 2.75 0 16.91-.19 33.82.19 50.72.06 2.77 2.63 5.5 4.1 8.21.18.33.74.47 1.12.69 6.16 3.56 12.33 7.1 18.48 10.67 8.23 4.77 16.44 9.58 24.68 14.34 2.76 1.59 4.96.44 4.96-2.53.02-8.36 0-16.72 0-25.09Zm54.52-283.61V38.29c0-1.45.06-2.68-1.68-3.47-.81-.37-1.61-1.87-1.57-2.81.1-1.89-.84-2.59-2.25-3.4-14.34-8.23-28.64-16.53-42.95-24.79-3.01-1.74-5.1-.57-5.1 2.85 0 16.72.01 33.45-.02 50.17 0 1.41.12 2.42 1.61 3.23.88.48 1.18 2 1.77 3.03.51.88.86 2.1 1.64 2.56 14.51 8.47 29.07 16.85 43.63 25.25 3.15 1.82 4.89.75 4.89-2.98V63.38Zm-109.06-.15c0-8.37-.02-16.73.02-25.1 0-1.42-.17-2.38-1.62-3.22-.95-.55-1.9-2.21-1.79-3.25.18-1.68-.64-2.15-1.73-2.78-14.48-8.35-28.96-16.72-43.43-25.08-3-1.73-5.06-.53-5.06 2.96 0 16.38 0 32.75-.02 49.13 0 1.8-.22 3.46 1.95 4.42.75.33 1.46 1.77 1.4 2.65-.11 1.72.83 2.31 2.03 3.01 14.49 8.34 28.97 16.71 43.45 25.07 2.81 1.62 4.79.5 4.79-2.7.01-8.37 0-16.73 0-25.1ZM107.47 31.62h.02V6.81c0-3.84-1.79-4.9-5.07-3.01-14.16 8.17-28.31 16.36-42.48 24.51-1.55.89-3.08 1.54-2.77 3.89.1.78-.81 2.18-1.59 2.51-1.61.68-1.66 1.74-1.66 3.15.03 16.81.01 33.61.02 50.42 0 3.09 2.1 4.28 4.81 2.71 14.24-8.22 28.46-16.46 42.72-24.66 1.57-.9 3.02-1.6 2.78-3.91-.08-.81.82-2.15 1.61-2.52 1.57-.73 1.64-1.8 1.63-3.21-.04-8.36-.02-16.72-.02-25.08Zm276.15 65.1c-.8 1.38-2.19 2.65-2.2 3.93-.15 16.82-.13 33.64-.04 50.46 0 .89.95 1.77 1.42 2.68.66 1.27 1.3 2.54 1.93 3.83.37.76.5 1.9 1.1 2.25 15.28 8.92 30.61 17.75 45.7 26.46 3.18-.77 3.44-2.88 3.42-5.5-.1-15.75-.05-31.5-.05-47.25 0-1.99.44-4.15-2.19-5.07-.46-.16-1.02-1.02-.97-1.5.3-2.92-1.96-3.61-3.83-4.69-2.69-1.55-5.38-3.13-8.07-4.68-11.85-6.85-23.71-13.69-36.22-20.91ZM107.53 346.68v-24.83c0-1.43.07-2.63-1.63-3.5-.92-.47-1.21-2.16-1.82-3.28-.45-.83-.74-2-1.45-2.41-14.74-8.61-29.53-17.13-44.32-25.66-2.23-1.29-4.36-.02-4.36 2.61-.01 17-.03 33.99.05 50.99 0 .88.92 1.76 1.42 2.63.63 1.1 1.76 2.19 1.79 3.31.03 1.53.63 2.16 1.79 2.83 14.49 8.33 28.95 16.7 43.44 25.05 3.04 1.75 5.09.57 5.09-2.91.01-8.28 0-16.55 0-24.83Zm214.88-160.34c3.19-.77 3.45-2.86 3.43-5.48-.1-16.01-.05-32.03-.05-48.04 0-1.66.26-3.32-1.93-4.11-.68-.25-1.43-1.61-1.36-2.39.17-1.87-.97-2.43-2.23-3.16-14.25-8.21-28.49-16.46-42.73-24.69-3.47-2.01-5.28-.99-5.28 2.96 0 16.38 0 32.75-.03 49.13 0 1.46.03 2.61 1.65 3.5.91.5 1.74 2.24 1.62 3.31-.2 1.79.7 2.32 1.89 3 6.4 3.67 12.78 7.37 19.18 11.06 8.7 5.02 17.4 10.03 25.84 14.91Zm-218.46-.1c3.74-.7 3.63-3.23 3.62-5.92-.07-16.01.03-32.02-.09-48.02-.03-3.61-3.61-5.6-4.79-8.76-.02-.06-.15-.09-.23-.13-14.7-8.48-29.4-16.97-44.11-25.44-2.35-1.35-4.4-.24-4.4 2.43-.02 16.89-.03 33.79.04 50.68 0 .83.84 1.65 1.27 2.48.69 1.33 1.38 2.67 2.05 4.01.38.76.49 1.93 1.09 2.28 15.27 8.92 30.59 17.75 45.56 26.39Zm226.2.04c.52-.28 1.3-.68 2.07-1.13 14.24-8.23 28.46-16.48 42.73-24.66 1.44-.82 2.2-1.56 2.15-3.41-.03-1.08 1.16-2.19 1.78-3.3.5-.89 1.37-1.8 1.37-2.7.09-16.72.07-33.45.06-50.17 0-3.15-2.03-4.28-4.78-2.7-14.17 8.17-28.33 16.35-42.5 24.5-1.63.94-3.24 1.69-3.07 4.07.05.68-.76 1.76-1.43 2.07-1.63.73-1.77 1.88-1.77 3.42.05 16.19.08 32.37 0 48.56-.01 2.59.13 4.76 3.4 5.46Zm51.17 128.98v24.56c0 1.59-.24 3.08 1.81 3.91.8.32 1.64 1.91 1.54 2.82-.19 1.79.81 2.29 1.98 2.97 14.41 8.29 28.81 16.6 43.22 24.9 3.15 1.81 5.03.77 5.03-2.8 0-16.55 0-33.1.02-49.65 0-1.49-.09-2.62-1.68-3.5-.88-.49-1.68-2.04-1.62-3.06.09-1.7-.71-2.34-1.93-3.04-14.48-8.33-28.94-16.7-43.41-25.05-2.82-1.63-4.95-.39-4.95 2.85v25.09Z" style="fill:#92dbca;opacity:.3;stroke-width:0"/></svg>
