<svg aria-hidden="true" width="20" height="20" viewBox="0 0 24 24" fill="none" xmlns="http://www.w3.org/2000/svg">
<path d="M4 22V16.134C4 14.9107 4.43133 13.8677 5.294 13.005C6.15667 12.1423 7.19967 11.711 8.423 11.711H9.712V3.634C9.712 3.18467 9.866 2.8 10.174 2.48C10.4827 2.16 10.8607 2 11.308 2H12.692C13.14 2 13.518 2.16 13.826 2.48C14.1347 2.8 14.289 3.18467 14.289 3.634V11.712H15.558C16.7867 11.712 17.8343 12.143 18.701 13.005C19.567 13.8683 20 14.9117 20 16.135V22H4ZM5 21H7.75V17.48C7.75 17.3387 7.798 17.2203 7.894 17.125C7.99 17.0297 8.109 16.9817 8.251 16.981C8.393 16.9803 8.51167 17.028 8.607 17.124C8.70233 17.22 8.75 17.339 8.75 17.481V21H11.5V17.48C11.5 17.3387 11.548 17.2203 11.644 17.125C11.74 17.0297 11.859 16.9817 12.001 16.981C12.143 16.9803 12.2617 17.028 12.357 17.124C12.4523 17.22 12.5 17.339 12.5 17.481V21H15.25V17.48C15.25 17.3387 15.298 17.2203 15.394 17.125C15.49 17.0297 15.609 16.9817 15.751 16.981C15.893 16.9803 16.0117 17.028 16.107 17.124C16.2023 17.22 16.25 17.339 16.25 17.481V21H19V16.134C19 15.1727 18.6653 14.362 17.996 13.702C17.3267 13.042 16.514 12.712 15.558 12.712H8.423C7.47233 12.712 6.66433 13.0447 5.999 13.71C5.333 14.3753 5 15.1833 5 16.134V21ZM13.289 11.712V3.634C13.289 3.454 13.231 3.30333 13.115 3.182C12.9997 3.06067 12.8587 3 12.692 3H11.308C11.1413 3 11 3.061 10.884 3.183C10.7687 3.305 10.711 3.45567 10.711 3.635V11.712H13.289Z" fill="currentColor"/>
</svg>