<svg xmlns="http://www.w3.org/2000/svg" width="276" height="276" fill="none" viewBox="0 0 276 276"><path fill="url(#a)" d="M137.6 0c-36.49 0-71.49 14.5-97.3 40.3A137.58 137.58 0 0 0 0 137.6c0 36.5 14.5 71.49 40.3 97.3a137.58 137.58 0 0 0 97.3 40.3c36.5 0 71.49-14.5 97.3-40.3a137.58 137.58 0 0 0 40.3-97.3 137.722 137.722 0 0 0-40.35-97.25A137.722 137.722 0 0 0 137.6 0Z"/><path fill="#fff" d="m159.92 142.96 49.51-51.52c5.05-5.27 4.89-13.67-.38-18.73l-2.69-2.58c-2.56-2.45-5.86-3.73-9.44-3.69-3.54.07-6.83 1.52-9.29 4.07l-49.5 51.52-51.61-49.59c-2.56-2.45-5.88-3.64-9.44-3.69-3.54.07-6.83 1.52-9.28 4.07l-2.59 2.69a13.172 13.172 0 0 0-3.69 9.44c.07 3.53 1.52 6.84 4.07 9.29l51.61 49.58-45.55 47.41c-5.05 5.26-4.89 13.66.38 18.73l2.69 2.58c2.49 2.39 5.73 3.69 9.17 3.69h.27c3.54-.07 6.83-1.52 9.29-4.07L139 164.75l47.32 45.47c2.49 2.39 5.73 3.69 9.17 3.69h.27c3.54-.07 6.83-1.52 9.29-4.07l2.58-2.69a13.18 13.18 0 0 0 3.7-9.44c-.07-3.54-1.52-6.84-4.07-9.29l-47.32-45.47-.02.01Z"/><defs><linearGradient id="a" x1="0" x2="275.2" y1="137.59" y2="137.59" gradientUnits="userSpaceOnUse"><stop stop-color="#FF7A7F"/><stop offset="1" stop-color="#FF577F"/></linearGradient></defs></svg>