<svg fill="none" height="529" viewBox="0 0 536 529" width="536" xmlns="http://www.w3.org/2000/svg" xmlns:xlink="http://www.w3.org/1999/xlink"><filter id="a" color-interpolation-filters="sRGB" filterUnits="userSpaceOnUse" height="21.8589" width="19.8785" x="8.19749" y="217.996"><feFlood flood-opacity="0" result="BackgroundImageFix"/><feBlend in="SourceGraphic" in2="BackgroundImageFix" mode="normal" result="shape"/><feGaussianBlur result="effect1_foregroundBlur_5159_96786" stdDeviation="3.2704"/></filter><filter id="b" color-interpolation-filters="sRGB" filterUnits="userSpaceOnUse" height="21.8589" width="19.8785" x="325.424" y="187.258"><feFlood flood-opacity="0" result="BackgroundImageFix"/><feBlend in="SourceGraphic" in2="BackgroundImageFix" mode="normal" result="shape"/><feGaussianBlur result="effect1_foregroundBlur_5159_96786" stdDeviation="3.2704"/></filter><filter id="c" color-interpolation-filters="sRGB" filterUnits="userSpaceOnUse" height="21.8589" width="19.8785" x="108.928" y="157.822"><feFlood flood-opacity="0" result="BackgroundImageFix"/><feBlend in="SourceGraphic" in2="BackgroundImageFix" mode="normal" result="shape"/><feGaussianBlur result="effect1_foregroundBlur_5159_96786" stdDeviation="3.2704"/></filter><linearGradient id="d"><stop offset="0" stop-color="#005d84"/><stop offset="1" stop-color="#4a989d"/></linearGradient><linearGradient id="e" gradientUnits="userSpaceOnUse" x1="432.044" x2="517.368" xlink:href="#d" y1="265.874" y2="265.874"/><linearGradient id="f"><stop offset="0" stop-color="#8ed7c6"/><stop offset="1" stop-color="#56adab"/></linearGradient><linearGradient id="g" gradientUnits="userSpaceOnUse" x1="440.573" x2="502.34" xlink:href="#f" y1="295.702" y2="271.046"/><linearGradient id="h"><stop offset="0" stop-color="#009877"/><stop offset="1" stop-color="#50d098"/></linearGradient><linearGradient id="i" gradientUnits="userSpaceOnUse" x1="438.15" x2="500.083" xlink:href="#h" y1="289.181" y2="318.428"/><linearGradient id="j" gradientUnits="userSpaceOnUse" x1="432.044" x2="517.368" xlink:href="#d" y1="291.259" y2="291.259"/><linearGradient id="k" gradientUnits="userSpaceOnUse" x1="435.763" x2="499.047" xlink:href="#f" y1="185.207" y2="164.611"/><linearGradient id="l" gradientUnits="userSpaceOnUse" x1="427.427" x2="510.818" xlink:href="#d" y1="179.881" y2="179.881"/><linearGradient id="m"><stop offset="0" stop-color="#ff797f"/><stop offset="1" stop-color="#ff587f"/></linearGradient><linearGradient id="n" gradientUnits="userSpaceOnUse" x1="435.763" x2="499.047" xlink:href="#m" y1="185.207" y2="164.611"/><linearGradient id="o" gradientUnits="userSpaceOnUse" x1="34.9162" x2="72.7871" xlink:href="#h" y1="308.113" y2="326.554"/><linearGradient id="p" gradientUnits="userSpaceOnUse" x1="30.4281" x2="84.6238" xlink:href="#d" y1="318.903" y2="318.903"/><linearGradient id="q" gradientUnits="userSpaceOnUse" x1="35.8454" x2="71.0209" xlink:href="#f" y1="320.984" y2="301.941"/><linearGradient id="r" gradientUnits="userSpaceOnUse" x1="35.8454" x2="71.0209" xlink:href="#m" y1="320.984" y2="301.941"/><linearGradient id="s" gradientUnits="userSpaceOnUse" x1="54.5021" x2="73.0716" xlink:href="#f" y1="312.512" y2="305.643"/><linearGradient id="t" gradientUnits="userSpaceOnUse" x1=".764873" x2="6.85416" xlink:href="#f" y1="4.45034" y2="3.00331"/><linearGradient id="u" gradientUnits="userSpaceOnUse" x1="53.5357" x2="54.7345" xlink:href="#h" y1="306.38" y2="306.541"/><linearGradient id="v" gradientUnits="userSpaceOnUse" x1="55.4749" x2="58.5516" xlink:href="#f" y1="308.013" y2="305.243"/><linearGradient id="w" gradientUnits="userSpaceOnUse" x1="61.5903" x2="62.7294" xlink:href="#f" y1="306.749" y2="306.619"/><linearGradient id="x" gradientUnits="userSpaceOnUse" x1="7.7334" x2="12.592" xlink:href="#m" y1="3.03806" y2="-14.0622"/><linearGradient id="y" gradientUnits="userSpaceOnUse" x1="14.7754" x2="25.7158" xlink:href="#d" y1="218.469" y2="218.469"/><linearGradient id="z" gradientUnits="userSpaceOnUse" x1="89.619" x2="101.184" xlink:href="#h" y1="264.755" y2="267.168"/><linearGradient id="A" gradientUnits="userSpaceOnUse" x1=".560358" x2="7.01785" xlink:href="#h" y1="3.54944" y2="5.36486"/><linearGradient id="B" gradientUnits="userSpaceOnUse" x1="352.143" x2="390.014" xlink:href="#h" y1="277.375" y2="295.815"/><linearGradient id="C" gradientUnits="userSpaceOnUse" x1="347.655" x2="401.85" xlink:href="#d" y1="288.165" y2="288.165"/><linearGradient id="D" gradientUnits="userSpaceOnUse" x1="353.072" x2="388.247" xlink:href="#f" y1="290.245" y2="271.203"/><linearGradient id="E" gradientUnits="userSpaceOnUse" x1="353.072" x2="388.247" xlink:href="#m" y1="290.245" y2="271.203"/><linearGradient id="F" gradientUnits="userSpaceOnUse" x1="371.729" x2="390.298" xlink:href="#f" y1="281.774" y2="274.905"/><linearGradient id="G" gradientUnits="userSpaceOnUse" x1="370.762" x2="371.961" xlink:href="#h" y1="275.642" y2="275.803"/><linearGradient id="H" gradientUnits="userSpaceOnUse" x1="372.701" x2="375.778" xlink:href="#f" y1="277.275" y2="274.505"/><linearGradient id="I" gradientUnits="userSpaceOnUse" x1="378.817" x2="379.956" xlink:href="#f" y1="276.011" y2="275.881"/><linearGradient id="J" gradientUnits="userSpaceOnUse" x1="332.002" x2="342.942" xlink:href="#d" y1="187.731" y2="187.731"/><linearGradient id="K" gradientUnits="userSpaceOnUse" x1="406.846" x2="418.411" xlink:href="#h" y1="234.016" y2="236.43"/><linearGradient id="L"><stop offset="0" stop-color="#8075b3" stop-opacity="0"/><stop offset="1" stop-color="#98e1d0"/></linearGradient><linearGradient id="M" gradientUnits="userSpaceOnUse" x1="475.867" x2="475.867" xlink:href="#L" y1="199.208" y2="264.94"/><linearGradient id="N" gradientUnits="userSpaceOnUse" x1="280.419" x2="318.397" xlink:href="#h" y1="338.854" y2="348.101"/><linearGradient id="O" gradientUnits="userSpaceOnUse" x1="231.863" x2="277.18" xlink:href="#d" y1="340.995" y2="340.995"/><linearGradient id="P" gradientUnits="userSpaceOnUse" x1="5.22147" x2="46.7905" xlink:href="#m" y1="30.3806" y2="20.5024"/><linearGradient id="Q"><stop offset="0"/><stop offset="1" stop-color="#666"/></linearGradient><linearGradient id="R" gradientUnits="userSpaceOnUse" x1="26.1632" x2="26.1632" xlink:href="#Q" y1="0" y2="52.3263"/><linearGradient id="S" gradientUnits="userSpaceOnUse" x1="2.61073" x2="23.3952" xlink:href="#f" y1="15.1903" y2="10.2512"/><linearGradient id="T" gradientUnits="userSpaceOnUse" x1="13.0816" x2="13.0816" xlink:href="#Q" y1="0" y2="26.1632"/><linearGradient id="U" gradientUnits="userSpaceOnUse" x1="248.065" x2="255.895" xlink:href="#f" y1="314.891" y2="314.284"/><linearGradient id="V" gradientUnits="userSpaceOnUse" x1="251.822" x2="251.822" xlink:href="#Q" y1="298.182" y2="326.961"/><linearGradient id="W" gradientUnits="userSpaceOnUse" x1="261.038" x2="291.221" xlink:href="#m" y1="323.524" y2="308.132"/><linearGradient id="X" gradientUnits="userSpaceOnUse" x1="279.174" x2="279.174" xlink:href="#Q" y1="311.264" y2="332.38"/><linearGradient id="Y" gradientUnits="userSpaceOnUse" x1="306.525" x2="306.525" xlink:href="#Q" y1="298.182" y2="326.961"/><linearGradient id="Z" gradientUnits="userSpaceOnUse" x1="278.964" x2="278.964" xlink:href="#L" y1="166.662" y2="293.157"/><linearGradient id="aa"><stop offset="0" stop-color="#8075b3" stop-opacity="0"/><stop offset="1" stop-color="#ffc8dc" stop-opacity=".7"/></linearGradient><linearGradient id="ab" gradientUnits="userSpaceOnUse" x1="278.966" x2="278.966" xlink:href="#aa" y1="149.282" y2="292.248"/><linearGradient id="ac" gradientUnits="userSpaceOnUse" x1="125.662" x2="186.889" xlink:href="#h" y1="413.902" y2="443.716"/><linearGradient id="ad" gradientUnits="userSpaceOnUse" x1="128.08" x2="189.316" xlink:href="#m" y1="413.685" y2="388.481"/><linearGradient id="ae" gradientUnits="userSpaceOnUse" x1="119.552" x2="204.876" xlink:href="#d" y1="402.837" y2="402.837"/><linearGradient id="af" gradientUnits="userSpaceOnUse" x1="125.067" x2="154.508" xlink:href="#m" y1="446.214" y2="440.828"/><linearGradient id="ag" gradientUnits="userSpaceOnUse" x1="169.35" x2="200.093" xlink:href="#h" y1="440.168" y2="446.821"/><linearGradient id="ah" gradientUnits="userSpaceOnUse" x1="119.57" x2="121.447" xlink:href="#d" y1="430.448" y2="430.448"/><linearGradient id="ai" gradientUnits="userSpaceOnUse" x1="157.698" x2="166.761" xlink:href="#d" y1="453.239" y2="453.239"/><linearGradient id="aj" gradientUnits="userSpaceOnUse" x1="122.607" x2="184.68" xlink:href="#h" y1="304.992" y2="328.696"/><linearGradient id="ak" gradientUnits="userSpaceOnUse" x1="124.882" x2="185.779" xlink:href="#m" y1="312.565" y2="292.909"/><linearGradient id="al" gradientUnits="userSpaceOnUse" x1="120.182" x2="125.7" xlink:href="#m" y1="291.383" y2="290.368"/><linearGradient id="am" gradientUnits="userSpaceOnUse" x1="161.364" x2="161.364" xlink:href="#aa" y1="351.747" y2="402.382"/><linearGradient id="an" gradientUnits="userSpaceOnUse" x1="126.777" x2="180.922" xlink:href="#h" y1="250.161" y2="276.526"/><linearGradient id="ao" gradientUnits="userSpaceOnUse" x1="126.218" x2="161.331" xlink:href="#m" y1="268.746" y2="258.327"/><linearGradient id="ap" gradientUnits="userSpaceOnUse" x1="175.415" x2="194.1" xlink:href="#f" y1="274.077" y2="269.682"/><linearGradient id="aq" gradientUnits="userSpaceOnUse" x1="120.582" x2="121.603" xlink:href="#f" y1="252.776" y2="252.751"/><linearGradient id="ar" gradientUnits="userSpaceOnUse" x1="167.194" x2="173.068" xlink:href="#d" y1="279.224" y2="279.224"/><linearGradient id="as" gradientUnits="userSpaceOnUse" x1="145.377" x2="149.345" xlink:href="#m" y1="233.581" y2="232.194"/><linearGradient id="at" gradientUnits="userSpaceOnUse" x1="151.311" x2="155.279" xlink:href="#m" y1="236.548" y2="235.161"/><linearGradient id="au" gradientUnits="userSpaceOnUse" x1="157.248" x2="161.216" xlink:href="#m" y1="239.939" y2="238.551"/><linearGradient id="av" gradientUnits="userSpaceOnUse" x1="161.557" x2="195.792" xlink:href="#d" y1="250.758" y2="250.758"/><linearGradient id="aw" gradientUnits="userSpaceOnUse" x1="164.007" x2="189.097" xlink:href="#h" y1="249.902" y2="261.435"/><linearGradient id="ax" gradientUnits="userSpaceOnUse" x1="189.459" x2="193.427" xlink:href="#f" y1="257.513" y2="256.125"/><linearGradient id="ay" gradientUnits="userSpaceOnUse" x1="189.459" x2="193.427" xlink:href="#m" y1="257.513" y2="256.125"/><linearGradient id="az" gradientUnits="userSpaceOnUse" x1="115.502" x2="126.442" xlink:href="#d" y1="158.297" y2="158.297"/><linearGradient id="aA" gradientUnits="userSpaceOnUse" x1="190.349" x2="201.915" xlink:href="#h" y1="204.583" y2="206.996"/><linearGradient id="aB" gradientUnits="userSpaceOnUse" x1=".78322" x2="7.01857" xlink:href="#m" y1="4.55709" y2="3.07535"/><linearGradient id="aC" gradientUnits="userSpaceOnUse" x1="390.466" x2="423.679" xlink:href="#h" y1="380.594" y2="389.339"/><linearGradient id="aD" gradientUnits="userSpaceOnUse" x1="415.805" x2="446.249" xlink:href="#m" y1="403.993" y2="394.228"/><linearGradient id="aE" gradientUnits="userSpaceOnUse" x1="368.055" x2="399.463" xlink:href="#m" y1="400.596" y2="392.342"/><linearGradient id="aF" gradientUnits="userSpaceOnUse" x1="390.466" x2="424.222" xlink:href="#h" y1="402.521" y2="410.228"/><linearGradient id="aG" gradientUnits="userSpaceOnUse" x1="383.355" x2="423.825" xlink:href="#h" y1="321.898" y2="335.683"/><linearGradient id="aH" gradientUnits="userSpaceOnUse" x1="384.8" x2="424.231" xlink:href="#f" y1="327.288" y2="315.935"/><linearGradient id="aI" gradientUnits="userSpaceOnUse" x1="382.825" x2="388.586" xlink:href="#h" y1="314.848" y2="316.103"/><linearGradient id="aJ" gradientUnits="userSpaceOnUse" x1="308.844" x2="322.643" xlink:href="#m" y1="418.199" y2="412.519"/><linearGradient id="aK" gradientUnits="userSpaceOnUse" x1="307.319" x2="310.853" y1="460.432" y2="460.308"><stop offset="0" stop-color="#ff7a7f"/><stop offset="1" stop-color="#ff577f"/></linearGradient><linearGradient id="aL" gradientUnits="userSpaceOnUse" x1="309.736" x2="323.331" xlink:href="#d" y1="441.383" y2="441.383"/><linearGradient id="aM" gradientUnits="userSpaceOnUse" x1="304.124" x2="324.285" xlink:href="#f" y1="396.22" y2="392.313"/><linearGradient id="aN" gradientUnits="userSpaceOnUse" x1="303.416" x2="324.437" xlink:href="#h" y1="392.295" y2="397.114"/><linearGradient id="aO" gradientUnits="userSpaceOnUse" x1="474.083" x2="493.309" xlink:href="#d" y1="409.71" y2="409.71"/><linearGradient id="aP" gradientUnits="userSpaceOnUse" x1="474.367" x2="476.729" xlink:href="#m" y1="434.849" y2="434.813"/><linearGradient id="aQ" gradientUnits="userSpaceOnUse" x1="476.9" x2="490.495" xlink:href="#d" y1="433.865" y2="433.865"/><linearGradient id="aR" gradientUnits="userSpaceOnUse" x1="471.058" x2="489.451" xlink:href="#f" y1="389.251" y2="385.866"/><linearGradient id="aS" gradientUnits="userSpaceOnUse" x1="474.273" x2="491.884" xlink:href="#m" y1="388.266" y2="385.234"/><clipPath id="aT"><path d="m424.195 134.088h100.728v192.299h-100.728z"/></clipPath><clipPath id="aU"><path d="m11.4688 215.189h90.917v116.426h-90.917z"/></clipPath><clipPath id="aV"><path d="m328.695 184.451h90.917v116.426h-90.917z"/></clipPath><clipPath id="aW"><path d="m202.465.654297h150.438v392.447h-150.438z"/></clipPath><clipPath id="aX"><path d="m112.199 147.822h91.5711v137.357h-91.5711z"/></clipPath><clipPath id="aY"><path d="m360.102 292.373h95.4955v137.357h-95.4955z"/></clipPath><clipPath id="aZ"><path d="m439.898 363.668h86.3384v100.728h-86.3384z"/></clipPath><mask id="a0" height="53" maskUnits="userSpaceOnUse" width="92" x="231" y="315"><path d="m0 0h52.3263v52.3263h-52.3263z" fill="#d9d9d9" transform="matrix(.866025 .5 -.866025 .5 277.184 315.191)"/></mask><path d="m395.485 397.614 88.543 51.12" stroke="#363636" stroke-linecap="round" stroke-width="3.92447"/><circle cx="397.38" cy="398.331" fill="#f69656" r="7.84895"/><path d="m137.059 425.918 111.526 63.959c1.211.695 2.701.693 3.911-.004l142.27-81.942" stroke="#363636" stroke-width="3.92447"/><circle cx="392.15" cy="408.796" fill="#56b6b4" r="7.84895"/><path d="m278.34 312.734 35.321-20.491c3.411-1.979 7.703.384 7.854 4.325l.316 8.228c.15 3.919 4.4 6.286 7.811 4.35l84.514-47.961c1.569-.89 3.485-.91 5.072-.052l53.7 29.036" stroke="#363636" stroke-width="3.92447"/><circle cx="278.337" cy="311.993" fill="#7f76b2" r="7.84895"/><path d="m477.508 292.956 52.236 29.644c2.64 1.498 2.653 5.299.022 6.814l-108.189 62.309" stroke="#363636" stroke-width="3.92447"/><circle cx="478.486" cy="293.679" fill="#f8c6db" r="7.84895"/><path d="m280.955 313.499-41.527-24.058c-2.616-1.516-5.892.372-5.892 3.395v5.595c0 3.042-3.311 4.927-5.927 3.375l-70.912-42.077c-1.221-.724-2.738-.733-3.967-.022l-75.1923 43.49-71.27948 41.227c-2.61929 1.515-2.61115 5.299.01462 6.803l144.84816 82.949" stroke="#363636" stroke-width="3.92447"/><circle cx="147.533" cy="438.175" fill="#98e1cf" r="7.84895"/><circle cx="6.54079" cy="6.54079" fill="#363636" r="6.54079" stroke="#363636" stroke-width=".654079" transform="matrix(.866025 .5 -.866025 .5 281.16 289.025)"/><g clip-path="url(#aT)"><path d="m470.17 272.75c2.503-1.445 6.561-1.445 9.064 0l40.789 23.55c2.503 1.444 2.503 3.787 0 5.232l-40.789 23.55c-2.503 1.445-6.561 1.445-9.064 0l-40.789-23.55c-2.503-1.445-2.503-3.788 0-5.232z" stroke="#fff" stroke-width=".654079"/><path d="m470.188 242.666c2.503-1.445 6.561-1.445 9.064 0l36.252 20.93c2.503 1.445 2.503 3.788 0 5.233l-36.252 20.93c-2.503 1.445-6.561 1.445-9.064 0l-36.252-20.93c-2.503-1.445-2.503-3.788 0-5.233z" fill="url(#e)" stroke="#363636" stroke-width=".654079"/><path d="m470.181 236.125c2.502-1.445 6.56-1.445 9.063 0l36.252 20.93c2.503 1.445 2.503 3.788 0 5.233l-36.252 20.93c-2.503 1.445-6.561 1.445-9.063 0l-36.253-20.93c-2.503-1.445-2.503-3.788 0-5.233z" stroke="#fff" stroke-width=".654079"/><path d="m470.181 229.584c2.502-1.445 6.56-1.445 9.063 0l36.252 20.93c2.503 1.445 2.503 3.788 0 5.233l-36.252 20.93c-2.503 1.445-6.561 1.445-9.063 0l-36.253-20.93c-2.503-1.445-2.503-3.788 0-5.233z" stroke="#fff" stroke-width=".654079"/><path d="m470.177 223.043c2.502-1.445 6.56-1.445 9.063 0l36.253 20.93c2.502 1.445 2.502 3.788 0 5.233l-36.253 20.93c-2.503 1.445-6.561 1.445-9.063 0l-36.253-20.93c-2.503-1.445-2.503-3.788 0-5.233z" stroke="#fff" stroke-width=".654079"/><path d="m433.936 268.827 36.252 20.931v26.163l-36.252-20.931z" fill="url(#g)"/><path d="m479.251 289.758 36.253-20.931v26.163l-36.253 20.931z" fill="url(#i)"/><path d="m432.059 266.211c0 1.022.717 1.947 1.877 2.616v26.163c-1.16-.669-1.877-1.594-1.877-2.616z" fill="url(#g)"/><path d="m470.188 289.758c2.503 1.445 6.561 1.445 9.063 0v26.163c-2.502 1.445-6.56 1.445-9.063 0z" fill="url(#j)"/><path d="m517.381 266.211c0 1.022-.717 1.947-1.877 2.616v26.163c1.16-.669 1.877-1.594 1.877-2.616z" fill="#363636"/><path d="m433.936 268.827 36.252 20.931m-36.252-20.931v26.163m0-26.163c-1.16-.669-1.877-1.594-1.877-2.616v26.163c0 1.022.717 1.947 1.877 2.616m36.252-5.232v26.163m0-26.163c2.503 1.445 6.561 1.445 9.063 0m-9.063 26.163-36.252-20.931m36.252 20.931c2.503 1.445 6.561 1.445 9.063 0m0-26.163 36.253-20.931m-36.253 20.931v26.163m36.253-47.094v26.163m0-26.163c1.16-.669 1.877-1.594 1.877-2.616v26.163c0 1.022-.717 1.947-1.877 2.616m0 0-36.253 20.931" stroke="#363636" stroke-width=".654079"/><path d="m474.208 266.865v-79.143" stroke="#363636" stroke-width=".654079"/><path d="m427.441 158.942c0-5.779 4.058-8.122 9.064-5.232l60.388 34.865c5.006 2.89 9.063 9.918 9.063 15.698s-4.057 8.123-9.063 5.233l-60.388-34.866c-5.006-2.89-9.064-9.918-9.064-15.698z" fill="url(#k)"/><path d="m441.037 151.093 60.323 34.828-4.532 2.616-60.323-34.827z" fill="url(#l)"/><path d="m430.095 153.075c1.769-1.021 4.089-.704 6.408.635l4.532-2.616c-2.319-1.339-4.639-1.657-6.409-.635z" fill="url(#n)"/><path d="m506.299 204.074c0-5.78-4.057-12.808-9.063-15.698l4.532-2.616c5.005 2.889 9.063 9.918 9.063 15.697z" fill="url(#n)"/><path d="m503.645 209.941c1.77-1.022 2.654-3.189 2.654-5.867l4.532-2.617c0 2.679-.884 4.846-2.654 5.868z" fill="#363636"/><path d="m436.505 153.71 60.388 34.865c5.006 2.89 9.063 9.918 9.063 15.698s-4.057 8.123-9.063 5.233l-60.388-34.866c-5.006-2.89-9.064-9.918-9.064-15.698 0-5.779 4.058-8.122 9.064-5.232zm0 0 60.323 34.827 4.532-2.616-60.323-34.828zm69.794 50.364c0-5.78-4.057-12.808-9.063-15.698l4.532-2.616c5.005 2.889 9.063 9.918 9.063 15.697m-4.532 2.617 4.532-2.617m-4.532 2.617c0 2.678-.884 4.845-2.654 5.867l4.532-2.616c1.77-1.022 2.654-3.189 2.654-5.868m-80.736-48.382c1.769-1.021 4.089-.704 6.408.635l4.532-2.616c-2.319-1.339-4.639-1.657-6.409-.635z" stroke="#363636" stroke-width=".654079"/><path d="m436.852 164.175c0 2.168-1.522 3.046-3.399 1.962-1.877-1.083-3.398-3.719-3.398-5.886 0-2.168 1.521-3.046 3.398-1.963 1.877 1.084 3.399 3.72 3.399 5.887z" fill="#efefef"/><path d="m436.852 164.175c0 2.168-1.522 3.046-3.399 1.962-1.877-1.083-3.398-3.719-3.398-5.886 0-2.168 1.521-3.046 3.398-1.963 1.877 1.084 3.399 3.72 3.399 5.887z" fill="#efefef"/><g fill="#fff"><path d="m441.84 170.445v-7.611l2.6 1.501c.5.289.926.645 1.278 1.069.352.421.62.879.805 1.375.186.494.28.994.28 1.499 0 .506-.095.897-.284 1.175-.188.277-.462.42-.82.429-.356.01-.788-.131-1.294-.424l-1.658-.957v-1.289l1.433.827c.268.155.489.229.663.223.176-.008.306-.082.392-.223.088-.143.132-.339.132-.589 0-.253-.044-.499-.132-.738-.086-.24-.216-.463-.392-.669-.176-.208-.399-.39-.67-.546l-.94-.543v6.296z"/><path d="m450.753 173.16v-3.277l1.371.791v5.708l-1.317-.76v-1.036l-.051-.03c-.112.27-.297.432-.557.485-.257.054-.572-.026-.943-.24-.33-.191-.621-.445-.872-.764-.251-.318-.448-.678-.589-1.079-.14-.4-.21-.824-.213-1.271v-3.635l1.372.792v3.352c.002.338.08.65.234.935.155.285.362.502.622.652.165.095.319.141.463.137.144-.006.26-.07.348-.193.09-.121.134-.31.132-.567z"/><path d="m453.146 176.973v-7.611l1.372.791v2.862l.041.024c.06-.119.147-.225.261-.318.116-.094.266-.141.451-.141.186-.001.418.078.695.238.36.208.693.509.998.903.304.392.548.858.73 1.399.183.539.274 1.136.274 1.79 0 .637-.089 1.123-.267 1.458-.176.335-.417.527-.721.576-.303.049-.642-.035-1.017-.252-.266-.154-.493-.335-.679-.545-.185-.208-.336-.423-.454-.644-.118-.225-.208-.434-.271-.629l-.061-.035v.914zm1.343-2.079c0 .339.04.659.122.958.081.3.199.565.354.796.154.228.342.405.563.533.223.129.412.167.567.115.154-.054.271-.185.35-.392.082-.208.123-.478.123-.81 0-.329-.04-.642-.119-.938-.08-.296-.197-.56-.351-.79-.155-.23-.345-.411-.57-.541-.223-.129-.412-.17-.566-.122-.153.048-.27.174-.351.377-.082.203-.122.474-.122.814z"/><path d="m460.154 173.408v7.611l-1.371-.792v-7.611z"/><path d="m461.153 181.595v-5.708l1.371.792v5.708zm.688-6.046c-.204-.118-.378-.297-.524-.537-.144-.242-.216-.473-.216-.693 0-.218.072-.364.216-.437.146-.074.32-.053.524.065s.378.297.522.539c.146.24.219.469.219.687 0 .221-.073.368-.219.443-.144.073-.318.05-.522-.067z"/><path d="m467.635 181.258-1.255-.636c-.021-.136-.067-.274-.138-.414-.071-.143-.164-.277-.28-.404-.114-.127-.25-.237-.409-.328-.212-.123-.392-.174-.537-.155-.146.018-.219.112-.219.283 0 .136.047.279.141.427.095.149.257.318.486.507l.895.725c.481.392.839.782 1.075 1.171s.354.789.354 1.2c0 .374-.095.647-.286.82-.189.173-.449.244-.779.211-.329-.033-.707-.174-1.136-.421-.655-.378-1.176-.836-1.565-1.375-.386-.54-.612-1.102-.679-1.686l1.349.697c.041.254.139.487.296.699.157.209.357.384.602.526.24.138.433.197.579.174.148-.023.223-.12.225-.29-.002-.145-.054-.293-.157-.444-.103-.153-.262-.317-.477-.49l-.856-.691c-.482-.391-.842-.791-1.078-1.203-.234-.41-.351-.828-.351-1.254 0-.367.086-.633.258-.799.174-.165.417-.229.73-.191.316.038.685.179 1.108.423.624.361 1.115.797 1.474 1.308.36.513.57 1.05.63 1.61z"/><path d="m469.883 183.336v3.3l-1.371-.792v-7.611l1.332.769v2.91l.058.034c.112-.273.292-.433.541-.48.249-.049.561.034.936.251.344.198.643.458.898.779.258.319.457.681.599 1.085.144.402.214.826.212 1.271v3.634l-1.371-.791v-3.352c.002-.351-.075-.669-.231-.955-.155-.285-.372-.508-.651-.669-.186-.108-.351-.158-.495-.149-.142.01-.253.079-.335.208-.079.128-.12.314-.122.558z"/><path d="m476.321 190.464c-.509-.294-.947-.665-1.314-1.115-.364-.451-.645-.953-.843-1.505-.197-.555-.296-1.133-.296-1.736 0-.587.099-1.045.296-1.375.198-.329.475-.514.834-.555.36-.04.783.08 1.268.36.326.189.63.425.911.708.283.283.53.605.74.967.212.362.378.76.496 1.192.118.43.177.888.177 1.374v.434l-4.175-2.41v-.981l2.884 1.665c0-.228-.043-.454-.129-.68-.086-.225-.205-.432-.357-.619-.15-.188-.325-.34-.525-.455-.208-.12-.392-.171-.553-.152-.159.017-.283.093-.374.226-.09.132-.136.31-.138.534v.933c0 .282.045.552.135.81.093.259.222.492.39.7.167.208.366.379.595.511.152.088.292.144.418.167.127.024.235.012.326-.035.09-.047.158-.129.206-.245l1.268.829c-.065.314-.197.545-.396.693-.198.146-.453.202-.766.167-.311-.036-.671-.172-1.078-.407z"/><path d="m479.385 192.122v-5.709l1.329.768v.996l.051.029c.09-.302.242-.482.454-.54.213-.061.457-.011.734.148.069.04.143.088.222.143.079.056.149.11.209.162v1.405c-.064-.06-.153-.131-.267-.214s-.218-.152-.312-.206c-.202-.117-.382-.17-.541-.16-.156.009-.281.076-.373.201-.09.126-.135.306-.135.539v3.229z"/><path d="m487.107 192.499-1.256-.635c-.021-.136-.067-.275-.138-.415-.071-.142-.164-.276-.28-.403-.114-.127-.25-.237-.409-.329-.212-.122-.391-.174-.537-.154-.146.017-.219.112-.219.283 0 .136.047.278.142.427.094.149.256.318.486.507l.894.725c.481.391.839.782 1.075 1.171.236.388.354.789.354 1.2 0 .374-.095.647-.286.819-.189.174-.449.244-.779.212-.328-.033-.707-.174-1.136-.422-.655-.377-1.176-.836-1.564-1.375-.387-.54-.613-1.102-.679-1.685l1.348.697c.041.254.14.487.296.698.157.21.357.385.602.526.24.139.433.197.579.175.148-.024.223-.12.226-.29-.003-.145-.055-.293-.158-.444-.103-.154-.262-.317-.476-.491l-.857-.691c-.482-.39-.842-.791-1.078-1.202-.234-.41-.351-.828-.351-1.254 0-.367.086-.633.258-.799.174-.165.417-.229.731-.192.315.039.684.18 1.107.424.624.36 1.115.796 1.474 1.308.36.513.571 1.049.631 1.609z"/></g><path d="m495.837 198.941 1.595.921c.846.488 1.662.519 2.27.086.607-.433.956-1.295.969-2.396l.008-.692-1.595-.921c-.846-.488-1.662-.519-2.27-.086-.607.433-.956 1.295-.969 2.396l-1.595-.921c-.846-.488-1.652-1.394-2.241-2.518s-.912-2.374-.899-3.475l.016-1.384 1.595.921c.846.488 1.652 1.394 2.241 2.518s.913 2.374.9 3.475l-.05 4.152m-2.658-1.535 5.316 3.069-.032 2.768c-.005.367-.121.654-.323.799-.203.144-.475.134-.757-.029l-3.19-1.842c-.282-.163-.55-.465-.747-.839-.196-.375-.304-.791-.3-1.158z" stroke="#fff" stroke-linecap="round" stroke-linejoin="round" stroke-width="1.30816"/></g><g clip-path="url(#aU)"><path d="m48.8554 295.418c2.5027-1.445 6.5604-1.445 9.0632 0l24.1276 13.93c2.5027 1.445 2.5027 3.787 0 5.232l-15.8299 9.14c-2.5027 1.445-6.5605 1.445-9.0632 0l-24.1276-13.93c-2.5027-1.445-2.5027-3.788 0-5.233z" fill="url(#o)" stroke="#363636" stroke-width=".654079"/><path d="m31.812 309.088 26.5526 15.33v5.749l-26.5526-15.33z" fill="url(#p)"/><path d="m30.4375 307.172c0 .748.5251 1.426 1.3745 1.916v5.749c-.8494-.49-1.3745-1.168-1.3745-1.916z" fill="url(#q)"/><path d="m58.3646 324.418c1.8331 1.059 4.8052 1.059 6.6383 0v5.749c-1.8331 1.058-4.8052 1.058-6.6383 0z" fill="url(#r)"/><path d="m84.6323 311.963c0 .748-.5253 1.425-1.3748 1.916v5.749c.8495-.491 1.3748-1.168 1.3748-1.917z" fill="#363636"/><path d="m64.6609 324.62 18.6836-10.787v5.762l-18.6836 10.787z" fill="url(#r)"/><path d="m31.812 309.088 26.5526 15.33m-26.5526-15.33v5.749m0-5.749c-.8494-.49-1.3745-1.168-1.3745-1.916v5.749c0 .748.5251 1.426 1.3745 1.916m26.5526 9.581v5.749m0-5.749c1.8331 1.059 4.8052 1.059 6.6383 0v5.749c-1.8331 1.058-4.8052 1.058-6.6383 0m0 0-26.5526-15.33m52.8203-2.874c0 .748-.5253 1.425-1.3748 1.916v5.749c.8495-.491 1.3748-1.168 1.3748-1.917zm-19.9714 12.657 18.6836-10.787v5.762l-18.6836 10.787z" stroke="#363636" stroke-width=".654079"/><path d="m54.1966 304.123c2.2913-1.323 6.0064-1.323 8.2977 0l12.4465 7.186c2.2914 1.323 2.2914 3.468 0 4.791-2.2913 1.323-6.0063 1.323-8.2977 0l-12.4465-7.186c-2.2913-1.323-2.2913-3.468 0-4.791z" fill="url(#s)"/><path d="m53.3667 308.435 14.1061 8.144v1.916l-14.1061-8.144z" fill="url(#s)"/><path d="m74.1107 316.579 1.6596-.958v1.916l-1.6596.958z" fill="url(#s)"/><path d="m51.9922 306.518c0 .749.5251 1.426 1.3745 1.917v1.916c-.8494-.49-1.3745-1.168-1.3745-1.916z" fill="url(#s)"/><path d="m67.4728 316.579c1.8331 1.058 4.8048 1.058 6.6379 0v1.916c-1.8331 1.058-4.8048 1.058-6.6379 0z" fill="url(#s)"/><path d="m77.1454 313.704c0 .749-.5257 1.426-1.3751 1.917v1.916c.8494-.49 1.3751-1.168 1.3751-1.916z" fill="url(#s)"/><g stroke="#363636" stroke-width=".654079"><path d="m53.3667 308.435 14.1061 8.144m-14.1061-8.144v1.916m0-1.916c-.8494-.491-1.3745-1.168-1.3745-1.917v1.917c0 .748.5251 1.426 1.3745 1.916m14.1061 6.228v1.916m0-1.916c1.8331 1.058 4.8048 1.058 6.6379 0m-6.6379 1.916-14.1061-8.144m14.1061 8.144c1.8331 1.058 4.8048 1.058 6.6379 0m0-1.916 1.6596-.958m-1.6596.958v1.916m1.6596-2.874v1.916m0-1.916c.8494-.491 1.3751-1.168 1.3751-1.917v1.917c0 .748-.5257 1.426-1.3751 1.916m0 0-1.6596.958m-19.9141-9.581 12.4465 7.186c2.2914 1.323 6.0064 1.323 8.2977 0 2.2914-1.323 2.2914-3.468 0-4.791l-12.4465-7.186c-2.2913-1.323-6.0064-1.323-8.2977 0s-2.2913 3.468 0 4.791z"/><circle cx="3.83254" cy="3.83254" fill="url(#t)" r="3.83254" transform="matrix(.866025 .5 -.866025 .5 58.1328 301.248)"/><path d="m53.4375 305.08c0 .748.5254 1.426 1.3748 1.916v.958c-.8494-.49-1.3748-1.167-1.3748-1.916z" fill="url(#u)"/><path d="m54.8125 306.996c1.8331 1.058 4.8051 1.058 6.6382 0v.958c-1.8331 1.059-4.8051 1.059-6.6382 0z" fill="url(#v)"/><path d="m62.8279 305.08c0 .748-.5253 1.426-1.3748 1.916v.958c.8495-.49 1.3748-1.167 1.3748-1.916z" fill="url(#w)"/><path d="m56.9269 304.799v-43.169"/><path d="m12.1211 225.655c0-5.78 4.0577-8.123 9.0632-5.233l67.558 39.005c5.0054 2.89 9.0632 9.918 9.0632 15.698 0 5.779-4.0578 8.122-9.0632 5.232l-67.558-39.004c-5.0055-2.89-9.0632-9.918-9.0632-15.698z" fill="#fff"/><path d="m0 0h77.4994v5.23263h-77.4994z" fill="url(#x)" transform="matrix(.866025 .5 -.866025 .5 25.7188 217.807)"/><path d="m14.7773 219.788c1.7697-1.021 4.0892-.704 6.4087.635l4.5316-2.616c-2.3195-1.339-4.639-1.657-6.4087-.635z" fill="url(#y)"/><path d="m97.7116 274.787c0-5.78-4.0577-12.808-9.0632-15.698l4.5316-2.616c5.0055 2.89 9.063 9.918 9.063 15.698z" fill="url(#z)"/><path d="m95.1914 281.308c1.7697-1.022 2.6545-3.189 2.6545-5.867l4.5321-2.617c0 2.679-.885 4.846-2.655 5.868z" fill="#363636"/></g><g filter="url(#a)"><circle cx="3.92447" cy="3.92447" fill="url(#A)" r="3.92447" transform="matrix(.866025 .5 0 1 14.7383 223.039)"/></g><circle cx="3.92447" cy="3.92447" fill="url(#A)" r="3.92447" transform="matrix(.866025 .5 0 1 14.7383 223.039)"/><path d="m35.4009 242.02-2.0736-1.197v-6.754l2.0908 1.207c.5884.339 1.0949.767 1.5195 1.283.4246.513.7512 1.088.9797 1.723.2304.637.3456 1.306.3456 2.007 0 .704-.1152 1.242-.3456 1.614-.2285.374-.557.573-.9854.596-.4266.024-.9369-.136-1.531-.479zm-.8369-1.706.7855.453c.3656.211.6731.314.9226.309.2513-.007.4399-.132.5655-.376.1276-.246.1914-.62.1914-1.123 0-.5-.0638-.944-.1914-1.335-.1256-.389-.3132-.73-.5627-1.024-.2494-.293-.5569-.545-.9225-.757l-.7884-.455zm4.5037 3.824v-5.066l1.2168.702v5.066zm.6113-5.367c-.1809-.104-.3361-.263-.4656-.476-.1276-.215-.1914-.42-.1914-.615 0-.194.0638-.323.1914-.388.1295-.066.2847-.047.4656.058.1809.104.3351.264.4627.478.1295.213.1942.417.1942.61 0 .196-.0647.327-.1942.393-.1276.065-.2818.045-.4627-.06zm3.4683 9.727c-.3942-.227-.7322-.485-1.014-.773-.2799-.285-.5027-.582-.6684-.891-.1656-.309-.2732-.611-.3227-.905l1.1254.475c.0342.121.0885.247.1628.377.0742.131.1723.258.2942.381.1237.127.2742.241.4512.343.2647.153.4828.204.6541.154.1733-.048.26-.245.26-.592v-.927l-.0515-.03c-.0533.11-.1333.197-.2399.261s-.2437.087-.4113.069-.3675-.093-.5998-.228c-.3294-.19-.6293-.451-.8997-.783-.2685-.333-.4827-.728-.6427-1.186-.158-.458-.2371-.968-.2371-1.528 0-.574.081-1.007.2428-1.298.1619-.291.377-.455.6455-.491.2704-.036.5665.04.8883.225.2457.142.4513.309.617.502.1657.19.299.386.3999.587.1028.2.1818.384.237.552l.0457.027v-.851l1.2082.697v5.116c0 .431-.0914.739-.2742.923-.1828.185-.436.256-.7597.215-.3218-.039-.6922-.179-1.1111-.421zm.0257-3.118c.1961.113.3618.153.497.118.1371-.035.2418-.137.3142-.306.0742-.171.1114-.404.1114-.701s-.0362-.575-.1086-.835c-.0723-.261-.1771-.492-.3142-.692s-.3037-.357-.4998-.47c-.1999-.116-.3685-.15-.5056-.104-.1371.044-.2408.155-.3113.335-.0705.179-.1057.413-.1057.701 0 .292.0352.565.1057.819.0724.253.1761.477.3113.671.1371.194.3057.348.5056.464zm2.9992 2.859v-5.066l1.2167.703v5.066zm.6112-5.366c-.1809-.104-.3361-.263-.4656-.476-.1276-.215-.1914-.42-.1914-.616 0-.193.0638-.322.1914-.387.1295-.066.2847-.047.4656.058.1809.104.3351.264.4627.478.1295.213.1942.417.1942.61 0 .196-.0647.327-.1942.393-.1276.064-.2818.045-.4627-.06zm3.8253 2.862v1.055l-2.642-1.525v-1.056zm-2.0422-2.393 1.2168.702v4.723c0 .13.0171.241.0514.334.0343.09.0819.167.1428.23.0628.065.1352.121.2171.169.0571.033.1142.06.1713.082.0572.02.101.035.1314.046l.1914 1.156c-.0609-.013-.1466-.037-.2571-.072-.1104-.033-.2446-.092-.4027-.177-.2932-.156-.5503-.349-.7712-.58-.219-.23-.3894-.489-.5113-.777-.1218-.288-.1818-.598-.1799-.928zm3.9974 8.683c-.2799-.161-.5293-.362-.7483-.6-.219-.241-.3923-.509-.5199-.805-.1256-.297-.1885-.612-.1885-.946 0-.282.0448-.492.1343-.632s.2113-.223.3656-.251c.1542-.027.3294-.014.5255.04.1981.055.4056.133.6227.234.2552.117.4608.207.617.271.1561.061.2694.085.3398.07.0705-.014.1057-.075.1057-.183v-.019c0-.209-.0571-.404-.1713-.584-.1124-.179-.2723-.329-.4799-.449-.219-.126-.3932-.171-.5227-.133-.1295.035-.2152.124-.2571.267l-1.1253-.755c.0571-.275.1694-.476.337-.604.1676-.13.3837-.179.6484-.147.2666.031.575.148.9254.35.2437.141.477.308.6998.503.2247.196.4237.413.597.651.1751.24.3132.498.4141.774.1009.273.1514.561.1514.862v3.417l-1.1539-.666v-.703l-.0343-.02c-.0705.118-.1647.203-.2828.256-.118.051-.2599.062-.4256.035-.1656-.03-.357-.107-.5741-.233zm.3485-.768c.179.103.337.154.4741.151.1371-.004.2447-.054.3228-.15.0781-.095.1171-.232.1171-.41v-.538c-.0381.007-.0905.003-.1571-.011-.0647-.016-.138-.037-.2199-.065-.0819-.029-.1638-.06-.2457-.092-.0818-.034-.1561-.065-.2228-.092-.1428-.059-.2675-.092-.3741-.101-.1067-.009-.1895.015-.2485.071-.0591.054-.0886.147-.0886.279 0 .191.06.372.18.542.1218.169.2761.308.4627.416zm4.1945-3.459v6.754l-1.2168-.702v-6.755zm3.9989 9.063-1.6738-7.721 1.3511.78.9682 5.253.0486.028 1.0683-4.077 1.1567.668 1.0654 5.318.0514.03.9683-4.144 1.351.78-1.6737 5.788-1.2054-.696-1.1139-5.059-.0457-.027-1.1111 3.775zm7.6856 4.533c-.2799-.161-.5293-.362-.7483-.6-.219-.241-.3923-.509-.5199-.805-.1256-.297-.1885-.612-.1885-.946 0-.282.0448-.492.1343-.632s.2113-.223.3656-.251c.1542-.027.3294-.014.5255.04.1981.055.4056.133.6227.234.2552.117.4608.207.617.27.1561.062.2694.086.3399.071.0704-.014.1056-.075.1056-.183v-.019c0-.209-.0571-.404-.1713-.584-.1124-.179-.2723-.329-.4799-.449-.219-.126-.3932-.171-.5227-.133-.1295.035-.2152.124-.2571.267l-1.1253-.755c.0571-.275.1694-.476.337-.604.1676-.13.3837-.179.6484-.147.2666.031.575.148.9254.35.2438.141.477.308.6998.503.2247.195.4237.413.597.651.1752.24.3132.498.4141.774.1009.273.1514.561.1514.862v3.417l-1.1539-.666v-.703l-.0343-.02c-.0705.118-.1647.203-.2828.256-.118.051-.2599.062-.4256.035-.1656-.03-.357-.108-.5741-.233zm.3485-.768c.179.103.337.154.4741.151.1371-.004.2447-.054.3228-.15.0781-.095.1171-.232.1171-.41v-.538c-.0381.007-.0904.003-.1571-.011-.0647-.016-.138-.037-.2199-.065-.0819-.029-.1638-.06-.2457-.092-.0818-.034-.1561-.065-.2228-.092-.1428-.059-.2675-.092-.3741-.101-.1067-.009-.1895.015-.2485.071-.0591.054-.0886.147-.0886.279 0 .191.06.372.18.542.1218.169.2761.308.4627.416zm4.1945-3.459v6.754l-1.2168-.702v-6.755zm2.103 1.214v6.755l-1.2168-.703v-6.755zm2.8856 8.52c-.4513-.261-.8397-.591-1.1653-.99-.3237-.4-.5732-.845-.7484-1.336-.1752-.492-.2627-1.006-.2627-1.54 0-.521.0875-.928.2627-1.22.1752-.293.4218-.457.7398-.493.3199-.035.695.071 1.1254.32.2894.167.5589.376.8083.628.2514.251.4703.536.6569.857.1886.323.3352.675.4399 1.059.1047.382.1571.788.1571 1.219v.386l-3.7046-2.139v-.871l2.5592 1.478c0-.203-.038-.404-.1142-.604s-.1819-.383-.3171-.549c-.1332-.167-.2884-.302-.4655-.404-.1847-.107-.3485-.152-.4913-.135-.1409.015-.2514.082-.3313.201-.08.116-.121.274-.1229.473v.828c0 .251.04.49.12.719.0819.23.1971.437.3456.622.1485.184.3247.336.5284.453.1352.078.259.128.3713.149.1124.021.2086.01.2885-.032.08-.041.1409-.114.1828-.217l1.1254.735c-.0571.279-.1742.484-.3513.615-.1752.13-.4018.179-.6798.149-.2761-.032-.5951-.153-.9569-.361zm5.0529-2.248v1.055l-2.6421-1.525v-1.056zm-2.0423-2.393 1.2168.703v4.722c0 .13.0171.241.0514.334.0343.09.0819.167.1428.23.0629.065.1352.121.2171.169.0571.033.1142.06.1714.082.0571.02.1009.035.1314.046l.1913 1.156c-.0609-.013-.1466-.037-.257-.072-.1105-.033-.2447-.092-.4028-.177-.2932-.156-.5503-.349-.7712-.58-.2189-.23-.3894-.489-.5112-.777-.1219-.288-.1819-.597-.18-.928z" fill="#363636"/></g><g clip-path="url(#aV)"><path d="m366.082 264.679c2.503-1.445 6.56-1.445 9.063 0l24.128 13.93c2.502 1.445 2.502 3.788 0 5.233l-15.83 9.14c-2.503 1.444-6.561 1.444-9.063 0l-24.128-13.931c-2.503-1.445-2.503-3.787 0-5.232z" fill="url(#B)" stroke="#363636" stroke-width=".654079"/><path d="m349.039 278.35 26.552 15.33v5.749l-26.552-15.33z" fill="url(#C)"/><path d="m347.664 276.434c0 .748.525 1.425 1.375 1.916v5.749c-.85-.491-1.375-1.168-1.375-1.917z" fill="url(#D)"/><path d="m375.591 293.68c1.833 1.058 4.805 1.058 6.638 0v5.749c-1.833 1.058-4.805 1.058-6.638 0z" fill="url(#E)"/><path d="m401.859 281.224c0 .749-.525 1.426-1.375 1.917v5.748c.85-.49 1.375-1.168 1.375-1.916z" fill="#363636"/><path d="m381.887 293.882 18.684-10.787v5.761l-18.684 10.787z" fill="url(#E)"/><path d="m349.039 278.35 26.552 15.33m-26.552-15.33v5.749m0-5.749c-.85-.491-1.375-1.168-1.375-1.916v5.748c0 .749.525 1.426 1.375 1.917m26.552 9.581v5.749m0-5.749c1.833 1.058 4.805 1.058 6.638 0v5.749c-1.833 1.058-4.805 1.058-6.638 0m0 0-26.552-15.33m52.82-2.875c0 .749-.525 1.426-1.375 1.917v5.748c.85-.49 1.375-1.168 1.375-1.916zm-19.972 12.658 18.684-10.787v5.761l-18.684 10.787z" stroke="#363636" stroke-width=".654079"/><path d="m371.423 273.385c2.292-1.323 6.007-1.323 8.298 0l12.446 7.186c2.292 1.323 2.292 3.468 0 4.79-2.291 1.323-6.006 1.323-8.297 0l-12.447-7.186c-2.291-1.322-2.291-3.467 0-4.79z" fill="url(#F)"/><path d="m370.593 277.696 14.106 8.145v1.916l-14.106-8.144z" fill="url(#F)"/><path d="m391.337 285.841 1.66-.959v1.917l-1.66.958z" fill="url(#F)"/><path d="m369.219 275.78c0 .748.525 1.426 1.374 1.916v1.917c-.849-.491-1.374-1.168-1.374-1.917z" fill="url(#F)"/><path d="m384.699 285.841c1.833 1.058 4.805 1.058 6.638 0v1.916c-1.833 1.058-4.805 1.058-6.638 0z" fill="url(#F)"/><path d="m394.372 282.966c0 .748-.526 1.426-1.375 1.916v1.917c.849-.491 1.375-1.168 1.375-1.917z" fill="url(#F)"/><g stroke="#363636" stroke-width=".654079"><path d="m370.593 277.696 14.106 8.145m-14.106-8.145v1.917m0-1.917c-.849-.49-1.374-1.168-1.374-1.916v1.916c0 .749.525 1.426 1.374 1.917m14.106 6.228v1.916m0-1.916c1.833 1.058 4.805 1.058 6.638 0m-6.638 1.916-14.106-8.144m14.106 8.144c1.833 1.058 4.805 1.058 6.638 0m0-1.916 1.66-.959m-1.66.959v1.916m1.66-2.875v1.917m0-1.917c.849-.49 1.375-1.168 1.375-1.916v1.916c0 .749-.526 1.426-1.375 1.917m0 0-1.66.958m-19.914-9.582 12.447 7.186c2.291 1.323 6.006 1.323 8.297 0 2.292-1.322 2.292-3.467 0-4.79l-12.446-7.186c-2.291-1.323-6.006-1.323-8.298 0-2.291 1.323-2.291 3.468 0 4.79z"/><circle cx="3.83254" cy="3.83254" fill="url(#t)" r="3.83254" transform="matrix(.866025 .5 -.866025 .5 375.359 270.51)"/><path d="m370.664 274.342c0 .748.525 1.426 1.375 1.916v.958c-.85-.49-1.375-1.168-1.375-1.916z" fill="url(#G)"/><path d="m372.039 276.258c1.833 1.058 4.805 1.058 6.638 0v.958c-1.833 1.058-4.805 1.058-6.638 0z" fill="url(#H)"/><path d="m380.054 274.342c0 .748-.525 1.426-1.374 1.916v.958c.849-.49 1.374-1.168 1.374-1.916z" fill="url(#I)"/><path d="m374.153 274.061v-43.17"/><path d="m329.348 194.916c0-5.779 4.057-8.122 9.063-5.232l67.558 39.004c5.005 2.89 9.063 9.919 9.063 15.698 0 5.78-4.058 8.123-9.063 5.233l-67.558-39.005c-5.006-2.89-9.063-9.918-9.063-15.698z" fill="#fff"/><path d="m0 0h77.4994v5.23263h-77.4994z" fill="url(#x)" transform="matrix(.866025 .5 -.866025 .5 342.945 187.068)"/><path d="m332.004 189.05c1.77-1.022 4.089-.704 6.409.635l4.531-2.616c-2.319-1.34-4.639-1.657-6.409-.635z" fill="url(#J)"/><path d="m414.938 244.049c0-5.78-4.058-12.808-9.063-15.698l4.532-2.617c5.005 2.89 9.063 9.918 9.063 15.698z" fill="url(#K)"/><path d="m412.418 250.57c1.77-1.022 2.655-3.189 2.654-5.868l4.532-2.616c0 2.678-.885 4.846-2.654 5.867z" fill="#363636"/></g><g filter="url(#b)"><circle cx="3.92447" cy="3.92447" fill="url(#A)" r="3.92447" transform="matrix(.866025 .5 0 1 331.965 192.301)"/></g><circle cx="3.92447" cy="3.92447" fill="url(#A)" r="3.92447" transform="matrix(.866025 .5 0 1 331.965 192.301)"/><path d="m352.627 211.282-2.073-1.197v-6.755l2.091 1.207c.588.34 1.095.768 1.519 1.283.425.514.751 1.088.98 1.724.23.636.345 1.305.345 2.007 0 .703-.115 1.241-.345 1.614-.229.374-.557.572-.986.595-.426.025-.936-.135-1.531-.478zm-.836-1.707.785.454c.366.211.673.314.923.308.251-.006.44-.132.565-.376.128-.245.192-.619.192-1.123 0-.499-.064-.944-.192-1.334-.125-.389-.313-.73-.562-1.024-.25-.293-.557-.546-.923-.757l-.788-.455zm4.503 3.824v-5.066l1.217.703v5.066zm.612-5.366c-.181-.104-.337-.263-.466-.476-.128-.215-.191-.42-.191-.616 0-.193.063-.322.191-.387.129-.066.285-.047.466.058.18.104.335.263.462.478.13.213.194.417.194.61 0 .196-.064.327-.194.393-.127.064-.282.045-.462-.06zm3.468 9.727c-.394-.228-.732-.486-1.014-.774-.28-.284-.503-.581-.669-.89-.165-.309-.273-.611-.322-.905l1.125.474c.034.121.089.247.163.378s.172.258.294.381c.124.126.274.241.451.343.265.153.483.204.654.153.174-.047.26-.244.26-.592v-.926l-.051-.03c-.053.11-.133.197-.24.261-.107.063-.244.086-.411.069-.168-.018-.368-.094-.6-.228-.329-.19-.629-.451-.9-.783-.268-.333-.482-.728-.642-1.186-.158-.458-.238-.968-.238-1.528 0-.574.081-1.007.243-1.298.162-.292.377-.455.646-.492.27-.035.566.04.888.226.246.142.451.309.617.502.166.19.299.385.4.587.103.2.182.384.237.552l.046.026v-.851l1.208.698v5.115c0 .431-.091.739-.274.924s-.436.256-.76.214c-.322-.038-.692-.178-1.111-.42zm.026-3.119c.196.114.361.153.497.119.137-.035.241-.137.314-.307.074-.17.111-.404.111-.7 0-.297-.036-.575-.108-.835-.073-.262-.177-.492-.315-.692-.137-.201-.303-.357-.499-.47-.2-.116-.369-.151-.506-.104-.137.044-.241.155-.311.334-.071.18-.106.413-.106.701 0 .293.035.566.106.82.072.253.176.476.311.671.137.194.306.348.506.463zm2.999 2.86v-5.066l1.216.703v5.065zm.611-5.366c-.181-.105-.336-.263-.466-.477-.127-.214-.191-.419-.191-.615 0-.193.064-.322.191-.387.13-.066.285-.047.466.057.181.105.335.264.463.479.129.213.194.416.194.61 0 .195-.065.326-.194.392-.128.065-.282.045-.463-.059zm3.825 2.861v1.056l-2.642-1.526v-1.055zm-2.042-2.392 1.217.702v4.723c0 .13.017.241.051.333.035.09.082.167.143.231.063.065.135.121.217.168.057.033.114.061.172.083.057.02.1.035.131.046l.191 1.156c-.061-.013-.146-.037-.257-.073-.11-.033-.244-.091-.403-.176-.293-.156-.55-.35-.771-.581-.219-.229-.389-.488-.511-.776s-.182-.598-.18-.929zm3.997 8.683c-.279-.162-.529-.362-.748-.6-.219-.241-.392-.509-.52-.805-.125-.297-.188-.612-.188-.947 0-.281.045-.492.134-.631.09-.14.211-.223.366-.251.154-.027.329-.014.525.04.198.055.406.133.623.234.255.116.461.206.617.27.156.062.269.085.34.071.07-.014.105-.075.105-.183v-.02c0-.209-.057-.403-.171-.583-.112-.18-.272-.329-.48-.449-.219-.126-.393-.171-.523-.134-.129.036-.215.125-.257.268l-1.125-.756c.057-.275.169-.476.337-.603.168-.13.384-.179.648-.147.267.031.576.147.926.35.244.14.477.308.7.503.224.195.423.412.597.651.175.24.313.497.414.773.101.274.151.562.151.863v3.417l-1.154-.667v-.702l-.034-.02c-.07.118-.165.203-.283.256-.118.05-.26.062-.425.034-.166-.029-.357-.107-.575-.232zm.349-.769c.179.104.337.154.474.152.137-.004.245-.054.323-.15s.117-.232.117-.411v-.537c-.038.006-.09.003-.157-.012-.065-.015-.138-.037-.22-.064-.082-.03-.164-.06-.246-.092-.082-.034-.156-.065-.222-.093-.143-.058-.268-.091-.375-.1-.106-.009-.189.015-.248.071-.059.053-.089.146-.089.278 0 .192.06.372.18.543.122.169.276.308.463.415zm4.194-3.458v6.754l-1.216-.702v-6.755zm3.999 9.063-1.673-7.721 1.351.78.968 5.252.048.028 1.069-4.076 1.157.668 1.065 5.318.051.03.969-4.145 1.351.781-1.674 5.788-1.206-.696-1.113-5.06-.046-.026-1.111 3.775zm7.686 4.533c-.28-.162-.529-.362-.748-.6-.219-.241-.393-.509-.52-.805-.126-.297-.189-.613-.189-.947 0-.281.045-.492.135-.631.089-.14.211-.224.365-.251s.33-.014.526.04c.198.055.405.133.622.234.256.116.461.206.617.27.156.062.27.085.34.071.071-.014.106-.075.106-.183v-.02c0-.209-.057-.403-.171-.583-.113-.18-.273-.329-.48-.449-.219-.126-.394-.171-.523-.134-.13.036-.215.125-.257.268l-1.125-.756c.057-.275.169-.476.337-.603.167-.13.383-.179.648-.147.267.031.575.147.925.35.244.14.477.308.7.503.225.195.424.412.597.651.175.24.313.497.414.773.101.274.152.562.152.863v3.417l-1.154-.667v-.702l-.035-.02c-.07.118-.164.203-.282.256-.118.05-.26.062-.426.034-.166-.029-.357-.107-.574-.232zm.348-.769c.179.104.337.154.475.152.137-.004.244-.054.322-.15s.117-.232.117-.411v-.537c-.038.006-.09.003-.157-.012-.064-.015-.138-.037-.22-.064-.081-.03-.163-.061-.245-.092-.082-.034-.156-.065-.223-.093-.143-.058-.268-.092-.374-.1-.107-.009-.19.015-.249.071-.059.053-.088.146-.088.278 0 .192.06.372.18.543.122.169.276.308.462.415zm4.195-3.459v6.755l-1.217-.702v-6.755zm2.103 1.215v6.754l-1.217-.702v-6.755zm2.886 8.519c-.452-.26-.84-.59-1.166-.989-.323-.4-.573-.846-.748-1.336-.175-.492-.263-1.006-.263-1.54 0-.521.088-.928.263-1.221.175-.292.422-.456.74-.493.32-.035.695.072 1.125.32.289.167.559.377.808.629.252.25.471.536.657.857.189.322.335.675.44 1.059.105.381.157.788.157 1.219v.385l-3.704-2.138v-.871l2.559 1.477c0-.202-.038-.403-.114-.603-.077-.2-.182-.383-.317-.549-.134-.167-.289-.302-.466-.404-.185-.107-.348-.152-.491-.136-.141.016-.252.083-.332.202-.08.116-.12.274-.122.473v.828c0 .25.04.49.12.719.081.23.197.437.345.621.149.185.325.336.529.454.135.078.259.127.371.148s.208.011.288-.031.141-.114.183-.218l1.126.736c-.058.279-.175.484-.352.615-.175.13-.402.179-.68.148-.276-.032-.595-.152-.956-.361zm5.052-2.247v1.055l-2.642-1.525v-1.056zm-2.042-2.393 1.217.702v4.723c0 .13.017.241.051.333.035.09.082.167.143.231.063.065.135.121.217.168.057.033.115.061.172.083.057.02.101.035.131.046l.191 1.156c-.061-.013-.146-.037-.257-.073-.11-.033-.244-.091-.402-.176-.294-.156-.551-.35-.772-.58-.219-.23-.389-.489-.511-.777s-.182-.598-.18-.929z" fill="#363636"/></g><path d="m484.37 264.941h-.176c-.001.698-.814 1.397-2.438 1.929-3.251 1.066-8.522 1.066-11.774 0-1.624-.532-2.437-1.231-2.438-1.929h-.18l-45.786-69.447h108.577z" fill="url(#M)"/><g clip-path="url(#aW)"><path d="m270.531 312.9c3.441-1.986 9.021-1.986 12.462 0l48.122 27.784c3.441 1.986 3.441 5.208 0 7.194l-48.122 27.784c-3.441 1.986-9.021 1.986-12.462 0l-48.122-27.784c-3.441-1.986-3.441-5.208 0-7.194z" stroke="#fff" stroke-width=".654079"/><path d="m270.531 310.869c3.441-1.987 9.021-1.987 12.462 0l61.837 35.702c3.441 1.987 3.441 5.208 0 7.195l-61.837 35.701c-3.441 1.987-9.021 1.987-12.462 0l-61.837-35.701c-3.441-1.987-3.441-5.208 0-7.195z" stroke="#fff" stroke-width=".654079"/><path d="m270.531 307.668c3.441-1.987 9.021-1.987 12.462 0l48.122 27.783c3.441 1.987 3.441 5.208 0 7.195l-48.122 27.783c-3.441 1.987-9.021 1.987-12.462 0l-48.122-27.783c-3.441-1.987-3.441-5.208 0-7.195z" stroke="#fff" stroke-width=".654079"/><g mask="url(#a0)"><path d="m277.184 315.191 45.316 26.164v26.163l-45.316-26.163z" fill="url(#N)"/><path d="m231.871 341.355 45.316-26.164v26.164l-45.316 26.163z" fill="url(#O)"/><path d="m277.187 341.352 45.316 26.163-45.316 26.163-45.316-26.163z" fill="#363636"/></g><circle cx="26.1632" cy="26.1632" fill="url(#P)" r="26.1632" stroke="url(#R)" stroke-width=".654079" transform="matrix(.866025 .5 -.866025 .5 279.168 272.02)"/><circle cx="13.0816" cy="13.0816" fill="url(#S)" r="13.0816" stroke="url(#T)" stroke-width=".654079" transform="matrix(.866025 .5 -.866025 .5 278.734 282.486)"/><path d="m247.129 298.182c0 5.108 3.586 9.733 9.385 13.081v15.698c-5.799-3.348-9.385-7.973-9.385-13.081z" fill="url(#U)" stroke="url(#V)" stroke-width=".654079"/><path d="m256.516 311.264c12.513 7.224 32.802 7.224 45.316 0v15.698c-12.514 7.224-32.803 7.224-45.316 0z" fill="url(#W)" stroke="url(#X)" stroke-width=".654079"/><path d="m311.217 298.182c0 5.108-3.586 9.733-9.385 13.081v15.698c5.799-3.348 9.385-7.973 9.385-13.081z" fill="#363636" stroke="url(#Y)" stroke-width=".654079"/><path d="m316.126 318.342c-20.535 11.856-53.83 11.856-74.365 0s-20.535-31.078 0-42.934 53.83-11.856 74.365 0 20.535 31.078 0 42.934z" stroke="#fff" stroke-width=".654079"/><path d="m305.838 312.403c-14.854 8.575-38.936 8.575-53.789 0-14.854-8.576-14.854-22.48 0-31.056 14.853-8.575 38.935-8.575 53.789 0 14.853 8.576 14.853 22.48 0 31.056z" stroke="#fff" stroke-width=".654079"/><path d="m278.639 132.375v160.904" stroke="#363636" stroke-dasharray="6.54 6.54" stroke-linecap="round" stroke-width="3.2704"/><path d="m287.467 293.156h-.175c0 1.344-.813 2.689-2.438 3.714-3.252 2.051-8.524 2.051-11.775 0-1.626-1.025-2.439-2.37-2.438-3.714h-.18l-45.785-133.64h108.577z" fill="url(#Z)"/><path d="m285.01 292.248h-.127c0 1.519-.578 3.038-1.734 4.197-2.311 2.318-6.058 2.318-8.369 0-1.155-1.159-1.733-2.678-1.733-4.197h-.126l-32.546-151.043h77.182z" fill="url(#ab)"/><path d="m0 0h158.572v98.667h-158.572z" fill="#98e1d0" stroke="#5d5d5d" stroke-width=".654079" transform="matrix(.866025 .5 0 1 205.07 6.49609)"/><path d="m0 0h11.2762v98.667h-11.2762z" fill="#a9f0e0" stroke="#5d5d5d" stroke-width=".654079" transform="matrix(.866025 -.5 0 1 342.395 85.7832)"/><path d="m0 0h28.4686v11.2762h-28.4686z" fill="#ff7a7f" transform="matrix(.866025 .5 -.866025 .5 214.781 .652344)"/><path d="m0 0h25.2389v11.2762h-25.2389z" fill="#56b7b5" transform="matrix(.866025 .5 -.866025 .5 239.43 14.9531)"/><path d="m0 0h25.2389v11.2762h-25.2389z" fill="#a3bedc" transform="matrix(.866025 .5 -.866025 .5 261.273 27.6387)"/><path d="m0 0h19.8763v11.2762h-19.8763z" fill="#ffc8dc" transform="matrix(.866025 .5 -.866025 .5 283.125 40.3223)"/><path d="m0 0h19.5717v11.2762h-19.5717z" fill="#ff9852" transform="matrix(.866025 .5 -.866025 .5 300.039 50.1934)"/><path d="m0 0h20.1123v11.2762h-20.1123z" fill="#98e1d0" transform="matrix(.866025 .5 -.866025 .5 316.949 60.0586)"/><path d="m0 0h20.5249v11.2762h-20.5249z" fill="#8075b3" transform="matrix(.866025 .5 -.866025 .5 334.57 69.9219)"/><g stroke-width=".654079"><path d="m0 0h14.8v5.63811h-14.8z" fill="#fff" stroke="#5d5d5d" transform="matrix(.866025 .5 -.866025 .5 222.566 54.4219)"/><path d="m0 0h14.8v14.8h-14.8z" fill="#fff" stroke="#5d5d5d" transform="matrix(.866025 .5 0 1 217.684 57.2383)"/><path d="m0 0h5.63811v14.8h-5.63811z" fill="#fff" stroke="#5d5d5d" transform="matrix(.866025 -.5 0 1 230.5 64.6406)"/><path d="m0 0h14.8v5.63811h-14.8z" fill="#fff" stroke="#5d5d5d" transform="matrix(.866025 .5 -.866025 .5 316.293 109.391)"/><path d="m0 0h14.8v14.8h-14.8z" fill="#fff" stroke="#5d5d5d" transform="matrix(.866025 .5 0 1 311.41 112.209)"/><path d="m0 0h5.63811v14.8h-5.63811z" fill="#fff" stroke="#5d5d5d" transform="matrix(.866025 -.5 0 1 324.227 119.607)"/><circle cx="28.1906" cy="28.1906" fill="#fff" r="28.1906" stroke="#5d5d5d" transform="matrix(.866025 .5 0 1 245.168 57.9395)"/><path d="m252.32 70.3259c4.767-2.7523 11.015-1.8973 17.263 1.71l4.883-2.819c-6.248-3.6073-12.496-4.4624-17.263-1.7101z" fill="#fff" stroke="#5d5d5d"/><path d="m293.996 114.322c0-15.5695-10.931-34.5015-24.414-42.2861l4.883-2.8191c13.483 7.7846 24.414 26.7166 24.414 42.2862z" fill="#fff" stroke="#5d5d5d"/><path d="m286.844 130.128c4.767-2.752 7.15-8.59 7.15-15.805l4.883-2.819c0 7.215-2.383 13.053-7.151 15.805z" fill="#fff" stroke="#5d5d5d"/><path d="m344.723 84.7031v98.7659" stroke="#5d5d5d"/><path d="m346.687 83.3965v98.4385" stroke="#5d5d5d"/><path d="m348.647 82.4121v98.3739" stroke="#5d5d5d"/><path d="m350.608 81.1035v98.7655" stroke="#5d5d5d"/><path d="m207.203 4.94964 137.357 79.79766" stroke="#5d5d5d"/><path d="m209.164 3.64105 137.357 79.79765" stroke="#5d5d5d"/><path d="m211.289 2.61513 137.194 79.51517" stroke="#5d5d5d"/><path d="m213.094 1.67816 137.357 79.79764" stroke="#5d5d5d"/></g></g><path d="m157.673 400.232c2.502-1.445 6.56-1.445 9.063 0l68.541 39.573c2.503 1.445 2.503 3.787 0 5.232l-68.541 39.573c-2.503 1.445-6.561 1.445-9.063 0l-68.5421-39.573c-2.5027-1.445-2.5027-3.787.0001-5.232z" stroke="#fff" stroke-width="1.96224"/><path d="m157.7 392.709c2.503-1.445 6.561-1.445 9.063 0l36.253 20.93c2.503 1.445 2.503 3.788 0 5.233l-36.253 20.93c-2.502 1.445-6.56 1.445-9.063 0l-36.253-20.93c-2.502-1.445-2.502-3.788 0-5.233z" fill="url(#ac)" stroke="#363636" stroke-width=".654079"/><path d="m157.696 386.168c2.503-1.445 6.561-1.445 9.063 0l36.253 20.93c2.503 1.445 2.503 3.788 0 5.233l-36.253 20.93c-2.502 1.445-6.56 1.445-9.063 0l-36.253-20.93c-2.502-1.445-2.502-3.788 0-5.233z" fill="url(#ad)" stroke="#363636" stroke-width=".654079"/><path d="m157.696 379.629c2.503-1.445 6.561-1.445 9.063 0l36.253 20.93c2.503 1.445 2.503 3.788 0 5.233l-36.253 20.93c-2.502 1.445-6.56 1.445-9.063 0l-36.253-20.93c-2.502-1.445-2.502-3.788 0-5.233z" fill="url(#ae)" stroke="#363636" stroke-width=".654079"/><path d="m157.695 363.105c2.503-1.445 6.56-1.445 9.063 0l53.545 30.914c2.502 1.445 2.502 3.788 0 5.233l-53.545 30.914c-2.503 1.445-6.56 1.445-9.063 0l-53.545-30.914c-2.502-1.445-2.502-3.788 0-5.233z" stroke="#fff" stroke-width="1.96224"/><path d="m121.449 418.871 36.253 20.931v26.163l-36.253-20.931z" fill="url(#af)" stroke="#363636" stroke-width=".654079"/><path d="m166.762 439.802 36.252-20.931v26.163l-36.252 20.931z" fill="url(#ag)" stroke="#363636" stroke-width=".654079"/><path d="m119.57 416.256c0 1.022.718 1.947 1.877 2.616v26.163c-1.159-.669-1.877-1.594-1.877-2.616z" fill="url(#ah)" stroke="#363636" stroke-width=".654079"/><path d="m157.699 439.803c2.503 1.445 6.561 1.445 9.063 0v26.163c-2.502 1.445-6.56 1.445-9.063 0z" fill="url(#ai)" stroke="#363636" stroke-width=".654079"/><path d="m204.893 416.256c0 1.022-.718 1.947-1.877 2.616v26.163c1.159-.669 1.877-1.594 1.877-2.616z" fill="#363636" stroke="#363636" stroke-width=".654079"/><path d="m161.365 396.637v-81.76" stroke="#363636" stroke-width="1.30816"/><path d="m116.887 287.405c0-5.78 4.057-8.122 9.063-5.232l57.093 32.962c5.005 2.89 9.063 9.918 9.063 15.698s-4.058 8.123-9.063 5.233l-57.093-32.963c-5.006-2.89-9.063-9.918-9.063-15.698z" fill="url(#aj)"/><path d="m130.482 279.556 57.569 33.238-4.532 2.616-57.569-33.237z" fill="url(#ak)"/><path d="m119.54 281.538c1.77-1.021 4.089-.704 6.409.635l4.531-2.616c-2.319-1.339-4.639-1.657-6.408-.635z" fill="url(#ak)"/><path d="m192.474 331.229c0-5.78-4.057-12.808-9.063-15.698l4.532-2.617c5.005 2.89 9.063 9.918 9.063 15.698z" fill="url(#aj)"/><path d="m189.82 337.096c1.77-1.022 2.654-3.189 2.654-5.867l4.532-2.617c0 2.678-.884 4.846-2.654 5.868z" fill="#f6f8fa"/><path d="m125.95 282.173 57.093 32.962c5.005 2.89 9.063 9.918 9.063 15.698s-4.058 8.123-9.063 5.233l-57.093-32.963c-5.006-2.89-9.063-9.918-9.063-15.698s4.057-8.122 9.063-5.232zm0 0 57.569 33.237 4.532-2.616-57.569-33.238zm66.524 49.056c0-5.78-4.057-12.808-9.063-15.698l4.532-2.617c5.005 2.89 9.063 9.918 9.063 15.698m-4.532 2.617 4.532-2.617m-4.532 2.617c0 2.678-.884 4.845-2.654 5.867l4.532-2.616c1.77-1.022 2.654-3.19 2.654-5.868m-77.466-47.074c1.77-1.021 4.089-.704 6.409.635l4.531-2.616c-2.319-1.339-4.639-1.657-6.408-.635z" stroke="#f6f8fa" stroke-width=".654079"/><path d="m126.301 292.638c0 2.167-1.521 3.046-3.398 1.962-1.877-1.083-3.399-3.719-3.399-5.886 0-2.168 1.522-3.046 3.399-1.963 1.877 1.084 3.398 3.72 3.398 5.887z" fill="url(#al)"/><path d="m126.301 292.638c0 2.167-1.521 3.046-3.398 1.962-1.877-1.083-3.399-3.719-3.399-5.886 0-2.168 1.522-3.046 3.399-1.963 1.877 1.084 3.398 3.72 3.398 5.887z" fill="url(#al)"/><g fill="#f6f8fa"><path d="m132.321 299.888-1.493-.862 2.276-6.297 1.795 1.036 2.273 8.923-1.494-.862-1.651-6.825-.051-.03zm-.093-3.045 3.528 2.036v1.256l-3.528-2.036z"/><path d="m141.01 302.474v-3.278l1.371.792v5.708l-1.316-.76v-1.037l-.052-.03c-.112.27-.297.432-.557.485-.257.055-.572-.025-.943-.239-.33-.191-.621-.446-.872-.764-.251-.319-.447-.678-.589-1.08-.139-.4-.21-.824-.212-1.271v-3.634l1.371.791v3.352c.002.339.08.65.235.935.154.285.361.502.621.652.165.096.319.141.463.138.144-.006.26-.071.348-.193.09-.122.134-.311.132-.567z"/><path d="m145.2 307.416c-.376-.217-.716-.525-1.021-.923-.302-.401-.543-.87-.721-1.409-.176-.54-.264-1.128-.264-1.765 0-.654.092-1.145.274-1.474.182-.33.425-.516.727-.557.305-.042.639.041 1.001.251.277.16.508.347.692.563.187.214.337.435.451.661.116.226.204.433.264.621l.042.024v-2.862l1.367.79v7.611l-1.351-.78v-.914l-.058-.034c-.065.122-.156.226-.274.314-.116.087-.267.127-.454.121-.184-.005-.409-.084-.675-.238zm.434-1.009c.221.128.408.166.56.115.155-.052.273-.181.354-.386.084-.205.126-.476.126-.816 0-.339-.041-.658-.123-.955-.081-.297-.199-.559-.354-.784-.154-.226-.342-.402-.563-.53-.225-.13-.415-.169-.57-.117-.154.052-.271.18-.35.385-.08.204-.12.471-.12.801 0 .332.04.648.12.949.081.3.198.566.35.797.155.231.345.411.57.541z"/><path d="m149.04 309.541v-5.709l1.371.792v5.708zm.689-6.047c-.204-.118-.379-.297-.525-.537-.144-.242-.215-.473-.215-.693 0-.218.071-.364.215-.437.146-.074.321-.052.525.065.204.118.377.298.521.539.146.24.219.47.219.688 0 .22-.073.368-.219.442-.144.073-.317.051-.521-.067z"/><path d="m153.663 312.321c-.509-.294-.947-.665-1.314-1.115-.364-.451-.645-.953-.843-1.505-.197-.555-.296-1.134-.296-1.736 0-.587.099-1.045.296-1.375.198-.329.476-.514.834-.555.36-.04.783.08 1.268.36.326.188.63.424.911.708.283.283.53.605.74.966.212.363.378.761.496 1.193.118.43.177.888.177 1.374v.434l-4.175-2.41v-.981l2.884 1.665c0-.228-.043-.455-.129-.68s-.205-.432-.357-.619c-.15-.188-.325-.34-.525-.455-.208-.12-.392-.171-.553-.152-.159.017-.283.092-.373.226-.091.132-.137.309-.139.534v.932c0 .283.045.553.135.811.093.258.222.492.39.7.167.208.366.379.595.511.152.088.292.144.419.167.126.024.234.012.325-.035.09-.047.158-.129.206-.245l1.268.828c-.065.315-.197.546-.396.694-.198.146-.453.201-.766.167-.311-.036-.671-.172-1.078-.407z"/><path d="m158.098 311.47v3.3l-1.371-.792v-5.708l1.306.755v1.007l.058.033c.11-.269.293-.425.551-.47.257-.047.569.035.936.247.344.198.643.458.898.779.256.321.454.683.596 1.087.141.401.212.824.212 1.267v3.635l-1.371-.792v-3.352c.002-.348-.075-.665-.232-.952-.156-.288-.372-.512-.647-.67-.184-.107-.347-.155-.489-.145-.139.011-.249.081-.328.212-.077.128-.117.315-.119.559z"/><path d="m164.499 318.577c-.507-.292-.942-.668-1.307-1.126-.363-.46-.642-.968-.837-1.524-.193-.555-.29-1.121-.29-1.698 0-.585.098-1.041.293-1.37.198-.329.478-.513.84-.552.363-.04.794.083 1.294.372.431.249.809.558 1.133.925.324.368.58.77.769 1.206.189.437.293.881.312 1.333l-1.293-.747c-.037-.306-.133-.591-.29-.855-.155-.265-.357-.47-.608-.615-.213-.123-.398-.163-.557-.121-.157.041-.279.162-.367.364s-.132.483-.132.842c0 .364.043.699.129 1.004.088.306.211.571.37.797.159.225.344.399.557.522.156.09.297.134.421.132.127-.001.231-.049.312-.143.084-.096.139-.236.165-.422l1.293.747c-.021.424-.124.748-.309.974-.182.224-.434.336-.756.336s-.703-.127-1.142-.381z"/><path d="m169.737 321.602c-.508-.294-.946-.666-1.313-1.115-.364-.451-.646-.953-.843-1.505-.197-.555-.296-1.134-.296-1.736 0-.587.099-1.045.296-1.375.197-.329.475-.515.834-.556.36-.039.783.081 1.268.361.326.188.629.424.911.708.283.282.53.604.74.966.212.363.377.761.495 1.193.118.43.177.888.177 1.373v.435l-4.174-2.41v-.981l2.884 1.665c0-.228-.043-.455-.129-.68-.086-.226-.205-.432-.357-.619-.15-.188-.325-.34-.525-.455-.208-.12-.392-.171-.553-.153-.159.018-.284.093-.374.227-.09.131-.136.309-.138.533v.933c0 .283.045.553.135.81.092.259.222.493.39.701.167.208.365.378.595.511.152.088.292.144.418.167.127.024.235.012.325-.035.091-.047.159-.129.206-.245l1.268.828c-.064.315-.196.546-.395.693-.198.147-.453.202-.766.168-.311-.036-.671-.172-1.079-.407z"/><path d="m181.782 328.775c2.266 1.308 4.226.987 5.234-.576-1.008-2.727-2.968-5.311-5.234-6.619-2.265-1.308-4.225-.988-5.234.575 1.009 2.728 2.969 5.311 5.234 6.62zm0-7.849c2.583 1.491 4.815 4.513 5.869 7.639-1.054 1.91-3.286 2.355-5.869.864-2.583-1.492-4.814-4.513-5.868-7.64 1.054-1.91 3.285-2.355 5.868-.863zm0 1.308c1.417.817 2.549 2.78 2.549 4.415s-1.132 2.289-2.549 1.472c-1.416-.818-2.549-2.78-2.549-4.415 0-1.636 1.133-2.29 2.549-1.472zm0 .654c-.525-.304-1.03-.354-1.401-.139-.372.215-.581.676-.581 1.284 0 .607.209 1.31.581 1.954.371.644.876 1.176 1.401 1.479.526.304 1.031.354 1.402.139.372-.214.581-.676.581-1.283s-.209-1.31-.581-1.954c-.371-.644-.876-1.177-1.402-1.48z"/></g><path d="m167.408 402.382h-.126c0 .538-.578 1.076-1.733 1.486-2.311.821-6.058.821-8.369 0-1.156-.41-1.733-.948-1.734-1.486h-.126l-32.547-53.495h77.182z" fill="url(#am)"/><g clip-path="url(#aX)"><path d="m143.572 231.545c2.503-1.445 6.561-1.445 9.064 0l42.331 24.439c2.502 1.445 2.502 3.788 0 5.233l-20.305 11.723c-2.503 1.445-6.561 1.445-9.063 0l-42.331-24.44c-2.503-1.445-2.503-3.787 0-5.232z" fill="url(#an)" stroke="#363636" stroke-width=".654079"/><path d="m121.676 247.58 45.52 26.281v10.174l-45.52-26.282z" fill="url(#ao)" stroke="#363636" stroke-width=".654079"/><path d="m173.07 273.859 23.495-13.564v10.173l-23.495 13.565z" fill="url(#ap)" stroke="#363636" stroke-width=".654079"/><path d="m120.461 245.885c0 .662.465 1.261 1.216 1.695v10.174c-.751-.434-1.216-1.034-1.216-1.696z" fill="url(#aq)" stroke="#363636" stroke-width=".654079"/><path d="m167.195 273.861c1.622.937 4.252.937 5.874 0v10.174c-1.622.936-4.252.936-5.874 0z" fill="url(#ar)" stroke="#363636" stroke-width=".654079"/><path d="m197.783 258.6c0 .662-.465 1.261-1.217 1.695v10.174c.752-.434 1.217-1.034 1.217-1.696z" fill="#363636" stroke="#363636" stroke-width=".654079"/><path d="m149.377 234.103c-1.036.598-2.716.598-3.752 0s-1.036-1.568 0-2.166 2.716-.598 3.752 0 1.036 1.568 0 2.166z" fill="url(#as)"/><path d="m144.848 233.02c0 .423.297.806.777 1.083v.541c-.48-.277-.777-.66-.777-1.083z" fill="url(#as)"/><path d="m145.625 234.103c1.036.598 2.716.598 3.752 0v.542c-1.037.598-2.716.598-3.752 0z" fill="url(#as)"/><path d="m150.154 233.02c0 .423-.297.806-.777 1.083v.541c.48-.277.777-.66.777-1.083z" fill="url(#as)"/><path d="m149.377 234.103c-1.036.598-2.716.598-3.752 0m3.752 0c1.036-.598 1.036-1.568 0-2.166s-2.716-.598-3.752 0-1.036 1.568 0 2.166m3.752 0v.542c-1.037.598-2.716.598-3.752 0v-.542m3.752 0c.48-.277.777-.66.777-1.083v.541c0 .423-.297.806-.777 1.083zm-3.752 0c-.48-.277-.777-.66-.777-1.083v.541c0 .423.297.806.777 1.083z" stroke="#363636" stroke-width=".654079"/><path d="m155.31 237.07c-1.036.598-2.716.598-3.752 0s-1.036-1.568 0-2.166 2.716-.598 3.752 0 1.036 1.568 0 2.166z" fill="url(#at)"/><path d="m150.782 235.986c0 .423.296.807.776 1.084l.001.541c-.48-.277-.777-.66-.777-1.083z" fill="url(#at)"/><path d="m151.558 237.07c1.036.598 2.716.598 3.752 0v.542c-1.036.598-2.716.598-3.752 0z" fill="url(#at)"/><path d="m156.087 235.986c0 .423-.297.807-.777 1.084v.541c.48-.277.777-.66.777-1.083z" fill="url(#at)"/><path d="m155.31 237.07c-1.036.598-2.716.598-3.752 0m3.752 0c1.036-.598 1.036-1.568 0-2.166s-2.716-.598-3.752 0-1.036 1.568 0 2.166m3.752 0v.542c-1.036.598-2.716.598-3.752 0v-.542m3.752 0c.48-.277.777-.661.777-1.084v.542c0 .423-.297.806-.777 1.083zm-3.752 0c-.48-.277-.776-.661-.776-1.084v.542c0 .423.297.806.777 1.083z" stroke="#363636" stroke-width=".654079"/><path d="m161.248 240.461c-1.036.598-2.716.598-3.752 0-1.036-.599-1.036-1.568 0-2.167 1.036-.598 2.716-.598 3.752 0 1.036.599 1.036 1.568 0 2.167z" fill="url(#au)"/><path d="m156.719 239.377c0 .423.297.806.777 1.084v.541c-.48-.277-.777-.66-.777-1.083z" fill="url(#au)"/><path d="m157.496 240.461c1.036.598 2.716.598 3.752 0v.541c-1.036.599-2.716.599-3.752 0z" fill="url(#au)"/><path d="m162.025 239.377c0 .423-.297.806-.777 1.084v.541c.48-.277.777-.66.777-1.083z" fill="url(#au)"/><path d="m161.248 240.461c-1.036.598-2.716.598-3.752 0m3.752 0c1.036-.599 1.036-1.568 0-2.167-1.036-.598-2.716-.598-3.752 0-1.036.599-1.036 1.568 0 2.167m3.752 0v.541c-1.036.599-2.716.599-3.752 0v-.541m3.752 0c.48-.278.777-.661.777-1.084v.542c0 .423-.297.806-.777 1.083zm-3.752 0c-.48-.278-.777-.661-.777-1.084v.542c0 .423.297.806.777 1.083z" stroke="#363636" stroke-width=".654079"/><path d="m162.969 241.077c1.485-.858 3.893-.858 5.378 0l25.995 15.008c1.485.857 1.485 2.247 0 3.105-1.485.857-3.892.857-5.377 0l-25.996-15.009c-1.485-.857-1.485-2.247 0-3.104z" fill="url(#av)"/><path d="m162.453 243.871 27.076 15.632v1.242l-27.076-15.632z" fill="url(#aw)"/><path d="m193.831 259.614 1.076-.621v1.242l-1.076.621z" fill="url(#av)"/><path d="m161.562 242.629c0 .485.341.924.891 1.242v1.242c-.55-.318-.891-.757-.891-1.242z" fill="url(#aw)"/><path d="m189.529 259.614c1.188.686 3.114.686 4.302 0v1.242c-1.188.686-3.114.686-4.302 0z" fill="url(#av)"/><path d="m195.798 257.752c0 .485-.341.924-.891 1.241v1.242c.55-.318.891-.757.891-1.242z" fill="url(#av)"/><path d="m162.453 243.871 27.076 15.632v1.242l-27.076-15.632m0-1.242v1.242m0-1.242c-.55-.318-.891-.757-.891-1.242v1.242c0 .485.341.924.891 1.242m31.378 14.501 1.076-.621m-1.076.621v1.242m0-1.242c-1.188.686-3.114.686-4.302 0v1.242c1.188.686 3.114.686 4.302 0m1.076-1.863v1.242m0-1.242c.55-.317.891-.756.891-1.241v1.241c0 .485-.341.924-.891 1.242m0 0-1.076.621m-30.862-16.675 25.996 15.009c1.485.857 3.892.857 5.377 0 1.485-.858 1.485-2.248 0-3.105l-25.995-15.008c-1.485-.858-3.893-.858-5.378 0-1.485.857-1.485 2.247 0 3.104z" stroke="#363636" stroke-width=".654079"/><path d="m193.459 258.035c-1.036.598-2.716.598-3.752 0s-1.036-1.568 0-2.166c1.036-.599 2.716-.599 3.752 0 1.036.598 1.036 1.568 0 2.166z" fill="url(#ax)"/><path d="m188.93 256.951c0 .423.297.807.777 1.084v.541c-.48-.277-.777-.66-.777-1.083z" fill="url(#ay)"/><path d="m189.707 258.035c1.036.598 2.716.598 3.752 0v.542c-1.037.598-2.716.598-3.752 0z" fill="url(#ay)"/><path d="m194.236 256.951c0 .423-.297.807-.777 1.084v.541c.48-.277.777-.66.777-1.083z" fill="url(#ay)"/><g stroke="#363636" stroke-width=".654079"><path d="m193.459 258.035c-1.036.598-2.716.598-3.752 0m3.752 0c1.036-.598 1.036-1.568 0-2.166-1.036-.599-2.716-.599-3.752 0-1.036.598-1.036 1.568 0 2.166m3.752 0v.542c-1.037.598-2.716.598-3.752 0v-.542m3.752 0c.48-.277.777-.661.777-1.084v.542c0 .423-.297.806-.777 1.083zm-3.752 0c-.48-.277-.777-.661-.777-1.084v.542c0 .423.297.806.777 1.083z"/><path d="m157.657 255.092v-53.635"/><path d="m112.852 165.483c0-5.78 4.057-8.123 9.063-5.233l67.558 39.005c5.005 2.89 9.063 9.918 9.063 15.698 0 5.78-4.058 8.122-9.063 5.232l-67.558-39.004c-5.006-2.89-9.063-9.918-9.063-15.698z"/><path d="m0 0h77.4994v5.23263h-77.4994z" fill="url(#x)" transform="matrix(.866025 .5 -.866025 .5 126.449 157.633)"/><path d="m115.504 159.616c1.77-1.021 4.089-.704 6.409.635l4.531-2.616c-2.319-1.339-4.639-1.657-6.409-.635z" fill="url(#az)"/><path d="m198.442 214.615c0-5.78-4.058-12.808-9.063-15.698l4.531-2.616c5.006 2.89 9.064 9.918 9.064 15.698z" fill="url(#aA)"/><path d="m195.922 221.136c1.77-1.022 2.654-3.189 2.654-5.867l4.532-2.617c0 2.679-.885 4.846-2.655 5.868z" fill="#363636"/></g><g filter="url(#c)"><circle cx="3.92447" cy="3.92447" fill="url(#aB)" r="3.92447" transform="matrix(.866025 .5 0 1 115.469 162.865)"/></g><circle cx="3.92447" cy="3.92447" fill="url(#aB)" r="3.92447" transform="matrix(.866025 .5 0 1 115.469 162.865)"/><path d="m128.747 178.728-1.886-8.7 1.522.879 1.091 5.918.055.032 1.204-4.594 1.303.753 1.201 5.992.058.034 1.091-4.67 1.522.879-1.886 6.522-1.358-.784-1.255-5.701-.052-.029-1.252 4.253zm9.503 5.598c-.508-.293-.946-.665-1.313-1.115-.364-.451-.646-.952-.843-1.505-.197-.555-.296-1.133-.296-1.735 0-.588.099-1.046.296-1.375.197-.33.475-.515.834-.556.36-.04.783.08 1.268.36.326.189.629.425.911.708.283.283.53.605.74.967.212.363.377.76.495 1.193.118.429.177.887.177 1.373v.435l-4.174-2.41v-.982l2.884 1.665c0-.228-.043-.454-.129-.68-.086-.225-.205-.431-.357-.619-.15-.188-.325-.34-.525-.455-.208-.12-.392-.171-.553-.152-.159.017-.284.093-.374.227-.09.131-.136.309-.138.533v.933c0 .282.045.552.135.81.092.259.222.492.39.7.167.208.365.379.595.511.152.088.292.144.418.168.127.023.235.011.325-.036.091-.047.159-.129.206-.245l1.268.829c-.064.314-.196.545-.395.693-.198.146-.453.202-.766.167-.312-.036-.671-.171-1.079-.407zm3.09 1.673v-7.612l1.371.792v2.862l.042.024c.06-.119.147-.225.261-.318.116-.094.266-.141.45-.141.187-.001.419.078.696.238.36.208.693.509.997.903.305.391.549.858.731 1.399.182.539.273 1.135.273 1.789 0 .637-.089 1.123-.267 1.459-.176.335-.416.527-.721.576-.302.048-.641-.036-1.017-.253-.266-.153-.492-.335-.679-.544-.184-.208-.336-.423-.454-.645-.118-.224-.208-.433-.27-.628l-.061-.035v.914zm1.342-2.08c0 .34.041.659.123.959.081.3.199.565.354.795.154.228.342.406.563.534.223.129.412.167.566.115.155-.055.272-.185.351-.392.082-.208.122-.478.122-.81 0-.33-.039-.643-.119-.939-.079-.296-.196-.559-.35-.789-.155-.231-.345-.411-.57-.541-.223-.129-.412-.17-.567-.123-.152.048-.269.174-.35.377-.082.204-.123.475-.123.814zm8.545 7.899c-.508-.293-.946-.665-1.313-1.114-.364-.451-.645-.953-.843-1.506-.197-.555-.296-1.133-.296-1.735 0-.587.099-1.046.296-1.375.198-.33.475-.515.834-.556.36-.039.783.081 1.268.361.326.188.63.424.911.708.283.282.53.604.74.966.212.363.377.761.495 1.193.118.43.177.887.177 1.373v.435l-4.174-2.41v-.981l2.884 1.665c0-.228-.043-.455-.129-.68-.086-.226-.205-.432-.357-.619-.15-.189-.325-.34-.525-.455-.208-.121-.392-.171-.553-.153-.159.018-.284.093-.374.227-.09.131-.136.309-.138.533v.933c0 .282.045.552.135.81.092.259.222.493.39.701.167.208.365.378.595.511.152.088.292.143.418.167.127.023.235.012.325-.035.091-.047.159-.129.206-.246l1.269.829c-.065.315-.197.546-.396.693-.198.146-.453.202-.766.167-.311-.036-.671-.171-1.079-.407zm4.122-3.44.907 2.52.931-1.459 1.406.812-1.432 2.027 1.471 3.704-1.4-.809-.976-2.536-.959 1.42-1.416-.818 1.468-2.007-1.416-3.672zm6.588 3.804v1.189l-2.977-1.719v-1.189zm-2.301-2.696 1.371.791v5.322c0 .146.019.271.058.375.038.102.092.189.161.261.071.073.152.136.244.189.065.037.129.068.193.093.065.022.114.04.149.052l.215 1.303c-.068-.015-.165-.043-.289-.082-.125-.037-.276-.104-.454-.199-.331-.176-.62-.394-.869-.654-.247-.259-.439-.551-.576-.875-.138-.325-.205-.674-.203-1.046zm5.294 10.244c-.508-.294-.946-.665-1.313-1.115-.365-.451-.646-.953-.843-1.505-.197-.555-.296-1.134-.296-1.736 0-.587.099-1.045.296-1.375.197-.329.475-.515.834-.555.36-.04.783.08 1.268.36.326.188.629.424.91.708.284.282.53.605.741.966.212.363.377.761.495 1.193.118.43.177.888.177 1.373v.435l-4.174-2.41v-.981l2.884 1.665c0-.228-.043-.455-.129-.68-.086-.226-.205-.432-.357-.619-.15-.188-.325-.34-.525-.455-.208-.12-.393-.171-.553-.153-.159.018-.284.093-.374.227-.09.132-.136.309-.138.533v.933c0 .283.045.553.135.81.092.259.222.493.389.701.168.208.366.378.596.511.152.088.292.144.418.167.127.024.235.012.325-.035s.159-.129.206-.245l1.268.828c-.064.315-.196.546-.396.693-.197.147-.452.202-.766.168-.311-.036-.67-.172-1.078-.407zm4.435-.851v3.3l-1.371-.792v-5.708l1.307.754v1.008l.058.033c.109-.269.293-.426.55-.47.258-.047.57.035.937.247.343.198.643.458.898.779.255.32.454.683.595 1.087.142.401.213.823.213 1.267v3.635l-1.371-.792v-3.352c.002-.348-.075-.665-.232-.952-.157-.288-.372-.512-.647-.67-.185-.107-.348-.155-.489-.145-.14.011-.249.081-.328.211-.078.129-.117.316-.12.56zm8.281 4-1.255-.635c-.022-.137-.068-.275-.139-.415-.071-.142-.164-.277-.28-.403-.114-.128-.25-.237-.409-.329-.212-.123-.391-.174-.537-.154-.146.017-.219.111-.219.282 0 .137.047.279.142.428.094.148.256.317.486.507l.894.725c.481.391.839.781 1.075 1.17s.354.789.354 1.201c0 .374-.095.647-.286.819-.189.174-.448.244-.779.212-.328-.034-.707-.174-1.136-.422-.654-.378-1.176-.836-1.564-1.375-.386-.54-.613-1.102-.679-1.685l1.348.697c.041.253.14.486.296.698.157.21.358.385.602.526.241.139.434.197.58.175.148-.024.223-.12.225-.29-.002-.145-.055-.293-.158-.444-.103-.154-.262-.317-.476-.491l-.856-.691c-.483-.39-.842-.791-1.078-1.202-.234-.41-.351-.828-.351-1.255 0-.366.086-.633.257-.799.174-.164.418-.228.731-.191.315.038.684.18 1.107.424.624.36 1.116.796 1.474 1.308.36.513.571 1.049.631 1.609zm.876 4.587v-5.709l1.371.792v5.708zm.689-6.047c-.204-.118-.379-.297-.525-.537-.144-.242-.215-.473-.215-.693 0-.218.071-.364.215-.437.146-.074.321-.052.525.065.204.118.377.298.521.539.146.24.219.47.219.688 0 .22-.073.368-.219.442-.144.073-.317.051-.521-.067zm3.914 8.816c-.5-.289-.932-.661-1.297-1.117-.362-.457-.642-.963-.84-1.518-.197-.558-.296-1.129-.296-1.713 0-.59.099-1.048.296-1.375.198-.33.478-.513.84-.549.365-.037.797.089 1.297.378.5.288.932.661 1.294 1.118.365.456.646.963.843 1.52.198.555.297 1.127.297 1.717 0 .585-.099 1.042-.297 1.371-.197.328-.478.51-.843.547-.362.036-.794-.091-1.294-.379zm.007-1.223c.227.131.417.167.569.106.153-.063.268-.203.345-.418.079-.214.119-.488.119-.82s-.04-.651-.119-.957c-.077-.304-.192-.576-.345-.815-.152-.239-.342-.425-.569-.556-.23-.132-.423-.168-.58-.108-.154.062-.271.2-.35.415-.078.215-.116.489-.116.821s.038.65.116.955c.079.306.196.579.35.82.157.239.35.424.58.557zm4.589.465v3.3l-1.371-.792v-5.708l1.307.754v1.007l.058.034c.109-.269.293-.426.55-.47.258-.047.57.035.937.247.343.198.643.458.898.778.255.321.454.684.595 1.087.142.402.213.824.213 1.268v3.634l-1.371-.791v-3.352c.002-.348-.075-.666-.232-.952-.157-.288-.372-.512-.647-.671-.185-.106-.348-.154-.489-.145-.14.012-.249.082-.328.212-.078.129-.117.316-.12.56z" fill="#363636"/></g><g clip-path="url(#aY)"><path d="m403.081 362.359c2.503-1.445 6.561-1.445 9.063 0l13.595 7.849c2.503 1.445 2.503 3.788 0 5.233l-13.595 7.849c-2.502 1.445-6.56 1.445-9.063 0l-13.595-7.849c-2.502-1.445-2.502-3.788 0-5.233z" fill="url(#aC)"/><path d="m389.486 375.441 13.595 7.849v19.622l-13.595-7.849z" fill="url(#aC)"/><path d="m412.144 383.29 13.595-7.849v19.622l-13.595 7.849z" fill="url(#aC)"/><path d="m387.609 372.824c0 1.022.718 1.947 1.877 2.617v19.622c-1.159-.67-1.877-1.595-1.877-2.616z" fill="url(#aC)"/><path d="m403.081 383.29c2.503 1.445 6.561 1.445 9.063 0v19.622c-2.502 1.445-6.56 1.445-9.063 0z" fill="url(#aC)"/><path d="m427.616 372.824c0 1.022-.717 1.947-1.877 2.617v19.622c1.16-.67 1.877-1.595 1.877-2.616z" fill="#363636"/><path d="m389.486 375.441 13.595 7.849m-13.595-7.849c-2.502-1.445-2.502-3.788 0-5.233l13.595-7.849c2.503-1.445 6.561-1.445 9.063 0l13.595 7.849c2.503 1.445 2.503 3.788 0 5.233m-36.253 0v19.622m0-19.622c-1.159-.67-1.877-1.595-1.877-2.617v19.623c0 1.021.718 1.946 1.877 2.616m22.658-11.773 13.595-7.849m-13.595 7.849c-2.502 1.445-6.56 1.445-9.063 0m9.063 0v19.622m-9.063-19.622v19.622m22.658-27.471v19.622m0-19.622c1.16-.67 1.877-1.595 1.877-2.617v19.623c0 1.021-.717 1.946-1.877 2.616m-22.658 7.849-13.595-7.849m13.595 7.849c2.503 1.445 6.561 1.445 9.063 0m13.595-7.849-13.595 7.849" stroke="#363636" stroke-width=".654079"/><path d="m427.284 387.869c2.503-1.445 6.561-1.445 9.064 0l13.594 7.849c2.503 1.445 2.503 3.787 0 5.232l-13.594 7.849c-2.503 1.445-6.561 1.445-9.064 0l-13.594-7.849c-2.503-1.445-2.503-3.787 0-5.232z" fill="url(#aD)"/><path d="m413.69 400.95 13.594 7.849v6.541l-13.594-7.849z" fill="url(#aD)"/><path d="m436.348 408.799 13.594-7.849v6.541l-13.594 7.849z" fill="url(#aD)"/><path d="m411.812 398.334c0 1.022.718 1.947 1.878 2.616v6.541c-1.16-.669-1.878-1.594-1.878-2.616z" fill="url(#aD)"/><path d="m427.284 408.799c2.503 1.445 6.561 1.445 9.064 0v6.541c-2.503 1.445-6.561 1.445-9.064 0z" fill="url(#aD)"/><path d="m451.819 398.334c0 1.022-.717 1.947-1.877 2.616v6.541c1.16-.669 1.877-1.594 1.877-2.616z" fill="#363636"/><path d="m413.69 400.95 13.594 7.849m-13.594-7.849c-2.503-1.444-2.503-3.787 0-5.232l13.594-7.849c2.503-1.445 6.561-1.445 9.064 0l13.594 7.849c2.503 1.445 2.503 3.788 0 5.232m-36.252 0v6.541m0-6.541c-1.16-.669-1.878-1.594-1.878-2.616v6.541c0 1.022.718 1.947 1.878 2.616m22.658 1.308 13.594-7.849m-13.594 7.849c-2.503 1.445-6.561 1.445-9.064 0m9.064 0v6.541m-9.064-6.541v6.541m22.658-14.39v6.541m0-6.541c1.16-.669 1.877-1.594 1.877-2.616v6.541c0 1.022-.717 1.947-1.877 2.616m-22.658 7.849-13.594-7.849m13.594 7.849c2.503 1.445 6.561 1.445 9.064 0m13.594-7.849-13.594 7.849" stroke="#363636" stroke-width=".654079"/><g fill="url(#aE)"><path d="m379.534 380.674c2.503-1.445 6.561-1.445 9.064 0l13.594 7.849c2.503 1.444 2.503 3.787 0 5.232l-13.594 7.849c-2.503 1.445-6.561 1.445-9.064 0l-13.594-7.849c-2.503-1.445-2.503-3.788 0-5.232z"/><path d="m365.94 393.755 13.594 7.849v13.082l-13.594-7.849z"/><path d="m388.598 401.604 13.594-7.849v13.082l-13.594 7.849z"/><path d="m364.062 391.139c0 1.022.718 1.947 1.878 2.616v13.082c-1.16-.67-1.878-1.595-1.878-2.617z"/><path d="m379.534 401.604c2.503 1.445 6.561 1.445 9.064 0v13.082c-2.503 1.445-6.561 1.445-9.064 0z"/><path d="m404.069 391.139c0 1.022-.717 1.947-1.877 2.616v13.082c1.16-.67 1.877-1.595 1.877-2.617z"/></g><path d="m365.94 393.755 13.594 7.849m-13.594-7.849c-2.503-1.445-2.503-3.788 0-5.232l13.594-7.849c2.503-1.445 6.561-1.445 9.064 0l13.594 7.849c2.503 1.444 2.503 3.787 0 5.232m-36.252 0v13.082m0-13.082c-1.16-.669-1.878-1.594-1.878-2.616v13.081c0 1.022.718 1.947 1.878 2.617m22.658-5.233 13.594-7.849m-13.594 7.849c-2.503 1.445-6.561 1.445-9.064 0m9.064 0v13.082m-9.064-13.082v13.082m22.658-20.931v13.082m0-13.082c1.16-.669 1.877-1.594 1.877-2.616v13.081c0 1.022-.717 1.947-1.877 2.617m-22.658 7.849-13.594-7.849m13.594 7.849c2.503 1.445 6.561 1.445 9.064 0m13.594-7.849-13.594 7.849" stroke="#363636" stroke-width=".654079"/><path d="m403.081 381.328c2.503-1.445 6.561-1.445 9.063 0l13.595 7.849c2.503 1.445 2.503 3.787 0 5.232l-13.595 7.849c-2.502 1.445-6.56 1.445-9.063 0l-13.595-7.849c-2.502-1.445-2.502-3.787 0-5.232z" fill="url(#aF)"/><path d="m389.486 394.409 13.595 7.849v26.164l-13.595-7.849z" fill="url(#aF)"/><path d="m412.144 402.258 13.595-7.849v26.164l-13.595 7.849z" fill="url(#aF)"/><path d="m387.609 391.793c0 1.022.718 1.947 1.877 2.616v26.164c-1.159-.67-1.877-1.595-1.877-2.617z" fill="url(#aF)"/><path d="m403.081 402.258c2.503 1.445 6.561 1.445 9.063 0v26.164c-2.502 1.444-6.56 1.444-9.063 0z" fill="url(#aF)"/><path d="m427.616 391.793c0 1.022-.717 1.947-1.877 2.616v26.164c1.16-.67 1.877-1.595 1.877-2.617z" fill="#363636"/><path d="m389.486 394.409 13.595 7.849m-13.595-7.849c-2.502-1.445-2.502-3.787 0-5.232l13.595-7.849c2.503-1.445 6.561-1.445 9.063 0l13.595 7.849c2.503 1.445 2.503 3.787 0 5.232m-36.253 0v26.164m0-26.164c-1.159-.669-1.877-1.594-1.877-2.616v26.163c0 1.022.718 1.947 1.877 2.617m22.658-18.315 13.595-7.849m-13.595 7.849c-2.502 1.445-6.56 1.445-9.063 0m9.063 0v26.164m-9.063-26.164v26.164m22.658-34.013v26.164m0-26.164c1.16-.669 1.877-1.594 1.877-2.616v26.163c0 1.022-.717 1.947-1.877 2.617m-22.658 7.849-13.595-7.849m13.595 7.849c2.503 1.444 6.561 1.444 9.063 0m13.595-7.849-13.595 7.849" stroke="#363636" stroke-width=".654079"/><path d="m407.848 380.019v-41.207" stroke="#363636" stroke-width=".654079"/><path d="m393.318 304.146 29.257 16.891-4.532 2.617-29.257-16.892z" fill="url(#aG)"/><path d="m382.376 306.128c1.77-1.022 4.089-.704 6.409.635l4.531-2.616c-2.319-1.34-4.639-1.657-6.408-.635z" fill="url(#aH)"/><path d="m426.068 338.235c0-5.78-4.057-12.808-9.063-15.698l4.532-2.616c5.005 2.89 9.063 9.918 9.063 15.698z" fill="url(#aH)"/><path d="m423.414 344.102c1.77-1.021 2.654-3.189 2.654-5.867l4.532-2.616c0 2.678-.884 4.845-2.654 5.867z" fill="#363636"/><path d="m388.786 306.762 27.659 15.969c5.005 2.89 9.063 9.919 9.063 15.698 0 5.78-4.058 8.123-9.063 5.233l-27.659-15.969c-5.006-2.89-9.063-9.918-9.063-15.698s4.057-8.122 9.063-5.233zm0 0 29.257 16.892 4.532-2.617-29.257-16.891zm37.282 31.473c0-5.78-4.057-12.808-9.063-15.698l4.532-2.616c5.005 2.89 9.063 9.918 9.063 15.698m-4.532 2.616 4.532-2.616m-4.532 2.616c0 2.678-.884 4.846-2.654 5.867l4.532-2.616c1.77-1.022 2.654-3.189 2.654-5.867m-48.224-29.491c1.77-1.022 4.089-.704 6.409.635l4.531-2.616c-2.319-1.34-4.639-1.657-6.408-.635z" stroke="#363636" stroke-width=".654079"/><path d="m389.137 317.23c0 2.167-1.521 3.046-3.398 1.962-1.878-1.084-3.399-3.719-3.399-5.887 0-2.167 1.521-3.046 3.399-1.962 1.877 1.084 3.398 3.719 3.398 5.887z" fill="url(#aI)"/><path d="m389.137 317.23c0 2.167-1.521 3.046-3.398 1.962-1.878-1.084-3.399-3.719-3.399-5.887 0-2.167 1.521-3.046 3.399-1.962 1.877 1.084 3.398 3.719 3.398 5.887z" fill="url(#aI)"/><path d="m394.523 318.376v-1.327l5.414 3.125v1.327l-2.018-1.165v6.284l-1.378-.795v-6.284z" fill="#363636"/><path d="m402.22 329.215c-.5-.289-.933-.661-1.297-1.117-.363-.457-.643-.963-.84-1.518-.198-.558-.296-1.129-.296-1.713 0-.59.098-1.048.296-1.375.197-.33.477-.513.84-.549.364-.037.797.089 1.297.378.5.288.931.661 1.293 1.118.365.456.646.963.844 1.52.197.555.296 1.128.296 1.717 0 .585-.099 1.042-.296 1.372-.198.327-.479.509-.844.546-.362.036-.793-.091-1.293-.379zm.006-1.223c.228.131.417.167.57.106.152-.063.267-.202.344-.418.08-.214.119-.487.119-.819s-.039-.651-.119-.957c-.077-.305-.192-.577-.344-.816-.153-.239-.342-.424-.57-.556-.229-.132-.423-.168-.579-.108-.155.062-.272.201-.351.415-.077.215-.116.489-.116.821s.039.651.116.955c.079.306.196.579.351.82.156.239.35.425.579.557z" fill="#363636"/><path d="m407.678 332.366c-.5-.288-.932-.661-1.297-1.116-.362-.458-.642-.964-.84-1.519-.197-.557-.296-1.128-.296-1.713 0-.589.099-1.048.296-1.375.198-.329.478-.512.84-.548.365-.037.797.089 1.297.377.5.289.931.662 1.294 1.119.365.456.646.962.843 1.52.198.555.296 1.127.296 1.717 0 .584-.098 1.042-.296 1.371-.197.327-.478.509-.843.546-.363.036-.794-.09-1.294-.379zm.007-1.222c.227.131.417.166.569.106.153-.064.267-.203.345-.419.079-.214.119-.487.119-.819s-.04-.651-.119-.957c-.078-.305-.192-.577-.345-.816-.152-.239-.342-.424-.569-.555-.23-.133-.423-.169-.58-.108-.154.062-.271.2-.35.414-.078.216-.116.49-.116.822s.038.65.116.955c.079.306.196.579.35.819.157.239.35.425.58.558z" fill="#363636"/><path d="m412.274 327.297v7.611l-1.371-.791v-7.611z" fill="#363636"/><path d="m417.386 333.779-1.255-.635c-.022-.137-.068-.275-.139-.415-.07-.142-.164-.277-.28-.403-.113-.128-.249-.237-.408-.329-.213-.123-.392-.174-.538-.154-.146.017-.219.111-.219.282 0 .137.048.279.142.428.094.148.256.317.486.507l.895.725c.48.391.839.781 1.075 1.17s.354.789.354 1.201c0 .374-.096.647-.287.819-.189.174-.448.244-.779.212-.328-.033-.707-.174-1.136-.422-.654-.378-1.176-.836-1.564-1.375-.386-.54-.612-1.102-.679-1.685l1.349.697c.04.254.139.486.296.698.156.21.357.385.602.526.24.139.433.197.579.175.148-.024.223-.12.225-.29-.002-.145-.055-.293-.158-.444-.103-.154-.261-.317-.476-.491l-.856-.691c-.483-.39-.842-.791-1.078-1.202-.234-.41-.351-.828-.351-1.254 0-.367.086-.633.257-.799.174-.165.418-.229.731-.192.315.039.685.18 1.107.424.625.36 1.116.796 1.474 1.308.361.513.571 1.049.631 1.609z" fill="#363636"/></g><path d="m323.336 421.228c-3.754 2.168-9.841 2.168-13.595 0-3.754-2.167-3.754-5.681 0-7.849 3.754-2.167 9.841-2.167 13.595 0 3.754 2.168 3.754 5.682 0 7.849z" fill="url(#aJ)" stroke="#363636" stroke-width=".654079"/><path d="m328.595 466.128c-6.66 3.845-17.459 3.845-24.119 0-6.661-3.846-6.661-10.08 0-13.926 6.66-3.845 17.459-3.845 24.119 0 6.66 3.846 6.66 10.08 0 13.926z" stroke="#fff" stroke-width=".654079"/><path d="m335.643 470.195c-10.551 6.091-27.656 6.091-38.207 0-10.55-6.091-10.55-15.967 0-22.058 10.551-6.091 27.656-6.091 38.207 0 10.55 6.091 10.55 15.967 0 22.058z" stroke="#fff" stroke-width=".654079"/><path d="m306.926 417.305c0 1.532 1.076 2.92 2.815 3.924v39.245c-1.739-1.004-2.815-2.392-2.815-3.925z" fill="url(#aK)" stroke="#363636" stroke-width=".654079"/><path d="m309.738 421.229c3.754 2.167 9.841 2.167 13.595 0v39.244c-3.754 2.168-9.841 2.168-13.595 0z" fill="url(#aL)" stroke="#363636" stroke-width=".654079"/><path d="m326.152 417.305c0 1.532-1.076 2.92-2.816 3.924v39.245c1.74-1.004 2.816-2.392 2.816-3.925z" fill="#363636"/><path d="m316.353 417.305v-9.812" stroke="#363636" stroke-width=".654079"/><path d="m324.295 400.951c0 7.225-5.072 10.153-11.329 6.541s-11.329-12.398-11.329-19.622c0-7.225 5.072-10.154 11.329-6.541 6.257 3.612 11.329 12.397 11.329 19.622z" fill="url(#aM)"/><path d="m304.955 380.535c2.212-1.277 5.111-.88 8.011.794l2.265-1.308c-2.899-1.674-5.798-2.071-8.01-.794z" fill="url(#aM)"/><path d="m324.295 400.951c0-7.225-5.072-16.01-11.329-19.622l2.265-1.308c6.257 3.612 11.329 12.397 11.329 19.622z" fill="url(#aN)"/><path d="m320.977 408.286c2.212-1.278 3.318-3.987 3.318-7.335l2.265-1.308c0 3.348-1.106 6.057-3.318 7.334z" fill="#363636"/><path d="m324.295 400.951c0 7.225-5.072 10.153-11.329 6.541s-11.329-12.398-11.329-19.622c0-7.225 5.072-10.154 11.329-6.541m11.329 19.622c0-7.225-5.072-16.01-11.329-19.622m11.329 19.622 2.265-1.308m-2.265 1.308c0 3.348-1.106 6.057-3.318 7.335l2.265-1.309c2.212-1.277 3.318-3.986 3.318-7.334m-13.594-18.314c-2.9-1.674-5.799-2.071-8.011-.794l2.266-1.308c2.212-1.277 5.111-.88 8.01.794m-2.265 1.308 2.265-1.308m0 0c6.257 3.612 11.329 12.397 11.329 19.622" stroke="#363636" stroke-width=".654079"/><path d="m317.767 391.593c-.134-.177-.287-.326-.446-.433-.159-.108-.319-.17-.465-.183l-4.806-.589c-.114-.011-.235-.054-.358-.126l-3.077-1.776c-.258-.149-.506-.173-.688-.068-.183.105-.285.332-.285.63v.09l-.974-.562v2.698l.974.562v.117c.006.297.111.637.293.947s.426.566.68.713l1.168 3.534c.08.238.204.473.36.678.155.204.336.37.521.478l.49.283c.257.146.503.168.684.062s.282-.332.282-.629v-2.275l4.736 4.92c.116.12.24.219.366.292.194.108.383.149.545.117.128-.026.234-.099.308-.212.075-.114.116-.264.12-.44v-7.654c-.001-.183-.04-.386-.115-.591-.074-.204-.182-.404-.313-.583zm-6.621-.521v2.905l-2.531-1.462v-2.905zm0 6.385-.49-.283-.958-2.936 1.448.836zm1.262-2.617c-.092-.108-.189-.209-.288-.301v-2.968c.098.033.195.056.288.067l4.814.567v7.627zm5.811.63v2.248c.258.149.505.174.688.068.183-.105.285-.332.285-.63s-.102-.643-.285-.96c-.183-.316-.43-.577-.688-.726z" fill="#fff"/><g clip-path="url(#aZ)"><g stroke-width=".654079"><path d="m490.496 413.711c-3.754 2.167-9.84 2.167-13.594 0-3.755-2.168-3.755-5.682 0-7.849 3.754-2.168 9.84-2.168 13.594 0 3.754 2.167 3.754 5.681 0 7.849z" fill="url(#aO)" stroke="#363636"/><path d="m494.479 455.254c-5.951 3.436-15.6 3.436-21.551 0s-5.951-9.007 0-12.443 15.6-3.436 21.551 0 5.951 9.007 0 12.443z" stroke="#fff"/><path d="m502.739 459.371c-10.515 6.071-27.564 6.071-38.079 0-10.515-6.072-10.515-15.915 0-21.986s27.564-6.071 38.079 0c10.516 6.071 10.516 15.914 0 21.986z" stroke="#fff"/><path d="m474.086 409.785c0 1.533 1.076 2.92 2.816 3.925v39.244c-1.74-1.004-2.816-2.391-2.816-3.924z" fill="url(#aP)" stroke="#363636"/><path d="m476.902 413.711c3.754 2.167 9.841 2.167 13.595 0v39.245c-3.754 2.167-9.841 2.167-13.595 0z" fill="url(#aQ)" stroke="#363636"/></g><path d="m493.312 409.785c0 1.533-1.076 2.92-2.816 3.925v39.244c1.74-1.004 2.816-2.391 2.816-3.924z" fill="#363636"/><path d="m483.517 409.785v-9.811" stroke="#363636" stroke-width=".654079"/><path d="m491.455 393.433c0 7.225-5.072 10.153-11.329 6.541s-11.329-12.398-11.329-19.622c0-7.225 5.072-10.153 11.329-6.541s11.329 12.398 11.329 19.622z" fill="url(#aR)" stroke="#363636" stroke-width=".654079"/><path d="m472.117 373.02c2.212-1.277 5.112-.881 8.011.793l2.266-1.308c-2.9-1.674-5.799-2.071-8.011-.793z" fill="url(#aS)"/><path d="m491.457 393.436c0-7.225-5.072-16.01-11.329-19.623l2.266-1.308c6.257 3.612 11.329 12.398 11.329 19.622z" fill="url(#aS)"/><path d="m488.139 400.77c2.212-1.277 3.318-3.987 3.318-7.334l2.266-1.309c0 3.348-1.106 6.058-3.318 7.335z" fill="#363636"/><path d="m480.128 373.813c-2.899-1.674-5.799-2.07-8.011-.793l2.266-1.308c2.212-1.278 5.111-.881 8.011.793m-2.266 1.308 2.266-1.308m-2.266 1.308c6.257 3.613 11.329 12.398 11.329 19.623m-9.063-20.931c6.257 3.612 11.329 12.398 11.329 19.622m-2.266 1.309 2.266-1.309m-2.266 1.309c0 3.347-1.106 6.057-3.318 7.334l2.266-1.308c2.212-1.277 3.318-3.987 3.318-7.335" stroke="#363636" stroke-width=".654079"/><path clip-rule="evenodd" d="m481.703 391.217.671-.388-2.856-1.648-2.596-4.497-3.16-1.825v-1.199l3.16 1.825 2.596-1.499 2.856 1.649-.672-1.163.734-.424 1.926 3.334-1.925 1.111-.735-1.272.672-.387-2.426-1.401-2.077 1.199 2.077 3.598 2.426 1.4-.671-1.163.734-.424 1.925 3.334-1.925 1.112z" fill="#fff" fill-rule="evenodd"/><path d="m512.925 410.783c-16.595 9.581-43.501 9.581-60.096 0s-16.595-25.116 0-34.697 43.501-9.581 60.096 0 16.595 25.116 0 34.697z" stroke="#fff" stroke-width=".654079"/></g></svg>