<svg xmlns="http://www.w3.org/2000/svg" viewBox="0 0 814 599" fill="none"><path stroke="#888" stroke-width=".698" d="M400.095 126.799c2.67-1.541 6.999-1.541 9.67 0l399.399 230.594c2.67 1.541 2.67 4.041 0 5.583l-395.26 228.203c-2.671 1.542-7 1.542-9.67 0L4.834 360.586c-2.67-1.542-2.67-4.041 0-5.583l395.261-228.204Z"/><path stroke="#888" stroke-width=".698" d="M0 0h460.958v5.583H0z" transform="matrix(.86603 .5 0 1 4.866 360.586)"/><path stroke="#888" stroke-width=".698" d="M0 0h456.408v5.583H0z" transform="matrix(.86603 -.5 0 1 413.837 591.581)"/><path stroke="#888" stroke-width=".698" d="M2.863 357.794c0 1.09.766 2.077 2.003 2.791v5.583c-1.237-.714-2.003-1.701-2.003-2.791v-5.583ZM404.13 591.581c2.67 1.542 6.999 1.542 9.669 0v5.583c-2.67 1.542-6.999 1.542-9.669 0v-5.583ZM811.532 360.586c0 1.09-.765 2.077-2.002 2.791v5.583c1.237-.714 2.002-1.701 2.002-2.791v-5.583Z"/><path stroke="#363636" stroke-linecap="round" stroke-width="3.816" d="m504.361 386.588 86.087 49.702"/><circle cx="506.206" cy="387.286" r="7.631" fill="#F69656"/><path stroke="#363636" stroke-width="3.816" d="m253.103 414.106 108.433 62.185a3.817 3.817 0 0 0 3.803-.003l138.324-79.67"/><circle cx="501.119" cy="397.461" r="7.631" fill="#56B6B4"/><path stroke="#363636" stroke-width="3.816" d="m390.466 304.062 34.341-19.923c3.317-1.924 7.49.374 7.637 4.206l.306 7.999c.147 3.811 4.279 6.112 7.595 4.23l82.17-46.631a5.087 5.087 0 0 1 4.931-.051l52.211 28.231"/><circle cx="390.466" cy="303.342" r="7.631" fill="#7F76B2"/><path stroke="#363636" stroke-width="3.816" d="m584.108 284.834 50.788 28.821c2.567 1.457 2.579 5.152.021 6.625l-105.188 60.581"/><circle cx="585.063" cy="285.536" r="7.631" fill="#F8C6DB"/><path stroke="#363636" stroke-width="3.816" d="m393.01 304.806-40.376-23.391c-2.544-1.474-5.728.362-5.728 3.301v5.44c0 2.957-3.219 4.79-5.763 3.281l-68.945-40.909a3.816 3.816 0 0 0-3.858-.022l-73.106 42.284-69.302 40.083c-2.547 1.473-2.539 5.152.014 6.614l140.83 80.649"/><circle cx="263.284" cy="426.024" r="7.631" fill="#98E1CF"/><circle cx="6.359" cy="6.359" r="6.359" fill="#363636" stroke="#363636" stroke-width=".636" transform="matrix(.86603 .5 -.86603 .5 393.213 281.01)"/><g clip-path="url(#a)"><path stroke="#fff" stroke-width=".636" d="M576.98 265.183c2.433-1.405 6.378-1.405 8.811 0l39.658 22.896c2.434 1.405 2.434 3.683 0 5.088l-39.658 22.896c-2.433 1.405-6.378 1.405-8.811 0l-39.658-22.896c-2.434-1.405-2.434-3.683 0-5.088l39.658-22.896Z"/><path fill="url(#b)" stroke="#363636" stroke-width=".636" d="M576.996 235.933c2.433-1.405 6.378-1.405 8.812 0l35.247 20.35c2.433 1.404 2.433 3.682 0 5.087l-35.247 20.35c-2.434 1.405-6.379 1.405-8.812 0l-35.247-20.35c-2.434-1.405-2.434-3.683 0-5.087l35.247-20.35Z"/><path stroke="#fff" stroke-width=".636" d="M576.989 229.572c2.433-1.405 6.379-1.405 8.812 0l35.247 20.35c2.433 1.405 2.433 3.683 0 5.088l-35.247 20.35c-2.433 1.405-6.379 1.405-8.812 0l-35.247-20.35c-2.433-1.405-2.433-3.683 0-5.088l35.247-20.35Z"/><path stroke="#fff" stroke-width=".636" d="M576.988 223.213c2.433-1.405 6.379-1.405 8.812 0l35.247 20.35c2.433 1.405 2.433 3.682 0 5.087L585.8 269c-2.433 1.405-6.379 1.405-8.812 0l-35.247-20.35c-2.433-1.405-2.433-3.682 0-5.087l35.247-20.35Z"/><path stroke="#fff" stroke-width=".636" d="M576.986 216.854c2.433-1.404 6.379-1.404 8.812 0l35.247 20.35c2.434 1.405 2.434 3.683 0 5.088l-35.247 20.35c-2.433 1.405-6.379 1.405-8.812 0l-35.247-20.35c-2.433-1.405-2.433-3.683 0-5.088l35.247-20.35Z"/><path fill="url(#c)" d="m541.749 261.37 35.247 20.35v25.437l-35.247-20.35V261.37Z"/><path fill="url(#d)" d="m585.808 281.72 35.247-20.35v25.437l-35.247 20.35V281.72Z"/><path fill="url(#e)" d="M539.924 258.826c0 .994.697 1.893 1.825 2.544v25.437c-1.128-.651-1.825-1.55-1.825-2.543v-25.438Z"/><path fill="url(#f)" d="M576.996 281.72c2.433 1.405 6.378 1.405 8.812 0v25.437c-2.434 1.405-6.379 1.405-8.812 0V281.72Z"/><path fill="#363636" d="M622.88 258.826c0 .994-.697 1.893-1.825 2.544v25.437c1.128-.651 1.825-1.55 1.825-2.543v-25.438Z"/><path stroke="#363636" stroke-width=".636" d="m541.749 261.37 35.247 20.35m-35.247-20.35v25.437m0-25.437c-1.128-.651-1.825-1.55-1.825-2.544v25.438c0 .993.697 1.892 1.825 2.543m35.247-5.087v25.437m0-25.437c2.433 1.405 6.378 1.405 8.812 0m-8.812 25.437-35.247-20.35m35.247 20.35c2.433 1.405 6.378 1.405 8.812 0m0-25.437 35.247-20.35m-35.247 20.35v25.437m35.247-45.787v25.437m0-25.437c1.128-.651 1.825-1.55 1.825-2.544v25.438c0 .993-.697 1.892-1.825 2.543m0 0-35.247 20.35M580.904 259.463v-76.949"/><path fill="url(#g)" d="M535.435 154.533c0-5.619 3.945-7.897 8.811-5.087l58.714 33.898c4.867 2.81 8.812 9.643 8.812 15.262 0 5.62-3.945 7.898-8.812 5.088l-58.714-33.898c-4.866-2.81-8.811-9.643-8.811-15.263Z"/><path fill="url(#h)" d="m548.653 146.902 58.65 33.861-4.406 2.544-58.651-33.861 4.407-2.544Z"/><path fill="url(#i)" d="M538.014 148.829c1.721-.994 3.976-.685 6.231.617l4.406-2.544c-2.255-1.302-4.51-1.61-6.231-.617l-4.406 2.544Z"/><path fill="url(#j)" d="M612.105 198.413c0-5.62-3.945-12.453-8.811-15.263l4.405-2.544c4.867 2.81 8.812 9.643 8.812 15.263l-4.406 2.544Z"/><path fill="#363636" d="M609.525 204.117c1.721-.993 2.58-3.1 2.58-5.704l4.406-2.544c0 2.604-.859 4.711-2.58 5.705l-4.406 2.543Z"/><path stroke="#363636" stroke-width=".636" d="m544.246 149.446 58.714 33.898c4.867 2.81 8.812 9.643 8.812 15.262 0 5.62-3.945 7.898-8.812 5.088l-58.714-33.898c-4.866-2.81-8.811-9.643-8.811-15.263 0-5.619 3.945-7.897 8.811-5.087Zm0 0 58.651 33.861 4.406-2.544-58.65-33.861-4.407 2.544Zm67.859 48.967c0-5.62-3.945-12.453-8.811-15.263l4.405-2.544c4.867 2.81 8.812 9.643 8.812 15.263m-4.406 2.544 4.406-2.544m-4.406 2.544c0 2.604-.859 4.711-2.58 5.704l4.406-2.543c1.721-.994 2.58-3.101 2.58-5.705m-78.497-47.04c1.721-.994 3.976-.685 6.231.617l4.406-2.544c-2.255-1.302-4.51-1.61-6.231-.617l-4.406 2.544Z"/><path fill="#EFEFEF" d="M544.587 159.62c0 2.107-1.479 2.962-3.304 1.908-1.825-1.054-3.305-3.616-3.305-5.724 0-2.107 1.48-2.961 3.305-1.907 1.825 1.053 3.304 3.616 3.304 5.723Z"/><path fill="#EFEFEF" d="M544.587 159.62c0 2.107-1.479 2.962-3.304 1.908-1.825-1.054-3.305-3.616-3.305-5.724 0-2.107 1.48-2.961 3.305-1.907 1.825 1.053 3.304 3.616 3.304 5.723Z"/><path fill="#fff" d="M549.434 165.716v-7.4l2.528 1.46c.486.281.9.627 1.243 1.039.342.409.602.855.782 1.337.181.48.272.966.272 1.458 0 .491-.092.872-.275 1.142-.184.269-.45.409-.798.417-.346.01-.766-.128-1.258-.412l-1.612-.93v-1.254l1.393.804c.261.15.475.223.644.217a.442.442 0 0 0 .382-.217c.086-.139.128-.33.128-.573 0-.246-.042-.485-.128-.717a2.057 2.057 0 0 0-.382-.651 2.454 2.454 0 0 0-.65-.531l-.914-.527v6.121l-1.355-.783ZM558.099 168.356v-3.187l1.334.77v5.55l-1.28-.739v-1.008l-.05-.029c-.109.263-.289.42-.542.472-.25.053-.556-.025-.917-.233a2.969 2.969 0 0 1-.848-.743 3.602 3.602 0 0 1-.572-1.05 3.765 3.765 0 0 1-.207-1.235v-3.534l1.333.77v3.259a1.9 1.9 0 0 0 .229.908c.15.278.351.489.604.635.16.092.31.137.45.133a.418.418 0 0 0 .338-.188c.088-.118.131-.301.128-.551ZM560.427 172.063v-7.4l1.333.77v2.782l.041.024a.948.948 0 0 1 .253-.309.672.672 0 0 1 .438-.138c.182-.001.407.076.676.232.351.202.674.495.97.878.296.38.533.834.71 1.36.178.524.266 1.104.266 1.74 0 .619-.086 1.092-.259 1.418-.171.325-.405.512-.701.56-.294.047-.624-.035-.989-.246a2.616 2.616 0 0 1-.66-.529 3.215 3.215 0 0 1-.442-.627 3.814 3.814 0 0 1-.262-.611l-.06-.034v.889l-1.314-.759Zm1.305-2.021c0 .33.039.64.119.932.079.291.194.549.344.773.15.222.333.395.548.519.216.125.4.162.55.112.15-.053.264-.18.341-.382.08-.202.119-.465.119-.787 0-.321-.038-.625-.116-.913a2.525 2.525 0 0 0-.341-.767 1.65 1.65 0 0 0-.553-.526c-.217-.125-.401-.165-.551-.119-.148.047-.262.169-.341.366-.08.198-.119.462-.119.792ZM567.24 168.597v7.4l-1.333-.77v-7.4l1.333.77ZM568.211 176.557v-5.55l1.333.77v5.55l-1.333-.77Zm.67-5.878a1.448 1.448 0 0 1-.51-.523 1.316 1.316 0 0 1-.21-.673c0-.212.07-.354.21-.425.141-.072.311-.051.51.063.198.115.367.289.507.524.141.234.212.457.212.669 0 .214-.071.357-.212.43-.14.071-.309.049-.507-.065ZM574.514 176.229l-1.22-.618a1.368 1.368 0 0 0-.135-.403 1.737 1.737 0 0 0-.67-.712c-.206-.119-.38-.169-.522-.15-.142.017-.213.109-.213.275 0 .133.046.271.138.416.092.144.249.309.472.493l.87.704c.467.381.816.76 1.045 1.139.23.378.345.767.345 1.167 0 .363-.093.629-.279.796-.184.169-.436.238-.757.206-.319-.032-.688-.169-1.105-.41-.636-.367-1.143-.813-1.521-1.337-.375-.525-.595-1.071-.66-1.638l1.311.677c.04.247.136.474.288.68.152.203.347.374.585.511.234.135.422.191.564.17.143-.023.216-.117.219-.282a.798.798 0 0 0-.154-.432 2.28 2.28 0 0 0-.463-.477l-.832-.672c-.47-.379-.819-.769-1.049-1.169a2.439 2.439 0 0 1-.341-1.219c0-.357.084-.616.251-.777.169-.16.405-.222.71-.186.307.037.666.174 1.076.412.608.35 1.085.774 1.434 1.271.35.499.555 1.021.613 1.565ZM576.699 178.249v3.209l-1.333-.77v-7.4l1.295.748v2.829l.057.033c.108-.265.284-.42.525-.466.242-.048.546.033.911.244.334.192.625.445.873.757.25.31.444.662.582 1.055.14.391.209.803.207 1.236v3.533l-1.333-.769v-3.259a1.871 1.871 0 0 0-.226-.929 1.633 1.633 0 0 0-.632-.65c-.181-.105-.342-.153-.482-.145a.404.404 0 0 0-.325.202c-.077.124-.117.305-.119.542ZM582.958 185.18a4.592 4.592 0 0 1-1.276-1.084 4.998 4.998 0 0 1-1.108-3.151c0-.571.096-1.016.288-1.337.192-.32.462-.5.81-.54.351-.038.762.079 1.233.351.317.183.612.412.886.688a4.749 4.749 0 0 1 1.201 2.099c.115.418.172.863.172 1.335v.423l-4.058-2.343v-.954l2.804 1.619c0-.222-.042-.442-.126-.661a2.152 2.152 0 0 0-.347-.602 1.804 1.804 0 0 0-.51-.443c-.202-.116-.382-.166-.538-.148a.481.481 0 0 0-.363.221c-.088.127-.133.3-.135.518v.907a2.312 2.312 0 0 0 .51 1.469c.163.202.356.368.579.497.148.085.284.139.407.162a.477.477 0 0 0 .316-.034.44.44 0 0 0 .2-.238l1.233.805c-.062.306-.191.531-.385.674-.192.142-.44.196-.744.163-.303-.035-.652-.167-1.049-.396ZM585.937 186.792v-5.55l1.293.746v.968l.05.029c.087-.294.234-.469.441-.526.206-.059.444-.01.713.145.067.038.139.085.216.139.078.054.145.107.204.157v1.366a3.631 3.631 0 0 0-.564-.408c-.196-.114-.371-.165-.525-.156a.463.463 0 0 0-.363.195c-.088.123-.132.298-.132.524v3.14l-1.333-.769ZM593.445 187.159l-1.22-.618a1.368 1.368 0 0 0-.135-.403 1.705 1.705 0 0 0-.669-.712c-.207-.119-.381-.169-.523-.15-.142.017-.213.109-.213.275 0 .132.046.271.138.416.092.144.249.308.472.493l.87.704c.468.381.816.76 1.045 1.139.23.378.345.767.345 1.167 0 .363-.093.629-.279.796-.183.169-.436.238-.757.206-.319-.032-.688-.169-1.105-.41-.636-.367-1.143-.813-1.521-1.337-.375-.525-.595-1.071-.66-1.638l1.311.677c.04.247.136.473.288.679.153.204.348.374.585.512.234.135.422.191.564.17.144-.023.217-.117.219-.282a.783.783 0 0 0-.154-.432 2.28 2.28 0 0 0-.463-.477l-.832-.672c-.469-.38-.819-.769-1.048-1.169a2.429 2.429 0 0 1-.341-1.219c0-.357.083-.616.25-.777.169-.161.406-.223.71-.186.307.037.666.174 1.077.411.607.351 1.084.775 1.433 1.272.35.499.555 1.021.613 1.565Z"/><path stroke="#fff" stroke-linecap="round" stroke-linejoin="round" stroke-width="1.272" d="m601.936 193.421 1.55.895c.823.475 1.617.505 2.207.084.591-.421.93-1.259.942-2.33l.008-.672-1.55-.896c-.823-.474-1.617-.505-2.207-.083-.591.421-.93 1.259-.942 2.329l-1.551-.895c-.823-.475-1.606-1.356-2.179-2.448-.573-1.093-.887-2.308-.875-3.379l.016-1.345 1.551.895c.823.475 1.606 1.355 2.179 2.448.573 1.093.887 2.308.874 3.379l-.047 4.036m-2.585-1.492 5.169 2.984-.032 2.691c-.004.357-.117.636-.314.777-.197.14-.461.13-.736-.028l-3.101-1.791c-.274-.158-.535-.452-.726-.816a2.444 2.444 0 0 1-.292-1.126l.032-2.691Z"/></g><path fill="url(#k)" stroke="#363636" stroke-width=".636" d="M161.628 298.036c2.433-1.405 6.378-1.405 8.812 0l23.458 13.544c2.433 1.405 2.433 3.682 0 5.087l-15.391 8.886c-2.433 1.405-6.378 1.405-8.812 0l-23.458-13.544c-2.433-1.404-2.433-3.682 0-5.087l15.391-8.886Z"/><path fill="url(#l)" d="m145.058 311.329 25.816 14.905v5.589l-25.816-14.905v-5.589Z"/><path fill="url(#m)" d="M143.722 309.466c0 .727.51 1.386 1.336 1.863v5.589c-.826-.477-1.336-1.135-1.336-1.863v-5.589Z"/><path fill="url(#n)" d="M170.874 326.234c1.783 1.029 4.672 1.029 6.455 0v5.589c-1.783 1.029-4.672 1.029-6.455 0v-5.589Z"/><path fill="#363636" d="M196.414 314.124c0 .727-.511 1.386-1.337 1.863v5.589c.826-.477 1.337-1.135 1.337-1.863v-5.589Z"/><path fill="url(#o)" d="m176.996 326.43 18.165-10.487v5.601l-18.165 10.488v-5.602Z"/><path stroke="#363636" stroke-width=".636" d="m145.058 311.329 25.816 14.905m-25.816-14.905v5.589m0-5.589c-.826-.477-1.336-1.136-1.336-1.863v5.589c0 .728.51 1.386 1.336 1.863m25.816 9.316v5.589m0-5.589c1.783 1.029 4.672 1.029 6.455 0v5.589c-1.783 1.029-4.672 1.029-6.455 0m0 0-25.816-14.905m51.356-2.794c0 .727-.511 1.386-1.337 1.863v5.589c.826-.477 1.337-1.135 1.337-1.863v-5.589Zm-19.418 12.306 18.165-10.487v5.601l-18.165 10.488v-5.602Z"/><path fill="url(#p)" d="M166.825 307.138c2.227-1.287 5.839-1.287 8.067 0l12.102 6.986c2.227 1.286 2.227 3.372 0 4.658-2.228 1.286-5.84 1.286-8.068 0l-12.101-6.987c-2.228-1.286-2.228-3.371 0-4.657Z"/><path fill="url(#q)" d="m166.018 311.33 13.715 7.918v1.863l-13.715-7.918v-1.863Z"/><path fill="url(#r)" d="m186.186 319.248 1.614-.932v1.863l-1.614.932v-1.863Z"/><path fill="url(#s)" d="M164.681 309.466c0 .728.511 1.387 1.337 1.864v1.863c-.826-.477-1.337-1.136-1.337-1.863v-1.864Z"/><path fill="url(#t)" d="M179.733 319.248c1.782 1.029 4.671 1.029 6.453 0v1.863c-1.782 1.029-4.671 1.029-6.453 0v-1.863Z"/><path fill="url(#u)" d="M189.137 316.453c0 .728-.511 1.386-1.337 1.863v1.863c.826-.476 1.337-1.135 1.337-1.863v-1.863Z"/><path stroke="#363636" stroke-width=".636" d="m166.018 311.33 13.715 7.918m-13.715-7.918v1.863m0-1.863c-.826-.477-1.337-1.136-1.337-1.864v1.864c0 .727.511 1.386 1.337 1.863m13.715 6.055v1.863m0-1.863c1.782 1.029 4.671 1.029 6.453 0m-6.453 1.863-13.715-7.918m13.715 7.918c1.782 1.029 4.671 1.029 6.453 0m0-1.863 1.614-.932m-1.614.932v1.863m1.614-2.795v1.863m0-1.863c.826-.477 1.337-1.135 1.337-1.863v1.863c0 .728-.511 1.387-1.337 1.863m0 0-1.614.932m-19.361-9.316 12.101 6.987c2.228 1.286 5.84 1.286 8.068 0 2.227-1.286 2.227-3.372 0-4.658l-12.102-6.986c-2.228-1.287-5.84-1.287-8.067 0-2.228 1.286-2.228 3.371 0 4.657Z"/><circle cx="3.726" cy="3.726" r="3.726" fill="url(#v)" stroke="#363636" stroke-width=".636" transform="matrix(.86603 .5 -.86603 .5 170.642 304.343)"/><path fill="url(#w)" stroke="#363636" stroke-width=".636" d="M166.079 308.069c0 .728.511 1.387 1.337 1.863v.932c-.826-.477-1.337-1.136-1.337-1.863v-.932Z"/><path fill="url(#x)" stroke="#363636" stroke-width=".636" d="M167.416 309.932c1.782 1.029 4.671 1.029 6.454 0v.931c-1.783 1.029-4.672 1.029-6.454 0v-.931Z"/><path fill="url(#y)" stroke="#363636" stroke-width=".636" d="M175.207 308.069c0 .728-.511 1.387-1.337 1.863v.932c.826-.477 1.337-1.136 1.337-1.863v-.932Z"/><g clip-path="url(#z)"><path fill="url(#A)" stroke="#363636" stroke-width=".636" d="M478.325 258.608c2.433-1.405 6.378-1.405 8.812 0l23.458 13.544c2.433 1.405 2.433 3.683 0 5.088l-15.391 8.885c-2.433 1.405-6.378 1.405-8.812 0l-23.458-13.543c-2.433-1.405-2.433-3.683 0-5.088l15.391-8.886Z"/><path fill="url(#B)" d="m461.755 271.901 25.816 14.905v5.59l-25.816-14.905v-5.59Z"/><path fill="url(#C)" d="M460.419 270.038c0 .728.51 1.386 1.336 1.863v5.59c-.826-.477-1.336-1.136-1.336-1.864v-5.589Z"/><path fill="url(#D)" d="M487.571 286.806c1.783 1.029 4.672 1.029 6.454 0v5.59c-1.782 1.029-4.671 1.029-6.454 0v-5.59Z"/><path fill="#363636" d="M513.11 274.696c0 .727-.51 1.386-1.336 1.863v5.589c.826-.476 1.336-1.135 1.336-1.863v-5.589Z"/><path fill="url(#E)" d="m493.693 287.003 18.165-10.488v5.601l-18.165 10.488v-5.601Z"/><path stroke="#363636" stroke-width=".636" d="m461.755 271.901 25.816 14.905m-25.816-14.905v5.59m0-5.59c-.826-.477-1.336-1.135-1.336-1.863v5.589c0 .728.51 1.387 1.336 1.864m25.816 9.315v5.59m0-5.59c1.783 1.029 4.672 1.029 6.454 0v5.59c-1.782 1.029-4.671 1.029-6.454 0m0 0-25.816-14.905m51.355-2.795c0 .727-.51 1.386-1.336 1.863v5.589c.826-.476 1.336-1.135 1.336-1.863v-5.589Zm-19.417 12.307 18.165-10.488v5.601l-18.165 10.488v-5.601Z"/><path fill="url(#F)" d="M483.521 267.71c2.228-1.286 5.84-1.286 8.068 0l12.101 6.986c2.228 1.287 2.228 3.372 0 4.658-2.227 1.287-5.839 1.287-8.067 0l-12.102-6.986c-2.227-1.287-2.227-3.372 0-4.658Z"/><path fill="url(#G)" d="m482.715 271.902 13.714 7.918v1.863l-13.714-7.918v-1.863Z"/><path fill="url(#H)" d="m502.883 279.82 1.614-.931v1.863l-1.614.931v-1.863Z"/><path fill="url(#I)" d="M481.378 270.039c0 .727.511 1.386 1.337 1.863v1.863c-.826-.477-1.337-1.136-1.337-1.863v-1.863Z"/><path fill="url(#J)" d="M496.429 279.82c1.783 1.029 4.672 1.029 6.454 0v1.863c-1.782 1.029-4.671 1.029-6.454 0v-1.863Z"/><path fill="url(#K)" d="M505.834 277.025c0 .728-.511 1.387-1.337 1.864v1.863c.826-.477 1.337-1.136 1.337-1.863v-1.864Z"/><path stroke="#363636" stroke-width=".636" d="m482.715 271.902 13.714 7.918m-13.714-7.918v1.863m0-1.863c-.826-.477-1.337-1.136-1.337-1.863v1.863c0 .727.511 1.386 1.337 1.863m13.714 6.055v1.863m0-1.863c1.783 1.029 4.672 1.029 6.454 0m-6.454 1.863-13.714-7.918m13.714 7.918c1.783 1.029 4.672 1.029 6.454 0m0-1.863 1.614-.931m-1.614.931v1.863m1.614-2.794v1.863m0-1.863c.826-.477 1.337-1.136 1.337-1.864v1.864c0 .727-.511 1.386-1.337 1.863m0 0-1.614.931m-19.362-9.315 12.102 6.986c2.228 1.287 5.84 1.287 8.067 0 2.228-1.286 2.228-3.371 0-4.658l-12.101-6.986c-2.228-1.286-5.84-1.286-8.068 0-2.227 1.286-2.227 3.371 0 4.658Z"/><circle cx="3.726" cy="3.726" r="3.726" fill="url(#L)" stroke="#363636" stroke-width=".636" transform="matrix(.86603 .5 -.86603 .5 487.339 264.916)"/><path fill="url(#M)" stroke="#363636" stroke-width=".636" d="M482.776 268.642c0 .727.511 1.386 1.337 1.863v.931c-.826-.477-1.337-1.135-1.337-1.863v-.931Z"/><path fill="url(#N)" stroke="#363636" stroke-width=".636" d="M484.113 270.505c1.782 1.029 4.671 1.029 6.454 0v.931c-1.783 1.029-4.672 1.029-6.454 0v-.931Z"/><path fill="url(#O)" stroke="#363636" stroke-width=".636" d="M491.904 268.642c0 .727-.511 1.386-1.337 1.863v.931c.826-.477 1.337-1.135 1.337-1.863v-.931Z"/></g><path fill="url(#P)" d="M590.786 257.592h-.173c0 .679-.79 1.359-2.37 1.877-3.161 1.036-8.286 1.036-11.447 0-1.581-.518-2.372-1.198-2.372-1.877h-.172l-44.516-67.522h105.565l-44.515 67.522Z"/><path stroke="#fff" stroke-width=".636" d="M382.877 304.222c3.346-1.932 8.77-1.932 12.116 0l46.787 27.012c3.346 1.932 3.346 5.064 0 6.996l-46.787 27.012c-3.346 1.932-8.77 1.932-12.116 0L336.09 338.23c-3.346-1.932-3.346-5.064 0-6.996l46.787-27.012Z"/><path stroke="#fff" stroke-width=".636" d="M382.877 302.247c3.346-1.932 8.77-1.932 12.116 0l60.122 34.711c3.346 1.932 3.346 5.064 0 6.996l-60.122 34.711c-3.346 1.932-8.77 1.932-12.116 0l-60.122-34.711c-3.346-1.932-3.346-5.064 0-6.996l60.122-34.711Z"/><path stroke="#fff" stroke-width=".636" d="M382.877 299.134c3.346-1.931 8.77-1.931 12.116 0l46.787 27.013c3.346 1.932 3.346 5.063 0 6.995l-46.787 27.013c-3.346 1.931-8.77 1.931-12.116 0l-46.787-27.013c-3.346-1.932-3.346-5.063 0-6.995l46.787-27.013Z"/><mask id="Q" width="89" height="52" x="345" y="306" maskUnits="userSpaceOnUse" style="mask-type:alpha"><path fill="#D9D9D9" d="m389.353 306.447 44.059 25.438-44.059 25.437-44.059-25.438z"/></mask><g mask="url(#Q)"><path fill="url(#R)" d="m389.352 306.447 44.059 25.438v25.437l-44.059-25.437v-25.438Z"/><path fill="url(#S)" d="m345.293 331.885 44.059-25.438v25.438l-44.059 25.437v-25.437Z"/><path fill="#363636" d="m389.352 331.885 44.059 25.437-44.059 25.438-44.059-25.438 44.059-25.437Z"/></g><circle cx="25.438" cy="25.438" r="25.438" fill="url(#T)" stroke="url(#U)" stroke-width=".636" transform="matrix(.86603 .5 -.86603 .5 391.277 264.476)"/><circle cx="12.719" cy="12.719" r="12.719" fill="url(#V)" stroke="url(#W)" stroke-width=".636" transform="matrix(.86603 .5 -.86603 .5 390.853 274.65)"/><path fill="url(#X)" stroke="url(#Y)" stroke-width=".636" d="M360.124 289.913c0 4.967 3.487 9.464 9.125 12.719v15.262c-5.638-3.255-9.125-7.751-9.125-12.718v-15.263Z"/><path fill="url(#Z)" stroke="url(#aa)" stroke-width=".636" d="M369.248 302.632c12.167 7.024 31.893 7.024 44.059 0v15.262c-12.166 7.025-31.892 7.025-44.059 0v-15.262Z"/><path fill="#363636" stroke="url(#ab)" stroke-width=".636" d="M422.433 289.913c0 4.967-3.487 9.464-9.125 12.719v15.262c5.638-3.255 9.125-7.751 9.125-12.718v-15.263Z"/><path stroke="#fff" stroke-width=".636" d="M427.208 309.513c-19.966 11.527-52.337 11.527-72.303 0-19.966-11.527-19.966-30.216 0-41.744 19.966-11.527 52.337-11.527 72.303 0 19.965 11.528 19.965 30.217 0 41.744Z"/><path stroke="#fff" stroke-width=".636" d="M417.205 303.738c-14.442 8.338-37.856 8.338-52.297 0-14.442-8.338-14.442-21.856 0-30.194 14.441-8.337 37.855-8.337 52.297 0 14.441 8.338 14.441 21.856 0 30.194Z"/><path stroke="#363636" stroke-dasharray="6.36 6.36" stroke-linecap="round" stroke-width="3.18" d="M390.763 128.703v156.441"/><path fill="url(#ac)" d="M421.022 137.524c0 24.455-17.168 34.367-38.346 22.14-21.178-12.227-38.347-41.964-38.347-66.418 0-24.455 17.169-34.367 38.347-22.14 21.178 12.228 38.346 41.964 38.346 66.418Z"/><path fill="url(#ad)" d="M415.445 134.316c0 20.902-14.674 29.374-32.776 18.923-18.101-10.451-32.775-35.867-32.775-56.769 0-20.901 14.674-29.373 32.775-18.923 18.102 10.451 32.776 35.867 32.776 56.769Z"/><path fill="url(#ae)" d="M355.56 68.42c7.488-4.323 17.302-2.98 27.115 2.686l14.38-8.303c-9.813-5.666-19.627-7.009-27.115-2.686l-14.38 8.303Z"/><path fill="url(#af)" d="M421.022 137.524c0-24.455-17.169-54.191-38.347-66.418l14.38-8.303c21.178 12.228 38.346 41.964 38.346 66.419l-14.379 8.302Z"/><path fill="#363636" d="M409.79 162.349c7.487-4.323 11.232-13.493 11.232-24.825l14.379-8.302c.001 11.332-3.744 20.502-11.231 24.825l-14.38 8.302Z"/><path stroke="#363636" stroke-width=".636" d="M382.675 71.106c-9.813-5.666-19.627-7.01-27.115-2.686l14.38-8.303c7.488-4.323 17.302-2.98 27.115 2.686m-14.38 8.303 14.38-8.303m-14.38 8.303c21.178 12.227 38.347 41.963 38.347 66.418m-23.967-74.72c21.178 12.227 38.346 41.963 38.346 66.418m-14.379 8.302 14.379-8.302m-14.379 8.302c0 11.332-3.745 20.502-11.232 24.825l14.38-8.302c7.487-4.323 11.232-13.493 11.231-24.825m-14.379 8.302c0 24.455-17.168 34.367-38.346 22.14-21.178-12.227-38.347-41.964-38.347-66.418 0-24.455 17.169-34.367 38.347-22.14 21.178 12.228 38.346 41.964 38.346 66.418Zm-5.577-3.208c0 20.902-14.674 29.374-32.776 18.923-18.101-10.451-32.775-35.867-32.775-56.769 0-20.901 14.674-29.373 32.775-18.923 18.102 10.451 32.776 35.867 32.776 56.769Z"/><path fill="url(#ag)" d="M399.348 285.028h-.173c0 1.307-.79 2.614-2.37 3.611-3.161 1.994-8.286 1.994-11.447 0-1.581-.997-2.371-2.304-2.371-3.611h-.173l-44.516-129.934h105.566l-44.516 129.934Z"/><path fill="url(#ah)" d="M396.958 284.142h-.123a5.764 5.764 0 0 1-1.685 4.081 5.743 5.743 0 0 1-8.137 0 5.761 5.761 0 0 1-1.686-4.081h-.123l-31.643-146.854h75.041l-31.644 146.854Z"/><path stroke="#fff" stroke-width="1.908" d="M245.929 375.519c2.434-1.404 6.379-1.404 8.812 0l66.641 38.475c2.433 1.405 2.433 3.683 0 5.088l-66.641 38.475c-2.433 1.405-6.378 1.405-8.812 0l-66.64-38.475c-2.434-1.405-2.434-3.683 0-5.088l66.64-38.475Z"/><path fill="url(#ai)" stroke="#363636" stroke-width=".636" d="M245.957 368.205c2.433-1.405 6.378-1.405 8.812 0l35.247 20.35c2.433 1.405 2.433 3.683 0 5.088l-35.247 20.35c-2.434 1.404-6.379 1.404-8.812 0l-35.247-20.35c-2.434-1.405-2.434-3.683 0-5.088l35.247-20.35Z"/><path fill="url(#aj)" stroke="#363636" stroke-width=".636" d="M245.954 361.846c2.433-1.405 6.378-1.405 8.812 0l35.247 20.35c2.433 1.405 2.433 3.682 0 5.087l-35.247 20.35c-2.434 1.405-6.379 1.405-8.812 0l-35.247-20.35c-2.434-1.405-2.434-3.682 0-5.087l35.247-20.35Z"/><path fill="url(#ak)" stroke="#363636" stroke-width=".636" d="M245.952 355.486c2.433-1.405 6.378-1.405 8.812 0l35.247 20.35c2.433 1.405 2.433 3.683 0 5.088l-35.247 20.35c-2.434 1.405-6.379 1.405-8.812 0l-35.247-20.35c-2.434-1.405-2.434-3.683 0-5.088l35.247-20.35Z"/><path stroke="#fff" stroke-width="1.908" d="M245.95 339.423c2.433-1.405 6.378-1.405 8.812 0l52.059 30.056c2.433 1.405 2.433 3.683 0 5.088l-52.059 30.056c-2.434 1.405-6.379 1.405-8.812 0l-52.06-30.056c-2.433-1.405-2.433-3.683 0-5.088l52.06-30.056Z"/><path fill="url(#al)" stroke="#363636" stroke-width=".636" d="m210.71 393.643 35.247 20.35v25.437l-35.247-20.35v-25.437Z"/><path fill="url(#am)" stroke="#363636" stroke-width=".636" d="m254.769 413.993 35.247-20.35v25.437l-35.247 20.35v-25.437Z"/><path fill="url(#an)" stroke="#363636" stroke-width=".636" d="M208.885 391.099c0 .993.697 1.892 1.825 2.543v25.438c-1.128-.651-1.825-1.55-1.825-2.544v-25.437Z"/><path fill="url(#ao)" stroke="#363636" stroke-width=".636" d="M245.957 413.993c2.433 1.405 6.378 1.405 8.812 0v25.438c-2.434 1.405-6.379 1.405-8.812 0v-25.438Z"/><path fill="#363636" stroke="#363636" stroke-width=".636" d="M291.841 391.099c0 .993-.698 1.892-1.825 2.543v25.438c1.127-.651 1.825-1.55 1.825-2.544v-25.437Z"/><path stroke="#363636" stroke-width="1.272" d="M249.52 372.023v-79.492"/><path fill="url(#ap)" d="M206.276 265.822c0-5.619 3.945-7.897 8.812-5.087l55.509 32.048c4.867 2.81 8.812 9.643 8.812 15.262 0 5.62-3.945 7.898-8.812 5.088l-55.509-32.048c-4.867-2.81-8.812-9.643-8.812-15.263Z"/><path fill="url(#aq)" d="m219.494 258.191 55.972 32.315-4.405 2.544-55.973-32.315 4.406-2.544Z"/><path fill="url(#ar)" d="M208.856 260.118c1.72-.993 3.976-.685 6.231.617l4.406-2.544c-2.256-1.302-4.511-1.61-6.231-.617l-4.406 2.544Z"/><path fill="url(#as)" d="M279.767 308.43c0-5.62-3.945-12.453-8.812-15.263l4.406-2.543c4.867 2.809 8.812 9.643 8.812 15.262l-4.406 2.544Z"/><path fill="#F6F8FA" d="M277.187 314.135c1.72-.994 2.58-3.101 2.58-5.705l4.406-2.544c0 2.604-.86 4.711-2.58 5.705l-4.406 2.544Z"/><path stroke="#F6F8FA" stroke-width=".636" d="m215.088 260.735 55.509 32.048c4.867 2.81 8.812 9.643 8.812 15.262 0 5.62-3.945 7.898-8.812 5.088l-55.509-32.048c-4.867-2.81-8.812-9.643-8.812-15.263 0-5.619 3.945-7.897 8.812-5.087Zm0 0 55.973 32.315 4.405-2.544-55.972-32.315-4.406 2.544Zm64.679 47.695c0-5.62-3.945-12.453-8.812-15.263l4.406-2.543c4.867 2.809 8.812 9.643 8.812 15.262m-4.406 2.544 4.406-2.544m-4.406 2.544c0 2.604-.86 4.711-2.58 5.705l4.406-2.544c1.72-.994 2.58-3.101 2.58-5.705m-75.317-45.768c1.72-.993 3.976-.685 6.231.617l4.406-2.544c-2.256-1.302-4.511-1.61-6.231-.617l-4.406 2.544Z"/><path fill="url(#at)" d="M215.429 270.909c0 2.107-1.48 2.962-3.305 1.908-1.825-1.054-3.304-3.616-3.304-5.724 0-2.107 1.479-2.961 3.304-1.907 1.825 1.053 3.305 3.616 3.305 5.723Z"/><path fill="url(#au)" d="M215.429 270.909c0 2.107-1.48 2.962-3.305 1.908-1.825-1.054-3.304-3.616-3.304-5.724 0-2.107 1.479-2.961 3.304-1.907 1.825 1.053 3.305 3.616 3.305 5.723Z"/><path fill="#F6F8FA" d="m221.281 277.959-1.452-.838 2.212-6.123 1.746 1.008 2.21 8.676-1.452-.839-1.606-6.635-.05-.029-1.608 4.78Zm-.091-2.961 3.43 1.98v1.221l-3.43-1.98v-1.221ZM229.728 280.473v-3.187l1.333.77v5.55l-1.28-.739v-1.008l-.05-.029c-.108.262-.289.42-.541.471-.25.053-.556-.024-.917-.233a2.965 2.965 0 0 1-.848-.742 3.628 3.628 0 0 1-.572-1.05 3.771 3.771 0 0 1-.207-1.236v-3.533l1.333.769v3.259c.002.329.078.632.228.909.151.277.352.489.604.634a.86.86 0 0 0 .451.134.422.422 0 0 0 .338-.188c.088-.118.13-.302.128-.551ZM233.802 285.278a3.39 3.39 0 0 1-.992-.898 4.687 4.687 0 0 1-.701-1.369 5.513 5.513 0 0 1-.257-1.716c0-.636.089-1.114.266-1.433.178-.322.413-.502.707-.542.297-.041.621.04.974.244.269.155.493.338.672.547.182.209.328.423.438.643.113.22.199.421.257.604l.041.023v-2.782l1.33.768v7.4l-1.315-.759v-.889l-.056-.032a.908.908 0 0 1-.266.305.681.681 0 0 1-.441.118c-.18-.005-.399-.082-.657-.232Zm.422-.981c.215.124.397.162.545.112.15-.05.265-.176.344-.376.081-.198.122-.463.122-.793s-.04-.639-.119-.928a2.524 2.524 0 0 0-.344-.763 1.689 1.689 0 0 0-.548-.515c-.219-.126-.403-.164-.554-.113-.15.05-.264.175-.341.374-.077.198-.116.458-.116.778 0 .323.039.631.116.923.08.292.193.55.341.776.151.224.335.399.554.525ZM237.536 287.344v-5.55l1.333.769v5.55l-1.333-.769Zm.669-5.879a1.46 1.46 0 0 1-.51-.522c-.139-.235-.209-.46-.209-.674 0-.212.07-.354.209-.425.142-.072.312-.051.51.064.199.114.368.289.507.524.142.233.213.456.213.668 0 .214-.071.358-.213.43-.139.071-.308.049-.507-.065ZM242.03 290.047a4.61 4.61 0 0 1-1.277-1.084 4.998 4.998 0 0 1-1.107-3.151c0-.571.096-1.016.288-1.337.191-.32.462-.5.81-.54.35-.038.761.078 1.233.351a4.533 4.533 0 0 1 1.605 1.627c.207.353.367.74.482 1.16.115.418.172.863.172 1.335v.423l-4.058-2.343v-.954l2.803 1.619a1.83 1.83 0 0 0-.125-.661 2.152 2.152 0 0 0-.347-.602 1.804 1.804 0 0 0-.51-.443c-.203-.117-.382-.166-.538-.148a.478.478 0 0 0-.363.221c-.088.127-.133.3-.135.518v.907c0 .275.044.537.131.788.09.251.216.478.379.681.163.202.356.368.579.497.148.085.284.139.407.162a.477.477 0 0 0 .316-.034.444.444 0 0 0 .2-.239l1.233.806c-.063.306-.191.531-.385.674-.192.142-.44.196-.745.163-.302-.035-.652-.167-1.048-.396ZM246.342 289.22v3.208l-1.333-.769v-5.55l1.271.733v.979l.056.033c.106-.262.285-.414.535-.457.25-.046.554.034.911.24.333.193.624.445.873.757a3.692 3.692 0 0 1 .785 2.289v3.534l-1.333-.77v-3.259a1.874 1.874 0 0 0-.225-.925 1.639 1.639 0 0 0-.629-.652c-.18-.104-.338-.151-.476-.141a.397.397 0 0 0-.319.206c-.075.125-.114.306-.116.544ZM252.565 296.13a4.49 4.49 0 0 1-1.27-1.095 5.101 5.101 0 0 1-.814-1.482 5.007 5.007 0 0 1-.281-1.651c0-.568.095-1.012.285-1.331.191-.321.464-.5.816-.537.353-.04.772.081 1.258.361a4.448 4.448 0 0 1 1.85 2.073c.183.423.284.855.303 1.295l-1.258-.726a2.087 2.087 0 0 0-.281-.831 1.61 1.61 0 0 0-.592-.598c-.206-.12-.387-.159-.541-.118-.153.04-.271.158-.357.354-.085.197-.128.469-.128.819 0 .354.041.679.125.975.085.298.205.556.36.775.154.219.335.389.541.508a.8.8 0 0 0 .41.128.389.389 0 0 0 .304-.139c.081-.093.134-.229.159-.41l1.258.726c-.021.412-.121.728-.3.947-.178.218-.423.327-.736.327s-.683-.124-1.111-.37ZM257.659 299.07a4.594 4.594 0 0 1-1.277-1.084 4.997 4.997 0 0 1-1.107-3.15c0-.571.096-1.017.288-1.337.191-.321.462-.501.81-.54.35-.039.761.078 1.233.35a4.513 4.513 0 0 1 1.605 1.628c.207.353.367.739.482 1.16.115.418.172.863.172 1.335v.423l-4.058-2.344v-.954l2.803 1.619c0-.221-.041-.442-.125-.661a2.166 2.166 0 0 0-.347-.602 1.8 1.8 0 0 0-.51-.442c-.203-.117-.382-.167-.538-.148a.477.477 0 0 0-.363.22c-.088.128-.133.3-.135.518v.907a2.314 2.314 0 0 0 .51 1.469c.163.203.356.368.579.497.148.086.284.14.407.163a.483.483 0 0 0 .316-.035.441.441 0 0 0 .2-.238l1.233.806c-.063.305-.191.53-.385.673-.192.143-.44.197-.745.163-.302-.035-.652-.167-1.048-.396ZM269.369 306.045c2.203 1.272 4.109.96 5.089-.56-.98-2.652-2.886-5.164-5.089-6.435-2.202-1.272-4.108-.961-5.088.559.98 2.652 2.886 5.164 5.088 6.436Zm0-7.631c2.512 1.45 4.682 4.388 5.706 7.427-1.024 1.857-3.194 2.29-5.706.84-2.511-1.45-4.681-4.388-5.705-7.428 1.024-1.857 3.194-2.289 5.705-.839Zm0 1.272c1.377.794 2.479 2.702 2.479 4.292 0 1.59-1.102 2.226-2.479 1.431-1.376-.795-2.478-2.703-2.478-4.293 0-1.589 1.102-2.225 2.478-1.43Zm0 .635c-.511-.295-1.001-.343-1.363-.135-.361.209-.564.658-.564 1.248 0 .591.203 1.274.564 1.9.362.626.852 1.144 1.363 1.439.512.295 1.002.344 1.363.135.362-.209.565-.658.565-1.248s-.203-1.274-.565-1.9c-.361-.626-.851-1.143-1.363-1.439Z"/><path fill="url(#av)" d="M255.397 377.61h-.123c0 .523-.563 1.046-1.686 1.445-2.247.798-5.889.798-8.136 0-1.123-.399-1.686-.922-1.686-1.445h-.123L212 325.6h75.041l-31.644 52.01Z"/><g clip-path="url(#aw)"><path fill="url(#ax)" stroke="#363636" stroke-width=".636" d="M259.444 225.122c2.434-1.405 6.379-1.405 8.812 0l41.157 23.762c2.433 1.405 2.433 3.682 0 5.087l-19.742 11.398c-2.433 1.405-6.378 1.405-8.811 0l-41.157-23.762c-2.434-1.405-2.434-3.682 0-5.087l19.741-11.398Z"/><path fill="url(#ay)" stroke="#363636" stroke-width=".636" d="m238.152 240.712 44.258 25.552v9.891l-44.258-25.552v-9.891Z"/><path fill="url(#az)" stroke="#363636" stroke-width=".636" d="m288.121 266.264 22.843-13.188v9.891l-22.843 13.189v-9.892Z"/><path fill="url(#aA)" stroke="#363636" stroke-width=".636" d="M236.97 239.063c0 .644.452 1.227 1.183 1.649v9.891c-.731-.422-1.183-1.005-1.183-1.648v-9.892Z"/><path fill="url(#aB)" stroke="#363636" stroke-width=".636" d="M282.41 266.264c1.577.91 4.134.91 5.711 0v9.891c-1.577.91-4.134.91-5.711 0v-9.891Z"/><path fill="#363636" stroke="#363636" stroke-width=".636" d="M312.147 251.427c0 .644-.452 1.226-1.183 1.648v9.892c.731-.422 1.183-1.005 1.183-1.649v-9.891Z"/><path fill="url(#aC)" d="M265.085 227.609c-1.007.581-2.64.581-3.647 0-1.008-.582-1.008-1.525 0-2.106 1.007-.582 2.64-.582 3.647 0 1.008.581 1.008 1.524 0 2.106Z"/><path fill="url(#aD)" d="M260.683 226.555c0 .412.288.784.755 1.054v.526c-.467-.27-.755-.642-.755-1.053v-.527Z"/><path fill="url(#aE)" d="M261.438 227.609c1.007.581 2.64.581 3.647 0v.526c-1.007.582-2.64.582-3.647 0v-.526Z"/><path fill="url(#aF)" d="M265.841 226.555c0 .412-.289.784-.756 1.054l.001.526c.466-.27.755-.642.755-1.053v-.527Z"/><path stroke="#363636" stroke-width=".636" d="M265.085 227.609c-1.007.581-2.64.581-3.647 0m3.647 0c1.008-.582 1.008-1.525 0-2.106-1.007-.582-2.64-.582-3.647 0-1.008.581-1.008 1.524 0 2.106m3.647 0v.526c-1.007.582-2.64.582-3.647 0v-.526m3.647 0c.467-.27.756-.642.756-1.054v.527c0 .411-.289.783-.755 1.053l-.001-.526Zm-3.647 0c-.467-.27-.755-.642-.755-1.054v.527c0 .411.288.783.755 1.053v-.526Z"/><path fill="url(#aG)" d="M270.856 230.493c-1.008.582-2.641.582-3.648 0-1.008-.581-1.008-1.524 0-2.106 1.007-.581 2.64-.581 3.648 0 1.007.582 1.007 1.525 0 2.106Z"/><path fill="url(#aH)" d="M266.453 229.44c0 .411.288.784.755 1.053v.527c-.467-.27-.755-.642-.755-1.053v-.527Z"/><path fill="url(#aI)" d="M267.208 230.493c1.007.582 2.64.582 3.648 0l-.001.527c-1.007.582-2.64.582-3.647 0v-.527Z"/><path fill="url(#aJ)" d="M271.611 229.44c0 .411-.289.784-.755 1.053v.527c.466-.27.755-.642.755-1.053v-.527Z"/><path stroke="#363636" stroke-width=".636" d="M270.856 230.493c-1.008.582-2.641.582-3.648 0m3.648 0c1.007-.581 1.007-1.524 0-2.106-1.008-.581-2.641-.581-3.648 0-1.008.582-1.008 1.525 0 2.106m3.648 0-.001.527c-1.007.582-2.64.582-3.647 0v-.527m3.648 0c.466-.269.755-.642.755-1.053v.527c0 .411-.289.783-.755 1.053v-.527Zm-3.648 0c-.467-.269-.755-.642-.755-1.053v.527c0 .411.288.783.755 1.053v-.527Z"/><path fill="url(#aK)" d="M276.624 233.791c-1.007.582-2.64.582-3.648 0-1.007-.581-1.007-1.524 0-2.106 1.008-.581 2.641-.581 3.648 0 1.008.582 1.008 1.525 0 2.106Z"/><path fill="url(#aL)" d="M272.221 232.738c0 .411.289.784.755 1.053l.001.526c-.467-.269-.756-.641-.756-1.053v-.526Z"/><path fill="url(#aM)" d="M272.976 233.791c1.008.582 2.641.582 3.648 0v.527c-1.007.582-2.64.582-3.648 0v-.527Z"/><path fill="url(#aN)" d="M277.38 232.738c0 .411-.289.784-.756 1.053v.526c.467-.269.756-.641.756-1.053v-.526Z"/><path stroke="#363636" stroke-width=".636" d="M276.624 233.791c-1.007.582-2.64.582-3.648 0m3.648 0c1.008-.581 1.008-1.524 0-2.106-1.007-.581-2.64-.581-3.648 0-1.007.582-1.007 1.525 0 2.106m3.648 0v.527c-1.007.582-2.64.582-3.648 0v-.527m3.648 0c.467-.269.756-.642.756-1.053v.526c0 .412-.289.784-.756 1.053v-.526Zm-3.648 0c-.466-.269-.755-.642-.755-1.053v.526c0 .412.289.784.756 1.053l-.001-.526Z"/><path fill="url(#aO)" d="M278.3 234.389c1.444-.834 3.785-.834 5.228 0l25.275 14.592c1.444.834 1.444 2.185 0 3.019-1.444.833-3.785.833-5.229 0L278.3 237.407c-1.444-.833-1.444-2.185 0-3.018Z"/><path fill="url(#aP)" d="m277.798 237.106 26.325 15.198v1.208l-26.325-15.199v-1.207Z"/><path fill="url(#aQ)" d="m308.306 252.412 1.045-.603v1.207l-1.045.604v-1.208Z"/><path fill="url(#aR)" d="M276.932 235.898c0 .472.331.899.866 1.208v1.207c-.535-.309-.866-.736-.866-1.207v-1.208Z"/><path fill="url(#aS)" d="M304.123 252.412c1.155.667 3.028.667 4.183 0v1.208c-1.155.667-3.028.667-4.183 0v-1.208Z"/><path fill="url(#aT)" d="M310.218 250.601c0 .472-.331.899-.867 1.208v1.207c.536-.309.867-.736.867-1.207v-1.208Z"/><path stroke="#363636" stroke-width=".636" d="m277.798 237.106 26.325 15.198v1.208l-26.325-15.199m0-1.207v1.207m0-1.207c-.535-.309-.866-.736-.866-1.208v1.208c0 .471.331.898.866 1.207m30.508 14.099 1.045-.603m-1.045.603v1.208m0-1.208c-1.155.667-3.028.667-4.183 0v1.208c1.155.667 3.028.667 4.183 0m1.045-1.811v1.207m0-1.207c.536-.309.867-.736.867-1.208v1.208c0 .471-.331.898-.867 1.207m0 0-1.045.604M278.3 237.407 303.574 252c1.444.833 3.785.833 5.229 0 1.444-.834 1.444-2.185 0-3.019l-25.275-14.592c-1.443-.834-3.784-.834-5.228 0-1.444.833-1.444 2.185 0 3.018Z"/><path fill="url(#aU)" d="M307.947 250.876c-1.008.582-2.641.582-3.648 0-1.007-.581-1.007-1.524 0-2.106 1.007-.581 2.64-.581 3.648 0 1.007.582 1.007 1.525 0 2.106Z"/><path fill="url(#aV)" d="M303.544 249.823c0 .411.288.784.755 1.053v.526c-.467-.269-.755-.641-.755-1.053v-.526Z"/><path fill="url(#aW)" d="M304.299 250.876c1.007.582 2.64.582 3.648 0v.527c-1.008.582-2.641.582-3.648 0v-.527Z"/><path fill="url(#aX)" d="M308.702 249.823c0 .411-.289.784-.755 1.053v.526c.467-.269.755-.641.755-1.053v-.526Z"/><path stroke="#363636" stroke-width=".636" d="M307.947 250.876c-1.008.582-2.641.582-3.648 0m3.648 0c1.007-.581 1.007-1.524 0-2.106-1.008-.581-2.641-.581-3.648 0-1.007.582-1.007 1.525 0 2.106m3.648 0v.527c-1.008.582-2.641.582-3.648 0v-.527m3.648 0c.466-.269.755-.642.755-1.053v.526c0 .412-.288.784-.755 1.053v-.526Zm-3.648 0c-.467-.269-.755-.642-.755-1.053v.526c0 .412.288.784.755 1.053v-.526ZM273.135 248.016v-52.147M229.573 160.892c0-5.62 3.946-7.897 8.812-5.088l65.684 37.923c4.867 2.81 8.812 9.643 8.812 15.263 0 5.619-3.945 7.897-8.812 5.087l-65.684-37.923c-4.866-2.809-8.812-9.643-8.812-15.262Z"/><path fill="url(#aY)" stroke="#363636" stroke-width=".636" d="M0 0h75.35v5.088H0z" transform="matrix(.86603 .5 -.86603 .5 242.792 153.261)"/><path fill="url(#aZ)" stroke="#363636" stroke-width=".636" d="M232.153 155.188c1.721-.993 3.976-.685 6.231.617l4.406-2.543c-2.255-1.302-4.51-1.611-6.231-.618l-4.406 2.544Z"/><path fill="url(#ba)" stroke="#363636" stroke-width=".636" d="M312.79 208.662c0-5.62-3.945-12.453-8.812-15.263l4.406-2.544c4.867 2.81 8.812 9.643 8.812 15.263l-4.406 2.544Z"/><path fill="#363636" stroke="#363636" stroke-width=".636" d="M310.338 215.002c1.72-.993 2.58-3.1 2.58-5.704l4.406-2.544c0 2.604-.86 4.711-2.581 5.705l-4.405 2.543Z"/><g filter="url(#bb)"><circle cx="3.816" cy="3.816" r="3.816" fill="url(#bc)" transform="matrix(.86603 .5 0 1 232.117 158.349)"/></g><circle cx="3.816" cy="3.816" r="3.816" fill="url(#bd)" transform="matrix(.86603 .5 0 1 232.117 158.349)"/><path fill="#363636" d="m245.06 173.124-1.833-8.459 1.48.854 1.06 5.755.054.03 1.17-4.466 1.267.732 1.167 5.826.057.033 1.061-4.54 1.48.854-1.834 6.342-1.321-.763-1.22-5.543-.05-.028-1.217 4.135-1.321-.762Zm9.24 5.443a4.628 4.628 0 0 1-1.277-1.084 4.995 4.995 0 0 1-1.107-3.151c0-.571.096-1.017.287-1.337.192-.321.463-.501.811-.54.35-.039.761.078 1.233.35a4.513 4.513 0 0 1 1.605 1.628c.207.353.367.739.482 1.16.115.418.172.863.172 1.335v.423l-4.058-2.344v-.953l2.803 1.618c0-.221-.041-.442-.125-.661a2.166 2.166 0 0 0-.347-.602 1.8 1.8 0 0 0-.51-.442c-.203-.117-.382-.166-.538-.148a.48.48 0 0 0-.363.22c-.088.128-.133.301-.135.519v.907a2.314 2.314 0 0 0 .51 1.468c.163.203.356.368.579.497.148.086.284.14.407.163a.477.477 0 0 0 .316-.035.441.441 0 0 0 .2-.238l1.233.806c-.063.306-.191.53-.385.674-.192.142-.44.196-.745.162-.302-.035-.652-.167-1.048-.395Zm3.004 1.626v-7.4l1.333.769v2.782l.041.024a.948.948 0 0 1 .253-.309.671.671 0 0 1 .438-.137c.182-.002.407.076.676.231.351.202.674.495.97.878.297.381.533.834.711 1.36.177.524.266 1.104.266 1.74 0 .619-.087 1.092-.26 1.418-.171.326-.405.512-.701.56-.294.047-.624-.035-.989-.245a2.642 2.642 0 0 1-.66-.53 3.167 3.167 0 0 1-.441-.627 3.765 3.765 0 0 1-.263-.61l-.06-.035v.889l-1.314-.758Zm1.305-2.022c0 .33.04.641.119.932.079.292.194.549.344.773.15.222.333.395.548.519.217.125.4.162.55.112.151-.053.264-.18.342-.381.079-.203.118-.465.118-.788 0-.32-.038-.624-.115-.912a2.58 2.58 0 0 0-.341-.768 1.682 1.682 0 0 0-.554-.526c-.217-.125-.401-.165-.551-.119-.148.047-.262.169-.341.367-.079.197-.119.461-.119.791Zm8.308 7.68a4.61 4.61 0 0 1-1.277-1.084 4.975 4.975 0 0 1-1.107-3.151c0-.571.096-1.016.288-1.337.192-.32.462-.5.81-.54.351-.038.761.078 1.233.351.317.183.612.412.886.688.275.275.515.588.719.939.207.353.367.74.482 1.16.115.418.172.863.172 1.335v.423l-4.058-2.343v-.954l2.803 1.619a1.83 1.83 0 0 0-.125-.661 2.152 2.152 0 0 0-.347-.602 1.804 1.804 0 0 0-.51-.443c-.202-.116-.382-.166-.538-.148a.481.481 0 0 0-.363.221c-.088.127-.133.3-.135.518v.907a2.314 2.314 0 0 0 .51 1.469c.163.202.356.368.579.497.148.085.284.139.407.162a.477.477 0 0 0 .316-.034.44.44 0 0 0 .2-.239l1.233.806c-.063.306-.191.531-.385.674-.192.142-.44.196-.745.163-.302-.035-.651-.167-1.048-.396Zm4.007-3.345.883 2.45.904-1.418 1.367.789-1.392 1.971 1.43 3.601-1.361-.786-.948-2.466-.933 1.38-1.377-.795 1.427-1.951-1.377-3.57 1.377.795Zm6.406 3.698v1.157l-2.895-1.672v-1.156l2.895 1.671Zm-2.238-2.621 1.333.77v5.174c0 .142.019.264.057.365a.74.74 0 0 0 .156.253c.069.071.148.132.238.184.063.036.125.066.188.09l.144.051.209 1.266a3.377 3.377 0 0 1-.281-.079 2.489 2.489 0 0 1-.442-.194 3.334 3.334 0 0 1-.844-.635 2.835 2.835 0 0 1-.561-.851 2.56 2.56 0 0 1-.197-1.018v-5.376Zm5.148 9.96a4.628 4.628 0 0 1-1.277-1.084 4.977 4.977 0 0 1-1.108-3.151c0-.571.096-1.016.288-1.337.192-.32.462-.5.811-.54.35-.038.761.078 1.233.351a4.533 4.533 0 0 1 1.605 1.627c.207.353.367.74.482 1.16.115.418.172.863.172 1.335v.423l-4.059-2.343v-.954l2.804 1.619c0-.222-.042-.442-.125-.662a2.16 2.16 0 0 0-.347-.601 1.804 1.804 0 0 0-.51-.443c-.203-.117-.382-.166-.539-.148a.482.482 0 0 0-.363.221c-.087.127-.132.3-.134.518v.907c0 .275.044.537.131.788.09.251.216.478.379.681.163.202.356.368.579.497.148.085.284.139.407.162a.477.477 0 0 0 .316-.034.444.444 0 0 0 .2-.239l1.233.806c-.063.306-.191.531-.385.674-.192.142-.44.196-.745.163-.302-.035-.652-.167-1.048-.396Zm4.312-.827v3.208l-1.333-.769v-5.55l1.27.733v.979l.057.033c.106-.262.285-.414.535-.457.25-.046.554.034.91.24.334.193.625.445.873.757.249.312.442.664.579 1.057.138.39.207.801.207 1.232v3.534l-1.333-.77v-3.259a1.872 1.872 0 0 0-.225-.925 1.639 1.639 0 0 0-.629-.652c-.18-.104-.338-.151-.476-.141a.395.395 0 0 0-.319.206c-.075.125-.114.306-.116.544Zm8.051 3.889-1.221-.618a1.355 1.355 0 0 0-.134-.403 1.737 1.737 0 0 0-.67-.712c-.206-.119-.381-.169-.522-.15-.142.017-.213.109-.213.275 0 .132.046.271.137.415.092.145.25.309.473.494l.87.704c.467.381.816.76 1.045 1.138.23.379.344.768.344 1.168 0 .363-.093.629-.278.796-.184.169-.436.238-.758.206-.319-.032-.687-.169-1.104-.41-.636-.367-1.143-.813-1.521-1.337-.375-.525-.595-1.071-.66-1.638l1.311.677c.04.247.136.473.288.679.152.204.347.374.585.512.234.135.421.191.563.169.144-.022.217-.116.219-.281a.789.789 0 0 0-.153-.432c-.1-.15-.255-.308-.463-.477l-.833-.672c-.469-.38-.818-.769-1.048-1.169a2.44 2.44 0 0 1-.341-1.22c0-.356.084-.615.25-.776.169-.161.406-.223.711-.187.306.038.665.175 1.076.412.607.351 1.085.775 1.433 1.272.351.499.555 1.02.614 1.565Zm.852 4.459v-5.55l1.333.77v5.55l-1.333-.77Zm.669-5.879a1.453 1.453 0 0 1-.51-.522c-.139-.235-.209-.459-.209-.674 0-.212.07-.353.209-.424.142-.073.312-.051.51.063.199.114.368.289.507.524.142.234.213.456.213.668 0 .215-.071.358-.213.43-.139.071-.308.05-.507-.065Zm3.806 8.572a4.472 4.472 0 0 1-1.261-1.086 5.122 5.122 0 0 1-.816-1.476 4.957 4.957 0 0 1-.288-1.666c0-.573.096-1.019.288-1.337.191-.32.464-.498.816-.533.355-.036.775.086 1.261.367.486.28.906.643 1.258 1.087.355.444.628.936.82 1.478.192.54.288 1.096.288 1.67 0 .568-.096 1.013-.288 1.333a1.039 1.039 0 0 1-.82.531c-.352.035-.772-.088-1.258-.368Zm.007-1.189c.221.127.405.162.553.103.149-.062.26-.197.335-.407.077-.208.116-.474.116-.797 0-.322-.039-.632-.116-.93a2.67 2.67 0 0 0-.335-.793 1.602 1.602 0 0 0-.553-.54c-.224-.129-.411-.164-.564-.105-.15.06-.264.195-.341.403-.075.209-.112.476-.112.798 0 .323.037.633.112.929.077.298.191.563.341.797.153.232.34.413.564.542Zm4.462.451v3.209l-1.333-.77v-5.55l1.27.734v.979l.057.033c.106-.262.284-.414.535-.457.25-.046.554.034.91.24.334.193.625.445.873.757.249.312.442.664.579 1.057.138.39.207.801.207 1.232v3.534l-1.333-.77v-3.259a1.862 1.862 0 0 0-.226-.925 1.626 1.626 0 0 0-.629-.652c-.179-.104-.337-.151-.475-.141a.395.395 0 0 0-.319.206c-.075.125-.114.306-.116.543Z"/></g><g clip-path="url(#be)"><path fill="url(#bf)" d="M511.747 352.31c2.433-1.405 6.379-1.405 8.812 0l13.218 7.631c2.433 1.405 2.433 3.682 0 5.087l-13.218 7.632c-2.433 1.404-6.379 1.404-8.812 0l-13.218-7.632c-2.433-1.405-2.433-3.682 0-5.087l13.218-7.631Z"/><path fill="url(#bg)" d="m498.529 365.028 13.218 7.632v19.078l-13.218-7.632v-19.078Z"/><path fill="url(#bh)" d="m520.559 372.66 13.218-7.632v19.078l-13.218 7.632V372.66Z"/><path fill="url(#bi)" d="M496.704 362.485c0 .993.698 1.892 1.825 2.543v19.078c-1.127-.651-1.825-1.55-1.825-2.543v-19.078Z"/><path fill="url(#bj)" d="M511.747 372.66c2.433 1.404 6.379 1.404 8.812 0v19.078c-2.433 1.405-6.379 1.405-8.812 0V372.66Z"/><path fill="#363636" d="M535.602 362.485c0 .993-.698 1.892-1.825 2.543v19.078c1.127-.651 1.825-1.55 1.825-2.543v-19.078Z"/><path stroke="#363636" stroke-width=".636" d="m498.529 365.028 13.218 7.632m-13.218-7.632c-2.433-1.405-2.433-3.682 0-5.087l13.218-7.631c2.433-1.405 6.379-1.405 8.812 0l13.218 7.631c2.433 1.405 2.433 3.682 0 5.087m-35.248 0v19.078m0-19.078c-1.127-.651-1.825-1.55-1.825-2.543v19.078c0 .993.698 1.892 1.825 2.543m22.03-11.446 13.218-7.632m-13.218 7.632c-2.433 1.404-6.379 1.404-8.812 0m8.812 0v19.078m-8.812-19.078v19.078m22.03-26.71v19.078m0-19.078c1.127-.651 1.825-1.55 1.825-2.543v19.078c0 .993-.698 1.892-1.825 2.543m-22.03 7.632-13.218-7.632m13.218 7.632c2.433 1.405 6.379 1.405 8.812 0m13.218-7.632-13.218 7.632"/><path fill="url(#bk)" d="M535.277 377.11c2.433-1.405 6.378-1.405 8.812 0l13.217 7.632c2.434 1.404 2.434 3.682 0 5.087l-13.217 7.631c-2.434 1.405-6.379 1.405-8.812 0l-13.218-7.631c-2.433-1.405-2.433-3.683 0-5.087l13.218-7.632Z"/><path fill="url(#bl)" d="m522.059 389.829 13.218 7.631v6.36l-13.218-7.632v-6.359Z"/><path fill="url(#bm)" d="m544.089 397.46 13.217-7.631v6.359l-13.217 7.632v-6.36Z"/><path fill="url(#bn)" d="M520.234 387.285c0 .994.697 1.893 1.825 2.544v6.359c-1.128-.651-1.825-1.55-1.825-2.543v-6.36Z"/><path fill="url(#bo)" d="M535.277 397.46c2.433 1.405 6.378 1.405 8.812 0v6.36c-2.434 1.405-6.379 1.405-8.812 0v-6.36Z"/><path fill="#363636" d="M559.131 387.285c0 .994-.697 1.893-1.825 2.544v6.359c1.128-.651 1.825-1.55 1.825-2.543v-6.36Z"/><path stroke="#363636" stroke-width=".636" d="m522.059 389.829 13.218 7.631m-13.218-7.631c-2.433-1.405-2.433-3.683 0-5.087l13.218-7.632c2.433-1.405 6.378-1.405 8.812 0l13.217 7.632c2.434 1.404 2.434 3.682 0 5.087m-35.247 0v6.359m0-6.359c-1.128-.651-1.825-1.55-1.825-2.544v6.36c0 .993.697 1.892 1.825 2.543m22.03 1.272 13.217-7.631m-13.217 7.631c-2.434 1.405-6.379 1.405-8.812 0m8.812 0v6.36m-8.812-6.36v6.36m22.029-13.991v6.359m0-6.359c1.128-.651 1.825-1.55 1.825-2.544v6.36c0 .993-.697 1.892-1.825 2.543m-22.029 7.632-13.218-7.632m13.218 7.632c2.433 1.405 6.378 1.405 8.812 0m13.217-7.632-13.217 7.632"/><path fill="url(#bp)" d="M488.853 370.115c2.434-1.405 6.379-1.405 8.812 0l13.218 7.631c2.433 1.405 2.433 3.683 0 5.088l-13.218 7.631c-2.433 1.405-6.378 1.405-8.812 0l-13.217-7.631c-2.434-1.405-2.434-3.683 0-5.088l13.217-7.631Z"/><path fill="url(#bq)" d="m475.636 382.834 13.217 7.631v12.719l-13.217-7.631v-12.719Z"/><path fill="url(#br)" d="m497.665 390.465 13.218-7.631v12.719l-13.218 7.631v-12.719Z"/><path fill="url(#bs)" d="M473.811 380.29c0 .994.697 1.893 1.825 2.544v12.719c-1.128-.651-1.825-1.551-1.825-2.544V380.29Z"/><path fill="url(#bt)" d="M488.853 390.465c2.434 1.405 6.379 1.405 8.812 0v12.719c-2.433 1.405-6.378 1.405-8.812 0v-12.719Z"/><path fill="url(#bu)" d="M512.708 380.29c0 .994-.698 1.893-1.825 2.544v12.719c1.127-.651 1.825-1.551 1.825-2.544V380.29Z"/><path stroke="#363636" stroke-width=".636" d="m475.636 382.834 13.217 7.631m-13.217-7.631c-2.434-1.405-2.434-3.683 0-5.088l13.217-7.631c2.434-1.405 6.379-1.405 8.812 0l13.218 7.631c2.433 1.405 2.433 3.683 0 5.088m-35.247 0v12.719m0-12.719c-1.128-.651-1.825-1.55-1.825-2.544v12.719c0 .993.697 1.893 1.825 2.544m22.029-5.088 13.218-7.631m-13.218 7.631c-2.433 1.405-6.378 1.405-8.812 0m8.812 0v12.719m-8.812-12.719v12.719m22.03-20.35v12.719m0-12.719c1.127-.651 1.825-1.55 1.825-2.544v12.719c0 .993-.698 1.893-1.825 2.544m-22.03 7.631-13.217-7.631m13.217 7.631c2.434 1.405 6.379 1.405 8.812 0m13.218-7.631-13.218 7.631"/><path fill="url(#bv)" d="M511.747 370.751c2.433-1.405 6.379-1.405 8.812 0l13.218 7.631c2.433 1.405 2.433 3.683 0 5.088l-13.218 7.631c-2.433 1.405-6.379 1.405-8.812 0l-13.218-7.631c-2.433-1.405-2.433-3.683 0-5.088l13.218-7.631Z"/><path fill="url(#bw)" d="m498.529 383.47 13.218 7.631v25.437l-13.218-7.631V383.47Z"/><path fill="url(#bx)" d="m520.559 391.101 13.218-7.631v25.437l-13.218 7.631v-25.437Z"/><path fill="url(#by)" d="M496.704 380.926c0 .993.698 1.893 1.825 2.544v25.437c-1.127-.651-1.825-1.55-1.825-2.544v-25.437Z"/><path fill="url(#bz)" d="M511.747 391.101c2.433 1.405 6.379 1.405 8.812 0v25.437c-2.433 1.405-6.379 1.405-8.812 0v-25.437Z"/><path fill="#363636" d="M535.602 380.926c0 .993-.698 1.893-1.825 2.544v25.437c1.127-.651 1.825-1.55 1.825-2.544v-25.437Z"/><path stroke="#363636" stroke-width=".636" d="m498.529 383.47 13.218 7.631m-13.218-7.631c-2.433-1.405-2.433-3.683 0-5.088l13.218-7.631c2.433-1.405 6.379-1.405 8.812 0l13.218 7.631c2.433 1.405 2.433 3.683 0 5.088m-35.248 0v25.437m0-25.437c-1.127-.651-1.825-1.551-1.825-2.544v25.437c0 .994.698 1.893 1.825 2.544m22.03-17.806 13.218-7.631m-13.218 7.631c-2.433 1.405-6.379 1.405-8.812 0m8.812 0v25.437m-8.812-25.437v25.437m22.03-33.068v25.437m0-25.437c1.127-.651 1.825-1.551 1.825-2.544v25.437c0 .994-.698 1.893-1.825 2.544m-22.03 7.631-13.218-7.631m13.218 7.631c2.433 1.405 6.379 1.405 8.812 0m13.218-7.631-13.218 7.631M516.381 369.48v-40.064"/><path fill="url(#bA)" d="m502.254 295.711 28.445 16.423-4.406 2.544-28.445-16.423 4.406-2.544Z"/><path fill="url(#bB)" d="M491.616 297.638c1.72-.993 3.975-.684 6.231.618l4.405-2.544c-2.255-1.302-4.51-1.611-6.23-.617l-4.406 2.543Z"/><path fill="url(#bC)" d="M534.096 328.855c0-5.62-3.945-12.453-8.812-15.263l4.406-2.544c4.867 2.81 8.812 9.643 8.812 15.263l-4.406 2.544Z"/><path fill="#363636" d="M531.516 334.559c1.72-.993 2.58-3.1 2.58-5.704l4.406-2.544c0 2.604-.86 4.711-2.58 5.705l-4.406 2.543Z"/><path stroke="#363636" stroke-width=".636" d="m497.848 298.255 26.892 15.526c4.866 2.81 8.812 9.643 8.812 15.263 0 5.619-3.946 7.897-8.812 5.087l-26.892-15.526c-4.867-2.81-8.812-9.643-8.812-15.262 0-5.62 3.945-7.898 8.812-5.088Zm0 0 28.445 16.423 4.406-2.544-28.445-16.423-4.406 2.544Zm36.248 30.6c0-5.62-3.945-12.453-8.812-15.263l4.406-2.544c4.867 2.81 8.812 9.643 8.812 15.263m-4.406 2.544 4.406-2.544m-4.406 2.544c0 2.604-.86 4.711-2.58 5.704l4.406-2.543c1.72-.994 2.58-3.101 2.58-5.705m-46.886-28.673c1.72-.993 3.975-.684 6.231.618l4.405-2.544c-2.255-1.302-4.51-1.611-6.23-.617l-4.406 2.543Z"/><path fill="url(#bD)" d="M498.189 308.43c0 2.107-1.479 2.961-3.304 1.907-1.825-1.053-3.305-3.616-3.305-5.723 0-2.107 1.48-2.961 3.305-1.908 1.825 1.054 3.304 3.616 3.304 5.724Z"/><path fill="url(#bE)" d="M498.189 308.43c0 2.107-1.479 2.961-3.304 1.907-1.825-1.053-3.305-3.616-3.305-5.723 0-2.107 1.48-2.961 3.305-1.908 1.825 1.054 3.304 3.616 3.304 5.724Z"/><path fill="#363636" d="M503.426 309.545v-1.29l5.263 3.039v1.29l-1.962-1.133v6.11l-1.339-.773v-6.11l-1.962-1.133ZM510.908 320.083a4.453 4.453 0 0 1-1.261-1.085 5.146 5.146 0 0 1-.816-1.476 4.957 4.957 0 0 1-.288-1.666c0-.573.096-1.019.288-1.337.192-.32.464-.498.816-.533.355-.036.775.086 1.261.367.487.28.906.643 1.258 1.087.355.444.628.936.82 1.478.192.54.288 1.096.288 1.67 0 .568-.096 1.012-.288 1.333a1.039 1.039 0 0 1-.82.531c-.352.035-.771-.088-1.258-.369Zm.007-1.188c.221.127.405.162.554.103.148-.062.259-.197.334-.407.078-.208.116-.474.116-.797 0-.322-.038-.632-.116-.93a2.695 2.695 0 0 0-.334-.793 1.604 1.604 0 0 0-.554-.54c-.223-.129-.411-.164-.564-.105-.15.06-.263.194-.341.403-.075.209-.112.476-.112.798 0 .323.037.633.112.929.078.297.191.563.341.797.153.232.341.413.564.542ZM516.216 323.148a4.459 4.459 0 0 1-1.261-1.086 5.125 5.125 0 0 1-.817-1.476 4.953 4.953 0 0 1-.288-1.666c0-.573.096-1.019.288-1.337.192-.32.464-.498.817-.533.354-.036.775.086 1.261.367a4.42 4.42 0 0 1 1.258 1.087c.354.444.628.936.819 1.478.192.54.288 1.096.288 1.67 0 .568-.096 1.013-.288 1.333a1.037 1.037 0 0 1-.819.531c-.353.035-.772-.088-1.258-.368Zm.006-1.189c.221.127.406.162.554.103.148-.062.26-.197.335-.407.077-.208.115-.474.115-.796 0-.323-.038-.633-.115-.931a2.696 2.696 0 0 0-.335-.793 1.605 1.605 0 0 0-.554-.54c-.223-.129-.411-.164-.563-.105-.151.06-.264.195-.341.403-.076.209-.113.476-.113.798 0 .323.037.633.113.929.077.298.19.563.341.797.152.232.34.413.563.542ZM520.684 318.219v7.4l-1.333-.77v-7.4l1.333.77ZM525.654 324.521l-1.22-.618a1.368 1.368 0 0 0-.135-.403 1.705 1.705 0 0 0-.669-.711c-.207-.12-.381-.17-.523-.15-.142.016-.213.108-.213.274 0 .133.046.271.138.416.092.144.249.309.472.493l.87.705c.468.38.816.76 1.046 1.138.229.378.344.767.344 1.167 0 .364-.093.629-.279.797-.183.168-.436.237-.757.206-.319-.033-.687-.17-1.105-.411-.636-.367-1.143-.813-1.52-1.336-.376-.526-.596-1.072-.661-1.639l1.311.677c.04.247.136.474.288.68.153.203.348.374.586.511.233.135.421.191.563.17.144-.023.217-.117.219-.282a.783.783 0 0 0-.154-.432 2.28 2.28 0 0 0-.463-.477l-.832-.672c-.469-.379-.819-.769-1.048-1.169a2.426 2.426 0 0 1-.341-1.219c0-.357.083-.616.25-.777.169-.16.406-.222.71-.186.307.037.666.174 1.077.412.607.35 1.085.774 1.433 1.272.35.498.555 1.02.613 1.564Z"/></g><path fill="url(#bF)" stroke="#363636" stroke-width=".636" d="M434.221 409.544c-3.65 2.107-9.568 2.107-13.218 0-3.65-2.108-3.65-5.524 0-7.631 3.65-2.108 9.568-2.108 13.218 0 3.65 2.107 3.65 5.523 0 7.631Z"/><path stroke="#fff" stroke-width=".636" d="M439.337 453.198c-6.475 3.738-16.974 3.738-23.45 0-6.475-3.739-6.475-9.801 0-13.539 6.476-3.739 16.975-3.739 23.45 0 6.476 3.738 6.476 9.8 0 13.539Z"/><path stroke="#fff" stroke-width=".636" d="M446.186 457.153c-10.258 5.922-26.889 5.922-37.147 0s-10.258-15.524 0-21.447c10.258-5.922 26.889-5.922 37.147 0 10.257 5.923 10.257 15.525 0 21.447Z"/><path fill="url(#bG)" stroke="#363636" stroke-width=".636" d="M418.266 405.729c0 1.49 1.046 2.839 2.737 3.815V447.7c-1.691-.976-2.737-2.325-2.737-3.815v-38.156Z"/><path fill="url(#bH)" stroke="#363636" stroke-width=".636" d="M421.003 409.544c3.65 2.107 9.568 2.107 13.218 0V447.7c-3.65 2.108-9.568 2.108-13.218 0v-38.156Z"/><path fill="#363636" d="M436.959 405.729c0 1.49-1.046 2.839-2.738 3.815V447.7c1.692-.976 2.738-2.325 2.738-3.815v-38.156Z"/><path stroke="#363636" stroke-width=".636" d="M427.431 405.729v-9.54"/><path fill="url(#bI)" d="M435.152 389.83c0 7.024-4.932 9.871-11.015 6.359-6.083-3.512-11.015-12.054-11.015-19.078 0-7.024 4.932-9.872 11.015-6.359 6.083 3.512 11.015 12.053 11.015 19.078Z"/><path fill="url(#bJ)" d="M416.349 369.98c2.15-1.242 4.969-.856 7.788.772l2.203-1.272c-2.819-1.628-5.638-2.014-7.789-.772l-2.202 1.272Z"/><path fill="url(#bK)" d="M435.152 389.83c0-7.025-4.932-15.566-11.015-19.078l2.203-1.272c6.083 3.512 11.015 12.053 11.015 19.078l-2.203 1.272Z"/><path fill="#363636" d="M431.926 396.961c2.15-1.242 3.226-3.876 3.226-7.131l2.203-1.272c0 3.255-1.076 5.889-3.226 7.131l-2.203 1.272Z"/><path stroke="#363636" stroke-width=".636" d="M435.152 389.83c0 7.024-4.932 9.871-11.015 6.359-6.083-3.512-11.015-12.054-11.015-19.078 0-7.024 4.932-9.872 11.015-6.359m11.015 19.078c0-7.025-4.932-15.566-11.015-19.078m11.015 19.078 2.203-1.272m-2.203 1.272c0 3.255-1.076 5.889-3.226 7.131l2.203-1.272c2.15-1.242 3.226-3.876 3.226-7.131m-13.218-17.806c-2.819-1.628-5.638-2.014-7.788-.772l2.202-1.272c2.151-1.242 4.97-.856 7.789.772m-2.203 1.272 2.203-1.272m0 0c6.083 3.512 11.015 12.053 11.015 19.078"/><path fill="#fff" d="M428.807 380.732a1.866 1.866 0 0 0-.433-.421.972.972 0 0 0-.453-.178l-4.672-.573a.887.887 0 0 1-.349-.122l-2.991-1.727c-.251-.145-.492-.169-.669-.066-.178.102-.277.323-.277.613v.087l-.947-.547v2.624l.947.546v.114c.006.289.108.619.285.921.177.301.414.55.661.692l1.136 3.437c.077.231.198.46.35.658.151.199.326.36.506.465l.477.276c.25.142.488.163.664.06.176-.103.275-.323.275-.611v-2.212l4.604 4.783c.114.117.234.213.356.284.189.105.373.144.53.113a.459.459 0 0 0 .3-.206.823.823 0 0 0 .117-.427v-7.442a1.72 1.72 0 0 0-.112-.574 2.286 2.286 0 0 0-.305-.567Zm-6.437-.507v2.824l-2.461-1.421v-2.824l2.461 1.421Zm0 6.208-.477-.275-.931-2.855 1.408.813v2.317Zm1.227-2.544a3.726 3.726 0 0 0-.28-.293v-2.886c.096.033.189.054.28.066l4.68.551v7.415l-4.68-4.853Zm5.649.612v2.186c.251.145.492.169.67.066.177-.102.277-.323.277-.613 0-.289-.1-.625-.277-.933-.178-.307-.419-.561-.67-.706Z"/><g clip-path="url(#bL)"><path fill="url(#bM)" stroke="#363636" stroke-width=".636" d="M596.739 402.235c-3.65 2.107-9.568 2.107-13.218 0-3.65-2.107-3.65-5.524 0-7.631s9.568-2.107 13.218 0c3.65 2.107 3.65 5.524 0 7.631Z"/><path stroke="#fff" stroke-width=".636" d="M600.607 442.625c-5.786 3.341-15.167 3.341-20.953 0-5.786-3.34-5.786-8.757 0-12.097 5.786-3.341 15.167-3.341 20.953 0 5.786 3.34 5.786 8.757 0 12.097Z"/><path stroke="#fff" stroke-width=".636" d="M608.641 446.63c-10.224 5.902-26.8 5.902-37.023 0-10.224-5.903-10.224-15.473 0-21.376 10.223-5.903 26.799-5.903 37.023 0 10.224 5.903 10.224 15.473 0 21.376Z"/><path fill="url(#bN)" stroke="#363636" stroke-width=".636" d="M580.783 398.42c0 1.49 1.046 2.839 2.738 3.816v38.156c-1.692-.977-2.738-2.326-2.738-3.816V398.42Z"/><path fill="url(#bO)" stroke="#363636" stroke-width=".636" d="M583.521 402.235c3.65 2.108 9.567 2.108 13.217 0v38.157c-3.65 2.107-9.567 2.107-13.217 0v-38.157Z"/><path fill="#363636" d="M599.476 398.42c0 1.49-1.046 2.839-2.737 3.816v38.156c1.691-.977 2.737-2.326 2.737-3.816V398.42Z"/><path stroke="#363636" stroke-width=".636" d="M589.948 398.42v-9.539"/><path fill="url(#bP)" stroke="#363636" stroke-width=".636" d="M597.669 382.522c0 7.024-4.932 9.871-11.015 6.359-6.083-3.512-11.015-12.053-11.015-19.078 0-7.024 4.932-9.871 11.015-6.359 6.083 3.512 11.015 12.054 11.015 19.078Z"/><path fill="url(#bQ)" d="M578.866 362.672c2.151-1.241 4.97-.856 7.789.772l2.203-1.272c-2.819-1.627-5.638-2.013-7.789-.771l-2.203 1.271Z"/><path fill="url(#bR)" d="M597.67 382.522c0-7.024-4.932-15.566-11.015-19.078l2.203-1.272c6.083 3.512 11.015 12.054 11.015 19.078l-2.203 1.272Z"/><path fill="#363636" d="M594.444 389.653c2.15-1.242 3.226-3.876 3.226-7.131l2.203-1.272c0 3.255-1.076 5.889-3.226 7.131l-2.203 1.272Z"/><path stroke="#363636" stroke-width=".636" d="M586.655 363.444c-2.819-1.628-5.638-2.013-7.789-.772l2.203-1.271c2.151-1.242 4.97-.856 7.789.771m-2.203 1.272 2.203-1.272m-2.203 1.272c6.083 3.512 11.015 12.054 11.015 19.078m-8.812-20.35c6.083 3.512 11.015 12.054 11.015 19.078m-2.203 1.272 2.203-1.272m-2.203 1.272c0 3.255-1.076 5.889-3.226 7.131l2.203-1.272c2.15-1.242 3.226-3.876 3.226-7.131"/><path fill="#fff" fill-rule="evenodd" d="m588.187 380.366.652-.377-2.776-1.603-2.525-4.372-3.072-1.774v-1.166l3.072 1.774 2.524-1.457 2.777 1.603-.653-1.131.714-.412 1.871 3.242-1.871 1.08-.714-1.237.653-.376-2.359-1.362-2.019 1.166 2.02 3.498 2.358 1.361-.653-1.13.714-.413 1.872 3.242-1.871 1.081-.714-1.237Z" clip-rule="evenodd"/><path stroke="#fff" stroke-width=".636" d="M618.708 399.39c-16.134 9.315-42.294 9.315-58.429 0-16.135-9.316-16.135-24.419 0-33.734 16.135-9.316 42.295-9.316 58.429 0 16.135 9.315 16.135 24.418 0 33.734Z"/></g><defs><linearGradient id="b" x1="539.909" x2="622.867" y1="258.497" y2="258.497" gradientUnits="userSpaceOnUse"><stop stop-color="#005D84"/><stop offset="1" stop-color="#4A989D"/></linearGradient><linearGradient id="c" x1="548.202" x2="608.256" y1="287.499" y2="263.527" gradientUnits="userSpaceOnUse"><stop stop-color="#8ED7C6"/><stop offset="1" stop-color="#56ADAB"/></linearGradient><linearGradient id="d" x1="545.846" x2="606.061" y1="281.159" y2="309.595" gradientUnits="userSpaceOnUse"><stop stop-color="#009877"/><stop offset="1" stop-color="#50D098"/></linearGradient><linearGradient id="e" x1="548.202" x2="608.256" y1="287.499" y2="263.527" gradientUnits="userSpaceOnUse"><stop stop-color="#8ED7C6"/><stop offset="1" stop-color="#56ADAB"/></linearGradient><linearGradient id="f" x1="539.909" x2="622.867" y1="283.179" y2="283.179" gradientUnits="userSpaceOnUse"><stop stop-color="#005D84"/><stop offset="1" stop-color="#4A989D"/></linearGradient><linearGradient id="g" x1="543.525" x2="605.054" y1="180.069" y2="160.044" gradientUnits="userSpaceOnUse"><stop stop-color="#8ED7C6"/><stop offset="1" stop-color="#56ADAB"/></linearGradient><linearGradient id="h" x1="535.42" x2="616.499" y1="174.891" y2="174.891" gradientUnits="userSpaceOnUse"><stop stop-color="#005D84"/><stop offset="1" stop-color="#4A989D"/></linearGradient><linearGradient id="i" x1="543.525" x2="605.054" y1="180.069" y2="160.044" gradientUnits="userSpaceOnUse"><stop stop-color="#FF797F"/><stop offset="1" stop-color="#FF587F"/></linearGradient><linearGradient id="j" x1="543.525" x2="605.054" y1="180.069" y2="160.044" gradientUnits="userSpaceOnUse"><stop stop-color="#FF797F"/><stop offset="1" stop-color="#FF587F"/></linearGradient><linearGradient id="k" x1="148.075" x2="184.896" y1="310.379" y2="328.309" gradientUnits="userSpaceOnUse"><stop stop-color="#009877"/><stop offset="1" stop-color="#50D098"/></linearGradient><linearGradient id="l" x1="143.713" x2="196.405" y1="320.872" y2="320.872" gradientUnits="userSpaceOnUse"><stop stop-color="#005D84"/><stop offset="1" stop-color="#4A989D"/></linearGradient><linearGradient id="m" x1="148.98" x2="183.18" y1="322.895" y2="304.38" gradientUnits="userSpaceOnUse"><stop stop-color="#8ED7C6"/><stop offset="1" stop-color="#56ADAB"/></linearGradient><linearGradient id="n" x1="148.98" x2="183.18" y1="322.895" y2="304.38" gradientUnits="userSpaceOnUse"><stop stop-color="#FF797F"/><stop offset="1" stop-color="#FF587F"/></linearGradient><linearGradient id="o" x1="148.98" x2="183.18" y1="322.895" y2="304.38" gradientUnits="userSpaceOnUse"><stop stop-color="#FF797F"/><stop offset="1" stop-color="#FF587F"/></linearGradient><linearGradient id="p" x1="167.122" x2="185.176" y1="315.294" y2="308.615" gradientUnits="userSpaceOnUse"><stop stop-color="#8ED7C6"/><stop offset="1" stop-color="#56ADAB"/></linearGradient><linearGradient id="q" x1="167.122" x2="185.176" y1="315.294" y2="308.615" gradientUnits="userSpaceOnUse"><stop stop-color="#8ED7C6"/><stop offset="1" stop-color="#56ADAB"/></linearGradient><linearGradient id="r" x1="167.122" x2="185.176" y1="315.294" y2="308.615" gradientUnits="userSpaceOnUse"><stop stop-color="#8ED7C6"/><stop offset="1" stop-color="#56ADAB"/></linearGradient><linearGradient id="s" x1="167.122" x2="185.176" y1="315.294" y2="308.615" gradientUnits="userSpaceOnUse"><stop stop-color="#8ED7C6"/><stop offset="1" stop-color="#56ADAB"/></linearGradient><linearGradient id="t" x1="167.122" x2="185.176" y1="315.294" y2="308.615" gradientUnits="userSpaceOnUse"><stop stop-color="#8ED7C6"/><stop offset="1" stop-color="#56ADAB"/></linearGradient><linearGradient id="u" x1="167.122" x2="185.176" y1="315.294" y2="308.615" gradientUnits="userSpaceOnUse"><stop stop-color="#8ED7C6"/><stop offset="1" stop-color="#56ADAB"/></linearGradient><linearGradient id="v" x1=".744" x2="6.664" y1="4.327" y2="2.92" gradientUnits="userSpaceOnUse"><stop stop-color="#8ED7C6"/><stop offset="1" stop-color="#56ADAB"/></linearGradient><linearGradient id="w" x1="166.175" x2="167.34" y1="309.333" y2="309.49" gradientUnits="userSpaceOnUse"><stop stop-color="#009877"/><stop offset="1" stop-color="#50D098"/></linearGradient><linearGradient id="x" x1="168.06" x2="171.051" y1="310.921" y2="308.227" gradientUnits="userSpaceOnUse"><stop stop-color="#8ED7C6"/><stop offset="1" stop-color="#56ADAB"/></linearGradient><linearGradient id="y" x1="174.003" x2="175.111" y1="309.692" y2="309.566" gradientUnits="userSpaceOnUse"><stop stop-color="#8ED7C6"/><stop offset="1" stop-color="#56ADAB"/></linearGradient><linearGradient id="A" x1="464.772" x2="501.593" y1="270.951" y2="288.881" gradientUnits="userSpaceOnUse"><stop stop-color="#009877"/><stop offset="1" stop-color="#50D098"/></linearGradient><linearGradient id="B" x1="460.41" x2="513.102" y1="281.444" y2="281.444" gradientUnits="userSpaceOnUse"><stop stop-color="#005D84"/><stop offset="1" stop-color="#4A989D"/></linearGradient><linearGradient id="C" x1="465.677" x2="499.877" y1="283.467" y2="264.952" gradientUnits="userSpaceOnUse"><stop stop-color="#8ED7C6"/><stop offset="1" stop-color="#56ADAB"/></linearGradient><linearGradient id="D" x1="465.677" x2="499.877" y1="283.467" y2="264.952" gradientUnits="userSpaceOnUse"><stop stop-color="#FF797F"/><stop offset="1" stop-color="#FF587F"/></linearGradient><linearGradient id="E" x1="465.677" x2="499.877" y1="283.467" y2="264.952" gradientUnits="userSpaceOnUse"><stop stop-color="#FF797F"/><stop offset="1" stop-color="#FF587F"/></linearGradient><linearGradient id="F" x1="483.819" x2="501.873" y1="275.866" y2="269.187" gradientUnits="userSpaceOnUse"><stop stop-color="#8ED7C6"/><stop offset="1" stop-color="#56ADAB"/></linearGradient><linearGradient id="G" x1="483.819" x2="501.873" y1="275.866" y2="269.187" gradientUnits="userSpaceOnUse"><stop stop-color="#8ED7C6"/><stop offset="1" stop-color="#56ADAB"/></linearGradient><linearGradient id="H" x1="483.819" x2="501.873" y1="275.866" y2="269.187" gradientUnits="userSpaceOnUse"><stop stop-color="#8ED7C6"/><stop offset="1" stop-color="#56ADAB"/></linearGradient><linearGradient id="I" x1="483.819" x2="501.873" y1="275.866" y2="269.187" gradientUnits="userSpaceOnUse"><stop stop-color="#8ED7C6"/><stop offset="1" stop-color="#56ADAB"/></linearGradient><linearGradient id="J" x1="483.819" x2="501.873" y1="275.866" y2="269.187" gradientUnits="userSpaceOnUse"><stop stop-color="#8ED7C6"/><stop offset="1" stop-color="#56ADAB"/></linearGradient><linearGradient id="K" x1="483.819" x2="501.873" y1="275.866" y2="269.187" gradientUnits="userSpaceOnUse"><stop stop-color="#8ED7C6"/><stop offset="1" stop-color="#56ADAB"/></linearGradient><linearGradient id="L" x1=".744" x2="6.664" y1="4.327" y2="2.92" gradientUnits="userSpaceOnUse"><stop stop-color="#8ED7C6"/><stop offset="1" stop-color="#56ADAB"/></linearGradient><linearGradient id="M" x1="482.872" x2="484.037" y1="269.905" y2="270.062" gradientUnits="userSpaceOnUse"><stop stop-color="#009877"/><stop offset="1" stop-color="#50D098"/></linearGradient><linearGradient id="N" x1="484.757" x2="487.748" y1="271.494" y2="268.8" gradientUnits="userSpaceOnUse"><stop stop-color="#8ED7C6"/><stop offset="1" stop-color="#56ADAB"/></linearGradient><linearGradient id="O" x1="490.7" x2="491.808" y1="270.264" y2="270.138" gradientUnits="userSpaceOnUse"><stop stop-color="#8ED7C6"/><stop offset="1" stop-color="#56ADAB"/></linearGradient><linearGradient id="P" x1="582.519" x2="582.519" y1="193.681" y2="257.592" gradientUnits="userSpaceOnUse"><stop stop-color="#8075B3" stop-opacity="0"/><stop offset="1" stop-color="#98E1D0"/></linearGradient><linearGradient id="R" x1="392.498" x2="429.422" y1="329.454" y2="338.444" gradientUnits="userSpaceOnUse"><stop stop-color="#009877"/><stop offset="1" stop-color="#50D098"/></linearGradient><linearGradient id="S" x1="345.286" x2="389.345" y1="331.535" y2="331.535" gradientUnits="userSpaceOnUse"><stop stop-color="#005D84"/><stop offset="1" stop-color="#4A989D"/></linearGradient><linearGradient id="T" x1="5.077" x2="45.493" y1="29.538" y2="19.934" gradientUnits="userSpaceOnUse"><stop stop-color="#FF797F"/><stop offset="1" stop-color="#FF587F"/></linearGradient><linearGradient id="U" x1="25.438" x2="25.438" y1="0" y2="50.875" gradientUnits="userSpaceOnUse"><stop/><stop offset="1" stop-color="#666"/></linearGradient><linearGradient id="V" x1="2.538" x2="22.746" y1="14.769" y2="9.967" gradientUnits="userSpaceOnUse"><stop stop-color="#8ED7C6"/><stop offset="1" stop-color="#56ADAB"/></linearGradient><linearGradient id="W" x1="12.719" x2="12.719" y1="0" y2="25.438" gradientUnits="userSpaceOnUse"><stop/><stop offset="1" stop-color="#666"/></linearGradient><linearGradient id="X" x1="361.035" x2="368.647" y1="306.159" y2="305.569" gradientUnits="userSpaceOnUse"><stop stop-color="#8ED7C6"/><stop offset="1" stop-color="#56ADAB"/></linearGradient><linearGradient id="Y" x1="364.686" x2="364.686" y1="289.913" y2="317.894" gradientUnits="userSpaceOnUse"><stop/><stop offset="1" stop-color="#666"/></linearGradient><linearGradient id="Z" x1="373.645" x2="402.991" y1="314.552" y2="299.587" gradientUnits="userSpaceOnUse"><stop stop-color="#FF797F"/><stop offset="1" stop-color="#FF587F"/></linearGradient><linearGradient id="aa" x1="391.278" x2="391.278" y1="302.632" y2="323.163" gradientUnits="userSpaceOnUse"><stop/><stop offset="1" stop-color="#666"/></linearGradient><linearGradient id="ab" x1="417.87" x2="417.87" y1="289.913" y2="317.894" gradientUnits="userSpaceOnUse"><stop/><stop offset="1" stop-color="#666"/></linearGradient><linearGradient id="ac" x1="353.417" x2="426.866" y1="119.884" y2="105.074" gradientUnits="userSpaceOnUse"><stop stop-color="#FF797F"/><stop offset="1" stop-color="#FF587F"/></linearGradient><linearGradient id="ad" x1="353.417" x2="426.866" y1="119.884" y2="105.074" gradientUnits="userSpaceOnUse"><stop stop-color="#8ED7C6"/><stop offset="1" stop-color="#56ADAB"/></linearGradient><linearGradient id="ae" x1="350.831" x2="427.328" y1="106.103" y2="124.35" gradientUnits="userSpaceOnUse"><stop stop-color="#009877"/><stop offset="1" stop-color="#50D098"/></linearGradient><linearGradient id="af" x1="353.417" x2="426.866" y1="119.884" y2="105.074" gradientUnits="userSpaceOnUse"><stop stop-color="#8ED7C6"/><stop offset="1" stop-color="#56ADAB"/></linearGradient><linearGradient id="ag" x1="391.081" x2="391.081" y1="162.042" y2="285.028" gradientUnits="userSpaceOnUse"><stop stop-color="#8075B3" stop-opacity="0"/><stop offset="1" stop-color="#98E1D0"/></linearGradient><linearGradient id="ah" x1="391.081" x2="391.081" y1="145.141" y2="284.142" gradientUnits="userSpaceOnUse"><stop stop-color="#8075B3" stop-opacity="0"/><stop offset="1" stop-color="#FFC8DC" stop-opacity=".7"/></linearGradient><linearGradient id="ai" x1="214.807" x2="274.336" y1="388.81" y2="417.797" gradientUnits="userSpaceOnUse"><stop stop-color="#009877"/><stop offset="1" stop-color="#50D098"/></linearGradient><linearGradient id="aj" x1="217.16" x2="276.697" y1="388.6" y2="364.094" gradientUnits="userSpaceOnUse"><stop stop-color="#FF797F"/><stop offset="1" stop-color="#FF587F"/></linearGradient><linearGradient id="ak" x1="208.865" x2="291.823" y1="378.051" y2="378.051" gradientUnits="userSpaceOnUse"><stop stop-color="#005D84"/><stop offset="1" stop-color="#4A989D"/></linearGradient><linearGradient id="al" x1="214.227" x2="242.851" y1="420.227" y2="414.99" gradientUnits="userSpaceOnUse"><stop stop-color="#FF797F"/><stop offset="1" stop-color="#FF587F"/></linearGradient><linearGradient id="am" x1="257.285" x2="287.176" y1="414.349" y2="420.817" gradientUnits="userSpaceOnUse"><stop stop-color="#009877"/><stop offset="1" stop-color="#50D098"/></linearGradient><linearGradient id="an" x1="208.884" x2="210.709" y1="404.897" y2="404.897" gradientUnits="userSpaceOnUse"><stop stop-color="#005D84"/><stop offset="1" stop-color="#4A989D"/></linearGradient><linearGradient id="ao" x1="245.955" x2="254.767" y1="427.057" y2="427.057" gradientUnits="userSpaceOnUse"><stop stop-color="#005D84"/><stop offset="1" stop-color="#4A989D"/></linearGradient><linearGradient id="ap" x1="211.837" x2="272.189" y1="282.922" y2="305.968" gradientUnits="userSpaceOnUse"><stop stop-color="#009877"/><stop offset="1" stop-color="#50D098"/></linearGradient><linearGradient id="aq" x1="214.049" x2="273.258" y1="290.284" y2="271.173" gradientUnits="userSpaceOnUse"><stop stop-color="#FF797F"/><stop offset="1" stop-color="#FF587F"/></linearGradient><linearGradient id="ar" x1="214.049" x2="273.258" y1="290.284" y2="271.173" gradientUnits="userSpaceOnUse"><stop stop-color="#FF797F"/><stop offset="1" stop-color="#FF587F"/></linearGradient><linearGradient id="as" x1="211.837" x2="272.189" y1="282.922" y2="305.968" gradientUnits="userSpaceOnUse"><stop stop-color="#009877"/><stop offset="1" stop-color="#50D098"/></linearGradient><linearGradient id="at" x1="209.479" x2="214.844" y1="269.689" y2="268.702" gradientUnits="userSpaceOnUse"><stop stop-color="#FF797F"/><stop offset="1" stop-color="#FF587F"/></linearGradient><linearGradient id="au" x1="209.479" x2="214.844" y1="269.689" y2="268.702" gradientUnits="userSpaceOnUse"><stop stop-color="#FF797F"/><stop offset="1" stop-color="#FF587F"/></linearGradient><linearGradient id="av" x1="249.52" x2="249.52" y1="328.381" y2="377.609" gradientUnits="userSpaceOnUse"><stop stop-color="#8075B3" stop-opacity="0"/><stop offset="1" stop-color="#FFC8DC" stop-opacity=".7"/></linearGradient><linearGradient id="ax" x1="243.115" x2="295.758" y1="243.222" y2="268.856" gradientUnits="userSpaceOnUse"><stop stop-color="#009877"/><stop offset="1" stop-color="#50D098"/></linearGradient><linearGradient id="ay" x1="242.569" x2="276.707" y1="261.29" y2="251.16" gradientUnits="userSpaceOnUse"><stop stop-color="#FF797F"/><stop offset="1" stop-color="#FF587F"/></linearGradient><linearGradient id="az" x1="290.401" x2="308.567" y1="266.476" y2="262.203" gradientUnits="userSpaceOnUse"><stop stop-color="#8ED7C6"/><stop offset="1" stop-color="#56ADAB"/></linearGradient><linearGradient id="aA" x1="237.088" x2="238.08" y1="245.763" y2="245.739" gradientUnits="userSpaceOnUse"><stop stop-color="#8ED7C6"/><stop offset="1" stop-color="#56ADAB"/></linearGradient><linearGradient id="aB" x1="282.409" x2="288.12" y1="271.478" y2="271.478" gradientUnits="userSpaceOnUse"><stop stop-color="#005D84"/><stop offset="1" stop-color="#4A989D"/></linearGradient><linearGradient id="aC" x1="261.197" x2="265.055" y1="227.102" y2="225.752" gradientUnits="userSpaceOnUse"><stop stop-color="#FF797F"/><stop offset="1" stop-color="#FF587F"/></linearGradient><linearGradient id="aD" x1="261.197" x2="265.055" y1="227.102" y2="225.752" gradientUnits="userSpaceOnUse"><stop stop-color="#FF797F"/><stop offset="1" stop-color="#FF587F"/></linearGradient><linearGradient id="aE" x1="261.197" x2="265.055" y1="227.102" y2="225.752" gradientUnits="userSpaceOnUse"><stop stop-color="#FF797F"/><stop offset="1" stop-color="#FF587F"/></linearGradient><linearGradient id="aF" x1="261.197" x2="265.055" y1="227.102" y2="225.752" gradientUnits="userSpaceOnUse"><stop stop-color="#FF797F"/><stop offset="1" stop-color="#FF587F"/></linearGradient><linearGradient id="aG" x1="266.967" x2="270.825" y1="229.986" y2="228.637" gradientUnits="userSpaceOnUse"><stop stop-color="#FF797F"/><stop offset="1" stop-color="#FF587F"/></linearGradient><linearGradient id="aH" x1="266.967" x2="270.825" y1="229.986" y2="228.637" gradientUnits="userSpaceOnUse"><stop stop-color="#FF797F"/><stop offset="1" stop-color="#FF587F"/></linearGradient><linearGradient id="aI" x1="266.967" x2="270.825" y1="229.986" y2="228.637" gradientUnits="userSpaceOnUse"><stop stop-color="#FF797F"/><stop offset="1" stop-color="#FF587F"/></linearGradient><linearGradient id="aJ" x1="266.967" x2="270.825" y1="229.986" y2="228.637" gradientUnits="userSpaceOnUse"><stop stop-color="#FF797F"/><stop offset="1" stop-color="#FF587F"/></linearGradient><linearGradient id="aK" x1="272.736" x2="276.594" y1="233.284" y2="231.935" gradientUnits="userSpaceOnUse"><stop stop-color="#FF797F"/><stop offset="1" stop-color="#FF587F"/></linearGradient><linearGradient id="aL" x1="272.736" x2="276.594" y1="233.284" y2="231.935" gradientUnits="userSpaceOnUse"><stop stop-color="#FF797F"/><stop offset="1" stop-color="#FF587F"/></linearGradient><linearGradient id="aM" x1="272.736" x2="276.594" y1="233.284" y2="231.935" gradientUnits="userSpaceOnUse"><stop stop-color="#FF797F"/><stop offset="1" stop-color="#FF587F"/></linearGradient><linearGradient id="aN" x1="272.736" x2="276.594" y1="233.284" y2="231.935" gradientUnits="userSpaceOnUse"><stop stop-color="#FF797F"/><stop offset="1" stop-color="#FF587F"/></linearGradient><linearGradient id="aO" x1="276.926" x2="310.212" y1="243.802" y2="243.802" gradientUnits="userSpaceOnUse"><stop stop-color="#005D84"/><stop offset="1" stop-color="#4A989D"/></linearGradient><linearGradient id="aP" x1="279.308" x2="303.703" y1="242.969" y2="254.183" gradientUnits="userSpaceOnUse"><stop stop-color="#009877"/><stop offset="1" stop-color="#50D098"/></linearGradient><linearGradient id="aQ" x1="276.926" x2="310.212" y1="243.802" y2="243.802" gradientUnits="userSpaceOnUse"><stop stop-color="#005D84"/><stop offset="1" stop-color="#4A989D"/></linearGradient><linearGradient id="aR" x1="279.308" x2="303.703" y1="242.969" y2="254.183" gradientUnits="userSpaceOnUse"><stop stop-color="#009877"/><stop offset="1" stop-color="#50D098"/></linearGradient><linearGradient id="aS" x1="276.926" x2="310.212" y1="243.802" y2="243.802" gradientUnits="userSpaceOnUse"><stop stop-color="#005D84"/><stop offset="1" stop-color="#4A989D"/></linearGradient><linearGradient id="aT" x1="276.926" x2="310.212" y1="243.802" y2="243.802" gradientUnits="userSpaceOnUse"><stop stop-color="#005D84"/><stop offset="1" stop-color="#4A989D"/></linearGradient><linearGradient id="aU" x1="304.058" x2="307.916" y1="250.369" y2="249.02" gradientUnits="userSpaceOnUse"><stop stop-color="#8ED7C6"/><stop offset="1" stop-color="#56ADAB"/></linearGradient><linearGradient id="aV" x1="304.058" x2="307.916" y1="250.369" y2="249.02" gradientUnits="userSpaceOnUse"><stop stop-color="#FF797F"/><stop offset="1" stop-color="#FF587F"/></linearGradient><linearGradient id="aW" x1="304.058" x2="307.916" y1="250.369" y2="249.02" gradientUnits="userSpaceOnUse"><stop stop-color="#FF797F"/><stop offset="1" stop-color="#FF587F"/></linearGradient><linearGradient id="aX" x1="304.058" x2="307.916" y1="250.369" y2="249.02" gradientUnits="userSpaceOnUse"><stop stop-color="#FF797F"/><stop offset="1" stop-color="#FF587F"/></linearGradient><linearGradient id="aY" x1="7.519" x2="12.243" y1="2.954" y2="-13.672" gradientUnits="userSpaceOnUse"><stop stop-color="#FF797F"/><stop offset="1" stop-color="#FF587F"/></linearGradient><linearGradient id="aZ" x1="232.151" x2="242.788" y1="153.906" y2="153.906" gradientUnits="userSpaceOnUse"><stop stop-color="#005D84"/><stop offset="1" stop-color="#4A989D"/></linearGradient><linearGradient id="ba" x1="304.922" x2="316.166" y1="198.908" y2="201.254" gradientUnits="userSpaceOnUse"><stop stop-color="#009877"/><stop offset="1" stop-color="#50D098"/></linearGradient><linearGradient id="bc" x1=".761" x2="6.824" y1="4.431" y2="2.99" gradientUnits="userSpaceOnUse"><stop stop-color="#FF797F"/><stop offset="1" stop-color="#FF587F"/></linearGradient><linearGradient id="bd" x1=".761" x2="6.824" y1="4.431" y2="2.99" gradientUnits="userSpaceOnUse"><stop stop-color="#FF797F"/><stop offset="1" stop-color="#FF587F"/></linearGradient><linearGradient id="bf" x1="499.481" x2="531.774" y1="370.039" y2="378.541" gradientUnits="userSpaceOnUse"><stop stop-color="#009877"/><stop offset="1" stop-color="#50D098"/></linearGradient><linearGradient id="bg" x1="499.481" x2="531.774" y1="370.039" y2="378.541" gradientUnits="userSpaceOnUse"><stop stop-color="#009877"/><stop offset="1" stop-color="#50D098"/></linearGradient><linearGradient id="bh" x1="499.481" x2="531.774" y1="370.039" y2="378.541" gradientUnits="userSpaceOnUse"><stop stop-color="#009877"/><stop offset="1" stop-color="#50D098"/></linearGradient><linearGradient id="bi" x1="499.481" x2="531.774" y1="370.039" y2="378.541" gradientUnits="userSpaceOnUse"><stop stop-color="#009877"/><stop offset="1" stop-color="#50D098"/></linearGradient><linearGradient id="bj" x1="499.481" x2="531.774" y1="370.039" y2="378.541" gradientUnits="userSpaceOnUse"><stop stop-color="#009877"/><stop offset="1" stop-color="#50D098"/></linearGradient><linearGradient id="bk" x1="524.115" x2="553.716" y1="392.788" y2="383.293" gradientUnits="userSpaceOnUse"><stop stop-color="#FF797F"/><stop offset="1" stop-color="#FF587F"/></linearGradient><linearGradient id="bl" x1="524.115" x2="553.716" y1="392.788" y2="383.293" gradientUnits="userSpaceOnUse"><stop stop-color="#FF797F"/><stop offset="1" stop-color="#FF587F"/></linearGradient><linearGradient id="bm" x1="524.115" x2="553.716" y1="392.788" y2="383.293" gradientUnits="userSpaceOnUse"><stop stop-color="#FF797F"/><stop offset="1" stop-color="#FF587F"/></linearGradient><linearGradient id="bn" x1="524.115" x2="553.716" y1="392.788" y2="383.293" gradientUnits="userSpaceOnUse"><stop stop-color="#FF797F"/><stop offset="1" stop-color="#FF587F"/></linearGradient><linearGradient id="bo" x1="524.115" x2="553.716" y1="392.788" y2="383.293" gradientUnits="userSpaceOnUse"><stop stop-color="#FF797F"/><stop offset="1" stop-color="#FF587F"/></linearGradient><linearGradient id="bp" x1="477.692" x2="508.229" y1="389.485" y2="381.46" gradientUnits="userSpaceOnUse"><stop stop-color="#FF797F"/><stop offset="1" stop-color="#FF587F"/></linearGradient><linearGradient id="bq" x1="477.692" x2="508.229" y1="389.485" y2="381.46" gradientUnits="userSpaceOnUse"><stop stop-color="#FF797F"/><stop offset="1" stop-color="#FF587F"/></linearGradient><linearGradient id="br" x1="477.692" x2="508.229" y1="389.485" y2="381.46" gradientUnits="userSpaceOnUse"><stop stop-color="#FF797F"/><stop offset="1" stop-color="#FF587F"/></linearGradient><linearGradient id="bs" x1="477.692" x2="508.229" y1="389.485" y2="381.46" gradientUnits="userSpaceOnUse"><stop stop-color="#FF797F"/><stop offset="1" stop-color="#FF587F"/></linearGradient><linearGradient id="bt" x1="477.692" x2="508.229" y1="389.485" y2="381.46" gradientUnits="userSpaceOnUse"><stop stop-color="#FF797F"/><stop offset="1" stop-color="#FF587F"/></linearGradient><linearGradient id="bu" x1="477.692" x2="508.229" y1="389.485" y2="381.46" gradientUnits="userSpaceOnUse"><stop stop-color="#FF797F"/><stop offset="1" stop-color="#FF587F"/></linearGradient><linearGradient id="bv" x1="499.481" x2="532.301" y1="391.356" y2="398.85" gradientUnits="userSpaceOnUse"><stop stop-color="#009877"/><stop offset="1" stop-color="#50D098"/></linearGradient><linearGradient id="bw" x1="499.481" x2="532.301" y1="391.356" y2="398.85" gradientUnits="userSpaceOnUse"><stop stop-color="#009877"/><stop offset="1" stop-color="#50D098"/></linearGradient><linearGradient id="bx" x1="499.481" x2="532.301" y1="391.356" y2="398.85" gradientUnits="userSpaceOnUse"><stop stop-color="#009877"/><stop offset="1" stop-color="#50D098"/></linearGradient><linearGradient id="by" x1="499.481" x2="532.301" y1="391.356" y2="398.85" gradientUnits="userSpaceOnUse"><stop stop-color="#009877"/><stop offset="1" stop-color="#50D098"/></linearGradient><linearGradient id="bz" x1="499.481" x2="532.301" y1="391.356" y2="398.85" gradientUnits="userSpaceOnUse"><stop stop-color="#009877"/><stop offset="1" stop-color="#50D098"/></linearGradient><linearGradient id="bA" x1="492.567" x2="531.915" y1="312.97" y2="326.373" gradientUnits="userSpaceOnUse"><stop stop-color="#009877"/><stop offset="1" stop-color="#50D098"/></linearGradient><linearGradient id="bB" x1="493.972" x2="532.31" y1="318.212" y2="307.174" gradientUnits="userSpaceOnUse"><stop stop-color="#8ED7C6"/><stop offset="1" stop-color="#56ADAB"/></linearGradient><linearGradient id="bC" x1="493.972" x2="532.31" y1="318.212" y2="307.174" gradientUnits="userSpaceOnUse"><stop stop-color="#8ED7C6"/><stop offset="1" stop-color="#56ADAB"/></linearGradient><linearGradient id="bD" x1="492.052" x2="497.653" y1="306.114" y2="307.334" gradientUnits="userSpaceOnUse"><stop stop-color="#009877"/><stop offset="1" stop-color="#50D098"/></linearGradient><linearGradient id="bE" x1="492.052" x2="497.653" y1="306.114" y2="307.334" gradientUnits="userSpaceOnUse"><stop stop-color="#009877"/><stop offset="1" stop-color="#50D098"/></linearGradient><linearGradient id="bF" x1="420.131" x2="433.547" y1="406.598" y2="401.076" gradientUnits="userSpaceOnUse"><stop stop-color="#FF797F"/><stop offset="1" stop-color="#FF587F"/></linearGradient><linearGradient id="bG" x1="418.648" x2="422.084" y1="447.659" y2="447.539" gradientUnits="userSpaceOnUse"><stop stop-color="#FF7A7F"/><stop offset="1" stop-color="#FF577F"/></linearGradient><linearGradient id="bH" x1="421.001" x2="434.219" y1="429.139" y2="429.139" gradientUnits="userSpaceOnUse"><stop stop-color="#005D84"/><stop offset="1" stop-color="#4A989D"/></linearGradient><linearGradient id="bI" x1="415.54" x2="435.142" y1="385.229" y2="381.431" gradientUnits="userSpaceOnUse"><stop stop-color="#8ED7C6"/><stop offset="1" stop-color="#56ADAB"/></linearGradient><linearGradient id="bJ" x1="415.54" x2="435.142" y1="385.229" y2="381.431" gradientUnits="userSpaceOnUse"><stop stop-color="#8ED7C6"/><stop offset="1" stop-color="#56ADAB"/></linearGradient><linearGradient id="bK" x1="414.852" x2="435.291" y1="381.414" y2="386.099" gradientUnits="userSpaceOnUse"><stop stop-color="#009877"/><stop offset="1" stop-color="#50D098"/></linearGradient><linearGradient id="bM" x1="580.78" x2="599.473" y1="398.345" y2="398.345" gradientUnits="userSpaceOnUse"><stop stop-color="#005D84"/><stop offset="1" stop-color="#4A989D"/></linearGradient><linearGradient id="bN" x1="581.056" x2="583.353" y1="422.789" y2="422.753" gradientUnits="userSpaceOnUse"><stop stop-color="#FF797F"/><stop offset="1" stop-color="#FF587F"/></linearGradient><linearGradient id="bO" x1="583.518" x2="596.736" y1="421.831" y2="421.831" gradientUnits="userSpaceOnUse"><stop stop-color="#005D84"/><stop offset="1" stop-color="#4A989D"/></linearGradient><linearGradient id="bP" x1="577.838" x2="595.721" y1="378.455" y2="375.164" gradientUnits="userSpaceOnUse"><stop stop-color="#8ED7C6"/><stop offset="1" stop-color="#56ADAB"/></linearGradient><linearGradient id="bQ" x1="580.962" x2="598.085" y1="377.496" y2="374.548" gradientUnits="userSpaceOnUse"><stop stop-color="#FF797F"/><stop offset="1" stop-color="#FF587F"/></linearGradient><linearGradient id="bR" x1="580.962" x2="598.085" y1="377.496" y2="374.548" gradientUnits="userSpaceOnUse"><stop stop-color="#FF797F"/><stop offset="1" stop-color="#FF587F"/></linearGradient><clipPath id="a"><path fill="#fff" d="M532.28 130.367h97.934v186.966H532.28z"/></clipPath><clipPath id="z"><path fill="#fff" d="M459.147 249.287h54.691v44.516h-54.691z"/></clipPath><clipPath id="aw"><path fill="#fff" d="M228.938 143.722h89.031v133.547h-89.031z"/></clipPath><clipPath id="be"><path fill="#fff" d="M469.958 284.264h92.847v133.547h-92.847z"/></clipPath><clipPath id="bL"><path fill="#fff" d="M547.542 353.581h83.944v97.934h-83.944z"/></clipPath><filter id="bb" width="19.328" height="21.253" x="225.758" y="153.445" color-interpolation-filters="sRGB" filterUnits="userSpaceOnUse"><feFlood flood-opacity="0" result="BackgroundImageFix"/><feBlend in="SourceGraphic" in2="BackgroundImageFix" result="shape"/><feGaussianBlur result="effect1_foregroundBlur_152_6932" stdDeviation="3.18"/></filter></defs></svg>
