<svg xmlns="http://www.w3.org/2000/svg" viewBox="0 0 460 460" fill="none"><g fill="#fff" stroke="#000" clip-path="url(#a)"><circle cx="10" cy="10" r="10" transform="matrix(.86603 .5 -.86603 .5 44.121 312.187)"/><path d="M35.46 327.187c4.784 2.761 12.538 2.761 17.321 0v2.5c-4.782 2.761-12.537 2.761-17.32 0v-2.5Z"/><path d="M56.368 322.187c0 1.952-1.37 3.72-3.587 5v2.5c2.217-1.28 3.587-3.048 3.587-5v-2.5Z"/><circle cx="10" cy="10" r="10" transform="matrix(.86603 .5 -.86603 .5 88.121 286.187)"/><path d="M75.871 296.187c0 1.952 1.37 3.72 3.587 5v2.5c-2.216-1.28-3.587-3.048-3.587-5v-2.5ZM79.46 301.187c4.784 2.761 12.539 2.761 17.321 0v2.5c-4.782 2.761-12.537 2.761-17.32 0v-2.5ZM100.368 296.187c0 1.952-1.37 3.72-3.587 5v2.5c2.217-1.28 3.587-3.048 3.587-5v-2.5Z"/><circle cx="10" cy="10" r="10" transform="matrix(.86603 .5 -.86603 .5 131.121 261.187)"/><path d="M118.871 271.187c0 1.953 1.371 3.72 3.587 5v2.5c-2.216-1.28-3.587-3.047-3.587-5v-2.5ZM122.461 276.187c4.783 2.761 12.538 2.761 17.32 0v2.5c-4.782 2.761-12.537 2.761-17.32 0v-2.5ZM143.368 271.187c0 1.953-1.37 3.72-3.587 5v2.5c2.217-1.28 3.587-3.047 3.587-5v-2.5Z"/><circle cx="10" cy="10" r="10" transform="matrix(.86603 .5 -.86603 .5 174.121 237.187)"/><path d="M161.871 247.187c0 1.953 1.371 3.72 3.587 5v2.5c-2.216-1.28-3.587-3.047-3.587-5v-2.5ZM165.461 252.187c4.783 2.762 12.538 2.762 17.32 0v2.5c-4.782 2.762-12.537 2.762-17.32 0v-2.5ZM186.368 247.187c0 1.953-1.37 3.72-3.587 5v2.5c2.217-1.28 3.587-3.047 3.587-5v-2.5Z"/><circle cx="10" cy="10" r="10" transform="matrix(.86603 .5 -.86603 .5 218.117 211.187)"/><path d="M205.875 221.187c0 1.953 1.371 3.721 3.587 5v2.5c-2.216-1.279-3.587-3.047-3.587-5v-2.5Z"/><path d="M209.461 226.187c4.783 2.761 12.538 2.761 17.32 0v2.5c-4.782 2.761-12.537 2.761-17.32 0v-2.5ZM230.368 221.187c0 1.953-1.37 3.721-3.587 5v2.5c2.217-1.279 3.587-3.047 3.587-5v-2.5Z"/></g><path fill="#fff" stroke="#363636" stroke-width="1.697" d="M239.922 274.093c0-1.874 1.315-4.153 2.938-5.09l126.357-72.952c1.622-.937 2.938-.177 2.938 1.697v5.09c0 1.873-1.316 4.152-2.938 5.089L242.86 280.879c-1.623.937-2.938.177-2.938-1.697v-5.089Z"/><path fill="#fff" stroke="#363636" stroke-width="1.697" d="M0 0h118.759v5.09H0z" transform="matrix(.86603 .5 0 1 137.074 214.713)"/><path fill="#fff" stroke="#363636" stroke-width="1.697" d="M0 0h145.904v118.759H0z" transform="matrix(.86603 -.5 .86603 .5 140.012 209.624)"/><path fill="#fff" stroke="#363636" stroke-width="1.697" d="M239.922 279.182c0 .868.287 1.571.861 1.902l-102.848-59.379c-.574-.331-.861-1.034-.861-1.902l102.848 59.379ZM239.922 274.093c0-1.874 1.316-4.153 2.939-5.09l-102.848-59.379c-1.623.937-2.939 3.215-2.939 5.089l102.848 59.38ZM371.293 195.843c-.574-.332-1.326-.229-2.078.205l-102.848-59.379c.752-.434 1.504-.537 2.078-.206l102.848 59.38Z"/><path fill="#fff" stroke="#363636" stroke-width=".509" d="M158.453 203.282c.811-.468 2.127-.468 2.938 0l2.939 1.697c.811.468.811 1.228 0 1.696l-2.939 1.697c-.811.468-2.127.468-2.938 0l-2.939-1.697c-.811-.468-.811-1.228 0-1.696l2.939-1.697Z"/><path fill="#fff" stroke="#363636" stroke-width=".509" d="M0 0h3.393v3.393H0z" transform="matrix(.86603 .5 0 1 155.516 206.675)"/><path fill="#fff" stroke="#363636" stroke-width=".509" d="M0 0h3.393v3.393H0z" transform="matrix(.86603 -.5 0 1 161.387 208.372)"/><path fill="#fff" stroke="#363636" stroke-width=".509" d="M154.902 205.827c0 .331.233.631.609.848v3.393c-.376-.217-.609-.517-.609-.848v-3.393ZM158.449 208.372c.812.468 2.127.468 2.939 0v3.393c-.812.468-2.127.468-2.939 0v-3.393ZM164.937 205.827c0 .331-.233.631-.609.848v3.393c.376-.217.609-.517.609-.848v-3.393ZM170.328 196.495c.811-.469 2.127-.469 2.938 0l2.939 1.696c.811.469.811 1.229 0 1.697l-2.939 1.697c-.811.468-2.127.468-2.938 0l-2.939-1.697c-.811-.468-.811-1.228 0-1.697l2.939-1.696Z"/><path fill="#fff" stroke="#363636" stroke-width=".509" d="M0 0h3.393v3.393H0z" transform="matrix(.86603 .5 0 1 167.391 199.888)"/><path fill="#fff" stroke="#363636" stroke-width=".509" d="M0 0h3.393v3.393H0z" transform="matrix(.86603 -.5 0 1 173.266 201.585)"/><path fill="#fff" stroke="#363636" stroke-width=".509" d="M166.777 199.04c0 .331.233.631.609.848v3.393c-.376-.217-.609-.517-.609-.848v-3.393ZM170.324 201.585c.812.468 2.127.468 2.939 0v3.393c-.812.468-2.127.468-2.939 0v-3.393ZM176.812 199.04c0 .331-.233.631-.609.848v3.393c.376-.217.609-.517.609-.848v-3.393ZM182.207 189.707c.811-.468 2.127-.468 2.938 0l2.939 1.697c.811.468.811 1.228 0 1.696l-2.939 1.697c-.811.468-2.127.468-2.938 0l-2.939-1.697c-.811-.468-.811-1.228 0-1.696l2.939-1.697Z"/><path fill="#fff" stroke="#363636" stroke-width=".509" d="M0 0h3.393v3.393H0z" transform="matrix(.86603 .5 0 1 179.27 193.1)"/><path fill="#fff" stroke="#363636" stroke-width=".509" d="M0 0h3.393v3.393H0z" transform="matrix(.86603 -.5 0 1 185.145 194.797)"/><path fill="#fff" stroke="#363636" stroke-width=".509" d="M178.656 192.252c0 .331.233.631.609.848v3.393c-.376-.217-.609-.517-.609-.848v-3.393ZM182.203 194.797c.812.468 2.127.468 2.939 0v3.393c-.812.468-2.127.468-2.939 0v-3.393ZM188.687 192.252c0 .331-.233.631-.609.848v3.393c.376-.217.609-.517.609-.848v-3.393ZM194.082 182.924c.811-.468 2.127-.468 2.938 0l2.939 1.697c.811.468.811 1.228 0 1.696l-2.939 1.697c-.811.468-2.127.468-2.938 0l-2.939-1.697c-.811-.468-.811-1.228 0-1.696l2.939-1.697Z"/><path fill="#fff" stroke="#363636" stroke-width=".509" d="M0 0h3.393v3.393H0z" transform="matrix(.86603 .5 0 1 191.145 186.317)"/><path fill="#fff" stroke="#363636" stroke-width=".509" d="M0 0h3.393v3.393H0z" transform="matrix(.86603 -.5 0 1 197.02 188.014)"/><path fill="#fff" stroke="#363636" stroke-width=".509" d="M190.531 185.469c0 .331.233.631.609.848v3.393c-.376-.217-.609-.517-.609-.848v-3.393ZM194.078 188.014c.812.468 2.127.468 2.939 0v3.393c-.812.468-2.127.468-2.939 0v-3.393ZM200.562 185.469c0 .331-.233.631-.609.848v3.393c.376-.217.609-.517.609-.848v-3.393ZM205.953 176.137c.811-.469 2.127-.469 2.938 0l2.939 1.696c.811.469.811 1.228 0 1.697l-2.939 1.696c-.811.469-2.127.469-2.938 0l-2.939-1.696c-.811-.469-.811-1.228 0-1.697l2.939-1.696Z"/><path fill="#fff" stroke="#363636" stroke-width=".509" d="M0 0h3.393v3.393H0z" transform="matrix(.86603 .5 0 1 203.016 179.53)"/><path fill="#fff" stroke="#363636" stroke-width=".509" d="M0 0h3.393v3.393H0z" transform="matrix(.86603 -.5 0 1 208.895 181.226)"/><path fill="#fff" stroke="#363636" stroke-width=".509" d="M202.402 178.682c0 .331.233.631.609.848v3.393c-.376-.217-.609-.517-.609-.848v-3.393ZM205.949 181.226c.812.469 2.127.469 2.939 0v3.394c-.812.468-2.127.468-2.939 0v-3.394ZM212.437 178.682c0 .331-.233.631-.609.848v3.393c.376-.217.609-.517.609-.848v-3.393ZM217.828 169.349c.811-.468 2.127-.468 2.938 0l2.939 1.697c.811.469.811 1.228 0 1.697l-2.939 1.696c-.811.469-2.127.469-2.938 0l-2.939-1.696c-.811-.469-.811-1.228 0-1.697l2.939-1.697Z"/><path fill="#fff" stroke="#363636" stroke-width=".509" d="M0 0h3.393v3.393H0z" transform="matrix(.86603 .5 0 1 214.891 172.742)"/><path fill="#fff" stroke="#363636" stroke-width=".509" d="M0 0h3.393v3.393H0z" transform="matrix(.86603 -.5 0 1 220.77 174.439)"/><path fill="#fff" stroke="#363636" stroke-width=".509" d="M214.277 171.894c0 .332.233.631.609.849v3.393c-.376-.217-.609-.517-.609-.849v-3.393ZM217.824 174.439c.812.469 2.127.469 2.939 0v3.393c-.812.469-2.127.469-2.939 0v-3.393ZM224.312 171.894c0 .332-.233.631-.609.849v3.393c.376-.217.609-.517.609-.849v-3.393ZM229.707 162.562c.811-.468 2.127-.468 2.938 0l2.939 1.697c.811.468.811 1.228 0 1.696l-2.939 1.697c-.811.468-2.127.468-2.938 0l-2.939-1.697c-.811-.468-.811-1.228 0-1.696l2.939-1.697Z"/><path fill="#fff" stroke="#363636" stroke-width=".509" d="M0 0h3.393v3.393H0z" transform="matrix(.86603 .5 0 1 226.77 165.955)"/><path fill="#fff" stroke="#363636" stroke-width=".509" d="M0 0h3.393v3.393H0z" transform="matrix(.86603 -.5 0 1 232.648 167.652)"/><path fill="#fff" stroke="#363636" stroke-width=".509" d="M226.156 165.107c0 .331.233.631.609.848v3.393c-.376-.217-.609-.517-.609-.848v-3.393ZM229.703 167.652c.812.468 2.127.468 2.939 0v3.393c-.812.469-2.127.469-2.939 0v-3.393ZM236.191 165.107c0 .331-.233.631-.609.848v3.393c.376-.217.609-.517.609-.848v-3.393ZM241.582 155.779c.811-.468 2.127-.468 2.938 0l2.939 1.697c.811.468.811 1.228 0 1.696l-2.939 1.697c-.811.468-2.127.468-2.938 0l-2.939-1.697c-.811-.468-.811-1.228 0-1.696l2.939-1.697Z"/><path fill="#fff" stroke="#363636" stroke-width=".509" d="M0 0h3.393v3.393H0z" transform="matrix(.86603 .5 0 1 238.645 159.172)"/><path fill="#fff" stroke="#363636" stroke-width=".509" d="M0 0h3.393v3.393H0z" transform="matrix(.86603 -.5 0 1 244.523 160.869)"/><path fill="#fff" stroke="#363636" stroke-width=".509" d="M238.031 158.324c0 .331.233.631.609.848v3.393c-.376-.217-.609-.517-.609-.848v-3.393ZM241.582 160.869c.811.468 2.127.468 2.939 0v3.393c-.812.468-2.128.468-2.939 0v-3.393ZM248.066 158.324c0 .331-.233.631-.609.848v3.393c.376-.217.609-.517.609-.848v-3.393ZM253.457 148.991c.811-.468 2.127-.468 2.938 0l2.939 1.697c.811.468.811 1.228 0 1.697l-2.939 1.696c-.811.469-2.127.469-2.938 0l-2.939-1.696c-.811-.469-.811-1.229 0-1.697l2.939-1.697Z"/><path fill="#fff" stroke="#363636" stroke-width=".509" d="M0 0h3.393v3.393H0z" transform="matrix(.86603 .5 0 1 250.52 152.384)"/><path fill="#fff" stroke="#363636" stroke-width=".509" d="M0 0h3.393v3.393H0z" transform="matrix(.86603 -.5 0 1 256.398 154.081)"/><path fill="#fff" stroke="#363636" stroke-width=".509" d="M249.906 151.536c0 .331.233.631.609.848v3.394c-.376-.218-.609-.517-.609-.849v-3.393ZM253.457 154.081c.811.469 2.127.469 2.939 0v3.393c-.812.469-2.128.469-2.939 0v-3.393ZM259.941 151.536c0 .331-.233.631-.609.848v3.394c.376-.218.609-.517.609-.849v-3.393ZM265.335 142.204c.812-.468 2.127-.468 2.939 0l2.938 1.697c.812.468.812 1.228 0 1.696l-2.938 1.697c-.812.468-2.127.468-2.939 0l-2.938-1.697c-.812-.468-.812-1.228 0-1.696l2.938-1.697Z"/><path fill="#fff" stroke="#363636" stroke-width=".509" d="M0 0h3.393v3.393H0z" transform="matrix(.86603 .5 0 1 262.398 145.597)"/><path fill="#fff" stroke="#363636" stroke-width=".509" d="M0 0h3.393v3.393H0z" transform="matrix(.86603 -.5 0 1 268.277 147.294)"/><path fill="#fff" stroke="#363636" stroke-width=".509" d="M261.785 144.749c0 .331.233.631.609.848v3.393c-.376-.217-.609-.517-.609-.848v-3.393ZM265.336 147.294c.811.468 2.127.468 2.938 0v3.393c-.811.468-2.127.468-2.938 0v-3.393ZM271.82 144.749c0 .331-.233.631-.609.848v3.393c.376-.217.609-.517.609-.848v-3.393ZM173.718 213.461c.812-.468 2.127-.468 2.939 0l2.938 1.697c.812.468.812 1.228 0 1.696l-2.938 1.697c-.812.468-2.127.468-2.939 0l-2.938-1.697c-.812-.468-.812-1.228 0-1.696l2.938-1.697Z"/><path fill="#fff" stroke="#363636" stroke-width=".509" d="M0 0h3.393v3.393H0z" transform="matrix(.86603 .5 0 1 170.781 216.854)"/><path fill="#fff" stroke="#363636" stroke-width=".509" d="M0 0h3.393v3.393H0z" transform="matrix(.86603 -.5 0 1 176.66 218.551)"/><path fill="#fff" stroke="#363636" stroke-width=".509" d="M170.168 216.006c0 .331.233.631.609.848v3.393c-.376-.217-.609-.517-.609-.848v-3.393ZM173.719 218.551c.811.468 2.127.468 2.938 0v3.393c-.811.468-2.127.468-2.938 0v-3.393ZM180.202 216.006c0 .331-.232.631-.608.848v3.393c.376-.217.608-.517.608-.848v-3.393ZM185.593 206.674c.812-.469 2.127-.469 2.939 0l2.938 1.696c.812.469.812 1.228 0 1.697l-2.938 1.696c-.812.469-2.127.469-2.939 0l-2.938-1.696c-.812-.469-.812-1.228 0-1.697l2.938-1.696Z"/><path fill="#fff" stroke="#363636" stroke-width=".509" d="M0 0h3.393v3.393H0z" transform="matrix(.86603 .5 0 1 182.656 210.067)"/><path fill="#fff" stroke="#363636" stroke-width=".509" d="M0 0h3.393v3.393H0z" transform="matrix(.86603 -.5 0 1 188.535 211.763)"/><path fill="#fff" stroke="#363636" stroke-width=".509" d="M182.043 209.219c0 .331.233.631.609.848v3.393c-.376-.217-.609-.517-.609-.848v-3.393ZM185.594 211.763c.811.469 2.127.469 2.938 0v3.394c-.811.468-2.127.468-2.938 0v-3.394ZM192.077 209.219c0 .331-.232.631-.608.848v3.393c.376-.217.608-.517.608-.848v-3.393ZM197.472 199.886c.812-.468 2.127-.468 2.939 0l2.938 1.697c.812.469.812 1.228 0 1.697l-2.938 1.696c-.812.469-2.127.469-2.939 0l-2.938-1.696c-.812-.469-.812-1.228 0-1.697l2.938-1.697Z"/><path fill="#fff" stroke="#363636" stroke-width=".509" d="M0 0h3.393v3.393H0z" transform="matrix(.86603 .5 0 1 194.535 203.279)"/><path fill="#fff" stroke="#363636" stroke-width=".509" d="M0 0h3.393v3.393H0z" transform="matrix(.86603 -.5 0 1 200.414 204.976)"/><path fill="#fff" stroke="#363636" stroke-width=".509" d="M193.922 202.431c0 .332.232.632.608.849v3.393c-.376-.217-.608-.517-.608-.849v-3.393ZM197.473 204.976c.811.469 2.127.469 2.938 0v3.393c-.811.469-2.127.469-2.938 0v-3.393ZM203.956 202.431c0 .332-.232.632-.608.849v3.393c.376-.217.608-.517.608-.849v-3.393ZM209.351 193.103c.812-.469 2.127-.469 2.939 0l2.938 1.696c.812.469.812 1.228 0 1.697l-2.938 1.697c-.812.468-2.127.468-2.939 0l-2.938-1.697c-.812-.469-.812-1.228 0-1.697l2.938-1.696Z"/><path fill="#fff" stroke="#363636" stroke-width=".509" d="M0 0h3.393v3.393H0z" transform="matrix(.86603 .5 0 1 206.414 196.496)"/><path fill="#fff" stroke="#363636" stroke-width=".509" d="M0 0h3.393v3.393H0z" transform="matrix(.86603 -.5 0 1 212.293 198.193)"/><path fill="#fff" stroke="#363636" stroke-width=".509" d="M205.801 195.648c0 .331.232.631.608.848v3.393c-.376-.217-.608-.517-.608-.848v-3.393ZM209.352 198.193c.811.468 2.127.468 2.938 0v3.393c-.811.468-2.127.468-2.938 0v-3.393ZM215.835 195.648c0 .331-.232.631-.608.848v3.393c.376-.217.608-.517.608-.848v-3.393ZM221.226 186.316c.812-.468 2.127-.468 2.939 0l2.938 1.697c.812.468.812 1.228 0 1.696l-2.938 1.697c-.812.468-2.127.468-2.939 0l-2.938-1.697c-.812-.468-.812-1.228 0-1.696l2.938-1.697Z"/><path fill="#fff" stroke="#363636" stroke-width=".509" d="M0 0h3.393v3.393H0z" transform="matrix(.86603 .5 0 1 218.289 189.709)"/><path fill="#fff" stroke="#363636" stroke-width=".509" d="M0 0h3.393v3.393H0z" transform="matrix(.86603 -.5 0 1 224.164 191.406)"/><path fill="#fff" stroke="#363636" stroke-width=".509" d="M217.676 188.861c0 .331.232.631.608.848v3.393c-.376-.217-.608-.517-.608-.848v-3.393ZM221.227 191.406c.811.468 2.127.468 2.938 0v3.393c-.811.468-2.127.468-2.938 0v-3.393ZM227.706 188.861c0 .331-.232.631-.608.848v3.393c.376-.217.608-.517.608-.848v-3.393ZM233.097 179.528c.812-.468 2.127-.468 2.939 0l2.938 1.697c.812.468.812 1.228 0 1.696l-2.938 1.697c-.812.468-2.127.468-2.939 0l-2.938-1.697c-.812-.468-.812-1.228 0-1.696l2.938-1.697Z"/><path fill="#fff" stroke="#363636" stroke-width=".509" d="M0 0h3.393v3.393H0z" transform="matrix(.86603 .5 0 1 230.16 182.921)"/><path fill="#fff" stroke="#363636" stroke-width=".509" d="M0 0h3.393v3.393H0z" transform="matrix(.86603 -.5 0 1 236.039 184.618)"/><path fill="#fff" stroke="#363636" stroke-width=".509" d="M229.551 182.073c0 .331.232.631.608.848v3.393c-.376-.217-.608-.517-.608-.848v-3.393ZM233.098 184.618c.811.469 2.127.469 2.938 0v3.393c-.811.469-2.127.469-2.938 0v-3.393ZM239.585 182.073c0 .331-.232.631-.608.848v3.393c.376-.217.608-.517.608-.848v-3.393ZM244.976 172.741c.812-.468 2.127-.468 2.939 0l2.938 1.697c.812.468.812 1.228 0 1.696l-2.938 1.697c-.812.468-2.127.468-2.939 0l-2.938-1.697c-.812-.468-.812-1.228 0-1.696l2.938-1.697Z"/><path fill="#fff" stroke="#363636" stroke-width=".509" d="M0 0h3.393v3.393H0z" transform="matrix(.86603 .5 0 1 242.039 176.134)"/><path fill="#fff" stroke="#363636" stroke-width=".509" d="M0 0h3.393v3.393H0z" transform="matrix(.86603 -.5 0 1 247.918 177.831)"/><path fill="#fff" stroke="#363636" stroke-width=".509" d="M241.43 175.286c0 .331.232.631.608.848v3.393c-.376-.217-.608-.517-.608-.848v-3.393ZM244.977 177.831c.811.468 2.127.468 2.938 0v3.393c-.811.468-2.127.468-2.938 0v-3.393ZM251.464 175.286c0 .331-.233.631-.609.848v3.393c.376-.217.609-.517.609-.848v-3.393ZM256.855 165.958c.811-.469 2.127-.469 2.938 0l2.939 1.697c.811.468.811 1.228 0 1.696l-2.939 1.697c-.811.468-2.127.468-2.938 0l-2.939-1.697c-.811-.468-.811-1.228 0-1.696l2.939-1.697Z"/><path fill="#fff" stroke="#363636" stroke-width=".509" d="M0 0h3.393v3.393H0z" transform="matrix(.86603 .5 0 1 253.914 169.351)"/><path fill="#fff" stroke="#363636" stroke-width=".509" d="M0 0h3.393v3.393H0z" transform="matrix(.86603 -.5 0 1 259.793 171.048)"/><path fill="#fff" stroke="#363636" stroke-width=".509" d="M253.305 168.503c0 .331.232.631.608.848v3.393c-.376-.217-.608-.517-.608-.848v-3.393ZM256.852 171.048c.811.468 2.127.468 2.938 0v3.393c-.811.468-2.127.468-2.938 0v-3.393ZM263.339 168.503c0 .331-.233.631-.609.848v3.393c.376-.217.609-.517.609-.848v-3.393ZM268.734 159.17c.811-.468 2.127-.468 2.938 0l2.939 1.697c.811.468.811 1.228 0 1.696l-2.939 1.697c-.811.468-2.127.468-2.938 0l-2.939-1.697c-.811-.468-.811-1.228 0-1.696l2.939-1.697Z"/><path fill="#fff" stroke="#363636" stroke-width=".509" d="M0 0h3.393v3.393H0z" transform="matrix(.86603 .5 0 1 265.793 162.563)"/><path fill="#fff" stroke="#363636" stroke-width=".509" d="M0 0h3.393v3.393H0z" transform="matrix(.86603 -.5 0 1 271.672 164.26)"/><path fill="#fff" stroke="#363636" stroke-width=".509" d="M265.184 161.715c0 .331.232.631.608.848v3.393c-.376-.217-.608-.517-.608-.848v-3.393ZM268.73 164.26c.812.468 2.128.468 2.939 0v3.393c-.811.468-2.127.468-2.939 0v-3.393ZM275.218 161.715c0 .331-.233.631-.609.848v3.393c.376-.217.609-.517.609-.848v-3.393ZM280.605 152.383c.811-.468 2.127-.468 2.938 0l2.939 1.697c.811.468.811 1.228 0 1.696l-2.939 1.697c-.811.469-2.127.469-2.938 0l-2.939-1.697c-.811-.468-.811-1.228 0-1.696l2.939-1.697Z"/><path fill="#fff" stroke="#363636" stroke-width=".509" d="M0 0h3.393v3.393H0z" transform="matrix(.86603 .5 0 1 277.668 155.776)"/><path fill="#fff" stroke="#363636" stroke-width=".509" d="M0 0h3.393v3.393H0z" transform="matrix(.86603 -.5 0 1 283.543 157.473)"/><path fill="#fff" stroke="#363636" stroke-width=".509" d="M277.055 154.928c0 .331.232.631.608.848v3.394c-.376-.218-.608-.517-.608-.849v-3.393ZM280.602 157.473c.811.469 2.127.469 2.938 0v3.393c-.811.469-2.127.469-2.938 0v-3.393ZM287.089 154.928c0 .331-.233.631-.609.848v3.394c.376-.218.609-.517.609-.849v-3.393ZM185.593 220.249c.812-.469 2.127-.469 2.939 0l2.938 1.696c.812.469.812 1.228 0 1.697l-2.938 1.696c-.812.469-2.127.469-2.939 0l-2.938-1.696c-.812-.469-.812-1.228 0-1.697l2.938-1.696Z"/><path fill="#fff" stroke="#363636" stroke-width=".509" d="M0 0h3.393v3.393H0z" transform="matrix(.86603 .5 0 1 182.656 223.642)"/><path fill="#fff" stroke="#363636" stroke-width=".509" d="M0 0h3.393v3.393H0z" transform="matrix(.86603 -.5 0 1 188.535 225.338)"/><path fill="#fff" stroke="#363636" stroke-width=".509" d="M182.043 222.793c0 .332.233.632.609.849v3.393c-.376-.217-.609-.517-.609-.848v-3.394ZM185.594 225.338c.811.469 2.127.469 2.938 0v3.393c-.811.469-2.127.469-2.938 0v-3.393ZM192.077 222.793c0 .332-.232.632-.608.849v3.393c.376-.217.608-.517.608-.848v-3.394ZM197.472 213.462c.812-.469 2.127-.469 2.939 0l2.938 1.696c.812.469.812 1.228 0 1.697l-2.938 1.697c-.812.468-2.127.468-2.939 0l-2.938-1.697c-.812-.469-.812-1.228 0-1.697l2.938-1.696Z"/><path fill="#fff" stroke="#363636" stroke-width=".509" d="M0 0h3.393v3.393H0z" transform="matrix(.86603 .5 0 1 194.535 216.855)"/><path fill="#fff" stroke="#363636" stroke-width=".509" d="M0 0h3.393v3.393H0z" transform="matrix(.86603 -.5 0 1 200.414 218.552)"/><path fill="#fff" stroke="#363636" stroke-width=".509" d="M193.922 216.007c0 .331.232.631.608.848v3.393c-.376-.217-.608-.517-.608-.848v-3.393ZM197.473 218.552c.811.468 2.127.468 2.938 0v3.393c-.811.468-2.127.468-2.938 0v-3.393ZM203.956 216.007c0 .331-.232.631-.608.848v3.393c.376-.217.608-.517.608-.848v-3.393ZM209.351 206.675c.812-.469 2.127-.469 2.939 0l2.938 1.696c.812.469.812 1.228 0 1.697l-2.938 1.696c-.812.469-2.127.469-2.939 0l-2.938-1.696c-.812-.469-.812-1.228 0-1.697l2.938-1.696Z"/><path fill="#fff" stroke="#363636" stroke-width=".509" d="M0 0h3.393v3.393H0z" transform="matrix(.86603 .5 0 1 206.414 210.068)"/><path fill="#fff" stroke="#363636" stroke-width=".509" d="M0 0h3.393v3.393H0z" transform="matrix(.86603 -.5 0 1 212.293 211.764)"/><path fill="#fff" stroke="#363636" stroke-width=".509" d="M205.801 209.219c0 .332.232.632.608.849v3.393c-.376-.217-.608-.517-.608-.849v-3.393ZM209.352 211.764c.811.469 2.127.469 2.938 0v3.393c-.811.469-2.127.469-2.938 0v-3.393ZM215.835 209.219c0 .332-.232.632-.608.849v3.393c.376-.217.608-.517.608-.849v-3.393ZM221.222 199.887c.812-.469 2.127-.469 2.939 0l2.938 1.696c.812.469.812 1.228 0 1.697l-2.938 1.696c-.812.469-2.127.469-2.939 0l-2.938-1.696c-.812-.469-.812-1.228 0-1.697l2.938-1.696Z"/><path fill="#fff" stroke="#363636" stroke-width=".509" d="M0 0h3.393v3.393H0z" transform="matrix(.86603 .5 0 1 218.285 203.28)"/><path fill="#fff" stroke="#363636" stroke-width=".509" d="M0 0h3.393v3.393H0z" transform="matrix(.86603 -.5 0 1 224.16 204.977)"/><path fill="#fff" stroke="#363636" stroke-width=".509" d="M217.676 202.432c0 .331.232.631.608.848v3.393c-.376-.217-.608-.517-.608-.848v-3.393ZM221.223 204.977c.811.468 2.127.468 2.938 0v3.393c-.811.468-2.127.468-2.938 0v-3.393ZM227.706 202.432c0 .331-.232.631-.608.848v3.393c.376-.217.608-.517.608-.848v-3.393ZM233.097 193.104c.812-.469 2.127-.469 2.939 0l2.938 1.696c.812.469.812 1.228 0 1.697l-2.938 1.696c-.812.469-2.127.469-2.939 0l-2.938-1.696c-.812-.469-.812-1.228 0-1.697l2.938-1.696Z"/><path fill="#fff" stroke="#363636" stroke-width=".509" d="M0 0h3.393v3.393H0z" transform="matrix(.86603 .5 0 1 230.16 196.497)"/><path fill="#fff" stroke="#363636" stroke-width=".509" d="M0 0h3.393v3.393H0z" transform="matrix(.86603 -.5 0 1 236.039 198.193)"/><path fill="#fff" stroke="#363636" stroke-width=".509" d="M229.551 195.649c0 .331.232.631.608.848v3.393c-.376-.217-.608-.517-.608-.848v-3.393ZM233.098 198.193c.811.469 2.127.469 2.938 0v3.394c-.811.468-2.127.468-2.938 0v-3.394ZM239.585 195.649c0 .331-.232.631-.608.848v3.393c.376-.217.608-.517.608-.848v-3.393ZM244.976 186.317c.812-.469 2.127-.469 2.939 0l2.938 1.696c.812.469.812 1.229 0 1.697l-2.938 1.697c-.812.468-2.127.468-2.939 0l-2.938-1.697c-.812-.468-.812-1.228 0-1.697l2.938-1.696Z"/><path fill="#fff" stroke="#363636" stroke-width=".509" d="M0 0h3.393v3.393H0z" transform="matrix(.86603 .5 0 1 242.035 189.71)"/><path fill="#fff" stroke="#363636" stroke-width=".509" d="M0 0h3.393v3.393H0z" transform="matrix(.86603 -.5 0 1 247.914 191.407)"/><path fill="#fff" stroke="#363636" stroke-width=".509" d="M241.426 188.862c0 .331.232.631.608.848v3.393c-.376-.217-.608-.517-.608-.848v-3.393ZM244.973 191.407c.811.468 2.127.468 2.938 0v3.393c-.811.468-2.127.468-2.938 0v-3.393ZM251.46 188.862c0 .331-.232.631-.608.848v3.393c.376-.217.608-.517.608-.848v-3.393ZM256.855 179.529c.811-.468 2.127-.468 2.938 0l2.939 1.697c.811.468.811 1.228 0 1.696l-2.939 1.697c-.811.468-2.127.468-2.938 0l-2.939-1.697c-.811-.468-.811-1.228 0-1.696l2.939-1.697Z"/><path fill="#fff" stroke="#363636" stroke-width=".509" d="M0 0h3.393v3.393H0z" transform="matrix(.86603 .5 0 1 253.914 182.922)"/><path fill="#fff" stroke="#363636" stroke-width=".509" d="M0 0h3.393v3.393H0z" transform="matrix(.86603 -.5 0 1 259.793 184.619)"/><path fill="#fff" stroke="#363636" stroke-width=".509" d="M253.305 182.074c0 .331.232.631.608.848v3.393c-.376-.217-.608-.517-.608-.848v-3.393ZM256.852 184.619c.811.468 2.127.468 2.938 0v3.393c-.811.468-2.127.468-2.938 0v-3.393ZM263.339 182.074c0 .331-.233.631-.609.848v3.393c.376-.217.609-.517.609-.848v-3.393ZM268.73 172.742c.811-.469 2.127-.469 2.938 0l2.939 1.696c.811.469.811 1.229 0 1.697l-2.939 1.697c-.811.468-2.127.468-2.938 0l-2.939-1.697c-.811-.468-.811-1.228 0-1.697l2.939-1.696Z"/><path fill="#fff" stroke="#363636" stroke-width=".509" d="M0 0h3.393v3.393H0z" transform="matrix(.86603 .5 0 1 265.793 176.135)"/><path fill="#fff" stroke="#363636" stroke-width=".509" d="M0 0h3.393v3.393H0z" transform="matrix(.86603 -.5 0 1 271.668 177.832)"/><path fill="#fff" stroke="#363636" stroke-width=".509" d="M265.18 175.287c0 .331.232.631.608.848v3.393c-.376-.217-.608-.517-.608-.848v-3.393ZM268.727 177.832c.811.468 2.127.468 2.938 0v3.393c-.811.468-2.127.468-2.938 0v-3.393ZM275.214 175.287c0 .331-.233.631-.609.848v3.393c.376-.217.609-.517.609-.848v-3.393ZM280.605 165.959c.811-.469 2.127-.469 2.938 0l2.939 1.696c.811.469.811 1.228 0 1.697l-2.939 1.696c-.811.469-2.127.469-2.938 0l-2.939-1.696c-.811-.469-.811-1.228 0-1.697l2.939-1.696Z"/><path fill="#fff" stroke="#363636" stroke-width=".509" d="M0 0h3.393v3.393H0z" transform="matrix(.86603 .5 0 1 277.668 169.352)"/><path fill="#fff" stroke="#363636" stroke-width=".509" d="M0 0h3.393v3.393H0z" transform="matrix(.86603 -.5 0 1 283.543 171.049)"/><path fill="#fff" stroke="#363636" stroke-width=".509" d="M277.055 168.504c0 .331.232.631.608.848v3.393c-.376-.217-.608-.517-.608-.848v-3.393ZM280.602 171.049c.811.468 2.127.468 2.938 0v3.393c-.811.468-2.127.468-2.938 0v-3.393ZM287.089 168.504c0 .331-.233.631-.609.848v3.393c.376-.217.609-.517.609-.848v-3.393ZM292.48 159.171c.811-.468 2.127-.468 2.938 0l2.939 1.697c.811.468.811 1.228 0 1.696l-2.939 1.697c-.811.468-2.127.468-2.938 0l-2.939-1.697c-.811-.468-.811-1.228 0-1.696l2.939-1.697Z"/><path fill="#fff" stroke="#363636" stroke-width=".509" d="M0 0h3.393v3.393H0z" transform="matrix(.86603 .5 0 1 289.543 162.564)"/><path fill="#fff" stroke="#363636" stroke-width=".509" d="M0 0h3.393v3.393H0z" transform="matrix(.86603 -.5 0 1 295.418 164.261)"/><path fill="#fff" stroke="#363636" stroke-width=".509" d="M288.93 161.716c0 .331.232.631.608.848v3.393c-.376-.217-.608-.517-.608-.848v-3.393ZM292.477 164.261c.811.468 2.127.468 2.938 0v3.393c-.811.468-2.127.468-2.938 0v-3.393ZM298.964 161.716c0 .331-.233.631-.609.848v3.393c.376-.217.609-.517.609-.848v-3.393ZM199.175 227.034c.812-.469 2.127-.469 2.939 0l2.938 1.696c.812.469.812 1.228 0 1.697l-2.938 1.696c-.812.469-2.127.469-2.939 0l-2.938-1.696c-.812-.469-.812-1.228 0-1.697l2.938-1.696Z"/><path fill="#fff" stroke="#363636" stroke-width=".509" d="M0 0h3.393v3.393H0z" transform="matrix(.86603 .5 0 1 196.238 230.427)"/><path fill="#fff" stroke="#363636" stroke-width=".509" d="M0 0h3.393v3.393H0z" transform="matrix(.86603 -.5 0 1 202.113 232.123)"/><path fill="#fff" stroke="#363636" stroke-width=".509" d="M195.625 229.578c0 .332.233.632.609.849v3.393c-.376-.217-.609-.517-.609-.849v-3.393ZM199.176 232.123c.811.469 2.127.469 2.938 0v3.393c-.811.469-2.127.469-2.938 0v-3.393ZM205.659 229.578c0 .332-.232.632-.608.849v3.393c.376-.217.608-.517.608-.849v-3.393ZM211.046 220.25c.812-.468 2.127-.468 2.939 0l2.938 1.697c.812.468.812 1.228 0 1.697l-2.938 1.696c-.812.469-2.127.469-2.939 0l-2.938-1.696c-.812-.469-.812-1.229 0-1.697l2.938-1.697Z"/><path fill="#fff" stroke="#363636" stroke-width=".509" d="M0 0h3.393v3.393H0z" transform="matrix(.86603 .5 0 1 208.109 223.643)"/><path fill="#fff" stroke="#363636" stroke-width=".509" d="M0 0h3.393v3.393H0z" transform="matrix(.86603 -.5 0 1 213.984 225.34)"/><path fill="#fff" stroke="#363636" stroke-width=".509" d="M207.5 222.795c0 .331.233.631.609.849v3.393c-.376-.217-.609-.517-.609-.849v-3.393ZM211.047 225.34c.811.469 2.127.469 2.938 0v3.393c-.811.469-2.127.469-2.938 0v-3.393ZM217.53 222.795c0 .331-.232.631-.608.849v3.393c.376-.217.608-.517.608-.849v-3.393ZM222.925 213.463c.812-.468 2.127-.468 2.939 0l2.938 1.697c.812.468.812 1.228 0 1.696l-2.938 1.697c-.812.468-2.127.468-2.939 0l-2.938-1.697c-.812-.468-.812-1.228 0-1.696l2.938-1.697Z"/><path fill="#fff" stroke="#363636" stroke-width=".509" d="M0 0h3.393v3.393H0z" transform="matrix(.86603 .5 0 1 219.984 216.856)"/><path fill="#fff" stroke="#363636" stroke-width=".509" d="M0 0h3.393v3.393H0z" transform="matrix(.86603 -.5 0 1 225.863 218.553)"/><path fill="#fff" stroke="#363636" stroke-width=".509" d="M219.375 216.008c0 .331.233.631.609.848v3.393c-.376-.217-.609-.517-.609-.848v-3.393ZM222.922 218.553c.811.468 2.127.468 2.938 0v3.393c-.811.468-2.127.468-2.938 0v-3.393ZM229.409 216.008c0 .331-.232.631-.608.848v3.393c.376-.217.608-.517.608-.848v-3.393ZM234.804 206.676c.812-.469 2.127-.469 2.939 0l2.938 1.697c.812.468.812 1.228 0 1.696l-2.938 1.697c-.812.468-2.127.468-2.939 0l-2.938-1.697c-.812-.468-.812-1.228 0-1.696l2.938-1.697Z"/><path fill="#fff" stroke="#363636" stroke-width=".509" d="M0 0h3.393v3.393H0z" transform="matrix(.86603 .5 0 1 231.863 210.069)"/><path fill="#fff" stroke="#363636" stroke-width=".509" d="M0 0h3.393v3.393H0z" transform="matrix(.86603 -.5 0 1 237.742 211.766)"/><path fill="#fff" stroke="#363636" stroke-width=".509" d="M231.254 209.221c0 .331.232.631.608.848v3.393c-.376-.217-.608-.517-.608-.848v-3.393ZM234.801 211.766c.811.468 2.127.468 2.938 0v3.393c-.811.468-2.127.468-2.938 0v-3.393ZM241.288 209.221c0 .331-.232.631-.608.848v3.393c.376-.217.608-.517.608-.848v-3.393ZM246.679 199.889c.812-.469 2.127-.469 2.939 0l2.938 1.696c.812.469.812 1.228 0 1.697l-2.938 1.696c-.812.469-2.127.469-2.939 0l-2.938-1.696c-.812-.469-.812-1.228 0-1.697l2.938-1.696Z"/><path fill="#fff" stroke="#363636" stroke-width=".509" d="M0 0h3.393v3.393H0z" transform="matrix(.86603 .5 0 1 243.738 203.282)"/><path fill="#fff" stroke="#363636" stroke-width=".509" d="M0 0h3.393v3.393H0z" transform="matrix(.86603 -.5 0 1 249.617 204.978)"/><path fill="#fff" stroke="#363636" stroke-width=".509" d="M243.129 202.433c0 .332.232.632.608.849v3.393c-.376-.217-.608-.517-.608-.848v-3.394ZM246.676 204.978c.811.469 2.127.469 2.938 0v3.393c-.811.469-2.127.469-2.938 0v-3.393ZM253.163 202.433c0 .332-.232.632-.608.849v3.393c.376-.217.608-.517.608-.848v-3.394ZM258.55 193.105c.812-.468 2.127-.468 2.939 0l2.938 1.697c.812.468.812 1.228 0 1.696l-2.938 1.697c-.812.468-2.127.468-2.939 0l-2.938-1.697c-.812-.468-.812-1.228 0-1.696l2.938-1.697Z"/><path fill="#fff" stroke="#363636" stroke-width=".509" d="M0 0h3.393v3.393H0z" transform="matrix(.86603 .5 0 1 255.613 196.498)"/><path fill="#fff" stroke="#363636" stroke-width=".509" d="M0 0h3.393v3.393H0z" transform="matrix(.86603 -.5 0 1 261.488 198.195)"/><path fill="#fff" stroke="#363636" stroke-width=".509" d="M255 195.65c0 .331.233.631.609.848v3.393c-.376-.217-.609-.517-.609-.848v-3.393ZM258.547 198.195c.811.468 2.127.468 2.938 0v3.393c-.811.468-2.127.468-2.938 0v-3.393ZM265.034 195.65c0 .331-.232.631-.608.848v3.393c.376-.217.608-.517.608-.848v-3.393ZM270.429 186.318c.812-.469 2.127-.469 2.939 0l2.938 1.696c.812.469.812 1.228 0 1.697l-2.938 1.696c-.812.469-2.127.469-2.939 0l-2.938-1.696c-.812-.469-.812-1.228 0-1.697l2.938-1.696Z"/><path fill="#fff" stroke="#363636" stroke-width=".509" d="M0 0h3.393v3.393H0z" transform="matrix(.86603 .5 0 1 267.492 189.711)"/><path fill="#fff" stroke="#363636" stroke-width=".509" d="M0 0h3.393v3.393H0z" transform="matrix(.86603 -.5 0 1 273.367 191.407)"/><path fill="#fff" stroke="#363636" stroke-width=".509" d="M266.879 188.863c0 .331.232.631.608.848v3.393c-.376-.217-.608-.517-.608-.848v-3.393ZM270.426 191.407c.811.469 2.127.469 2.938 0v3.394c-.811.468-2.127.468-2.938 0v-3.394ZM276.913 188.863c0 .331-.232.631-.608.848v3.393c.376-.217.608-.517.608-.848v-3.393ZM282.3 179.531c.812-.468 2.127-.468 2.939 0l2.938 1.697c.812.468.812 1.228 0 1.696l-2.938 1.697c-.812.468-2.127.468-2.939 0l-2.938-1.697c-.812-.468-.812-1.228 0-1.696l2.938-1.697Z"/><path fill="#fff" stroke="#363636" stroke-width=".509" d="M0 0h3.393v3.393H0z" transform="matrix(.86603 .5 0 1 279.363 182.924)"/><path fill="#fff" stroke="#363636" stroke-width=".509" d="M0 0h3.393v3.393H0z" transform="matrix(.86603 -.5 0 1 285.238 184.621)"/><path fill="#fff" stroke="#363636" stroke-width=".509" d="M278.75 182.076c0 .331.233.631.609.848v3.393c-.376-.217-.609-.517-.609-.848v-3.393ZM282.297 184.621c.811.468 2.127.468 2.938 0v3.393c-.811.468-2.127.468-2.938 0v-3.393ZM288.784 182.076c0 .331-.232.631-.608.848v3.393c.376-.217.608-.517.608-.848v-3.393ZM294.179 172.743c.812-.468 2.127-.468 2.939 0l2.938 1.697c.812.468.812 1.228 0 1.696l-2.938 1.697c-.812.468-2.127.468-2.939 0l-2.938-1.697c-.812-.468-.812-1.228 0-1.696l2.938-1.697Z"/><path fill="#fff" stroke="#363636" stroke-width=".509" d="M0 0h3.393v3.393H0z" transform="matrix(.86603 .5 0 1 291.242 176.136)"/><path fill="#fff" stroke="#363636" stroke-width=".509" d="M0 0h3.393v3.393H0z" transform="matrix(.86603 -.5 0 1 297.117 177.833)"/><path fill="#fff" stroke="#363636" stroke-width=".509" d="M290.629 175.288c0 .331.232.631.608.848v3.393c-.376-.217-.608-.517-.608-.848v-3.393ZM294.176 177.833c.811.468 2.127.468 2.938 0v3.393c-.811.469-2.127.469-2.938 0v-3.393ZM300.663 175.288c0 .331-.232.631-.608.848v3.393c.376-.217.608-.517.608-.848v-3.393ZM306.054 165.96c.812-.468 2.127-.468 2.939 0l2.938 1.697c.812.468.812 1.228 0 1.696l-2.938 1.697c-.812.468-2.127.468-2.939 0l-2.938-1.697c-.812-.468-.812-1.228 0-1.696l2.938-1.697Z"/><path fill="#fff" stroke="#363636" stroke-width=".509" d="M0 0h3.393v3.393H0z" transform="matrix(.86603 .5 0 1 303.117 169.353)"/><path fill="#fff" stroke="#363636" stroke-width=".509" d="M0 0h3.393v3.393H0z" transform="matrix(.86603 -.5 0 1 308.992 171.05)"/><path fill="#fff" stroke="#363636" stroke-width=".509" d="M302.504 168.505c0 .331.232.631.608.848v3.393c-.376-.217-.608-.517-.608-.848v-3.393ZM306.051 171.05c.811.468 2.127.468 2.938 0v3.393c-.811.468-2.127.468-2.938 0v-3.393ZM312.538 168.505c0 .331-.232.631-.608.848v3.393c.376-.217.608-.517.608-.848v-3.393ZM211.042 233.818c.812-.468 2.128-.468 2.939 0l2.938 1.697c.812.468.812 1.228 0 1.696l-2.938 1.697c-.811.468-2.127.468-2.939 0l-2.938-1.697c-.812-.468-.812-1.228 0-1.696l2.938-1.697Z"/><path fill="#fff" stroke="#363636" stroke-width=".509" d="M0 0h3.393v3.393H0z" transform="matrix(.86603 .5 0 1 208.105 237.211)"/><path fill="#fff" stroke="#363636" stroke-width=".509" d="M0 0h3.393v3.393H0z" transform="matrix(.86603 -.5 0 1 213.98 238.908)"/><path fill="#fff" stroke="#363636" stroke-width=".509" d="M207.492 236.363c0 .331.233.631.609.848v3.393c-.376-.217-.609-.517-.609-.848v-3.393ZM211.039 238.908c.812.468 2.127.468 2.939 0v3.393c-.812.469-2.127.469-2.939 0v-3.393ZM217.527 236.363c0 .331-.233.631-.609.848v3.393c.376-.217.609-.517.609-.848v-3.393ZM222.921 227.031c.812-.469 2.127-.469 2.939 0l2.938 1.697c.812.468.812 1.228 0 1.696l-2.938 1.697c-.812.468-2.127.468-2.939 0l-2.938-1.697c-.812-.468-.812-1.228 0-1.696l2.938-1.697Z"/><path fill="#fff" stroke="#363636" stroke-width=".509" d="M0 0h3.393v3.393H0z" transform="matrix(.86603 .5 0 1 219.984 230.424)"/><path fill="#fff" stroke="#363636" stroke-width=".509" d="M0 0h3.393v3.393H0z" transform="matrix(.86603 -.5 0 1 225.859 232.121)"/><path fill="#fff" stroke="#363636" stroke-width=".509" d="M219.371 229.576c0 .331.233.631.609.848v3.393c-.376-.217-.609-.517-.609-.848v-3.393ZM222.918 232.121c.811.468 2.127.468 2.938 0v3.393c-.811.468-2.127.468-2.938 0v-3.393ZM229.405 229.576c0 .331-.232.631-.608.848v3.393c.376-.217.608-.517.608-.848v-3.393ZM234.796 220.247c.812-.468 2.127-.468 2.939 0l2.938 1.697c.812.468.812 1.228 0 1.696l-2.938 1.697c-.812.469-2.127.469-2.939 0l-2.938-1.697c-.812-.468-.812-1.228 0-1.696l2.938-1.697Z"/><path fill="#fff" stroke="#363636" stroke-width=".509" d="M0 0h3.393v3.393H0z" transform="matrix(.86603 .5 0 1 231.859 223.64)"/><path fill="#fff" stroke="#363636" stroke-width=".509" d="M0 0h3.393v3.393H0z" transform="matrix(.86603 -.5 0 1 237.734 225.337)"/><path fill="#fff" stroke="#363636" stroke-width=".509" d="M231.246 222.792c0 .331.233.631.609.848v3.394c-.376-.218-.609-.517-.609-.849v-3.393ZM234.793 225.337c.811.469 2.127.469 2.938 0v3.393c-.811.469-2.127.469-2.938 0v-3.393ZM241.28 222.792c0 .331-.232.631-.608.848v3.394c.376-.218.608-.517.608-.849v-3.393ZM246.675 213.46c.812-.468 2.127-.468 2.939 0l2.938 1.697c.812.468.812 1.228 0 1.696l-2.938 1.697c-.812.468-2.127.468-2.939 0l-2.938-1.697c-.812-.468-.812-1.228 0-1.696l2.938-1.697Z"/><path fill="#fff" stroke="#363636" stroke-width=".509" d="M0 0h3.393v3.393H0z" transform="matrix(.86603 .5 0 1 243.738 216.853)"/><path fill="#fff" stroke="#363636" stroke-width=".509" d="M0 0h3.393v3.393H0z" transform="matrix(.86603 -.5 0 1 249.613 218.55)"/><path fill="#fff" stroke="#363636" stroke-width=".509" d="M243.125 216.005c0 .331.233.631.609.848v3.393c-.376-.217-.609-.517-.609-.848v-3.393ZM246.672 218.55c.811.468 2.127.468 2.938 0v3.393c-.811.468-2.127.468-2.938 0v-3.393ZM253.159 216.005c0 .331-.232.631-.608.848v3.393c.376-.217.608-.517.608-.848v-3.393ZM258.542 206.673c.812-.469 2.128-.469 2.939 0l2.938 1.696c.812.469.812 1.229 0 1.697l-2.938 1.697c-.811.468-2.127.468-2.939 0l-2.938-1.697c-.812-.468-.812-1.228 0-1.697l2.938-1.696Z"/><path fill="#fff" stroke="#363636" stroke-width=".509" d="M0 0h3.393v3.393H0z" transform="matrix(.86603 .5 0 1 255.605 210.066)"/><path fill="#fff" stroke="#363636" stroke-width=".509" d="M0 0h3.393v3.393H0z" transform="matrix(.86603 -.5 0 1 261.48 211.763)"/><path fill="#fff" stroke="#363636" stroke-width=".509" d="M254.992 209.218c0 .331.233.631.609.848v3.393c-.376-.217-.609-.517-.609-.848v-3.393ZM258.539 211.763c.812.468 2.127.468 2.939 0v3.393c-.812.468-2.127.468-2.939 0v-3.393ZM265.027 209.218c0 .331-.233.631-.609.848v3.393c.376-.217.609-.517.609-.848v-3.393ZM270.417 199.886c.812-.469 2.128-.469 2.939 0l2.938 1.696c.812.469.812 1.228 0 1.697l-2.938 1.696c-.811.469-2.127.469-2.939 0l-2.938-1.696c-.812-.469-.812-1.228 0-1.697l2.938-1.696Z"/><path fill="#fff" stroke="#363636" stroke-width=".509" d="M0 0h3.393v3.393H0z" transform="matrix(.86603 .5 0 1 267.48 203.278)"/><path fill="#fff" stroke="#363636" stroke-width=".509" d="M0 0h3.393v3.393H0z" transform="matrix(.86603 -.5 0 1 273.355 204.975)"/><path fill="#fff" stroke="#363636" stroke-width=".509" d="M266.867 202.43c0 .332.233.631.609.849v3.393c-.376-.217-.609-.517-.609-.849v-3.393ZM270.414 204.975c.812.469 2.127.469 2.939 0v3.393c-.812.469-2.127.469-2.939 0v-3.393ZM276.902 202.43c0 .332-.233.631-.609.849v3.393c.376-.217.609-.517.609-.849v-3.393ZM282.296 193.102c.812-.468 2.127-.468 2.939 0l2.938 1.697c.812.468.812 1.228 0 1.696l-2.938 1.697c-.812.468-2.127.468-2.939 0l-2.938-1.697c-.812-.468-.812-1.228 0-1.696l2.938-1.697Z"/><path fill="#fff" stroke="#363636" stroke-width=".509" d="M0 0h3.393v3.393H0z" transform="matrix(.86603 .5 0 1 279.359 196.495)"/><path fill="#fff" stroke="#363636" stroke-width=".509" d="M0 0h3.393v3.393H0z" transform="matrix(.86603 -.5 0 1 285.234 198.192)"/><path fill="#fff" stroke="#363636" stroke-width=".509" d="M278.746 195.647c0 .331.233.631.609.848v3.393c-.376-.217-.609-.517-.609-.848v-3.393ZM282.293 198.192c.811.468 2.127.468 2.938 0v3.393c-.811.468-2.127.468-2.938 0v-3.393ZM288.78 195.647c0 .331-.232.631-.608.848v3.393c.376-.217.608-.517.608-.848v-3.393ZM294.171 186.315c.812-.468 2.127-.468 2.939 0l2.938 1.697c.812.468.812 1.228 0 1.696l-2.938 1.697c-.812.468-2.127.468-2.939 0l-2.938-1.697c-.812-.468-.812-1.228 0-1.696l2.938-1.697Z"/><path fill="#fff" stroke="#363636" stroke-width=".509" d="M0 0h3.393v3.393H0z" transform="matrix(.86603 .5 0 1 291.234 189.708)"/><path fill="#fff" stroke="#363636" stroke-width=".509" d="M0 0h3.393v3.393H0z" transform="matrix(.86603 -.5 0 1 297.109 191.405)"/><path fill="#fff" stroke="#363636" stroke-width=".509" d="M290.621 188.86c0 .331.233.631.609.848v3.393c-.376-.217-.609-.517-.609-.848v-3.393ZM294.168 191.405c.811.468 2.127.468 2.938 0v3.393c-.811.469-2.127.469-2.938 0v-3.393ZM300.655 188.86c0 .331-.232.631-.608.848v3.393c.376-.217.608-.517.608-.848v-3.393ZM306.05 179.527c.812-.468 2.127-.468 2.939 0l2.938 1.697c.812.468.812 1.228 0 1.697l-2.938 1.696c-.812.469-2.127.469-2.939 0l-2.938-1.696c-.812-.469-.812-1.229 0-1.697l2.938-1.697Z"/><path fill="#fff" stroke="#363636" stroke-width=".509" d="M0 0h3.393v3.393H0z" transform="matrix(.86603 .5 0 1 303.113 182.92)"/><path fill="#fff" stroke="#363636" stroke-width=".509" d="M0 0h3.393v3.393H0z" transform="matrix(.86603 -.5 0 1 308.988 184.617)"/><path fill="#fff" stroke="#363636" stroke-width=".509" d="M302.5 182.072c0 .331.233.631.609.848v3.394c-.376-.218-.609-.517-.609-.849v-3.393ZM306.047 184.617c.811.469 2.127.469 2.938 0v3.393c-.811.469-2.127.469-2.938 0v-3.393ZM312.53 182.072c0 .331-.232.631-.608.848v3.394c.376-.218.608-.517.608-.849v-3.393ZM317.921 172.741c.812-.469 2.127-.469 2.939 0l2.938 1.696c.812.469.812 1.228 0 1.697l-2.938 1.696c-.812.469-2.127.469-2.939 0l-2.938-1.696c-.812-.469-.812-1.228 0-1.697l2.938-1.696Z"/><path fill="#fff" stroke="#363636" stroke-width=".509" d="M0 0h3.393v3.393H0z" transform="matrix(.86603 .5 0 1 314.984 176.134)"/><path fill="#fff" stroke="#363636" stroke-width=".509" d="M0 0h3.393v3.393H0z" transform="matrix(.86603 -.5 0 1 320.863 177.83)"/><path fill="#fff" stroke="#363636" stroke-width=".509" d="M314.371 175.285c0 .332.233.632.609.849v3.393c-.376-.217-.609-.517-.609-.848v-3.394ZM317.918 177.83c.811.469 2.127.469 2.938 0v3.393c-.811.469-2.127.469-2.938 0v-3.393ZM324.405 175.285c0 .332-.232.632-.608.849v3.393c.376-.217.608-.517.608-.848v-3.394ZM222.921 240.606c.812-.468 2.127-.468 2.939 0l2.938 1.697c.812.468.812 1.228 0 1.696l-2.938 1.697c-.812.468-2.127.468-2.939 0l-2.938-1.697c-.812-.468-.812-1.228 0-1.696l2.938-1.697Z"/><path fill="#fff" stroke="#363636" stroke-width=".509" d="M0 0h3.393v3.393H0z" transform="matrix(.86603 .5 0 1 219.984 243.999)"/><path fill="#fff" stroke="#363636" stroke-width=".509" d="M0 0h3.393v3.393H0z" transform="matrix(.86603 -.5 0 1 225.859 245.696)"/><path fill="#fff" stroke="#363636" stroke-width=".509" d="M219.371 243.151c0 .331.233.631.609.848v3.394c-.376-.218-.609-.517-.609-.849v-3.393ZM222.918 245.696c.811.469 2.127.469 2.938 0v3.393c-.811.469-2.127.469-2.938 0v-3.393ZM229.405 243.151c0 .331-.232.631-.608.848v3.394c.376-.218.608-.517.608-.849v-3.393ZM234.8 233.819c.812-.468 2.127-.468 2.939 0l2.938 1.697c.812.468.812 1.228 0 1.696l-2.938 1.697c-.812.468-2.127.468-2.939 0l-2.938-1.697c-.812-.468-.812-1.228 0-1.696l2.938-1.697Z"/><path fill="#fff" stroke="#363636" stroke-width=".509" d="M0 0h3.393v3.393H0z" transform="matrix(.86603 .5 0 1 231.859 237.212)"/><path fill="#fff" stroke="#363636" stroke-width=".509" d="M0 0h3.393v3.393H0z" transform="matrix(.86603 -.5 0 1 237.738 238.909)"/><path fill="#fff" stroke="#363636" stroke-width=".509" d="M231.25 236.364c0 .331.233.631.609.848v3.393c-.376-.217-.609-.517-.609-.848v-3.393ZM234.797 238.909c.811.468 2.127.468 2.938 0v3.393c-.811.468-2.127.468-2.938 0v-3.393ZM241.284 236.364c0 .331-.232.631-.608.848v3.393c.376-.217.608-.517.608-.848v-3.393ZM246.675 227.032c.812-.469 2.127-.469 2.939 0l2.938 1.696c.812.469.812 1.228 0 1.697l-2.938 1.696c-.812.469-2.127.469-2.939 0l-2.938-1.696c-.812-.469-.812-1.228 0-1.697l2.938-1.696Z"/><path fill="#fff" stroke="#363636" stroke-width=".509" d="M0 0h3.393v3.393H0z" transform="matrix(.86603 .5 0 1 243.738 230.425)"/><path fill="#fff" stroke="#363636" stroke-width=".509" d="M0 0h3.393v3.393H0z" transform="matrix(.86603 -.5 0 1 249.613 232.122)"/><path fill="#fff" stroke="#363636" stroke-width=".509" d="M243.125 229.577c0 .331.233.631.609.848v3.393c-.376-.217-.609-.517-.609-.848v-3.393ZM246.672 232.122c.811.468 2.127.468 2.938 0v3.393c-.811.468-2.127.468-2.938 0v-3.393ZM253.159 229.577c0 .331-.232.631-.608.848v3.393c.376-.217.608-.517.608-.848v-3.393ZM306.05 193.103c.812-.468 2.127-.468 2.939 0l2.938 1.697c.812.468.812 1.228 0 1.697l-2.938 1.696c-.812.469-2.127.469-2.939 0l-2.938-1.696c-.812-.469-.812-1.229 0-1.697l2.938-1.697Z"/><path fill="#fff" stroke="#363636" stroke-width=".509" d="M0 0h3.393v3.393H0z" transform="matrix(.86603 .5 0 1 303.113 196.496)"/><path fill="#fff" stroke="#363636" stroke-width=".509" d="M0 0h3.393v3.393H0z" transform="matrix(.86603 -.5 0 1 308.988 198.193)"/><path fill="#fff" stroke="#363636" stroke-width=".509" d="M302.5 195.648c0 .331.233.631.609.848v3.394c-.376-.218-.609-.517-.609-.849v-3.393ZM306.047 198.193c.811.469 2.127.469 2.938 0v3.393c-.811.469-2.127.469-2.938 0v-3.393ZM312.53 195.648c0 .331-.232.631-.608.848v3.394c.376-.218.608-.517.608-.849v-3.393ZM294.175 199.887c.812-.469 2.127-.469 2.939 0l2.938 1.696c.812.469.812 1.228 0 1.697l-37.176 21.464c-.812.468-2.127.468-2.939 0l-2.938-1.697c-.812-.468-.812-1.228 0-1.696l37.176-21.464Z"/><path fill="#fff" stroke="#363636" stroke-width=".509" d="M0 0h43.216v3.393H0z" transform="matrix(.86603 -.5 0 1 262.621 224.891)"/><path fill="#fff" stroke="#363636" stroke-width=".509" d="M0 0h3.393v3.393H0z" transform="matrix(.86603 .5 0 1 256.438 223.299)"/><path fill="#fff" stroke="#363636" stroke-width=".509" d="M255.832 222.451c0 .331.233.631.609.848v3.393c-.376-.217-.609-.517-.609-.848v-3.393ZM259.375 224.996c.811.468 2.127.468 2.939 0v3.393c-.812.468-2.128.468-2.939 0v-3.393ZM300.659 202.432c0 .331-.232.631-.608.848v3.393c.376-.217.608-.517.608-.848v-3.393ZM317.921 186.316c.812-.468 2.127-.468 2.939 0l2.938 1.697c.812.468.812 1.228 0 1.696l-2.938 1.697c-.812.468-2.127.468-2.939 0l-2.938-1.697c-.812-.468-.812-1.228 0-1.696l2.938-1.697Z"/><path fill="#fff" stroke="#363636" stroke-width=".509" d="M0 0h3.393v3.393H0z" transform="matrix(.86603 .5 0 1 314.984 189.709)"/><path fill="#fff" stroke="#363636" stroke-width=".509" d="M0 0h3.393v3.393H0z" transform="matrix(.86603 -.5 0 1 320.863 191.406)"/><path fill="#fff" stroke="#363636" stroke-width=".509" d="M314.371 188.861c0 .331.233.631.609.848v3.393c-.376-.217-.609-.517-.609-.848v-3.393ZM317.918 191.406c.811.468 2.127.468 2.938 0v3.393c-.811.468-2.127.468-2.938 0v-3.393ZM324.405 188.861c0 .331-.232.631-.608.848v3.393c.376-.217.608-.517.608-.848v-3.393ZM329.8 179.529c.812-.469 2.127-.469 2.939 0l2.938 1.696c.812.469.812 1.228 0 1.697l-2.938 1.696c-.812.469-2.127.469-2.939 0l-2.938-1.696c-.812-.469-.812-1.228 0-1.697l2.938-1.696Z"/><path fill="#fff" stroke="#363636" stroke-width=".509" d="M0 0h3.393v3.393H0z" transform="matrix(.86603 .5 0 1 326.863 182.922)"/><path fill="#fff" stroke="#363636" stroke-width=".509" d="M0 0h3.393v3.393H0z" transform="matrix(.86603 -.5 0 1 332.742 184.618)"/><path fill="#fff" stroke="#363636" stroke-width=".509" d="M326.25 182.074c0 .331.233.631.609.848v3.393c-.376-.217-.609-.517-.609-.848v-3.393ZM329.797 184.618c.811.469 2.127.469 2.938 0v3.394c-.811.468-2.127.468-2.938 0v-3.394ZM336.284 182.074c0 .331-.232.631-.608.848v3.393c.376-.217.608-.517.608-.848v-3.393Z"/><path fill="#fff" stroke="#363636" stroke-width="1.697" d="M131.531 92.158c0-7.496 5.263-16.61 11.754-20.358L259.357 4.786c6.491-3.748 11.754-.71 11.754 6.786v108.579c0 7.496-5.263 16.611-11.754 20.359l-116.072 67.014c-6.491 3.748-11.754.71-11.754-6.786V92.158Z"/><path fill="#fff" stroke="#363636" stroke-width="1.697" d="M0 0h3.393v108.579H0z" transform="matrix(.86603 .5 0 1 128.594 90.461)"/><path fill="#fff" stroke="#363636" stroke-width="1.697" d="M0 0h134.028v3.393H0z" transform="matrix(.86603 -.5 .86603 .5 140.352 70.103)"/><path fill="#fff" stroke="#363636" stroke-width="1.697" d="M131.532 200.738c0 3.473 1.148 6.284 3.443 7.609l-2.939-1.697c-2.295-1.325-3.442-4.136-3.442-7.609l2.938 1.697ZM131.532 92.158c0-7.496 5.263-16.61 11.754-20.359l-2.938-1.696c-6.492 3.748-11.754 12.863-11.754 20.359l2.938 1.696ZM267.668 3.965c-2.295-1.325-5.303-.914-8.312.823l-2.938-1.697c3.008-1.736 6.016-2.148 8.311-.823l2.939 1.697Z"/><rect width="152.018" height="124.66" x=".433" y=".25" fill="#fff" stroke="#363636" rx="12.5" transform="matrix(.86603 -.5 0 1 135.136 82.369)"/><path fill="#fff" stroke="#363636" stroke-width=".866" d="M59.5 284.21c3.314-1.913 8.686-1.913 12 0l40.5 23.383c3.314 1.913 3.314 5.015 0 6.928l-55.5 32.043c-3.314 1.913-8.686 1.913-12 0L4 323.181c-3.314-1.913-3.314-5.015 0-6.928l55.5-32.043Z"/><path fill="#fff" stroke="#363636" stroke-width=".866" d="M0 0h46.765v8.66H0z" transform="matrix(.86603 .5 0 1 4 323.181)"/><path fill="#fff" stroke="#363636" stroke-width=".866" d="M0 0h64.086v8.66H0z" transform="matrix(.86603 -.5 0 1 56.504 346.564)"/><path fill="#fff" stroke="#363636" stroke-width=".866" d="M1.516 319.717c0 1.353.95 2.578 2.485 3.465v8.66c-1.536-.887-2.485-2.112-2.485-3.464v-8.661ZM44.5 346.564c3.314 1.913 8.686 1.913 12 0v8.66c-3.314 1.914-8.686 1.914-12 0v-8.66ZM114.485 311.057c0 1.353-.949 2.578-2.485 3.464v8.661c1.536-.887 2.485-2.112 2.485-3.464v-8.661ZM76.672 290.272c3.314-1.913 8.686-1.913 12 0l5.25 3.031c3.314 1.913 3.314 5.015 0 6.928l-28.5 16.455c-3.314 1.913-8.686 1.913-12 0l-5.25-3.031c-3.314-1.913-3.314-5.015 0-6.928l28.5-16.455Z"/><path fill="#fff" stroke="#363636" stroke-width=".866" d="M0 0h6.062v2.598H0z" transform="matrix(.86603 .5 0 1 48.172 313.655)"/><path fill="#fff" stroke="#363636" stroke-width=".866" d="M0 0h32.909v2.598H0z" transform="matrix(.86603 -.5 0 1 65.422 316.686)"/><path fill="#fff" stroke="#363636" stroke-width=".866" d="M45.684 310.191c0 1.353.95 2.577 2.485 3.464v2.598c-1.536-.887-2.485-2.111-2.485-3.464v-2.598ZM53.422 316.686c3.314 1.913 8.686 1.913 12 0v2.598c-3.314 1.913-8.686 1.913-12 0v-2.598ZM96.403 296.768c0 1.352-.95 2.577-2.485 3.464v2.598c1.535-.887 2.485-2.112 2.485-3.464v-2.598Z"/><circle cx="6.928" cy="6.928" r="6.928" fill="#fff" stroke="#363636" stroke-width=".866" transform="matrix(.86603 .5 -.86603 .5 59.367 300.662)"/><path fill="#fff" stroke="#363636" stroke-width=".866" d="M50.879 307.59c0 1.353.95 2.577 2.485 3.464v1.732c-1.535-.887-2.485-2.111-2.485-3.464v-1.732Z"/><path fill="#fff" stroke="#363636" stroke-width=".866" d="M53.363 311.054c3.314 1.913 8.687 1.913 12 0v1.732c-3.313 1.913-8.686 1.913-12 0v-1.732ZM67.853 307.59c0 1.353-.95 2.577-2.486 3.464v1.732c1.536-.887 2.486-2.111 2.486-3.464v-1.732Z"/><g clip-path="url(#b)"><path fill="url(#c)" stroke="#363636" stroke-width=".725" d="M150.688 131.527c0-9.407 6.604-13.22 14.751-8.516l53.355 30.804c8.147 4.704 14.752 16.143 14.752 25.55s-6.605 13.22-14.752 8.517l-53.355-30.805c-8.147-4.704-14.751-16.143-14.751-25.55Z"/><path fill="url(#d)" stroke="#363636" stroke-width=".725" d="M0 0h61.61v5.074H0z" transform="matrix(.86603 .5 -.86603 .5 169.832 120.473)"/><path fill="url(#e)" stroke="#363636" stroke-width=".725" d="M155.004 121.977c2.88-1.663 6.655-1.146 10.431 1.033l4.394-2.536c-3.776-2.18-7.551-2.697-10.431-1.034l-4.394 2.537Z"/><path fill="url(#f)" stroke="#363636" stroke-width=".725" d="M233.544 179.365c0-9.407-6.604-20.846-14.751-25.55l4.394-2.536c8.147 4.703 14.751 16.142 14.751 25.549l-4.394 2.537Z"/><path fill="url(#g)" stroke="#363636" stroke-width=".725" d="M229.227 188.915c2.88-1.663 4.32-5.191 4.32-9.55l4.394-2.537c0 4.36-1.44 7.887-4.32 9.55l-4.394 2.537Z"/><path fill="#fff" d="M162.724 133.204v10.122l-1.853-1.07v-10.121l1.853 1.069Zm3.314 7.646v4.389l-1.823-1.053v-7.591l1.737 1.003v1.34l.077.044c.146-.357.39-.566.732-.625.343-.063.758.047 1.246.329a4.2 4.2 0 0 1 1.194 1.035 5.03 5.03 0 0 1 1.074 3.131v4.833l-1.823-1.053v-4.457c.003-.463-.1-.885-.308-1.265a2.235 2.235 0 0 0-.861-.892c-.245-.142-.462-.206-.65-.193a.546.546 0 0 0-.437.281c-.102.172-.155.42-.158.744Zm11.144 5.396-1.669-.845a1.882 1.882 0 0 0-.184-.551 2.363 2.363 0 0 0-.373-.536 2.15 2.15 0 0 0-.543-.437c-.283-.163-.521-.232-.715-.206-.194.024-.291.149-.291.376 0 .181.063.371.188.568.126.198.341.423.646.675l1.19.964c.639.52 1.116 1.039 1.43 1.556.314.518.471 1.05.471 1.597 0 .497-.127.86-.381 1.089-.251.231-.597.325-1.036.282-.437-.044-.94-.231-1.511-.561-.87-.502-1.563-1.112-2.08-1.828-.513-.719-.815-1.466-.903-2.242l1.793.927c.055.338.186.647.394.929.208.279.475.512.8.699.32.185.577.262.771.233.197-.032.296-.16.299-.386a1.075 1.075 0 0 0-.209-.59c-.137-.205-.348-.422-.634-.653l-1.138-.919c-.642-.519-1.12-1.052-1.434-1.599-.311-.545-.466-1.101-.466-1.668 0-.487.114-.841.342-1.062.231-.219.555-.304.971-.255.42.052.911.239 1.473.564.83.479 1.483 1.059 1.96 1.739.479.682.759 1.396.839 2.14Zm1.298 9.022v-10.437l1.797 1.038v1.275l.081.047c.08-.158.196-.299.347-.423.154-.125.354-.188.599-.188.249-.001.557.104.925.317.479.276.921.677 1.327 1.201.405.52.729 1.14.971 1.86.243.717.364 1.51.364 2.38 0 .847-.119 1.493-.355 1.94-.234.444-.554.7-.959.766-.402.064-.853-.048-1.353-.337a3.654 3.654 0 0 1-.903-.723 4.464 4.464 0 0 1-.603-.858 5.243 5.243 0 0 1-.36-.835l-.055-.032v4.062l-1.823-1.053Zm1.784-5.611c0 .451.055.876.163 1.275.108.398.265.751.471 1.057.205.304.455.54.749.71.296.171.548.222.753.153.205-.073.361-.246.466-.522.109-.276.163-.635.163-1.077 0-.438-.053-.854-.158-1.248a3.495 3.495 0 0 0-.467-1.05 2.284 2.284 0 0 0-.757-.719c-.297-.171-.548-.226-.754-.163-.202.064-.358.231-.466.502-.108.27-.163.63-.163 1.082Zm5.842 7.168v-7.591l1.824 1.053v7.591l-1.824-1.053Zm.916-8.04a1.995 1.995 0 0 1-.697-.715c-.192-.321-.287-.628-.287-.921 0-.29.095-.484.287-.581.194-.099.426-.07.697.087.271.156.502.395.694.716.194.32.291.625.291.914 0 .294-.097.49-.291.589-.192.097-.423.067-.694-.089Zm2.368 9.936v-7.591l1.768 1.021v1.324l.068.04c.12-.402.321-.642.604-.719.282-.081.607-.015.975.197.092.053.19.116.296.191.105.074.198.145.278.214v1.869a4.966 4.966 0 0 0-.771-.559c-.268-.155-.507-.226-.719-.212a.63.63 0 0 0-.496.266c-.12.169-.18.407-.18.717v4.295l-1.823-1.053Zm6.618 3.964a4.726 4.726 0 0 1-1.122-.899 4.358 4.358 0 0 1-.779-1.206 3.609 3.609 0 0 1-.282-1.419c0-.421.067-.737.201-.946a.8.8 0 0 1 .548-.376 1.79 1.79 0 0 1 .787.06c.297.082.608.199.933.351.383.174.691.309.925.405.234.092.404.128.509.106.106-.021.159-.113.159-.274v-.03c0-.313-.086-.604-.257-.875a2.03 2.03 0 0 0-.719-.672c-.328-.189-.589-.256-.783-.2-.194.053-.323.186-.386.401l-1.686-1.132c.086-.412.254-.713.505-.905.251-.194.575-.267.972-.219.399.046.861.22 1.386.523.366.211.715.462 1.049.754.337.293.635.619.894.976.263.359.47.745.621 1.159.151.41.227.841.227 1.292v5.12l-1.729-.998v-1.053l-.052-.029a.93.93 0 0 1-.423.383c-.177.075-.39.093-.638.051-.248-.044-.535-.16-.86-.348Zm.522-1.151c.268.154.505.23.71.227a.62.62 0 0 0 .484-.225c.117-.143.175-.348.175-.615v-.806a.657.657 0 0 1-.235-.017 3.796 3.796 0 0 1-.329-.096 18.461 18.461 0 0 1-.369-.139l-.333-.138a1.954 1.954 0 0 0-.561-.151c-.16-.013-.284.022-.372.106-.089.081-.133.22-.133.418 0 .287.09.558.27.813.182.254.413.461.693.623Zm8.091-1.61v1.581l-3.959-2.285v-1.582l3.959 2.286Zm-3.06-3.586 1.823 1.053v7.077c0 .194.026.361.077.499.051.135.123.25.214.346.094.097.203.181.325.252.086.049.172.091.257.124.086.029.151.052.197.069l.287 1.732a4.4 4.4 0 0 1-.385-.109 3.333 3.333 0 0 1-.604-.264 4.541 4.541 0 0 1-1.155-.87 3.835 3.835 0 0 1-.767-1.164 3.485 3.485 0 0 1-.269-1.391v-7.354Zm4.248 11.862v-7.591l1.823 1.053v7.591l-1.823-1.053Zm.916-8.04a1.994 1.994 0 0 1-.698-.714c-.191-.322-.287-.629-.287-.922 0-.29.096-.484.287-.581.194-.099.426-.07.698.087.271.156.502.395.693.716.194.32.291.625.291.915 0 .293-.097.489-.291.588-.191.097-.422.067-.693-.089Zm5.338 11.799a6.099 6.099 0 0 1-1.725-1.485 6.996 6.996 0 0 1-1.117-2.019 6.76 6.76 0 0 1-.394-2.278c0-.784.131-1.393.394-1.828.262-.439.635-.682 1.117-.729.485-.05 1.06.117 1.725.501a6.03 6.03 0 0 1 1.72 1.488c.485.606.859 1.28 1.121 2.021.263.738.394 1.499.394 2.283 0 .778-.131 1.386-.394 1.824-.262.435-.636.677-1.121.726-.482.048-1.056-.12-1.72-.504Zm.008-1.626c.303.175.555.222.758.141.202-.084.355-.269.458-.556.105-.285.158-.648.158-1.089 0-.442-.053-.866-.158-1.273a3.718 3.718 0 0 0-.458-1.085 2.2 2.2 0 0 0-.758-.739c-.305-.176-.562-.224-.77-.143-.206.082-.361.266-.467.551-.102.287-.154.651-.154 1.092 0 .442.052.865.154 1.27.106.407.261.77.467 1.09.208.318.465.565.77.741Zm6.236.695v4.388l-1.823-1.053v-7.59l1.737 1.003v1.339l.077.045c.146-.358.39-.566.732-.626.343-.062.758.047 1.246.329.456.264.854.609 1.194 1.035.339.427.603.909.791 1.446a5.01 5.01 0 0 1 .283 1.685v4.833l-1.823-1.052v-4.458a2.56 2.56 0 0 0-.308-1.265 2.241 2.241 0 0 0-.861-.892c-.245-.142-.462-.206-.65-.193a.545.545 0 0 0-.437.282c-.102.171-.155.419-.158.744Z"/><path fill="url(#h)" stroke="#363636" stroke-width=".725" d="M328.547 233.931c0-9.407 6.604-13.22 14.751-8.516l53.356 30.805c8.147 4.703 14.751 16.142 14.751 25.549 0 9.408-6.604 13.221-14.751 8.517l-53.356-30.805c-8.147-4.703-14.751-16.142-14.751-25.55Z"/><path fill="url(#i)" stroke="#363636" stroke-width=".725" d="M0 0h61.61v5.074H0z" transform="matrix(.86603 .5 -.86603 .5 347.691 222.878)"/><path fill="url(#j)" stroke="#363636" stroke-width=".725" d="M332.867 224.381c2.881-1.663 6.656-1.146 10.431 1.033l4.394-2.536c-3.775-2.18-7.55-2.697-10.431-1.034l-4.394 2.537Z"/><path fill="url(#k)" stroke="#363636" stroke-width=".725" d="M411.404 281.77c0-9.408-6.605-20.847-14.752-25.55l4.394-2.537c8.147 4.703 14.752 16.142 14.752 25.55l-4.394 2.537Z"/><path fill="url(#l)" stroke="#363636" stroke-width=".725" d="M407.086 291.319c2.88-1.663 4.32-5.19 4.32-9.55l4.394-2.536c0 4.359-1.44 7.886-4.32 9.549l-4.394 2.537Z"/><path fill="#fff" d="M334.992 243.859v-10.121l3.458 1.997a6.237 6.237 0 0 1 1.7 1.421c.467.56.824 1.169 1.069 1.828.249.657.373 1.322.373 1.994 0 .672-.126 1.193-.377 1.562s-.615.559-1.091.571c-.474.013-1.047-.175-1.721-.564l-2.204-1.272v-1.715l1.905 1.1c.356.205.65.304.881.296a.606.606 0 0 0 .523-.296c.117-.19.175-.451.175-.784a2.82 2.82 0 0 0-.175-.981 2.84 2.84 0 0 0-.523-.889 3.327 3.327 0 0 0-.89-.727l-1.25-.721v8.371l-1.853-1.07Zm10.634 6.288a6.099 6.099 0 0 1-1.725-1.485 6.996 6.996 0 0 1-1.117-2.019 6.765 6.765 0 0 1-.394-2.278c0-.784.131-1.394.394-1.829.262-.438.635-.681 1.117-.729.485-.049 1.06.118 1.725.502.664.384 1.238.88 1.72 1.487.485.607.859 1.28 1.121 2.022.263.738.394 1.499.394 2.283 0 .777-.131 1.385-.394 1.823-.262.435-.636.678-1.121.727-.482.048-1.056-.12-1.72-.504Zm.008-1.626c.303.175.555.222.758.141.202-.084.355-.27.458-.556.105-.285.158-.648.158-1.09 0-.441-.053-.866-.158-1.272a3.707 3.707 0 0 0-.458-1.085 2.2 2.2 0 0 0-.758-.739c-.305-.176-.562-.224-.77-.143-.206.082-.361.266-.467.551-.102.286-.154.65-.154 1.092 0 .441.052.865.154 1.27.106.407.261.77.467 1.09.208.318.465.565.77.741Zm6.835 5.552c-.499-.288-.951-.697-1.357-1.228a6.395 6.395 0 0 1-.958-1.873 7.539 7.539 0 0 1-.351-2.347c0-.87.121-1.523.364-1.96.242-.44.564-.687.967-.741.405-.056.849.055 1.331.334.368.212.675.462.92.748.248.285.448.578.599.88.154.3.271.575.351.825l.056.032v-3.805l1.819 1.05v10.121l-1.798-1.037v-1.216l-.077-.045a1.237 1.237 0 0 1-.364.418c-.154.115-.355.169-.603.161-.246-.007-.545-.113-.899-.317Zm.578-1.342c.294.17.542.221.745.154.205-.069.362-.241.47-.514.112-.272.167-.634.167-1.085 0-.451-.054-.875-.162-1.27a3.47 3.47 0 0 0-.471-1.043 2.3 2.3 0 0 0-.749-.704c-.3-.173-.552-.225-.758-.156-.205.069-.361.24-.466.512-.106.272-.159.627-.159 1.065 0 .441.053.862.159 1.262.108.399.264.752.466 1.06.206.307.458.547.758.719Zm7.632 6.107a6.103 6.103 0 0 1-1.738-1.498 6.96 6.96 0 0 1-1.498-4.284c0-.778.13-1.385.39-1.821.262-.438.635-.683 1.117-.734.482-.055 1.056.11 1.72.494a5.949 5.949 0 0 1 1.507 1.231 6.043 6.043 0 0 1 1.023 1.603c.251.58.389 1.171.415 1.772l-1.721-.993a2.865 2.865 0 0 0-.385-1.137 2.198 2.198 0 0 0-.809-.818c-.282-.163-.529-.217-.74-.161-.208.055-.371.216-.488.485-.117.268-.175.641-.175 1.119 0 .484.057.929.171 1.334.117.407.281.761.492 1.06.211.3.458.532.74.695.209.12.395.179.561.175a.53.53 0 0 0 .415-.19c.111-.127.184-.314.218-.561l1.721.993c-.029.564-.166.995-.411 1.295-.242.298-.578.447-1.006.447-.428 0-.934-.168-1.519-.506Zm5.978 3.446a4.726 4.726 0 0 1-1.122-.899 4.332 4.332 0 0 1-.778-1.206 3.59 3.59 0 0 1-.283-1.418c0-.422.067-.738.201-.947a.796.796 0 0 1 .548-.375c.231-.041.494-.022.788.059.296.082.607.199.933.351.382.174.69.31.924.405.234.092.404.128.509.106.106-.021.159-.112.159-.274v-.03c0-.313-.086-.604-.257-.874a2.004 2.004 0 0 0-.719-.672c-.328-.19-.589-.257-.783-.201-.194.053-.323.187-.386.401l-1.686-1.132c.086-.412.254-.713.505-.904.251-.195.575-.268.972-.22.399.046.861.221 1.386.524.366.21.715.462 1.049.753.337.293.635.619.894.976.263.359.47.746.621 1.159.151.41.227.841.227 1.293v5.119l-1.729-.998v-1.053l-.052-.029a.925.925 0 0 1-.423.383c-.177.076-.39.093-.638.052-.248-.045-.535-.161-.86-.349Zm.522-1.151c.268.155.505.23.71.227a.614.614 0 0 0 .484-.225c.117-.143.176-.348.176-.615v-.806a.639.639 0 0 1-.236-.017 3.796 3.796 0 0 1-.329-.096 18.461 18.461 0 0 1-.369-.139 52.968 52.968 0 0 0-.333-.138 1.987 1.987 0 0 0-.561-.151c-.16-.013-.284.023-.372.107-.089.08-.133.219-.133.417 0 .287.09.558.27.813.182.254.413.461.693.623Zm10.064 1.694-1.669-.845a1.872 1.872 0 0 0-.184-.551 2.31 2.31 0 0 0-.372-.537 2.219 2.219 0 0 0-.544-.437c-.283-.163-.521-.231-.715-.205-.194.023-.291.148-.291.375 0 .182.063.371.189.569.125.198.34.422.646.674l1.19.964c.639.521 1.115 1.04 1.429 1.557.314.517.471 1.049.471 1.596 0 .498-.127.861-.381 1.09-.251.23-.596.324-1.036.281-.436-.044-.94-.231-1.511-.56-.87-.503-1.563-1.112-2.08-1.829-.513-.718-.814-1.465-.903-2.241l1.794.926c.054.338.185.648.393.93.209.278.475.511.801.699.319.184.576.262.77.232.197-.031.297-.16.3-.385a1.08 1.08 0 0 0-.21-.591c-.137-.204-.348-.422-.633-.652l-1.139-.919c-.642-.519-1.12-1.052-1.434-1.599-.311-.545-.466-1.101-.466-1.668 0-.488.114-.842.342-1.063.231-.219.555-.304.972-.254.419.051.91.239 1.472.563.83.48 1.484 1.059 1.96 1.74.48.682.759 1.395.839 2.14Zm4.795.603v1.582l-3.959-2.286v-1.581l3.959 2.285Zm-3.061-3.585 1.824 1.052v7.077c0 .195.025.361.077.499a.988.988 0 0 0 .214.346c.094.098.202.182.325.252.086.05.171.091.257.124l.197.069.286 1.732a4.523 4.523 0 0 1-.385-.108 3.448 3.448 0 0 1-.603-.265 4.53 4.53 0 0 1-1.156-.87 3.858 3.858 0 0 1-.766-1.163 3.494 3.494 0 0 1-.27-1.392v-7.353Zm9.635 9.546-1.669-.845a1.853 1.853 0 0 0-.184-.551 2.306 2.306 0 0 0-.372-.536 2.163 2.163 0 0 0-.544-.438c-.282-.163-.52-.231-.714-.205-.194.023-.291.148-.291.376 0 .181.062.37.188.568.125.198.341.423.646.675l1.19.963c.639.521 1.116 1.04 1.429 1.557.314.517.471 1.049.471 1.596 0 .498-.127.861-.381 1.09-.251.231-.596.324-1.035.282-.437-.045-.941-.232-1.511-.561-.87-.503-1.564-1.112-2.08-1.829-.514-.718-.815-1.465-.903-2.241l1.793.927c.054.337.186.647.394.929.208.278.475.511.8.699.32.184.576.262.771.232.196-.031.296-.16.299-.385a1.08 1.08 0 0 0-.21-.591c-.137-.204-.348-.422-.633-.652l-1.138-.919c-.642-.519-1.12-1.052-1.434-1.599-.311-.545-.467-1.101-.467-1.668 0-.488.114-.842.343-1.062.231-.22.555-.304.971-.255.42.051.91.239 1.472.563.831.48 1.484 1.06 1.961 1.74.479.682.759 1.395.838 2.14Z"/><path fill="url(#m)" stroke="#363636" stroke-width=".725" d="M255.246 191.892c0-9.408 6.604-13.221 14.751-8.517l32.832 18.956c8.147 4.703 14.752 16.142 14.752 25.549 0 9.408-6.605 13.221-14.752 8.517l-32.832-18.956c-8.147-4.703-14.751-16.142-14.751-25.549Z"/><path fill="url(#n)" stroke="#363636" stroke-width=".725" d="M0 0h39.293v5.074H0z" transform="matrix(.86603 .5 -.86603 .5 274.395 180.838)"/><path fill="url(#o)" stroke="#363636" stroke-width=".725" d="M259.566 182.341c2.881-1.663 6.656-1.146 10.431 1.034l4.394-2.537c-3.775-2.18-7.55-2.696-10.431-1.033l-4.394 2.536Z"/><path fill="url(#p)" stroke="#363636" stroke-width=".725" d="M317.81 228.133c0-9.408-6.605-20.847-14.751-25.55l4.394-2.537c8.146 4.703 14.751 16.143 14.751 25.55l-4.394 2.537Z"/><path fill="url(#q)" stroke="#363636" stroke-width=".725" d="M313.488 237.682c2.881-1.663 4.321-5.19 4.321-9.549l4.394-2.537c0 4.359-1.44 7.887-4.321 9.55l-4.394 2.536Z"/><path fill="#fff" d="m272.162 197.292 2.118 8.912.082.047 2.122-6.464 2.055 1.186-3.022 8.377-2.388-1.379-3.026-11.868 2.059 1.189Zm9.626 15.827a6.112 6.112 0 0 1-1.725-1.485 7.02 7.02 0 0 1-1.117-2.019 6.789 6.789 0 0 1-.393-2.278c0-.784.131-1.394.393-1.829.263-.438.635-.681 1.117-.729.486-.049 1.06.118 1.725.502s1.239.88 1.721 1.487c.485.607.859 1.28 1.121 2.022.263.738.394 1.499.394 2.283 0 .777-.131 1.385-.394 1.823-.262.435-.636.678-1.121.727-.482.048-1.056-.12-1.721-.504Zm.009-1.626c.302.175.555.222.757.141.203-.084.356-.27.458-.556.106-.285.159-.648.159-1.09 0-.441-.053-.866-.159-1.272a3.654 3.654 0 0 0-.458-1.085 2.198 2.198 0 0 0-.757-.739c-.305-.176-.562-.224-.771-.143-.205.082-.361.266-.466.551-.103.286-.154.65-.154 1.092 0 .441.051.865.154 1.27.105.407.261.77.466 1.09.209.318.466.565.771.741Zm4.412 4.03v-7.591l1.824 1.053v7.591l-1.824-1.053Zm.916-8.04a1.995 1.995 0 0 1-.697-.715c-.192-.321-.287-.628-.287-.921 0-.29.095-.484.287-.581.194-.099.426-.07.697.087.271.156.502.395.694.716.194.32.291.624.291.914 0 .294-.097.49-.291.589-.192.097-.423.067-.694-.089Zm5.338 11.799a6.111 6.111 0 0 1-1.737-1.497 6.969 6.969 0 0 1-1.113-2.027 6.817 6.817 0 0 1-.385-2.258c0-.778.13-1.385.389-1.821.263-.438.635-.683 1.117-.734.482-.054 1.056.11 1.721.494a5.961 5.961 0 0 1 1.506 1.231 6.06 6.06 0 0 1 1.023 1.603c.251.58.39 1.171.415 1.772l-1.72-.993a2.881 2.881 0 0 0-.385-1.137 2.22 2.22 0 0 0-.809-.818c-.283-.163-.53-.216-.741-.16-.208.054-.371.215-.488.484-.117.268-.175.642-.175 1.119 0 .485.057.929.171 1.335.117.406.281.76.492 1.06.211.299.458.531.741.694.208.12.395.179.56.175a.529.529 0 0 0 .415-.19c.112-.127.185-.314.219-.561l1.72.994c-.028.563-.165.995-.411 1.294-.242.299-.577.448-1.005.448-.428 0-.935-.169-1.52-.507Zm7.099 4.099a6.311 6.311 0 0 1-1.746-1.483 6.826 6.826 0 0 1-1.515-4.309c0-.781.131-1.39.394-1.829.262-.438.632-.684 1.108-.738.48-.053 1.042.107 1.687.479a6.19 6.19 0 0 1 2.195 2.226c.283.483.502 1.012.659 1.587.157.571.236 1.18.236 1.826v.578l-5.551-3.205v-1.305l3.835 2.214c0-.303-.058-.604-.172-.904a2.953 2.953 0 0 0-.475-.823 2.458 2.458 0 0 0-.697-.605c-.277-.16-.522-.228-.736-.203a.66.66 0 0 0-.497.302c-.12.174-.181.411-.184.709v1.24c0 .376.06.735.18 1.077.122.345.295.655.518.932.222.277.486.503.791.68.203.117.388.191.557.222a.654.654 0 0 0 .432-.047.605.605 0 0 0 .274-.326l1.686 1.102c-.085.418-.261.726-.526.922-.263.194-.602.268-1.019.222-.413-.048-.891-.228-1.434-.541Z"/></g><path fill="url(#r)" stroke="#363636" d="M378 209.947c0-4.419 3.102-6.21 6.928-4l46.766 27c3.826 2.209 6.928 7.581 6.928 12v204c0 4.418-3.102 6.209-6.928 4l-46.766-27c-3.826-2.21-6.928-7.582-6.928-12v-204Z"/><path fill="url(#s)" stroke="#363636" d="M0 0h20v204H0z" transform="matrix(.86603 -.5 0 1 438.625 244.947)"/><path fill="url(#t)" stroke="#363636" d="M0 0h54v20H0z" transform="matrix(.86603 .5 -.86603 .5 402.246 195.947)"/><path fill="url(#u)" stroke="#363636" d="M380.031 205.461c1.353-.781 3.126-.538 4.899.486l17.321-10c-1.773-1.024-3.546-1.267-4.899-.486l-17.321 10Z"/><path fill="url(#v)" stroke="#363636" d="M438.624 244.947c0-4.419-3.102-9.791-6.929-12l17.321-10c3.826 2.209 6.928 7.581 6.928 12l-17.32 10Z"/><path fill="url(#w)" stroke="#363636" d="M436.594 453.432c1.353-.781 2.029-2.438 2.029-4.485l17.32-10c0 2.047-.676 3.704-2.029 4.485l-17.32 10Z"/><defs><linearGradient id="c" x1="158.956" x2="202.853" y1="139.046" y2="120.023" gradientUnits="userSpaceOnUse"><stop stop-color="#8ED7C6"/><stop offset="1" stop-color="#56ADAB"/></linearGradient><linearGradient id="d" x1="6.148" x2="11.692" y1="2.946" y2="-13.052" gradientUnits="userSpaceOnUse"><stop stop-color="#8ED7C6"/><stop offset="1" stop-color="#56ADAB"/></linearGradient><linearGradient id="e" x1="156.483" x2="164.265" y1="121.101" y2="115.079" gradientUnits="userSpaceOnUse"><stop stop-color="#8ED7C6"/><stop offset="1" stop-color="#56ADAB"/></linearGradient><linearGradient id="f" x1="220.703" x2="236.361" y1="167.586" y2="165.049" gradientUnits="userSpaceOnUse"><stop stop-color="#8ED7C6"/><stop offset="1" stop-color="#56ADAB"/></linearGradient><linearGradient id="g" x1="230.096" x2="237.201" y1="183.846" y2="182.629" gradientUnits="userSpaceOnUse"><stop stop-color="#8ED7C6"/><stop offset="1" stop-color="#56ADAB"/></linearGradient><linearGradient id="h" x1="336.815" x2="380.712" y1="241.451" y2="222.427" gradientUnits="userSpaceOnUse"><stop stop-color="#8ED7C6"/><stop offset="1" stop-color="#56ADAB"/></linearGradient><linearGradient id="i" x1="6.148" x2="11.692" y1="2.946" y2="-13.052" gradientUnits="userSpaceOnUse"><stop stop-color="#8ED7C6"/><stop offset="1" stop-color="#56ADAB"/></linearGradient><linearGradient id="j" x1="334.346" x2="342.129" y1="223.505" y2="217.483" gradientUnits="userSpaceOnUse"><stop stop-color="#8ED7C6"/><stop offset="1" stop-color="#56ADAB"/></linearGradient><linearGradient id="k" x1="398.563" x2="414.22" y1="269.99" y2="267.454" gradientUnits="userSpaceOnUse"><stop stop-color="#8ED7C6"/><stop offset="1" stop-color="#56ADAB"/></linearGradient><linearGradient id="l" x1="407.956" x2="415.061" y1="286.25" y2="285.033" gradientUnits="userSpaceOnUse"><stop stop-color="#8ED7C6"/><stop offset="1" stop-color="#56ADAB"/></linearGradient><linearGradient id="m" x1="261.466" x2="298.777" y1="198.229" y2="185.261" gradientUnits="userSpaceOnUse"><stop stop-color="#8ED7C6"/><stop offset="1" stop-color="#56ADAB"/></linearGradient><linearGradient id="n" x1="3.921" x2="11.438" y1="2.946" y2="-10.889" gradientUnits="userSpaceOnUse"><stop stop-color="#8ED7C6"/><stop offset="1" stop-color="#56ADAB"/></linearGradient><linearGradient id="o" x1="261.046" x2="268.828" y1="181.465" y2="175.443" gradientUnits="userSpaceOnUse"><stop stop-color="#8ED7C6"/><stop offset="1" stop-color="#56ADAB"/></linearGradient><linearGradient id="p" x1="304.969" x2="320.626" y1="216.353" y2="213.817" gradientUnits="userSpaceOnUse"><stop stop-color="#8ED7C6"/><stop offset="1" stop-color="#56ADAB"/></linearGradient><linearGradient id="q" x1="314.358" x2="321.463" y1="232.613" y2="231.396" gradientUnits="userSpaceOnUse"><stop stop-color="#8ED7C6"/><stop offset="1" stop-color="#56ADAB"/></linearGradient><linearGradient id="r" x1="384.049" x2="432.88" y1="333.171" y2="330.09" gradientUnits="userSpaceOnUse"><stop stop-color="#8ED7C6"/><stop offset="1" stop-color="#56ADAB"/></linearGradient><linearGradient id="s" x1="1.996" x2="18.772" y1="118.442" y2="118.051" gradientUnits="userSpaceOnUse"><stop stop-color="#8ED7C6"/><stop offset="1" stop-color="#56ADAB"/></linearGradient><linearGradient id="t" x1="5.388" x2="37.493" y1="11.612" y2="-8.987" gradientUnits="userSpaceOnUse"><stop stop-color="#8ED7C6"/><stop offset="1" stop-color="#56ADAB"/></linearGradient><linearGradient id="u" x1="382.248" x2="397.377" y1="201.356" y2="194.058" gradientUnits="userSpaceOnUse"><stop stop-color="#8ED7C6"/><stop offset="1" stop-color="#56ADAB"/></linearGradient><linearGradient id="v" x1="434.115" x2="453.16" y1="235.72" y2="230.731" gradientUnits="userSpaceOnUse"><stop stop-color="#8ED7C6"/><stop offset="1" stop-color="#56ADAB"/></linearGradient><linearGradient id="w" x1="438.525" x2="453.278" y1="447.357" y2="442.674" gradientUnits="userSpaceOnUse"><stop stop-color="#8ED7C6"/><stop offset="1" stop-color="#56ADAB"/></linearGradient><clipPath id="a"><path fill="#fff" d="M41.102 148.934h190v190h-190z"/></clipPath><clipPath id="b"><path fill="#fff" d="M135.598 80h280.264v232.834H135.598z"/></clipPath></defs></svg>
