<svg xmlns="http://www.w3.org/2000/svg" viewBox="0 0 461 461" fill="none"><g clip-path="url(#a)"><rect width="123.369" height="7.875" fill="url(#b)" rx="3.937" transform="matrix(.86603 -.5 0 1 184.074 62.266)"/><rect width="81.808" height="7.875" fill="url(#c)" rx="3.937" transform="matrix(.86603 -.5 0 1 220.064 52.86)"/><rect width="81.808" height="7.875" fill="url(#d)" rx="3.937" transform="matrix(.86603 -.5 0 1 184.451 168.853)"/><rect width="91.87" height="7.875" fill="url(#e)" rx="3.937" transform="matrix(.86603 -.5 0 1 184.832 191.383)"/><rect width="109.369" height="7.875" fill="url(#f)" rx="3.937" transform="matrix(.86603 -.5 0 1 196.197 196.195)"/><rect width="109.369" height="7.875" fill="url(#g)" rx="3.937" transform="matrix(.86603 -.5 0 1 196.197 230.317)"/><rect width="109.369" height="7.875" fill="url(#h)" rx="3.937" transform="matrix(.86603 -.5 0 1 196.197 242.13)"/><rect width="95.37" height="7" fill="url(#i)" rx="3.5" transform="matrix(.86603 -.5 0 1 208.32 201.007)"/><rect width="76.121" height="7.437" fill="url(#j)" rx="3.719" transform="matrix(0 -1 .86603 -.5 184.832 278.879)"/><rect width="68.246" height="7.437" fill="url(#k)" rx="3.719" transform="matrix(-.86603 .5 0 -1 290.912 171.696)"/><rect width="95.37" height="7" fill="url(#l)" rx="3.5" transform="matrix(.86603 -.5 0 1 208.32 246.942)"/><rect width="68.246" height="7.437" fill="url(#m)" rx="3.719" transform="matrix(-.86603 .5 0 -1 290.912 217.631)"/><rect width="19.686" height="7.875" fill="url(#n)" rx="3.937" transform="matrix(.86603 -.5 0 1 184.832 180.008)"/><rect width="37.185" height="7.875" fill="url(#o)" rx="3.937" transform="matrix(.86603 -.5 0 1 184.072 73.639)"/><rect width="50.31" height="7.875" fill="url(#p)" rx="3.937" transform="matrix(.86603 -.5 0 1 247.342 48.485)"/><rect width="65.184" height="7.875" fill="url(#q)" rx="3.937" transform="matrix(.86603 -.5 0 1 184.072 85.014)"/><rect width="20.417" height="9.644" x="249.135" y="70.199" fill="url(#r)" rx="3.937" transform="rotate(30 249.135 70.2)"/><rect width="35.363" height="5.568" x="266.816" y="80.434" fill="url(#s)" rx="3.937" transform="rotate(120 266.816 80.434)"/><rect width="20.417" height="9.644" x="235.094" y="119.164" fill="url(#t)" rx="3.937" transform="rotate(-150 235.094 119.164)"/><rect width="35.363" height="5.568" x="217.414" y="108.93" fill="url(#u)" rx="3.937" transform="rotate(-60 217.414 108.93)"/><rect width="20.417" height="9.644" x="247.621" y="249.564" fill="url(#v)" rx="3.937" transform="rotate(30 247.621 249.564)"/><rect width="35.363" height="5.568" x="265.301" y="259.799" fill="url(#w)" rx="3.937" transform="rotate(120 265.301 259.799)"/><rect width="20.417" height="9.644" x="233.58" y="298.53" fill="url(#x)" rx="3.937" transform="rotate(-150 233.58 298.53)"/><rect width="35.363" height="5.568" x="215.898" y="288.296" fill="url(#y)" rx="3.937" transform="rotate(-60 215.898 288.296)"/><rect width="102.807" height="7.875" fill="url(#z)" rx="3.937" transform="matrix(.86603 -.5 0 1 184.072 96.388)"/><rect width="123.369" height="7.875" fill="url(#A)" rx="3.937" transform="matrix(.86603 -.5 0 1 184.072 337.438)"/><rect width="81.808" height="7.875" fill="url(#B)" rx="3.937" transform="matrix(.86603 -.5 0 1 220.064 328.033)"/><rect width="37.185" height="7.875" fill="url(#C)" rx="3.937" transform="matrix(.86603 -.5 0 1 184.072 348.812)"/><rect width="50.31" height="7.875" fill="url(#D)" rx="3.937" transform="matrix(.86603 -.5 0 1 247.342 323.658)"/><rect width="65.184" height="7.875" fill="url(#E)" rx="3.937" transform="matrix(.86603 -.5 0 1 184.072 360.188)"/><rect width="102.807" height="7.875" fill="url(#F)" rx="3.937" transform="matrix(.86603 -.5 0 1 184.072 371.562)"/><rect width="102.807" height="7.875" fill="url(#G)" rx="3.937" transform="matrix(.86603 -.5 0 1 184.072 157.697)"/><rect width="76.121" height="7.437" fill="url(#H)" rx="3.719" transform="matrix(0 -1 .86603 -.5 184.832 3.467)"/><rect width="35.363" height="5.568" x="265.301" y="-15.611" fill="url(#I)" rx="3.937" transform="rotate(120 265.301 -15.611)"/><rect width="20.417" height="9.644" x="233.58" y="23.119" fill="url(#J)" rx="3.937" transform="rotate(-150 233.58 23.12)"/><rect width="35.363" height="5.568" x="215.898" y="12.885" fill="url(#K)" rx="3.937" transform="rotate(-60 215.898 12.885)"/><rect width="20.417" height="9.644" x="249.135" y="344.425" fill="url(#L)" rx="3.937" transform="rotate(30 249.135 344.425)"/><rect width="35.363" height="5.568" x="266.816" y="354.658" fill="url(#M)" rx="3.937" transform="rotate(120 266.816 354.658)"/><rect width="20.417" height="9.644" x="235.094" y="393.39" fill="url(#N)" rx="3.937" transform="rotate(-150 235.094 393.39)"/><rect width="35.363" height="5.568" x="217.414" y="383.155" fill="url(#O)" rx="3.937" transform="rotate(-60 217.414 383.155)"/></g><path fill="#fff" stroke="#363636" stroke-width="2.098" d="M293.33 450.255c0-2.317 1.626-5.135 3.632-6.295l158.87-91.844c2.005-1.159 3.632-.221 3.632 2.096v6.549c0 2.317-1.627 5.136-3.632 6.295L296.962 458.9c-2.006 1.16-3.632.221-3.632-2.096v-6.549Z"/><path fill="#fff" stroke="#363636" stroke-width="2.098" d="M0 0h149.253v6.403H0z" transform="matrix(.86574 .5005 0 1 164.117 375.628)"/><path fill="#fff" stroke="#363636" stroke-width="2.098" d="M0 0h183.369v149.253H0z" transform="scale(1.22434 .7078) rotate(-45 698.218 95.384)"/><path fill="#fff" stroke="#363636" stroke-width="2.098" d="M293.332 456.731c0 1.093.361 1.977 1.081 2.394l-129.214-74.701c-.721-.416-1.082-1.3-1.082-2.393l129.215 74.7ZM293.332 450.329c0-2.358 1.653-5.225 3.692-6.403l-129.215-74.7c-2.039 1.178-3.692 4.045-3.692 6.402l129.215 74.701ZM458.384 351.889c-.721-.417-1.666-.288-2.611.259l-129.214-74.7c.944-.547 1.889-.676 2.61-.259l129.215 74.7Z"/><path fill="#fff" stroke="#363636" stroke-width=".629" d="M190.998 361.231c1.003-.579 2.629-.579 3.632 0l3.752 2.169c1.003.58 1.003 1.52 0 2.1l-3.752 2.169c-1.003.58-2.629.58-3.632 0l-3.751-2.169c-1.003-.58-1.003-1.52 0-2.1l3.751-2.169Z"/><path fill="#fff" stroke="#363636" stroke-width=".629" d="M0 0h4.264v4.269H0z" transform="matrix(.86574 .5005 0 1 187.279 365.519)"/><path fill="#fff" stroke="#363636" stroke-width=".629" d="M0 0h4.264v4.269H0z" transform="matrix(.86574 -.5005 0 1 194.664 367.652)"/><path fill="#fff" stroke="#363636" stroke-width=".629" d="M186.512 364.451c0 .417.292.794.764 1.067v4.269c-.472-.273-.764-.651-.764-1.067v-4.269ZM190.969 367.652c1.019.59 2.672.59 3.692 0v4.269c-1.02.589-2.673.589-3.692 0v-4.269ZM199.116 364.451c0 .417-.292.794-.764 1.067v4.269c.472-.273.764-.651.764-1.067v-4.269ZM205.92 352.693c1.003-.579 2.629-.579 3.632 0l3.752 2.169c1.003.58 1.003 1.52 0 2.1l-3.752 2.169c-1.003.58-2.629.58-3.632 0l-3.751-2.169c-1.003-.58-1.003-1.52 0-2.1l3.751-2.169Z"/><path fill="#fff" stroke="#363636" stroke-width=".629" d="M0 0h4.264v4.269H0z" transform="matrix(.86574 .5005 0 1 202.201 356.979)"/><path fill="#fff" stroke="#363636" stroke-width=".629" d="M0 0h4.264v4.269H0z" transform="matrix(.86574 -.5005 0 1 209.586 359.113)"/><path fill="#fff" stroke="#363636" stroke-width=".629" d="M201.434 355.912c0 .417.292.794.764 1.067v4.269c-.472-.273-.764-.651-.764-1.067v-4.269ZM205.889 359.113c1.019.59 2.672.59 3.692 0v4.269c-1.02.589-2.673.589-3.692 0v-4.269ZM214.038 355.912c0 .417-.292.794-.765 1.067v4.269c.473-.273.765-.651.765-1.067v-4.269ZM220.842 344.154c1.003-.579 2.629-.579 3.632 0l3.752 2.169c1.003.58 1.003 1.52 0 2.1l-3.752 2.169c-1.003.58-2.629.58-3.632 0l-3.752-2.169c-1.002-.58-1.002-1.52 0-2.1l3.752-2.169Z"/><path fill="#fff" stroke="#363636" stroke-width=".629" d="M0 0h4.264v4.269H0z" transform="matrix(.86574 .5005 0 1 217.121 348.44)"/><path fill="#fff" stroke="#363636" stroke-width=".629" d="M0 0h4.264v4.269H0z" transform="matrix(.86574 -.5005 0 1 224.506 350.575)"/><path fill="#fff" stroke="#363636" stroke-width=".629" d="M216.354 347.374c0 .417.292.794.764 1.067v4.269c-.472-.273-.764-.651-.764-1.067v-4.269ZM220.809 350.575c1.019.59 2.672.59 3.691 0v4.269c-1.019.589-2.672.589-3.691 0v-4.269ZM228.958 347.374c0 .417-.292.794-.765 1.067v4.269c.473-.273.765-.651.765-1.067v-4.269ZM235.764 335.621c1.003-.58 2.629-.58 3.632 0l3.752 2.169c1.003.58 1.003 1.52 0 2.1l-3.752 2.169c-1.003.579-2.629.579-3.632 0l-3.752-2.169c-1.003-.58-1.003-1.52 0-2.1l3.752-2.169Z"/><path fill="#fff" stroke="#363636" stroke-width=".629" d="M0 0h4.264v4.269H0z" transform="matrix(.86574 .5005 0 1 232.043 339.906)"/><path fill="#fff" stroke="#363636" stroke-width=".629" d="M0 0h4.264v4.269H0z" transform="matrix(.86574 -.5005 0 1 239.428 342.041)"/><path fill="#fff" stroke="#363636" stroke-width=".629" d="M231.275 338.84c0 .417.293.794.765 1.067v4.269c-.472-.274-.765-.651-.765-1.068v-4.268ZM235.73 342.041c1.02.589 2.673.589 3.692 0v4.269c-1.019.589-2.672.589-3.692 0v-4.269ZM243.88 338.84c0 .417-.292.794-.765 1.067v4.269c.473-.274.765-.651.765-1.068v-4.268ZM250.684 327.083c1.003-.58 2.629-.58 3.632 0l3.752 2.169c1.003.58 1.003 1.52 0 2.1l-3.752 2.169c-1.003.579-2.629.579-3.632 0l-3.752-2.169c-1.003-.58-1.003-1.52 0-2.1l3.752-2.169Z"/><path fill="#fff" stroke="#363636" stroke-width=".629" d="M0 0h4.264v4.269H0z" transform="matrix(.86574 .5005 0 1 246.963 331.368)"/><path fill="#fff" stroke="#363636" stroke-width=".629" d="M0 0h4.264v4.269H0z" transform="matrix(.86574 -.5005 0 1 254.348 333.503)"/><path fill="#fff" stroke="#363636" stroke-width=".629" d="M246.195 330.302c0 .417.293.794.765 1.067v4.268c-.472-.273-.765-.65-.765-1.067v-4.268ZM250.65 333.503c1.02.589 2.673.589 3.692 0v4.269c-1.019.589-2.672.589-3.692 0v-4.269ZM258.8 330.302c0 .417-.292.794-.765 1.067v4.268c.473-.273.765-.65.765-1.067v-4.268ZM265.602 318.544c1.003-.58 2.629-.58 3.632 0l3.752 2.169c1.003.58 1.003 1.52 0 2.1l-3.752 2.168c-1.003.58-2.629.58-3.632 0l-3.752-2.168c-1.003-.58-1.003-1.52 0-2.1l3.752-2.169Z"/><path fill="#fff" stroke="#363636" stroke-width=".629" d="M0 0h4.264v4.269H0z" transform="matrix(.86574 .5005 0 1 261.883 322.829)"/><path fill="#fff" stroke="#363636" stroke-width=".629" d="M0 0h4.264v4.269H0z" transform="matrix(.86574 -.5005 0 1 269.268 324.964)"/><path fill="#fff" stroke="#363636" stroke-width=".629" d="M261.115 321.763c0 .416.292.794.765 1.067v4.268c-.473-.273-.765-.65-.765-1.067v-4.268ZM265.57 324.964c1.02.589 2.673.589 3.692 0v4.268c-1.019.59-2.672.59-3.692 0v-4.268ZM273.72 321.763c0 .416-.293.794-.765 1.067v4.268c.472-.273.765-.65.765-1.067v-4.268Z"/><path fill="url(#P)" stroke="#363636" stroke-width=".629" d="M280.522 310.006c1.003-.58 2.629-.58 3.632 0l3.752 2.169c1.003.58 1.003 1.52 0 2.099l-3.752 2.169c-1.003.58-2.629.58-3.632 0l-3.752-2.169c-1.003-.579-1.003-1.519 0-2.099l3.752-2.169Z"/><path fill="#fff" stroke="#363636" stroke-width=".629" d="M0 0h4.264v4.269H0z" transform="matrix(.86574 .5005 0 1 276.803 314.291)"/><path fill="#fff" stroke="#363636" stroke-width=".629" d="M0 0h4.264v4.269H0z" transform="matrix(.86574 -.5005 0 1 284.186 316.426)"/><path fill="#fff" stroke="#363636" stroke-width=".629" d="M276.035 313.225c0 .416.292.794.765 1.067v4.268c-.473-.273-.765-.65-.765-1.067v-4.268ZM280.49 316.426c1.02.589 2.673.589 3.692 0v4.268c-1.019.59-2.672.59-3.692 0v-4.268ZM288.64 313.225c0 .416-.293.794-.765 1.067v4.268c.472-.273.765-.65.765-1.067v-4.268ZM295.446 301.472c1.003-.58 2.629-.58 3.632 0l3.751 2.169c1.003.579 1.003 1.519 0 2.099l-3.751 2.169c-1.003.58-2.629.58-3.632 0l-3.752-2.169c-1.003-.58-1.003-1.52 0-2.099l3.752-2.169Z"/><path fill="#fff" stroke="#363636" stroke-width=".629" d="M0 0h4.264v4.269H0z" transform="matrix(.86574 .5005 0 1 291.723 305.757)"/><path fill="#fff" stroke="#363636" stroke-width=".629" d="M0 0h4.264v4.269H0z" transform="matrix(.86574 -.5005 0 1 299.107 307.893)"/><path fill="#fff" stroke="#363636" stroke-width=".629" d="M290.957 304.69c0 .417.292.794.765 1.068v4.268c-.473-.273-.765-.65-.765-1.067v-4.269ZM295.412 307.893c1.02.589 2.672.589 3.692 0v4.268c-1.02.59-2.672.59-3.692 0v-4.268ZM303.561 304.69c0 .417-.292.794-.764 1.068v4.268c.472-.273.764-.65.764-1.067v-4.269ZM310.362 292.934c1.003-.58 2.629-.58 3.632 0l3.751 2.169c1.003.579 1.003 1.519 0 2.099l-3.751 2.169c-1.003.58-2.629.58-3.632 0l-3.752-2.169c-1.003-.58-1.003-1.52 0-2.099l3.752-2.169Z"/><path fill="#fff" stroke="#363636" stroke-width=".629" d="M0 0h4.264v4.269H0z" transform="matrix(.86574 .5005 0 1 306.643 297.219)"/><path fill="#fff" stroke="#363636" stroke-width=".629" d="M0 0h4.264v4.269H0z" transform="matrix(.86574 -.5005 0 1 314.025 299.354)"/><path fill="#fff" stroke="#363636" stroke-width=".629" d="M305.875 296.152c0 .417.292.794.765 1.067v4.269c-.473-.273-.765-.65-.765-1.067v-4.269ZM310.332 299.354c1.02.589 2.672.589 3.692 0v4.268c-1.02.589-2.672.589-3.692 0v-4.268ZM318.481 296.152c0 .417-.292.794-.764 1.067v4.269c.472-.273.764-.65.764-1.067v-4.269ZM325.284 284.395c1.003-.58 2.629-.58 3.632 0l3.751 2.168c1.003.58 1.003 1.52 0 2.1l-3.751 2.169c-1.003.58-2.629.58-3.632 0l-3.752-2.169c-1.003-.58-1.003-1.52 0-2.1l3.752-2.168Z"/><path fill="#fff" stroke="#363636" stroke-width=".629" d="M0 0h4.264v4.269H0z" transform="matrix(.86574 .5005 0 1 321.564 288.682)"/><path fill="#fff" stroke="#363636" stroke-width=".629" d="M0 0h4.264v4.269H0z" transform="matrix(.86574 -.50049 0 1 328.949 290.815)"/><path fill="#fff" stroke="#363636" stroke-width=".629" d="M320.797 287.613c0 .417.292.794.764 1.067v4.269c-.472-.273-.764-.65-.764-1.067v-4.269ZM325.254 290.815c1.019.59 2.672.59 3.692 0v4.269c-1.02.589-2.673.589-3.692 0v-4.269ZM333.401 287.613c0 .417-.292.794-.764 1.067v4.269c.472-.273.764-.65.764-1.067v-4.269ZM210.184 374.036c1.003-.58 2.629-.58 3.632 0l3.752 2.169c1.003.58 1.003 1.52 0 2.1l-3.752 2.169c-1.003.579-2.629.579-3.632 0l-3.752-2.169c-1.003-.58-1.003-1.52 0-2.1l3.752-2.169Z"/><path fill="#fff" stroke="#363636" stroke-width=".629" d="M0 0h4.264v4.269H0z" transform="matrix(.86574 .5005 0 1 206.463 378.321)"/><path fill="#fff" stroke="#363636" stroke-width=".629" d="M0 0h4.264v4.269H0z" transform="matrix(.86574 -.5005 0 1 213.846 380.456)"/><path fill="#fff" stroke="#363636" stroke-width=".629" d="M205.697 377.255c0 .417.292.794.765 1.067v4.269c-.473-.274-.765-.651-.765-1.068v-4.268ZM210.152 380.456c1.02.589 2.673.589 3.692 0v4.269c-1.019.589-2.672.589-3.692 0v-4.269ZM218.3 377.255c0 .417-.292.794-.765 1.067v4.269c.473-.274.765-.651.765-1.068v-4.268Z"/><path fill="url(#Q)" stroke="#363636" stroke-width=".629" d="M225.104 365.497c1.003-.58 2.629-.58 3.632 0l3.752 2.169c1.003.58 1.003 1.52 0 2.1l-3.752 2.169c-1.003.579-2.629.579-3.632 0l-3.752-2.169c-1.003-.58-1.003-1.52 0-2.1l3.752-2.169Z"/><path fill="#fff" stroke="#363636" stroke-width=".629" d="M0 0h4.264v4.269H0z" transform="matrix(.86574 .5005 0 1 221.385 369.782)"/><path fill="#fff" stroke="#363636" stroke-width=".629" d="M0 0h4.264v4.269H0z" transform="matrix(.86574 -.5005 0 1 228.768 371.917)"/><path fill="#fff" stroke="#363636" stroke-width=".629" d="M220.615 368.716c0 .417.292.794.765 1.067v4.269c-.473-.274-.765-.651-.765-1.068v-4.268ZM225.074 371.917c1.02.589 2.673.589 3.692 0v4.269c-1.019.589-2.672.589-3.692 0v-4.269ZM233.222 368.716c0 .417-.293.794-.765 1.067v4.269c.472-.274.765-.651.765-1.068v-4.268ZM240.026 356.959c1.003-.58 2.629-.58 3.632 0l3.752 2.169c1.002.58 1.002 1.52 0 2.1l-3.752 2.168c-1.003.58-2.629.58-3.632 0l-3.752-2.168c-1.003-.58-1.003-1.52 0-2.1l3.752-2.169Z"/><path fill="#fff" stroke="#363636" stroke-width=".629" d="M0 0h4.264v4.269H0z" transform="matrix(.86574 .50049 0 1 236.307 361.245)"/><path fill="#fff" stroke="#363636" stroke-width=".629" d="M0 0h4.264v4.269H0z" transform="matrix(.86574 -.5005 0 1 243.689 363.379)"/><path fill="#fff" stroke="#363636" stroke-width=".629" d="M235.539 360.178c0 .416.292.794.765 1.067v4.268c-.473-.273-.765-.65-.765-1.067v-4.268ZM239.996 363.379c1.02.589 2.672.589 3.692 0v4.268c-1.02.59-2.672.59-3.692 0v-4.268ZM248.145 360.178c0 .416-.292.794-.764 1.067v4.268c.472-.273.764-.65.764-1.067v-4.268ZM254.948 348.425c1.003-.58 2.629-.58 3.632 0l3.751 2.169c1.003.58 1.003 1.52 0 2.099l-3.751 2.169c-1.003.58-2.629.58-3.632 0l-3.752-2.169c-1.003-.579-1.003-1.519 0-2.099l3.752-2.169Z"/><path fill="#fff" stroke="#363636" stroke-width=".629" d="M0 0h4.264v4.269H0z" transform="matrix(.86574 .5005 0 1 251.229 352.71)"/><path fill="#fff" stroke="#363636" stroke-width=".629" d="M0 0h4.264v4.269H0z" transform="matrix(.86574 -.5005 0 1 258.613 354.845)"/><path fill="#fff" stroke="#363636" stroke-width=".629" d="M250.461 351.644c0 .416.292.794.765 1.067v4.268c-.473-.273-.765-.65-.765-1.067v-4.268ZM254.918 354.845c1.019.589 2.672.589 3.692 0v4.268c-1.02.59-2.673.59-3.692 0v-4.268ZM263.063 351.644c0 .416-.292.794-.764 1.067v4.268c.472-.273.764-.65.764-1.067v-4.268ZM269.866 339.886c1.003-.58 2.629-.58 3.632 0l3.751 2.169c1.003.579 1.003 1.52 0 2.099l-3.751 2.169c-1.003.58-2.629.58-3.632 0l-3.752-2.169c-1.003-.579-1.003-1.52 0-2.099l3.752-2.169Z"/><path fill="#fff" stroke="#363636" stroke-width=".629" d="M0 0h4.264v4.269H0z" transform="matrix(.86574 .5005 0 1 266.146 344.173)"/><path fill="#fff" stroke="#363636" stroke-width=".629" d="M0 0h4.264v4.269H0z" transform="matrix(.86574 -.5005 0 1 273.529 346.307)"/><path fill="#fff" stroke="#363636" stroke-width=".629" d="M265.377 343.104c0 .417.292.795.765 1.068v4.268c-.473-.273-.765-.65-.765-1.067v-4.269ZM269.834 346.307c1.019.589 2.672.589 3.692 0v4.268c-1.02.59-2.673.59-3.692 0v-4.268ZM277.981 343.104c0 .417-.292.795-.764 1.068v4.268c.472-.273.764-.65.764-1.067v-4.269ZM284.788 331.348c1.002-.58 2.629-.58 3.631 0l3.752 2.169c1.003.579 1.003 1.519 0 2.099l-3.752 2.169c-1.002.58-2.629.58-3.631 0l-3.752-2.169c-1.003-.58-1.003-1.52 0-2.099l3.752-2.169Z"/><path fill="#fff" stroke="#363636" stroke-width=".629" d="M0 0h4.264v4.269H0z" transform="matrix(.86574 .5005 0 1 281.068 335.633)"/><path fill="#fff" stroke="#363636" stroke-width=".629" d="M0 0h4.264v4.269H0z" transform="matrix(.86574 -.5005 0 1 288.451 337.768)"/><path fill="#fff" stroke="#363636" stroke-width=".629" d="M280.301 334.566c0 .417.292.794.764 1.068v4.268c-.472-.273-.764-.65-.764-1.067v-4.269ZM284.756 337.768c1.019.589 2.672.589 3.692 0v4.268c-1.02.59-2.673.59-3.692 0v-4.268ZM292.903 334.566c0 .417-.292.794-.764 1.068v4.268c.472-.273.764-.65.764-1.067v-4.269ZM299.709 322.809c1.003-.58 2.629-.58 3.632 0l3.752 2.169c1.003.579 1.003 1.519 0 2.099l-3.752 2.169c-1.003.58-2.629.58-3.632 0l-3.751-2.169c-1.003-.58-1.003-1.52 0-2.099l3.751-2.169Z"/><path fill="#fff" stroke="#363636" stroke-width=".629" d="M0 0h4.264v4.269H0z" transform="matrix(.86574 .5005 0 1 295.99 327.094)"/><path fill="#fff" stroke="#363636" stroke-width=".629" d="M0 0h4.264v4.269H0z" transform="matrix(.86574 -.50049 0 1 303.375 329.229)"/><path fill="#fff" stroke="#363636" stroke-width=".629" d="M295.223 326.027c0 .417.292.794.764 1.067v4.269c-.472-.273-.764-.65-.764-1.067v-4.269ZM299.678 329.229c1.019.59 2.672.59 3.692 0v4.269c-1.02.589-2.673.589-3.692 0v-4.269ZM307.825 326.027c0 .417-.292.794-.764 1.067v4.269c.472-.273.764-.65.764-1.067v-4.269ZM314.629 314.276c1.003-.579 2.629-.579 3.632 0l3.752 2.169c1.003.58 1.003 1.52 0 2.1l-3.752 2.169c-1.003.58-2.629.58-3.632 0l-3.751-2.169c-1.003-.58-1.003-1.52 0-2.1l3.751-2.169Z"/><path fill="#fff" stroke="#363636" stroke-width=".629" d="M0 0h4.264v4.269H0z" transform="matrix(.86574 .5005 0 1 310.91 318.562)"/><path fill="#fff" stroke="#363636" stroke-width=".629" d="M0 0h4.264v4.269H0z" transform="matrix(.86574 -.5005 0 1 318.293 320.696)"/><path fill="#fff" stroke="#363636" stroke-width=".629" d="M310.143 317.495c0 .417.292.794.764 1.067v4.269c-.472-.273-.764-.651-.764-1.067v-4.269ZM314.598 320.696c1.019.59 2.672.59 3.692 0v4.269c-1.02.589-2.673.589-3.692 0v-4.269ZM322.745 317.495c0 .417-.292.794-.765 1.067v4.269c.473-.273.765-.651.765-1.067v-4.269ZM329.551 305.737c1.003-.579 2.629-.579 3.632 0l3.752 2.169c1.003.58 1.003 1.52 0 2.1l-3.752 2.169c-1.003.58-2.629.58-3.632 0l-3.752-2.169c-1.002-.58-1.002-1.52 0-2.1l3.752-2.169Z"/><path fill="#fff" stroke="#363636" stroke-width=".629" d="M0 0h4.264v4.269H0z" transform="matrix(.86574 .5005 0 1 325.832 310.023)"/><path fill="#fff" stroke="#363636" stroke-width=".629" d="M0 0h4.264v4.269H0z" transform="matrix(.86574 -.5005 0 1 333.217 312.157)"/><path fill="#fff" stroke="#363636" stroke-width=".629" d="M325.064 308.956c0 .417.293.794.765 1.067v4.269c-.472-.273-.765-.651-.765-1.067v-4.269ZM329.52 312.157c1.019.59 2.672.59 3.691 0v4.269c-1.019.589-2.672.589-3.691 0v-4.269ZM337.669 308.956c0 .417-.292.794-.765 1.067v4.269c.473-.273.765-.651.765-1.067v-4.269ZM344.469 297.199c1.003-.58 2.629-.58 3.632 0l3.752 2.169c1.003.58 1.003 1.52 0 2.1l-3.752 2.169c-1.003.58-2.629.58-3.632 0l-3.752-2.169c-1.003-.58-1.003-1.52 0-2.1l3.752-2.169Z"/><path fill="#fff" stroke="#363636" stroke-width=".629" d="M0 0h4.264v4.269H0z" transform="matrix(.86574 .5005 0 1 340.748 301.484)"/><path fill="#fff" stroke="#363636" stroke-width=".629" d="M0 0h4.264v4.269H0z" transform="matrix(.86574 -.5005 0 1 348.131 303.619)"/><path fill="#fff" stroke="#363636" stroke-width=".629" d="M339.98 300.418c0 .417.293.794.765 1.067v4.269c-.472-.273-.765-.651-.765-1.067v-4.269ZM344.438 303.619c1.019.59 2.672.59 3.691 0v4.269c-1.019.589-2.672.589-3.691 0v-4.269ZM352.585 300.418c0 .417-.292.794-.765 1.067v4.269c.473-.273.765-.651.765-1.067v-4.269ZM225.102 382.574c1.003-.58 2.629-.58 3.632 0l3.752 2.169c1.003.58 1.003 1.52 0 2.1l-3.752 2.169c-1.003.58-2.629.58-3.632 0l-3.752-2.169c-1.003-.58-1.003-1.52 0-2.1l3.752-2.169Z"/><path fill="#fff" stroke="#363636" stroke-width=".629" d="M0 0h4.264v4.269H0z" transform="matrix(.86574 .5005 0 1 221.383 386.86)"/><path fill="#fff" stroke="#363636" stroke-width=".629" d="M0 0h4.264v4.269H0z" transform="matrix(.86574 -.5005 0 1 228.766 388.994)"/><path fill="#fff" stroke="#363636" stroke-width=".629" d="M220.613 385.793c0 .417.292.794.765 1.067v4.269c-.473-.273-.765-.651-.765-1.067v-4.269ZM225.072 388.994c1.02.59 2.673.59 3.692 0v4.269c-1.019.589-2.672.589-3.692 0v-4.269ZM233.22 385.793c0 .417-.293.794-.765 1.067v4.269c.472-.273.765-.651.765-1.067v-4.269ZM240.024 374.037c1.003-.58 2.629-.58 3.632 0l3.752 2.169c1.003.58 1.003 1.52 0 2.1l-3.752 2.169c-1.003.579-2.629.579-3.632 0l-3.752-2.169c-1.003-.58-1.003-1.52 0-2.1l3.752-2.169Z"/><path fill="#fff" stroke="#363636" stroke-width=".629" d="M0 0h4.264v4.269H0z" transform="matrix(.86574 .5005 0 1 236.305 378.322)"/><path fill="#fff" stroke="#363636" stroke-width=".629" d="M0 0h4.264v4.269H0z" transform="matrix(.86574 -.5005 0 1 243.688 380.457)"/><path fill="#fff" stroke="#363636" stroke-width=".629" d="M235.535 377.256c0 .417.292.794.765 1.067v4.269c-.473-.274-.765-.651-.765-1.068v-4.268ZM239.994 380.457c1.02.589 2.673.589 3.692 0v4.269c-1.019.589-2.672.589-3.692 0v-4.269ZM248.142 377.256c0 .417-.293.794-.765 1.067v4.269c.472-.274.765-.651.765-1.068v-4.268ZM254.946 365.498c1.003-.58 2.629-.58 3.632 0l3.751 2.169c1.003.58 1.003 1.52 0 2.1l-3.751 2.169c-1.003.579-2.629.579-3.632 0l-3.752-2.169c-1.003-.58-1.003-1.52 0-2.1l3.752-2.169Z"/><path fill="#fff" stroke="#363636" stroke-width=".629" d="M0 0h4.264v4.269H0z" transform="matrix(.86574 .5005 0 1 251.227 369.783)"/><path fill="#fff" stroke="#363636" stroke-width=".629" d="M0 0h4.264v4.269H0z" transform="matrix(.86574 -.5005 0 1 258.609 371.919)"/><path fill="#fff" stroke="#363636" stroke-width=".629" d="M250.459 368.718c0 .417.292.794.765 1.067v4.268c-.473-.273-.765-.65-.765-1.067v-4.268ZM254.916 371.919c1.019.589 2.672.589 3.692 0v4.269c-1.02.589-2.673.589-3.692 0v-4.269ZM263.061 368.718c0 .417-.292.794-.764 1.067v4.268c.472-.273.764-.65.764-1.067v-4.268ZM269.864 356.96c1.003-.58 2.629-.58 3.632 0l3.751 2.169c1.003.58 1.003 1.52 0 2.1l-3.751 2.168c-1.003.58-2.629.58-3.632 0l-3.752-2.168c-1.003-.58-1.003-1.52 0-2.1l3.752-2.169Z"/><path fill="#fff" stroke="#363636" stroke-width=".629" d="M0 0h4.264v4.269H0z" transform="matrix(.86574 .5005 0 1 266.145 361.246)"/><path fill="#fff" stroke="#363636" stroke-width=".629" d="M0 0h4.264v4.269H0z" transform="matrix(.86574 -.5005 0 1 273.527 363.38)"/><path fill="#fff" stroke="#363636" stroke-width=".629" d="M265.375 360.179c0 .416.292.794.765 1.067v4.268c-.473-.273-.765-.65-.765-1.067v-4.268ZM269.832 363.38c1.02.589 2.672.589 3.692 0v4.268c-1.02.59-2.672.59-3.692 0v-4.268ZM277.979 360.179c0 .416-.292.794-.764 1.067v4.268c.472-.273.764-.65.764-1.067v-4.268Z"/><path fill="url(#R)" stroke="#363636" stroke-width=".629" d="M284.786 348.426c1.003-.58 2.629-.58 3.632 0l3.751 2.169c1.003.58 1.003 1.52 0 2.099l-3.751 2.169c-1.003.58-2.629.58-3.632 0l-3.752-2.169c-1.003-.579-1.003-1.519 0-2.099l3.752-2.169Z"/><path fill="#fff" stroke="#363636" stroke-width=".629" d="M0 0h4.264v4.269H0z" transform="matrix(.86574 .5005 0 1 281.066 352.711)"/><path fill="#fff" stroke="#363636" stroke-width=".629" d="M0 0h4.264v4.269H0z" transform="matrix(.86574 -.5005 0 1 288.449 354.846)"/><path fill="#fff" stroke="#363636" stroke-width=".629" d="M280.301 351.645c0 .416.292.794.764 1.067v4.268c-.472-.273-.764-.65-.764-1.067v-4.268ZM284.754 354.846c1.019.589 2.672.589 3.692 0v4.268c-1.02.59-2.673.59-3.692 0v-4.268ZM292.903 351.645c0 .416-.292.794-.764 1.067v4.268c.472-.273.764-.65.764-1.067v-4.268ZM299.707 339.887c1.003-.58 2.629-.58 3.632 0l3.752 2.169c1.003.579 1.003 1.52 0 2.099l-3.752 2.169c-1.003.58-2.629.58-3.632 0l-3.751-2.169c-1.003-.579-1.003-1.52 0-2.099l3.751-2.169Z"/><path fill="#fff" stroke="#363636" stroke-width=".629" d="M0 0h4.264v4.269H0z" transform="matrix(.86574 .5005 0 1 295.988 344.174)"/><path fill="#fff" stroke="#363636" stroke-width=".629" d="M0 0h4.264v4.269H0z" transform="matrix(.86574 -.5005 0 1 303.371 346.308)"/><path fill="#fff" stroke="#363636" stroke-width=".629" d="M295.219 343.106c0 .417.292.794.764 1.068v4.268c-.472-.273-.764-.65-.764-1.067v-4.269ZM299.676 346.308c1.019.589 2.672.589 3.692 0v4.268c-1.02.59-2.673.59-3.692 0v-4.268ZM307.823 343.106c0 .417-.292.794-.764 1.068v4.268c.472-.273.764-.65.764-1.067v-4.269ZM314.627 331.349c1.003-.58 2.629-.58 3.632 0l3.752 2.169c1.003.579 1.003 1.519 0 2.099l-3.752 2.169c-1.003.58-2.629.58-3.632 0l-3.751-2.169c-1.003-.58-1.003-1.52 0-2.099l3.751-2.169Z"/><path fill="#fff" stroke="#363636" stroke-width=".629" d="M0 0h4.264v4.269H0z" transform="matrix(.86574 .5005 0 1 310.908 335.634)"/><path fill="#fff" stroke="#363636" stroke-width=".629" d="M0 0h4.264v4.269H0z" transform="matrix(.86574 -.5005 0 1 318.291 337.769)"/><path fill="#fff" stroke="#363636" stroke-width=".629" d="M310.139 334.567c0 .417.292.794.764 1.068v4.268c-.472-.273-.764-.65-.764-1.067v-4.269ZM314.596 337.769c1.019.589 2.672.589 3.692 0v4.268c-1.02.59-2.673.59-3.692 0v-4.268ZM322.743 334.567c0 .417-.292.794-.764 1.068v4.268c.472-.273.764-.65.764-1.067v-4.269Z"/><path fill="url(#S)" stroke="#363636" stroke-width=".629" d="M329.549 322.81c1.003-.58 2.629-.58 3.632 0l3.752 2.169c1.003.579 1.003 1.519 0 2.099l-3.752 2.169c-1.003.58-2.629.58-3.632 0l-3.752-2.169c-1.002-.58-1.002-1.52 0-2.099l3.752-2.169Z"/><path fill="#fff" stroke="#363636" stroke-width=".629" d="M0 0h4.264v4.269H0z" transform="matrix(.86574 .5005 0 1 325.83 327.096)"/><path fill="#fff" stroke="#363636" stroke-width=".629" d="M0 0h4.264v4.269H0z" transform="matrix(.86574 -.5005 0 1 333.213 329.23)"/><path fill="#fff" stroke="#363636" stroke-width=".629" d="M325.062 326.029c0 .417.293.794.765 1.067v4.269c-.472-.273-.765-.65-.765-1.067v-4.269ZM329.518 329.23c1.019.59 2.672.59 3.691 0v4.269c-1.019.589-2.672.589-3.691 0v-4.269ZM337.665 326.029c0 .417-.292.794-.765 1.067v4.269c.473-.273.765-.65.765-1.067v-4.269ZM344.467 314.277c1.003-.579 2.629-.579 3.632 0l3.752 2.169c1.003.58 1.003 1.52 0 2.1l-3.752 2.169c-1.003.58-2.629.58-3.632 0l-3.752-2.169c-1.002-.58-1.002-1.52 0-2.1l3.752-2.169Z"/><path fill="#fff" stroke="#363636" stroke-width=".629" d="M0 0h4.264v4.269H0z" transform="matrix(.86574 .5005 0 1 340.746 318.562)"/><path fill="#fff" stroke="#363636" stroke-width=".629" d="M0 0h4.264v4.269H0z" transform="matrix(.86574 -.5005 0 1 348.129 320.697)"/><path fill="#fff" stroke="#363636" stroke-width=".629" d="M339.979 317.496c0 .417.292.794.764 1.067v4.269c-.472-.273-.764-.651-.764-1.067v-4.269ZM344.436 320.697c1.019.59 2.672.59 3.691 0v4.269c-1.019.589-2.672.589-3.691 0v-4.269ZM352.583 317.496c0 .417-.292.794-.765 1.067v4.269c.473-.273.765-.651.765-1.067v-4.269ZM359.387 305.738c1.003-.58 2.629-.58 3.632 0l3.752 2.169c1.003.58 1.003 1.52 0 2.1l-3.752 2.169c-1.003.58-2.629.58-3.632 0l-3.752-2.169c-1.003-.58-1.003-1.52 0-2.1l3.752-2.169Z"/><path fill="#fff" stroke="#363636" stroke-width=".629" d="M0 0h4.264v4.269H0z" transform="matrix(.86574 .5005 0 1 355.668 310.023)"/><path fill="#fff" stroke="#363636" stroke-width=".629" d="M0 0h4.264v4.269H0z" transform="matrix(.86574 -.5005 0 1 363.051 312.158)"/><path fill="#fff" stroke="#363636" stroke-width=".629" d="M354.9 308.957c0 .417.293.794.765 1.067v4.269c-.472-.273-.765-.651-.765-1.067v-4.269ZM359.357 312.158c1.02.59 2.673.59 3.692 0v4.269c-1.019.589-2.672.589-3.692 0v-4.269ZM367.505 308.957c0 .417-.292.794-.765 1.067v4.269c.473-.273.765-.651.765-1.067v-4.269ZM242.161 391.11c1.003-.579 2.629-.579 3.632 0l3.751 2.169c1.003.58 1.003 1.52 0 2.1l-3.751 2.169c-1.003.58-2.629.58-3.632 0l-3.752-2.169c-1.003-.58-1.003-1.52 0-2.1l3.752-2.169Z"/><path fill="#fff" stroke="#363636" stroke-width=".629" d="M0 0h4.264v4.269H0z" transform="matrix(.86574 .5005 0 1 238.441 395.397)"/><path fill="#fff" stroke="#363636" stroke-width=".629" d="M0 0h4.264v4.269H0z" transform="matrix(.86574 -.5005 0 1 245.826 397.531)"/><path fill="#fff" stroke="#363636" stroke-width=".629" d="M237.674 394.33c0 .417.292.794.764 1.067v4.269c-.472-.273-.764-.651-.764-1.067v-4.269ZM242.129 397.531c1.019.59 2.672.59 3.692 0v4.269c-1.02.589-2.673.589-3.692 0v-4.269ZM250.276 394.33c0 .417-.292.794-.764 1.067v4.269c.472-.273.764-.651.764-1.067v-4.269ZM257.079 382.578c1.002-.58 2.629-.58 3.631 0l3.752 2.169c1.003.58 1.003 1.52 0 2.1l-3.751 2.169c-1.003.579-2.63.579-3.632 0l-3.752-2.169c-1.003-.58-1.003-1.52 0-2.1l3.752-2.169Z"/><path fill="#fff" stroke="#363636" stroke-width=".629" d="M0 0h4.264v4.269H0z" transform="matrix(.86574 .5005 0 1 253.359 386.863)"/><path fill="#fff" stroke="#363636" stroke-width=".629" d="M0 0h4.264v4.269H0z" transform="matrix(.86574 -.5005 0 1 260.742 388.998)"/><path fill="#fff" stroke="#363636" stroke-width=".629" d="M252.59 385.797c0 .417.292.794.764 1.067v4.269c-.472-.274-.764-.651-.764-1.068v-4.268ZM257.047 388.998c1.019.589 2.672.589 3.692 0v4.269c-1.02.589-2.673.589-3.692 0v-4.269ZM265.194 385.797c0 .417-.292.794-.764 1.067v4.269c.472-.274.764-.651.764-1.068v-4.268ZM272 374.039c1.003-.58 2.629-.58 3.632 0l3.752 2.169c1.003.58 1.003 1.52 0 2.1l-3.752 2.169c-1.003.579-2.629.579-3.632 0l-3.751-2.169c-1.003-.58-1.003-1.52 0-2.1l3.751-2.169Z"/><path fill="#fff" stroke="#363636" stroke-width=".629" d="M0 0h4.264v4.269H0z" transform="matrix(.86574 .5005 0 1 268.281 378.325)"/><path fill="#fff" stroke="#363636" stroke-width=".629" d="M0 0h4.264v4.269H0z" transform="matrix(.86574 -.5005 0 1 275.664 380.459)"/><path fill="#fff" stroke="#363636" stroke-width=".629" d="M267.514 377.258c0 .417.292.794.764 1.067v4.269c-.472-.274-.764-.651-.764-1.068v-4.268ZM271.969 380.459c1.019.589 2.672.589 3.692 0v4.269c-1.02.589-2.673.589-3.692 0v-4.269ZM280.116 377.258c0 .417-.292.794-.764 1.067v4.269c.472-.274.764-.651.764-1.068v-4.268ZM286.924 365.501c1.003-.58 2.629-.58 3.632 0l3.752 2.169c1.003.58 1.003 1.52 0 2.1l-3.752 2.169c-1.003.579-2.629.579-3.632 0l-3.752-2.169c-1.002-.58-1.002-1.52 0-2.1l3.752-2.169Z"/><path fill="#fff" stroke="#363636" stroke-width=".629" d="M0 0h4.264v4.269H0z" transform="matrix(.86574 .5005 0 1 283.205 369.786)"/><path fill="#fff" stroke="#363636" stroke-width=".629" d="M0 0h4.264v4.269H0z" transform="matrix(.86574 -.5005 0 1 290.59 371.921)"/><path fill="#fff" stroke="#363636" stroke-width=".629" d="M282.438 368.72c0 .416.292.794.764 1.067v4.268c-.472-.273-.764-.65-.764-1.067v-4.268ZM286.893 371.921c1.019.589 2.672.589 3.691 0v4.268c-1.019.59-2.672.59-3.691 0v-4.268ZM295.042 368.72c0 .416-.292.794-.765 1.067v4.268c.473-.273.765-.65.765-1.067v-4.268ZM301.844 356.962c1.003-.58 2.629-.58 3.632 0l3.752 2.169c1.003.58 1.003 1.52 0 2.1l-3.752 2.168c-1.003.58-2.629.58-3.632 0l-3.752-2.168c-1.003-.58-1.003-1.52 0-2.1l3.752-2.169Z"/><path fill="#fff" stroke="#363636" stroke-width=".629" d="M0 0h4.264v4.269H0z" transform="matrix(.86574 .5005 0 1 298.125 361.247)"/><path fill="#fff" stroke="#363636" stroke-width=".629" d="M0 0h4.264v4.269H0z" transform="matrix(.86574 -.5005 0 1 305.51 363.382)"/><path fill="#fff" stroke="#363636" stroke-width=".629" d="M297.357 360.181c0 .416.293.794.765 1.067v4.268c-.472-.273-.765-.65-.765-1.067v-4.268ZM301.812 363.382c1.02.589 2.673.589 3.692 0v4.268c-1.019.59-2.672.59-3.692 0v-4.268ZM309.962 360.181c0 .416-.292.794-.765 1.067v4.268c.473-.273.765-.65.765-1.067v-4.268ZM316.76 348.428c1.003-.58 2.629-.58 3.632 0l3.752 2.169c1.003.579 1.003 1.52 0 2.099l-3.752 2.169c-1.003.58-2.629.58-3.632 0l-3.752-2.169c-1.003-.579-1.003-1.52 0-2.099l3.752-2.169Z"/><path fill="#fff" stroke="#363636" stroke-width=".629" d="M0 0h4.264v4.269H0z" transform="matrix(.86574 .5005 0 1 313.039 352.713)"/><path fill="#fff" stroke="#363636" stroke-width=".629" d="M0 0h4.264v4.269H0z" transform="matrix(.86574 -.5005 0 1 320.422 354.848)"/><path fill="#fff" stroke="#363636" stroke-width=".629" d="M312.271 351.646c0 .417.293.795.765 1.068v4.268c-.472-.273-.765-.65-.765-1.067v-4.269ZM316.729 354.848c1.019.589 2.672.589 3.691 0v4.268c-1.019.59-2.672.59-3.691 0v-4.268ZM324.876 351.646c0 .417-.292.795-.765 1.068v4.268c.473-.273.765-.65.765-1.067v-4.269ZM331.682 339.89c1.003-.58 2.629-.58 3.632 0l3.752 2.169c1.003.579 1.003 1.519 0 2.099l-3.752 2.169c-1.003.58-2.629.58-3.632 0l-3.752-2.169c-1.003-.58-1.003-1.52 0-2.099l3.752-2.169Z"/><path fill="#fff" stroke="#363636" stroke-width=".629" d="M0 0h4.264v4.269H0z" transform="matrix(.86574 .50049 0 1 327.961 344.175)"/><path fill="#fff" stroke="#363636" stroke-width=".629" d="M0 0h4.264v4.269H0z" transform="matrix(.86574 -.50049 0 1 335.344 346.31)"/><path fill="#fff" stroke="#363636" stroke-width=".629" d="M327.193 343.108c0 .417.293.794.765 1.068v4.268c-.472-.273-.765-.65-.765-1.067v-4.269ZM331.65 346.31c1.02.589 2.673.589 3.692 0v4.268c-1.019.59-2.672.59-3.692 0v-4.268ZM339.798 343.108c0 .417-.292.794-.765 1.068v4.268c.473-.273.765-.65.765-1.067v-4.269ZM346.602 331.352c1.003-.58 2.629-.58 3.632 0l3.752 2.169c1.003.579 1.003 1.519 0 2.099l-3.752 2.169c-1.003.58-2.629.58-3.632 0l-3.752-2.169c-1.003-.58-1.003-1.52 0-2.099l3.752-2.169Z"/><path fill="#fff" stroke="#363636" stroke-width=".629" d="M0 0h4.264v4.269H0z" transform="matrix(.86574 .5005 0 1 342.883 335.639)"/><path fill="#fff" stroke="#363636" stroke-width=".629" d="M0 0h4.264v4.269H0z" transform="matrix(.86574 -.50049 0 1 350.266 337.772)"/><path fill="#fff" stroke="#363636" stroke-width=".629" d="M342.113 334.571c0 .417.292.794.765 1.067v4.269c-.473-.273-.765-.65-.765-1.067v-4.269ZM346.572 337.772c1.02.59 2.673.59 3.692 0v4.269c-1.019.589-2.672.589-3.692 0v-4.269ZM354.72 334.571c0 .417-.293.794-.765 1.067v4.269c.472-.273.765-.65.765-1.067v-4.269ZM361.524 322.813c1.003-.58 2.629-.58 3.632 0l3.752 2.168c1.003.58 1.003 1.52 0 2.1l-3.752 2.169c-1.003.58-2.629.58-3.632 0l-3.752-2.169c-1.003-.58-1.003-1.52 0-2.1l3.752-2.168Z"/><path fill="#fff" stroke="#363636" stroke-width=".629" d="M0 0h4.264v4.269H0z" transform="matrix(.86574 .5005 0 1 357.805 327.098)"/><path fill="#fff" stroke="#363636" stroke-width=".629" d="M0 0h4.264v4.269H0z" transform="matrix(.86574 -.5005 0 1 365.188 329.232)"/><path fill="#fff" stroke="#363636" stroke-width=".629" d="M357.037 326.031c0 .417.292.794.765 1.067v4.269c-.473-.273-.765-.65-.765-1.067v-4.269ZM361.494 329.232c1.02.59 2.673.59 3.692 0v4.269c-1.019.589-2.672.589-3.692 0v-4.269ZM369.644 326.031c0 .417-.293.794-.765 1.067v4.269c.472-.273.765-.65.765-1.067v-4.269Z"/><path fill="url(#T)" stroke="#363636" stroke-width=".629" d="M376.446 314.279c1.003-.579 2.629-.579 3.632 0l3.751 2.169c1.003.58 1.003 1.52 0 2.1l-3.751 2.169c-1.003.58-2.629.58-3.632 0l-3.752-2.169c-1.003-.58-1.003-1.52 0-2.1l3.752-2.169Z"/><path fill="#fff" stroke="#363636" stroke-width=".629" d="M0 0h4.264v4.269H0z" transform="matrix(.86574 .5005 0 1 372.727 318.564)"/><path fill="#fff" stroke="#363636" stroke-width=".629" d="M0 0h4.264v4.269H0z" transform="matrix(.86574 -.5005 0 1 380.111 320.699)"/><path fill="#fff" stroke="#363636" stroke-width=".629" d="M371.959 317.498c0 .417.292.794.765 1.067v4.269c-.473-.273-.765-.651-.765-1.067v-4.269ZM376.416 320.699c1.019.59 2.672.59 3.692 0v4.269c-1.02.589-2.673.589-3.692 0v-4.269ZM384.561 317.498c0 .417-.292.794-.764 1.067v4.269c.472-.273.764-.651.764-1.067v-4.269ZM257.079 399.646c1.002-.58 2.629-.58 3.632 0l3.751 2.168c1.003.58 1.003 1.52 0 2.1l-3.751 2.169c-1.003.58-2.63.58-3.632 0l-3.752-2.169c-1.003-.58-1.003-1.52 0-2.1l3.752-2.168Z"/><path fill="#fff" stroke="#363636" stroke-width=".629" d="M0 0h4.264v4.269H0z" transform="matrix(.86574 .5005 0 1 253.359 403.933)"/><path fill="#fff" stroke="#363636" stroke-width=".629" d="M0 0h4.264v4.269H0z" transform="matrix(.86574 -.5005 0 1 260.742 406.066)"/><path fill="#fff" stroke="#363636" stroke-width=".629" d="M252.59 402.865c0 .417.292.794.764 1.067v4.269c-.472-.273-.764-.65-.764-1.067v-4.269ZM257.047 406.066c1.019.59 2.672.59 3.692 0v4.269c-1.02.589-2.673.589-3.692 0v-4.269ZM265.194 402.865c0 .417-.292.794-.764 1.067v4.269c.472-.273.764-.65.764-1.067v-4.269ZM272 391.107c1.003-.579 2.629-.579 3.632 0l3.752 2.169c1.003.58 1.003 1.52 0 2.1l-3.752 2.169c-1.003.58-2.629.58-3.632 0l-3.751-2.169c-1.003-.58-1.003-1.52 0-2.1l3.751-2.169Z"/><path fill="#fff" stroke="#363636" stroke-width=".629" d="M0 0h4.264v4.269H0z" transform="matrix(.86574 .5005 0 1 268.281 395.393)"/><path fill="#fff" stroke="#363636" stroke-width=".629" d="M0 0h4.264v4.269H0z" transform="matrix(.86574 -.5005 0 1 275.664 397.527)"/><path fill="#fff" stroke="#363636" stroke-width=".629" d="M267.514 394.326c0 .417.292.794.764 1.067v4.269c-.472-.273-.764-.651-.764-1.067v-4.269ZM271.969 397.527c1.019.59 2.672.59 3.692 0v4.269c-1.02.589-2.673.589-3.692 0v-4.269ZM280.116 394.326c0 .417-.292.794-.764 1.067v4.269c.472-.273.764-.651.764-1.067v-4.269ZM286.922 382.573c1.003-.58 2.629-.58 3.632 0l3.752 2.169c1.003.58 1.003 1.52 0 2.1l-3.752 2.169c-1.003.58-2.629.58-3.632 0l-3.751-2.169c-1.003-.58-1.003-1.52 0-2.1l3.751-2.169Z"/><path fill="#fff" stroke="#363636" stroke-width=".629" d="M0 0h4.264v4.269H0z" transform="matrix(.86574 .5005 0 1 283.203 386.858)"/><path fill="#fff" stroke="#363636" stroke-width=".629" d="M0 0h4.264v4.269H0z" transform="matrix(.86574 -.5005 0 1 290.588 388.993)"/><path fill="#fff" stroke="#363636" stroke-width=".629" d="M282.436 385.792c0 .417.292.794.764 1.067v4.269c-.472-.273-.764-.651-.764-1.067v-4.269ZM286.891 388.993c1.019.59 2.672.59 3.691 0v4.269c-1.019.589-2.672.589-3.691 0v-4.269ZM295.038 385.792c0 .417-.292.794-.765 1.067v4.269c.473-.273.765-.651.765-1.067v-4.269ZM301.844 374.035c1.003-.58 2.629-.58 3.632 0l3.752 2.169c1.003.58 1.003 1.52 0 2.1l-3.752 2.169c-1.003.579-2.629.579-3.632 0l-3.752-2.169c-1.003-.58-1.003-1.52 0-2.1l3.752-2.169Z"/><path fill="#fff" stroke="#363636" stroke-width=".629" d="M0 0h4.264v4.269H0z" transform="matrix(.86574 .5005 0 1 298.125 378.32)"/><path fill="#fff" stroke="#363636" stroke-width=".629" d="M0 0h4.264v4.269H0z" transform="matrix(.86574 -.5005 0 1 305.51 380.455)"/><path fill="#fff" stroke="#363636" stroke-width=".629" d="M297.357 377.254c0 .417.293.794.765 1.067v4.269c-.472-.273-.765-.651-.765-1.068v-4.268ZM301.812 380.455c1.02.589 2.673.589 3.692 0v4.269c-1.019.589-2.672.589-3.692 0v-4.269ZM309.962 377.254c0 .417-.292.794-.765 1.067v4.269c.473-.273.765-.651.765-1.068v-4.268ZM316.758 365.497c1.003-.58 2.629-.58 3.632 0l3.752 2.169c1.003.58 1.003 1.52 0 2.1l-3.752 2.169c-1.003.579-2.629.579-3.632 0l-3.752-2.169c-1.002-.58-1.002-1.52 0-2.1l3.752-2.169Z"/><path fill="#fff" stroke="#363636" stroke-width=".629" d="M0 0h4.264v4.269H0z" transform="matrix(.86574 .5005 0 1 313.039 369.782)"/><path fill="#fff" stroke="#363636" stroke-width=".629" d="M0 0h4.264v4.269H0z" transform="matrix(.86574 -.5005 0 1 320.422 371.917)"/><path fill="#fff" stroke="#363636" stroke-width=".629" d="M312.271 368.716c0 .417.293.794.765 1.067v4.269c-.472-.274-.765-.651-.765-1.068v-4.268ZM316.729 371.917c1.019.589 2.672.589 3.691 0v4.269c-1.019.589-2.672.589-3.691 0v-4.269ZM324.876 368.716c0 .417-.292.794-.765 1.067v4.269c.473-.274.765-.651.765-1.068v-4.268Z"/><path fill="url(#U)" stroke="#363636" stroke-width=".629" d="M331.676 356.958c1.003-.58 2.629-.58 3.632 0l3.752 2.169c1.003.58 1.003 1.52 0 2.1l-3.752 2.169c-1.003.579-2.629.579-3.632 0l-3.752-2.169c-1.002-.58-1.002-1.52 0-2.1l3.752-2.169Z"/><path fill="#fff" stroke="#363636" stroke-width=".629" d="M0 0h4.264v4.269H0z" transform="matrix(.86574 .5005 0 1 327.957 361.243)"/><path fill="#fff" stroke="#363636" stroke-width=".629" d="M0 0h4.264v4.269H0z" transform="matrix(.86574 -.5005 0 1 335.34 363.378)"/><path fill="#fff" stroke="#363636" stroke-width=".629" d="M327.188 360.177c0 .417.292.794.764 1.067v4.268c-.472-.273-.764-.65-.764-1.067v-4.268ZM331.646 363.378c1.02.589 2.673.589 3.692 0v4.268c-1.019.59-2.672.59-3.692 0v-4.268ZM339.792 360.177c0 .417-.292.794-.765 1.067v4.268c.473-.273.765-.65.765-1.067v-4.268ZM346.6 348.425c1.003-.58 2.629-.58 3.632 0l3.752 2.169c1.003.58 1.003 1.52 0 2.099l-3.752 2.169c-1.003.58-2.629.58-3.632 0l-3.752-2.169c-1.003-.579-1.003-1.519 0-2.099l3.752-2.169Z"/><path fill="#fff" stroke="#363636" stroke-width=".629" d="M0 0h4.264v4.269H0z" transform="matrix(.86574 .5005 0 1 342.881 352.711)"/><path fill="#fff" stroke="#363636" stroke-width=".629" d="M0 0h4.264v4.269H0z" transform="matrix(.86574 -.50049 0 1 350.264 354.845)"/><path fill="#fff" stroke="#363636" stroke-width=".629" d="M342.111 351.644c0 .416.293.794.765 1.067v4.268c-.472-.273-.765-.65-.765-1.067v-4.268ZM346.568 354.845c1.02.589 2.673.589 3.692 0v4.268c-1.019.59-2.672.59-3.692 0v-4.268ZM354.716 351.644c0 .416-.292.794-.765 1.067v4.268c.473-.273.765-.65.765-1.067v-4.268ZM361.522 339.886c1.003-.58 2.629-.58 3.632 0l3.752 2.169c1.003.579 1.003 1.52 0 2.099l-3.752 2.169c-1.003.58-2.629.58-3.632 0l-3.752-2.169c-1.003-.579-1.003-1.52 0-2.099l3.752-2.169Z"/><path fill="#fff" stroke="#363636" stroke-width=".629" d="M0 0h4.264v4.269H0z" transform="matrix(.86574 .5005 0 1 357.803 344.171)"/><path fill="#fff" stroke="#363636" stroke-width=".629" d="M0 0h4.264v4.269H0z" transform="matrix(.86574 -.5005 0 1 365.186 346.307)"/><path fill="#fff" stroke="#363636" stroke-width=".629" d="M357.033 343.104c0 .417.292.795.765 1.068v4.268c-.473-.273-.765-.65-.765-1.067v-4.269ZM361.49 346.307c1.02.589 2.673.589 3.692 0v4.268c-1.019.59-2.672.59-3.692 0v-4.268ZM369.638 343.104c0 .417-.293.795-.765 1.068v4.268c.472-.273.765-.65.765-1.067v-4.269ZM376.444 331.348c1.003-.58 2.629-.58 3.632 0l3.752 2.169c1.002.579 1.002 1.519 0 2.099l-3.752 2.169c-1.003.58-2.629.58-3.632 0l-3.752-2.169c-1.003-.58-1.003-1.52 0-2.099l3.752-2.169Z"/><path fill="#fff" stroke="#363636" stroke-width=".629" d="M0 0h4.264v4.269H0z" transform="matrix(.86574 .5005 0 1 372.725 335.633)"/><path fill="#fff" stroke="#363636" stroke-width=".629" d="M0 0h4.264v4.269H0z" transform="matrix(.86574 -.5005 0 1 380.107 337.768)"/><path fill="#fff" stroke="#363636" stroke-width=".629" d="M371.955 334.566c0 .417.292.794.765 1.068v4.268c-.473-.273-.765-.65-.765-1.067v-4.269ZM376.412 337.768c1.02.589 2.672.589 3.692 0v4.268c-1.02.59-2.672.59-3.692 0v-4.268ZM384.56 334.566c0 .417-.293.794-.765 1.068v4.268c.472-.273.765-.65.765-1.067v-4.269ZM391.362 322.809c1.003-.58 2.629-.58 3.632 0l3.751 2.169c1.003.579 1.003 1.519 0 2.099l-3.751 2.169c-1.003.58-2.629.58-3.632 0l-3.752-2.169c-1.003-.58-1.003-1.52 0-2.099l3.752-2.169Z"/><path fill="#fff" stroke="#363636" stroke-width=".629" d="M0 0h4.264v4.269H0z" transform="matrix(.86574 .5005 0 1 387.643 327.096)"/><path fill="#fff" stroke="#363636" stroke-width=".629" d="M0 0h4.264v4.269H0z" transform="matrix(.86574 -.5005 0 1 395.025 329.229)"/><path fill="#fff" stroke="#363636" stroke-width=".629" d="M386.873 326.027c0 .417.292.794.765 1.067v4.269c-.473-.273-.765-.65-.765-1.067v-4.269ZM391.33 329.229c1.02.59 2.672.59 3.692 0v4.269c-1.02.589-2.672.589-3.692 0v-4.269ZM399.477 326.027c0 .417-.292.794-.764 1.067v4.269c.472-.273.764-.65.764-1.067v-4.269ZM272 408.185c1.003-.58 2.629-.58 3.632 0l3.752 2.169c1.003.579 1.003 1.519 0 2.099l-3.752 2.169c-1.003.58-2.629.58-3.632 0l-3.751-2.169c-1.003-.58-1.003-1.52 0-2.099l3.751-2.169Z"/><path fill="#fff" stroke="#363636" stroke-width=".629" d="M0 0h4.264v4.269H0z" transform="matrix(.86574 .5005 0 1 268.281 412.47)"/><path fill="#fff" stroke="#363636" stroke-width=".629" d="M0 0h4.264v4.269H0z" transform="matrix(.86574 -.5005 0 1 275.664 414.604)"/><path fill="#fff" stroke="#363636" stroke-width=".629" d="M267.514 411.403c0 .417.292.794.764 1.067v4.269c-.472-.273-.764-.65-.764-1.067v-4.269ZM271.969 414.604c1.019.59 2.672.59 3.692 0v4.269c-1.02.589-2.673.589-3.692 0v-4.269ZM280.116 411.403c0 .417-.292.794-.764 1.067v4.269c.472-.273.764-.65.764-1.067v-4.269Z"/><path fill="url(#V)" stroke="#363636" stroke-width=".629" d="M286.922 399.647c1.003-.579 2.629-.579 3.632 0l3.752 2.169c1.003.58 1.003 1.52 0 2.1l-3.752 2.169c-1.003.58-2.629.58-3.632 0l-3.751-2.169c-1.003-.58-1.003-1.52 0-2.1l3.751-2.169Z"/><path fill="#fff" stroke="#363636" stroke-width=".629" d="M0 0h4.264v4.269H0z" transform="matrix(.86574 .5005 0 1 283.203 403.933)"/><path fill="#fff" stroke="#363636" stroke-width=".629" d="M0 0h4.264v4.269H0z" transform="matrix(.86574 -.5005 0 1 290.588 406.067)"/><path fill="#fff" stroke="#363636" stroke-width=".629" d="M282.436 402.866c0 .417.292.794.764 1.067v4.269c-.472-.273-.764-.65-.764-1.067v-4.269ZM286.891 406.067c1.019.59 2.672.59 3.691 0v4.269c-1.019.589-2.672.589-3.691 0v-4.269ZM295.038 402.866c0 .417-.292.794-.765 1.067v4.269c.473-.273.765-.65.765-1.067v-4.269ZM301.844 391.107c1.003-.579 2.629-.579 3.632 0l3.752 2.169c1.003.58 1.003 1.52 0 2.1l-3.752 2.169c-1.003.58-2.629.58-3.632 0l-3.752-2.169c-1.003-.58-1.003-1.52 0-2.1l3.752-2.169Z"/><path fill="#fff" stroke="#363636" stroke-width=".629" d="M0 0h4.264v4.269H0z" transform="matrix(.86574 .50049 0 1 298.125 395.393)"/><path fill="#fff" stroke="#363636" stroke-width=".629" d="M0 0h4.264v4.269H0z" transform="matrix(.86574 -.5005 0 1 305.51 397.527)"/><path fill="#fff" stroke="#363636" stroke-width=".629" d="M297.357 394.326c0 .417.293.794.765 1.067v4.269c-.472-.273-.765-.651-.765-1.067v-4.269ZM301.812 397.527c1.02.59 2.673.59 3.692 0v4.269c-1.019.589-2.672.589-3.692 0v-4.269ZM309.962 394.326c0 .417-.292.794-.765 1.067v4.269c.473-.273.765-.651.765-1.067v-4.269ZM376.444 348.426c1.003-.58 2.629-.58 3.632 0l3.752 2.169c1.002.58 1.002 1.52 0 2.099l-3.752 2.169c-1.003.58-2.629.58-3.632 0l-3.752-2.169c-1.003-.579-1.003-1.519 0-2.099l3.752-2.169Z"/><path fill="#fff" stroke="#363636" stroke-width=".629" d="M0 0h4.264v4.269H0z" transform="matrix(.86574 .5005 0 1 372.725 352.711)"/><path fill="#fff" stroke="#363636" stroke-width=".629" d="M0 0h4.264v4.269H0z" transform="matrix(.86574 -.5005 0 1 380.107 354.846)"/><path fill="#fff" stroke="#363636" stroke-width=".629" d="M371.955 351.645c0 .416.292.794.765 1.067v4.268c-.473-.273-.765-.65-.765-1.067v-4.268ZM376.412 354.846c1.02.589 2.672.589 3.692 0v4.268c-1.02.59-2.672.59-3.692 0v-4.268ZM384.56 351.645c0 .416-.293.794-.765 1.067v4.268c.472-.273.765-.65.765-1.067v-4.268ZM361.522 356.959c1.003-.58 2.629-.58 3.632 0l3.752 2.169c1.003.58 1.003 1.52 0 2.1l-46.768 27.036c-1.003.58-2.629.58-3.632 0l-3.752-2.169c-1.002-.58-1.002-1.52 0-2.099l46.768-27.037Z"/><path fill="#fff" stroke="#363636" stroke-width=".629" d="M0 0h54.313v4.269H0z" transform="matrix(.86574 -.5005 0 1 321.848 388.433)"/><path fill="#fff" stroke="#363636" stroke-width=".629" d="M0 0h4.264v4.269H0z" transform="matrix(.86574 .5005 0 1 314.078 386.43)"/><path fill="#fff" stroke="#363636" stroke-width=".629" d="M313.32 385.362c0 .417.293.794.765 1.067v4.269c-.472-.273-.765-.65-.765-1.067v-4.269ZM317.773 388.563c1.02.59 2.673.59 3.692 0v4.269c-1.019.589-2.672.589-3.692 0v-4.269ZM369.638 360.178c0 .416-.293.794-.765 1.067v4.268c.472-.273.765-.65.765-1.067v-4.268ZM391.362 339.887c1.003-.58 2.629-.58 3.632 0l3.751 2.169c1.003.579 1.003 1.52 0 2.099l-3.751 2.169c-1.003.58-2.629.58-3.632 0l-3.752-2.169c-1.003-.579-1.003-1.52 0-2.099l3.752-2.169Z"/><path fill="#fff" stroke="#363636" stroke-width=".629" d="M0 0h4.264v4.269H0z" transform="matrix(.86574 .5005 0 1 387.643 344.174)"/><path fill="#fff" stroke="#363636" stroke-width=".629" d="M0 0h4.264v4.269H0z" transform="matrix(.86574 -.5005 0 1 395.025 346.308)"/><path fill="#fff" stroke="#363636" stroke-width=".629" d="M386.873 343.106c0 .417.292.794.765 1.068v4.268c-.473-.273-.765-.65-.765-1.067v-4.269ZM391.33 346.308c1.02.589 2.672.589 3.692 0v4.268c-1.02.59-2.672.59-3.692 0v-4.268ZM399.478 343.106c0 .417-.293.794-.765 1.068v4.268c.472-.273.765-.65.765-1.067v-4.269ZM406.284 331.349c1.003-.58 2.629-.58 3.632 0l3.751 2.169c1.003.579 1.003 1.519 0 2.099l-3.751 2.169c-1.003.58-2.629.58-3.632 0l-3.752-2.169c-1.003-.58-1.003-1.52 0-2.099l3.752-2.169Z"/><path fill="#fff" stroke="#363636" stroke-width=".629" d="M0 0h4.264v4.269H0z" transform="matrix(.86574 .5005 0 1 402.564 335.634)"/><path fill="#fff" stroke="#363636" stroke-width=".629" d="M0 0h4.264v4.269H0z" transform="matrix(.86574 -.5005 0 1 409.947 337.769)"/><path fill="#fff" stroke="#363636" stroke-width=".629" d="M401.795 334.567c0 .417.292.794.765 1.068v4.268c-.473-.273-.765-.65-.765-1.067v-4.269ZM406.252 337.769c1.019.589 2.672.589 3.692 0v4.268c-1.02.589-2.673.589-3.692 0v-4.268ZM414.399 334.567c0 .417-.292.794-.764 1.068v4.268c.472-.273.764-.65.764-1.067v-4.269Z"/><path fill="url(#W)" stroke="#363636" stroke-width="2.098" d="M157.154 221.159c0-9.268 6.505-20.541 14.528-25.18l146.308-84.581c8.023-4.639 14.527-.886 14.527 8.382v137.182c0 9.267-6.504 20.54-14.527 25.179l-146.308 84.581c-8.023 4.639-14.528.886-14.528-8.382V221.159Z"/><path fill="#fff" stroke="#363636" stroke-width="2.098" d="M0 0h4.264v136.594H0z" transform="matrix(.86574 .5005 0 1 153.465 219.318)"/><path fill="#fff" stroke="#363636" stroke-width="2.098" d="M0 0h168.443v4.264H0z" transform="scale(1.22434 .7078) rotate(-45 399.058 -29.028)"/><path fill="#fff" stroke="#363636" stroke-width="2.098" d="M157.157 358.046c0 4.37 1.441 7.906 4.325 9.573l-3.692-2.134c-2.883-1.667-4.325-5.203-4.325-9.573l3.692 2.134ZM157.157 221.453c0-9.43 6.611-20.897 14.767-25.612l-3.692-2.134c-8.156 4.715-14.767 16.182-14.767 25.611l3.692 2.135ZM328.193 110.504c-2.884-1.667-6.663-1.149-10.443 1.036l-3.691-2.135c3.779-2.185 7.558-2.702 10.442-1.035l3.692 2.134Z"/><rect width="191.074" height="156.846" x=".535" y=".309" stroke="#363636" stroke-width="1.236" rx="15.455" transform="matrix(.86574 -.5005 0 1 161.681 209.132)"/><defs><linearGradient id="b" x1="35.181" x2="38.17" y1="7.875" y2="-8.908" gradientUnits="userSpaceOnUse"><stop stop-color="#008897"/><stop offset=".524" stop-color="#00998B"/><stop offset="1" stop-color="#00A880"/></linearGradient><linearGradient id="c" x1="23.329" x2="27.666" y1="7.875" y2="-8.275" gradientUnits="userSpaceOnUse"><stop stop-color="#008897"/><stop offset=".524" stop-color="#00998B"/><stop offset="1" stop-color="#00A880"/></linearGradient><linearGradient id="d" x1="23.329" x2="27.666" y1="7.875" y2="-8.275" gradientUnits="userSpaceOnUse"><stop stop-color="#008897"/><stop offset=".524" stop-color="#00998B"/><stop offset="1" stop-color="#00A880"/></linearGradient><linearGradient id="e" x1="26.199" x2="30.115" y1="7.875" y2="-8.503" gradientUnits="userSpaceOnUse"><stop stop-color="#008897"/><stop offset=".524" stop-color="#00998B"/><stop offset="1" stop-color="#00A880"/></linearGradient><linearGradient id="f" x1="31.189" x2="34.532" y1="7.875" y2="-8.768" gradientUnits="userSpaceOnUse"><stop stop-color="#008897"/><stop offset=".524" stop-color="#00998B"/><stop offset="1" stop-color="#00A880"/></linearGradient><linearGradient id="g" x1="31.189" x2="34.532" y1="7.875" y2="-8.768" gradientUnits="userSpaceOnUse"><stop stop-color="#008897"/><stop offset=".524" stop-color="#00998B"/><stop offset="1" stop-color="#00A880"/></linearGradient><linearGradient id="h" x1="31.189" x2="34.532" y1="7.875" y2="-8.768" gradientUnits="userSpaceOnUse"><stop stop-color="#008897"/><stop offset=".524" stop-color="#00998B"/><stop offset="1" stop-color="#00A880"/></linearGradient><linearGradient id="i" x1="27.197" x2="30.221" y1="7" y2="-7.772" gradientUnits="userSpaceOnUse"><stop stop-color="#008897"/><stop offset=".524" stop-color="#00998B"/><stop offset="1" stop-color="#00A880"/></linearGradient><linearGradient id="j" x1="21.707" x2="25.857" y1="7.437" y2="-7.784" gradientUnits="userSpaceOnUse"><stop stop-color="#008897"/><stop offset=".524" stop-color="#00998B"/><stop offset="1" stop-color="#00A880"/></linearGradient><linearGradient id="k" x1="19.462" x2="24.013" y1="7.437" y2="-7.532" gradientUnits="userSpaceOnUse"><stop stop-color="#008897"/><stop offset=".524" stop-color="#00998B"/><stop offset="1" stop-color="#00A880"/></linearGradient><linearGradient id="l" x1="27.197" x2="30.221" y1="7" y2="-7.772" gradientUnits="userSpaceOnUse"><stop stop-color="#008897"/><stop offset=".524" stop-color="#00998B"/><stop offset="1" stop-color="#00A880"/></linearGradient><linearGradient id="m" x1="19.462" x2="24.013" y1="7.437" y2="-7.532" gradientUnits="userSpaceOnUse"><stop stop-color="#008897"/><stop offset=".524" stop-color="#00998B"/><stop offset="1" stop-color="#00A880"/></linearGradient><linearGradient id="n" x1="5.614" x2="14.219" y1="7.875" y2=".164" gradientUnits="userSpaceOnUse"><stop stop-color="#008897"/><stop offset=".524" stop-color="#00998B"/><stop offset="1" stop-color="#00A880"/></linearGradient><linearGradient id="o" x1="10.604" x2="18.187" y1="7.875" y2="-4.96" gradientUnits="userSpaceOnUse"><stop stop-color="#008897"/><stop offset=".524" stop-color="#00998B"/><stop offset="1" stop-color="#00A880"/></linearGradient><linearGradient id="p" x1="14.347" x2="20.697" y1="7.875" y2="-6.667" gradientUnits="userSpaceOnUse"><stop stop-color="#008897"/><stop offset=".524" stop-color="#00998B"/><stop offset="1" stop-color="#00A880"/></linearGradient><linearGradient id="q" x1="18.589" x2="23.829" y1="7.875" y2="-7.674" gradientUnits="userSpaceOnUse"><stop stop-color="#008897"/><stop offset=".524" stop-color="#00998B"/><stop offset="1" stop-color="#00A880"/></linearGradient><linearGradient id="r" x1="254.957" x2="265.168" y1="79.844" y2="72.096" gradientUnits="userSpaceOnUse"><stop stop-color="#008897"/><stop offset=".524" stop-color="#00998B"/><stop offset="1" stop-color="#00A880"/></linearGradient><linearGradient id="s" x1="276.901" x2="281.409" y1="86.002" y2="75.739" gradientUnits="userSpaceOnUse"><stop stop-color="#008897"/><stop offset=".524" stop-color="#00998B"/><stop offset="1" stop-color="#00A880"/></linearGradient><linearGradient id="t" x1="240.916" x2="251.127" y1="128.808" y2="121.061" gradientUnits="userSpaceOnUse"><stop stop-color="#008897"/><stop offset=".524" stop-color="#00998B"/><stop offset="1" stop-color="#00A880"/></linearGradient><linearGradient id="u" x1="227.498" x2="232.007" y1="114.498" y2="104.235" gradientUnits="userSpaceOnUse"><stop stop-color="#008897"/><stop offset=".524" stop-color="#00998B"/><stop offset="1" stop-color="#00A880"/></linearGradient><linearGradient id="v" x1="253.443" x2="263.655" y1="259.209" y2="251.461" gradientUnits="userSpaceOnUse"><stop stop-color="#008897"/><stop offset=".524" stop-color="#00998B"/><stop offset="1" stop-color="#00A880"/></linearGradient><linearGradient id="w" x1="275.385" x2="279.894" y1="265.367" y2="255.104" gradientUnits="userSpaceOnUse"><stop stop-color="#008897"/><stop offset=".524" stop-color="#00998B"/><stop offset="1" stop-color="#00A880"/></linearGradient><linearGradient id="x" x1="239.402" x2="249.614" y1="308.175" y2="300.427" gradientUnits="userSpaceOnUse"><stop stop-color="#008897"/><stop offset=".524" stop-color="#00998B"/><stop offset="1" stop-color="#00A880"/></linearGradient><linearGradient id="y" x1="225.983" x2="230.491" y1="293.864" y2="283.602" gradientUnits="userSpaceOnUse"><stop stop-color="#008897"/><stop offset=".524" stop-color="#00998B"/><stop offset="1" stop-color="#00A880"/></linearGradient><linearGradient id="z" x1="29.317" x2="32.856" y1="7.875" y2="-8.684" gradientUnits="userSpaceOnUse"><stop stop-color="#008897"/><stop offset=".524" stop-color="#00998B"/><stop offset="1" stop-color="#00A880"/></linearGradient><linearGradient id="A" x1="35.181" x2="38.17" y1="7.875" y2="-8.908" gradientUnits="userSpaceOnUse"><stop stop-color="#008897"/><stop offset=".524" stop-color="#00998B"/><stop offset="1" stop-color="#00A880"/></linearGradient><linearGradient id="B" x1="23.329" x2="27.666" y1="7.875" y2="-8.275" gradientUnits="userSpaceOnUse"><stop stop-color="#008897"/><stop offset=".524" stop-color="#00998B"/><stop offset="1" stop-color="#00A880"/></linearGradient><linearGradient id="C" x1="10.604" x2="18.187" y1="7.875" y2="-4.96" gradientUnits="userSpaceOnUse"><stop stop-color="#008897"/><stop offset=".524" stop-color="#00998B"/><stop offset="1" stop-color="#00A880"/></linearGradient><linearGradient id="D" x1="14.347" x2="20.697" y1="7.875" y2="-6.667" gradientUnits="userSpaceOnUse"><stop stop-color="#008897"/><stop offset=".524" stop-color="#00998B"/><stop offset="1" stop-color="#00A880"/></linearGradient><linearGradient id="E" x1="18.589" x2="23.829" y1="7.875" y2="-7.674" gradientUnits="userSpaceOnUse"><stop stop-color="#008897"/><stop offset=".524" stop-color="#00998B"/><stop offset="1" stop-color="#00A880"/></linearGradient><linearGradient id="F" x1="29.317" x2="32.856" y1="7.875" y2="-8.684" gradientUnits="userSpaceOnUse"><stop stop-color="#008897"/><stop offset=".524" stop-color="#00998B"/><stop offset="1" stop-color="#00A880"/></linearGradient><linearGradient id="G" x1="29.317" x2="32.856" y1="7.875" y2="-8.684" gradientUnits="userSpaceOnUse"><stop stop-color="#008897"/><stop offset=".524" stop-color="#00998B"/><stop offset="1" stop-color="#00A880"/></linearGradient><linearGradient id="H" x1="21.707" x2="25.857" y1="7.437" y2="-7.784" gradientUnits="userSpaceOnUse"><stop stop-color="#008897"/><stop offset=".524" stop-color="#00998B"/><stop offset="1" stop-color="#00A880"/></linearGradient><linearGradient id="I" x1="275.385" x2="279.894" y1="-10.043" y2="-20.306" gradientUnits="userSpaceOnUse"><stop stop-color="#008897"/><stop offset=".524" stop-color="#00998B"/><stop offset="1" stop-color="#00A880"/></linearGradient><linearGradient id="J" x1="239.402" x2="249.614" y1="32.764" y2="25.016" gradientUnits="userSpaceOnUse"><stop stop-color="#008897"/><stop offset=".524" stop-color="#00998B"/><stop offset="1" stop-color="#00A880"/></linearGradient><linearGradient id="K" x1="225.983" x2="230.491" y1="18.453" y2="8.19" gradientUnits="userSpaceOnUse"><stop stop-color="#008897"/><stop offset=".524" stop-color="#00998B"/><stop offset="1" stop-color="#00A880"/></linearGradient><linearGradient id="L" x1="254.957" x2="265.168" y1="354.069" y2="346.321" gradientUnits="userSpaceOnUse"><stop stop-color="#008897"/><stop offset=".524" stop-color="#00998B"/><stop offset="1" stop-color="#00A880"/></linearGradient><linearGradient id="M" x1="276.901" x2="281.409" y1="360.226" y2="349.964" gradientUnits="userSpaceOnUse"><stop stop-color="#008897"/><stop offset=".524" stop-color="#00998B"/><stop offset="1" stop-color="#00A880"/></linearGradient><linearGradient id="N" x1="240.916" x2="251.127" y1="403.034" y2="395.286" gradientUnits="userSpaceOnUse"><stop stop-color="#008897"/><stop offset=".524" stop-color="#00998B"/><stop offset="1" stop-color="#00A880"/></linearGradient><linearGradient id="O" x1="227.498" x2="232.007" y1="388.723" y2="378.461" gradientUnits="userSpaceOnUse"><stop stop-color="#008897"/><stop offset=".524" stop-color="#00998B"/><stop offset="1" stop-color="#00A880"/></linearGradient><linearGradient id="P" x1="279.526" x2="281.262" y1="311.191" y2="316.544" gradientUnits="userSpaceOnUse"><stop stop-color="#009877"/><stop offset="1" stop-color="#50D098"/></linearGradient><linearGradient id="Q" x1="221.642" x2="226.78" y1="369.933" y2="374.131" gradientUnits="userSpaceOnUse"><stop stop-color="#008897"/><stop offset=".524" stop-color="#00998B"/><stop offset="1" stop-color="#00A880"/></linearGradient><linearGradient id="R" x1="280.257" x2="289.741" y1="352.237" y2="357.206" gradientUnits="userSpaceOnUse"><stop stop-color="#FF7A7F"/><stop offset="1" stop-color="#FF577F"/></linearGradient><linearGradient id="S" x1="333.991" x2="333.493" y1="323.279" y2="329.18" gradientUnits="userSpaceOnUse"><stop stop-color="#5BC5B8"/><stop offset="1" stop-color="#BCEBE5"/></linearGradient><linearGradient id="T" x1="371.917" x2="381.401" y1="318.09" y2="323.06" gradientUnits="userSpaceOnUse"><stop stop-color="#FF7A7F"/><stop offset="1" stop-color="#FF577F"/></linearGradient><linearGradient id="U" x1="329.85" x2="333.549" y1="358.012" y2="364.411" gradientUnits="userSpaceOnUse"><stop stop-color="#005D84"/><stop offset="1" stop-color="#4A989D"/></linearGradient><linearGradient id="V" x1="285.926" x2="287.663" y1="400.833" y2="406.185" gradientUnits="userSpaceOnUse"><stop stop-color="#009877"/><stop offset="1" stop-color="#50D098"/></linearGradient><radialGradient id="W" cx="0" cy="0" r="1" gradientTransform="matrix(0 85.3715 -87.6816 0 244.836 239.06)" gradientUnits="userSpaceOnUse"><stop stop-color="#fff" stop-opacity="0"/><stop offset="1" stop-color="#fff"/></radialGradient><clipPath id="a"><path fill="#fff" d="M184.074 62.266 290.914.58v317.171l-106.84 61.685z"/></clipPath></defs></svg>
