<svg xmlns="http://www.w3.org/2000/svg" viewBox="0 0 1248 280" fill="none"><g clip-path="url(#a)"><path fill="url(#b)" d="M139.67 190.194a7.09 7.09 0 0 1-6.847-1.206c-2.398-2.013-3.151-5.329-3.761-8.4l-1.81-9.082 3.788 2.609c2.725 1.876 5.511 3.812 7.397 6.529 1.887 2.718 2.71 6.427 1.195 9.367"/><path fill="#F2F2F2" d="M139.347 201.19c.383-2.793.777-5.622.508-8.445-.239-2.507-1.003-4.956-2.561-6.963a11.567 11.567 0 0 0-2.972-2.694c-.297-.187-.571.284-.275.47a11.013 11.013 0 0 1 4.356 5.256c.949 2.413 1.101 5.042.936 7.605-.099 1.549-.308 3.088-.519 4.626a.284.284 0 0 0 .028.206.285.285 0 0 0 .162.129.272.272 0 0 0 .335-.19h.002Z"/><path fill="url(#c)" d="M108.74 201.08s3.979-9.794-7.957-17.139l7.957 17.139Z"/><path fill="url(#d)" d="M113.639 200.901s1.213-6.98 10.607-6.92l-10.607 6.92Z"/><path fill="#CBCBCB" d="M215.69 201.399H96.824a.317.317 0 0 1-.226-.088.314.314 0 0 1-.07-.345.314.314 0 0 1 .296-.19H215.69a.313.313 0 0 1 .215.529.313.313 0 0 1-.215.094Z"/><path fill="#090814" d="M176.461 69.517a3.358 3.358 0 1 0 0-6.716 3.358 3.358 0 0 0 0 6.716Z"/><path fill="#090814" d="M173.289 67.38a3.355 3.355 0 0 1 .598-4.66c.456-.36.997-.595 1.572-.684a3.357 3.357 0 1 0 .417 6.675 3.352 3.352 0 0 1-2.587-1.332Z"/><path fill="#090814" d="M172.977 87.902c5.448 0 9.864-4.416 9.864-9.864s-4.416-9.864-9.864-9.864c-5.447 0-9.864 4.416-9.864 9.864s4.417 9.864 9.864 9.864Z"/><path fill="#2F2E41" d="M163.785 74.447a9.86 9.86 0 0 1 12.772-4.98c-.099-.05-.198-.1-.3-.148a9.867 9.867 0 0 0-13.08 4.85 9.862 9.862 0 0 0 4.85 13.08c.101.047.204.09.307.132a9.865 9.865 0 0 1-4.548-12.933l-.001-.001Z"/><path fill="#FFB8B8" d="m185.298 120.053-3.341 2.505-1.67-5.01 3.758-1.253 1.253 3.758Z"/><path fill="#090814" d="m183.42 127.78 6.68 34.655 8.769 25.886-14.197 2.924-13.778-51.774-.418 49.686-17.955.418 4.176-29.645 2.087-33.403 24.636 1.253Z"/><path fill="#090814" d="M162.124 188.321v6.68l-.418 3.758s-.835 3.341 4.176 2.505c5.01-.836 2.504-4.593 2.504-4.593l-1.67-3.341-.835-5.428-3.757.419ZM193.499 187.848l1.204 6.571 1.088 3.621s1.424 3.135-3.655 3.217c-5.079.081-3.292-4.066-3.292-4.066l1.041-3.588-.157-5.49 3.771-.265Z"/><path fill="#FFB8B8" d="M172.982 87.28a6.263 6.263 0 1 0 0-12.526 6.263 6.263 0 0 0 0 12.526Z"/><path fill="#FFB8B8" d="M169.225 84.771s.835 6.68-2.506 8.35c-3.34 1.67 6.263 4.176 6.263 4.176l5.846-6.68s-2.923-3.758-2.088-6.264l-7.515.418Z"/><path fill="url(#e)" d="M177.991 89.367s-.835 4.175-5.845 4.175c-5.011 0-3.758-2.086-3.758-2.086l-6.68 3.34.835 19.207-5.846 14.196s3.341-.835 7.516 1.253c4.175 2.087 12.108.417 12.108.417s3.341-.418 5.428.417c2.087.836 2.505-1.671 2.505-1.671l-2.505-12.109 3.758-13.361-.835-11.69-6.681-2.088Z"/><path fill="#FFB8B8" d="m154.191 131.119-1.252 5.428s-4.593 7.933-1.253 8.351c3.341.417 4.175-8.351 4.175-8.351l2.088-5.428h-3.758Z"/><path fill="url(#f)" d="m181.328 92.707 2.054-1.682 1.286.429s2.088-.417 4.176 2.923c2.087 3.34 10.251 14.062 10.02 15.866-.231 1.804-11.272 9.186-11.272 9.186s.417 1.252 0 1.67c-.418.417-2.923 1.252-2.923.835 0-.418-2.836-5.738-2.836-5.738s2-2.614 2.418-2.195c.53.452 1.088.87 1.671 1.253l3.34-3.341c.329-.382.61-.803.835-1.253.546-.975.418-2.505-7.098-9.603l-1.671-8.35Z"/><path fill="url(#g)" d="m163.794 94.793-1.124-.55s-2.633.55-3.468 2.22c-.835 1.67-2.923 18.789-2.923 18.789l-1.67 11.273s-1.253 0-1.253 1.252c0 1.253-1.67 4.593-.417 4.593 1.252 0 6.263 0 7.098-.835s2.505-4.175 2.087-4.593c-.417-.418-1.252-.417-1.252-.417l2.505-11.691.417-20.041Z"/><path fill="#090814" d="M167.199 74.467v6.972h1.615l2.055-2.202-.276 2.202h7.139l-.441-2.202.881 2.202h1.138v-6.972h-12.111Z"/><path fill="url(#h)" d="M179.246 79.215h.848a1.802 1.802 0 0 1 1.8 1.8v.197a1.803 1.803 0 0 1-1.8 1.8h-.848v-3.797Z"/><path fill="url(#i)" d="M179.039 78.586h.767a.768.768 0 0 1 .766.767v3.518a.77.77 0 0 1-.766.767h-.767v-5.052Z"/><path fill="url(#j)" d="M166.709 83.012h-.848a1.806 1.806 0 0 1-1.273-.528 1.811 1.811 0 0 1-.527-1.273v-.197a1.81 1.81 0 0 1 .527-1.273 1.814 1.814 0 0 1 1.273-.527h.848v3.798Z"/><path fill="url(#k)" d="M166.92 83.64h-.767a.767.767 0 0 1-.766-.766v-3.519a.776.776 0 0 1 .224-.542.778.778 0 0 1 .543-.224h.766v5.052Z"/><path fill="url(#l)" d="M180.155 79.479h-.561c0-3.968-2.94-7.197-6.554-7.197-3.614 0-6.554 3.228-6.554 7.197h-.562c0-4.278 3.192-7.758 7.116-7.758 3.924 0 7.115 3.48 7.115 7.758Z"/><path fill="#3F3D56" d="m152.463 135.072-.05.031-.858-1.352a.928.928 0 0 0-.942-.417.915.915 0 0 0-.337.131l-2.865 1.818a.923.923 0 0 0-.286 1.279l4.707 7.419a.929.929 0 0 0 1.279.287l2.865-1.819a.925.925 0 0 0 .286-1.279l-3.238-5.104.049-.032-.61-.962Z"/><path fill="url(#m)" d="m151.391 133.864 4.7 7.409a.692.692 0 0 1-.214.954l-2.879 1.827a.69.69 0 0 1-.954-.214l-4.7-7.409a.692.692 0 0 1 .213-.954l.35-.222a.324.324 0 0 0 .191.243.329.329 0 0 0 .309-.023l1.641-1.042a.336.336 0 0 0 .11-.115.332.332 0 0 0-.096-.43l.374-.238a.694.694 0 0 1 .955.214Z"/><g clip-path="url(#n)"><path fill="url(#o)" d="m99.82 185.119-77.736-18.706a7.15 7.15 0 0 1-5.278-8.619L43.921 45.105a7.15 7.15 0 0 1 8.621-5.274l77.737 18.706a7.156 7.156 0 0 1 5.278 8.619l-27.116 112.688a7.15 7.15 0 0 1-8.622 5.275Z"/><path fill="#fff" d="m101.025 180.72-78.01-18.772a2.205 2.205 0 0 1-1.627-2.657L48.684 45.856a2.205 2.205 0 0 1 2.657-1.626l78.01 18.772a2.206 2.206 0 0 1 1.628 2.657l-27.296 113.435a2.202 2.202 0 0 1-2.658 1.626ZM90.463 51.83a.608.608 0 1 0 .285-1.182.608.608 0 0 0-.285 1.182Z"/><path fill="#fff" d="M107.036 77.624a5.125 5.125 0 0 0 3.525-1.236c.097-.084.221.071.125.154a5.333 5.333 0 0 1-3.672 1.279c-.127-.005-.105-.202.022-.197Z"/><path fill="#CCC" d="m110.405 107.28 1.18-22.918a1.67 1.67 0 0 0-1.327-1.71l-2.815-.572-.303-.061-1.406-.285-.302-.062-.904-.183-18.227-3.7a.83.83 0 0 1-.082-.02l-4.03-1.06-1.49-.39-.048-.012-1.102-.29-9.589-2.52-2.542-.668-1.254-.329-.3-.08-1.43-.374-.299-.08-1.462-.383-.3-.08-1.606-.422-.253-.066-1.433-.377-.227-.06-.033-.007a1.667 1.667 0 0 0-1.918.969L47.72 93.406a1.657 1.657 0 0 0 1.141 2.254l21.287 5.123c.313.076.594.25.801.496l.332.396c.23.271.539.463.884.547l12.543 3.018a1.64 1.64 0 0 0 1.254-.198 1.503 1.503 0 0 1 1.06-.196l21.425 3.977a1.665 1.665 0 0 0 1.776-.868c.109-.21.171-.441.183-.677l-.001.002Z"/><path fill="#E6E6E6" d="m107.195 105.877 3.16-23.17.003-.03a1.476 1.476 0 0 0-.276-1.048l-3.929-5.274a1.34 1.34 0 0 0-.685-.485c-2.214-.686-13.513-3.97-18.613-1.325a1.196 1.196 0 0 1-1.434-.254 1.216 1.216 0 0 1-.261-.448 4.976 4.976 0 0 0-1.042-1.74 7.555 7.555 0 0 0-.66-.655 9.46 9.46 0 0 0-.687-.547c-.216-.158-.45-.316-.703-.475-1.313-.82-3.136-1.636-5.658-2.369a45.946 45.946 0 0 0-3.413-.843 67.86 67.86 0 0 0-3.537-.64l-.017-.004-9.389 3.026a1.466 1.466 0 0 0-.917.897l-.054.146-8.186 22.59a1.497 1.497 0 0 0 .069 1.184 1.375 1.375 0 0 0 .901.719l20.171 4.854c.268.066.506.22.675.439l.711.917c.185.239.445.41.738.487l8.834 2.279.021.005c.224.054.458.049.68-.012l1.939-.538c.177-.049.363-.058.543-.025l19.359 3.591a1.365 1.365 0 0 0 1.082-.261 1.47 1.47 0 0 0 .577-.991h-.002Z"/><path fill="#fff" d="m101.505 100.194.579-3.585 2.444-15.117.36-2.237a2.392 2.392 0 0 0-1.749-2.701c-4.11-1.101-11.645-2.718-15.913-1.14a2.097 2.097 0 0 1-2.587-.971 6.096 6.096 0 0 0-1.476-1.776 10.443 10.443 0 0 0-1.397-.994c-1.436-.87-3.326-1.645-5.67-2.322l-5.619-1.387-.01-.002a1.578 1.578 0 0 0-1.873 1.068l-1.174 3.802-5.14 16.673a2.397 2.397 0 0 0 1.7 3.032c9.409 2.413 13.055 5.398 14.458 7.476a2.397 2.397 0 0 0 2.8.919c3.78-1.352 9.352-.64 13.695.307 1.33.291 2.545.603 3.558.884a2.398 2.398 0 0 0 3.014-1.929ZM53.44 93.824l-.01-.002a.155.155 0 0 1-.1-.195l7.142-22.541a.151.151 0 0 1 .134-.108.154.154 0 0 1 .16.201L53.625 93.72a.154.154 0 0 1-.183.103ZM55.614 93.392l-.01-.002a.154.154 0 0 1-.101-.194l7.143-22.542a.152.152 0 0 1 .134-.108.155.155 0 0 1 .16.201L55.8 93.29a.155.155 0 0 1-.184.103ZM57.527 93.375l-.011-.003a.155.155 0 0 1-.1-.194l7.142-22.542a.152.152 0 0 1 .134-.108c.02-.001.041.001.06.008a.155.155 0 0 1 .101.194L57.71 93.272a.154.154 0 0 1-.183.103ZM59.546 92.908l-.01-.002a.155.155 0 0 1-.101-.195l7.143-22.541a.152.152 0 0 1 .134-.108.154.154 0 0 1 .161.201L59.73 92.805a.154.154 0 0 1-.184.103ZM105.142 106.424l.01.003a.16.16 0 0 0 .116-.027.157.157 0 0 0 .062-.1l3.894-23.324a.154.154 0 0 0-.002-.06.14.14 0 0 0-.024-.056.159.159 0 0 0-.044-.041.162.162 0 0 0-.118-.02.166.166 0 0 0-.055.025.165.165 0 0 0-.041.044.145.145 0 0 0-.021.057l-3.894 23.324a.154.154 0 0 0 .116.176l.001-.001ZM103.516 104.6l.011.002a.151.151 0 0 0 .157-.07.163.163 0 0 0 .021-.057l3.894-23.323a.158.158 0 0 0-.026-.116.15.15 0 0 0-.045-.041.156.156 0 0 0-.172.006.152.152 0 0 0-.062.1l-3.894 23.323a.155.155 0 0 0 .116.176ZM102.071 102.663l.011.002c.02.003.04.003.06-.002a.151.151 0 0 0 .118-.125l3.893-23.324a.158.158 0 0 0-.025-.116.15.15 0 0 0-.045-.041.156.156 0 0 0-.172.006.165.165 0 0 0-.063.1l-3.893 23.324a.15.15 0 0 0 .023.111.157.157 0 0 0 .093.066v-.001Z"/><path fill="#3F3D56" d="M70.076 73.348c3.688-.242 7.332.91 10.21 3.228a14.06 14.06 0 0 1 2.198 2.21c.183.23.581-.01.395-.243a15.206 15.206 0 0 0-9.643-5.538 14.602 14.602 0 0 0-3.175-.12c-.297.021-.284.485.015.463ZM88.135 80.33a14.735 14.735 0 0 1 10.613 1.414 14.026 14.026 0 0 1 2.546 1.796c.223.199.545-.136.322-.334a15.222 15.222 0 0 0-10.472-3.76c-1.06.032-2.114.18-3.142.44-.29.072-.156.517.133.444ZM87.412 83.337a14.734 14.734 0 0 1 10.613 1.414 14.033 14.033 0 0 1 2.546 1.797c.223.198.545-.136.322-.335a15.223 15.223 0 0 0-10.472-3.76 14.6 14.6 0 0 0-3.142.44c-.29.073-.156.518.134.445h-.001Z"/><path fill="url(#p)" d="M100.234 89.433a.195.195 0 0 0 0-.117.202.202 0 0 0-.066-.097c-2.287-1.999-5.12-3.268-8.135-3.645l-.056-.007a14.665 14.665 0 0 0-5.421.332.235.235 0 0 0-.16.17l-1.35 5.608a.234.234 0 0 0 .234.286 23.01 23.01 0 0 1 5.22.399l.107.02a25.972 25.972 0 0 1 4.293 1.23 27.916 27.916 0 0 1 1.847.776l.069.032c.578.267 1.15.552 1.713.851a.236.236 0 0 0 .29-.055.235.235 0 0 0 .049-.094l1.366-5.68a.015.015 0 0 0 0-.009Z"/><path fill="#fff" d="m88.706 86.683-.072.03c.024-.011.05-.02.075-.029l-.003-.001Z"/><path fill="#3F3D56" d="M69.353 76.354c3.688-.242 7.332.91 10.21 3.227.812.653 1.55 1.394 2.198 2.21.183.231.581-.009.396-.242a15.207 15.207 0 0 0-9.644-5.538 14.61 14.61 0 0 0-3.175-.12c-.296.02-.284.485.016.463ZM68.63 79.364c3.688-.243 7.332.91 10.21 3.227.813.653 1.55 1.394 2.198 2.21.184.231.582-.009.396-.242a15.207 15.207 0 0 0-9.643-5.538 14.608 14.608 0 0 0-3.175-.12c-.297.02-.284.485.015.463ZM67.904 82.37c3.688-.243 7.332.91 10.21 3.227a14.07 14.07 0 0 1 2.198 2.21c.183.231.581-.01.396-.243a15.207 15.207 0 0 0-9.644-5.537 14.602 14.602 0 0 0-3.175-.121c-.297.021-.284.485.015.464ZM67.182 85.376c3.687-.243 7.331.91 10.209 3.227a14.07 14.07 0 0 1 2.198 2.21c.183.231.581-.01.396-.243a15.207 15.207 0 0 0-9.643-5.538 14.61 14.61 0 0 0-3.176-.12c-.296.021-.284.485.016.464ZM66.459 88.383c3.687-.242 7.331.91 10.21 3.228.812.652 1.549 1.394 2.198 2.21.183.23.58-.01.395-.243a15.206 15.206 0 0 0-9.643-5.538 14.608 14.608 0 0 0-3.175-.12c-.297.021-.284.485.015.463Z"/><path fill="url(#q)" d="m83.456 71.452-2.028 8.427c-.034.144-.313.203-.66.155a1.893 1.893 0 0 1-.186-.036 1.584 1.584 0 0 1-.525-.22.72.72 0 0 1-.084-.068c-.072-.07-.106-.14-.091-.203l2.184-9.077c.254.158.487.316.704.474.252.184.48.366.686.548Z"/><path fill="#E6E6E6" d="m86 75.118-.22-.053-6.56 27.261.22.053L86 75.118Z"/><path fill="#F2F2F2" d="M100.429 101.832a2.407 2.407 0 0 1-1.94.291 65.89 65.89 0 0 0-3.558-.884l-.006-.008 7.522-6.05-.944 5.013a2.403 2.403 0 0 1-1.074 1.638Z"/><path fill="url(#r)" d="M68.836 142.846a6.027 6.027 0 0 1 4.54 4.915 6.018 6.018 0 0 1-6.188 6.953 6.017 6.017 0 0 1-5.412-3.935 6.018 6.018 0 0 1 7.06-7.933Z"/><path fill="#fff" d="m66.22 145.655-1.251 5.202a.338.338 0 0 0 .098.324.333.333 0 0 0 .33.073l4.855-1.584a.335.335 0 0 0 .133-.554l-3.602-3.618a.327.327 0 0 0-.328-.086.332.332 0 0 0-.234.243Z"/><path fill="#F2F2F2" d="M83.981 148.553a4.011 4.011 0 0 1 1.158 7.324 4.007 4.007 0 0 1-2.256.587 4.01 4.01 0 0 1-3.608-2.623 4.012 4.012 0 0 1 4.706-5.288Z"/><path fill="#3F3D56" d="m83.214 154.185.777-3.226a.334.334 0 0 1 .4-.245l.04.01a.333.333 0 0 1 .245.4l-.776 3.226a.328.328 0 0 1-.15.205.33.33 0 0 1-.25.04l-.04-.009a.335.335 0 0 1-.246-.401ZM81.477 154.134a.2.2 0 0 1-.09-.217l.844-3.51a.198.198 0 0 1 .38-.024l.76 1.982a.334.334 0 0 1-.09.369l-1.57 1.38a.2.2 0 0 1-.178.044.197.197 0 0 1-.056-.024Z"/><path fill="#F2F2F2" d="M52.759 141.039a4.01 4.01 0 0 0-4.363 5.996 4.017 4.017 0 0 0 7.327-1.155 4.012 4.012 0 0 0-2.964-4.841Z"/><path fill="#3F3D56" d="m50.884 146.405.776-3.226a.332.332 0 0 0-.245-.4l-.04-.01a.334.334 0 0 0-.4.245l-.776 3.226a.332.332 0 0 0 .245.4l.04.01a.334.334 0 0 0 .4-.245ZM52.455 147.148a.2.2 0 0 0 .115-.046.203.203 0 0 0 .065-.106l.844-3.509a.201.201 0 0 0-.091-.219.207.207 0 0 0-.122-.027.202.202 0 0 0-.114.051l-1.58 1.42a.331.331 0 0 0-.087.369l.77 1.943a.203.203 0 0 0 .2.125v-.001Z"/><path fill="#E6E6E6" d="m62.65 112.46-17.408-4.189a1.084 1.084 0 0 0-1.308.8l-.197.819c-.14.582.218 1.167.8 1.308l17.41 4.189a1.084 1.084 0 0 0 1.307-.8l.197-.819a1.085 1.085 0 0 0-.8-1.308ZM77.092 121.096 44.07 113.15a1.084 1.084 0 0 0-1.308.8l-.197.819c-.14.582.218 1.167.8 1.307l33.023 7.947a1.084 1.084 0 0 0 1.308-.8l.197-.819a1.085 1.085 0 0 0-.8-1.308ZM102.047 140.009l-61.48-14.794a.502.502 0 0 0-.235.976l61.48 14.793a.502.502 0 0 0 .235-.975Z"/><path fill="url(#s)" d="m80.334 134.784-39.766-9.569a.502.502 0 0 0-.235.976L80.1 135.76a.502.502 0 0 0 .235-.976Z"/><path fill="url(#t)" d="M80.236 137.336a2.006 2.006 0 1 0 .938-3.901 2.006 2.006 0 1 0-.939 3.901Z"/></g></g><path fill="#56B7B5" d="M49.278 226.438H46.79a2.436 2.436 0 0 0-.279-.858c-.14-.254-.32-.47-.54-.648a2.362 2.362 0 0 0-.76-.409 2.904 2.904 0 0 0-.927-.142c-.602 0-1.127.149-1.574.449-.447.295-.793.727-1.04 1.295-.246.564-.369 1.25-.369 2.057 0 .829.123 1.526.37 2.091.25.564.598.99 1.045 1.278.447.288.964.432 1.551.432.33 0 .634-.044.915-.131.284-.087.536-.214.755-.38.22-.171.402-.377.546-.62.148-.242.25-.519.307-.829l2.488.011a4.644 4.644 0 0 1-1.511 2.869c-.428.387-.94.694-1.534.921-.591.223-1.26.335-2.006.335-1.038 0-1.966-.235-2.784-.704-.814-.47-1.458-1.15-1.932-2.04-.47-.89-.704-1.968-.704-3.233 0-1.269.238-2.349.716-3.239.477-.89 1.125-1.568 1.943-2.034.818-.47 1.739-.704 2.761-.704.675 0 1.3.094 1.875.284.58.189 1.093.466 1.54.829.447.36.81.801 1.091 1.324.284.523.466 1.121.545 1.796Zm5.662 7.732c-.882 0-1.645-.187-2.29-.562a3.847 3.847 0 0 1-1.482-1.58c-.349-.678-.523-1.464-.523-2.358 0-.901.174-1.689.523-2.363a3.805 3.805 0 0 1 1.483-1.58c.643-.379 1.407-.568 2.29-.568.882 0 1.643.189 2.283.568.644.375 1.14.902 1.49 1.58.348.674.522 1.462.522 2.363 0 .894-.174 1.68-.523 2.358a3.836 3.836 0 0 1-1.489 1.58c-.64.375-1.401.562-2.284.562Zm.012-1.875c.401 0 .736-.113 1.005-.34.27-.232.472-.546.608-.944.14-.397.21-.85.21-1.358 0-.507-.07-.96-.21-1.358-.136-.397-.339-.712-.608-.943-.269-.231-.604-.346-1.005-.346-.406 0-.746.115-1.023.346-.273.231-.48.546-.62.943a4.18 4.18 0 0 0-.204 1.358c0 .508.068.961.205 1.358.14.398.346.712.619.944.276.227.617.34 1.023.34Zm8.278-3.34V234h-2.42v-8.727h2.306v1.539h.103c.193-.507.517-.909.971-1.204.455-.299 1.006-.449 1.654-.449.606 0 1.134.133 1.585.398.45.265.801.644 1.051 1.136.25.489.375 1.072.375 1.75V234h-2.42v-5.125c.003-.534-.133-.951-.41-1.25-.276-.303-.657-.455-1.142-.455-.325 0-.613.071-.863.211-.246.14-.44.344-.58.613-.136.265-.206.586-.21.961Zm12.175-3.682v1.818h-5.256v-1.818h5.256Zm-4.063-2.091h2.42v8.136c0 .224.035.398.103.523a.568.568 0 0 0 .284.256c.125.049.27.073.432.073.114 0 .227-.009.34-.028l.262-.051.38 1.801a7.103 7.103 0 0 1-.51.131 4.08 4.08 0 0 1-.802.096c-.583.023-1.094-.055-1.534-.233a2.14 2.14 0 0 1-1.017-.829c-.242-.375-.362-.849-.358-1.421v-8.454Zm9.523 10.988c-.898 0-1.67-.181-2.318-.545a3.73 3.73 0 0 1-1.489-1.557c-.348-.674-.523-1.471-.523-2.392 0-.898.175-1.685.523-2.364a3.866 3.866 0 0 1 1.472-1.585c.636-.379 1.382-.568 2.239-.568.575 0 1.111.093 1.607.279.5.181.936.456 1.307.823.375.368.667.83.875 1.387.209.553.313 1.2.313 1.943v.665H77.5v-1.5h5.091a1.85 1.85 0 0 0-.227-.926 1.626 1.626 0 0 0-.63-.631 1.802 1.802 0 0 0-.927-.233c-.367 0-.693.085-.977.256-.28.166-.5.392-.66.676-.158.28-.24.593-.243.937v1.426c0 .432.08.805.238 1.12.163.314.392.557.688.727.295.17.645.256 1.05.256.27 0 .516-.038.74-.114a1.477 1.477 0 0 0 .938-.898l2.238.148a3.053 3.053 0 0 1-.7 1.409c-.348.398-.799.708-1.352.932-.549.22-1.183.329-1.903.329Zm8.006-5.215V234h-2.42v-8.727h2.306v1.539h.102c.194-.507.517-.909.972-1.204.454-.299 1.006-.449 1.653-.449.606 0 1.135.133 1.586.398.45.265.8.644 1.05 1.136.25.489.376 1.072.376 1.75V234h-2.42v-5.125c.003-.534-.133-.951-.41-1.25-.276-.303-.657-.455-1.142-.455-.326 0-.614.071-.864.211-.246.14-.439.344-.579.613-.136.265-.207.586-.21.961Zm12.174-3.682v1.818H95.79v-1.818h5.255Zm-4.062-2.091h2.42v8.136c0 .224.034.398.103.523a.569.569 0 0 0 .284.256c.125.049.269.073.432.073.113 0 .227-.009.34-.028l.262-.051.381 1.801a7.21 7.21 0 0 1-.512.131c-.22.053-.487.085-.801.096-.583.023-1.095-.055-1.534-.233a2.14 2.14 0 0 1-1.017-.829c-.242-.375-.362-.849-.358-1.421v-8.454Zm19.655 3.256h-2.489a2.427 2.427 0 0 0-.278-.858c-.14-.254-.32-.47-.54-.648a2.373 2.373 0 0 0-.761-.409 2.906 2.906 0 0 0-.927-.142c-.602 0-1.126.149-1.573.449-.447.295-.794.727-1.04 1.295-.246.564-.369 1.25-.369 2.057 0 .829.123 1.526.369 2.091.25.564.598.99 1.045 1.278.447.288.964.432 1.551.432.33 0 .635-.044.915-.131a2.42 2.42 0 0 0 .756-.38 2.19 2.19 0 0 0 .545-.62 2.41 2.41 0 0 0 .307-.829l2.489.011a4.537 4.537 0 0 1-.483 1.546 4.647 4.647 0 0 1-1.029 1.323 4.821 4.821 0 0 1-1.534.921c-.591.223-1.259.335-2.005.335-1.038 0-1.966-.235-2.784-.704-.815-.47-1.459-1.15-1.932-2.04-.47-.89-.705-1.968-.705-3.233 0-1.269.239-2.349.716-3.239.477-.89 1.125-1.568 1.943-2.034.818-.47 1.739-.704 2.762-.704.674 0 1.299.094 1.875.284a4.76 4.76 0 0 1 1.539.829c.447.36.811.801 1.091 1.324.284.523.466 1.121.546 1.796Zm5.662 7.732c-.883 0-1.646-.187-2.29-.562a3.845 3.845 0 0 1-1.483-1.58c-.348-.678-.523-1.464-.523-2.358 0-.901.175-1.689.523-2.363a3.803 3.803 0 0 1 1.483-1.58c.644-.379 1.407-.568 2.29-.568.882 0 1.644.189 2.284.568a3.79 3.79 0 0 1 1.488 1.58c.349.674.523 1.462.523 2.363 0 .894-.174 1.68-.523 2.358a3.831 3.831 0 0 1-1.488 1.58c-.64.375-1.402.562-2.284.562Zm.011-1.875c.402 0 .737-.113 1.006-.34.269-.232.471-.546.608-.944.14-.397.21-.85.21-1.358 0-.507-.07-.96-.21-1.358-.137-.397-.339-.712-.608-.943-.269-.231-.604-.346-1.006-.346-.405 0-.746.115-1.023.346-.272.231-.479.546-.619.943a4.19 4.19 0 0 0-.205 1.358c0 .508.069.961.205 1.358.14.398.347.712.619.944.277.227.618.34 1.023.34Zm8.278-3.34V234h-2.42v-8.727h2.307v1.539h.102c.193-.507.517-.909.972-1.204.454-.299 1.005-.449 1.653-.449.606 0 1.135.133 1.585.398.451.265.801.644 1.051 1.136.25.489.375 1.072.375 1.75V234h-2.42v-5.125c.004-.534-.133-.951-.409-1.25-.277-.303-.657-.455-1.142-.455-.326 0-.614.071-.864.211-.246.14-.439.344-.579.613-.137.265-.207.586-.211.961Zm14.795-1.194-2.216.137a1.15 1.15 0 0 0-.245-.512 1.296 1.296 0 0 0-.494-.369 1.675 1.675 0 0 0-.722-.142c-.375 0-.691.08-.948.239-.258.155-.387.363-.387.625 0 .208.083.384.25.528.167.144.453.26.858.347l1.58.318c.848.174 1.481.454 1.897.841.417.386.625.894.625 1.522 0 .572-.168 1.074-.505 1.506-.334.432-.792.769-1.375 1.011-.58.239-1.248.358-2.006.358-1.155 0-2.076-.24-2.761-.721a2.81 2.81 0 0 1-1.199-1.977l2.38-.125c.072.352.247.621.523.806.277.182.631.273 1.063.273.424 0 .765-.081 1.022-.244.262-.167.394-.381.398-.642a.667.667 0 0 0-.278-.54c-.182-.144-.462-.254-.841-.33l-1.512-.301c-.852-.17-1.486-.466-1.903-.886-.413-.421-.619-.956-.619-1.608 0-.561.151-1.044.454-1.449.307-.405.737-.718 1.29-.937.557-.22 1.208-.33 1.955-.33 1.102 0 1.969.233 2.602.699.636.466 1.007 1.1 1.114 1.903Zm7.319 2.523v-5.011h2.421V234H152.8v-1.585h-.091a2.583 2.583 0 0 1-.983 1.233c-.455.31-1.01.466-1.665.466-.583 0-1.097-.133-1.54-.398a2.732 2.732 0 0 1-1.039-1.131c-.247-.488-.372-1.074-.375-1.755v-5.557h2.42v5.125c.004.515.142.922.415 1.221.272.3.638.449 1.096.449.292 0 .565-.066.819-.199a1.56 1.56 0 0 0 .613-.602c.159-.265.237-.593.233-.983ZM157.06 234v-8.727h2.306v1.539h.103c.182-.511.485-.914.909-1.21.424-.295.932-.443 1.523-.443.598 0 1.108.15 1.528.449.42.295.701.697.841 1.204h.091c.178-.5.5-.899.966-1.198.469-.303 1.024-.455 1.664-.455.815 0 1.476.26 1.983.779.512.515.767 1.246.767 2.193V234h-2.414v-5.392c0-.485-.129-.849-.387-1.091-.257-.242-.579-.364-.966-.364-.439 0-.782.141-1.028.421-.246.276-.369.642-.369 1.096V234h-2.347v-5.443c0-.428-.123-.769-.369-1.023-.243-.254-.563-.381-.96-.381a1.34 1.34 0 0 0-.728.205c-.212.133-.38.32-.505.562a1.79 1.79 0 0 0-.188.841V234h-2.42Zm18.571.17c-.898 0-1.671-.181-2.319-.545a3.732 3.732 0 0 1-1.488-1.557c-.349-.674-.523-1.471-.523-2.392 0-.898.174-1.685.523-2.364a3.864 3.864 0 0 1 1.471-1.585c.637-.379 1.383-.568 2.239-.568.576 0 1.112.093 1.608.279.5.181.936.456 1.307.823.375.368.667.83.875 1.387.208.553.312 1.2.312 1.943v.665h-7.369v-1.5h5.091c0-.349-.076-.658-.227-.926a1.629 1.629 0 0 0-.631-.631 1.802 1.802 0 0 0-.926-.233c-.368 0-.693.085-.977.256-.281.166-.5.392-.659.676-.16.28-.241.593-.245.937v1.426c0 .432.08.805.239 1.12.163.314.392.557.687.727.296.17.646.256 1.051.256.269 0 .516-.038.739-.114.224-.076.415-.189.574-.341.159-.151.28-.337.364-.557l2.238.148a3.04 3.04 0 0 1-.699 1.409c-.348.398-.799.708-1.352.932-.549.22-1.184.329-1.903.329Zm5.585-.17v-8.727h2.346v1.522h.091c.16-.541.427-.95.802-1.227.375-.28.806-.42 1.295-.42.121 0 .252.007.392.022.14.016.263.036.369.063v2.148a3.075 3.075 0 0 0-.471-.091 4.164 4.164 0 0 0-.551-.04 1.94 1.94 0 0 0-.955.233 1.72 1.72 0 0 0-.659.636 1.839 1.839 0 0 0-.239.943V234h-2.42Z"/><path fill="url(#u)" d="M214.667 140a5.332 5.332 0 0 0 5.333 5.333 5.332 5.332 0 0 0 5.333-5.333 5.332 5.332 0 0 0-5.333-5.333 5.332 5.332 0 0 0-5.333 5.333Zm111.04.707a.999.999 0 0 0 0-1.414l-6.364-6.364a.999.999 0 1 0-1.414 1.414l5.657 5.657-5.657 5.657a.999.999 0 1 0 1.414 1.414l6.364-6.364ZM220 140v1h105v-2H220v1Z"/><path fill="#fff" stroke="#363636" d="M347.139 122.205c0-4.418 3.102-9.791 6.928-12L411.06 77.3c3.826-2.21 6.928-.418 6.928 4v41.267c0 4.418-3.102 9.791-6.928 12l-56.993 32.905c-3.826 2.209-6.928.418-6.928-4v-41.267Z"/><path fill="#fff" stroke="#363636" d="M0 0h6.545v44.178H0z" transform="matrix(.86603 .5 0 1 341.469 117.479)"/><path fill="#fff" stroke="#363636" d="M0 0h68.721v6.545H0z" transform="matrix(.86603 -.5 .86603 .5 347.139 107.66)"/><path fill="#fff" stroke="#363636" d="M347.137 164.929c0 1.675.553 3.03 1.66 3.669l-5.668-3.272c-1.107-.639-1.66-1.995-1.66-3.67l5.668 3.273ZM347.137 120.75c0-3.615 2.537-8.01 5.668-9.817l-5.668-3.273c-3.131 1.807-5.668 6.203-5.668 9.817l5.668 3.273ZM416.328 76.177c-1.107-.639-2.557-.44-4.008.397l-5.668-3.272c1.451-.838 2.901-1.036 4.008-.397l5.668 3.272Z"/><path fill="#fff" stroke="#363636" stroke-width=".956" d="M374.41 129.323c0-4.226 2.947-9.397 6.582-11.552l30.958-18.345c3.635-2.154 6.582-.475 6.582 3.751v5.615c0 4.225-2.947 9.397-6.582 11.551l-30.958 18.345c-3.635 2.154-6.582.475-6.582-3.75v-5.615Z"/><path fill="#fff" stroke="#363636" stroke-width=".956" d="M0 0h3.419v6.972H0z" transform="matrix(.8603 .5098 0 1 371.469 126.916)"/><path fill="#fff" stroke="#363636" stroke-width=".956" d="M0 0h37.61v3.419H0z" transform="matrix(.8603 -.5098 .8603 .5098 377.352 116.453)"/><path fill="#fff" stroke="#363636" stroke-width=".956" d="M374.41 135.624c0 1.784.575 3.228 1.723 3.909l-2.941-1.743c-1.149-.681-1.723-2.125-1.723-3.909l2.941 1.743ZM374.41 128.655c0-3.851 2.634-8.533 5.883-10.459l-2.941-1.743c-3.249 1.925-5.883 6.608-5.883 10.459l2.941 1.743ZM416.812 98.598c-1.148-.68-2.654-.469-4.16.423l-2.941-1.743c1.506-.892 3.011-1.103 4.16-.423l2.941 1.743Z"/><ellipse cx="6.838" cy="6.972" fill="#fff" stroke="#363636" stroke-width=".956" rx="6.838" ry="6.972" transform="matrix(.8603 -.5098 0 1 378.656 126.045)"/><path fill="#fff" stroke="#363636" stroke-width=".956" d="M378.656 133.022c0 1.785.575 3.229 1.723 3.909l-2.941-1.743c-1.149-.68-1.723-2.124-1.723-3.909l2.941 1.743Z"/><path fill="#fff" stroke="#363636" stroke-width=".956" d="M378.656 133.022c0-3.851 2.634-8.533 5.883-10.459l-2.941-1.743c-3.249 1.926-5.883 6.608-5.883 10.459l2.941 1.743ZM388.699 122.137c-1.149-.68-2.654-.469-4.16.423l-2.941-1.743c1.505-.892 3.011-1.103 4.159-.423l2.942 1.743Z"/><path fill="#4AB7A5" d="M334.136 201.473h-4.125v-11.637h4.159c1.171 0 2.178.233 3.023.699a4.71 4.71 0 0 1 1.949 1.994c.458.868.688 1.906.688 3.114 0 1.212-.23 2.254-.688 3.125a4.725 4.725 0 0 1-1.96 2.006c-.849.466-1.864.699-3.046.699Zm-1.664-2.108h1.562c.727 0 1.339-.129 1.835-.387.5-.261.875-.664 1.125-1.21.254-.549.381-1.257.381-2.125 0-.86-.127-1.562-.381-2.108-.25-.545-.623-.947-1.119-1.204-.496-.258-1.108-.387-1.835-.387h-1.568v7.421Zm9.135 2.108v-8.728h2.42v8.728h-2.42Zm1.215-9.853c-.359 0-.668-.119-.926-.358a1.162 1.162 0 0 1-.38-.869c0-.333.127-.619.38-.858.258-.242.567-.363.926-.363.36 0 .667.121.921.363.257.239.386.525.386.858 0 .337-.129.627-.386.869a1.295 1.295 0 0 1-.921.358Zm7.076 13.307c-.784 0-1.457-.108-2.017-.324-.557-.212-1-.502-1.33-.869a2.679 2.679 0 0 1-.642-1.239l2.239-.301c.068.174.176.337.324.489.147.151.342.273.585.364.246.094.545.142.898.142.526 0 .96-.129 1.301-.387.344-.254.517-.68.517-1.278v-1.597h-.103a2.296 2.296 0 0 1-.477.688 2.399 2.399 0 0 1-.818.528c-.333.136-.731.205-1.193.205a3.585 3.585 0 0 1-1.79-.455c-.534-.307-.96-.775-1.278-1.403-.315-.633-.472-1.432-.472-2.398 0-.989.161-1.814.483-2.477.322-.663.75-1.159 1.284-1.489a3.323 3.323 0 0 1 1.767-.494c.489 0 .898.083 1.227.25.33.163.595.367.796.613.204.243.362.481.471.716h.091v-1.466h2.404v8.813c0 .742-.182 1.364-.546 1.864-.363.5-.867.875-1.511 1.125-.64.253-1.377.38-2.21.38Zm.051-5.398c.39 0 .72-.096.989-.289a1.84 1.84 0 0 0 .624-.841c.148-.368.222-.807.222-1.318 0-.512-.072-.955-.216-1.33-.144-.379-.352-.672-.625-.881-.273-.208-.604-.312-.994-.312-.398 0-.733.108-1.006.324-.273.212-.479.507-.619.886s-.21.816-.21 1.313c0 .503.07.939.21 1.306.144.364.35.646.619.847.273.197.608.295 1.006.295Zm6.142 1.944v-8.728h2.42v8.728h-2.42Zm1.216-9.853c-.36 0-.669-.119-.926-.358a1.159 1.159 0 0 1-.381-.869c0-.333.127-.619.381-.858.257-.242.566-.363.926-.363.36 0 .666.121.92.363.258.239.387.525.387.858 0 .337-.129.627-.387.869-.254.239-.56.358-.92.358Zm7.785 1.125v1.819h-5.255v-1.819h5.255Zm-4.062-2.091h2.42v8.137c0 .223.034.398.103.523a.558.558 0 0 0 .284.255c.125.049.269.074.431.074.114 0 .228-.009.341-.028l.262-.051.38 1.801a6.61 6.61 0 0 1-.511.13c-.22.053-.487.086-.801.097-.583.023-1.095-.055-1.534-.233a2.138 2.138 0 0 1-1.017-.83c-.243-.375-.362-.848-.358-1.42v-8.455Zm8.128 10.983c-.557 0-1.053-.096-1.489-.289a2.394 2.394 0 0 1-1.034-.87c-.25-.386-.375-.867-.375-1.443 0-.485.089-.892.267-1.221.178-.33.42-.595.727-.796a3.52 3.52 0 0 1 1.046-.454 7.817 7.817 0 0 1 1.238-.216c.508-.053.917-.103 1.228-.148.31-.049.536-.121.676-.216a.475.475 0 0 0 .21-.42v-.035c0-.359-.114-.638-.341-.835-.223-.197-.542-.295-.954-.295-.436 0-.783.096-1.04.29a1.335 1.335 0 0 0-.512.715l-2.238-.181c.113-.531.337-.989.67-1.375.334-.39.763-.69 1.29-.898.53-.212 1.144-.318 1.841-.318.485 0 .949.057 1.392.17.447.114.843.29 1.187.529.349.238.624.545.824.92.201.371.301.816.301 1.335v5.887h-2.295v-1.211h-.068c-.14.273-.328.514-.563.722a2.592 2.592 0 0 1-.846.483c-.33.114-.711.17-1.142.17Zm.693-1.67c.356 0 .67-.07.943-.21.273-.144.487-.337.642-.58.155-.242.233-.517.233-.824v-.926c-.076.049-.18.095-.312.137a6.71 6.71 0 0 1-.438.108c-.163.03-.326.058-.489.085l-.443.062a3.002 3.002 0 0 0-.744.199 1.19 1.19 0 0 0-.494.369.899.899 0 0 0-.177.569c0 .329.12.581.358.755.243.171.55.256.921.256Zm8.52-10.131v11.637h-2.421v-11.637h2.421Zm7.363 11.637-2.375-8.728h2.449l1.353 5.864h.079l1.409-5.864h2.404l1.431 5.83h.074l1.33-5.83h2.443l-2.369 8.728h-2.563l-1.5-5.489h-.108l-1.5 5.489h-2.557Zm14.377.164c-.557 0-1.053-.096-1.489-.289a2.4 2.4 0 0 1-1.034-.87c-.25-.386-.375-.867-.375-1.443 0-.485.089-.892.267-1.221.178-.33.421-.595.727-.796a3.52 3.52 0 0 1 1.046-.454 7.817 7.817 0 0 1 1.238-.216c.508-.053.917-.103 1.228-.148.31-.049.536-.121.676-.216a.475.475 0 0 0 .21-.42v-.035c0-.359-.114-.638-.341-.835-.223-.197-.541-.295-.954-.295-.436 0-.783.096-1.04.29a1.328 1.328 0 0 0-.511.715l-2.239-.181c.114-.531.337-.989.67-1.375.334-.39.764-.69 1.29-.898.53-.212 1.144-.318 1.841-.318.485 0 .949.057 1.392.17.447.114.843.29 1.188.529.348.238.623.545.823.92.201.371.302.816.302 1.335v5.887h-2.296v-1.211h-.068c-.14.273-.328.514-.563.722a2.582 2.582 0 0 1-.846.483c-.33.114-.71.17-1.142.17Zm.693-1.67c.356 0 .67-.07.943-.21.273-.144.487-.337.642-.58.156-.242.233-.517.233-.824v-.926c-.076.049-.18.095-.312.137a6.71 6.71 0 0 1-.438.108c-.163.03-.326.058-.488.085l-.444.062a3.002 3.002 0 0 0-.744.199 1.19 1.19 0 0 0-.494.369.898.898 0 0 0-.176.569c0 .329.119.581.358.755.242.171.549.256.92.256Zm8.52-10.131v11.637h-2.421v-11.637h2.421Zm4.359 0v11.637h-2.42v-11.637h2.42Zm5.916 11.807c-.897 0-1.67-.182-2.318-.545a3.737 3.737 0 0 1-1.488-1.557c-.349-.674-.523-1.472-.523-2.392 0-.898.174-1.686.523-2.364a3.864 3.864 0 0 1 1.471-1.585c.637-.379 1.383-.568 2.239-.568.576 0 1.112.093 1.608.278.5.182.935.457 1.307.824.375.367.666.83.875 1.386.208.553.312 1.201.312 1.944v.664h-7.369v-1.5h5.091a1.85 1.85 0 0 0-.228-.926 1.617 1.617 0 0 0-.63-.63 1.792 1.792 0 0 0-.926-.233c-.368 0-.694.085-.978.255-.28.167-.5.392-.659.676-.159.281-.24.593-.244.938v1.426c0 .432.079.805.239 1.119.162.315.392.557.687.728.296.17.646.255 1.051.255.269 0 .515-.038.739-.113.223-.076.415-.19.574-.341a1.48 1.48 0 0 0 .363-.557l2.239.148a3.065 3.065 0 0 1-.699 1.409c-.348.397-.799.708-1.352.932-.549.219-1.184.329-1.904.329Zm10.228-8.898v1.819h-5.256v-1.819h5.256Zm-4.063-2.091h2.421v8.137c0 .223.034.398.102.523a.562.562 0 0 0 .284.255c.125.049.269.074.432.074.113 0 .227-.009.341-.028l.261-.051.381 1.801a6.658 6.658 0 0 1-.512.13 4.058 4.058 0 0 1-.801.097c-.583.023-1.094-.055-1.534-.233a2.147 2.147 0 0 1-1.017-.83c-.242-.375-.362-.848-.358-1.42v-8.455Z"/><path fill="url(#v)" d="M429.667 140a5.332 5.332 0 0 0 5.333 5.333 5.332 5.332 0 0 0 5.333-5.333 5.332 5.332 0 0 0-5.333-5.333 5.332 5.332 0 0 0-5.333 5.333Zm111.04.707a.999.999 0 0 0 0-1.414l-6.364-6.364a.999.999 0 1 0-1.414 1.414l5.657 5.657-5.657 5.657a.999.999 0 1 0 1.414 1.414l6.364-6.364ZM435 140v1h105v-2H435v1Z"/><path fill="#FF7A7F" d="M670.217 144.931v9.53H554.533V89.896l15.333.005.005-10.45-25.782-.01v.015h-.005v84.83h.005v.625h126.128v.005h10.448v-19.985h-10.448Z"/><path fill="#FFC8DC" d="M583.511 154.467h-28.98v10.529h28.98v-10.529Z"/><path fill="#A3BEDC" d="M554.531 164.989v-28.983h-10.527v28.983h10.527Z"/><path fill="#56B7B5" d="M554.531 136.009v-28.984h-10.527v28.984h10.527Z"/><path fill="#FF9852" d="M612.355 154.467h-28.98v10.529h28.98v-10.529Z"/><path fill="#98E1D0" d="M641.417 154.467h-28.979v10.529h28.979v-10.529Z"/><path fill="#8075B3" d="M670.396 154.467h-28.98v10.529h28.98v-10.529Z"/><path fill="#8075B3" d="M680.664 164.986v-24.968h-10.527v24.968h10.527Z"/><path fill="#98E1D0" d="M567.415 142.475h136.581v-85.47H567.415v85.47Z"/><path fill="#fff" d="M586.328 106.328h9.179a2.035 2.035 0 0 0 2.037-2.037v-9.176c0-1.127-.91-2.037-2.037-2.037h-9.179c-1.127 0-2.037.91-2.037 2.037v9.181c0 1.121.91 2.032 2.037 2.032ZM635.719 121.292c11.747 0 21.271-9.525 21.271-21.274 0-11.75-9.524-21.274-21.271-21.274-11.748 0-21.272 9.525-21.272 21.274s9.524 21.274 21.272 21.274ZM675.898 106.328h9.179a2.035 2.035 0 0 0 2.037-2.037v-9.176c0-1.127-.91-2.037-2.037-2.037h-9.179c-1.127 0-2.037.91-2.037 2.037v9.181c0 1.121.91 2.032 2.037 2.032Z"/><path fill="#4AB7A5" d="m556.435 192.994-3.329-11.636h2.687l1.926 8.085h.097l2.125-8.085h2.301l2.12 8.102h.102l1.926-8.102h2.687l-3.329 11.636h-2.398l-2.216-7.608h-.091l-2.21 7.608h-2.398Zm16.953.171c-.897 0-1.67-.182-2.318-.546a3.726 3.726 0 0 1-1.488-1.557c-.349-.674-.523-1.471-.523-2.392 0-.897.174-1.685.523-2.363a3.867 3.867 0 0 1 1.471-1.586c.637-.378 1.383-.568 2.239-.568.576 0 1.112.093 1.608.279.5.181.935.456 1.307.824.375.367.666.829.875 1.386.208.553.312 1.201.312 1.943v.665h-7.369v-1.5h5.091c0-.349-.076-.657-.228-.926a1.626 1.626 0 0 0-.63-.631 1.802 1.802 0 0 0-.926-.233c-.368 0-.694.085-.978.256-.28.166-.5.392-.659.676-.159.28-.24.593-.244.937v1.427c0 .431.08.804.239 1.119.163.314.392.557.687.727.296.171.646.256 1.051.256.269 0 .515-.038.739-.114a1.472 1.472 0 0 0 .937-.898l2.239.148a3.06 3.06 0 0 1-.699 1.409c-.348.398-.799.709-1.352.932-.549.22-1.184.33-1.904.33Zm5.631-.171v-11.636h2.421v4.375h.073c.107-.235.26-.474.461-.716.204-.246.469-.451.795-.614.33-.166.739-.25 1.227-.25.637 0 1.224.167 1.762.5.538.33.968.828 1.29 1.495.322.662.483 1.494.483 2.494 0 .973-.158 1.795-.472 2.466-.311.666-.735 1.172-1.273 1.517a3.264 3.264 0 0 1-1.795.511c-.47 0-.87-.077-1.199-.233a2.466 2.466 0 0 1-.801-.585 2.959 2.959 0 0 1-.478-.722h-.107v1.398h-2.387Zm2.369-4.363c0 .518.072.971.216 1.357.144.387.353.688.625.904.273.212.605.318.995.318.394 0 .727-.108 1-.324.272-.22.479-.523.619-.909.144-.39.216-.839.216-1.346 0-.504-.07-.947-.21-1.33-.14-.383-.347-.682-.62-.898-.272-.216-.608-.324-1.005-.324-.394 0-.728.105-1 .313-.269.208-.476.504-.62.886-.144.383-.216.834-.216 1.353Zm11.506-7.273h3.034l3.205 7.818h.136l3.205-7.818h3.034v11.636h-2.387v-7.574h-.096l-3.012 7.517h-1.625l-3.011-7.545h-.096v7.602h-2.387v-11.636Zm18.539 11.807c-.883 0-1.646-.188-2.29-.563a3.849 3.849 0 0 1-1.483-1.579c-.349-.678-.523-1.464-.523-2.358 0-.902.174-1.69.523-2.364a3.803 3.803 0 0 1 1.483-1.58c.644-.378 1.407-.568 2.29-.568.882 0 1.643.19 2.284.568a3.79 3.79 0 0 1 1.488 1.58c.349.674.523 1.462.523 2.364 0 .894-.174 1.68-.523 2.358a3.835 3.835 0 0 1-1.488 1.579c-.641.375-1.402.563-2.284.563Zm.011-1.875c.401 0 .737-.114 1.006-.341.269-.231.471-.546.608-.943.14-.398.21-.851.21-1.358 0-.508-.07-.961-.21-1.358-.137-.398-.339-.713-.608-.944-.269-.231-.605-.346-1.006-.346-.405 0-.746.115-1.023.346-.273.231-.479.546-.619.944-.137.397-.205.85-.205 1.358 0 .507.068.96.205 1.358.14.397.346.712.619.943.277.227.618.341 1.023.341Zm8.278-3.341v5.045h-2.42v-8.727h2.307v1.54h.102c.193-.508.517-.909.972-1.205.454-.299 1.005-.449 1.653-.449.606 0 1.134.133 1.585.398.451.265.801.644 1.051 1.136.25.489.375 1.072.375 1.75v5.557h-2.42v-5.125c.004-.534-.133-.951-.409-1.25-.277-.303-.657-.454-1.142-.454-.326 0-.614.07-.864.21-.246.14-.439.345-.579.613-.137.266-.207.586-.211.961Zm11.51 5.216c-.897 0-1.67-.182-2.318-.546a3.734 3.734 0 0 1-1.489-1.557c-.348-.674-.522-1.471-.522-2.392 0-.897.174-1.685.522-2.363a3.87 3.87 0 0 1 1.472-1.586c.636-.378 1.383-.568 2.239-.568.575 0 1.111.093 1.608.279.5.181.935.456 1.306.824.375.367.667.829.875 1.386.209.553.313 1.201.313 1.943v.665h-7.369v-1.5h5.091c0-.349-.076-.657-.228-.926a1.626 1.626 0 0 0-.63-.631 1.805 1.805 0 0 0-.927-.233c-.367 0-.693.085-.977.256-.28.166-.5.392-.659.676-.159.28-.24.593-.244.937v1.427c0 .431.079.804.238 1.119.163.314.392.557.688.727.295.171.646.256 1.051.256.269 0 .515-.038.739-.114a1.472 1.472 0 0 0 .937-.898l2.239.148a3.06 3.06 0 0 1-.699 1.409 3.504 3.504 0 0 1-1.352.932c-.55.22-1.184.33-1.904.33Zm10.228-8.898v1.818h-5.256v-1.818h5.256Zm-4.063-2.091h2.42v8.136c0 .224.035.398.103.523a.569.569 0 0 0 .284.256c.125.049.269.074.432.074.113 0 .227-.01.341-.029l.261-.051.381 1.801a6.7 6.7 0 0 1-.512.131 4.065 4.065 0 0 1-.801.096c-.583.023-1.095-.054-1.534-.232a2.143 2.143 0 0 1-1.017-.83c-.242-.375-.362-.849-.358-1.42v-8.455Zm5.639 10.818v-8.727h2.421v8.727h-2.421Zm1.216-9.852c-.36 0-.668-.119-.926-.358a1.16 1.16 0 0 1-.381-.869c0-.334.127-.62.381-.858.258-.243.566-.364.926-.364.36 0 .667.121.921.364.257.238.386.524.386.858 0 .337-.129.626-.386.869a1.295 1.295 0 0 1-.921.358Zm3.098 9.852v-1.443l4.273-5.29v-.062h-4.125v-1.932h7.04v1.574L650.526 191v.062h4.159v1.932h-7.335Zm11.675.165c-.557 0-1.053-.097-1.489-.29a2.404 2.404 0 0 1-1.034-.869c-.25-.387-.375-.868-.375-1.443 0-.485.089-.892.267-1.222.178-.329.421-.595.727-.795a3.522 3.522 0 0 1 1.046-.455 8.043 8.043 0 0 1 1.239-.216c.507-.053.916-.102 1.227-.148.31-.049.536-.121.676-.215a.475.475 0 0 0 .21-.421v-.034c0-.36-.113-.638-.341-.835-.223-.197-.541-.296-.954-.296-.436 0-.782.097-1.04.29a1.327 1.327 0 0 0-.511.716l-2.239-.182c.114-.53.337-.988.67-1.375.334-.39.764-.689 1.29-.898.53-.212 1.144-.318 1.841-.318.485 0 .949.057 1.392.171.447.113.843.289 1.188.528.348.239.623.546.823.921.201.371.302.816.302 1.335v5.886h-2.296v-1.21h-.068c-.14.273-.328.513-.563.722a2.598 2.598 0 0 1-.846.482 3.49 3.49 0 0 1-1.142.171Zm.693-1.671c.356 0 .67-.07.943-.21a1.67 1.67 0 0 0 .642-.579 1.49 1.49 0 0 0 .233-.824v-.926c-.076.049-.18.094-.312.136a5.628 5.628 0 0 1-.438.108 21.7 21.7 0 0 1-.488.085l-.444.063a2.959 2.959 0 0 0-.744.199 1.19 1.19 0 0 0-.494.369.895.895 0 0 0-.176.568c0 .33.119.582.358.756.242.17.549.255.92.255Zm10.742-7.221v1.818h-5.256v-1.818h5.256Zm-4.063-2.091h2.42v8.136c0 .224.035.398.103.523a.569.569 0 0 0 .284.256c.125.049.269.074.432.074.113 0 .227-.01.341-.029l.261-.051.381 1.801a6.7 6.7 0 0 1-.512.131 4.065 4.065 0 0 1-.801.096c-.583.023-1.095-.054-1.534-.232a2.143 2.143 0 0 1-1.017-.83c-.242-.375-.362-.849-.358-1.42v-8.455Zm5.639 10.818v-8.727h2.421v8.727h-2.421Zm1.216-9.852c-.36 0-.668-.119-.926-.358a1.16 1.16 0 0 1-.381-.869c0-.334.127-.62.381-.858.258-.243.566-.364.926-.364.36 0 .667.121.921.364.257.238.386.524.386.858 0 .337-.129.626-.386.869a1.295 1.295 0 0 1-.921.358Zm7.087 10.023c-.883 0-1.646-.188-2.29-.563a3.855 3.855 0 0 1-1.483-1.579c-.348-.678-.523-1.464-.523-2.358 0-.902.175-1.69.523-2.364a3.81 3.81 0 0 1 1.483-1.58c.644-.378 1.407-.568 2.29-.568.882 0 1.644.19 2.284.568.644.375 1.14.902 1.489 1.58.348.674.522 1.462.522 2.364 0 .894-.174 1.68-.522 2.358a3.843 3.843 0 0 1-1.489 1.579c-.64.375-1.402.563-2.284.563Zm.011-1.875c.402 0 .737-.114 1.006-.341.269-.231.471-.546.608-.943.14-.398.21-.851.21-1.358 0-.508-.07-.961-.21-1.358-.137-.398-.339-.713-.608-.944-.269-.231-.604-.346-1.006-.346-.405 0-.746.115-1.023.346-.272.231-.479.546-.619.944-.136.397-.204.85-.204 1.358 0 .507.068.96.204 1.358.14.397.347.712.619.943.277.227.618.341 1.023.341Zm8.279-3.341v5.045h-2.421v-8.727h2.307v1.54h.102c.193-.508.517-.909.972-1.205.454-.299 1.005-.449 1.653-.449.606 0 1.135.133 1.585.398.451.265.802.644 1.052 1.136.25.489.375 1.072.375 1.75v5.557h-2.421v-5.125c.004-.534-.132-.951-.409-1.25-.277-.303-.657-.454-1.142-.454-.326 0-.614.07-.864.21-.246.14-.439.345-.579.613-.137.266-.207.586-.21.961Zm-102.485 29.045v-11.636h7.841v2.028h-5.381v2.773h4.978v2.028h-4.978v2.779h5.404v2.028h-7.864Zm11.774-8.727 1.603 3.051 1.642-3.051h2.483l-2.529 4.364 2.597 4.363h-2.472l-1.721-3.017-1.694 3.017h-2.5l2.591-4.363-2.5-4.364h2.5Zm11.807 0v1.818h-5.256v-1.818h5.256Zm-4.062-2.091h2.42v8.136c0 .224.034.398.102.523a.573.573 0 0 0 .284.256c.125.049.269.074.432.074.114 0 .228-.01.341-.029l.262-.051.38 1.801a6.531 6.531 0 0 1-.511.131c-.22.053-.487.085-.801.096-.584.023-1.095-.054-1.534-.232a2.143 2.143 0 0 1-1.017-.83c-.243-.375-.362-.849-.358-1.42v-8.455Zm9.522 10.989c-.897 0-1.67-.182-2.318-.546a3.726 3.726 0 0 1-1.488-1.557c-.349-.674-.523-1.471-.523-2.392 0-.897.174-1.685.523-2.363a3.867 3.867 0 0 1 1.471-1.586c.637-.378 1.383-.568 2.239-.568.576 0 1.112.093 1.608.279.5.181.935.456 1.307.824.375.367.666.829.875 1.386.208.553.312 1.201.312 1.943v.665h-7.369v-1.5h5.091c0-.349-.076-.657-.228-.926a1.626 1.626 0 0 0-.63-.631 1.802 1.802 0 0 0-.926-.233c-.368 0-.694.085-.978.256-.28.166-.5.392-.659.676-.159.28-.24.593-.244.937v1.427c0 .431.079.804.239 1.119.162.314.392.557.687.727.295.171.646.256 1.051.256.269 0 .515-.038.739-.114a1.472 1.472 0 0 0 .937-.898l2.239.148a3.06 3.06 0 0 1-.699 1.409c-.348.398-.799.709-1.352.932-.549.22-1.184.33-1.904.33Zm8.006-5.216v5.045h-2.42v-8.727h2.306v1.54h.103c.193-.508.517-.909.971-1.205.455-.299 1.006-.449 1.654-.449.606 0 1.134.133 1.585.398.451.265.801.644 1.051 1.136.25.489.375 1.072.375 1.75v5.557h-2.42v-5.125c.003-.534-.133-.951-.409-1.25-.277-.303-.658-.454-1.143-.454-.325 0-.613.07-.863.21a1.47 1.47 0 0 0-.58.613c-.136.266-.206.586-.21.961Zm14.794-1.193-2.216.136a1.14 1.14 0 0 0-.244-.511 1.295 1.295 0 0 0-.494-.37 1.678 1.678 0 0 0-.722-.142c-.375 0-.691.08-.949.239-.257.155-.386.363-.386.625 0 .208.083.384.25.528.166.144.452.26.858.347l1.579.318c.849.174 1.481.455 1.898.841.417.386.625.894.625 1.523 0 .572-.169 1.073-.506 1.505-.333.432-.791.769-1.375 1.012-.579.238-1.248.358-2.005.358-1.156 0-2.076-.241-2.762-.722a2.813 2.813 0 0 1-1.199-1.977l2.381-.125c.072.352.246.621.523.807.276.181.63.272 1.062.272.425 0 .765-.081 1.023-.244.261-.167.394-.381.398-.642a.668.668 0 0 0-.279-.54c-.182-.144-.462-.254-.841-.329l-1.511-.302c-.852-.17-1.487-.465-1.903-.886-.413-.42-.62-.956-.62-1.608 0-.56.152-1.043.455-1.449.307-.405.737-.718 1.29-.937.556-.22 1.208-.33 1.954-.33 1.102 0 1.97.233 2.602.699.637.466 1.008 1.1 1.114 1.904Zm1.723 6.238v-8.727h2.421v8.727h-2.421Zm1.216-9.852c-.36 0-.669-.119-.926-.358a1.16 1.16 0 0 1-.381-.869c0-.334.127-.62.381-.858a1.3 1.3 0 0 1 .926-.364c.36 0 .667.121.92.364.258.238.387.524.387.858 0 .337-.129.626-.387.869-.253.239-.56.358-.92.358Zm7.087 10.023c-.883 0-1.646-.188-2.29-.563a3.849 3.849 0 0 1-1.483-1.579c-.349-.678-.523-1.464-.523-2.358 0-.902.174-1.69.523-2.364a3.803 3.803 0 0 1 1.483-1.58c.644-.378 1.407-.568 2.29-.568.882 0 1.644.19 2.284.568a3.79 3.79 0 0 1 1.488 1.58c.349.674.523 1.462.523 2.364 0 .894-.174 1.68-.523 2.358a3.835 3.835 0 0 1-1.488 1.579c-.64.375-1.402.563-2.284.563Zm.011-1.875c.402 0 .737-.114 1.006-.341.269-.231.471-.546.608-.943.14-.398.21-.851.21-1.358 0-.508-.07-.961-.21-1.358-.137-.398-.339-.713-.608-.944-.269-.231-.604-.346-1.006-.346-.405 0-.746.115-1.023.346-.272.231-.479.546-.619.944-.136.397-.205.85-.205 1.358 0 .507.069.96.205 1.358.14.397.347.712.619.943.277.227.618.341 1.023.341Zm8.278-3.341v5.045h-2.42v-8.727h2.307v1.54h.102c.193-.508.517-.909.972-1.205.454-.299 1.005-.449 1.653-.449.606 0 1.135.133 1.585.398.451.265.801.644 1.051 1.136.25.489.375 1.072.375 1.75v5.557h-2.42v-5.125c.004-.534-.133-.951-.409-1.25-.277-.303-.657-.454-1.142-.454-.326 0-.614.07-.864.21-.246.14-.439.345-.579.613-.137.266-.207.586-.211.961Z"/><path fill="url(#w)" d="M702.667 140a5.332 5.332 0 0 0 5.333 5.333 5.332 5.332 0 0 0 5.333-5.333 5.332 5.332 0 0 0-5.333-5.333 5.332 5.332 0 0 0-5.333 5.333Zm111.04.707a.999.999 0 0 0 0-1.414l-6.364-6.364a.999.999 0 1 0-1.414 1.414l5.657 5.657-5.657 5.657a.999.999 0 1 0 1.414 1.414l6.364-6.364ZM708 140v1h105v-2H708v1Z"/><path fill="#fff" stroke="#363636" d="M835.139 122.205c0-4.418 3.102-9.791 6.928-12L899.06 77.3c3.826-2.21 6.928-.418 6.928 4v41.267c0 4.418-3.102 9.791-6.928 12l-56.993 32.905c-3.826 2.209-6.928.418-6.928-4v-41.267Z"/><path fill="#fff" stroke="#363636" d="M0 0h6.545v44.178H0z" transform="matrix(.86603 .5 0 1 829.469 117.479)"/><path fill="#fff" stroke="#363636" d="M0 0h68.721v6.545H0z" transform="matrix(.86603 -.5 .86603 .5 835.139 107.66)"/><path fill="#fff" stroke="#363636" d="M835.137 164.929c0 1.675.553 3.03 1.66 3.669l-5.668-3.272c-1.107-.639-1.66-1.995-1.66-3.67l5.668 3.273ZM835.137 120.75c0-3.615 2.537-8.01 5.668-9.817l-5.668-3.273c-3.131 1.807-5.668 6.203-5.668 9.817l5.668 3.273ZM904.328 76.177c-1.107-.639-2.557-.44-4.008.397l-5.668-3.272c1.451-.838 2.901-1.036 4.008-.397l5.668 3.272Z"/><path fill="#fff" stroke="#363636" stroke-width=".956" d="M862.41 129.325c0-4.226 2.947-9.397 6.582-11.552l30.958-18.345c3.635-2.154 6.582-.475 6.582 3.751v5.615c0 4.225-2.947 9.397-6.582 11.551l-30.958 18.345c-3.635 2.154-6.582.475-6.582-3.75v-5.615Z"/><path fill="#fff" stroke="#363636" stroke-width=".956" d="M0 0h3.419v6.972H0z" transform="matrix(.8603 .5098 0 1 859.469 126.916)"/><path fill="#fff" stroke="#363636" stroke-width=".956" d="M0 0h37.61v3.419H0z" transform="matrix(.8603 -.5098 .8603 .5098 865.352 116.453)"/><path fill="#fff" stroke="#363636" stroke-width=".956" d="M862.41 135.626c0 1.784.575 3.228 1.723 3.909l-2.941-1.743c-1.149-.681-1.723-2.125-1.723-3.909l2.941 1.743ZM862.41 128.655c0-3.851 2.634-8.533 5.883-10.459l-2.941-1.743c-3.249 1.925-5.883 6.608-5.883 10.459l2.941 1.743ZM904.812 98.6c-1.148-.68-2.654-.469-4.16.423l-2.941-1.743c1.506-.892 3.011-1.103 4.16-.423l2.941 1.743Z"/><ellipse cx="6.838" cy="6.972" fill="#fff" stroke="#363636" stroke-width=".956" rx="6.838" ry="6.972" transform="matrix(.8603 -.5098 0 1 866.656 126.045)"/><path fill="#fff" stroke="#363636" stroke-width=".956" d="M866.656 133.022c0 1.785.575 3.229 1.723 3.909l-2.941-1.743c-1.149-.68-1.723-2.124-1.723-3.909l2.941 1.743Z"/><path fill="#fff" stroke="#363636" stroke-width=".956" d="M866.656 133.022c0-3.851 2.634-8.533 5.883-10.459l-2.941-1.743c-3.249 1.926-5.883 6.608-5.883 10.459l2.941 1.743ZM876.699 122.137c-1.149-.68-2.654-.469-4.16.423l-2.941-1.743c1.505-.892 3.011-1.103 4.159-.423l2.942 1.743Z"/><path fill="#4AB7A5" d="M822.136 201.473h-4.125v-11.637h4.159c1.171 0 2.178.233 3.023.699a4.71 4.71 0 0 1 1.949 1.994c.458.868.688 1.906.688 3.114 0 1.212-.23 2.254-.688 3.125a4.725 4.725 0 0 1-1.96 2.006c-.849.466-1.864.699-3.046.699Zm-1.664-2.108h1.562c.727 0 1.339-.129 1.835-.387.5-.261.875-.664 1.125-1.21.254-.549.381-1.257.381-2.125 0-.86-.127-1.562-.381-2.108-.25-.545-.623-.947-1.119-1.204-.496-.258-1.108-.387-1.835-.387h-1.568v7.421Zm9.135 2.108v-8.728h2.42v8.728h-2.42Zm1.215-9.853c-.359 0-.668-.119-.926-.358a1.162 1.162 0 0 1-.38-.869c0-.333.127-.619.38-.858.258-.242.567-.363.926-.363.36 0 .667.121.921.363.257.239.386.525.386.858 0 .337-.129.627-.386.869a1.295 1.295 0 0 1-.921.358Zm7.076 13.307c-.784 0-1.457-.108-2.017-.324-.557-.212-1-.502-1.33-.869a2.679 2.679 0 0 1-.642-1.239l2.239-.301c.068.174.176.337.324.489.147.151.342.273.585.364.246.094.545.142.898.142.526 0 .96-.129 1.301-.387.344-.254.517-.68.517-1.278v-1.597h-.103a2.296 2.296 0 0 1-.477.688 2.399 2.399 0 0 1-.818.528c-.333.136-.731.205-1.193.205a3.585 3.585 0 0 1-1.79-.455c-.534-.307-.96-.775-1.278-1.403-.315-.633-.472-1.432-.472-2.398 0-.989.161-1.814.483-2.477.322-.663.75-1.159 1.284-1.489a3.323 3.323 0 0 1 1.767-.494c.489 0 .898.083 1.227.25.33.163.595.367.796.613.204.243.362.481.471.716h.091v-1.466h2.404v8.813c0 .742-.182 1.364-.546 1.864-.363.5-.867.875-1.511 1.125-.64.253-1.377.38-2.21.38Zm.051-5.398c.39 0 .72-.096.989-.289a1.84 1.84 0 0 0 .624-.841c.148-.368.222-.807.222-1.318 0-.512-.072-.955-.216-1.33-.144-.379-.352-.672-.625-.881-.273-.208-.604-.312-.994-.312-.398 0-.733.108-1.006.324-.273.212-.479.507-.619.886s-.21.816-.21 1.313c0 .503.07.939.21 1.306.144.364.35.646.619.847.273.197.608.295 1.006.295Zm6.142 1.944v-8.728h2.42v8.728h-2.42Zm1.216-9.853c-.36 0-.669-.119-.926-.358a1.159 1.159 0 0 1-.381-.869c0-.333.127-.619.381-.858.257-.242.566-.363.926-.363.36 0 .666.121.92.363.258.239.387.525.387.858 0 .337-.129.627-.387.869-.254.239-.56.358-.92.358Zm7.785 1.125v1.819h-5.255v-1.819h5.255Zm-4.062-2.091h2.42v8.137c0 .223.034.398.103.523a.558.558 0 0 0 .284.255c.125.049.269.074.431.074.114 0 .228-.009.341-.028l.262-.051.38 1.801a6.61 6.61 0 0 1-.511.13c-.22.053-.487.086-.801.097-.583.023-1.095-.055-1.534-.233a2.138 2.138 0 0 1-1.017-.83c-.243-.375-.362-.848-.358-1.42v-8.455Zm8.128 10.983c-.557 0-1.053-.096-1.489-.289a2.394 2.394 0 0 1-1.034-.87c-.25-.386-.375-.867-.375-1.443 0-.485.089-.892.267-1.221.178-.33.42-.595.727-.796a3.52 3.52 0 0 1 1.046-.454 7.817 7.817 0 0 1 1.238-.216c.508-.053.917-.103 1.228-.148.31-.049.536-.121.676-.216a.475.475 0 0 0 .21-.42v-.035c0-.359-.114-.638-.341-.835-.223-.197-.542-.295-.954-.295-.436 0-.783.096-1.04.29a1.335 1.335 0 0 0-.512.715l-2.238-.181c.113-.531.337-.989.67-1.375.334-.39.763-.69 1.29-.898.53-.212 1.144-.318 1.841-.318.485 0 .949.057 1.392.17.447.114.843.29 1.187.529.349.238.624.545.824.92.201.371.301.816.301 1.335v5.887h-2.295v-1.211h-.068c-.14.273-.328.514-.563.722a2.592 2.592 0 0 1-.846.483c-.33.114-.711.17-1.142.17Zm.693-1.67c.356 0 .67-.07.943-.21.273-.144.487-.337.642-.58.155-.242.233-.517.233-.824v-.926c-.076.049-.18.095-.312.137a6.71 6.71 0 0 1-.438.108c-.163.03-.326.058-.489.085l-.443.062a3.002 3.002 0 0 0-.744.199 1.19 1.19 0 0 0-.494.369.899.899 0 0 0-.177.569c0 .329.12.581.358.755.243.171.55.256.921.256Zm8.52-10.131v11.637h-2.421v-11.637h2.421Zm7.363 11.637-2.375-8.728h2.449l1.353 5.864h.079l1.409-5.864h2.404l1.431 5.83h.074l1.33-5.83h2.443l-2.369 8.728h-2.563l-1.5-5.489h-.108l-1.5 5.489h-2.557Zm14.377.164c-.557 0-1.053-.096-1.489-.289a2.4 2.4 0 0 1-1.034-.87c-.25-.386-.375-.867-.375-1.443 0-.485.089-.892.267-1.221.178-.33.421-.595.727-.796a3.52 3.52 0 0 1 1.046-.454 7.817 7.817 0 0 1 1.238-.216c.508-.053.917-.103 1.228-.148.31-.049.536-.121.676-.216a.475.475 0 0 0 .21-.42v-.035c0-.359-.114-.638-.341-.835-.223-.197-.541-.295-.954-.295-.436 0-.783.096-1.04.29a1.328 1.328 0 0 0-.511.715l-2.239-.181c.114-.531.337-.989.67-1.375.334-.39.764-.69 1.29-.898.53-.212 1.144-.318 1.841-.318.485 0 .949.057 1.392.17.447.114.843.29 1.188.529.348.238.623.545.823.92.201.371.302.816.302 1.335v5.887h-2.296v-1.211h-.068c-.14.273-.328.514-.563.722a2.582 2.582 0 0 1-.846.483c-.33.114-.71.17-1.142.17Zm.693-1.67c.356 0 .67-.07.943-.21.273-.144.487-.337.642-.58.156-.242.233-.517.233-.824v-.926c-.076.049-.18.095-.312.137a6.71 6.71 0 0 1-.438.108c-.163.03-.326.058-.488.085l-.444.062a3.002 3.002 0 0 0-.744.199 1.19 1.19 0 0 0-.494.369.898.898 0 0 0-.176.569c0 .329.119.581.358.755.242.171.549.256.92.256Zm8.52-10.131v11.637h-2.421v-11.637h2.421Zm4.359 0v11.637h-2.42v-11.637h2.42Zm5.916 11.807c-.897 0-1.67-.182-2.318-.545a3.737 3.737 0 0 1-1.488-1.557c-.349-.674-.523-1.472-.523-2.392 0-.898.174-1.686.523-2.364a3.864 3.864 0 0 1 1.471-1.585c.637-.379 1.383-.568 2.239-.568.576 0 1.112.093 1.608.278.5.182.935.457 1.307.824.375.367.666.83.875 1.386.208.553.312 1.201.312 1.944v.664h-7.369v-1.5h5.091a1.85 1.85 0 0 0-.228-.926 1.617 1.617 0 0 0-.63-.63 1.792 1.792 0 0 0-.926-.233c-.368 0-.694.085-.978.255-.28.167-.5.392-.659.676-.159.281-.24.593-.244.938v1.426c0 .432.079.805.239 1.119.162.315.392.557.687.728.296.17.646.255 1.051.255.269 0 .515-.038.739-.113.223-.076.415-.19.574-.341a1.48 1.48 0 0 0 .363-.557l2.239.148a3.065 3.065 0 0 1-.699 1.409c-.348.397-.799.708-1.352.932-.549.219-1.184.329-1.904.329Zm10.228-8.898v1.819h-5.256v-1.819h5.256Zm-4.063-2.091h2.421v8.137c0 .223.034.398.102.523a.562.562 0 0 0 .284.255c.125.049.269.074.432.074.113 0 .227-.009.341-.028l.261-.051.381 1.801a6.658 6.658 0 0 1-.512.13 4.058 4.058 0 0 1-.801.097c-.583.023-1.094-.055-1.534-.233a2.147 2.147 0 0 1-1.017-.83c-.242-.375-.362-.848-.358-1.42v-8.455Z"/><path fill="url(#x)" d="M917.667 140a5.332 5.332 0 0 0 5.333 5.333 5.332 5.332 0 0 0 5.333-5.333 5.332 5.332 0 0 0-5.333-5.333 5.332 5.332 0 0 0-5.333 5.333Zm111.043.707a1 1 0 0 0 0-1.414l-6.37-6.364a.994.994 0 0 0-1.41 0 1 1 0 0 0 0 1.414l5.66 5.657-5.66 5.657a1 1 0 0 0 0 1.414.994.994 0 0 0 1.41 0l6.37-6.364ZM923 140v1h105v-2H923v1Z"/><g clip-path="url(#y)"><path fill="#DFE6F5" d="M1117.1 94.14h-2.08V79.769h2.08c1.59 0 3.12.63 4.24 1.752a5.957 5.957 0 0 1 1.76 4.231v2.392c0 .787-.15 1.567-.45 2.294a5.93 5.93 0 0 1-1.3 1.946 6.023 6.023 0 0 1-4.25 1.758Z"/><path fill="#535461" d="M1114.76 94.14h.52c.83 0 1.51-.672 1.51-1.502V81.283c0-.83-.68-1.503-1.51-1.503h-.52c-.84 0-1.51.673-1.51 1.503v11.355c0 .83.67 1.503 1.51 1.503Z"/><g fill="#F2F2F2" opacity=".1"><path d="M1117.1 94.14h-2.08V79.769h2.08c1.59 0 3.12.63 4.25 1.752a5.99 5.99 0 0 1 1.75 4.231v2.392a5.83 5.83 0 0 1-.45 2.294 5.93 5.93 0 0 1-1.3 1.946 6.023 6.023 0 0 1-4.25 1.758Z"/><path d="M1114.76 94.14h.52c.84 0 1.51-.672 1.51-1.502V81.283c0-.83-.67-1.503-1.51-1.503h-.52c-.83 0-1.51.673-1.51 1.503v11.355c0 .83.68 1.503 1.51 1.503Z"/></g><path fill="#090814" d="M1118.09 87.375h-36.42v37.672h36.42V87.375Z"/><path fill="#ED9DA0" d="m1116.85 118.621-2.2 15.932-1.03 7.488-.39 2.75-3.19 6.207-5.86 11.391-11.31 1.354-19.9-27.977s-10.42-19.851 5.42-18.048c8.88 1.013 10.99-6.914 11.15-14.073.04-3.605-.29-7.204-.98-10.743l15.84 7.671a59.06 59.06 0 0 0-.83 4.714c-.77 5.861-.13 9.515 1.21 11.729 3.56 5.898 12.07 1.605 12.07 1.605Z"/><path fill="#ED9DA0" d="M1098.52 105.537c10.13 0 18.33-8.181 18.33-18.273 0-10.091-8.2-18.272-18.33-18.272-10.12 0-18.32 8.181-18.32 18.272 0 10.092 8.2 18.273 18.32 18.273Z"/><path fill="url(#z)" d="M1113.96 171.44c-.55 2.193.84 5.961 2.69 9.661-8.86.95-18.57.456-18.57.456l-9.97 2.709-28.05 8.12c-1.22-1.576-2.2-3.556-3.01-5.788l2.78-3.235c8.75-5.329 11.61-11.992 12.03-17.858.16-2.662-.1-5.334-.77-7.914a26.542 26.542 0 0 0-2.43-6.258l26.04.122h.22l2.14 4.85.1.219 1.59 3.608 5.43-9.7 1.88-3.036 1.06-1.705s15.61-3.615 15.84 5.642c.03 1.062-.01 2.125-.12 3.182-.78 7.444-4.87 12.394-8.25 15.768-.31.321-.53.721-.63 1.157Z"/><path fill="#ED9DA0" d="M1172.74 183.137c-.45 5.413-13.57-1.805-13.57-1.805s-4.08-1.354-17.88-10.151a42.043 42.043 0 0 1-15.88-18.486 25.942 25.942 0 0 1-1.32-3.62l9.51-6.999 2.77 4.227 9.22 14.043 13.57 9.013s14.03 8.365 13.58 13.778Z"/><path fill="#F2F2F2" d="M1231.6 196.511h-199l19.92-6.832 49.81-17.081 31.75-10.893h40.91l56.61 34.806Z"/><path fill="#F2F2F2" d="m1032.52 196.51-.52 4.162h200l-.34-4.162h-199.14Z"/><path fill="#000" d="m1114.65 134.553-1.42 10.231-3.19 6.207a19.544 19.544 0 0 0-6.07-.568c2.25-.309 3.71-14.33 3.71-14.33l.13-.029 6.84-1.511Z" opacity=".1"/><path fill="url(#A)" d="M1135.41 146.143c-4.53-.677-9.73 5.866-9.73 5.866s-6.11 5.865-10.18 1.805c-3.95-3.934-10.87-3.411-11.3-3.386 2.25-.312 3.71-14.331 3.71-14.331l.13-.03 21.71-4.813s1.3 1.978 2.76 4.497c2.63 4.538 5.81 10.828 2.9 10.392Z"/><path fill="#000" d="m1116.85 118.62-2.2 15.931-1.04 7.489c-3.03-.227-6.71-.634-6.71-.634s3.85-16.016-2.49-24.36c0 0 .13 0 .38-.025 3.55 5.891 12.06 1.599 12.06 1.599Z" opacity=".1"/><path fill="url(#B)" d="M1104.63 117.041s11.54-.901 16.07 2.256c4.53 3.157 10.03 12.936 10.03 12.936l1.73 3.693s-2.71.289-2.48.742c.22.453-3.62 2.706-5.43 2.029-1.81-.678-6.34 2.923-6.79 3.383-.45.461-10.63-.677-10.63-.677s3.84-16.016-2.5-24.362Z"/><path fill="#ED9DA0" d="M1129.07 177.723c-5.21 6.09-31.91 4.738-31.91 4.738l-9.95 2.704-28.06 8.122c-6.6-8.526-6.45-28.845-6.09-37.064.1-2.207.21-3.542.21-3.542s9.5-5.866 13.8 0c.77 1.045 1.41 2.507 1.95 4.202 2.5 7.818 2.8 20.611 2.8 20.611l11.32-1.128 16.43-3.897c1.14-.269 2.3-.404 3.46-.402 6.82.019 30.5.429 26.04 5.656Z"/><path fill="url(#C)" d="M1097.16 156.071s-2.04.451-6.11-.451c-4.08-.901-5.66.902-7.92 1.805-2.26.904-8.15 1.355-10.41.451-2.26-.904-4.52-2.706-9.28-.677s-7.92-2.032-12.67-1.588c-4.75.443-7.92-1.805-7.92-1.805l5.05-11.625 1.51-3.491 37.86-2.581h.18l9.71 19.962Z"/><path fill="url(#D)" d="M1080.2 118.62s-12.45-2.482-18.33.677c-5.88 3.16-10.41 10.151-10.41 10.151s-3.56 9.436-3.07 12.18c.49 2.744 8.28 0 8.28 0s9.73-2.256 11.08 1.128c1.36 3.384 7.7 1.579 7.7 1.579s13.12-3.611 15.61.45l-10.86-26.165Z"/><path fill="#090814" d="M1122.93 136.878c-1.12 2.938-4.44 4.402-7.54 4.959-3.06.548-6.2.52-9.24-.082a18.52 18.52 0 0 0 4.99-10.231c.83-5.981-1.31-12.085-.43-18.056.91-6.13 4.92-11.51 5.61-17.669-1.38.887-2.96-.799-3.69-2.268a59.875 59.875 0 0 1-3.34-8.365c-1.13-3.561-2.13-7.55-5.21-9.666-.55-.375-1.28-.677-1.85-.329-.41.244-.57.758-.69 1.218-1.06 4.141-6.42 7.396-7.94 11.398-1.45 3.798-4.05 7.064-5.48 10.877-3.26 8.721 5.36 19.473 5.87 28.769.23 4.105-.11 8.219-.46 12.314-.05.655-.16 1.395-.7 1.763-.36.194-.77.278-1.17.244-1.83.011-3.65-.293-5.38-.897-.69-.244-1.39-.541-2.13-.553-1.09-.017-2.08.579-3.13.891-3.52 1.058-7.19-1.206-9.75-3.841-2.57-2.636-4.73-5.829-8.03-7.459-1.08-.536-2.49-1.311-2.2-2.478.14-.396.38-.749.7-1.021 1.34-1.337 2.74-2.631 3.83-4.17 1.65-2.327 2.51-5.101 3.34-7.826 1.21-3.941 2.43-7.98 2.2-12.094-.11-2.039-.57-4.044-.75-6.09-.35-4.053.45-8.107 1.24-12.097.54-2.719 1.12-5.537 2.8-7.747 1.14-1.5 2.71-2.613 3.99-4 1.91-2.068 3.11-4.674 4.65-7.025 1.55-2.35 3.65-4.577 6.41-5.174 1.67-.363 3.41-.085 5.09.195 1.35.226 2.73.46 4 .974 1.01.4 1.93 1.386 2.96 1.574 2.05.383 4.3-.419 6.49.098 4.26 1 8.15 3.85 10.04 7.834.37.788.68 1.602.94 2.436.36 1.169.63 2.365.91 3.559.06.243.11.506.17.757 1.67 7.932.59 13.707-.14 21.958-.73 8.252-.91 19.306 1.39 27.283.96 3.333 2.86 6.805 1.63 10.037Z"/><path fill="url(#E)" d="M1092.98 151.894v14.889a10.737 10.737 0 0 1-3.16 7.632 10.888 10.888 0 0 1-7.69 3.188 10.888 10.888 0 0 1-8.53-4.119 10.74 10.74 0 0 1-2.34-6.701v-14.889c-.01-2.53.88-4.981 2.51-6.923.28-.345.59-.67.93-.975a10.861 10.861 0 0 1 7.42-2.926c2.75 0 5.41 1.047 7.42 2.926.09.078.17.164.26.244.24.243.46.487.67.731a10.7 10.7 0 0 1 2.51 6.923Z"/><path fill="#000" d="M1077.36 145.126a.676.676 0 1 0 0-1.355c-.37 0-.67.304-.67.678 0 .374.3.677.67.677ZM1077.36 147.382a.676.676 0 1 0 0-1.355c-.37 0-.67.303-.67.677 0 .374.3.678.67.678ZM1077.36 149.637c.38 0 .68-.303.68-.677a.676.676 0 1 0-1.35 0c0 .374.3.677.67.677ZM1077.36 151.893c.38 0 .68-.303.68-.677a.676.676 0 1 0-1.35 0c0 .374.3.677.67.677ZM1077.36 154.149c.38 0 .68-.303.68-.677a.676.676 0 1 0-1.35 0c0 .374.3.677.67.677ZM1077.36 156.405c.38 0 .68-.303.68-.677a.676.676 0 1 0-1.35 0c0 .374.3.677.67.677ZM1077.36 158.661c.38 0 .68-.303.68-.677a.676.676 0 1 0-1.35 0c0 .374.3.677.67.677ZM1077.36 160.919a.676.676 0 1 0 0-1.355c-.37 0-.67.304-.67.678 0 .374.3.677.67.677ZM1077.36 163.175a.676.676 0 1 0 0-1.355c-.37 0-.67.303-.67.677 0 .374.3.678.67.678ZM1077.36 165.43c.38 0 .68-.303.68-.677a.676.676 0 1 0-1.35 0c0 .374.3.677.67.677ZM1077.36 167.684c.38 0 .68-.303.68-.677a.676.676 0 1 0-1.35 0c0 .374.3.677.67.677ZM1077.36 169.94c.38 0 .68-.303.68-.677a.676.676 0 1 0-1.35 0c0 .374.3.677.67.677ZM1077.36 172.198c.38 0 .68-.303.68-.677a.676.676 0 1 0-1.35 0c0 .374.3.677.67.677ZM1077.36 174.454c.38 0 .68-.303.68-.677a.676.676 0 1 0-1.35 0c0 .374.3.677.67.677ZM1074.88 144.45a.67.67 0 0 1-.11.362.652.652 0 0 1-.28.25.68.68 0 0 1-.72-.091c.29-.345.6-.671.93-.975a.69.69 0 0 1 .18.454ZM1074.2 147.382c.37 0 .68-.304.68-.678a.682.682 0 0 0-.68-.677.676.676 0 1 0 0 1.355ZM1074.2 149.637c.37 0 .68-.303.68-.677a.682.682 0 0 0-.68-.677c-.38 0-.68.303-.68.677 0 .374.3.677.68.677ZM1074.2 151.893c.37 0 .68-.303.68-.677a.682.682 0 0 0-.68-.677c-.38 0-.68.303-.68.677 0 .374.3.677.68.677ZM1074.2 154.149c.37 0 .68-.303.68-.677a.682.682 0 0 0-.68-.677c-.38 0-.68.303-.68.677 0 .374.3.677.68.677ZM1074.2 156.405c.37 0 .68-.303.68-.677a.682.682 0 0 0-.68-.677c-.38 0-.68.303-.68.677 0 .374.3.677.68.677ZM1074.2 158.661c.37 0 .68-.303.68-.677a.682.682 0 0 0-.68-.677c-.38 0-.68.303-.68.677 0 .374.3.677.68.677ZM1074.2 160.919c.37 0 .68-.303.68-.677a.683.683 0 0 0-.68-.678.676.676 0 1 0 0 1.355ZM1074.2 163.175c.37 0 .68-.304.68-.678a.682.682 0 0 0-.68-.677.676.676 0 1 0 0 1.355ZM1074.2 165.43c.37 0 .68-.303.68-.677a.682.682 0 0 0-.68-.677c-.38 0-.68.303-.68.677 0 .374.3.677.68.677ZM1074.2 167.684c.37 0 .68-.303.68-.677a.682.682 0 0 0-.68-.677c-.38 0-.68.303-.68.677 0 .374.3.677.68.677ZM1074.2 169.94c.37 0 .68-.303.68-.677a.682.682 0 0 0-.68-.677c-.38 0-.68.303-.68.677 0 .374.3.677.68.677ZM1074.2 172.198c.37 0 .68-.303.68-.677a.682.682 0 0 0-.68-.677c-.38 0-.68.303-.68.677 0 .374.3.677.68.677ZM1074.88 173.776c0 .142-.05.28-.13.395a.673.673 0 0 1-.33.246c-.3-.294-.57-.605-.83-.93.06-.14.17-.253.31-.32.14-.068.3-.087.45-.053a.689.689 0 0 1 .53.662ZM1080.54 145.126c.37 0 .68-.303.68-.677a.683.683 0 0 0-.68-.678.676.676 0 1 0 0 1.355ZM1080.54 147.382c.37 0 .68-.304.68-.678a.682.682 0 0 0-.68-.677.676.676 0 1 0 0 1.355ZM1080.54 149.637c.37 0 .68-.303.68-.677a.682.682 0 0 0-.68-.677c-.38 0-.68.303-.68.677 0 .374.3.677.68.677ZM1080.54 151.893c.37 0 .68-.303.68-.677a.682.682 0 0 0-.68-.677c-.38 0-.68.303-.68.677 0 .374.3.677.68.677ZM1080.54 154.149c.37 0 .68-.303.68-.677a.682.682 0 0 0-.68-.677c-.38 0-.68.303-.68.677 0 .374.3.677.68.677ZM1080.54 156.405c.37 0 .68-.303.68-.677a.682.682 0 0 0-.68-.677c-.38 0-.68.303-.68.677 0 .374.3.677.68.677ZM1080.54 158.661c.37 0 .68-.303.68-.677a.682.682 0 0 0-.68-.677c-.38 0-.68.303-.68.677 0 .374.3.677.68.677ZM1080.54 160.919c.37 0 .68-.303.68-.677a.683.683 0 0 0-.68-.678.676.676 0 1 0 0 1.355ZM1080.54 163.175c.37 0 .68-.304.68-.678a.682.682 0 0 0-.68-.677.676.676 0 1 0 0 1.355ZM1080.54 165.43c.37 0 .68-.303.68-.677a.682.682 0 0 0-.68-.677c-.38 0-.68.303-.68.677 0 .374.3.677.68.677ZM1080.54 167.684c.37 0 .68-.303.68-.677a.682.682 0 0 0-.68-.677c-.38 0-.68.303-.68.677 0 .374.3.677.68.677ZM1080.54 169.94c.37 0 .68-.303.68-.677a.682.682 0 0 0-.68-.677c-.38 0-.68.303-.68.677 0 .374.3.677.68.677ZM1080.54 172.198c.37 0 .68-.303.68-.677a.682.682 0 0 0-.68-.677c-.38 0-.68.303-.68.677 0 .374.3.677.68.677ZM1080.54 174.454c.37 0 .68-.303.68-.677a.682.682 0 0 0-.68-.677c-.38 0-.68.303-.68.677 0 .374.3.677.68.677ZM1083.7 145.126a.676.676 0 1 0 0-1.355c-.37 0-.68.304-.68.678 0 .374.31.677.68.677ZM1083.7 147.382a.676.676 0 1 0 0-1.355c-.37 0-.68.303-.68.677 0 .374.31.678.68.678ZM1083.7 149.637c.38 0 .68-.303.68-.677 0-.374-.3-.677-.68-.677-.37 0-.68.303-.68.677 0 .374.31.677.68.677ZM1083.7 151.893c.38 0 .68-.303.68-.677 0-.374-.3-.677-.68-.677-.37 0-.68.303-.68.677 0 .374.31.677.68.677ZM1083.7 154.149c.38 0 .68-.303.68-.677 0-.374-.3-.677-.68-.677-.37 0-.68.303-.68.677 0 .374.31.677.68.677ZM1083.7 156.405c.38 0 .68-.303.68-.677 0-.374-.3-.677-.68-.677-.37 0-.68.303-.68.677 0 .374.31.677.68.677ZM1083.7 158.661c.38 0 .68-.303.68-.677 0-.374-.3-.677-.68-.677-.37 0-.68.303-.68.677 0 .374.31.677.68.677ZM1083.7 160.919a.676.676 0 1 0 0-1.355c-.37 0-.68.304-.68.678 0 .374.31.677.68.677ZM1083.7 163.175a.676.676 0 1 0 0-1.355c-.37 0-.68.303-.68.677 0 .374.31.678.68.678ZM1083.7 165.43c.38 0 .68-.303.68-.677 0-.374-.3-.677-.68-.677-.37 0-.68.303-.68.677 0 .374.31.677.68.677ZM1083.7 167.684c.38 0 .68-.303.68-.677 0-.374-.3-.677-.68-.677-.37 0-.68.303-.68.677 0 .374.31.677.68.677ZM1083.7 169.94c.38 0 .68-.303.68-.677 0-.374-.3-.677-.68-.677-.37 0-.68.303-.68.677 0 .374.31.677.68.677ZM1083.7 172.198c.38 0 .68-.303.68-.677 0-.374-.3-.677-.68-.677-.37 0-.68.303-.68.677 0 .374.31.677.68.677ZM1083.7 174.454c.38 0 .68-.303.68-.677 0-.374-.3-.677-.68-.677-.37 0-.68.303-.68.677 0 .374.31.677.68.677ZM1086.87 145.126a.676.676 0 1 0 0-1.355c-.37 0-.68.304-.68.678 0 .374.31.677.68.677ZM1086.87 147.382a.676.676 0 1 0 0-1.355c-.37 0-.68.303-.68.677 0 .374.31.678.68.678ZM1086.87 149.637c.38 0 .68-.303.68-.677 0-.374-.3-.677-.68-.677-.37 0-.68.303-.68.677 0 .374.31.677.68.677ZM1086.87 151.893c.38 0 .68-.303.68-.677 0-.374-.3-.677-.68-.677-.37 0-.68.303-.68.677 0 .374.31.677.68.677ZM1086.87 154.149c.38 0 .68-.303.68-.677 0-.374-.3-.677-.68-.677-.37 0-.68.303-.68.677 0 .374.31.677.68.677ZM1086.87 156.405c.38 0 .68-.303.68-.677 0-.374-.3-.677-.68-.677-.37 0-.68.303-.68.677 0 .374.31.677.68.677ZM1086.87 158.661c.38 0 .68-.303.68-.677 0-.374-.3-.677-.68-.677-.37 0-.68.303-.68.677 0 .374.31.677.68.677ZM1086.87 160.919a.676.676 0 1 0 0-1.355c-.37 0-.68.304-.68.678 0 .374.31.677.68.677ZM1086.87 163.175a.676.676 0 1 0 0-1.355c-.37 0-.68.303-.68.677 0 .374.31.678.68.678ZM1086.87 165.43c.38 0 .68-.303.68-.677 0-.374-.3-.677-.68-.677-.37 0-.68.303-.68.677 0 .374.31.677.68.677ZM1086.87 167.684c.38 0 .68-.303.68-.677 0-.374-.3-.677-.68-.677-.37 0-.68.303-.68.677 0 .374.31.677.68.677ZM1086.87 169.94c.38 0 .68-.303.68-.677 0-.374-.3-.677-.68-.677-.37 0-.68.303-.68.677 0 .374.31.677.68.677ZM1086.87 172.198c.38 0 .68-.303.68-.677 0-.374-.3-.677-.68-.677-.37 0-.68.303-.68.677 0 .374.31.677.68.677ZM1086.87 174.454c.38 0 .68-.303.68-.677 0-.374-.3-.677-.68-.677-.37 0-.68.303-.68.677 0 .374.31.677.68.677ZM1090.47 144.971a.685.685 0 0 1-.34.15.71.71 0 0 1-.38-.059.72.72 0 0 1-.28-.249.672.672 0 0 1-.11-.363.7.7 0 0 1 .18-.458c.09.078.18.163.26.244.24.239.46.482.67.735ZM1090.04 147.382c.37 0 .68-.304.68-.678a.682.682 0 0 0-.68-.677.676.676 0 1 0 0 1.355ZM1090.04 149.637c.37 0 .68-.303.68-.677a.682.682 0 0 0-.68-.677c-.38 0-.68.303-.68.677 0 .374.3.677.68.677ZM1090.04 151.893c.37 0 .68-.303.68-.677a.682.682 0 0 0-.68-.677c-.38 0-.68.303-.68.677 0 .374.3.677.68.677ZM1090.04 154.149c.37 0 .68-.303.68-.677a.682.682 0 0 0-.68-.677c-.38 0-.68.303-.68.677 0 .374.3.677.68.677ZM1090.04 156.405c.37 0 .68-.303.68-.677a.682.682 0 0 0-.68-.677c-.38 0-.68.303-.68.677 0 .374.3.677.68.677ZM1090.04 158.661c.37 0 .68-.303.68-.677a.682.682 0 0 0-.68-.677c-.38 0-.68.303-.68.677 0 .374.3.677.68.677ZM1090.04 160.919c.37 0 .68-.303.68-.677a.683.683 0 0 0-.68-.678.676.676 0 1 0 0 1.355ZM1090.04 163.175c.37 0 .68-.304.68-.678a.682.682 0 0 0-.68-.677.676.676 0 1 0 0 1.355ZM1090.04 165.43c.37 0 .68-.303.68-.677a.682.682 0 0 0-.68-.677c-.38 0-.68.303-.68.677 0 .374.3.677.68.677ZM1090.04 167.684c.37 0 .68-.303.68-.677a.682.682 0 0 0-.68-.677c-.38 0-.68.303-.68.677 0 .374.3.677.68.677ZM1090.04 169.94c.37 0 .68-.303.68-.677a.682.682 0 0 0-.68-.677c-.38 0-.68.303-.68.677 0 .374.3.677.68.677ZM1090.04 172.198c.37 0 .68-.303.68-.677a.682.682 0 0 0-.68-.677c-.38 0-.68.303-.68.677 0 .374.3.677.68.677ZM1090.65 173.483c-.26.325-.53.636-.83.931a.762.762 0 0 1-.28-.178.773.773 0 0 1-.16-.289.624.624 0 0 1 0-.332c.02-.109.07-.21.15-.294a.683.683 0 0 1 .27-.186.68.68 0 0 1 .85.348Z" opacity=".1"/><path fill="#54576B" d="M1081.9 165.654h-.47c-.74 0-1.35.603-1.35 1.346v27.537c0 .743.61 1.345 1.35 1.345h.47c.75 0 1.35-.602 1.35-1.345V167c0-.743-.6-1.346-1.35-1.346Z"/><path fill="#54576B" d="M1090.79 191.822h-18.25c-.96 0-1.73.776-1.73 1.732v.597c0 .957.77 1.732 1.73 1.732h18.25c.96 0 1.74-.775 1.74-1.732v-.597c0-.956-.78-1.732-1.74-1.732Z"/><path fill="#000" d="M1124.54 190.92a.338.338 0 1 0 0-.678c-.18 0-.34.152-.34.339 0 .187.16.339.34.339Z" opacity=".2"/><path fill="url(#F)" d="M1120.04 77.598c-3.73-6.711-11.32-11.313-20.03-11.313-12.42 0-22.52 9.311-22.52 20.755h-1.59c0-12.314 10.81-22.333 24.1-22.333 7.69 0 14.55 3.357 18.96 8.575.36 1.17.64 2.365.91 3.559.07.254.12.506.17.757Z"/><path fill="url(#G)" d="M1079.26 80.445h2.09v14.373h-2.09a6.026 6.026 0 0 1-4.24-1.752 6 6 0 0 1-1.76-4.23V86.44c0-.786.15-1.566.45-2.293a6.26 6.26 0 0 1 1.3-1.946 6.025 6.025 0 0 1 4.25-1.758Z"/><path fill="#535461" d="M1081.61 80.459h-.52c-.84 0-1.51.673-1.51 1.503v11.354c0 .83.67 1.503 1.51 1.503h.52c.83 0 1.51-.673 1.51-1.503V81.962c0-.83-.68-1.503-1.51-1.503Z"/><path fill="url(#H)" d="m1087.87 183.796 55.6-5.65.68 10.828-25.21 2.037c-1.73.143-3.48.01-5.18-.395l-25.93-6.112a.35.35 0 0 1-.21-.137.398.398 0 0 1-.07-.237.378.378 0 0 1 .1-.226c.06-.061.14-.1.22-.109v.001Z"/><path fill="#fff" d="m1101.05 184.192 29.4-2.987.36 5.725-13.33 1.079c-.92.074-1.84.003-2.74-.212l-13.71-3.233a.21.21 0 0 1-.11-.072.19.19 0 0 1-.04-.125.262.262 0 0 1 .06-.12.178.178 0 0 1 .11-.056v.001Z" opacity=".3"/><path fill="url(#I)" d="m1132.23 135.618 56.96-.7c1.42.093 2.76.683 3.78 1.665.44.427.78.953.99 1.534.2.582.27 1.203.18 1.814l-6.46 43.565c-.32 2.16-2.5 3.826-5.18 3.957l-58.22 2.918a6.294 6.294 0 0 1-4.43-1.449c-1.13-.997-1.65-2.355-1.4-3.694l7.73-45.784c.43-2.38 3.09-4.065 6.05-3.826Z"/><path fill="#F2F2F2" d="M1159 158.632c1.5 0 2.72-1.212 2.72-2.707a2.714 2.714 0 0 0-2.72-2.706 2.706 2.706 0 1 0 0 5.413Z"/></g><path fill="#56B7B5" d="M1096.01 234v-11.636h4.59c.88 0 1.64.168 2.26.505.62.334 1.09.798 1.42 1.392.33.591.49 1.273.49 2.046 0 .773-.16 1.454-.5 2.045a3.393 3.393 0 0 1-1.45 1.381c-.62.329-1.39.494-2.28.494h-2.93v-1.971h2.53c.48 0 .87-.082 1.17-.245.31-.166.54-.395.7-.687.15-.296.23-.635.23-1.017 0-.387-.08-.724-.23-1.012a1.622 1.622 0 0 0-.7-.676c-.31-.163-.7-.244-1.18-.244h-1.66V234h-2.46Zm15.91-3.716v-5.011h2.42V234h-2.32v-1.585h-.09c-.2.511-.53.922-.99 1.233-.45.31-1 .466-1.66.466-.58 0-1.1-.133-1.54-.398a2.754 2.754 0 0 1-1.04-1.131c-.25-.488-.37-1.074-.37-1.755v-5.557h2.42v5.125c0 .515.14.922.41 1.221.27.3.64.449 1.1.449.29 0 .56-.066.82-.199.25-.136.45-.337.61-.602.16-.265.24-.593.23-.983Zm4.4 3.716v-11.636h2.42v4.375h.08c.1-.235.26-.474.46-.716.2-.246.47-.451.79-.614.33-.167.74-.25 1.23-.25.64 0 1.22.167 1.76.5.54.33.97.828 1.29 1.494.32.663.49 1.495.49 2.495 0 .973-.16 1.795-.48 2.466-.31.666-.73 1.172-1.27 1.517-.53.341-1.13.511-1.79.511-.47 0-.87-.078-1.2-.233a2.34 2.34 0 0 1-.8-.585 2.941 2.941 0 0 1-.48-.722h-.11V234h-2.39Zm2.37-4.364c0 .519.08.972.22 1.358.14.387.35.688.62.904.28.212.61.318 1 .318s.73-.108 1-.324c.27-.22.48-.523.62-.909.14-.39.21-.839.21-1.347 0-.503-.07-.947-.21-1.329-.14-.383-.34-.682-.62-.898-.27-.216-.6-.324-1-.324s-.73.104-1 .313c-.27.208-.48.504-.62.886-.14.383-.22.833-.22 1.352Zm10.18-7.272V234h-2.42v-11.636h2.42Zm1.94 11.636v-8.727h2.42V234h-2.42Zm1.22-9.852c-.36 0-.67-.12-.93-.358a1.175 1.175 0 0 1 0-1.728c.26-.242.57-.363.93-.363.36 0 .66.121.92.363a1.175 1.175 0 0 1 0 1.728c-.26.238-.56.358-.92.358Zm10.4 3.613-2.22.137c-.03-.19-.11-.36-.24-.512a1.281 1.281 0 0 0-.49-.369c-.2-.095-.45-.142-.73-.142-.37 0-.69.08-.94.239-.26.155-.39.363-.39.625 0 .208.08.384.25.528.17.144.45.26.86.347l1.58.318c.85.174 1.48.454 1.89.841.42.386.63.894.63 1.522 0 .572-.17 1.074-.51 1.506-.33.432-.79.769-1.37 1.011-.58.239-1.25.358-2.01.358-1.15 0-2.07-.24-2.76-.721a2.828 2.828 0 0 1-1.2-1.977l2.38-.125c.08.352.25.621.53.806.27.182.63.273 1.06.273.42 0 .76-.081 1.02-.244.26-.167.4-.381.4-.642 0-.22-.1-.4-.28-.54-.18-.144-.46-.254-.84-.33l-1.51-.301c-.85-.17-1.49-.466-1.91-.886-.41-.421-.61-.956-.61-1.608 0-.561.15-1.044.45-1.449.31-.405.74-.718 1.29-.937.56-.22 1.21-.33 1.95-.33 1.11 0 1.97.233 2.61.699.63.466 1 1.1 1.11 1.903Zm4.14 1.194V234h-2.42v-11.636h2.36v4.448h.1c.19-.515.51-.918.95-1.21.44-.295.99-.443 1.66-.443.6 0 1.13.133 1.58.398.46.261.81.638 1.06 1.131.25.488.38 1.073.37 1.755V234h-2.42v-5.125c.01-.538-.13-.956-.41-1.256-.27-.299-.65-.449-1.14-.449-.33 0-.63.071-.88.211s-.45.344-.59.613c-.14.265-.21.586-.22.961Zm11.55 5.215c-.9 0-1.68-.181-2.32-.545a3.706 3.706 0 0 1-1.49-1.557c-.35-.674-.52-1.471-.52-2.392 0-.898.17-1.685.52-2.364.35-.678.84-1.206 1.47-1.585.64-.379 1.38-.568 2.24-.568.57 0 1.11.093 1.61.279.5.181.93.456 1.3.823.38.368.67.83.88 1.387.21.553.31 1.2.31 1.943v.665h-7.37v-1.5h5.09c0-.349-.07-.658-.22-.926a1.772 1.772 0 0 0-1.56-.864c-.37 0-.69.085-.98.256a1.857 1.857 0 0 0-.9 1.613v1.426c0 .432.08.805.24 1.12.16.314.39.557.68.727.3.17.65.256 1.05.256.27 0 .52-.038.74-.114.23-.076.42-.189.58-.341.16-.151.28-.337.36-.557l2.24.148a3.042 3.042 0 0 1-.7 1.409c-.35.398-.8.708-1.35.932-.55.22-1.19.329-1.9.329Zm5.58-.17v-8.727h2.35v1.522h.09c.16-.541.42-.95.8-1.227a2.1 2.1 0 0 1 1.29-.42c.13 0 .26.007.4.022.14.016.26.036.37.063v2.148a3.45 3.45 0 0 0-.48-.091c-.2-.027-.38-.04-.55-.04-.35 0-.67.078-.95.233-.28.151-.5.364-.66.636a1.83 1.83 0 0 0-.24.943V234h-2.42Z"/><defs><linearGradient id="b" x1="127.25" x2="140.416" y1="180.92" y2="180.92" gradientUnits="userSpaceOnUse"><stop stop-color="#005D84"/><stop offset="1" stop-color="#4A989D"/></linearGradient><linearGradient id="c" x1="100.782" x2="109.375" y1="192.393" y2="192.393" gradientUnits="userSpaceOnUse"><stop stop-color="#005D84"/><stop offset="1" stop-color="#4A989D"/></linearGradient><linearGradient id="d" x1="113.637" x2="124.245" y1="197.393" y2="197.393" gradientUnits="userSpaceOnUse"><stop stop-color="#005D84"/><stop offset="1" stop-color="#4A989D"/></linearGradient><linearGradient id="e" x1="158.754" x2="183.375" y1="107.969" y2="112.817" gradientUnits="userSpaceOnUse"><stop stop-color="#009877"/><stop offset="1" stop-color="#50D098"/></linearGradient><linearGradient id="f" x1="182.58" x2="197.769" y1="105.054" y2="107.469" gradientUnits="userSpaceOnUse"><stop stop-color="#009877"/><stop offset="1" stop-color="#50D098"/></linearGradient><linearGradient id="g" x1="153.281" x2="163.262" y1="111.484" y2="112.318" gradientUnits="userSpaceOnUse"><stop stop-color="#009877"/><stop offset="1" stop-color="#50D098"/></linearGradient><linearGradient id="h" x1="179.435" x2="181.699" y1="80.932" y2="81.376" gradientUnits="userSpaceOnUse"><stop stop-color="#009877"/><stop offset="1" stop-color="#50D098"/></linearGradient><linearGradient id="i" x1="179.149" x2="180.5" y1="80.871" y2="80.986" gradientUnits="userSpaceOnUse"><stop stop-color="#009877"/><stop offset="1" stop-color="#50D098"/></linearGradient><linearGradient id="j" x1="166.52" x2="164.256" y1="81.294" y2="80.851" gradientUnits="userSpaceOnUse"><stop stop-color="#009877"/><stop offset="1" stop-color="#50D098"/></linearGradient><linearGradient id="k" x1="166.81" x2="165.459" y1="81.356" y2="81.241" gradientUnits="userSpaceOnUse"><stop stop-color="#009877"/><stop offset="1" stop-color="#50D098"/></linearGradient><linearGradient id="l" x1="166.94" x2="176.92" y1="75.229" y2="80.376" gradientUnits="userSpaceOnUse"><stop stop-color="#009877"/><stop offset="1" stop-color="#50D098"/></linearGradient><linearGradient id="m" x1="147.876" x2="155.408" y1="138.345" y2="140.132" gradientUnits="userSpaceOnUse"><stop stop-color="#009877"/><stop offset="1" stop-color="#50D098"/></linearGradient><linearGradient id="o" x1="37.053" x2="114.843" y1="113.852" y2="118.976" gradientUnits="userSpaceOnUse"><stop stop-color="#FF797F"/><stop offset="1" stop-color="#FF587F"/></linearGradient><linearGradient id="p" x1="86.981" x2="95.634" y1="87.987" y2="95.27" gradientUnits="userSpaceOnUse"><stop stop-color="#009877"/><stop offset="1" stop-color="#50D098"/></linearGradient><linearGradient id="q" x1="81.156" x2="82.51" y1="74.699" y2="75.092" gradientUnits="userSpaceOnUse"><stop stop-color="#009877"/><stop offset="1" stop-color="#50D098"/></linearGradient><linearGradient id="r" x1="62.543" x2="71.525" y1="146.932" y2="151.96" gradientUnits="userSpaceOnUse"><stop stop-color="#009877"/><stop offset="1" stop-color="#50D098"/></linearGradient><linearGradient id="s" x1="42.883" x2="42.407" y1="126.239" y2="129.36" gradientUnits="userSpaceOnUse"><stop stop-color="#009877"/><stop offset="1" stop-color="#50D098"/></linearGradient><linearGradient id="t" x1="79.077" x2="82.071" y1="134.796" y2="136.472" gradientUnits="userSpaceOnUse"><stop stop-color="#009877"/><stop offset="1" stop-color="#50D098"/></linearGradient><linearGradient id="u" x1="314.126" x2="310.226" y1="141" y2="122.901" gradientUnits="userSpaceOnUse"><stop offset=".12" stop-color="#7F76B2"/><stop offset=".298" stop-color="#F69656"/><stop offset=".591" stop-color="#F2797F"/><stop offset=".904" stop-color="#9CD6CB"/></linearGradient><linearGradient id="v" x1="529.126" x2="525.226" y1="141" y2="122.901" gradientUnits="userSpaceOnUse"><stop offset=".12" stop-color="#7F76B2"/><stop offset=".298" stop-color="#F69656"/><stop offset=".591" stop-color="#F2797F"/><stop offset=".904" stop-color="#9CD6CB"/></linearGradient><linearGradient id="w" x1="802.126" x2="798.226" y1="141" y2="122.901" gradientUnits="userSpaceOnUse"><stop offset=".12" stop-color="#7F76B2"/><stop offset=".298" stop-color="#F69656"/><stop offset=".591" stop-color="#F2797F"/><stop offset=".904" stop-color="#9CD6CB"/></linearGradient><linearGradient id="x" x1="1017.13" x2="1013.23" y1="141" y2="122.901" gradientUnits="userSpaceOnUse"><stop offset=".12" stop-color="#7F76B2"/><stop offset=".298" stop-color="#F69656"/><stop offset=".591" stop-color="#F2797F"/><stop offset=".904" stop-color="#9CD6CB"/></linearGradient><linearGradient id="z" x1="1061.76" x2="1112.51" y1="166.427" y2="186.275" gradientUnits="userSpaceOnUse"><stop stop-color="#009877"/><stop offset="1" stop-color="#50D098"/></linearGradient><linearGradient id="A" x1="1106.51" x2="1131.63" y1="142.103" y2="151.629" gradientUnits="userSpaceOnUse"><stop stop-color="#009877"/><stop offset="1" stop-color="#50D098"/></linearGradient><linearGradient id="B" x1="1106.62" x2="1129.16" y1="128.349" y2="135.327" gradientUnits="userSpaceOnUse"><stop stop-color="#009877"/><stop offset="1" stop-color="#50D098"/></linearGradient><linearGradient id="C" x1="1046.72" x2="1079.51" y1="146.176" y2="168.664" gradientUnits="userSpaceOnUse"><stop stop-color="#009877"/><stop offset="1" stop-color="#50D098"/></linearGradient><linearGradient id="D" x1="1051.39" x2="1083.1" y1="129.959" y2="143.997" gradientUnits="userSpaceOnUse"><stop stop-color="#009877"/><stop offset="1" stop-color="#50D098"/></linearGradient><linearGradient id="E" x1="1071.25" x2="1092.98" y1="159.086" y2="159.086" gradientUnits="userSpaceOnUse"><stop stop-color="#005D84"/><stop offset="1" stop-color="#4A989D"/></linearGradient><linearGradient id="F" x1="1079.05" x2="1108.99" y1="74.806" y2="91.445" gradientUnits="userSpaceOnUse"><stop stop-color="#009877"/><stop offset="1" stop-color="#50D098"/></linearGradient><linearGradient id="G" x1="1073.84" x2="1080.84" y1="86.945" y2="88.052" gradientUnits="userSpaceOnUse"><stop stop-color="#009877"/><stop offset="1" stop-color="#50D098"/></linearGradient><linearGradient id="H" x1="1093.2" x2="1116" y1="185.648" y2="161.915" gradientUnits="userSpaceOnUse"><stop stop-color="#FF797F"/><stop offset="1" stop-color="#FF587F"/></linearGradient><linearGradient id="I" x1="1125.95" x2="1183.49" y1="167.121" y2="148.437" gradientUnits="userSpaceOnUse"><stop stop-color="#FF797F"/><stop offset="1" stop-color="#FF587F"/></linearGradient><clipPath id="a"><path fill="#fff" d="M16 40h200v161.4H16z"/></clipPath><clipPath id="n"><path fill="#fff" d="M45.594 38.158 137.23 60.21l-30.46 126.582-91.636-22.051z"/></clipPath><clipPath id="y"><path fill="#fff" d="M1032 60h200v140.673h-200z"/></clipPath></defs></svg>
