<svg xmlns="http://www.w3.org/2000/svg" viewBox="0 0 376 270" fill="none"><mask id="a" fill="#fff"><path d="M0 8a8 8 0 0 1 8-8h360a8 8 0 0 1 8 8v262H0V8Z"/></mask><path fill="#C9C9C9" d="M-.646 8A8.646 8.646 0 0 1 8-.646h360A8.646 8.646 0 0 1 376.646 8h-1.292A7.354 7.354 0 0 0 368 .646H8A7.354 7.354 0 0 0 .646 8H-.646ZM376 270H0h376ZM-.646 270V8A8.646 8.646 0 0 1 8-.646V.646A7.354 7.354 0 0 0 .646 8v262H-.646ZM368-.646A8.646 8.646 0 0 1 376.646 8v262h-1.292V8A7.354 7.354 0 0 0 368 .646V-.646Z" mask="url(#a)"/><circle cx="11.631" cy="11.631" r="3.377" stroke="#C9C9C9"/><circle cx="27.138" cy="11.631" r="3.377" stroke="#C9C9C9"/><circle cx="42.644" cy="11.631" r="3.377" stroke="#C9C9C9"/><rect width="305.219" height="6.753" x="62.527" y="8.254" stroke="#C9C9C9" rx="3.377"/><path fill="url(#b)" d="M130.344 46.813a32.033 32.033 0 0 0-32.031 32.03v89.688a32.033 32.033 0 0 0 32.031 32.031h38.13a41.11 41.11 0 0 1 6.534-12.812h-44.664a19.22 19.22 0 0 1-19.219-19.219V98.062H239.25v24.908l1.32-1.32c3.408-3.408 7.316-6.022 11.492-7.803V78.844a32.03 32.03 0 0 0-32.031-32.031h-89.687Zm56.964 128.086 32.685-32.672a6.41 6.41 0 0 0-1.832-3.844l-25.625-25.625a6.413 6.413 0 0 0-9.065-.006 6.408 6.408 0 0 0-.007 9.065l21.103 21.089-21.103 21.09a6.407 6.407 0 0 0 3.844 10.903ZM239.25 85.25H111.125v-6.406a19.22 19.22 0 0 1 19.219-19.219h89.687a19.22 19.22 0 0 1 19.219 19.219v6.406Zm-72.339 27.496a6.418 6.418 0 0 1 1.882 4.535 6.418 6.418 0 0 1-1.882 4.536l-21.103 21.089 21.103 21.09a6.412 6.412 0 0 1 0 9.071 6.416 6.416 0 0 1-9.072 0l-25.625-25.625a6.418 6.418 0 0 1-1.882-4.536 6.418 6.418 0 0 1 1.882-4.535l25.625-25.625a6.395 6.395 0 0 1 4.536-1.882 6.401 6.401 0 0 1 4.536 1.882Zm20.833 79.834 61.884-61.884a23.962 23.962 0 1 1 33.876 33.902l-61.884 61.871a28.18 28.18 0 0 1-13.069 7.406l-19.193 4.792a11.407 11.407 0 0 1-13.825-13.812l4.805-19.193a28.19 28.19 0 0 1 7.406-13.069"/><defs><linearGradient id="b" x1="304.85" x2="141.29" y1="175.45" y2="259.424" gradientUnits="userSpaceOnUse"><stop offset=".12" stop-color="#7F76B2"/><stop offset=".298" stop-color="#F69656"/><stop offset=".591" stop-color="#F2797F"/><stop offset=".904" stop-color="#9CD6CB"/></linearGradient></defs></svg>
