<svg xmlns="http://www.w3.org/2000/svg" viewBox="0 0 512 134.58">
<defs><style>.cls-2{stroke-width:0;fill:#fff}</style></defs>
<rect width="504.11" height="126.94" x="4.37" y="3.6" rx="63.25" ry="63.25" style="fill:#7000ff;stroke-width:0"/>
<path d="M492.35 19.74C479.63 7.01 462.75 0 444.8 0H67.26C30.17 0 0 30.17 0 67.26s30.17 67.32 67.26 67.32H445.6c17.64-.23 34.2-7.23 46.72-19.78 12.72-12.73 19.71-29.61 19.68-47.54.03-17.93-6.95-34.81-19.65-47.52Zm-4.77 90.61c-11.47 11.25-26.68 17.42-42.85 17.3H67.27c-32.7-.32-59.51-27.14-59.77-59.81-.16-16.09 5.99-31.29 17.3-42.8C36.11 13.51 51.2 7.08 67.26 6.93h378.59c16.09.16 31.19 6.59 42.5 18.11 11.31 11.51 17.45 26.71 17.31 42.8-.16 16.12-6.57 31.22-18.07 42.51Z" style="stroke-width:0;fill:#d8c2f5"/>
<path d="M81.93 40.79c-1.94-5.08-6.7-8.35-12.14-8.35-7.1 0-12.89 5.71-13.02 12.79-8.15 3.27-14.11 9.54-15.95 16.84l-.47 1.67h5.64l.29-.92c1.58-5.15 5.78-9.54 11.6-12.13 2.77 6.33 10.08 9.42 16.58 6.92 3.24-1.25 5.81-3.69 7.22-6.86 1.42-3.17 1.51-6.7.26-9.95Zm-6.82 10.09c-1.41 1.39-3.29 2.14-5.27 2.14h-.06c-3.69 0-6.83-2.67-7.48-6.32-.04-.4-.1-.8-.1-1.19 0-4.18 3.4-7.58 7.58-7.58s7.56 3.4 7.56 7.58c0 2.02-.79 3.93-2.24 5.37Z" class="cls-2"/>
<path d="M73.56 45.46c0 2.12-1.67 3.77-3.78 3.77S66 47.58 66 45.46s1.65-3.78 3.78-3.78 3.78 1.66 3.78 3.78ZM54.01 67.32c0 1.49-1.22 2.71-2.71 2.71H34.75s-.09.01-.13.01c-.66 0-1.32-.26-1.82-.7-.53-.49-.85-1.16-.88-1.89-.07-1.54 1.06-2.8 2.58-2.86h16.74c1.54 0 2.77 1.22 2.77 2.73ZM79.06 80.01c-2.47-2.5-5.76-3.86-9.27-3.86-5.25 0-9.86 3.04-11.93 7.79-5.81-2.6-10.02-6.99-11.58-12.11l-.29-.93h-5.64l.46 1.66c1.92 7.32 7.87 13.59 15.96 16.84.11 7.08 5.91 12.79 13.02 12.79s13.02-5.84 13.02-13.02c.03-3.45-1.31-6.7-3.75-9.16Zm-1.81 10.33c-.57 3.67-3.72 6.34-7.46 6.34-4.13 0-7.52-3.4-7.58-7.58 0-.39.06-.78.1-1.22.62-3.69 3.88-6.33 7.54-6.33.39 0 .78.03 1.16.09 4.08.67 6.88 4.58 6.24 8.7Z" class="cls-2"/>
<path d="M73.56 89.16c0 2.12-1.67 3.77-3.78 3.77S66 91.28 66 89.16s1.69-3.78 3.78-3.78 3.78 1.67 3.78 3.78ZM136.16 60.03c-.7 1.03-1.79 1.64-3.01 1.64-1.49 0-2.76-.82-3.32-2.1-.32-.66-.73-1.32-1.26-2.02-.75-.95-1.64-1.78-2.63-2.44-.95-.62-2.08-1.13-3.39-1.51-2.8-.76-5.77-.76-8.57 0-3.09.82-5.91 2.31-8.17 4.33a19.204 19.204 0 0 0-3.06 3.55c-.86 1.38-1.56 2.84-2.05 4.32-.49 1.55-.75 3.26-.75 4.94-.04 1.79.29 3.59.99 5.22.67 1.58 1.58 2.91 2.68 3.98 1.28 1.16 2.6 1.98 4 2.48 2.89 1.08 5.91 1.16 9.33.34 1.39-.36 2.8-.9 4.03-1.59 1.23-.67 2.44-1.49 3.7-2.54.89-.79 1.74-1.69 2.5-2.66.67-.82 1.61-1.28 2.57-1.28 1.28 0 2.41.7 2.99 1.84.56 1.13.43 2.48-.34 3.53-.53.69-1.16 1.38-1.71 1.98a26.726 26.726 0 0 1-11.55 7.05c-2.22.66-4.55.99-6.92.99-2.77 0-5.41-.49-7.82-1.42-2.37-.96-4.45-2.3-6.17-3.98-1.75-1.74-3.1-3.76-4.03-6.01-.95-2.27-1.44-4.78-1.44-7.48 0-2.25.33-4.48.99-6.6.72-2.27 1.61-4.21 2.73-5.94 1.11-1.79 2.5-3.47 4.12-4.99 1.59-1.48 3.37-2.8 5.31-3.9 2.02-1.12 4.11-1.97 6.19-2.55 4.61-1.22 9.13-1.23 13.45.06 2.01.62 3.95 1.56 5.61 2.76 1.65 1.19 3.09 2.7 4.18 4.39.49.7.88 1.48 1.25 2.21l.06.2c.3 1.18.13 2.35-.49 3.22ZM185.42 66.46l-3.47 19.71c-.27 1.69-1.78 2.97-3.53 2.97-1.99 0-3.59-1.59-3.59-3.55 0-.19 0-.46.1-.75l3.33-18.79c.4-2.08.5-4.19.3-6.27a7.515 7.515 0 0 0-1.55-3.82c-.83-.95-1.94-1.68-3.27-2.12a17.41 17.41 0 0 0-5.38-.75c-1.79 0-3.57.32-5.18.9-1.62.56-3.19 1.44-4.65 2.6-1.39 1.11-2.6 2.47-3.59 4.08-1.02 1.69-1.69 3.5-1.98 5.41l-3.57 20.18c-.2.98-.75 1.77-1.54 2.3-.59.39-1.26.59-1.95.59-.24 0-.5-.03-.75-.09-1.82-.33-3.1-2.14-2.83-4.02l8.78-49.98c.34-1.95 2.21-3.24 4.15-2.9.93.16 1.75.69 2.31 1.46.55.79.76 1.75.59 2.68l-2.66 14.86.13-.09c1.35-1.06 2.74-1.91 4.12-2.53 1.35-.65 2.87-1.21 4.64-1.68 1.82-.4 3.49-.6 5.11-.6 6.29 0 10.88 1.68 13.69 4.98 2.7 3.2 3.43 8.17 2.24 15.2ZM209.96 36.4c-.01.65-.2 1.36-.53 1.97-.34.62-.75 1.05-1.09 1.39-1.09.98-2.4 1.46-3.82 1.46-.07.01-.14.01-.22.01-1.03 0-2.1-.43-2.86-1.21-.8-.8-1.22-1.88-1.15-2.97 0-.65.16-1.31.46-1.91.32-.65.7-1.15 1.19-1.58.56-.49 1.13-.83 1.75-1.06.67-.24 1.35-.36 2.02-.36 1.11-.07 2.22.34 3.11 1.16.77.93 1.16 2.05 1.12 3.09ZM206.11 50.84c.01.19-.01.33-.03.46l-.03.24-6.1 34.62a3.576 3.576 0 0 1-3.52 2.96c-.22 0-.42-.01-.63-.06-.93-.16-1.75-.69-2.31-1.46a3.56 3.56 0 0 1-.59-2.68l6.14-34.62a3.514 3.514 0 0 1 3.47-2.97c1.91 0 3.53 1.58 3.59 3.52ZM281.86 66.33l-3.52 19.84c-.24 1.74-1.78 3-3.52 3-.16 0-.33-.01-.5-.04-.95-.13-1.77-.62-2.34-1.39a3.56 3.56 0 0 1-.66-2.63c0-.1.03-.23.09-.36l3.29-18.73c.39-1.98.52-4.06.36-6.2a9.345 9.345 0 0 0-1.31-3.93c-.56-.9-1.41-1.65-2.45-2.12-1.12-.49-2.48-.76-3.89-.76-1.75 0-3.43.3-5.01.89-1.58.59-3.03 1.45-4.31 2.53-1.29 1.11-2.4 2.47-3.27 4.06-.95 1.69-1.59 3.59-1.89 5.5l-.14 1.16h-.14l-3.34 18.93c-.17.93-.69 1.75-1.48 2.31-.79.55-1.74.76-2.67.59-.95-.17-1.77-.69-2.31-1.48-.56-.79-.76-1.74-.6-2.67l3.32-18.86c.39-1.98.52-4.05.36-6.2-.1-1.31-.55-2.66-1.31-3.92-.56-.92-1.42-1.67-2.45-2.14-1.13-.49-2.45-.76-3.85-.76-1.74 0-3.42.3-5 .89-1.58.6-3.03 1.45-4.32 2.54s-2.4 2.47-3.26 4.06c-.95 1.74-1.61 3.62-1.97 5.57l-3.52 20.05c-.17.95-.69 1.77-1.48 2.33-.79.55-1.74.76-2.67.59-.95-.17-1.77-.69-2.31-1.48-.56-.79-.76-1.74-.6-2.67l6.16-34.68c.26-1.68 1.75-2.91 3.52-2.91 1.97 0 3.5 1.45 3.65 3.27a22.63 22.63 0 0 1 3.76-2.3c2.84-1.36 5.9-1.99 9.06-1.98 3.4 0 6.3.82 8.61 2.41a11.94 11.94 0 0 1 4.05 4.74c.55-.59 1.09-1.12 1.59-1.61 1.42-1.23 2.78-2.17 4.21-2.87 1.64-.85 3.29-1.48 4.89-1.89 1.78-.47 3.69-.72 5.68-.72 2.22-.04 4.52.39 6.63 1.28 2.02.89 3.69 2.22 4.84 3.88 1.31 1.92 2.14 4.12 2.41 6.37.3 3.17.17 5.96-.37 8.53ZM332.65 57.79a17.995 17.995 0 0 0-10.25-10.03c-2.55-1-5.21-1.49-7.84-1.42-2.41 0-4.69.3-6.79.92-2.34.65-4.35 1.48-6.13 2.55a29.083 29.083 0 0 0-5.33 3.9c-1.58 1.52-2.99 3.2-4.18 5.01a26.347 26.347 0 0 0-2.73 5.93c-.65 2.11-.98 4.33-.98 6.6 0 2.53.47 5.01 1.44 7.42.92 2.21 2.27 4.25 4.02 6.07 1.79 1.74 3.88 3.09 6.17 4.02 2.35.93 4.89 1.42 7.38 1.42h.4c2.35 0 4.64-.29 6.79-.86 4.25-1.13 8.22-3.34 11.51-6.42 1.61-1.55 3.01-3.24 4.18-5.05 1.15-1.87 2.07-3.85 2.73-5.93.65-2.12.98-4.35.98-6.57.1-2.54-.37-5.15-1.38-7.56Zm-7.3 14.88c-1 2.1-2.38 3.99-4.12 5.63-1.77 1.65-3.76 2.93-5.93 3.76-3.8 1.55-8.14 1.92-12.06.37-3.03-1.23-5.43-3.65-6.57-6.62-.62-1.58-.93-3.29-.93-5.08 0-1.58.23-3.16.7-4.69.44-1.48 1.08-2.87 1.94-4.25a20 20 0 0 1 2.96-3.56c1.25-1.13 2.53-2.08 3.79-2.77 1.38-.78 2.84-1.36 4.32-1.77 1.59-.43 3.2-.65 4.81-.65 1.88 0 3.6.33 5.12.98 1.56.67 2.9 1.56 3.98 2.64 1.18 1.23 2.04 2.54 2.6 4.03.63 1.58.95 3.29.95 5.08 0 2.47-.52 4.78-1.55 6.89ZM382.88 66.73l-3.42 19.43a3.595 3.595 0 0 1-3.53 2.96c-.2 0-.42-.01-.63-.06-.93-.16-1.75-.69-2.3-1.46-.56-.79-.78-1.75-.6-2.68l3.26-18.59c.42-2.14.5-4.25.26-6.26-.14-1.39-.69-2.78-1.58-4.02a7.02 7.02 0 0 0-3.2-2.21c-1.65-.57-3.42-.85-5.27-.79-1.79 0-3.56.33-5.28.99-1.68.65-3.29 1.58-4.75 2.8-1.44 1.23-2.7 2.76-3.63 4.39-1.08 1.78-1.77 3.66-2.05 5.63l-3.42 19.31c-.27 1.68-1.75 2.91-3.53 2.91-1.95 0-3.55-1.61-3.55-3.59 0-.2 0-.46.1-.75l6.11-34.49c.13-.92.65-1.78 1.44-2.34a3.44 3.44 0 0 1 2.67-.62c.93.16 1.75.67 2.31 1.42.55.75.77 1.62.66 2.51.1-.07.2-.14.32-.22 1.13-.9 2.45-1.72 3.99-2.48 1.49-.72 3.03-1.28 4.61-1.65 1.74-.4 3.36-.6 4.98-.6 6.29 0 10.89 1.74 13.69 5.15 2.76 3.42 3.55 8.55 2.34 15.3ZM434.39 59.8c-.66-2.6-1.94-5.04-3.7-7.08-1.74-2.01-3.99-3.63-6.52-4.69-2.68-1.13-5.45-1.69-8.21-1.69-3.2-.01-6.37.53-9.4 1.74-2.8 1.08-5.4 2.63-7.71 4.61-2.27 1.94-4.21 4.26-5.8 6.89a23.959 23.959 0 0 0-3.16 8.47c-.55 2.83-.45 5.8.27 8.63a17.52 17.52 0 0 0 3.7 7.13c1.78 2.05 4.03 3.7 6.52 4.75 2.68 1.12 5.47 1.69 8.27 1.69 2.44 0 4.92-.32 7.19-.99 2.3-.7 4.29-1.59 6.13-2.71 2.04-1.22 3.73-2.54 5.15-4.02.52-.52.99-1.03 1.51-1.62.88-1.01 1.06-2.37.5-3.55a3.362 3.362 0 0 0-3.04-1.97c-1.05 0-2.02.46-2.57 1.22-.63.8-1.41 1.61-2.34 2.44-1.36 1.12-2.45 1.87-3.53 2.43-1.35.69-2.68 1.22-3.96 1.55-3.52.89-6.75.7-9.49-.43-1.61-.65-3.01-1.58-4.18-2.74-1.21-1.26-2.12-2.74-2.64-4.31-.49-1.44-.72-2.94-.67-4.48h34.85c1.52 0 2.83-1.08 3.22-2.67.17-1.11.26-2.24.26-3.34 0-1.79-.22-3.57-.65-5.25Zm-36.5 5.08c.52-1.26 1.18-2.51 1.97-3.69 1.21-1.74 2.61-3.2 4.18-4.39 1.59-1.23 3.32-2.18 5.28-2.91 1.94-.69 3.95-1.05 5.96-1.05h.03c1.84-.04 3.65.3 5.37 1.03 1.56.66 2.91 1.59 4 2.78 1.13 1.23 1.95 2.64 2.44 4.22.46 1.29.69 2.67.7 4h-29.93ZM480.32 50.9c0 .42-.09 1.08-.49 1.74l-29.78 48.23a3.415 3.415 0 0 1-2.91 1.62c-.62 0-1.23-.16-1.79-.5-1.61-.98-2.11-3.09-1.13-4.71l6.33-10.19L441.29 52c-.26-.96-.13-2.01.37-2.86a3.6 3.6 0 0 1 2.25-1.68c.95-.26 1.98-.11 2.84.39.85.5 1.44 1.29 1.67 2.25l.03.14 7.39 28.19 18.11-29.42c.6-1.02 1.71-1.62 2.94-1.62.93 0 1.84.39 2.5 1.06.63.66.98 1.54.93 2.45Z" class="cls-2"/>
</svg>