<svg xmlns="http://www.w3.org/2000/svg" width="276" height="276" fill="none" viewBox="0 0 276 276"><path fill="url(#a)" d="M137.6 0c-36.49 0-71.49 14.5-97.3 40.3A137.58 137.58 0 0 0 0 137.6c0 36.5 14.5 71.49 40.3 97.3a137.58 137.58 0 0 0 97.3 40.3c36.5 0 71.49-14.5 97.3-40.3a137.58 137.58 0 0 0 40.3-97.3 137.722 137.722 0 0 0-40.35-97.25A137.722 137.722 0 0 0 137.6 0Z"/><path fill="#fff" d="M229.18 91.72c-1.58-5.78-6.15-10.35-11.94-11.94-5.78-1.59-12.04.02-16.54 4.37l-77.45 80.22-44.85-44.85c-4.31-4.17-10.59-5.75-16.36-4.18-5.78 1.59-10.35 6.16-11.93 11.93-1.59 5.78.01 12.04 4.17 16.36l.1.1 56.91 56.91c3.23 3.22 7.51 4.99 12.05 4.99 4.54 0 8.83-1.77 12.15-5.09L225 108.07c4.16-4.31 5.76-10.58 4.18-16.35Z"/><defs><linearGradient id="a" x1="0" x2="275.2" y1="137.59" y2="137.59" gradientUnits="userSpaceOnUse"><stop stop-color="#008897"/><stop offset=".59" stop-color="#009E87"/><stop offset="1" stop-color="#00A880"/></linearGradient></defs></svg>