<svg xmlns="http://www.w3.org/2000/svg" viewBox="0 0 718 390" fill="none"><path fill="#fff" d="M0 0h718v390H0z"/><g clip-path="url(#a)"><path fill="url(#b)" d="M377.31 38.97c-6.07-2.52-12.7-3.93-19.72-3.97-4.6-.02-9.2.48-13.67 1.51-12.53 2.89-25.32 10.14-32.83 20.78-7.28 10.32-10.44 23.1-11.85 35.48-.62 5.45-.89 10.93-.9 16.41-.05 16.83 1.79 32.71 4 48.56.65 4.69.89 9.91.73 15.67-.11 4.06-1.03 8.33-2.75 12.82l7.84-1.36c4.77-1.89 8.7-2.54 11.78-1.96l3.31-.41 6.66-1.55c3.42-.22 6.28-1.56 8.57-4.02.73-.78 1.14-1.7 1.25-2.77.36-3.59.5-7.25.41-10.96-11.71-7.89-19.9-17.33-21.62-32.07-.9.44-1.78.8-2.65 1.1-1.47.49-2.79.18-3.39-1.28-.62-1.49-1.05-2.41-1.3-2.75-5.1-4.32-7.59-9.98-7.48-16.96.05-3.41.78-7.53 4.64-8.29 2.33-.45 3.61.47 3.84 2.76.67 6.64 1.46 13.7 4.36 19.36.39.53.66 1.11.81 1.73.1.16.2.27.3.34.18.11.3.07.36-.14.05-.19.04-.39-.03-.62-.36-8.13.31-16.47 1.17-24.53-.02-.95.18-1.77.62-2.45.15-.24.37-.39.66-.45 9.34-1.93 18.44-4.66 27.29-8.18 5.04-2 9.88-4.41 14.5-7.22 3.98-1.95 7.6-4.75 10.86-8.37.11.18.52.19 1.24.04 3.03 1.68 5.83 3.67 8.39 5.95 4.23 3.77 7.74 7.22 10.54 10.35 2.27 2.54 4.45 5.53 6.53 8.97.8 1.33 1.24 2.74 1.31 4.24.88 5.71 1.04 11.64.47 17.77-.14.84.01 1.34.45 1.5.78-1.81 1.26-3.37 1.45-4.68.71-4.9 1.24-9.58 1.59-14.04.01-.17.06-.34.14-.5.34-.67 1.16-.95 1.84-.61 2.33 1.16 3.74 3.09 4.21 5.78 1.23 7.01-.73 13.1-5.89 18.27-.62 1.82-1.53 3.3-2.72 4.44-.7.66-1.66.88-2.9.65l-.39.83c-1.64 11.71-7.16 20.84-16.58 27.39a84.17 84.17 0 0 1-10.5 6.21c-.3.15-.53.35-.67.6-.29 3.98-.29 6.74 0 8.28.87 4.72 8.47 6.87 12.48 7.12 1.68-.56 3.35-.34 5 .66 2.42.7 4.32.03 6.61 1.16 1.69-.28 3.51-.03 5.44.76l10.94 3.11c-.75-20.34.38-40.42 1.64-60.53.14-2.27.35-4.53.62-6.78 1.46-14.3 1.46-27.61-1.87-40.67-4.82-18.95-17.71-35.26-35.13-42.48h-.01Z"/><path fill="#FBC9A4" d="M411.22 109.95c-.47-2.69-1.87-4.61-4.21-5.78-.16-.08-.33-.13-.5-.14-.75-.06-1.42.5-1.47 1.25-.35 4.46-.88 9.14-1.59 14.04-.19 1.31-.67 2.87-1.45 4.68-.44-.16-.59-.66-.45-1.5.57-6.13.41-12.06-.47-17.77-.07-1.5-.51-2.91-1.31-4.24-2.08-3.44-4.25-6.43-6.53-8.97-2.8-3.14-6.31-6.59-10.54-10.35a45.975 45.975 0 0 0-8.39-5.95c-.52.11-.87.13-1.07.06-.06-.03-.11-.07-.17-.11-3.27 3.63-6.89 6.42-10.86 8.37a96.987 96.987 0 0 1-14.5 7.22c-8.85 3.52-17.94 6.25-27.29 8.18-.28.06-.5.21-.66.45-.44.68-.64 1.5-.62 2.45-.86 8.07-1.52 16.41-1.17 24.53.07.23.09.43.03.62-.06.2-.18.25-.36.14-.1-.07-.2-.18-.3-.34.11.42.17.79.19 1.12a4.6 4.6 0 0 0-.19-1.12c-.15-.62-.42-1.2-.81-1.73-2.9-5.67-3.69-12.72-4.36-19.36-.23-2.29-1.51-3.21-3.84-2.76-3.87.76-4.59 4.88-4.64 8.29-.11 6.99 2.38 12.64 7.48 16.96.24.35.68 1.26 1.29 2.75.6 1.46 1.93 1.76 3.39 1.28.87-.3 1.75-.66 2.65-1.1 1.72 14.75 9.91 24.19 21.62 32.07 3.1 2.22 6.92 4.42 9.99 5.86 6.76 3.17 13.67 2.97 20.73-.59.19-.1.43-.14.72-.13.15-.25.37-.45.67-.6a84.17 84.17 0 0 0 10.5-6.21c9.42-6.55 14.94-15.68 16.58-27.39l.39-.83c1.23.23 2.2.02 2.9-.65 1.19-1.14 2.1-2.62 2.72-4.44 5.16-5.17 7.12-11.26 5.89-18.27l.01.01Z"/><path fill="#FBC9A4" d="M384.94 184.98c-.32-.82-.62-1.24-.89-1.24-4.01-.25-11.61-2.4-12.48-7.12-.28-1.54-.28-4.3 0-8.28-.29-.01-.53.03-.72.13-7.06 3.56-13.97 3.76-20.73.59-3.08-1.44-6.89-3.64-9.99-5.86.09 3.71-.05 7.37-.41 10.96a4.685 4.685 0 0 1-1.25 2.77c-2.29 2.46-5.15 3.81-8.57 4.02-.15 4.26.6 8.5 2.27 12.72l1.01 1.64c3.43 7.58 9.07 12.56 16.92 14.93 3.88 1.17 7.74 1.66 11.55 1.48 10.82-.71 18.33-5.66 22.52-14.84 1.54-3.37 1.79-7.34.77-11.9Z"/><path fill="url(#c)" d="M395.66 185.56c-2.29-1.12-4.19-.46-6.61-1.16-1.65-1-3.32-1.22-5-.66.27 0 .57.41.89 1.24 1.03 4.56.77 8.53-.77 11.9-4.19 9.18-11.7 14.13-22.52 14.84-3.82.18-7.67-.31-11.55-1.48-7.85-2.37-13.49-7.34-16.92-14.93l-1.01-1.64c-1.66-4.22-2.42-8.46-2.27-12.72l-6.66 1.55-3.31.41c2.22 13.13 4.74 26.15 7.56 39.06.27 1.23.53 3.71.8 7.43h63.68l3.52-.03-.2-.16c-.17-.12-.19-.28-.07-.45.08-.11.14-.22.2-.34.05-.11.07-.24.08-.37.41-9.76.82-19.53 1.24-29.29.18-4.15-.18-8.55-1.07-13.2h-.01Zm-47.38 30.74s-.02-.07-.02-.11c0 .08.02.16.08.22-.03-.03-.05-.07-.07-.11h.01Zm.19-.4s-.08.04-.11.07c.03-.03.07-.05.11-.07Zm-14.78-5.52s-.03-.01-.04 0h.04Zm21 17.33h.13-.13Zm.38-.05s-.08.03-.12.04c.04 0 .08-.03.12-.04Zm.11-.06s.06-.05.09-.08c-.03.03-.06.06-.09.08Zm.21-.22s-.02.02-.03.04c.04-.06.08-.12.1-.19-.01.05-.04.11-.06.16l-.01-.01Z"/><path fill="url(#d)" d="M188.97 270.94c.81-.42 1.44-.41 1.89.03 2.77 2.69 5.75 6.27 8.93 10.74-1.93.33-3.33.25-4.22-.23-1.83-2.5-3.77-4.94-5.81-7.32-.99-1.15-1.25-2.23-.79-3.23v.01Z"/><path fill="url(#e)" d="M327.49 221.96a836.437 836.437 0 0 1-7.56-39.06c-3.08-.58-7.01.07-11.78 1.96l-7.84 1.36c-.99.73-2.2 1.43-3.65 2.12-5.67 2.7-10.27 8.06-13.43 13.4-6.44 10.92-11.05 22.99-15.29 34.91l-3.31 9.17c-5.22 14.55-9.49 29.04-12.82 43.46-.44 1.91-.74 3.92-.9 6.01-.09 1.14-.17 2.29-.24 3.43-.08 1.41-.09 2.94.59 4.22.48.9 1.24 1.49 1.94 2.19.76.75 1.52 1.5 2.33 2.2 1.94 1.69 4.02 3.22 6.21 4.57.72.45 1.46.87 2.2 1.28 1.95 1.06 3.99 1.99 6.12 2.63 1.59.48 3.23.73 4.88.94 1.12.15 2.77 2.04 2.7-.34-.18-6.88-.23-13.75-.24-20.63v-.2l.19-15.02.2-48.46c.79-2.77 4.8-2.83 7.53-2.81.72 0 1.44 0 2.17.01.99.03 2 .03 3.03.01 9.05.05 18.09.07 27.11.04l10.64.02c-.27-3.72-.53-6.2-.8-7.43l.02.02Zm-32.82 7.12s.05-.04.07-.06c-.02.03-.04.04-.07.06Zm.1-.15s.02-.09 0-.13c0 .02.01.04.01.07 0 .02-.02.04-.02.06h.01Z"/><path fill="url(#f)" d="M233.14 292.26c-.41 3.12-1.73 5.46-3.94 7.01-.09.06-.19.09-.3.08a.473.473 0 0 1-.43-.49l.58-8.36c.09-1.19.69-1.58 1.81-1.17.12.05.34.12.65.24 1.26.46 1.8 1.35 1.63 2.68v.01Zm3.14-1.46c-.08-1.52-1.37-3.24-2.87-3.39-2.66-.27-4.42-.66-5.27-1.17 1.4-.6 1.4-2.51.96-3.7-.12-.35-.37-.52-.73-.52l-28.57-.31c-1.93.33-3.33.25-4.22-.23l-6.75.49c-.3.02-.52.16-.65.43-.58 1.18-.59 2.34-.03 3.48-.1 3.99.11 7.95.63 11.88.41 3.08 1.31 6.65 3.06 9.15.36.52 1.9 3.43 2.17 3.96.23.22 0 0 .41.12l7.38-.59c4.79.8 9.72.78 14.79-.04.55-.3 1.05-.45 1.5-.45l8.7-2.33 1.5-4.6c.09-.29.28-.49.57-.59 5.25-1.83 7.72-5.7 7.42-11.61v.02Z"/><path fill="url(#g)" d="m457.65 306.77-.85-.82c-1.54-1.84-4.08-4.27-6.27-5.17-.47-.19-.75-.55-.84-1.06-.47-2.46-1.01-4.82-1.63-7.07-5.4-19.62-10.63-39.28-15.69-58.99-1.13-3.81-2.3-7.59-3.16-11.51-1.97-8.96-4.23-16.41-6.78-22.37-1.69-3.95-4.88-7.08-9.59-9.39-.43-.21-.62-.55-.79-.96l-10.94-3.11c-1.94-.79-3.75-1.04-5.44-.76.9 4.65 1.26 9.04 1.07 13.2-.42 9.76-.83 19.53-1.24 29.29 0 .13-.03.25-.08.37s-.12.23-.2.34c-.12.18-.1.33.07.45l.2.16 5.96.02c2.7 0 5.41-.02 8.11 0 1.89 0 3.78.06 5.67.07 1.8 0 3.67-.18 5.47.01 1 .11 2.03.48 2.64 1.28.42.55.59 1.25.69 1.93.2 1.33.19 2.68.17 4.02 0 3.7-.08 7.4-.08 11.09 0 5.71-.02 11.42-.02 17.13v39.66c.09 2.67.18 5.35.29 8.02.03.86.29 1.49.77 1.91 1.26 1.09 2.51 2.2 3.77 3.34 1.12.48 2.21 1.01 3.29 1.59 2.39 1.27 4.4 3.34 6.87 4.8l.39.02c.14 0 .27-.08.32-.21.03-.07.06-.16.09-.25-2.17-3.34-2.13-7.28.78-10.05 5.25-5 10.72-7.1 16.42-6.29.34.05.54-.1.61-.43a.29.29 0 0 0-.06-.25l.01-.01Zm-25.25-20.62v-.14.14Zm0-.29s-.03-.08-.05-.12c.02.04.04.07.05.12Zm-.13-.28v.02a.728.728 0 0 0-.01-.01l.01-.01Zm.1.69c-.02.05-.03.11-.06.16.03-.05.04-.1.06-.16Zm.2 27.33c.06.02.12.03.19.03-.06 0-.12-.02-.19-.03Zm.38.04c.06 0 .12-.02.18-.04-.06.02-.12.03-.18.04Zm.45-.15-.09.03c.09-.05.18-.09.25-.17-.05.05-.1.1-.16.14Z"/><path fill="url(#h)" d="M545.83 269.54s-.06-.07-.09-.1c-.45-.4-3.21.16-3.86.19-2.8.13-5.6.15-8.39.08-1.34-.04-2.74-.08-3.95.49-3.21 1.5-1.23-2.15-.71-3.73 1.03-2.76 1.81-5.48 3.17-8.12 1.52-2.94 3.29-5.74 4.77-8.7 1.4-2.81 2.52-5.75 3.35-8.78.83-3.03.98-6.29 2.29-9.16.05-.1.06-.2.05-.31a.584.584 0 0 0-.65-.5c-1.52.18-2.26 1.24-3.42 2.02-9.64 6.52-17.75 14.79-26.65 22.22-.52-5.98-3.41-11.47-6.48-16.63-3.07-5.15-6.43-10.25-8.08-16.02.28.83-.83 3.29-1.05 4.17-.33 1.31-.71 2.58-1.12 3.86-.94 2.99-1.99 5.96-2.98 8.93-1.37 4.1-2.66 8.53-1.47 12.69 1 3.5 3.56 6.21 5.85 8.92 2.58 3.06 4.07 6.01 5.32 9.78.07.2.13.43.04.63-.08.17-.26.26-.43.34-.59.29-1.22.58-1.87.51-.49-.05-.94-.31-1.37-.57-2.66-1.57-5.27-3.26-8.13-4.45-6.85-2.88-13.17-6.11-20.53-7.64 1.72 1.58 3.26 3.33 4.61 5.24 3.24 4.58 5.31 10.01 9.18 14.07 3.27 3.44 7.66 5.69 12.22 7 6.09 1.76 12.58 2.07 18.89 2.1 2.28 0 4.91.75 6.95-.64.68-.46 1.2-1.13 1.86-1.62 2.1-1.58 5.04-1.14 7.57-1.87 3.08-.88 5.36-3.45 7.28-6.02.56-.75 7.48-8.89 7.85-8.38h-.02Zm-45.54-32.98s.03-.02.05-.03h.04c-.03 0-.06 0-.09.03Zm3.23 13.48s-.03.03-.04.05c.02-.03.04-.05.05-.08 0 .01 0 .02-.01.04v-.01Zm3.92 2.31c.08-.02.15-.07.22-.11-.06.04-.12.08-.19.11h-.03Zm.72 32.27s-.02.03-.03.04c.05-.11.1-.22.12-.34-.01.1-.04.2-.08.3h-.01Zm1.51-33.51s.02 0 .03.01c.05.02.08.06.12.08-.05-.03-.1-.07-.15-.1v.01Zm8.77 8.02h-.02.04-.02Zm3 23.64s-.03-.01-.04-.02c.02 0 .03.01.05.02h-.01Zm.75-23.82c.07.04.15.06.23.07-.08 0-.16-.03-.23-.07Zm5.11-11.33h-.03.03Z"/><path fill="url(#i)" d="M527.37 318.92c-.58 1.22-.88 2.02-.89 2.4-.05 1.2-.27 2.34-.67 3.42-.1.27-.3.4-.58.41l-26.33.37c-.99.01-1.84-.71-1.98-1.7l-.78-5.45-5.74-29.58c-.07-.37.17-.73.54-.8.04 0 .09-.01.13-.01l15.07-.14 5.79.07 5.51.1 3.36-.08 12.07-.1c.47 0 .86.37.86.84 0 .06 0 .13-.02.19l-6.33 30.04-.01.02Z"/><path fill="url(#j)" d="M192.71 307.68c.23.22.55.39.95.52l8.14 2.21c-9.49.45-18.75 1.14-27.77.71l-2.95-.07c-.5 0-.9-.42-.89-.92v-.83c.02-.53.44-.97.97-1.01 7.11-.46 13.27-.27 21.54-.61h.01Z"/><path fill="url(#k)" d="M247.71 308.39c-.48-.36-1.15-.55-1.99-.57-6.26-.11-12.57-.19-18.93-.22l-8.7 2.33c-.45 0-.95.15-1.5.45.05.26.21.39.49.42.62.05 1.47.01 2.53-.12l28.68.02c.52-.86.33-1.62-.57-2.3l-.01-.01Z"/><path fill="#FBC9A4" d="M457.65 306.77c.91.79 1.98 1.66 3.1 2.11 1.23.5 2.66.68 3.93 1.09 1.51.49 3 1.06 4.48 1.63 3.68 1.42 7.31 2.98 10.92 4.57 3.41 1.5 6.97 2.77 9.88 5.17 1.74 1.43 3.24 3.28 3.62 5.54-2.47.7-5.03 1.07-7.68 1.1-2.44.03-4.69.59-7.17-.09-4.42-1.23-8.83-2.5-13.25-3.83-1.75-.53-3.45-1.12-5.11-1.76-3.78-1.49-7.84-1.97-12.18-1.44-.38.05-.65.39-.6.76 0 .06.02.11.04.17.48 1.21.83 2.41 1.06 3.59.38 1.97-.32 2.91-2.11 2.8-3.39-.2-4.52-2.3-6.69-4.39-2.17-3.34-2.13-7.28.78-10.05 5.25-5 10.72-7.1 16.42-6.29.34.05.54-.1.61-.43a.29.29 0 0 0-.06-.25h.01Zm22.18 14.04c1.9 1.12 3.75 2.15 5.55 3.1.03.02.05.01.07-.02l.11-.19c.06-.1.03-.24-.07-.31a105.34 105.34 0 0 0-13.82-7.86c-3.24-1.53-5.97-3.17-8.91-5.03-.15-.09-.27-.06-.36.09l-.26.43s-.02.06.02.08c3.87 2.5 7.89 4.74 12.05 6.71 1.85.88 3.72 1.87 5.61 2.98l.01.02Zm-20.71-5.79-.3.65c-.03.07 0 .15.07.18l.07.03c13.27 6.08 24.12 10.81 24.24 10.57l.02-.03c.09-.25-10.58-5.37-23.84-11.44l-.06-.03c-.07-.03-.15 0-.18.06l-.02.01Z"/><path fill="#FBB17D" d="M474.22 317.83a104.9 104.9 0 0 1-12.05-6.71c-.03-.02-.04-.04-.02-.08l.26-.43c.09-.15.21-.18.36-.09 2.94 1.86 5.67 3.49 8.91 5.03 4.87 2.31 9.47 4.93 13.82 7.86.1.07.13.2.07.31l-.11.19s-.04.03-.07.02c-1.8-.95-3.65-1.98-5.55-3.1-1.9-1.11-3.77-2.1-5.61-2.98l-.01-.02ZM459.13 315.02c.03-.07.11-.1.18-.07l.06.03c13.27 6.07 23.94 11.19 23.84 11.44l-.02.03c-.12.23-10.97-4.5-24.24-10.57l-.07-.03c-.07-.03-.1-.11-.07-.18l.3-.65h.02Z"/><path fill="url(#l)" d="M424.11 268.09c0-9.79.07-19.55.24-29.34.03-1.84.06-3.67.1-5.51.03-1.69-.24-3.23-1.94-3.85-1.8-.65-3.77-.6-5.65-.54-8.27.25-16.52.48-24.77.54H328.3l-10.64-.02c-10.75.03-21.52.01-32.31-.07-2.73-.02-6.74.04-7.53 2.81-.05 13.22-.11 26.44-.16 39.66-.07 16.19-.73 32.38-1.07 48.58-.03 1.38-.02 3.51.57 4.75 1.06 2.23 3.85 1.45 5.97 1.41 29.4-.47 58.8.02 88.21.05 16.27.02 32.54-.1 48.81-.25 2.86-.03 3.83-.86 3.9-3.57.51-17.96.07-36.71.07-54.68l-.01.03Z"/><path fill="url(#m)" d="M597.14 320.29c-1.33-.91-2.75-1.37-4.27-1.36-21.71.09-43.54.09-65.5 0-.58 1.22-.88 2.02-.89 2.4-.05 1.2-.27 2.34-.67 3.42-.1.27-.3.4-.58.41l-26.33.37c-.99.01-1.84-.71-1.98-1.7l-.78-5.45-8.88 1.19c.62.62 1.97 1.59 3.56 2.84 1.38 1.08 2.45 2.51 2.77 4.46-2.47.7-5.03 1.07-7.68 1.1-2.44.03-4.69.59-7.17-.09-4.42-1.23-8.83-2.5-13.25-3.83-1.75-.53-3.45-1.12-5.11-1.76-3.78-1.49-7.84-1.97-12.18-1.44-.06 0-.12.02-.17.04a.69.69 0 0 0-.39.89c.48 1.21.83 2.41 1.06 3.59.38 1.97-.32 2.91-2.11 2.8-3.39-.2-4.52-2.3-6.69-4.39-.03.09-.07.17-.09.25-.04.13-.17.22-.32.21l-.39-.02c-2.48-1.46-4.49-3.53-6.87-4.8-1.07-.58-2.17-1.11-3.29-1.59-.98.51-2.1.81-3.36.9-.28.02-.53.13-.74.33-.34.32-.73.63-.76 1.14-.04.85 0 1.71-.03 2.56-.04.79-.11 1.71-.58 2.37-.43.6-1.09 1.04-1.83 1.15-.75.11-1.53.07-2.29.07l-3.65.03c-2.44.02-4.87.04-7.31.05-2.44.02-4.88.03-7.32.04-2.45.01-4.89.03-7.34.04l-7.36.03c-2.46.01-4.92.02-7.37.02s-4.93 0-7.39.01h-14.83c-2.48 0-4.96 0-7.44-.01-2.49 0-4.97-.01-7.46-.02-1.25 0-2.49 0-3.74-.01-19.74 0-39.48-.11-59.21-.16-.24 0-.49 0-.7-.13-.21-.12-.33-.34-.44-.55-1.1-2.13-1.48-4.62-1.06-6.99-2.71-.7-5.54-.21-8.29-.18-2.15.02-4.52-.24-6.65.06-3.37.47-6.75.42-10.12-.15.02 1.04-.34 1.6-1.06 1.67-4.82.52-10.64 1.01-17.47 1.46-5.33.35-11 .41-17.02.18-14.29-.55-26.86-.94-37.71-1.16-6-.12-11.57-.61-16.69-1.47-12.17-.21-24.38-.28-36.62-.22-1.83.01-3.5.12-5 .32-4.44.58-4.34 9.76-3.92 12.87.64 4.59 3.05 7.73 7.25 9.42.98.39 2.83.55 5.56.48l458.73.02c3.06 0 5.2-.18 6.42-.55 3.83-1.16 6.12-3.73 6.87-7.71.83-4.46.09-10.7-3.88-13.46l.01.01Zm-162.27 6.12s-.04.06-.06.08c.02-.03.03-.06.06-.08Zm-.12.18Zm-.04.22s0 .04.01.07c0-.02-.01-.04-.01-.07Zm.04.22s.04.07.06.1c-.02-.03-.05-.06-.06-.09v-.01Zm.12.18c.05.05.11.1.18.13a.463.463 0 0 1-.18-.13Z"/><path fill="url(#n)" d="M129 341.99c.14 4.73-.97 20.33 6.61 20.33 31.86 0 63.72-.01 95.57 0l96.64.03H494.6c3.98 0 7.97.02 11.95.03l12.09.02c2.12 0 4.25-.06 6.37-.06H549.13c4 0 8 0 12-.01 3.98 0 7.97-.01 11.95-.02 2.92 0 5.84-.01 8.76-.02.97 0 1.73-.35 2.27-1.06 3.71-4.79 3.5-11.72 3.62-19.2L129 342.01v-.02Z"/><path fill="url(#o)" d="M263.49 314.44c0-.56-.33-1.01-.72-1.01l-10.23.16-86.21-.15-16.47.17c-.59 0-1.06.69-1.06 1.55v8.42c0 .24.2.44.44.44h113.83c.24 0 .44-.2.44-.44h.06l-.08-9.14Z"/><path fill="url(#p)" d="M251.21 311.53c.23.7.52 1.42.93 2.03.03.05.06.13 0 .17-.02.01-.04.01-.06.02-.17.02-.35 0-.52 0H166.01c-.4-1.71-.13-2.6.81-2.68 2.59-.2 5.19-.28 7.79-.29 2.6-.01 5.12.13 7.68.09 5.07-.09 10.15-.02 15.22-.18.71-.02 1.43-.05 2.14-.08.67-.03 1.49-.2 2.15-.09 4.79.8 9.72.78 14.79-.04.05.26.21.39.49.42.62.05 1.47.01 2.53-.12l28.68.02h2.16c.1 0 .21 0 .3.04.23.09.33.37.4.61.02.06.04.13.06.19v-.11Z"/><path fill="#fff" d="M352.74 284.48a8.2 8.2 0 0 0 8.2-8.2 8.2 8.2 0 0 0-8.2-8.2 8.2 8.2 0 0 0-8.2 8.2 8.2 8.2 0 0 0 8.2 8.2Z"/></g><defs><linearGradient id="b" x1="298.34" x2="415.23" y1="112.22" y2="112.22" gradientUnits="userSpaceOnUse"><stop stop-color="#D02801"/><stop offset="1" stop-color="#FF7F0A"/></linearGradient><linearGradient id="c" x1="319.93" x2="396.78" y1="205.17" y2="205.17" gradientUnits="userSpaceOnUse"><stop stop-color="#5BC8BB"/><stop offset="1" stop-color="#BFEEE8"/></linearGradient><linearGradient id="d" x1="188.75" x2="199.79" y1="276.28" y2="276.28" gradientUnits="userSpaceOnUse"><stop stop-color="#D02801"/><stop offset="1" stop-color="#FF7F0A"/></linearGradient><linearGradient id="e" x1="250.64" x2="328.29" y1="250.16" y2="250.16" gradientUnits="userSpaceOnUse"><stop stop-color="#008897"/><stop offset=".59" stop-color="#009E87"/><stop offset="1" stop-color="#00A880"/></linearGradient><linearGradient id="f" x1="187.74" x2="236.3" y1="296.25" y2="296.25" gradientUnits="userSpaceOnUse"><stop stop-color="#D02801"/><stop offset="1" stop-color="#FF7F0A"/></linearGradient><linearGradient id="g" x1="395.14" x2="457.72" y1="254.85" y2="254.85" gradientUnits="userSpaceOnUse"><stop stop-color="#008897"/><stop offset=".59" stop-color="#009E87"/><stop offset="1" stop-color="#00A880"/></linearGradient><linearGradient id="h" x1="469.44" x2="545.83" y1="255.38" y2="255.38" gradientUnits="userSpaceOnUse"><stop stop-color="#008897"/><stop offset=".59" stop-color="#009E87"/><stop offset="1" stop-color="#00A880"/></linearGradient><linearGradient id="i" x1="490.37" x2="533.72" y1="306.69" y2="306.69" gradientUnits="userSpaceOnUse"><stop stop-color="#D02801"/><stop offset="1" stop-color="#FF7F0A"/></linearGradient><linearGradient id="j" x1="170.2" x2="201.8" y1="309.47" y2="309.47" gradientUnits="userSpaceOnUse"><stop stop-color="#8ED7C6"/><stop offset="1" stop-color="#56ADAB"/></linearGradient><linearGradient id="k" x1="216.59" x2="248.57" y1="309.21" y2="309.21" gradientUnits="userSpaceOnUse"><stop stop-color="#8ED7C6"/><stop offset="1" stop-color="#56ADAB"/></linearGradient><linearGradient id="l" x1="276.57" x2="424.45" y1="277.76" y2="277.76" gradientUnits="userSpaceOnUse"><stop stop-color="#D7D7C6"/><stop offset="1" stop-color="#86C3AB"/></linearGradient><linearGradient id="m" x1="116" x2="601.33" y1="329.92" y2="329.92" gradientUnits="userSpaceOnUse"><stop stop-color="#077"/><stop offset="1" stop-color="#69BDC4"/></linearGradient><linearGradient id="n" x1="129" x2="587.74" y1="352.19" y2="352.19" gradientUnits="userSpaceOnUse"><stop stop-color="#8ED7C6"/><stop offset="1" stop-color="#56ADAB"/></linearGradient><linearGradient id="o" x1="148.8" x2="263.57" y1="318.73" y2="318.73" gradientUnits="userSpaceOnUse"><stop stop-color="#8ED7C6"/><stop offset="1" stop-color="#56ADAB"/></linearGradient><linearGradient id="p" x1="165.83" x2="252.17" y1="312.06" y2="312.06" gradientUnits="userSpaceOnUse"><stop stop-color="#D02801"/><stop offset="1" stop-color="#FF7F0A"/></linearGradient><clipPath id="a"><path fill="#fff" d="M116 35h485.33v327.39H116z"/></clipPath></defs></svg>
