<svg xmlns="http://www.w3.org/2000/svg" width="276" height="276" fill="none" viewBox="0 0 276 276"><path fill="url(#a)" d="M137.6 0c-36.49 0-71.49 14.5-97.3 40.3A137.58 137.58 0 0 0 0 137.6c0 36.5 14.5 71.49 40.3 97.3a137.58 137.58 0 0 0 97.3 40.3c36.5 0 71.49-14.5 97.3-40.3a137.58 137.58 0 0 0 40.3-97.3 137.722 137.722 0 0 0-40.35-97.25A137.722 137.722 0 0 0 137.6 0Z"/><path fill="#fff" d="M123.58 215.21v-18.84c0-2.59 2.52-4.69 5.62-4.69h17.03c3.1 0 5.62 2.1 5.62 4.69v18.84c0 2.59-2.52 4.69-5.62 4.69H129.2c-3.1 0-5.62-2.1-5.62-4.69Zm-.44-46.02-2.67-118.5a5.812 5.812 0 0 1 5.81-5.94h22.11c3.26 0 5.88 2.68 5.81 5.94l-2.67 118.5a5.808 5.808 0 0 1-5.81 5.68h-16.77c-3.16 0-5.74-2.52-5.81-5.68Z"/><defs><linearGradient id="a" x1="0" x2="275.2" y1="137.59" y2="137.59" gradientUnits="userSpaceOnUse"><stop stop-color="#FF7F0A"/><stop offset="1" stop-color="#D02801"/></linearGradient></defs></svg>