<svg xmlns="http://www.w3.org/2000/svg" fill="none" viewBox="0 0 442 23"><path fill="url(#a)" fill-rule="evenodd" d="M20.58 6.226C10.57 6.862 4.607 7.434 3.649 8.07c-2.343 1.399 2.343 2.098 17.144 2.162.106 0 384.402-5.213 384.508-5.213 17.357-.445 18.741-1.017 18.741-2.097 0-1.399-4.685-2.352-14.694-2.797-13.204-.7-314.763 1.59-388.768 6.102Zm391.217 3.178c-4.685.127-309.652 4.323-317.318 4.704C.56 18.24-6.68 18.875 3.436 21.926c4.898 1.462 14.162 1.462 54.306-.19 96.793-3.878 372.37-4.323 382.06-6.42 4.472-1.017 5.111-6.61-28.005-5.912Z" clip-rule="evenodd"/><defs><linearGradient id="a" x1="396.224" x2="181.297" y1="23" y2="-159.554" gradientUnits="userSpaceOnUse"><stop offset=".12" stop-color="#7F76B2"/><stop offset=".298" stop-color="#F69656"/><stop offset=".591" stop-color="#F2797F"/><stop offset=".904" stop-color="#9CD6CB"/></linearGradient></defs></svg>