<svg xmlns="http://www.w3.org/2000/svg" width="44" height="44" fill="none"><path fill="#FF7A7F" d="M34.712 31.333v2.62H2.897V16.2l4.217.002.001-2.874-7.09-.003v.004H.023v23.328h.002v.171h34.688v.002h2.873v-5.496h-2.873Z"/><path fill="#FFC8DC" d="M10.868 33.953h-7.97v2.895h7.97v-2.895Z"/><path fill="#A3BEDC" d="M2.898 36.85v-7.971H.003v7.97h2.895Z"/><path fill="#56B7B5" d="M2.898 28.878v-7.97H.003v7.97h2.895Z"/><path fill="#FF9852" d="M18.798 33.953h-7.97v2.895h7.97v-2.895Z"/><path fill="#98E1D0" d="M26.79 33.953h-7.97v2.895h7.97v-2.895Z"/><path fill="#8075B3" d="M34.76 33.953h-7.97v2.895h7.97v-2.895Z"/><path fill="#8075B3" d="M37.586 36.849v-6.867H34.69v6.867h2.895Z"/><path fill="#98E1D0" d="M6.445 30.656h37.563V7.153H6.445v23.503Z"/><path fill="#fff" d="M11.646 20.72h2.525c.31 0 .56-.25.56-.56v-2.524a.56.56 0 0 0-.56-.56h-2.525a.56.56 0 0 0-.56.56v2.525c0 .308.25.559.56.559ZM25.225 24.833a5.85 5.85 0 1 0 0-11.7 5.85 5.85 0 0 0 0 11.7ZM36.279 20.72h2.524c.31 0 .56-.25.56-.56v-2.524a.56.56 0 0 0-.56-.56H36.28a.56.56 0 0 0-.56.56v2.525c0 .308.25.559.56.559Z"/></svg>