<svg width="3607" height="470" fill="none" xmlns="http://www.w3.org/2000/svg"><style>@keyframes blink{0%,30%{opacity:1}10%{opacity:0}}</style><path d="M100 100v45H45v75H0V100h100Z" fill="#8075B3"/><path d="M45 220v125H0V220h45Z" fill="#FF7A7F"/><path d="M555 370v55H45.002V145H100v-45h-100l.022.064H.001L0 470l554.1-.021V470h45.901V370H555Z" fill="#FF7A7F" style="--animation-order:1;animation:blink 2s infinite;animation-delay:calc(var(--animation-order)*100ms)"/><path d="M45 220v125H0V220h45Z" fill="#56B7B5" style="--animation-order:2;animation:blink 2s infinite;animation-delay:calc(var(--animation-order)*100ms)"/><path d="M45 345v125H0V345h45Z" fill="#A3BEDC" style="--animation-order:3;animation:blink 2s infinite;animation-delay:calc(var(--animation-order)*100ms)"/><path d="M45 425h127.5v45H45v-45Z" fill="#FFC8DC" style="--animation-order:4;animation:blink 2s infinite;animation-delay:calc(var(--animation-order)*100ms)"/><path d="M172.5 425H300v45H172.5v-45Z" fill="#FF9852" style="--animation-order:5;animation:blink 2s infinite;animation-delay:calc(var(--animation-order)*100ms)"/><path d="M300 425h127.5v45H300v-45Z" fill="#98E1D0" style="--animation-order:6;animation:blink 2s infinite;animation-delay:calc(var(--animation-order)*100ms)"/><path d="M427.5 425H555v45H427.5v-45ZM600 370v100h-45V370h45Z" fill="#8075B3" style="--animation-order:7;animation:blink 2s infinite;animation-delay:calc(var(--animation-order)*100ms)"/><path d="M700.001 370h-600V0h600v370Z" fill="#98E1D0"/><path d="M189.761 214h39.481a8.752 8.752 0 0 0 8.759-8.763v-39.474a8.752 8.752 0 0 0-8.759-8.763h-39.481a8.752 8.752 0 0 0-8.76 8.763v39.495c0 4.826 3.915 8.742 8.76 8.742ZM399.501 277c50.534 0 91.5-40.966 91.5-91.5S450.035 94 399.501 94s-91.5 40.966-91.5 91.5 40.966 91.5 91.5 91.5ZM569.761 214h39.481a8.752 8.752 0 0 0 8.759-8.763v-39.474a8.752 8.752 0 0 0-8.759-8.763h-39.481a8.752 8.752 0 0 0-8.76 8.763v39.495c0 4.826 3.915 8.742 8.76 8.742Z" fill="#fff"/><path d="M888.034 128.572h28.675l42.297 223.677h10.403l50.551-221.531h32.25l50.56 221.531h10.4l42.3-223.677h28.32l-50.2 248.059h-50.55l-46.95-211.872-46.949 211.872h-50.553l-50.554-248.059ZM1335.42 354.424l10.4-1.073.71 21.164c-27.24 3.815-50.55 5.752-69.89 5.752-25.82 0-44.09-7.481-54.85-22.415-10.76-14.934-16.13-38.183-16.13-69.72 0-62.864 24.98-94.281 74.94-94.281 24.14 0 42.18 6.766 54.13 20.239 11.95 13.503 17.92 34.726 17.92 63.639l-1.44 20.418h-118.3c0 19.852 3.58 34.547 10.76 44.086 7.18 9.568 19.64 14.337 37.47 14.337 17.82 0 35.92-.715 54.31-2.146h-.03Zm-9.69-77.798c0-21.998-3.52-37.527-10.58-46.589-7.07-9.091-18.51-13.622-34.43-13.622-15.92 0-27.84 4.769-35.86 14.337-8.02 9.569-12.13 24.86-12.37 45.874h93.24ZM1473.78 193.821c24.15 0 41.05 6.886 50.74 20.597 9.68 13.742 14.51 37.826 14.51 72.224s-6.05 58.602-18.09 72.582c-12.07 13.98-34.25 20.984-66.5 20.984-10.05 0-26.65-.954-49.84-2.861l-10.05-1.073V119.243h26.53v87.097c18.16-8.375 35.71-12.549 52.7-12.549v.03Zm-19.7 162.392c23.43 0 38.9-5.306 46.41-15.947 7.54-10.641 11.3-28.615 11.3-53.952 0-25.336-2.98-43.072-8.97-53.236-5.97-10.164-16.61-15.232-31.9-15.232-13.86 0-28.08 2.623-42.65 7.899l-7.19 2.504v126.176c15.53 1.192 26.53 1.788 32.97 1.788h.03ZM1666.61 376.631V128.572h49.84l70.25 209.697 70.26-209.697h49.84v248.059h-27.6V157.963h-5.01l-72.05 209.696h-30.82l-72.04-209.696h-5.01v218.668h-27.66ZM1953.42 286.672c0-32.729 5.84-56.396 17.55-70.972 11.72-14.576 31.48-21.879 59.32-21.879s47.54 7.303 59.14 21.879c11.59 14.576 17.38 38.243 17.38 70.972 0 32.729-5.52 56.515-16.49 71.33-11 14.814-31.06 22.236-60.21 22.236-29.15 0-49.24-7.392-60.21-22.236-11-14.815-16.48-38.601-16.48-71.33Zm27.6-.537c0 26.172 3.16 44.503 9.51 55.025 6.32 10.522 19.58 15.769 39.79 15.769s33.39-5.187 39.62-15.59c6.2-10.403 9.33-28.734 9.33-55.025 0-26.29-3.46-44.383-10.41-54.309-6.94-9.926-19.79-14.874-38.54-14.874s-31.68 4.948-38.72 14.874c-7.06 9.926-10.58 27.959-10.58 54.13ZM2177.45 376.631h-26.88V197.398h26.52v12.549c19.35-10.76 37.89-16.126 55.57-16.126 23.9 0 39.97 6.439 48.19 19.345 8.23 12.907 12.37 35.859 12.37 68.826v94.639h-26.52v-93.923c0-24.86-2.45-41.88-7.37-51.091-4.89-9.21-15.35-13.801-31.35-13.801-7.66 0-15.71 1.133-24.21 3.398-8.49 2.266-14.99 4.472-19.52 6.618l-6.83 3.219v145.551l.03.029ZM2464.95 354.424l10.4-1.073.71 21.164c-27.24 3.815-50.55 5.752-69.89 5.752-25.82 0-44.09-7.481-54.85-22.415-10.76-14.934-16.13-38.183-16.13-69.72 0-62.864 24.98-94.281 74.91-94.281 24.14 0 42.18 6.766 54.13 20.239 11.95 13.503 17.91 34.726 17.91 63.639l-1.43 20.418h-118.3c0 19.852 3.57 34.547 10.76 44.086 7.18 9.568 19.64 14.337 37.47 14.337 17.82 0 35.88-.715 54.31-2.146Zm-9.69-77.798c0-21.998-3.52-37.527-10.58-46.589-7.07-9.091-18.51-13.622-34.43-13.622-15.92 0-27.84 4.769-35.86 14.337-8.02 9.569-12.13 24.86-12.37 45.874h93.24ZM2615.86 220.707h-56.99v85.667c0 20.568 1.49 34.041 4.47 40.509 2.98 6.438 10.11 9.687 21.34 9.687l31.9-2.146 1.79 22.237c-16.01 2.623-28.2 3.934-36.58 3.934-18.63 0-31.53-4.53-38.72-13.622-7.18-9.091-10.76-26.409-10.76-51.984v-94.282h-25.45v-23.309h25.45v-54.846h26.53v54.846h56.99v23.309h.03ZM2648.83 156.889V125.71h26.89v31.179h-26.89Zm0 219.742V197.398h26.89v179.233h-26.89ZM2716.58 221.424v-24.025h133v24.025l-100.36 131.213h100.36v24.025h-133v-24.025l100.36-131.213h-100.36ZM3016.98 251.529v91.777c.72 8.853 7.66 14.099 20.81 15.769l-1.07 21.163c-18.87 0-33.12-4.769-42.66-14.337-21.52 9.568-43.01 14.337-64.53 14.337-16.49 0-29.04-4.65-37.65-13.98-8.61-9.329-12.91-22.713-12.91-40.151 0-17.437 4.42-30.284 13.27-38.541 8.82-8.256 22.71-13.324 41.58-15.231l56.28-5.366v-15.41c0-12.192-2.63-20.895-7.9-26.171-5.25-5.247-12.43-7.899-21.52-7.899-19.11 0-38.96 1.192-59.5 3.576l-11.12 1.074-1.07-20.419c26.29-5.246 49.6-7.899 69.9-7.899 20.3 0 35.05 4.65 44.26 13.98 9.18 9.33 13.8 23.906 13.8 43.728h.03Zm-110.4 73.118c0 21.998 9.09 32.967 27.24 32.967 16.24 0 32.25-2.742 48.05-8.257l8.26-2.861v-59.138l-53.06 5.007c-10.76.954-18.51 4.054-23.31 9.33-4.77 5.246-7.18 12.907-7.18 22.952ZM3162.89 220.707h-56.99v85.667c0 20.568 1.49 34.041 4.47 40.509 2.98 6.438 10.1 9.687 21.34 9.687l31.9-2.146 1.78 22.237c-16 2.623-28.19 3.934-36.57 3.934-18.63 0-31.54-4.53-38.72-13.622-7.18-9.091-10.76-26.409-10.76-51.984v-94.282h-25.46v-23.309h25.46v-54.846h26.53v54.846h56.99v23.309h.03ZM3195.86 156.889V125.71h26.88v31.179h-26.88Zm0 219.742V197.398h26.88v179.233h-26.88ZM3266.47 286.672c0-32.729 5.84-56.396 17.56-70.972 11.71-14.576 31.48-21.879 59.32-21.879s47.54 7.303 59.13 21.879c11.6 14.576 17.38 38.243 17.38 70.972 0 32.729-5.51 56.515-16.48 71.33-11 14.814-31.06 22.236-60.21 22.236-29.15 0-49.24-7.392-60.21-22.236-11-14.815-16.49-38.601-16.49-71.33Zm27.6-.537c0 26.172 3.16 44.503 9.51 55.025 6.32 10.522 19.59 15.769 39.8 15.769 20.21 0 33.38-5.187 39.61-15.59 6.2-10.403 9.33-28.734 9.33-55.025 0-26.29-3.46-44.383-10.4-54.309-6.95-9.926-19.79-14.874-38.54-14.874s-31.69 4.948-38.72 14.874c-7.07 9.926-10.59 27.959-10.59 54.13ZM3490.51 376.631h-26.89V197.398h26.53v12.549c19.34-10.76 37.88-16.126 55.56-16.126 23.91 0 39.97 6.439 48.2 19.345 8.23 12.907 12.37 35.859 12.37 68.826v94.639h-26.53v-93.923c0-24.86-2.44-41.88-7.36-51.091-4.89-9.21-15.35-13.801-31.36-13.801-7.66 0-15.71 1.133-24.2 3.398-8.5 2.266-15 4.472-19.53 6.618l-6.82 3.219v145.551l.03.029Z" fill="#000"/></svg>
