<svg width="136" height="34" viewBox="0 0 136 34" xmlns="http://www.w3.org/2000/svg">
  <path d="M35.8375 18.8624c-.7394 1.6792-1.6943 3.1859-2.7529 4.4258.7652-3 .3964-6.8747-1.2596-10.6374-.8655-1.9663-2.0127-3.7347-3.3447-5.1767 2.0843-1.6822 4.2541-2.231 5.931-1.457 1.0745.4962 1.9032 1.5119 2.3966 2.9372.9348 2.7001.572 6.4042-.9704 9.9081zm-17.4702 0c-1.5425-3.504-1.9052-7.208-.9704-9.908.4937-1.4254 1.3225-2.441 2.3966-2.9374 1.6769-.7743 3.847-.2254 5.931 1.4571-1.332 1.442-2.4792 3.2104-3.3443 5.1763-1.6564 3.7627-2.0248 7.6374-1.26 10.6378-1.0586-1.2403-2.0135-2.7466-2.753-4.4258zm10.2982 7.5916c-.4809.222-1.0067.3386-1.563.3457-.5565-.0071-1.0824-.1236-1.5636-.3457-3.2288-1.4904-3.8819-7.463-1.4258-13.0425.7788-1.7696 1.8022-3.358 2.9872-4.644 1.1858 1.2864 2.2122 2.8733 2.9918 4.6444 2.4557 5.5791 1.8026 11.5517-1.4266 13.0421zm4.3847-22.663c-1.9135-.0795-3.999.738-5.9472 2.3676-1.9487-1.63-4.0345-2.4486-5.948-2.3691 1.6882-1.2056 3.7494-1.8982 5.9464-1.8982 2.1983 0 4.2602.693 5.9488 1.8997zm5.555 4.5707c-.0008-.002-.0008-.0042-.0016-.0061-.0011-.0034-.0026-.0068-.0038-.0102-.0011-.003-.0015-.0064-.0026-.0095-.0023-.0064-.0053-.012-.0076-.0185C36.9737 3.341 32.363-.0002 27.1014-.0002c-5.2755 0-9.898 3.358-11.5021 8.3557-.0023.0083-.0027.017-.0053.025-1.0681 3.1343-.6812 7.3324 1.0404 11.2438 2.3553 5.3507 6.629 9.068 10.414 9.068.0178 0 .036-.0004.0542-.0004.0178 0 .0356.0004.0537.0004 3.785-.0004 8.0588-3.7173 10.4141-9.068 1.725-3.919 2.1104-8.1261 1.0347-11.2627zm-8.2655 23.2736c-1.0635.314-2.1236.4732-3.1512.4732h-.1499c-1.0344 0-2.1017-.1611-3.1716-.4792-.5017-.1487-1.028.1365-1.1771.637-.1488.5008.1367 1.027.6376 1.176 1.2452.37 2.4939.5576 3.7111.5576h.15c1.2092 0 2.45-.1857 3.6876-.5508.5013-.1482.7875-.6744.639-1.1753-.148-.5004-.6742-.7875-1.1755-.6385zm88.1329-12.2655V14.63c-.5713-.8935-1.8628-1.613-3.08-1.613-2.0861 0-3.4022 1.6626-3.4022 3.9704 0 2.3325 1.316 3.995 3.4022 3.995 1.2172 0 2.5087-.7199 3.08-1.6126zm0 3.3784v-1.3936c-.9189 1.1912-2.285 1.9356-3.8493 1.9356-3.0554 0-5.3153-2.3324-5.3153-6.3028 0-3.8712 2.2349-6.2782 5.3153-6.2782 1.5148 0 2.9054.6703 3.8493 1.9602V6.685c0-.1346.1094-.244.2438-.244h2.1195a.2442.2442 0 0 1 .2442.244v16.063a.2443.2443 0 0 1-.2442.2444h-2.1195a.2442.2442 0 0 1-.2438-.2443zm-14.1808 0V6.685c0-.1347.1094-.244.2438-.244h2.1194a.2442.2442 0 0 1 .2442.244v16.063a.2443.2443 0 0 1-.2442.2443h-2.1194a.2442.2442 0 0 1-.2438-.2443zm-5.115-5.7608c0-2.1092-1.2173-3.9703-3.4522-3.9703-2.2107 0-3.4526 1.861-3.4526 3.9703 0 2.1342 1.2419 3.995 3.4526 3.995 2.2349 0 3.4521-1.8608 3.4521-3.995zm-9.6122 0c0-3.4495 2.3349-6.2782 6.16-6.2782 3.8247 0 6.1592 2.8287 6.1592 6.2782 0 3.4242-2.3345 6.3028-6.1592 6.3028-3.8251 0-6.16-2.8786-6.16-6.3028zm-4.7713 6.0051a.2444.2444 0 0 1-.2446-.2443v-7.2996c0-1.8857-.9435-2.4315-2.4087-2.4315-1.3414 0-2.4837.794-3.0796 1.5883v8.1428a.2443.2443 0 0 1-.2442.2443h-2.1198a.2445.2445 0 0 1-.2442-.2443V6.685c0-.1347.1098-.244.2442-.244h2.1198a.2442.2442 0 0 1 .2442.244v5.935c.7947-.9434 2.3345-1.911 4.2219-1.911 2.5832 0 3.8743 1.3399 3.8743 3.7968v8.2422a.2443.2443 0 0 1-.2442.2443h-2.119zm-13.4062-6.005c0-2.3325-1.341-3.9704-3.4026-3.9704-1.2168 0-2.4836.6949-3.0796 1.5883v4.739c.5713.894 1.8628 1.638 3.0796 1.638 2.0616 0 3.4026-1.6625 3.4026-3.995zM64.9049 21.33v5.9843a.2441.2441 0 0 1-.2442.2436h-2.119a.2442.2442 0 0 1-.2446-.2436v-16.063c0-.1347.1094-.244.2445-.244h2.1191a.2442.2442 0 0 1 .2442.244v1.3935c.8943-1.1911 2.285-1.9356 3.8497-1.9356 3.1046 0 5.3146 2.3328 5.3146 6.2782s-2.21 6.3028-5.3146 6.3028c-1.5152 0-2.8562-.6949-3.8497-1.9602zm-8.3438 1.4182v-1.3437c-.8443.9427-2.3345 1.8857-4.2223 1.8857-2.5828 0-3.8743-1.3648-3.8743-3.7967v-8.2422c0-.1347.1094-.244.2446-.244h2.119a.2442.2442 0 0 1 .2443.244v7.2746c0 1.861.9439 2.4565 2.4337 2.4565 1.3168 0 2.459-.7694 3.055-1.563v-8.1681c0-.1347.1094-.244.2446-.244h2.119a.2442.2442 0 0 1 .2443.244V22.748a.2443.2443 0 0 1-.2442.2443h-2.1191a.2444.2444 0 0 1-.2446-.2443z" fill="#49CC68" fill-rule="evenodd"/>
</svg>
